<svg width="50" height="23" viewBox="0 0 50 23" fill="none" xmlns="http://www.w3.org/2000/svg">
<mask id="mask0" mask-type="alpha" maskUnits="userSpaceOnUse" x="0" y="0" width="50" height="23">
<path d="M46.1 0H3.8C1.7 0 0 1.7 0 3.8V19.2C0 21.3 1.7 23 3.8 23H46.1C48.2 23 49.9 21.3 49.9 19.2V3.8C49.8 1.7 48.1 0 46.1 0Z" fill="#50ABF1"/>
</mask>
<g mask="url(#mask0)">
<rect width="50" height="23" fill="#0274B3"/>
<rect width="50" height="23" fill="#E1E7EC"/>
<rect width="50" height="23" fill="#CB1F24"/>
<rect width="50" height="23" fill="#3A559F"/>
<rect width="50" height="23" fill="#50ABF1"/>
<path d="M32.1 14.3H29.3C29 14.3 28.8 14.2 28.7 14.1C28.5 14 28.4 13.7 28.4 13.4C28.4 13.2 28.4 13 28.4 12.8C28.4 12.6 28.4 12.4 28.5 12.2H28.7C28.7 12.3 28.8 12.4 28.9 12.5C29 12.6 29.1 12.6 29.3 12.6H31.4C31.3 12 31.1 11.5 30.9 11.2C30.7 10.9 30.4 10.6 30.1 10.4L30.5 8.5C31 8.9 31.4 9.4 31.6 10C31.8 10.6 31.9 11.3 31.9 12.3V14.3H32.1Z" fill="white"/>
<path d="M37.5 14.5C37.5 14.7 37.4 15.1 37.1 15.5C36.8 15.9 36.5 16.3 36.1 16.6C35.7 16.9 35.3 17.1 35 17.1C34.6 17.1 34.3 17 33.8 16.8C33.4 16.6 32.9 16.3 32.1 15.7L32.4 15.3C32.8 15.5 33.1 15.7 33.3 15.8C33.5 15.9 33.8 15.9 34 15.9C34.3 15.9 34.6 15.8 34.8 15.7C35.1 15.5 35.5 15.2 35.9 14.8C36.6 14.2 36.9 13.7 36.9 13.4C36.9 13.2 36.8 13 36.7 12.8C36.6 12.5 36.4 12.2 36.2 12L36.5 10.3C36.8 10.6 37 10.9 37.1 11.3C37.3 11.7 37.3 12.1 37.3 12.6V14.5H37.5Z" fill="white"/>
<path d="M43.5 11.4L42.8 13.1C41.7 13.4 40.8 13.7 40.1 13.9C39.5 14.1 39 14.2 38.5 14.2C38.2 14.2 37.9 14.3 37.6 14.3H37.1V12.6H37.7C37.8 12.6 37.9 12.6 38 12.6C38.1 12.6 38.2 12.6 38.4 12.6C38.2 12.3 38.1 12 38 11.9C37.9 11.7 37.9 11.5 37.9 11.3C37.9 10.7 38.2 10.2 38.7 9.70001C39.2 9.20001 39.8 9.00001 40.5 9.00001C41 9.00001 41.4 9.10001 41.8 9.40001C42.2 9.70001 42.5 10 42.6 10.4L42.3 10.6C42 10.5 41.7 10.4 41.5 10.4C41.3 10.4 41.1 10.3 40.8 10.3C40.3 10.3 39.9 10.3 39.5 10.4C39 10.5 38.8 10.6 38.8 10.8C38.8 11.1 39.4 11.5 40.5 12.2L43.5 11.4ZM41.1 6.80001L40.4 8.20001L39 7.50001L39.7 6.10001L41.1 6.80001Z" fill="white"/>
<path d="M10.3726 14.3343C9.7002 14.3343 9.19589 14.0751 8.69158 13.6431C8.35537 13.3839 8.18726 12.9519 8.01916 12.6063C8.35537 12.6927 8.77563 12.6927 9.11183 12.5199C8.52347 12.3471 8.01915 12.0879 7.68294 11.5695C7.34674 11.0511 7.09459 10.5327 7.09459 9.92788C7.43079 10.1007 7.85105 10.2735 8.18726 10.2735C7.5989 9.8415 7.17864 9.23673 7.09459 8.45913C7.01053 7.85434 7.17864 7.3359 7.4308 6.9039C8.77563 8.54549 10.5407 9.40952 12.5579 9.58232C12.5579 9.49592 12.558 9.40953 12.4739 9.32313C12.3899 8.89113 12.4739 8.45913 12.642 8.02714C12.9782 7.24954 13.5666 6.6447 14.4071 6.47191C15.3317 6.29911 16.0881 6.55835 16.7605 7.16314C16.7605 7.16314 16.7605 7.16314 16.8446 7.16314C17.3489 7.07674 17.8532 6.81753 18.3575 6.55834C18.3575 6.64474 18.1054 7.1631 17.9373 7.3359C17.7692 7.5951 17.517 7.76791 17.2648 7.94071C17.7692 7.85431 18.1894 7.76791 18.6937 7.50871C18.6937 7.50871 18.6937 7.50874 18.6937 7.59514C18.6937 7.59514 18.6937 7.59512 18.6937 7.68152C18.4416 8.02712 18.1054 8.37272 17.7692 8.71832C17.6851 8.80472 17.6011 8.89113 17.517 8.89113C17.517 8.89113 17.517 8.89111 17.517 8.97751C17.517 9.40951 17.517 9.84152 17.4329 10.1871C17.3489 10.8783 17.1808 11.5695 16.8446 12.2607C16.5924 12.8655 16.1722 13.4703 15.7519 14.0751C15.1636 14.7663 14.5752 15.2847 13.7347 15.7167C13.1463 16.0623 12.4739 16.3214 11.8015 16.4078C11.2131 16.4942 10.6248 16.5806 9.95235 16.5806C9.11183 16.5806 8.27131 16.3214 7.51484 15.9758C7.17864 15.803 6.84243 15.6303 6.50623 15.4575C8.10321 15.5439 9.27994 15.1983 10.3726 14.3343Z" fill="white"/>
</g>
</svg>
