<svg width="83" height="23" viewBox="0 0 83 23" fill="none" xmlns="http://www.w3.org/2000/svg">
<mask id="mask0" mask-type="alpha" maskUnits="userSpaceOnUse" x="0" y="0" width="83" height="23">
<path d="M79.1 0H3.8C1.7 0 0 1.69999 0 3.79999V19.2C0 21.3 1.7 23 3.8 23H79.1C81.2 23 82.9 21.3 82.9 19.2V3.79999C82.8 1.69999 81.1 0 79.1 0Z" fill="#50ABF1"/>
</mask>
<g mask="url(#mask0)">
<rect width="83" height="23" fill="#0274B3"/>
<rect width="83" height="23" fill="#E1E7EC"/>
<rect width="83" height="23" fill="#CB1F24"/>
<rect width="83" height="23" fill="#3A559F"/>
<rect width="83" height="23" fill="#50ABF1"/>
<path d="M30.7 15.9V8.5H28V7H35.1V8.5H32.4V15.9H30.7Z" fill="white"/>
<path d="M36.6 15.9L34.5 9.39999H36.2L37.4 13.7L38.5 9.39999H40.2L41.3 13.7L42.5 9.39999H44.2L42.1 15.9H40.4L39.3 11.7L38.2 15.9H36.6Z" fill="white"/>
<path d="M48.9 13.8L50.6 14.1C50.4 14.7 50 15.2 49.6 15.5C49.2 15.8 48.5 16 47.8 16C46.7 16 45.8 15.6 45.3 14.9C44.9 14.3 44.7 13.6 44.7 12.7C44.7 11.6 45 10.8 45.5 10.2C46.1 9.59998 46.8 9.29999 47.6 9.29999C48.6 9.29999 49.3 9.59999 49.9 10.3C50.5 10.9 50.7 11.9 50.7 13.2H46.4C46.4 13.7 46.6 14.1 46.8 14.4C47.1 14.7 47.4 14.8 47.8 14.8C48.1 14.8 48.3 14.7 48.5 14.6C48.7 14.4 48.8 14.2 48.9 13.8ZM49 12.1C49 11.6 48.9 11.2 48.6 11C48.3 10.8 48.1 10.6 47.7 10.6C47.3 10.6 47 10.7 46.8 11C46.6 11.3 46.4 11.6 46.4 12.1H49Z" fill="white"/>
<path d="M55.9 13.8L57.6 14.1C57.4 14.7 57 15.2 56.6 15.5C56.2 15.8 55.5 16 54.8 16C53.7 16 52.8 15.6 52.3 14.9C51.9 14.3 51.7 13.6 51.7 12.7C51.7 11.6 52 10.8 52.5 10.2C53.1 9.59998 53.8 9.29999 54.6 9.29999C55.6 9.29999 56.3 9.59999 56.9 10.3C57.5 10.9 57.7 11.9 57.7 13.2H53.4C53.4 13.7 53.6 14.1 53.8 14.4C54.1 14.7 54.4 14.8 54.8 14.8C55.1 14.8 55.3 14.7 55.5 14.6C55.6 14.4 55.8 14.2 55.9 13.8ZM56 12.1C56 11.6 55.9 11.2 55.6 11C55.3 10.8 55.1 10.6 54.7 10.6C54.3 10.6 54 10.7 53.8 11C53.6 11.3 53.4 11.6 53.4 12.1H56Z" fill="white"/>
<path d="M62 9.39999V10.8H60.8V13.4C60.8 13.9 60.8 14.2 60.8 14.3C60.8 14.4 60.9 14.5 61 14.5C61.1 14.6 61.2 14.6 61.3 14.6C61.5 14.6 61.7 14.5 62 14.4L62.1 15.7C61.7 15.9 61.2 16 60.7 16C60.4 16 60.1 15.9 59.9 15.8C59.7 15.7 59.5 15.6 59.4 15.4C59.3 15.2 59.2 15 59.2 14.7C59.2 14.5 59.1 14.1 59.1 13.5V10.8H58.3V9.39999H59.1V8.09998L60.8 7.09998V9.39999H62Z" fill="white"/>
<path d="M67 13.8L68.7 14.1C68.5 14.7 68.1 15.2 67.7 15.5C67.3 15.8 66.6 16 65.9 16C64.8 16 63.9 15.6 63.4 14.9C63 14.3 62.8 13.6 62.8 12.7C62.8 11.6 63.1 10.8 63.6 10.2C64.2 9.59998 64.9 9.29999 65.7 9.29999C66.7 9.29999 67.4 9.59999 68 10.3C68.6 10.9 68.8 11.9 68.8 13.2H64.5C64.5 13.7 64.7 14.1 64.9 14.4C65.2 14.7 65.5 14.8 65.9 14.8C66.2 14.8 66.4 14.7 66.6 14.6C66.8 14.4 66.9 14.2 67 13.8ZM67.1 12.1C67.1 11.6 67 11.2 66.7 11C66.4 10.8 66.2 10.6 65.8 10.6C65.4 10.6 65.1 10.7 64.9 11C64.7 11.3 64.5 11.6 64.5 12.1H67.1Z" fill="white"/>
<path d="M76.1 15.9H74.4V12.6C74.4 11.9 74.4 11.4 74.3 11.2C74.2 11 74.1 10.8 73.9 10.7C73.7 10.6 73.5 10.5 73.3 10.5C73 10.5 72.7 10.6 72.5 10.7C72.3 10.8 72.1 11.1 72 11.3C71.9 11.6 71.9 12.1 71.9 12.8V15.7H70.2V9.19998H71.8V10.2C72.4 9.49998 73.1 9.09998 73.9 9.09998C74.3 9.09998 74.6 9.19999 74.9 9.29999C75.2 9.39999 75.5 9.59999 75.6 9.79999C75.7 9.99999 75.9 10.3 75.9 10.5C76 10.8 76 11.2 76 11.7V15.9H76.1Z" fill="white"/>
<path d="M10.3726 14.3343C9.7002 14.3343 9.19589 14.0751 8.69158 13.6431C8.35537 13.3839 8.18726 12.9519 8.01916 12.6063C8.35537 12.6927 8.77563 12.6927 9.11183 12.5199C8.52347 12.3471 8.01915 12.0879 7.68294 11.5695C7.34674 11.0511 7.09459 10.5327 7.09459 9.92788C7.43079 10.1007 7.85105 10.2735 8.18726 10.2735C7.5989 9.8415 7.17864 9.23673 7.09459 8.45913C7.01053 7.85434 7.17864 7.3359 7.4308 6.9039C8.77563 8.54549 10.5407 9.40952 12.5579 9.58232C12.5579 9.49592 12.558 9.40953 12.4739 9.32313C12.3899 8.89113 12.4739 8.45913 12.642 8.02714C12.9782 7.24954 13.5666 6.6447 14.4071 6.47191C15.3317 6.29911 16.0881 6.55835 16.7605 7.16314C16.7605 7.16314 16.7605 7.16314 16.8446 7.16314C17.3489 7.07674 17.8532 6.81753 18.3575 6.55834C18.3575 6.64474 18.1054 7.1631 17.9373 7.3359C17.7692 7.5951 17.517 7.76791 17.2648 7.94071C17.7692 7.85431 18.1894 7.76791 18.6937 7.50871C18.6937 7.50871 18.6937 7.50874 18.6937 7.59514C18.6937 7.59514 18.6937 7.59512 18.6937 7.68152C18.4416 8.02712 18.1054 8.37272 17.7692 8.71832C17.6851 8.80472 17.6011 8.89113 17.517 8.89113C17.517 8.89113 17.517 8.89111 17.517 8.97751C17.517 9.40951 17.517 9.84152 17.4329 10.1871C17.3489 10.8783 17.1808 11.5695 16.8446 12.2607C16.5924 12.8655 16.1722 13.4703 15.7519 14.0751C15.1636 14.7663 14.5752 15.2847 13.7347 15.7167C13.1463 16.0623 12.4739 16.3214 11.8015 16.4078C11.2131 16.4942 10.6248 16.5806 9.95235 16.5806C9.11183 16.5806 8.27131 16.3214 7.51484 15.9758C7.17864 15.803 6.84243 15.6303 6.50623 15.4575C8.10321 15.5439 9.27994 15.1983 10.3726 14.3343Z" fill="white"/>
</g>
</svg>
