<svg width="87" height="23" viewBox="0 0 87 23" fill="none" xmlns="http://www.w3.org/2000/svg">
<mask id="mask0" mask-type="alpha" maskUnits="userSpaceOnUse" x="0" y="0" width="87" height="23">
<path d="M83.1 0H3.8C1.7 0 0 1.69999 0 3.79999V19.2C0 21.3 1.7 23 3.8 23H83.1C85.2 23 86.9 21.3 86.9 19.2V3.79999C86.8 1.69999 85.1 0 83.1 0Z" fill="#50ABF1"/>
</mask>
<g mask="url(#mask0)">
<rect width="87" height="23" fill="#0274B3"/>
<rect width="87" height="23" fill="#E1E7EC"/>
<rect width="87" height="23" fill="#CB1F24"/>
<rect width="87" height="23" fill="#3A559F"/>
<rect width="87" height="23" fill="#50ABF1"/>
<path d="M28.1 8.39999H33.1V9.79999H31.5V14.9H29.8V9.79999H28.1V8.39999V8.39999Z" fill="white"/>
<path d="M34.3 14.8V8.29999H36V14.8H34.3Z" fill="white"/>
<path d="M37.1 8.39999H42.1V9.79999H40.5V14.9H38.8V9.79999H37.1V8.39999Z" fill="white"/>
<path d="M43.2 7.59998L44 5.79999H45.9L44.2 7.59998H43.2ZM43.3 14.8V8.29999H45V14.8H43.3Z" fill="white"/>
<path d="M46.8 17.3V9.09998C46.8 7.79998 47.1 6.9 47.7 6.5C48.3 6 49 5.79999 49.8 5.79999C50.6 5.79999 51.2 5.99999 51.8 6.39999C52.4 6.79999 52.6 7.39998 52.6 8.09998C52.6 8.49998 52.5 8.89999 52.2 9.29999C51.9 9.59999 51.6 9.9 51.1 10C51.8 10.1 52.3 10.4 52.6 10.9C52.9 11.4 53.1 11.9 53.1 12.5C53.1 13.2 52.9 13.8 52.5 14.3C52.1 14.8 51.5 15.1 50.7 15.1C49.8 15.1 49.1 14.7 48.5 14V17.4H46.8V17.3ZM49.3 9.5C49.8 9.5 50.2 9.39998 50.5 9.09998C50.8 8.89998 50.9 8.59998 50.9 8.19998C50.9 7.89998 50.8 7.59999 50.5 7.39999C50.3 7.19999 50 7.09998 49.7 7.09998C49.4 7.09998 49.2 7.19999 49 7.39999C48.8 7.59999 48.7 7.79998 48.6 8.09998C48.5 8.39998 48.5 8.79999 48.5 9.29999V11.1C48.5 11.7 48.5 12.1 48.6 12.4C48.7 12.7 48.9 13 49.2 13.3C49.5 13.5 49.8 13.7 50.1 13.7C50.4 13.7 50.7 13.6 50.9 13.3C51.1 13 51.2 12.7 51.2 12.4C51.2 11.8 51 11.4 50.7 11C50.4 10.7 49.9 10.5 49.2 10.5V9.5H49.3Z" fill="white"/>
<path d="M54.5 14.8V8.29999H56.2V14.8H54.5Z" fill="white"/>
<path d="M65.3 8.39999V9.79999H63.7C64 10.3 64.2 10.9 64.2 11.6C64.2 12.5 63.9 13.4 63.3 14C62.7 14.7 61.9 15 60.9 15C59.9 15 59.1 14.7 58.5 14.1C57.9 13.5 57.6 12.7 57.6 11.7C57.6 10.7 57.9 9.89998 58.5 9.19998C59.1 8.59998 59.9 8.19998 61 8.19998C61.3 8.19998 61.7 8.19999 62.1 8.29999H65.3V8.39999ZM59.3 11.6C59.3 12.2 59.4 12.7 59.7 13.1C60 13.5 60.4 13.6 60.8 13.6C61.2 13.6 61.6 13.4 61.9 13.1C62.2 12.8 62.4 12.3 62.4 11.6C62.4 11 62.3 10.5 62 10.2C61.7 9.79998 61.3 9.69998 60.9 9.69998C60.4 9.69998 60 9.89998 59.8 10.2C59.6 10.5 59.3 11 59.3 11.6Z" fill="white"/>
<path d="M66.5 8.39999H68.2V11.4C68.2 12 68.2 12.4 68.3 12.7C68.4 13 68.5 13.3 68.7 13.5C68.9 13.7 69.1 13.8 69.4 13.8C69.7 13.8 69.9 13.7 70.2 13.5C70.4 13.3 70.6 13.1 70.6 12.8C70.6 12.5 70.7 12.1 70.7 11.5V8.5H72.4V15H70.8V14.2C70.5 14.8 70 15.1 69.5 15.1C68.9 15.1 68.5 14.8 68.2 14.2V17.5H66.5V8.39999V8.39999Z" fill="white"/>
<path d="M79.1 8.39999H80.6C80.4 8.89999 80.2 9.49998 80 10.2C79.8 10.9 79.8 11.5 79.8 11.7C79.8 12.1 79.9 12.6 80 13.2C80.1 13.8 80.3 14.4 80.5 14.9H79.1C79.1 14.8 79 14.7 79 14.6C78.9 14.4 78.8 14.1 78.8 13.9C78.3 14.7 77.6 15.1 76.7 15.1C75.8 15.1 75.1 14.7 74.6 14C74.1 13.3 73.8 12.5 73.8 11.5C73.8 10.6 74.1 9.79998 74.6 9.19998C75.1 8.59998 75.8 8.29999 76.7 8.29999C77.6 8.29999 78.3 8.69998 78.8 9.59998C78.8 9.19998 78.9 8.79999 79.1 8.39999ZM75.5 11.6C75.5 12.2 75.6 12.7 75.9 13.1C76.2 13.5 76.5 13.7 76.9 13.7C77.3 13.7 77.6 13.5 77.9 13.2C78.1 12.9 78.3 12.4 78.3 11.7C78.3 11 78.2 10.5 77.9 10.2C77.6 9.89998 77.3 9.69998 76.9 9.69998C76.5 9.69998 76.2 9.89998 75.9 10.2C75.6 10.5 75.5 11 75.5 11.6Z" fill="white"/>
<path d="M10.3726 14.3343C9.7002 14.3343 9.19589 14.0751 8.69158 13.6431C8.35537 13.3839 8.18726 12.9519 8.01916 12.6063C8.35537 12.6927 8.77563 12.6927 9.11183 12.5199C8.52347 12.3471 8.01915 12.0879 7.68294 11.5695C7.34674 11.0511 7.09459 10.5327 7.09459 9.92788C7.43079 10.1007 7.85105 10.2735 8.18726 10.2735C7.5989 9.8415 7.17864 9.23672 7.09459 8.45913C7.01053 7.85433 7.17864 7.3359 7.4308 6.9039C8.77563 8.54549 10.5407 9.40951 12.5579 9.58231C12.5579 9.49591 12.558 9.40952 12.4739 9.32312C12.3899 8.89113 12.4739 8.45913 12.642 8.02713C12.9782 7.24954 13.5666 6.6447 14.4071 6.4719C15.3317 6.2991 16.0881 6.55834 16.7605 7.16314C16.7605 7.16314 16.7605 7.16314 16.8446 7.16314C17.3489 7.07674 17.8532 6.81753 18.3575 6.55833C18.3575 6.64473 18.1054 7.1631 17.9373 7.3359C17.7692 7.59509 17.517 7.7679 17.2648 7.9407C17.7692 7.8543 18.1894 7.7679 18.6937 7.5087C18.6937 7.5087 18.6937 7.50874 18.6937 7.59514C18.6937 7.59514 18.6937 7.59511 18.6937 7.68151C18.4416 8.02711 18.1054 8.37272 17.7692 8.71832C17.6851 8.80472 17.6011 8.89113 17.517 8.89113C17.517 8.89113 17.517 8.89111 17.517 8.97751C17.517 9.4095 17.517 9.84152 17.4329 10.1871C17.3489 10.8783 17.1808 11.5695 16.8446 12.2607C16.5924 12.8655 16.1722 13.4703 15.7519 14.0751C15.1636 14.7663 14.5752 15.2847 13.7347 15.7166C13.1463 16.0622 12.4739 16.3214 11.8015 16.4078C11.2131 16.4942 10.6248 16.5806 9.95235 16.5806C9.11183 16.5806 8.27131 16.3214 7.51484 15.9758C7.17864 15.803 6.84243 15.6303 6.50623 15.4575C8.10321 15.5439 9.27994 15.1983 10.3726 14.3343Z" fill="white"/>
</g>
</svg>
