<svg width="75" height="23" viewBox="0 0 75 23" fill="none" xmlns="http://www.w3.org/2000/svg">
<mask id="mask0" mask-type="alpha" maskUnits="userSpaceOnUse" x="0" y="0" width="75" height="23">
<path d="M71.1 0H3.8C1.7 0 0 1.69999 0 3.79999V19.2C0 21.3 1.7 23 3.8 23H71.1C73.2 23 74.9 21.3 74.9 19.2V3.79999C74.8 1.69999 73.1 0 71.1 0Z" fill="#50ABF1"/>
</mask>
<g mask="url(#mask0)">
<rect width="75" height="23" fill="#0274B3"/>
<rect width="75" height="23" fill="#E1E7EC"/>
<rect width="75" height="23" fill="#CB1F24"/>
<rect width="75" height="23" fill="#3A559F"/>
<rect width="75" height="23" fill="#50ABF1"/>
<path d="M30.7 15.9V8.5H28V7H35.1V8.5H32.4V15.9H30.7Z" fill="white"/>
<path d="M39.7 15.9V14.9C39.5 15.2 39.2 15.5 38.8 15.7C38.4 15.9 38 16 37.6 16C37.2 16 36.8 15.9 36.4 15.7C36 15.5 35.8 15.2 35.6 14.9C35.4 14.6 35.4 14.1 35.4 13.5V9.39996H37.1V12.4C37.1 13.3 37.1 13.9 37.2 14.1C37.3 14.3 37.4 14.5 37.5 14.6C37.6 14.7 37.9 14.8 38.1 14.8C38.4 14.8 38.7 14.7 38.9 14.6C39.1 14.4 39.3 14.2 39.4 14C39.5 13.8 39.5 13.2 39.5 12.2V9.5H41.2V16H39.7V15.9Z" fill="white"/>
<path d="M43.1 8.5V6.89996H44.8V8.5H43.1ZM43.1 15.9V9.39996H44.8V15.9H43.1Z" fill="white"/>
<path d="M49.5 9.39996V10.8H48.3V13.4C48.3 13.9 48.3 14.2 48.3 14.3C48.3 14.4 48.4 14.5 48.5 14.5C48.6 14.6 48.7 14.6 48.8 14.6C49 14.6 49.2 14.5 49.5 14.4L49.6 15.7C49.2 15.9 48.7 16 48.2 16C47.9 16 47.6 15.9 47.4 15.8C47.2 15.7 47 15.6 46.9 15.4C46.8 15.2 46.7 15 46.7 14.7C46.7 14.5 46.6 14.1 46.6 13.5V10.8H45.8V9.39996H46.6V8.09998L48.3 7.09998V9.39996H49.5Z" fill="white"/>
<path d="M54.5 13.8L56.2 14.1C56 14.7 55.6 15.2 55.2 15.5C54.8 15.8 54.1 16 53.4 16C52.3 16 51.4 15.6 50.9 14.9C50.5 14.3 50.3 13.6 50.3 12.7C50.3 11.6 50.6 10.8 51.1 10.2C51.7 9.60001 52.4 9.29999 53.2 9.29999C54.2 9.29999 54.9 9.59999 55.5 10.3C56.1 10.9 56.3 11.9 56.3 13.2H52C52 13.7 52.2 14.1 52.4 14.4C52.7 14.7 53 14.8 53.4 14.8C53.7 14.8 53.9 14.7 54.1 14.6C54.2 14.4 54.4 14.2 54.5 13.8ZM54.6 12.1C54.6 11.6 54.5 11.2 54.2 11C53.9 10.8 53.7 10.6 53.3 10.6C52.9 10.6 52.6 10.7 52.4 11C52.2 11.3 52 11.6 52 12.1H54.6Z" fill="white"/>
<path d="M58.9 11.4L57.3 11.1C57.5 10.5 57.8 10 58.2 9.70001C58.6 9.40001 59.3 9.20001 60.1 9.20001C60.9 9.20001 61.4 9.3 61.8 9.5C62.2 9.7 62.4 9.90001 62.6 10.2C62.8 10.5 62.8 11 62.8 11.7V13.7C62.8 14.3 62.8 14.7 62.9 15C63 15.3 63.1 15.6 63.2 15.9H61.5C61.5 15.8 61.4 15.6 61.3 15.4C61.3 15.3 61.3 15.2 61.2 15.2C60.9 15.5 60.6 15.7 60.3 15.8C60 15.9 59.6 16 59.2 16C58.5 16 58 15.8 57.6 15.5C57.2 15.1 57 14.7 57 14.1C57 13.7 57.1 13.4 57.3 13.1C57.5 12.8 57.7 12.6 58 12.4C58.3 12.2 58.8 12.1 59.4 12C60.2 11.8 60.8 11.7 61.1 11.6V11.4C61.1 11.1 61 10.8 60.9 10.7C60.7 10.6 60.4 10.5 60 10.5C59.7 10.5 59.5 10.6 59.3 10.7C59.1 10.8 59.1 11.1 58.9 11.4ZM61.2 12.8C61 12.9 60.6 13 60.2 13.1C59.7 13.2 59.4 13.3 59.3 13.4C59.1 13.6 59 13.8 59 14C59 14.2 59.1 14.4 59.3 14.6C59.5 14.8 59.7 14.9 60 14.9C60.3 14.9 60.6 14.8 60.9 14.6C61.1 14.4 61.2 14.3 61.3 14C61.3 13.9 61.4 13.6 61.4 13.2V12.8H61.2Z" fill="white"/>
<path d="M66.3 15.9H64.6V9.39996H66.2V10.3C66.5 9.89999 66.7 9.59996 66.9 9.39996C67.1 9.29996 67.4 9.20001 67.6 9.20001C68 9.20001 68.4 9.3 68.7 9.5L68.2 11C67.9 10.8 67.6 10.7 67.4 10.7C67.2 10.7 67 10.8 66.8 10.9C66.6 11 66.5 11.3 66.4 11.6C66.3 11.9 66.3 12.7 66.3 13.8V15.9Z" fill="white"/>
<path d="M10.3726 14.3343C9.7002 14.3343 9.19589 14.0751 8.69158 13.6431C8.35537 13.3839 8.18726 12.9519 8.01916 12.6063C8.35537 12.6927 8.77563 12.6926 9.11183 12.5198C8.52347 12.3471 8.01915 12.0879 7.68294 11.5695C7.34674 11.0511 7.09459 10.5327 7.09459 9.92787C7.43079 10.1007 7.85105 10.2735 8.18726 10.2735C7.5989 9.84149 7.17864 9.23671 7.09459 8.45912C7.01053 7.85432 7.17864 7.33588 7.4308 6.90389C8.77563 8.54548 10.5407 9.4095 12.5579 9.5823C12.5579 9.4959 12.558 9.40951 12.4739 9.32311C12.3899 8.89112 12.4739 8.45912 12.642 8.02712C12.9782 7.24953 13.5666 6.64469 14.4071 6.47189C15.3317 6.29909 16.0881 6.55833 16.7605 7.16313C16.7605 7.16313 16.7605 7.16313 16.8446 7.16313C17.3489 7.07673 17.8532 6.81752 18.3575 6.55832C18.3575 6.64472 18.1054 7.16309 17.9373 7.33588C17.7692 7.59508 17.517 7.76789 17.2648 7.94069C17.7692 7.85429 18.1894 7.76789 18.6937 7.50869C18.6937 7.50869 18.6937 7.50873 18.6937 7.59512C18.6937 7.59512 18.6937 7.5951 18.6937 7.6815C18.4416 8.0271 18.1054 8.37271 17.7692 8.71831C17.6851 8.80471 17.6011 8.89112 17.517 8.89112C17.517 8.89112 17.517 8.89109 17.517 8.97749C17.517 9.40949 17.517 9.84151 17.4329 10.1871C17.3489 10.8783 17.1808 11.5695 16.8446 12.2607C16.5924 12.8655 16.1722 13.4703 15.7519 14.0751C15.1636 14.7663 14.5752 15.2846 13.7347 15.7166C13.1463 16.0622 12.4739 16.3214 11.8015 16.4078C11.2131 16.4942 10.6248 16.5806 9.95235 16.5806C9.11183 16.5806 8.27131 16.3214 7.51484 15.9758C7.17864 15.803 6.84243 15.6302 6.50623 15.4575C8.10321 15.5438 9.27994 15.1983 10.3726 14.3343Z" fill="white"/>
</g>
</svg>
