<svg width="53" height="23" viewBox="0 0 53 23" fill="none" xmlns="http://www.w3.org/2000/svg">
<mask id="mask0" mask-type="alpha" maskUnits="userSpaceOnUse" x="0" y="0" width="53" height="23">
<path d="M49.1 0H3.8C1.7 0 0 1.69999 0 3.79999V19.2C0 21.3 1.7 23 3.8 23H49.1C51.2 23 52.9 21.3 52.9 19.2V3.79999C52.8 1.69999 51.1 0 49.1 0Z" fill="#50ABF1"/>
</mask>
<g mask="url(#mask0)">
<rect width="53" height="23" fill="#0274B3"/>
<rect width="53" height="23" fill="#E1E7EC"/>
<rect width="53" height="23" fill="#CB1F24"/>
<rect width="53" height="23" fill="#3A559F"/>
<rect width="53" height="23" fill="#50ABF1"/>
<path d="M31.5 16H29.8V10.9L27.8 7.09998H29.7L31.1 10C31.5 9.9 31.7 9.29999 31.7 8.29999L31.8 7.09998H33.5L33.4 8.5C33.3 9.5 33.1 10.1 32.8 10.5C32.5 10.9 32.1 11.2 31.5 11.3V16V16Z" fill="white"/>
<path d="M36.6 7V13.5H34.8V7H36.6Z" fill="white"/>
<path d="M40 7V10.6H38.2V7H40Z" fill="white"/>
<path d="M46.7 7L46.6 8V8.59998C46.6 8.79998 46.6 8.99998 46.5 9.19998C46.4 9.39998 46.4 9.59999 46.2 9.79999C46.1 9.99999 45.9 10.2 45.8 10.3C45.6 10.5 45.4 10.6 45.2 10.7L46.5 12.8V13.6H41.4V12.1H44.3L41 7.09998H42.9L44.5 9.59998C44.7 9.49998 44.8 9.39999 44.9 9.29999C45 9.19999 45 8.79998 45 8.09998L45.1 7.09998H46.7V7Z" fill="white"/>
<path d="M10.3726 14.3343C9.7002 14.3343 9.19589 14.0751 8.69158 13.6431C8.35537 13.3839 8.18726 12.9519 8.01916 12.6063C8.35537 12.6927 8.77563 12.6927 9.11183 12.5199C8.52347 12.3471 8.01915 12.0879 7.68294 11.5695C7.34674 11.0511 7.09459 10.5327 7.09459 9.92788C7.43079 10.1007 7.85105 10.2735 8.18726 10.2735C7.5989 9.8415 7.17864 9.23673 7.09459 8.45913C7.01053 7.85434 7.17864 7.3359 7.4308 6.9039C8.77563 8.54549 10.5407 9.40951 12.5579 9.58231C12.5579 9.49591 12.558 9.40952 12.4739 9.32313C12.3899 8.89113 12.4739 8.45913 12.642 8.02713C12.9782 7.24954 13.5666 6.6447 14.4071 6.4719C15.3317 6.2991 16.0881 6.55834 16.7605 7.16314C16.7605 7.16314 16.7605 7.16314 16.8446 7.16314C17.3489 7.07674 17.8532 6.81753 18.3575 6.55833C18.3575 6.64473 18.1054 7.1631 17.9373 7.3359C17.7692 7.59509 17.517 7.7679 17.2648 7.9407C17.7692 7.8543 18.1894 7.7679 18.6937 7.50871C18.6937 7.50871 18.6937 7.50874 18.6937 7.59514C18.6937 7.59514 18.6937 7.59512 18.6937 7.68152C18.4416 8.02711 18.1054 8.37272 17.7692 8.71832C17.6851 8.80472 17.6011 8.89113 17.517 8.89113C17.517 8.89113 17.517 8.89111 17.517 8.97751C17.517 9.4095 17.517 9.84152 17.4329 10.1871C17.3489 10.8783 17.1808 11.5695 16.8446 12.2607C16.5924 12.8655 16.1722 13.4703 15.7519 14.0751C15.1636 14.7663 14.5752 15.2847 13.7347 15.7167C13.1463 16.0622 12.4739 16.3214 11.8015 16.4078C11.2131 16.4942 10.6248 16.5806 9.95235 16.5806C9.11183 16.5806 8.27131 16.3214 7.51484 15.9758C7.17864 15.803 6.84243 15.6303 6.50623 15.4575C8.10321 15.5439 9.27994 15.1983 10.3726 14.3343Z" fill="white"/>
</g>
</svg>
