<svg width="48" height="23" viewBox="0 0 48 23" fill="none" xmlns="http://www.w3.org/2000/svg">
<mask id="mask0" mask-type="alpha" maskUnits="userSpaceOnUse" x="0" y="0" width="48" height="23">
<path d="M44.1 0H3.8C1.7 0 0 1.69999 0 3.79999V19.2C0 21.3 1.7 23 3.8 23H44.1C46.2 23 47.9 21.3 47.9 19.2V3.79999C47.8 1.69999 46.1 0 44.1 0Z" fill="#50ABF1"/>
</mask>
<g mask="url(#mask0)">
<rect width="48" height="23" fill="#0274B3"/>
<rect width="48" height="23" fill="#E1E7EC"/>
<rect width="48" height="23" fill="#CB1F24"/>
<rect width="48" height="23" fill="#3A559F"/>
<rect width="48" height="23" fill="#50ABF1"/>
<path d="M27.5 8.79999L33.1 8.70001L33.4 9.29999V9.39999H32.1V11.1L32 11.2H31.1C29.7 11.2 29.1 11.6 29.1 12.4C29.1 13.1 29.7 13.6 30.5 13.6C31.2 13.6 31.8 13.3 32.4 12.7L32.9 13.2V13.3C32.7 13.5 32.5 13.7 32.2 13.9V17L31.6 16.8V16.1C31.3 16.4 31 16.4 30.7 16.4C30.4 16.4 30 16.3 29.6 15.9C29.2 15.6 29 15.2 29 14.8C29 14.5 29.1 14.2 29.5 13.9C28.9 13.4 28.4 12.9 28.4 12.2C28.4 11.2 29.3 10.7 30.4 10.7H31.2C31.3 10.7 31.4 10.6 31.4 10.5V9.60001H27.9L27.5 8.79999ZM30.7 14.2C30.5 14.2 30.4 14.2 30.2 14.1C29.7 14.3 29.5 14.6 29.5 15C29.5 15.4 29.8 15.6 30.2 15.6C30.5 15.6 30.7 15.5 31 15.4C31.3 15.2 31.5 15 31.5 14.4V14C31.2 14.2 31 14.2 30.7 14.2Z" fill="white"/>
<path d="M32.8 8.79999L34 8.70001C33.9 7.30001 33.3 6.60001 32.5 6.60001C31.9 6.60001 31.6 6.99999 31.6 7.39999C31.6 7.79999 31.8 8.09999 32 8.39999L31.9 8.5L31.3 8.20001C31 7.90001 30.8 7.50001 30.8 7.10001C30.8 6.50001 31.3 5.89999 32.1 5.89999C33.3 5.89999 34.4 7.00001 34.6 8.60001H35.5L35.8 9.20001V9.29999H34.7V14.9L34.6 15L33.9 14.8V9.29999H33L32.8 8.79999Z" fill="white"/>
<path d="M35.2 8.79999L40.9 8.70001L41.2 9.29999V9.39999H39.9V11.2L39.8 11.3H38.9C37.5 11.3 36.8 11.7 36.8 12.5C36.8 13.2 37.3 13.7 38.2 13.7C38.9 13.7 39.5 13.4 40.2 12.7L40.7 13.3V13.4C40.1 14.1 39.4 14.5 38.6 14.5C37.1 14.5 36.1 13.3 36.1 12.2C36.1 11.1 37 10.6 38.2 10.6H39C39.1 10.6 39.2 10.5 39.2 10.4V9.39999H35.6L35.2 8.79999Z" fill="white"/>
<path d="M10.3726 14.3343C9.7002 14.3343 9.19589 14.0751 8.69158 13.6431C8.35537 13.3839 8.18726 12.9519 8.01916 12.6063C8.35537 12.6927 8.77563 12.6927 9.11183 12.5199C8.52347 12.3471 8.01915 12.0879 7.68294 11.5695C7.34674 11.0511 7.09459 10.5327 7.09459 9.92788C7.43079 10.1007 7.85105 10.2735 8.18726 10.2735C7.5989 9.8415 7.17864 9.23673 7.09459 8.45913C7.01053 7.85434 7.17864 7.3359 7.4308 6.9039C8.77563 8.54549 10.5407 9.40952 12.5579 9.58231C12.5579 9.49591 12.558 9.40953 12.4739 9.32313C12.3899 8.89113 12.4739 8.45913 12.642 8.02714C12.9782 7.24954 13.5666 6.6447 14.4071 6.4719C15.3317 6.2991 16.0881 6.55834 16.7605 7.16314C16.7605 7.16314 16.7605 7.16314 16.8446 7.16314C17.3489 7.07674 17.8532 6.81753 18.3575 6.55833C18.3575 6.64473 18.1054 7.1631 17.9373 7.3359C17.7692 7.5951 17.517 7.76791 17.2648 7.9407C17.7692 7.8543 18.1894 7.76791 18.6937 7.50871C18.6937 7.50871 18.6937 7.50874 18.6937 7.59514C18.6937 7.59514 18.6937 7.59512 18.6937 7.68152C18.4416 8.02711 18.1054 8.37272 17.7692 8.71832C17.6851 8.80472 17.6011 8.89113 17.517 8.89113C17.517 8.89113 17.517 8.89111 17.517 8.97751C17.517 9.4095 17.517 9.84152 17.4329 10.1871C17.3489 10.8783 17.1808 11.5695 16.8446 12.2607C16.5924 12.8655 16.1722 13.4703 15.7519 14.0751C15.1636 14.7663 14.5752 15.2847 13.7347 15.7167C13.1463 16.0622 12.4739 16.3214 11.8015 16.4078C11.2131 16.4942 10.6248 16.5806 9.95235 16.5806C9.11183 16.5806 8.27131 16.3214 7.51484 15.9758C7.17864 15.803 6.84243 15.6303 6.50623 15.4575C8.10321 15.5439 9.27994 15.1983 10.3726 14.3343Z" fill="white"/>
</g>
</svg>
