<svg width="84" height="23" viewBox="0 0 84 23" fill="none" xmlns="http://www.w3.org/2000/svg">
<mask id="mask0" mask-type="alpha" maskUnits="userSpaceOnUse" x="0" y="0" width="84" height="23">
<path d="M80.1 0H3.8C1.7 0 0 1.70002 0 3.80002V19.2C0 21.3 1.7 23 3.8 23H80.1C82.2 23 83.9 21.3 83.9 19.2V3.80002C83.8 1.70002 82.1 0 80.1 0Z" fill="#50ABF1"/>
</mask>
<g mask="url(#mask0)">
<rect width="84" height="23" fill="#0274B3"/>
<rect width="84" height="23" fill="#E1E7EC"/>
<rect width="84" height="23" fill="#CB1F24"/>
<rect width="84" height="23" fill="#3A559F"/>
<rect width="84" height="23" fill="#50ABF1"/>
<path d="M28.7 15.9V6.89999H31.4L33 13L34.6 6.89999H37.3V15.9H35.6V8.80002L33.8 15.9H32.1L30.3 8.80002V15.9H28.7Z" fill="white"/>
<path d="M42.9 13.8L44.6 14.1C44.4 14.7 44 15.2 43.6 15.5C43.2 15.8 42.5 16 41.8 16C40.7 16 39.8 15.6 39.3 14.9C38.9 14.3 38.7 13.6 38.7 12.7C38.7 11.6 39 10.8 39.5 10.2C40.1 9.60001 40.8 9.30002 41.6 9.30002C42.6 9.30002 43.3 9.60002 43.9 10.3C44.5 10.9 44.7 11.9 44.7 13.2H40.4C40.4 13.7 40.6 14.1 40.8 14.4C41.1 14.7 41.4 14.8 41.8 14.8C42.1 14.8 42.3 14.7 42.5 14.6C42.6 14.4 42.8 14.1 42.9 13.8ZM43 12.1C43 11.6 42.9 11.2 42.6 11C42.3 10.8 42.1 10.6 41.7 10.6C41.3 10.6 41 10.7 40.8 11C40.6 11.3 40.4 11.6 40.4 12.1H43Z" fill="white"/>
<path d="M52 15.9H50.3V12.6C50.3 11.9 50.3 11.4 50.2 11.2C50.1 11 50 10.8 49.8 10.7C49.6 10.6 49.4 10.5 49.2 10.5C48.9 10.5 48.6 10.6 48.4 10.7C48.2 10.8 48 11.1 47.9 11.3C47.8 11.6 47.8 12.1 47.8 12.8V15.7H46.1V9.20001H47.7V10.2C48.3 9.50001 49 9.10001 49.8 9.10001C50.2 9.10001 50.5 9.20002 50.8 9.30002C51.1 9.40002 51.4 9.60002 51.5 9.80002C51.6 10 51.8 10.3 51.8 10.5C51.9 10.8 51.9 11.2 51.9 11.7V15.9H52Z" fill="white"/>
<path d="M59.4 11.3L57.7 11.6C57.6 11.3 57.5 11 57.3 10.8C57.1 10.6 56.8 10.5 56.5 10.5C56.1 10.5 55.7 10.6 55.5 10.9C55.3 11.2 55.1 11.7 55.1 12.4C55.1 13.2 55.2 13.7 55.5 14C55.8 14.3 56.1 14.5 56.5 14.5C56.8 14.5 57.1 14.4 57.3 14.2C57.5 14 57.7 13.7 57.7 13.2L59.4 13.5C59.2 14.3 58.9 14.9 58.4 15.3C57.9 15.7 57.2 15.9 56.4 15.9C55.5 15.9 54.7 15.6 54.1 15C53.5 14.4 53.3 13.6 53.3 12.5C53.3 11.4 53.6 10.6 54.1 10C54.7 9.4 55.4 9.10001 56.4 9.10001C57.2 9.10001 57.8 9.30001 58.3 9.60001C58.8 10.1 59.2 10.6 59.4 11.3Z" fill="white"/>
<path d="M60.7 8.5V6.89999H62.4V8.5H60.7ZM60.7 15.9V9.39999H62.4V15.9H60.7Z" fill="white"/>
<path d="M65.5 11.4L63.9 11.1C64.1 10.5 64.4 10 64.8 9.70001C65.2 9.40001 65.9 9.20001 66.7 9.20001C67.5 9.20001 68 9.3 68.4 9.5C68.8 9.7 69 9.90001 69.2 10.2C69.4 10.5 69.4 11 69.4 11.7V13.7C69.4 14.3 69.4 14.7 69.5 15C69.6 15.3 69.7 15.6 69.8 15.9H68.1C68.1 15.8 68 15.6 67.9 15.4C67.9 15.3 67.9 15.2 67.8 15.2C67.5 15.5 67.2 15.7 66.9 15.8C66.6 15.9 66.2 16 65.8 16C65.1 16 64.6 15.8 64.2 15.5C63.8 15.1 63.6 14.7 63.6 14.1C63.6 13.7 63.7 13.4 63.9 13.1C64.1 12.8 64.3 12.6 64.6 12.4C64.9 12.2 65.4 12.1 66 12C66.8 11.8 67.4 11.7 67.7 11.6V11.4C67.7 11.1 67.6 10.8 67.5 10.7C67.3 10.6 67 10.5 66.6 10.5C66.3 10.5 66.1 10.6 65.9 10.7C65.7 10.8 65.6 11.1 65.5 11.4ZM67.7 12.8C67.5 12.9 67.1 13 66.7 13.1C66.2 13.2 65.9 13.3 65.8 13.4C65.6 13.6 65.5 13.8 65.5 14C65.5 14.2 65.6 14.4 65.8 14.6C66 14.8 66.2 14.9 66.5 14.9C66.8 14.9 67.1 14.8 67.4 14.6C67.6 14.4 67.7 14.3 67.8 14C67.8 13.9 67.9 13.6 67.9 13.2V12.8H67.7Z" fill="white"/>
<path d="M71.1 15.9V6.89999H72.8V11.7L74.8 9.39999H76.9L74.7 11.8L77.1 15.9H75.2L73.6 13L72.8 13.8V15.9H71.1V15.9Z" fill="white"/>
<path d="M10.3726 14.3343C9.7002 14.3343 9.19589 14.0751 8.69158 13.6431C8.35537 13.3839 8.18726 12.9519 8.01916 12.6063C8.35537 12.6927 8.77563 12.6927 9.11183 12.5199C8.52347 12.3471 8.01915 12.0879 7.68294 11.5695C7.34674 11.0511 7.09459 10.5327 7.09459 9.92788C7.43079 10.1007 7.85105 10.2735 8.18726 10.2735C7.5989 9.8415 7.17864 9.23672 7.09459 8.45913C7.01053 7.85433 7.17864 7.3359 7.4308 6.9039C8.77563 8.54549 10.5407 9.40951 12.5579 9.58231C12.5579 9.49591 12.558 9.40952 12.4739 9.32312C12.3899 8.89113 12.4739 8.45913 12.642 8.02713C12.9782 7.24954 13.5666 6.6447 14.4071 6.4719C15.3317 6.2991 16.0881 6.55834 16.7605 7.16314C16.7605 7.16314 16.7605 7.16314 16.8446 7.16314C17.3489 7.07674 17.8532 6.81753 18.3575 6.55833C18.3575 6.64473 18.1054 7.1631 17.9373 7.3359C17.7692 7.59509 17.517 7.7679 17.2648 7.9407C17.7692 7.8543 18.1894 7.7679 18.6937 7.5087C18.6937 7.5087 18.6937 7.50874 18.6937 7.59514C18.6937 7.59514 18.6937 7.59511 18.6937 7.68151C18.4416 8.02711 18.1054 8.37272 17.7692 8.71832C17.6851 8.80472 17.6011 8.89113 17.517 8.89113C17.517 8.89113 17.517 8.89111 17.517 8.97751C17.517 9.4095 17.517 9.84152 17.4329 10.1871C17.3489 10.8783 17.1808 11.5695 16.8446 12.2607C16.5924 12.8655 16.1722 13.4703 15.7519 14.0751C15.1636 14.7663 14.5752 15.2847 13.7347 15.7166C13.1463 16.0622 12.4739 16.3214 11.8015 16.4078C11.2131 16.4942 10.6248 16.5806 9.95235 16.5806C9.11183 16.5806 8.27131 16.3214 7.51484 15.9758C7.17864 15.803 6.84243 15.6303 6.50623 15.4575C8.10321 15.5439 9.27994 15.1983 10.3726 14.3343Z" fill="white"/>
</g>
</svg>
