<svg width="69" height="23" viewBox="0 0 69 23" fill="none" xmlns="http://www.w3.org/2000/svg">
<mask id="mask0" mask-type="alpha" maskUnits="userSpaceOnUse" x="0" y="0" width="69" height="23">
<path d="M65.1 0H3.8C1.7 0 0 1.69999 0 3.79999V19.2C0 21.3 1.7 23 3.8 23H65.1C67.2 23 68.9 21.3 68.9 19.2V3.79999C68.8 1.69999 67.1 0 65.1 0Z" fill="#50ABF1"/>
</mask>
<g mask="url(#mask0)">
<rect width="69" height="23" fill="#0274B3"/>
<rect width="69" height="23" fill="#E1E7EC"/>
<rect width="69" height="23" fill="#CB1F24"/>
<rect width="69" height="23" fill="#3A559F"/>
<rect width="69" height="23" fill="#50ABF1"/>
<path d="M30.7 15.9V8.5H28V7H35.1V8.5H32.4V15.9H30.7Z" fill="white"/>
<path d="M36.6 15.9L34.5 9.40002H36.2L37.4 13.7L38.5 9.40002H40.2L41.3 13.7L42.5 9.40002H44.2L42.1 15.9H40.4L39.3 11.7L38.2 15.9H36.6Z" fill="white"/>
<path d="M48.9 13.9L50.6 14.2C50.4 14.8 50 15.3 49.6 15.6C49.2 15.9 48.5 16.1 47.8 16.1C46.7 16.1 45.8 15.7 45.3 15C44.9 14.4 44.7 13.7 44.7 12.8C44.7 11.7 45 10.9 45.5 10.3C46.1 9.69999 46.8 9.40002 47.6 9.40002C48.6 9.40002 49.3 9.70002 49.9 10.4C50.5 11 50.7 12 50.7 13.3H46.4C46.4 13.8 46.6 14.2 46.8 14.5C47.1 14.8 47.4 14.9 47.8 14.9C48.1 14.9 48.3 14.8 48.5 14.7C48.7 14.4 48.8 14.2 48.9 13.9ZM49 12.1C49 11.6 48.9 11.2 48.6 11C48.3 10.8 48.1 10.6 47.7 10.6C47.3 10.6 47 10.7 46.8 11C46.6 11.3 46.4 11.6 46.4 12.1H49Z" fill="white"/>
<path d="M55.9 13.9L57.6 14.2C57.4 14.8 57 15.3 56.6 15.6C56.2 15.9 55.5 16.1 54.8 16.1C53.7 16.1 52.8 15.7 52.3 15C51.9 14.4 51.7 13.7 51.7 12.8C51.7 11.7 52 10.9 52.5 10.3C53.1 9.69999 53.8 9.40002 54.6 9.40002C55.6 9.40002 56.3 9.70002 56.9 10.4C57.5 11 57.7 12 57.7 13.3H53.4C53.4 13.8 53.6 14.2 53.8 14.5C54.1 14.8 54.4 14.9 54.8 14.9C55.1 14.9 55.3 14.8 55.5 14.7C55.6 14.4 55.8 14.2 55.9 13.9ZM56 12.1C56 11.6 55.9 11.2 55.6 11C55.3 10.8 55.1 10.6 54.7 10.6C54.3 10.6 54 10.7 53.8 11C53.6 11.3 53.4 11.6 53.4 12.1H56Z" fill="white"/>
<path d="M62 9.40002V10.8H60.8V13.4C60.8 13.9 60.8 14.2 60.8 14.3C60.8 14.4 60.9 14.5 61 14.5C61.1 14.6 61.2 14.6 61.3 14.6C61.5 14.6 61.7 14.5 62 14.4L62.1 15.7C61.7 15.9 61.2 16 60.7 16C60.4 16 60.1 15.9 59.9 15.8C59.7 15.7 59.5 15.6 59.4 15.4C59.3 15.2 59.2 15 59.2 14.7C59.2 14.5 59.1 14.1 59.1 13.5V10.7H58.3V9.29999H59.1V8L60.8 7V9.29999H62V9.40002Z" fill="white"/>
<path d="M10.3726 14.3343C9.7002 14.3343 9.19589 14.0751 8.69158 13.6431C8.35537 13.3839 8.18726 12.9519 8.01916 12.6063C8.35537 12.6927 8.77563 12.6927 9.11183 12.5199C8.52347 12.3471 8.01915 12.0879 7.68294 11.5695C7.34674 11.0511 7.09459 10.5327 7.09459 9.92788C7.43079 10.1007 7.85105 10.2735 8.18726 10.2735C7.5989 9.8415 7.17864 9.23673 7.09459 8.45913C7.01053 7.85434 7.17864 7.3359 7.4308 6.9039C8.77563 8.54549 10.5407 9.40952 12.5579 9.58232C12.5579 9.49592 12.558 9.40953 12.4739 9.32313C12.3899 8.89113 12.4739 8.45913 12.642 8.02714C12.9782 7.24954 13.5666 6.6447 14.4071 6.47191C15.3317 6.29911 16.0881 6.55835 16.7605 7.16314C16.7605 7.16314 16.7605 7.16314 16.8446 7.16314C17.3489 7.07674 17.8532 6.81753 18.3575 6.55834C18.3575 6.64474 18.1054 7.1631 17.9373 7.3359C17.7692 7.5951 17.517 7.76791 17.2648 7.94071C17.7692 7.85431 18.1894 7.76791 18.6937 7.50871C18.6937 7.50871 18.6937 7.50874 18.6937 7.59514C18.6937 7.59514 18.6937 7.59512 18.6937 7.68152C18.4416 8.02712 18.1054 8.37272 17.7692 8.71832C17.6851 8.80472 17.6011 8.89113 17.517 8.89113C17.517 8.89113 17.517 8.89111 17.517 8.97751C17.517 9.40951 17.517 9.84152 17.4329 10.1871C17.3489 10.8783 17.1808 11.5695 16.8446 12.2607C16.5924 12.8655 16.1722 13.4703 15.7519 14.0751C15.1636 14.7663 14.5752 15.2847 13.7347 15.7167C13.1463 16.0623 12.4739 16.3214 11.8015 16.4078C11.2131 16.4942 10.6248 16.5806 9.95235 16.5806C9.11183 16.5806 8.27131 16.3214 7.51484 15.9758C7.17864 15.803 6.84243 15.6303 6.50623 15.4575C8.10321 15.5439 9.27994 15.1983 10.3726 14.3343Z" fill="white"/>
</g>
</svg>
