<svg width="58" height="23" viewBox="0 0 58 23" fill="none" xmlns="http://www.w3.org/2000/svg">
<mask id="mask0" mask-type="alpha" maskUnits="userSpaceOnUse" x="0" y="0" width="58" height="23">
<path d="M54.1 0H3.8C1.7 0 0 1.69999 0 3.79999V19.2C0 21.3 1.7 23 3.8 23H54.1C56.2 23 57.9 21.3 57.9 19.2V3.79999C57.8 1.69999 56.1 0 54.1 0Z" fill="#50ABF1"/>
</mask>
<g mask="url(#mask0)">
<rect width="58" height="23" fill="#0274B3"/>
<rect width="58" height="23" fill="#E1E7EC"/>
<rect width="58" height="23" fill="#CB1F24"/>
<rect width="58" height="23" fill="#3A559F"/>
<rect width="58" height="23" fill="#50ABF1"/>
<path d="M31.5 7.69995C31.8 7.69995 31.6 7.59998 32.1 7.59998C32.5 7.59998 32.6 7.59995 32.7 7.69995C32.8 7.69995 33 7.69995 33.1 7.69995C33.3 7.69995 33.5 7.69995 33.7 7.69995C33.9 7.59995 33.8 7.59998 34.2 7.59998C34.7 7.59998 34.9 7.59999 34.9 7.79999C34.9 7.89999 34.8 8.09995 34.7 8.19995C34.3 8.99995 34 9.6 33.8 10C34.7 11 34.8 10.4 35.2 11.5C35.2 11.6 35.2 11.7 35.2 11.7C35.2 11.9 35.1 12.1 35 12.1C34.9 12.1 34.8 12 34.7 11.9C34.4 11.5 34.1 10.9 33.6 10.3C32.8 11.5 31 13.2 30.7 13.2H30.6C30.6 13.2 30.7 13 30.8 12.9C31.8 11.9 33.4 9.89998 33.8 8.09998C33.6 8.09998 33.4 8.09995 33.2 8.19995C33 8.19995 33 8.29999 32.8 8.29999C32.7 8.29999 32.6 8.29995 32.4 8.19995C32.2 8.59995 31.8 9.29998 31.6 9.59998C31.9 9.89998 32.4 9.89999 32.5 10.3C32.5 10.4 32.5 10.5 32.5 10.6C32.5 10.8 32.4 10.9 32.3 10.9C32.2 10.9 32.1 10.8 31.9 10.6C31.7 10.3 31.6 10.1 31.3 9.79999C30.7 10.5 30.2 11.1 29.1 11.8C29 11.9 28.9 11.9 28.8 11.9C28.8 11.9 28.9 11.8 29 11.6C30 10.7 30.9 9.7 31.5 8C31.3 8 30.9 7.99998 30.6 8.09998C30.4 8.09998 30.3 8.19995 30.2 8.19995C30.1 8.19995 29.4 7.89995 29.4 7.69995C29.4 7.69995 29.5 7.59998 29.6 7.59998C29.7 7.59998 30.3 7.69995 30.5 7.69995C30.7 7.69995 31.3 7.69995 31.5 7.69995ZM37.4 13.4C36.6 13.4 34.6 13.5 33.1 13.6C32.6 13.6 32.5 13.8 32.3 13.8C32 13.8 31 13.3 31 13.2C31 13.2 31.1 13.1 31.2 13.1C31.2 13.1 31.3 13.1 31.4 13.1C31.9 13.2 32.6 13.2 33.3 13.2C34.5 13.2 35.9 13.1 37 13.1C37.3 13.1 37.3 13 37.7 13C37.7 13 37.8 13 37.9 13C38.4 13 38.5 13.1 38.5 13.2C38.5 13.3 38.4 13.4 38.4 13.6C38.4 15.3 38.4 16.1 38.2 16.8C38.1 17.2 37.9 17.4 37.8 17.4C37.7 17.4 37.6 17.3 37.6 16.9V13.4H37.4ZM36.3 10.3C36.3 12.1 35.8 12.2 35.8 12.2C35.7 12.2 35.6 12 35.6 11.7V7.39996C35.6 7.09996 35.3 6.99995 34.6 6.69995C34.5 6.69995 34.5 6.6 34.5 6.5C34.5 6.5 34.6 6.39996 34.9 6.39996C34.9 6.39996 36.4 6.59996 36.4 6.89996C36.4 6.99996 36.4 7.09995 36.4 7.19995V10L37.7 9.89996V6.69995C37.7 6.39995 37.2 6.19996 36.7 5.89996C36.6 5.79996 36.5 5.79995 36.5 5.69995C36.5 5.59995 36.6 5.59998 36.9 5.59998C37 5.59998 38.5 5.99999 38.5 6.29999C38.5 6.39999 38.4 6.49998 38.4 6.59998V10.3C38.4 11.1 38.3 11.7 38.1 12C38 12.2 37.9 12.2 37.8 12.2C37.7 12.2 37.6 12 37.6 11.7V10.3H36.3Z" fill="white"/>
<path d="M44 7.69995C44.3 7.69995 44.1 7.59998 44.6 7.59998C45 7.59998 45.1 7.59995 45.2 7.69995C45.3 7.69995 45.5 7.69995 45.6 7.69995C45.8 7.69995 46 7.69995 46.2 7.69995C46.4 7.59995 46.3 7.59998 46.7 7.59998C47.2 7.59998 47.4 7.59999 47.4 7.79999C47.4 7.89999 47.3 8.09995 47.2 8.19995C46.8 8.99995 46.5 9.6 46.3 10C47.2 11 47.3 10.4 47.7 11.5C47.7 11.6 47.7 11.7 47.7 11.7C47.7 11.9 47.6 12.1 47.5 12.1C47.4 12.1 47.3 12 47.2 11.9C46.9 11.5 46.6 10.9 46.1 10.3C45.3 11.5 43.5 13.2 43.2 13.2H43.1C43.1 13.2 43.2 13 43.3 12.9C44.3 11.9 45.9 9.89998 46.3 8.09998C46.1 8.09998 45.9 8.09995 45.7 8.19995C45.5 8.19995 45.5 8.29999 45.3 8.29999C45.2 8.29999 45.1 8.29995 44.9 8.19995C44.7 8.59995 44.3 9.29998 44.1 9.59998C44.4 9.89998 44.9 9.89999 45 10.3C45 10.4 45 10.5 45 10.6C45 10.8 44.9 10.9 44.8 10.9C44.7 10.9 44.6 10.8 44.4 10.6C44.2 10.3 44.1 10.1 43.8 9.79999C43.2 10.5 42.7 11.1 41.6 11.8C41.5 11.9 41.4 11.9 41.3 11.9C41.3 11.9 41.4 11.8 41.5 11.6C42.5 10.7 43.4 9.7 44 8C43.8 8 43.4 7.99998 43.1 8.09998C42.9 8.09998 42.8 8.19995 42.7 8.19995C42.6 8.19995 41.9 7.89995 41.9 7.69995C41.9 7.69995 42 7.59998 42.1 7.59998C42.2 7.59998 42.8 7.69995 43 7.69995C43.2 7.69995 43.8 7.69995 44 7.69995ZM49.9 13.4C49.1 13.4 47.1 13.5 45.6 13.6C45.1 13.6 45 13.8 44.8 13.8C44.5 13.8 43.5 13.3 43.5 13.2C43.5 13.2 43.6 13.1 43.7 13.1C43.7 13.1 43.8 13.1 43.9 13.1C44.4 13.2 45.1 13.2 45.8 13.2C47 13.2 48.4 13.1 49.5 13.1C49.8 13.1 49.8 13 50.2 13C50.2 13 50.3 13 50.4 13C50.9 13 51 13.1 51 13.2C51 13.3 50.9 13.4 50.9 13.6C50.9 15.3 50.9 16.1 50.7 16.8C50.6 17.2 50.4 17.4 50.3 17.4C50.2 17.4 50.1 17.3 50.1 16.9V13.4H49.9ZM48.8 10.3C48.8 12.1 48.3 12.2 48.3 12.2C48.2 12.2 48.1 12 48.1 11.7V7.39996C48.1 7.09996 47.8 6.99995 47.1 6.69995C47 6.69995 47 6.6 47 6.5C47 6.5 47.1 6.39996 47.4 6.39996C47.4 6.39996 48.9 6.59996 48.9 6.89996C48.9 6.99996 48.9 7.09995 48.9 7.19995V10L50.2 9.89996V6.69995C50.2 6.39995 49.7 6.19996 49.2 5.89996C49.1 5.79996 49 5.79995 49 5.69995C49 5.59995 49.1 5.59998 49.4 5.59998C49.5 5.59998 51 5.99999 51 6.29999C51 6.39999 50.9 6.49998 50.9 6.59998V10.3C50.9 11.1 50.8 11.7 50.6 12C50.5 12.2 50.4 12.2 50.3 12.2C50.2 12.2 50.1 12 50.1 11.7V10.3H48.8Z" fill="white"/>
<path d="M10.3726 14.3343C9.7002 14.3343 9.19589 14.0751 8.69158 13.6431C8.35537 13.3839 8.18726 12.9519 8.01916 12.6063C8.35537 12.6927 8.77563 12.6927 9.11183 12.5199C8.52347 12.3471 8.01915 12.0879 7.68294 11.5695C7.34674 11.0511 7.09459 10.5327 7.09459 9.92788C7.43079 10.1007 7.85105 10.2735 8.18726 10.2735C7.5989 9.8415 7.17864 9.23673 7.09459 8.45913C7.01053 7.85434 7.17864 7.3359 7.4308 6.9039C8.77563 8.54549 10.5407 9.40952 12.5579 9.58232C12.5579 9.49592 12.558 9.40953 12.4739 9.32313C12.3899 8.89113 12.4739 8.45913 12.642 8.02714C12.9782 7.24954 13.5666 6.6447 14.4071 6.47191C15.3317 6.29911 16.0881 6.55835 16.7605 7.16314C16.7605 7.16314 16.7605 7.16314 16.8446 7.16314C17.3489 7.07674 17.8532 6.81753 18.3575 6.55834C18.3575 6.64474 18.1054 7.1631 17.9373 7.3359C17.7692 7.5951 17.517 7.76791 17.2648 7.94071C17.7692 7.85431 18.1894 7.76791 18.6937 7.50871C18.6937 7.50871 18.6937 7.50874 18.6937 7.59514C18.6937 7.59514 18.6937 7.59512 18.6937 7.68152C18.4416 8.02712 18.1054 8.37272 17.7692 8.71832C17.6851 8.80472 17.6011 8.89113 17.517 8.89113C17.517 8.89113 17.517 8.89111 17.517 8.97751C17.517 9.40951 17.517 9.84152 17.4329 10.1871C17.3489 10.8783 17.1808 11.5695 16.8446 12.2607C16.5924 12.8655 16.1722 13.4703 15.7519 14.0751C15.1636 14.7663 14.5752 15.2847 13.7347 15.7167C13.1463 16.0623 12.4739 16.3214 11.8015 16.4078C11.2131 16.4942 10.6248 16.5806 9.95235 16.5806C9.11183 16.5806 8.27131 16.3214 7.51484 15.9758C7.17864 15.803 6.84243 15.6303 6.50623 15.4575C8.10321 15.5439 9.27994 15.1983 10.3726 14.3343Z" fill="white"/>
</g>
</svg>
