<svg width="95" height="23" viewBox="0 0 95 23" fill="none" xmlns="http://www.w3.org/2000/svg">
<mask id="mask0" mask-type="alpha" maskUnits="userSpaceOnUse" x="0" y="0" width="95" height="23">
<path d="M91.1 0H3.8C1.7 0 0 1.7 0 3.8V19.2C0 21.3 1.7 23 3.8 23H91.1C93.2 23 94.9 21.3 94.9 19.2V3.8C94.8 1.7 93.1 0 91.1 0Z" fill="#50ABF1"/>
</mask>
<g mask="url(#mask0)">
<rect width="95" height="23" fill="#0274B3"/>
<rect width="95" height="23" fill="#E1E7EC"/>
<rect width="95" height="23" fill="#CB1F24"/>
<rect width="95" height="23" fill="#3A559F"/>
<rect width="95" height="23" fill="#50ABF1"/>
<path d="M32.9 12.7V11.2H36.8V14.8C36.4 15.2 35.9 15.5 35.2 15.8C34.5 16.1 33.8 16.2 33 16.2C32.1 16.2 31.2 16 30.5 15.6C29.8 15.2 29.3 14.6 28.9 13.9C28.5 13.2 28.4 12.4 28.4 11.5C28.4 10.6 28.6 9.7 29 9C29.4 8.3 30 7.7 30.7 7.3C31.3 7 32 6.90001 32.8 6.90001C33.9 6.90001 34.8 7.10001 35.4 7.60001C36 8.10001 36.4 8.7 36.6 9.5L34.8 9.8C34.7 9.4 34.4 9 34.1 8.8C33.8 8.5 33.3 8.40001 32.8 8.40001C32 8.40001 31.4 8.7 30.9 9.2C30.4 9.7 30.2 10.4 30.2 11.4C30.2 12.5 30.4 13.3 30.9 13.8C31.4 14.3 32 14.6 32.8 14.6C33.2 14.6 33.6 14.5 33.9 14.4C34.3 14.3 34.6 14.1 34.9 13.9V12.8H32.9V12.7Z" fill="white"/>
<path d="M42.2 13.9L43.9 14.2C43.7 14.8 43.3 15.3 42.9 15.6C42.5 15.9 41.8 16.1 41.1 16.1C40 16.1 39.1 15.7 38.6 15C38.2 14.4 38 13.7 38 12.8C38 11.7 38.3 10.9 38.8 10.3C39.4 9.7 40.1 9.40001 40.9 9.40001C41.9 9.40001 42.6 9.70001 43.2 10.4C43.8 11 44 12 44 13.3H39.7C39.7 13.8 39.9 14.2 40.1 14.5C40.4 14.8 40.7 14.9 41.1 14.9C41.4 14.9 41.6 14.8 41.8 14.7C42 14.4 42.1 14.2 42.2 13.9ZM42.3 12.2C42.3 11.7 42.2 11.3 41.9 11.1C41.6 10.9 41.4 10.7 41 10.7C40.6 10.7 40.3 10.8 40.1 11.1C39.9 11.4 39.7 11.7 39.7 12.2H42.3Z" fill="white"/>
<path d="M45.3 16V7H47V11.8L49 9.5H51.1L48.9 11.9L51.3 16H49.4L47.8 13.1L47 13.9V16H45.3Z" fill="white"/>
<path d="M53.6 16L51.5 9.5H53.2L54.4 13.8L55.5 9.5H57.2L58.3 13.8L59.5 9.5H61.2L59.1 16H57.4L56.3 11.8L55.2 16H53.6Z" fill="white"/>
<path d="M65.8 13.9L67.5 14.2C67.3 14.8 66.9 15.3 66.5 15.6C66.1 15.9 65.4 16.1 64.7 16.1C63.6 16.1 62.7 15.7 62.2 15C61.8 14.4 61.6 13.7 61.6 12.8C61.6 11.7 61.9 10.9 62.4 10.3C63 9.7 63.7 9.40001 64.5 9.40001C65.5 9.40001 66.2 9.70001 66.8 10.4C67.4 11 67.6 12 67.6 13.3H63.3C63.3 13.8 63.5 14.2 63.7 14.5C64 14.8 64.3 14.9 64.7 14.9C65 14.9 65.2 14.8 65.4 14.7C65.6 14.4 65.8 14.2 65.8 13.9ZM65.9 12.2C65.9 11.7 65.8 11.3 65.5 11.1C65.2 10.9 65 10.7 64.6 10.7C64.2 10.7 63.9 10.8 63.7 11.1C63.5 11.4 63.3 11.7 63.3 12.2H65.9Z" fill="white"/>
<path d="M72 9.5V10.9H70.8V13.5C70.8 14 70.8 14.3 70.8 14.4C70.8 14.5 70.9 14.6 71 14.6C71.1 14.7 71.2 14.7 71.3 14.7C71.5 14.7 71.7 14.6 72 14.5L72.1 15.8C71.7 16 71.2 16.1 70.7 16.1C70.4 16.1 70.1 16 69.9 15.9C69.7 15.8 69.5 15.7 69.4 15.5C69.3 15.3 69.2 15.1 69.2 14.8C69.2 14.6 69.1 14.2 69.1 13.6V10.8H68.3V9.40001H69.1V8.10001L70.8 7.10001V9.40001H72V9.5Z" fill="white"/>
<path d="M76.2 9.5V10.9H75V13.5C75 14 75 14.3 75 14.4C75 14.5 75.1 14.6 75.2 14.6C75.3 14.7 75.4 14.7 75.5 14.7C75.7 14.7 75.9 14.6 76.2 14.5L76.3 15.8C75.9 16 75.4 16.1 74.9 16.1C74.6 16.1 74.3 16 74.1 15.9C73.9 15.8 73.7 15.7 73.6 15.5C73.5 15.3 73.4 15.1 73.4 14.8C73.4 14.6 73.3 14.2 73.3 13.6V10.8H72.5V9.40001H73.3V8.10001L75 7.10001V9.40001H76.2V9.5Z" fill="white"/>
<path d="M81.1 13.9L82.8 14.2C82.6 14.8 82.2 15.3 81.8 15.6C81.4 15.9 80.7 16.1 80 16.1C78.9 16.1 78 15.7 77.5 15C77.1 14.4 76.9 13.7 76.9 12.8C76.9 11.7 77.2 10.9 77.7 10.3C78.3 9.7 79 9.40001 79.8 9.40001C80.8 9.40001 81.5 9.70001 82.1 10.4C82.7 11 82.9 12 82.9 13.3H78.6C78.6 13.8 78.8 14.2 79 14.5C79.3 14.8 79.6 14.9 80 14.9C80.3 14.9 80.5 14.8 80.7 14.7C80.9 14.4 81.1 14.2 81.1 13.9ZM81.2 12.2C81.2 11.7 81.1 11.3 80.8 11.1C80.5 10.9 80.3 10.7 79.9 10.7C79.5 10.7 79.2 10.8 79 11.1C78.8 11.4 78.6 11.7 78.6 12.2H81.2Z" fill="white"/>
<path d="M86 16H84.3V9.5H85.9V10.4C86.2 10 86.4 9.7 86.6 9.5C86.8 9.4 87.1 9.3 87.3 9.3C87.7 9.3 88.1 9.40001 88.4 9.60001L87.9 11.1C87.6 10.9 87.3 10.8 87.1 10.8C86.9 10.8 86.7 10.9 86.5 11C86.3 11.1 86.2 11.4 86.1 11.7C86 12 86 12.8 86 13.9V16Z" fill="white"/>
<path d="M10.3726 14.3343C9.7002 14.3343 9.19589 14.0751 8.69158 13.6431C8.35537 13.3839 8.18726 12.9519 8.01916 12.6063C8.35537 12.6927 8.77563 12.6927 9.11183 12.5199C8.52347 12.3471 8.01915 12.0879 7.68294 11.5695C7.34674 11.0511 7.09459 10.5327 7.09459 9.92788C7.43079 10.1007 7.85105 10.2735 8.18726 10.2735C7.5989 9.8415 7.17864 9.23673 7.09459 8.45913C7.01053 7.85434 7.17864 7.3359 7.4308 6.9039C8.77563 8.54549 10.5407 9.40952 12.5579 9.58232C12.5579 9.49592 12.558 9.40953 12.4739 9.32313C12.3899 8.89113 12.4739 8.45913 12.642 8.02714C12.9782 7.24954 13.5666 6.6447 14.4071 6.47191C15.3317 6.29911 16.0881 6.55835 16.7605 7.16314C16.7605 7.16314 16.7605 7.16314 16.8446 7.16314C17.3489 7.07674 17.8532 6.81753 18.3575 6.55834C18.3575 6.64474 18.1054 7.1631 17.9373 7.3359C17.7692 7.5951 17.517 7.76791 17.2648 7.94071C17.7692 7.85431 18.1894 7.76791 18.6937 7.50871C18.6937 7.50871 18.6937 7.50874 18.6937 7.59514C18.6937 7.59514 18.6937 7.59512 18.6937 7.68152C18.4416 8.02712 18.1054 8.37272 17.7692 8.71832C17.6851 8.80472 17.6011 8.89113 17.517 8.89113C17.517 8.89113 17.517 8.89111 17.517 8.97751C17.517 9.40951 17.517 9.84152 17.4329 10.1871C17.3489 10.8783 17.1808 11.5695 16.8446 12.2607C16.5924 12.8655 16.1722 13.4703 15.7519 14.0751C15.1636 14.7663 14.5752 15.2847 13.7347 15.7167C13.1463 16.0623 12.4739 16.3214 11.8015 16.4078C11.2131 16.4942 10.6248 16.5806 9.95235 16.5806C9.11183 16.5806 8.27131 16.3214 7.51484 15.9758C7.17864 15.803 6.84243 15.6303 6.50623 15.4575C8.10321 15.5439 9.27994 15.1983 10.3726 14.3343Z" fill="white"/>
</g>
</svg>
