<svg width="79" height="23" viewBox="0 0 79 23" fill="none" xmlns="http://www.w3.org/2000/svg">
<mask id="mask0" mask-type="alpha" maskUnits="userSpaceOnUse" x="0" y="0" width="79" height="23">
<path d="M75.1 0H3.8C1.7 0 0 1.70005 0 3.80005V19.2C0 21.3 1.7 23 3.8 23H75.1C77.2 23 78.9 21.3 78.9 19.2V3.80005C78.8 1.70005 77.1 0 75.1 0Z" fill="#50ABF1"/>
</mask>
<g mask="url(#mask0)">
<rect width="79" height="23" fill="#0274B3"/>
<rect width="79" height="23" fill="#E1E7EC"/>
<rect width="79" height="23" fill="#CB1F24"/>
<rect width="79" height="23" fill="#3A559F"/>
<rect width="79" height="23" fill="#50ABF1"/>
<path d="M30.7 14.7V7.30005H28V5.80005H35.1V7.30005H32.4V14.7H30.7Z" fill="white"/>
<path d="M36.6 14.7L34.5 8.20001H36.2L37.4 12.5L38.5 8.20001H40.2L41.3 12.5L42.5 8.20001H44.2L42.1 14.7H40.4L39.3 10.5L38.2 14.7H36.6Z" fill="white"/>
<path d="M48.9 12.6L50.6 12.9C50.4 13.5 50 14 49.6 14.3C49.2 14.6 48.5 14.8 47.8 14.8C46.7 14.8 45.8 14.4 45.3 13.7C44.9 13.1 44.7 12.4 44.7 11.5C44.7 10.4 45 9.6 45.5 9C46.1 8.4 46.8 8.10004 47.6 8.10004C48.6 8.10004 49.3 8.40004 49.9 9.10004C50.5 9.70004 50.7 10.7 50.7 12H46.4C46.4 12.5 46.6 12.9 46.8 13.2C47.1 13.5 47.4 13.6 47.8 13.6C48.1 13.6 48.3 13.5 48.5 13.4C48.7 13.2 48.8 12.9 48.9 12.6ZM49 10.9C49 10.4 48.9 10 48.6 9.80005C48.3 9.60005 48.1 9.40002 47.7 9.40002C47.3 9.40002 47 9.50005 46.8 9.80005C46.6 10.1 46.4 10.4 46.4 10.9H49Z" fill="white"/>
<path d="M55.9 12.6L57.6 12.9C57.4 13.5 57 14 56.6 14.3C56.2 14.6 55.5 14.8 54.8 14.8C53.7 14.8 52.8 14.4 52.3 13.7C51.9 13.1 51.7 12.4 51.7 11.5C51.7 10.4 52 9.6 52.5 9C53.1 8.4 53.8 8.10004 54.6 8.10004C55.6 8.10004 56.3 8.40004 56.9 9.10004C57.5 9.70004 57.7 10.7 57.7 12H53.4C53.4 12.5 53.6 12.9 53.8 13.2C54.1 13.5 54.4 13.6 54.8 13.6C55.1 13.6 55.3 13.5 55.5 13.4C55.6 13.2 55.8 12.9 55.9 12.6ZM56 10.9C56 10.4 55.9 10 55.6 9.80005C55.3 9.60005 55 9.40002 54.7 9.40002C54.3 9.40002 54 9.50005 53.8 9.80005C53.6 10.1 53.4 10.4 53.4 10.9H56Z" fill="white"/>
<path d="M62 8.20001V9.60004H60.8V12.2C60.8 12.7 60.8 13 60.8 13.1C60.8 13.2 60.9 13.3 61 13.3C61.1 13.4 61.2 13.4 61.3 13.4C61.5 13.4 61.7 13.3 62 13.2L62.1 14.5C61.7 14.7 61.2 14.8 60.7 14.8C60.4 14.8 60.1 14.7 59.9 14.6C59.7 14.5 59.5 14.4 59.4 14.2C59.3 14 59.2 13.8 59.2 13.5C59.2 13.3 59.1 12.9 59.1 12.3V9.5H58.3V8.10004H59.1V6.80005L60.8 5.80005V8.10004H62V8.20001Z" fill="white"/>
<path d="M67.5 14.7V13.7C67.3 14 67 14.3 66.6 14.5C66.2 14.7 65.8 14.8 65.4 14.8C65 14.8 64.6 14.7 64.2 14.5C63.8 14.3 63.6 14 63.4 13.7C63.2 13.4 63.2 12.9 63.2 12.3V8.20001H64.9V11.2C64.9 12.1 64.9 12.7 65 12.9C65.1 13.1 65.2 13.3 65.3 13.4C65.4 13.5 65.7 13.6 65.9 13.6C66.2 13.6 66.5 13.5 66.7 13.4C66.9 13.2 67.1 13 67.2 12.8C67.3 12.6 67.3 12 67.3 11V8.30005H69V14.8H67.5V14.7Z" fill="white"/>
<path d="M72.6 8.20001V14.5C72.6 15.3 72.5 15.9 72.4 16.3C72.3 16.6 72.1 16.9 71.8 17.1C71.5 17.3 71.1 17.4 70.6 17.4C70.4 17.4 70.2 17.4 70 17.4C69.8 17.4 69.6 17.3 69.4 17.3L69.7 15.8C69.8 15.8 69.9 15.8 69.9 15.8C70 15.8 70 15.8 70.1 15.8C70.3 15.8 70.4 15.8 70.5 15.7C70.6 15.6 70.7 15.5 70.7 15.4C70.7 15.3 70.8 15 70.8 14.4V8.20001H72.6V8.20001ZM70.8 7.30005V5.70001H72.5V7.30005H70.8Z" fill="white"/>
<path d="M10.3726 14.3343C9.7002 14.3343 9.19589 14.0751 8.69158 13.6431C8.35537 13.3839 8.18726 12.9519 8.01916 12.6063C8.35537 12.6927 8.77563 12.6927 9.11183 12.5199C8.52347 12.3471 8.01915 12.0879 7.68294 11.5695C7.34674 11.0511 7.09459 10.5327 7.09459 9.92788C7.43079 10.1007 7.85105 10.2735 8.18726 10.2735C7.5989 9.8415 7.17864 9.23673 7.09459 8.45913C7.01053 7.85434 7.17864 7.3359 7.4308 6.9039C8.77563 8.54549 10.5407 9.40952 12.5579 9.58232C12.5579 9.49592 12.558 9.40953 12.4739 9.32313C12.3899 8.89113 12.4739 8.45913 12.642 8.02714C12.9782 7.24954 13.5666 6.6447 14.4071 6.47191C15.3317 6.29911 16.0881 6.55835 16.7605 7.16314C16.7605 7.16314 16.7605 7.16314 16.8446 7.16314C17.3489 7.07674 17.8532 6.81753 18.3575 6.55834C18.3575 6.64474 18.1054 7.1631 17.9373 7.3359C17.7692 7.5951 17.517 7.76791 17.2648 7.94071C17.7692 7.85431 18.1894 7.76791 18.6937 7.50871C18.6937 7.50871 18.6937 7.50874 18.6937 7.59514C18.6937 7.59514 18.6937 7.59512 18.6937 7.68152C18.4416 8.02712 18.1054 8.37272 17.7692 8.71832C17.6851 8.80472 17.6011 8.89113 17.517 8.89113C17.517 8.89113 17.517 8.89111 17.517 8.97751C17.517 9.40951 17.517 9.84152 17.4329 10.1871C17.3489 10.8783 17.1808 11.5695 16.8446 12.2607C16.5924 12.8655 16.1722 13.4703 15.7519 14.0751C15.1636 14.7663 14.5752 15.2847 13.7347 15.7167C13.1463 16.0623 12.4739 16.3214 11.8015 16.4078C11.2131 16.4942 10.6248 16.5806 9.95235 16.5806C9.11183 16.5806 8.27131 16.3214 7.51484 15.9758C7.17864 15.803 6.84243 15.6303 6.50623 15.4575C8.10321 15.5439 9.27994 15.1983 10.3726 14.3343Z" fill="white"/>
</g>
</svg>
