<svg width="70" height="23" viewBox="0 0 70 23" fill="none" xmlns="http://www.w3.org/2000/svg">
<mask id="mask0" mask-type="alpha" maskUnits="userSpaceOnUse" x="0" y="0" width="70" height="23">
<path d="M66.1 0H3.8C1.7 0 0 1.69999 0 3.79999V19.2C0 21.3 1.7 23 3.8 23H66.1C68.2 23 69.9 21.3 69.9 19.2V3.79999C69.8 1.69999 68.1 0 66.1 0Z" fill="#50ABF1"/>
</mask>
<g mask="url(#mask0)">
<rect width="70" height="23" fill="#0274B3"/>
<rect width="70" height="23" fill="#E1E7EC"/>
<rect width="70" height="23" fill="#CB1F24"/>
<rect width="70" height="23" fill="#3A559F"/>
<rect width="70" height="23" fill="#50ABF1"/>
<path d="M30.7 15.9V8.5H28V7H35.1V8.5H32.4V15.9H30.7Z" fill="white"/>
<path d="M36.6 15.9L34.5 9.39996H36.2L37.4 13.7L38.5 9.39996H40.2L41.3 13.7L42.5 9.39996H44.2L42.1 15.9H40.4L39.3 11.7L38.2 15.9H36.6Z" fill="white"/>
<path d="M45.1 8.5V6.89996H46.8V8.5H45.1ZM45.1 15.9V9.39996H46.8V15.9H45.1Z" fill="white"/>
<path d="M51.6 9.39996V10.8H50.4V13.4C50.4 13.9 50.4 14.2 50.4 14.3C50.4 14.4 50.5 14.5 50.6 14.5C50.7 14.6 50.8 14.6 50.9 14.6C51.1 14.6 51.3 14.5 51.6 14.4L51.7 15.8C51.3 16 50.8 16.1 50.3 16.1C50 16.1 49.7 16 49.5 15.9C49.3 15.8 49.1 15.7 49 15.5C48.9 15.3 48.8 15.1 48.8 14.8C48.8 14.6 48.7 14.2 48.7 13.6V10.8H47.9V9.39996H48.7V8.09998L50.4 7.09998V9.39996H51.6Z" fill="white"/>
<path d="M54.1 11.4L52.5 11.1C52.7 10.5 53 10 53.4 9.70001C53.8 9.40001 54.5 9.20001 55.3 9.20001C56.1 9.20001 56.6 9.3 57 9.5C57.4 9.7 57.6 9.90001 57.8 10.2C58 10.5 58 11 58 11.7V13.7C58 14.3 58 14.7 58.1 15C58.2 15.3 58.3 15.6 58.4 15.9H56.7C56.7 15.8 56.6 15.6 56.5 15.4C56.5 15.3 56.5 15.2 56.4 15.2C56.1 15.5 55.8 15.7 55.5 15.8C55.2 15.9 54.8 16 54.4 16C53.7 16 53.2 15.8 52.8 15.5C52.4 15.1 52.2 14.7 52.2 14.1C52.2 13.7 52.3 13.4 52.5 13.1C52.7 12.8 52.9 12.6 53.2 12.4C53.5 12.2 54 12.1 54.6 12C55.4 11.8 56 11.7 56.3 11.6V11.4C56.3 11.1 56.2 10.8 56.1 10.7C55.9 10.6 55.6 10.5 55.2 10.5C54.9 10.5 54.7 10.6 54.5 10.7C54.3 10.8 54.2 11.1 54.1 11.4ZM56.4 12.8C56.2 12.9 55.8 13 55.4 13.1C54.9 13.2 54.6 13.3 54.5 13.4C54.3 13.6 54.2 13.8 54.2 14C54.2 14.2 54.3 14.4 54.5 14.6C54.7 14.8 54.9 14.9 55.2 14.9C55.5 14.9 55.8 14.8 56.1 14.6C56.3 14.4 56.4 14.3 56.5 14C56.5 13.9 56.6 13.6 56.6 13.2V12.8H56.4Z" fill="white"/>
<path d="M61.4 15.9H59.7V9.39996H61.3V10.3C61.6 9.89999 61.8 9.59996 62 9.39996C62.2 9.29996 62.5 9.20001 62.7 9.20001C63.1 9.20001 63.5 9.3 63.8 9.5L63.3 11C63 10.8 62.7 10.7 62.5 10.7C62.3 10.7 62.1 10.8 61.9 10.9C61.7 11 61.6 11.3 61.5 11.6C61.4 11.9 61.4 12.7 61.4 13.8V15.9Z" fill="white"/>
<path d="M10.3726 14.3343C9.7002 14.3343 9.19589 14.0751 8.69158 13.6431C8.35537 13.3839 8.18726 12.9519 8.01916 12.6063C8.35537 12.6927 8.77563 12.6926 9.11183 12.5198C8.52347 12.3471 8.01915 12.0879 7.68294 11.5695C7.34674 11.0511 7.09459 10.5327 7.09459 9.92787C7.43079 10.1007 7.85105 10.2735 8.18726 10.2735C7.5989 9.84149 7.17864 9.23671 7.09459 8.45912C7.01053 7.85432 7.17864 7.33588 7.4308 6.90389C8.77563 8.54548 10.5407 9.4095 12.5579 9.5823C12.5579 9.4959 12.558 9.40951 12.4739 9.32311C12.3899 8.89112 12.4739 8.45912 12.642 8.02712C12.9782 7.24953 13.5666 6.64469 14.4071 6.47189C15.3317 6.29909 16.0881 6.55833 16.7605 7.16313C16.7605 7.16313 16.7605 7.16313 16.8446 7.16313C17.3489 7.07673 17.8532 6.81752 18.3575 6.55832C18.3575 6.64472 18.1054 7.16309 17.9373 7.33588C17.7692 7.59508 17.517 7.76789 17.2648 7.94069C17.7692 7.85429 18.1894 7.76789 18.6937 7.50869C18.6937 7.50869 18.6937 7.50873 18.6937 7.59512C18.6937 7.59512 18.6937 7.5951 18.6937 7.6815C18.4416 8.0271 18.1054 8.37271 17.7692 8.71831C17.6851 8.80471 17.6011 8.89112 17.517 8.89112C17.517 8.89112 17.517 8.89109 17.517 8.97749C17.517 9.40949 17.517 9.84151 17.4329 10.1871C17.3489 10.8783 17.1808 11.5695 16.8446 12.2607C16.5924 12.8655 16.1722 13.4703 15.7519 14.0751C15.1636 14.7663 14.5752 15.2846 13.7347 15.7166C13.1463 16.0622 12.4739 16.3214 11.8015 16.4078C11.2131 16.4942 10.6248 16.5806 9.95235 16.5806C9.11183 16.5806 8.27131 16.3214 7.51484 15.9758C7.17864 15.803 6.84243 15.6302 6.50623 15.4575C8.10321 15.5438 9.27994 15.1983 10.3726 14.3343Z" fill="white"/>
</g>
</svg>
