<svg width="97" height="23" viewBox="0 0 97 23" fill="none" xmlns="http://www.w3.org/2000/svg">
<mask id="mask0" mask-type="alpha" maskUnits="userSpaceOnUse" x="0" y="0" width="97" height="23">
<path d="M93.1 0H3.8C1.7 0 0 1.69999 0 3.79999V19.2C0 21.3 1.7 23 3.8 23H93.1C95.2 23 96.9 21.3 96.9 19.2V3.79999C96.8 1.69999 95.1 0 93.1 0Z" fill="#50ABF1"/>
</mask>
<g mask="url(#mask0)">
<rect width="97" height="23" fill="#0274B3"/>
<rect width="97" height="23" fill="#E1E7EC"/>
<rect width="97" height="23" fill="#CB1F24"/>
<rect width="97" height="23" fill="#3A559F"/>
<rect width="97" height="23" fill="#50ABF1"/>
<path d="M33.2 13.9C33.2 14.1 33.1 14.5 32.8 14.9C32.5 15.3 32.2 15.7 31.8 16C31.4 16.3 31 16.5 30.7 16.5C30.3 16.5 30 16.4 29.5 16.2C29.1 16 28.6 15.7 27.8 15.1L28.1 14.7C28.5 14.9 28.8 15.1 29 15.2C29.2 15.3 29.5 15.3 29.7 15.3C30 15.3 30.3 15.2 30.5 15.1C30.7 15 31.2 14.6 31.6 14.2C32.3 13.6 32.6 13.1 32.6 12.8C32.6 12.6 32.5 12.4 32.4 12.2C32.3 11.9 32.1 11.6 31.9 11.4L32.2 9.70001C32.5 10 32.7 10.3 32.8 10.7C33 11.1 33 11.5 33 12V13.9H33.2Z" fill="white"/>
<path d="M36.6 13.8H32.8V12.1H36C36 11.8 35.9 11.6 35.8 11.4C35.7 11.3 35.6 11.1 35.4 10.9L35.9 9.40002C36.2 9.70002 36.4 10.1 36.5 10.5C36.6 10.9 36.7 11.4 36.7 12.2V13.8H36.6ZM36.5 14.9L35.9 16.1L35 15.6L34.5 16.6L33.4 16L34.1 14.8L35 15.3L35.5 14.3L36.5 14.9Z" fill="white"/>
<path d="M43.2 13.8H36.2V12.1H40.5C40 11.6 39.6 11.2 39.1 11C38.7 10.8 38.4 10.7 38 10.7C37.9 10.7 37.8 10.7 37.7 10.7C37.6 10.7 37.5 10.7 37.3 10.8C37.5 10.3 37.8 9.90001 38 9.70001C38.3 9.50001 38.6 9.29999 38.9 9.29999C39.2 9.29999 39.4 9.4 39.7 9.5C39.9 9.6 40.2 9.79998 40.5 10.1C40.7 10.3 41.1 10.7 41.5 11.2C41.8 11.5 42 11.8 42.2 11.9C42.4 12 42.6 12.1 42.9 12.2V13.8H43.2ZM40.9 15.1L40.2 16.5L38.8 15.8L39.5 14.4L40.9 15.1Z" fill="white"/>
<path d="M52.1 13.9C52.1 14.1 52 14.5 51.7 14.9C51.4 15.3 51.1 15.7 50.7 16C50.3 16.3 49.9 16.5 49.6 16.5C49.2 16.5 48.9 16.4 48.4 16.2C48 16 47.5 15.7 46.7 15.1L47 14.7C47.4 14.9 47.7 15.1 47.9 15.2C48.1 15.3 48.4 15.3 48.6 15.3C48.9 15.3 49.2 15.2 49.4 15.1C49.6 15 50.1 14.6 50.5 14.2C51.2 13.6 51.5 13.1 51.5 12.8C51.5 12.6 51.4 12.4 51.3 12.2C51.2 11.9 51 11.6 50.8 11.4L51.1 9.70001C51.4 10 51.6 10.3 51.7 10.7C51.9 11.1 51.9 11.5 51.9 12V13.9H52.1Z" fill="white"/>
<path d="M55.4 13.8H51.6V12.1H54.8C54.8 11.8 54.7 11.6 54.6 11.4C54.5 11.3 54.4 11.1 54.2 10.9L54.7 9.40002C55 9.70002 55.2 10.1 55.3 10.5C55.4 10.9 55.5 11.4 55.5 12.2V13.8H55.4ZM55.4 14.9L54.7 16L53.8 15.5L53.3 16.5L52.2 15.9L52.9 14.7L53.8 15.2L54.3 14.2L55.4 14.9Z" fill="white"/>
<path d="M62 13.8H55V12.1H59.3C58.8 11.6 58.4 11.2 57.9 11C57.5 10.8 57.2 10.7 56.8 10.7C56.7 10.7 56.6 10.7 56.5 10.7C56.4 10.7 56.3 10.7 56.1 10.8C56.3 10.3 56.6 9.90001 56.8 9.70001C57.1 9.50001 57.4 9.29999 57.7 9.29999C58 9.29999 58.2 9.4 58.5 9.5C58.7 9.6 59 9.79998 59.3 10.1C59.5 10.3 59.9 10.7 60.3 11.2C60.6 11.5 60.8 11.8 61 11.9C61.2 12 61.4 12.1 61.7 12.2V13.8H62ZM59.7 15.1L59 16.5L57.6 15.8L58.3 14.4L59.7 15.1Z" fill="white"/>
<path d="M72.7 10.8C72.7 11 72.7 11.2 72.6 11.4C72.5 11.6 72.5 11.7 72.3 12C72.2 11.7 72.1 11.5 72 11.4C71.9 11.3 71.8 11.3 71.7 11.3C71.5 11.3 71.2 11.4 70.8 11.7C70.4 12 70.2 12.2 70.2 12.3C70.2 12.4 70.3 12.5 70.4 12.5C70.5 12.5 70.7 12.5 70.9 12.5C71 12.5 71 12.5 71.1 12.5C71.2 12.5 71.2 12.5 71.3 12.5C71.7 12.5 72 12.5 72.2 12.6C72.3 12.7 72.4 12.8 72.4 13.1C72.4 13.5 72.3 14 72.2 14.4C72 14.9 71.7 15.3 71.3 15.5C70.8 15.8 70.3 16 69.8 16.2C69.3 16.4 68.8 16.5 68.3 16.5C67 16.5 66.4 15.9 66.4 14.8C66.4 14.2 66.5 13.7 66.6 13.3C66.8 12.8 67.1 12.2 67.6 11.4L67.9 11.6C67.6 12.1 67.4 12.6 67.2 13C67 13.4 67 13.7 67 14C67 14.8 67.4 15.2 68.3 15.2C68.6 15.2 68.9 15.2 69.2 15.1C69.5 15 69.8 15 70.1 14.9C70.3 14.8 70.5 14.7 70.8 14.6C71.2 14.4 71.4 14.3 71.4 14.3C71.6 14.2 71.7 14.1 71.7 14C71.7 14 71.6 13.9 71.4 13.9C71.2 13.9 71.1 13.9 71 13.9C70.4 13.9 70 13.8 69.7 13.6C69.5 13.5 69.4 13.2 69.4 12.8C69.4 12.6 69.5 12.4 69.6 12.1C69.7 11.8 69.9 11.5 70.1 11.3C70.4 10.9 70.7 10.5 71 10.3C71.3 10.1 71.6 10 71.9 10C72.1 10 72.3 10.1 72.5 10.3C72.6 10.2 72.7 10.5 72.7 10.8Z" fill="white"/>
<path d="M75.8 12C75.8 12.4 75.8 12.7 75.7 13C75.6 13.3 75.4 13.7 75.2 14.2L74.8 14.1C74.9 13.6 74.9 13.2 74.9 12.8C74.9 12.6 74.9 12.2 74.8 11.7C74.8 11.2 74.7 10.7 74.6 10.3C74.5 9.79999 74.4 9.29998 74.3 8.59998C74.3 8.39998 74.2 8.19998 74.2 8.09998C74.2 7.99998 74.3 7.8 74.4 7.5C74.5 7.2 74.7 6.80002 74.9 6.40002L75.3 8.59998C75.4 9.39998 75.5 10.1 75.6 10.7C75.8 11.1 75.8 11.6 75.8 12Z" fill="white"/>
<path d="M80.6 13.8H77.8C77.5 13.8 77.3 13.7 77.2 13.6C77 13.5 76.9 13.2 76.9 12.9C76.9 12.7 76.9 12.5 76.9 12.3C76.9 12.1 76.9 11.9 77 11.7H77.2C77.2 11.8 77.3 11.9 77.4 12C77.5 12.1 77.6 12.1 77.8 12.1H79.9C79.8 11.5 79.6 11 79.4 10.7C79.2 10.4 78.9 10.1 78.6 9.90002L79 8C79.5 8.4 79.9 8.9 80.1 9.5C80.3 10.1 80.4 10.8 80.4 11.8V13.8H80.6Z" fill="white"/>
<path d="M90.2 13.8H83.7C83.4 13.8 83.2 13.7 83 13.6C82.8 13.5 82.7 13.2 82.6 12.9C82.3 13.3 82.1 13.5 81.9 13.6C81.7 13.7 81.4 13.8 81 13.8H80.1V12.1H81C81.5 12.1 81.8 12 82.1 11.7C82.4 11.4 82.6 10.9 82.7 10.3L83.1 10.4C83.1 10.5 83.1 10.7 83.1 10.8C83.1 11.1 83.1 11.3 83.1 11.4C83.1 11.6 83.2 11.8 83.3 11.9C83.4 12 83.6 12.1 83.8 12.1C84 12.1 84.2 12.1 84.4 12C84.6 11.9 84.8 11.7 85.2 11.5L87.4 9.90002C87.7 9.70002 87.9 9.6 88 9.5C88.3 9.3 88.6 9.20001 88.9 9.20001C89.4 9.20001 89.7 9.40001 90 9.70001C90.3 10.1 90.5 10.6 90.5 11.4V13.8H90.2ZM89.4 11.5C89.4 11.3 89.3 11.2 89 11.1C88.8 11 88.5 11 88.2 11C87.9 11 87.6 11.1 87.3 11.3C87 11.5 86.5 11.8 85.8 12.3H87.4C88.7 12.1 89.4 11.9 89.4 11.5Z" fill="white"/>
<path d="M10.3726 14.3343C9.7002 14.3343 9.19589 14.0751 8.69158 13.6431C8.35537 13.3839 8.18726 12.9519 8.01916 12.6063C8.35537 12.6927 8.77563 12.6926 9.11183 12.5198C8.52347 12.3471 8.01915 12.0879 7.68294 11.5695C7.34674 11.0511 7.09459 10.5327 7.09459 9.92787C7.43079 10.1007 7.85105 10.2735 8.18726 10.2735C7.5989 9.84149 7.17864 9.23671 7.09459 8.45912C7.01053 7.85432 7.17864 7.33588 7.4308 6.90389C8.77563 8.54548 10.5407 9.4095 12.5579 9.5823C12.5579 9.4959 12.558 9.40951 12.4739 9.32311C12.3899 8.89112 12.4739 8.45912 12.642 8.02712C12.9782 7.24953 13.5666 6.64469 14.4071 6.47189C15.3317 6.29909 16.0881 6.55833 16.7605 7.16313C16.7605 7.16313 16.7605 7.16313 16.8446 7.16313C17.3489 7.07673 17.8532 6.81752 18.3575 6.55832C18.3575 6.64472 18.1054 7.16309 17.9373 7.33588C17.7692 7.59508 17.517 7.76789 17.2648 7.94069C17.7692 7.85429 18.1894 7.76789 18.6937 7.50869C18.6937 7.50869 18.6937 7.50873 18.6937 7.59512C18.6937 7.59512 18.6937 7.5951 18.6937 7.6815C18.4416 8.0271 18.1054 8.37271 17.7692 8.71831C17.6851 8.80471 17.6011 8.89112 17.517 8.89112C17.517 8.89112 17.517 8.89109 17.517 8.97749C17.517 9.40949 17.517 9.84151 17.4329 10.1871C17.3489 10.8783 17.1808 11.5695 16.8446 12.2607C16.5924 12.8655 16.1722 13.4703 15.7519 14.0751C15.1636 14.7663 14.5752 15.2846 13.7347 15.7166C13.1463 16.0622 12.4739 16.3214 11.8015 16.4078C11.2131 16.4942 10.6248 16.5806 9.95235 16.5806C9.11183 16.5806 8.27131 16.3214 7.51484 15.9758C7.17864 15.803 6.84243 15.6302 6.50623 15.4575C8.10321 15.5438 9.27994 15.1983 10.3726 14.3343Z" fill="white"/>
</g>
</svg>
