<svg width="58" height="23" viewBox="0 0 58 23" fill="none" xmlns="http://www.w3.org/2000/svg">
<mask id="mask0" mask-type="alpha" maskUnits="userSpaceOnUse" x="0" y="0" width="58" height="23">
<path d="M54.1 0H3.79999C1.69999 0 0 1.69999 0 3.79999V19.2C0 21.3 1.69999 23 3.79999 23H54.1C56.2 23 57.9 21.3 57.9 19.2V3.79999C57.9 1.69999 56.2 0 54.1 0Z" fill="#50ABF1"/>
</mask>
<g mask="url(#mask0)">
<rect width="58" height="23" fill="#0274B3"/>
<rect width="58" height="23" fill="#50ABF1"/>
<path d="M32.1 14.9L32.2 15.6C30.5 16.1 28.7 16.6 27.6 16.9C27.6 17 27.5 17.1 27.4 17.1L27 16.2L27.6 16V11.6L28.6 11.7C28.6 11.8 28.5 11.8 28.4 11.9V15.9L29.4 15.7V10.5H27.7V6.7H31.6V10.5H30.1V12.3H32V13.1H30.1V15.5L32.1 14.9ZM28.5 7.40001V9.8H30.9V7.40001H28.5ZM35.6 12.2C35.8 12.9 36 13.5 36.2 14.1C36.8 13.7 37.6 13.1 38 12.6L38.7 13.3C38.7 13.3 38.6 13.4 38.5 13.4H38.4C37.9 13.8 37.1 14.4 36.4 14.8C37 15.8 37.8 16.6 38.8 17C38.6 17.2 38.4 17.5 38.2 17.7C36.3 16.7 35.2 14.8 34.6 12.2H33.4V16.2C34.1 16 35 15.8 35.8 15.6L35.9 16.3C34.5 16.7 33 17.1 32.1 17.3C32.1 17.4 32 17.5 31.9 17.5L31.5 16.6C31.8 16.5 32.2 16.4 32.6 16.4V6.60001H37.9V12.2H35.6V12.2ZM37.2 7.40001H33.5V9H37.2V7.40001ZM33.6 9.8V11.5H37.3V9.8H33.6Z" fill="white"/>
<path d="M42.8 6.60001L43.3 6.90001C43.3 6.90001 43.3 7 43.2 7C42.9 8 42.5 9.3 42.2 10.3C43 11.4 43.3 12.3 43.3 13.1C43.3 14.8 42.5 14.9 41.6 14.8C41.6 14.6 41.5 14.3 41.4 14.1C41.6 14.1 41.7 14.1 41.9 14.1C42.3 14.1 42.6 14.1 42.6 13C42.6 12.3 42.3 11.4 41.6 10.3C41.9 9.3 42.2 8.2 42.4 7.3H40.9V17.6H40.1V6.5H42.6L42.8 6.60001ZM45.2 12.2V15.3C45.6 16.2 46.5 16.7 47.6 16.7C47.9 16.7 48.3 16.7 48.7 16.7C49.6 16.7 50.8 16.7 51.5 16.6C51.4 16.8 51.3 17.1 51.3 17.4C50.7 17.4 49.7 17.4 48.8 17.4C47.2 17.4 45.9 17.4 44.9 15.9C44.4 16.4 43.8 17 43.4 17.4C43.4 17.5 43.4 17.6 43.3 17.6L42.8 16.8C43.3 16.4 43.9 15.9 44.5 15.3V12.9H43.3V12.2H45.2ZM44.4 11.2C44.2 10.7 43.6 10 43.1 9.60001L43.7 9.2C44.2 9.7 44.8 10.3 45 10.8L44.4 11.2ZM44.2 6.40001C44.7 6.90001 45.2 7.6 45.3 8L44.7 8.40001C44.5 7.90001 44 7.2 43.6 6.7L44.2 6.40001ZM47.1 9.10001V8.7C46.7 9.5 46.2 10.1 45.7 10.6C45.6 10.5 45.3 10.3 45.1 10.1C45.8 9.50001 46.3 8.7 46.7 7.7H45.5V7.10001H46.9C47 6.70001 47.1 6.4 47.2 6L48.1 6.2C48.1 6.3 48 6.3 47.8 6.3C47.7 6.6 47.7 6.80001 47.6 7.10001H51.1V7.7H47.4C47.3 8 47.2 8.2 47.1 8.5H50.5V9.10001H49V10H51.1V10.6H46.3V10H48.3V9.10001H47.1ZM50.5 11.3V15.3C50.5 16.1 50.1 16.1 48.8 16.1C48.8 15.9 48.7 15.7 48.6 15.5C48.8 15.5 49 15.5 49.2 15.5C49.7 15.5 49.7 15.5 49.7 15.3V14.5H47V16.1H46.3V11.3H50.5ZM49.8 11.9H47.1V12.6H49.8V11.9ZM47.1 13.9H49.8V13.2H47.1V13.9Z" fill="white"/>
<path d="M11.3726 14.3343C10.7002 14.3343 10.1959 14.0751 9.69158 13.6431C9.35537 13.3839 9.18726 12.9519 9.01916 12.6063C9.35537 12.6927 9.77563 12.6927 10.1118 12.5199C9.52347 12.3471 9.01915 12.0879 8.68294 11.5695C8.34674 11.0511 8.09459 10.5327 8.09459 9.92788C8.43079 10.1007 8.85105 10.2735 9.18726 10.2735C8.5989 9.8415 8.17864 9.23673 8.09459 8.45913C8.01053 7.85434 8.17864 7.3359 8.4308 6.9039C9.77563 8.54549 11.5407 9.40952 13.5579 9.58232C13.5579 9.49592 13.558 9.40953 13.4739 9.32313C13.3899 8.89113 13.4739 8.45913 13.642 8.02714C13.9782 7.24954 14.5666 6.6447 15.4071 6.47191C16.3317 6.29911 17.0881 6.55835 17.7605 7.16314C17.7605 7.16314 17.7605 7.16314 17.8446 7.16314C18.3489 7.07674 18.8532 6.81753 19.3575 6.55834C19.3575 6.64474 19.1054 7.1631 18.9373 7.3359C18.7692 7.5951 18.517 7.76791 18.2648 7.94071C18.7692 7.85431 19.1894 7.76791 19.6937 7.50871C19.6937 7.50871 19.6937 7.50874 19.6937 7.59514C19.6937 7.59514 19.6937 7.59512 19.6937 7.68152C19.4416 8.02712 19.1054 8.37272 18.7692 8.71832C18.6851 8.80472 18.6011 8.89113 18.517 8.89113C18.517 8.89113 18.517 8.89111 18.517 8.97751C18.517 9.40951 18.517 9.84152 18.4329 10.1871C18.3489 10.8783 18.1808 11.5695 17.8446 12.2607C17.5924 12.8655 17.1722 13.4703 16.7519 14.0751C16.1636 14.7663 15.5752 15.2847 14.7347 15.7167C14.1463 16.0623 13.4739 16.3214 12.8015 16.4078C12.2131 16.4942 11.6248 16.5806 10.9524 16.5806C10.1118 16.5806 9.27131 16.3214 8.51484 15.9758C8.17864 15.803 7.84243 15.6303 7.50623 15.4575C9.10321 15.5439 10.2799 15.1983 11.3726 14.3343Z" fill="white"/>
</g>
</svg>
