<svg width="73" height="23" viewBox="0 0 73 23" fill="none" xmlns="http://www.w3.org/2000/svg">
<mask id="mask0" mask-type="alpha" maskUnits="userSpaceOnUse" x="0" y="0" width="73" height="23">
<path d="M69.1 0H3.79999C1.69999 0 0 1.70002 0 3.80002V19.2C0 21.3 1.69999 23 3.79999 23H69.1C71.2 23 72.9 21.3 72.9 19.2V3.80002C72.9 1.70002 71.2 0 69.1 0Z" fill="#50ABF1"/>
</mask>
<g mask="url(#mask0)">
<rect width="73" height="23" fill="#0274B3"/>
<rect width="73" height="23" fill="#50ABF1"/>
<path d="M27.6 15V6H33.7V7.5H29.4V9.60001H33.1V11.1H29.4V14.9H27.6V15Z" fill="white"/>
<path d="M34.8 11.7C34.8 11.1 34.9 10.6 35.2 10C35.5 9.5 35.9 9.09999 36.4 8.79999C36.9 8.49999 37.5 8.39999 38.1 8.39999C39.1 8.39999 39.9 8.69999 40.5 9.39999C41.1 10.1 41.4 10.8 41.4 11.8C41.4 12.8 41.1 13.6 40.5 14.2C39.9 14.8 39.1 15.2 38.1 15.2C37.5 15.2 36.9 15.1 36.4 14.8C35.9 14.5 35.4 14.1 35.2 13.6C35 13.1 34.8 12.4 34.8 11.7ZM36.6 11.8C36.6 12.4 36.8 12.9 37.1 13.3C37.4 13.6 37.8 13.8 38.2 13.8C38.6 13.8 39 13.6 39.3 13.3C39.6 13 39.8 12.5 39.8 11.8C39.8 11.2 39.6 10.7 39.3 10.3C39 9.99999 38.6 9.79999 38.2 9.79999C37.8 9.79999 37.4 9.99999 37.1 10.3C36.8 10.6 36.6 11.1 36.6 11.8Z" fill="white"/>
<path d="M42.9 15V6H44.6V15H42.9Z" fill="white"/>
<path d="M46.2 15.5L48.2 15.7C48.2 15.9 48.3 16.1 48.4 16.2C48.6 16.3 48.8 16.4 49.2 16.4C49.6 16.4 50 16.3 50.2 16.2C50.4 16.1 50.5 16 50.5 15.8C50.6 15.7 50.6 15.4 50.6 15V14C50.1 14.7 49.4 15.1 48.7 15.1C47.8 15.1 47.1 14.7 46.6 14C46.2 13.4 46 12.7 46 11.8C46 10.7 46.3 9.89999 46.8 9.29999C47.3 8.69999 48 8.39999 48.8 8.39999C49.6 8.39999 50.3 8.8 50.8 9.5V8.60001H52.4V14.4C52.4 15.2 52.3 15.7 52.2 16.1C52.1 16.5 51.9 16.8 51.7 17C51.5 17.2 51.2 17.4 50.8 17.5C50.4 17.6 49.9 17.7 49.4 17.7C48.3 17.7 47.5 17.5 47.1 17.1C46.6 16.7 46.4 16.2 46.4 15.7C46.2 15.6 46.2 15.5 46.2 15.5ZM47.7 11.6C47.7 12.3 47.8 12.8 48.1 13.1C48.4 13.4 48.7 13.6 49.1 13.6C49.5 13.6 49.9 13.4 50.2 13.1C50.5 12.8 50.6 12.3 50.6 11.6C50.6 10.9 50.5 10.4 50.2 10.1C49.9 9.80001 49.6 9.60001 49.1 9.60001C48.7 9.60001 48.3 9.80001 48.1 10.1C47.9 10.5 47.7 11 47.7 11.6Z" fill="white"/>
<path d="M57.8 13L59.5 13.3C59.3 13.9 58.9 14.4 58.5 14.7C58 15 57.4 15.2 56.7 15.2C55.6 15.2 54.7 14.8 54.2 14.1C53.8 13.5 53.6 12.8 53.6 11.9C53.6 10.8 53.9 9.99999 54.4 9.39999C55 8.79999 55.7 8.5 56.5 8.5C57.5 8.5 58.2 8.8 58.8 9.5C59.4 10.1 59.6 11.1 59.6 12.4H55.3C55.3 12.9 55.5 13.3 55.7 13.6C55.9 13.9 56.3 14 56.7 14C57 14 57.2 13.9 57.4 13.8C57.5 13.5 57.7 13.3 57.8 13ZM57.9 11.2C57.9 10.7 57.8 10.3 57.5 10.1C57.3 9.80001 57 9.70001 56.6 9.70001C56.2 9.70001 55.9 9.80001 55.7 10.1C55.5 10.4 55.3 10.7 55.3 11.2H57.9Z" fill="white"/>
<path d="M66.9 15H65.2V11.7C65.2 11 65.2001 10.5 65.1001 10.3C65.0001 10.1 64.9 9.89999 64.7 9.79999C64.5 9.69999 64.3001 9.60001 64.1001 9.60001C63.8001 9.60001 63.5 9.69999 63.3 9.79999C63.1 9.89999 62.9 10.2 62.8 10.4C62.7 10.7 62.7 11.2 62.7 11.9V14.8H61V8.29999H62.6001V9.29999C63.2001 8.59999 63.9 8.20001 64.7 8.20001C65.1 8.20001 65.4 8.29999 65.7 8.39999C66 8.49999 66.3 8.69999 66.4 8.89999C66.5 9.09999 66.7 9.40001 66.7 9.60001C66.8 9.90001 66.8 10.3 66.8 10.8V15H66.9Z" fill="white"/>
<path d="M11.3726 14.3343C10.7002 14.3343 10.1959 14.0751 9.69158 13.6431C9.35537 13.3839 9.18726 12.9519 9.01916 12.6063C9.35537 12.6927 9.77563 12.6927 10.1118 12.5199C9.52347 12.3471 9.01915 12.0879 8.68294 11.5695C8.34674 11.0511 8.09459 10.5327 8.09459 9.92788C8.43079 10.1007 8.85105 10.2735 9.18726 10.2735C8.5989 9.8415 8.17864 9.23673 8.09459 8.45913C8.01053 7.85434 8.17864 7.3359 8.4308 6.9039C9.77563 8.54549 11.5407 9.40952 13.5579 9.58232C13.5579 9.49592 13.558 9.40953 13.4739 9.32313C13.3899 8.89113 13.4739 8.45913 13.642 8.02714C13.9782 7.24954 14.5666 6.6447 15.4071 6.47191C16.3317 6.29911 17.0881 6.55835 17.7605 7.16314C17.7605 7.16314 17.7605 7.16314 17.8446 7.16314C18.3489 7.07674 18.8532 6.81753 19.3575 6.55834C19.3575 6.64474 19.1054 7.1631 18.9373 7.3359C18.7692 7.5951 18.517 7.76791 18.2648 7.94071C18.7692 7.85431 19.1894 7.76791 19.6937 7.50871C19.6937 7.50871 19.6937 7.50874 19.6937 7.59514C19.6937 7.59514 19.6937 7.59512 19.6937 7.68152C19.4416 8.02712 19.1054 8.37272 18.7692 8.71832C18.6851 8.80472 18.6011 8.89113 18.517 8.89113C18.517 8.89113 18.517 8.89111 18.517 8.97751C18.517 9.40951 18.517 9.84152 18.4329 10.1871C18.3489 10.8783 18.1808 11.5695 17.8446 12.2607C17.5924 12.8655 17.1722 13.4703 16.7519 14.0751C16.1636 14.7663 15.5752 15.2847 14.7347 15.7167C14.1463 16.0623 13.4739 16.3214 12.8015 16.4078C12.2131 16.4942 11.6248 16.5806 10.9524 16.5806C10.1118 16.5806 9.27131 16.3214 8.51484 15.9758C8.17864 15.803 7.84243 15.6303 7.50623 15.4575C9.10321 15.5439 10.2799 15.1983 11.3726 14.3343Z" fill="white"/>
</g>
</svg>
