<svg width="93" height="23" viewBox="0 0 93 23" fill="none" xmlns="http://www.w3.org/2000/svg">
<mask id="mask0" mask-type="alpha" maskUnits="userSpaceOnUse" x="0" y="0" width="93" height="23">
<path d="M89.1 0H3.79999C1.69999 0 0 1.69999 0 3.79999V19.2C0 21.3 1.69999 23 3.79999 23H89.1C91.2 23 92.9 21.3 92.9 19.2V3.79999C92.9 1.69999 91.2 0 89.1 0Z" fill="#50ABF1"/>
</mask>
<g mask="url(#mask0)">
<rect width="93" height="23" fill="#0274B3"/>
<rect width="93" height="23" fill="#50ABF1"/>
<path d="M32.5 9.60001H34C33.8 10.1 33.6 10.7 33.4 11.4C33.2 12.1 33.2 12.7 33.2 12.9C33.2 13.3 33.3 13.8 33.4 14.4C33.5 15 33.7 15.6 33.9 16.1H32.5C32.5 16 32.4 15.9 32.4 15.8C32.3 15.6 32.2 15.3 32.2 15.1C31.7 15.9 31 16.3 30.1 16.3C29.2 16.3 28.5 15.9 28 15.2C27.5 14.5 27.2 13.7 27.2 12.7C27.2 11.8 27.5 11 28 10.4C28.5 9.79999 29.2 9.5 30.1 9.5C31 9.5 31.7 9.89999 32.2 10.8C32.2 10.4 32.3 10 32.5 9.60001ZM28.9 12.9C28.9 13.5 29 14 29.3 14.4C29.6 14.8 29.9 15 30.3 15C30.7 15 31 14.8 31.3 14.5C31.6 14.2 31.7 13.7 31.7 13C31.7 12.3 31.6 11.8 31.3 11.5C31 11.2 30.7 11 30.3 11C29.9 11 29.6 11.2 29.3 11.5C29.1 11.7 28.9 12.2 28.9 12.9Z" fill="white"/>
<path d="M35.3 9.60001H37V11.8L39 9.60001H41.1L38.5 12.4L41.3 16.1H39.3L37.4 13.5L37 13.9V16.1H35.3V9.60001Z" fill="white"/>
<path d="M41.5 12.8C41.5 12.2 41.6 11.7 41.9 11.1C42.2 10.6 42.6 10.2 43.1 9.89999C43.6 9.59999 44.2 9.5 44.8 9.5C45.8 9.5 46.6 9.8 47.2 10.5C47.8 11.1 48.1 11.9 48.1 12.9C48.1 13.9 47.8 14.7 47.1 15.3C46.5 15.9 45.7 16.3 44.7 16.3C44.1 16.3 43.5 16.2 43 15.9C42.5 15.6 42 15.2 41.8 14.7C41.6 14.2 41.5 13.5 41.5 12.8ZM43.2 12.8C43.2 13.4 43.4 13.9 43.7 14.3C44 14.6 44.4 14.8 44.8 14.8C45.2 14.8 45.6 14.6 45.9 14.3C46.2 14 46.4 13.5 46.4 12.8C46.4 12.2 46.2 11.7 45.9 11.3C45.6 11 45.2 10.8 44.8 10.8C44.4 10.8 44 11 43.7 11.3C43.4 11.7 43.2 12.2 43.2 12.8Z" fill="white"/>
<path d="M55.4 16.1H53.6L52.5 13.2C52.4 12.8 52.2 12.3 52 11.7C51.8 12.2 51.7 12.7 51.5 13.1L50.4 16.1H48.6L51.1 9.60001L50.2 7.10001H51.9L52.9 9.60001L55.4 16.1Z" fill="white"/>
<path d="M55.9 12.8C55.9 12.2 56 11.7 56.3 11.1C56.6 10.6 57 10.2 57.5 9.89999C58 9.59999 58.6 9.5 59.2 9.5C60.2 9.5 61 9.8 61.6 10.5C62.2 11.1 62.5 11.9 62.5 12.9C62.5 13.9 62.2 14.7 61.5 15.3C60.9 15.9 60.1 16.3 59.1 16.3C58.5 16.3 57.9 16.2 57.4 15.9C56.9 15.6 56.4 15.2 56.2 14.7C56 14.2 55.9 13.5 55.9 12.8ZM57.7 12.8C57.7 13.4 57.9 13.9 58.2 14.3C58.5 14.6 58.9 14.8 59.3 14.8C59.7 14.8 60.1 14.6 60.4 14.3C60.7 14 60.9 13.5 60.9 12.8C60.9 12.2 60.7 11.7 60.4 11.3C60.1 11 59.7 10.8 59.3 10.8C58.9 10.8 58.5 11 58.2 11.3C57.8 11.7 57.7 12.2 57.7 12.8Z" fill="white"/>
<path d="M63.8 9.60001H65.5V12.9C65.5 13.7 65.6 14.2 65.8 14.5C66 14.7 66.3 14.9 66.7 14.9C67.1 14.9 67.4 14.8 67.6 14.5C67.8 14.2 67.9 13.7 67.9 13V9.69998H69.6V12.7C69.6 13.6 69.5 14.2 69.3 14.7C69.1 15.2 68.8 15.6 68.3 15.8C67.8 16.1 67.3 16.2 66.7 16.2C66 16.2 65.5 16.1 65 15.8C64.5 15.5 64.2 15.1 64 14.6C63.8 14.1 63.7 13.5 63.7 12.6V9.60001H63.8Z" fill="white"/>
<path d="M73.7 7C75.6 7 76.6 8.50001 76.6 11.6C76.6 14.7 75.6 16.2 73.7 16.2C72.8 16.2 72.1 15.9 71.6 15.2C71.1 14.5 70.8 13.3 70.8 11.6C70.8 8.50001 71.8 7 73.7 7ZM74.9 10.9C74.9 9.89999 74.8 9.19999 74.6 8.89999C74.4 8.59999 74.1 8.39999 73.8 8.39999C73.5 8.39999 73.2 8.59999 73 8.89999C72.8 9.19999 72.7 9.89999 72.7 10.9H74.9ZM74.9 12.3H72.6C72.6 13.3 72.7 14 72.9 14.3C73.1 14.6 73.4 14.8 73.7 14.8C74 14.8 74.3 14.6 74.5 14.3C74.7 14 74.8 13.3 74.9 12.3Z" fill="white"/>
<path d="M78.5 9.60001H80.1C79.6 10.7 79.3 11.9 79.3 13C79.3 13.7 79.4 14.1 79.7 14.4C80 14.7 80.2 14.8 80.5 14.8C80.7 14.8 80.9 14.7 81.1 14.6C81.3 14.5 81.4 14.3 81.4 14.1C81.4 13.9 81.5 13.6 81.5 13.2V11.2H83.2V13.2C83.2 13.6 83.2 13.9 83.3 14.1C83.4 14.3 83.5 14.5 83.6 14.6C83.8 14.7 84 14.8 84.2 14.8C84.5 14.8 84.8 14.7 85.1 14.4C85.3 14.1 85.4 13.6 85.4 12.9C85.4 12.4 85.3 11.9 85.2 11.3C85.1 10.7 84.9 10.1 84.6 9.60001H86.2C86.4 10 86.6 10.5 86.8 11.2C87 11.9 87.1 12.5 87.1 13C87.1 14 86.8 14.7 86.3 15.3C85.8 15.9 85.1 16.2 84.3 16.2C83.3 16.2 82.6 15.7 82.2 14.8C81.8 15.7 81.1 16.2 80.1 16.2C79.3 16.2 78.6 15.9 78.1 15.3C77.6 14.7 77.3 13.9 77.3 13C77.3 12.4 77.4 11.8 77.6 11.2C78.1 10.5 78.3 10 78.5 9.60001Z" fill="white"/>
<path d="M11.3726 14.3343C10.7002 14.3343 10.1959 14.0751 9.69158 13.6431C9.35537 13.3839 9.18726 12.9519 9.01916 12.6063C9.35537 12.6927 9.77563 12.6927 10.1118 12.5199C9.52347 12.3471 9.01915 12.0879 8.68294 11.5695C8.34674 11.0511 8.09459 10.5327 8.09459 9.92788C8.43079 10.1007 8.85105 10.2735 9.18726 10.2735C8.5989 9.8415 8.17864 9.23673 8.09459 8.45913C8.01053 7.85434 8.17864 7.3359 8.4308 6.9039C9.77563 8.54549 11.5407 9.40952 13.5579 9.58232C13.5579 9.49592 13.558 9.40953 13.4739 9.32313C13.3899 8.89113 13.4739 8.45913 13.642 8.02714C13.9782 7.24954 14.5666 6.6447 15.4071 6.47191C16.3317 6.29911 17.0881 6.55835 17.7605 7.16314C17.7605 7.16314 17.7605 7.16314 17.8446 7.16314C18.3489 7.07674 18.8532 6.81753 19.3575 6.55834C19.3575 6.64474 19.1054 7.1631 18.9373 7.3359C18.7692 7.5951 18.517 7.76791 18.2648 7.94071C18.7692 7.85431 19.1894 7.76791 19.6937 7.50871C19.6937 7.50871 19.6937 7.50874 19.6937 7.59514C19.6937 7.59514 19.6937 7.59512 19.6937 7.68152C19.4416 8.02712 19.1054 8.37272 18.7692 8.71832C18.6851 8.80472 18.6011 8.89113 18.517 8.89113C18.517 8.89113 18.517 8.89111 18.517 8.97751C18.517 9.40951 18.517 9.84152 18.4329 10.1871C18.3489 10.8783 18.1808 11.5695 17.8446 12.2607C17.5924 12.8655 17.1722 13.4703 16.7519 14.0751C16.1636 14.7663 15.5752 15.2847 14.7347 15.7167C14.1463 16.0623 13.4739 16.3214 12.8015 16.4078C12.2131 16.4942 11.6248 16.5806 10.9524 16.5806C10.1118 16.5806 9.27131 16.3214 8.51484 15.9758C8.17864 15.803 7.84243 15.6303 7.50623 15.4575C9.10321 15.5439 10.2799 15.1983 11.3726 14.3343Z" fill="white"/>
</g>
</svg>
