<svg width="93" height="23" viewBox="0 0 93 23" fill="none" xmlns="http://www.w3.org/2000/svg">
<mask id="mask0" mask-type="alpha" maskUnits="userSpaceOnUse" x="0" y="0" width="93" height="23">
<path d="M89.1 0H3.79999C1.69999 0 0 1.69999 0 3.79999V19.2C0 21.3 1.69999 23 3.79999 23H89.1C91.2 23 92.9 21.3 92.9 19.2V3.79999C92.9 1.69999 91.2 0 89.1 0Z" fill="#50ABF1"/>
</mask>
<g mask="url(#mask0)">
<rect width="93" height="23" fill="#0274B3"/>
<rect width="93" height="23" fill="#50ABF1"/>
<path d="M33.9 12.1C33.9 12.3 33.9 12.5 33.8 12.7C33.8 12.8 33.7 13 33.5 13.3C33.4 13 33.3 12.8 33.2 12.7C33.1 12.6 33 12.6 32.9 12.6C32.7 12.6 32.4 12.7 32 13C31.6 13.3 31.4 13.5 31.4 13.6C31.4 13.7 31.5 13.8 31.6 13.8C31.7 13.8 31.9 13.8 32.1 13.8C32.2 13.8 32.2 13.8 32.3 13.8C32.4 13.8 32.4 13.8 32.5 13.8C32.9 13.8 33.2 13.8 33.4 13.9C33.5 14 33.6 14.1 33.6 14.4C33.6 14.8 33.5 15.3 33.4 15.7C33.2 16.2 32.9 16.6 32.5 16.8C32 17.1 31.5 17.3 31 17.5C30.5 17.7 30 17.8 29.5 17.8C28.2 17.8 27.6 17.2 27.6 16.1C27.6 15.5 27.7 15 27.8 14.6C28 14.1 28.3 13.5 28.8 12.7L29.1 12.9C28.8 13.4 28.6 13.9 28.4 14.3C28.2 14.7 28.2 15 28.2 15.3C28.2 16.1 28.6 16.5 29.5 16.5C29.8 16.5 30.1 16.5 30.4 16.4C30.7 16.3 31 16.3 31.3 16.2C31.5 16.1 31.7 16 32 15.9C32.4 15.7 32.6 15.6 32.6 15.6C32.8 15.5 32.9 15.4 32.9 15.3C32.9 15.3 32.8 15.2 32.6 15.2C32.4 15.2 32.3 15.2 32.2 15.2C31.6 15.2 31.2 15.1 30.9 14.9C30.7 14.8 30.6 14.5 30.6 14.1C30.6 13.9 30.7 13.7 30.8 13.4C30.9 13.1 31.1 12.8 31.3 12.6C31.6 12.2 31.9 11.8 32.2 11.6C32.5 11.4 32.8 11.3 33.1 11.3C33.3 11.3 33.5 11.4 33.7 11.6C33.9 11.8 33.9 11.7 33.9 12.1Z" fill="white"/>
<path d="M40.2 15.2C40.2 15.4 40.1 15.8 39.8 16.2C39.5 16.6 39.2 17 38.8 17.3C38.4 17.6 38 17.8 37.7 17.8C37.3 17.8 37 17.7 36.5 17.5C36.1 17.3 35.6 17 34.8 16.4L35.1 16C35.5 16.2 35.8 16.4 36 16.5C36.2 16.6 36.5 16.6 36.7 16.6C37 16.6 37.3 16.5 37.5 16.4C37.7 16.3 38.2 15.9 38.6 15.5C39.3 14.9 39.6 14.4 39.6 14.1C39.6 13.9 39.5 13.7 39.4 13.5C39.3 13.2 39.1 12.9 38.9 12.7L39.2 11.1C39.5 11.4 39.7 11.7 39.8 12.1C40 12.5 40 12.9 40 13.4V15.2H40.2Z" fill="white"/>
<path d="M42.4 13.3C42.4 13.7 42.4 14 42.3 14.3C42.2 14.6 42 15 41.8 15.5L41.4 15.4C41.5 14.9 41.5 14.5 41.5 14.1C41.5 13.9 41.5 13.5 41.4 13C41.4 12.5 41.3 12 41.2 11.6C41.1 11.1 41 10.6 40.9 9.90002C40.9 9.70002 40.8 9.50002 40.8 9.40002C40.8 9.30002 40.9 9.10005 41 8.80005C41.1 8.50005 41.3 8.10001 41.5 7.70001L41.9 9.90002C42 10.7 42.1 11.4 42.2 12C42.4 12.4 42.4 12.8 42.4 13.3Z" fill="white"/>
<path d="M47.2 15H44.4C44.1 15 43.9 14.9 43.8 14.8C43.6 14.7 43.5 14.4 43.5 14.1C43.5 13.9 43.5 13.7 43.5 13.5C43.5 13.3 43.5 13.1 43.6 12.9H43.8C43.8 13 43.9 13.1 44 13.2C44.1 13.3 44.2 13.3 44.4 13.3H46.5C46.4 12.7 46.2 12.2 46 11.9C45.8 11.6 45.5 11.3 45.2 11.1L45.6 9.20001C46.1 9.60001 46.5 10.1 46.7 10.7C46.9 11.3 47 12 47 13V15H47.2ZM46.1 7L45.4 8.40002L44 7.70001L44.7 6.30005L46.1 7Z" fill="white"/>
<path d="M51.7 15H46.8V13.4H50.8C50.6 13.2 50.5 13 50.3 12.9C50.2 12.8 50 12.6 49.8 12.5C49.6 12.3 49.3 12.1 49.1 12L48.9 12.2C48.5 11.8 48.3 11.6 48.3 11.5C48.1 11.3 48 11 48 10.7C48 10.3 48 10 48.1 9.80005C48.2 9.60005 48.4 9.40001 48.6 9.20001C48.8 9.00001 49.1 8.90005 49.4 8.80005C49.6 8.70005 49.9 8.60002 50.2 8.40002C50.4 8.30002 50.7 8.2 51.2 8V9.5C51.2 9.5 51 9.60001 50.7 9.70001C50.3 9.80001 50 9.9 49.7 10C49.4 10.1 49.2 10.2 49.2 10.3C49.2 10.3 49.3 10.5 49.6 10.8C50 11.2 50.3 11.5 50.6 11.9C51 12.4 51.4 12.9 51.7 13.5V15V15ZM51.2 6V7.40002C50.3 7.70002 49.6 8.00005 48.9 8.30005C48.3 8.60005 47.8 8.80004 47.5 9.10004V8.20001C47.6 8.10001 47.9 7.90004 48.2 7.60004C48.6 7.30004 49 7.10005 49.5 6.80005C50.1 6.50005 50.6 6.2 51.2 6Z" fill="white"/>
<path d="M57.8 15C56.9 15 56.3 14.8 55.9 14.5C55.6 14.2 55.4 13.8 55.4 13.2C55.4 12.8 55.5 12.4 55.6 12.1C55.7 11.7 55.9 11.3 56.2 10.8L56.6 11.1C56.4 11.4 56.3 11.6 56.3 11.8C56.3 12 56.2 12.1 56.2 12.3C56.2 12.7 56.3 13 56.6 13.1C56.9 13.2 57.4 13.3 58.3 13.3H63.7C63.5 13.1 63.4 12.9 63.2 12.8C63.1 12.7 62.9 12.5 62.7 12.4C62.5 12.2 62.2 12 62 11.9L61.8 12.1C61.4 11.7 61.2 11.5 61.2 11.4C61 11.2 60.9 10.9 60.9 10.6C60.9 10.2 60.9 9.90001 61 9.70001C61.1 9.50001 61.3 9.30004 61.5 9.10004C61.7 8.90004 62 8.80001 62.3 8.70001C62.5 8.60001 62.8001 8.50005 63.1001 8.30005C63.3001 8.20005 63.6001 8.10002 64.1001 7.90002V9.40002C64.1001 9.40002 63.9001 9.50004 63.6001 9.60004C63.2001 9.70004 62.9001 9.80002 62.6001 9.90002C62.3001 10 62.1001 10.1 62.1001 10.2C62.1001 10.2 62.2 10.4 62.5 10.7C62.9 11.1 63.2 11.4 63.5 11.8C63.9 12.3 64.3001 12.8 64.6001 13.4V15.1H57.8V15Z" fill="white"/>
<path d="M66.9 13.3C66.9 13.7 66.9 14 66.8 14.3C66.7 14.6 66.5 15 66.3 15.5L65.9 15.4C66 14.9 66 14.5 66 14.1C66 13.9 66 13.5 65.9 13C65.9 12.5 65.8 12 65.7 11.6C65.6 11.2 65.5 10.6 65.4 9.90002C65.4 9.70002 65.3 9.50002 65.3 9.40002C65.3 9.30002 65.4 9.10005 65.5 8.80005C65.6 8.50005 65.8 8.10001 66 7.70001L66.4 9.90002C66.5 10.7 66.6 11.4 66.7 12C66.9 12.4 66.9 12.8 66.9 13.3Z" fill="white"/>
<path d="M72.8 15.2C72.8 15.4 72.7 15.8 72.4 16.2C72.1 16.6 71.8 17 71.4 17.3C71 17.6 70.6 17.8 70.3 17.8C69.9 17.8 69.6001 17.7 69.1001 17.5C68.7001 17.3 68.2 17 67.4 16.4L67.7 16C68.1 16.2 68.4001 16.4 68.6001 16.5C68.8001 16.6 69.1 16.6 69.3 16.6C69.6 16.6 69.9001 16.5 70.1001 16.4C70.4001 16.2 70.8 15.9 71.2 15.5C71.9 14.9 72.2 14.4 72.2 14.1C72.2 13.9 72.1 13.7 72 13.5C71.9 13.2 71.7 12.9 71.5 12.7L71.8 11.1C72.1 11.4 72.3 11.7 72.4 12.1C72.6 12.5 72.6001 12.9 72.6001 13.4V15.2H72.8Z" fill="white"/>
<path d="M76.2 15H72.4V13.4H75.6001C75.6001 13.1 75.5 12.9 75.4 12.7C75.3 12.6 75.2 12.4 75 12.2L75.5 10.7C75.8 11 76.0001 11.4 76.1001 11.8C76.2001 12.2 76.3 12.7 76.3 13.5V15H76.2ZM76.1001 8.5L75.5 9.70001L74.6001 9.20001L74.1001 10.2L73 9.60004L73.7 8.40002L74.6001 8.90002L75.1001 7.90002L76.1001 8.5Z" fill="white"/>
<path d="M83.8 15C83.3 15 83 15 82.7 14.9C82.4 14.8 82.1 14.7 81.8 14.6C81.6 14.8 81.4 14.9 81.2 14.9C81 14.9 80.7 15 80.4 15H79.4C79.1 15 78.9 14.9 78.8 14.8C78.7 14.7 78.5 14.4 78.4 14.1C78.2 14.4 77.9001 14.7 77.6001 14.8C77.4001 14.9 77.1 15 76.8 15H75.9V13.4H76.8C77.2 13.4 77.6 13.3 77.9 13C78.3 12.7 78.5 12.2 78.5 11.6L78.9 11.7C78.9 11.8 78.9 12 78.9 12.1C78.9 12.3 78.9 12.5 78.9 12.7C78.9 12.9 79.0001 13.1 79.1001 13.2C79.2001 13.3 79.4001 13.4 79.6001 13.4H80.4C80.9 13.4 81.3 13.3 81.5 13.2C81.8 13 81.9 12.7 81.9 12.3C81.9 12.2 81.9 12.1 82 12C82 12 82.1 11.9 82.2 11.8L82.4 11.6C82.4 11.7 82.4 11.8 82.4 11.9C82.4 12 82.4 12.1 82.4 12.2C82.4 12.4 82.4 12.7 82.3 13.1C82.5 13.2 82.6 13.2 82.8 13.3C83 13.4 83.2 13.4 83.4 13.4C83.4 13.3 83.3 13.1 83.2 12.9C83.1 12.7 83 12.5 83 12.5C83 12.4 83 12.3 83 12.3C83 12.3 83.1001 12.2 83.1001 12.1L83.6001 11.4C83.7001 11.7 83.8 11.9 83.8 12.1C83.8 12.3 83.9 12.6 83.9 12.9V15H83.8ZM83.1001 9.20001L82.4 10.4L81.5 9.90002L81 10.9L79.9 10.3L80.5 9.10004L81.4 9.60004L81.9 8.60004L83.1001 9.20001ZM81.9 7.70001L81.3 9L80.2 8.40002L80.8 7.20001L81.9 7.70001Z" fill="white"/>
<path d="M86.1001 13.3C86.1001 13.7 86.1 14 86 14.3C85.9 14.6 85.7 15 85.5 15.5L85.1001 15.4C85.2001 14.9 85.2 14.5 85.2 14.1C85.2 13.9 85.2001 13.5 85.1001 13C85.1001 12.5 85 12 84.9 11.6C84.8 11.2 84.7001 10.6 84.6001 9.90002C84.6001 9.70002 84.5 9.50002 84.5 9.40002C84.5 9.30002 84.6 9.10005 84.7 8.80005C84.8 8.50005 85 8.10001 85.2 7.70001L85.6001 9.90002C85.7001 10.7 85.8 11.4 85.9 12C86 12.4 86.1001 12.8 86.1001 13.3Z" fill="white"/>
<path d="M11.3726 14.3343C10.7002 14.3343 10.1959 14.0751 9.69158 13.6431C9.35537 13.3839 9.18726 12.9519 9.01916 12.6063C9.35537 12.6927 9.77563 12.6927 10.1118 12.5199C9.52347 12.3471 9.01915 12.0879 8.68294 11.5695C8.34674 11.0511 8.09459 10.5327 8.09459 9.92788C8.43079 10.1007 8.85105 10.2735 9.18726 10.2735C8.5989 9.8415 8.17864 9.23673 8.09459 8.45913C8.01053 7.85434 8.17864 7.3359 8.4308 6.9039C9.77563 8.54549 11.5407 9.40952 13.5579 9.58232C13.5579 9.49592 13.558 9.40953 13.4739 9.32313C13.3899 8.89113 13.4739 8.45913 13.642 8.02714C13.9782 7.24954 14.5666 6.6447 15.4071 6.47191C16.3317 6.29911 17.0881 6.55835 17.7605 7.16314C17.7605 7.16314 17.7605 7.16314 17.8446 7.16314C18.3489 7.07674 18.8532 6.81753 19.3575 6.55834C19.3575 6.64474 19.1054 7.1631 18.9373 7.3359C18.7692 7.5951 18.517 7.76791 18.2648 7.94071C18.7692 7.85431 19.1894 7.76791 19.6937 7.50871C19.6937 7.50871 19.6937 7.50874 19.6937 7.59514C19.6937 7.59514 19.6937 7.59512 19.6937 7.68152C19.4416 8.02712 19.1054 8.37272 18.7692 8.71832C18.6851 8.80472 18.6011 8.89113 18.517 8.89113C18.517 8.89113 18.517 8.89111 18.517 8.97751C18.517 9.40951 18.517 9.84152 18.4329 10.1871C18.3489 10.8783 18.1808 11.5695 17.8446 12.2607C17.5924 12.8655 17.1722 13.4703 16.7519 14.0751C16.1636 14.7663 15.5752 15.2847 14.7347 15.7167C14.1463 16.0623 13.4739 16.3214 12.8015 16.4078C12.2131 16.4942 11.6248 16.5806 10.9524 16.5806C10.1118 16.5806 9.27131 16.3214 8.51484 15.9758C8.17864 15.803 7.84243 15.6303 7.50623 15.4575C9.10321 15.5439 10.2799 15.1983 11.3726 14.3343Z" fill="white"/>
</g>
</svg>
