<svg width="71" height="23" viewBox="0 0 71 23" fill="none" xmlns="http://www.w3.org/2000/svg">
<mask id="mask0" mask-type="alpha" maskUnits="userSpaceOnUse" x="0" y="0" width="71" height="23">
<path d="M67.1 0H3.79999C1.69999 0 0 1.69999 0 3.79999V19.2C0 21.3 1.69999 23 3.79999 23H67.1C69.2 23 70.9 21.3 70.9 19.2V3.79999C70.9 1.69999 69.2 0 67.1 0Z" fill="#50ABF1"/>
</mask>
<g mask="url(#mask0)">
<rect width="73" height="23" fill="#0274B3"/>
<rect width="73" height="23" fill="#50ABF1"/>
<path d="M27.1 13.3L28.9 13.1C29 13.7 29.2 14.1 29.5 14.4C29.8 14.7 30.3 14.8 30.8 14.8C31.4 14.8 31.8 14.7 32.1 14.4C32.4 14.2 32.5 13.9 32.5 13.5C32.5 13.3 32.4 13.1 32.3 13C32.2 12.9 32 12.7 31.6 12.6C31.4 12.5 30.9 12.4 30.2 12.2C29.2 12 28.5 11.7 28.2 11.3C27.6 10.8 27.4 10.2 27.4 9.5C27.4 9 27.5 8.60001 27.8 8.20001C28.1 7.80001 28.4 7.49999 28.9 7.29999C29.4 7.09999 30 7 30.7 7C31.8 7 32.7 7.20001 33.2 7.70001C33.7 8.20001 34.1 8.90001 34.1 9.70001L32.3 9.79999C32.2 9.29999 32.1 8.99999 31.8 8.79999C31.5 8.59999 31.2 8.5 30.7 8.5C30.2 8.5 29.8 8.59999 29.5 8.79999C29.3 8.89999 29.2 9.09999 29.2 9.39999C29.2 9.59999 29.3 9.79999 29.5 9.89999C29.7 10.1 30.3 10.3 31.2 10.5C32.1 10.7 32.7 10.9 33.2 11.1C33.6 11.3 34 11.6 34.2 12C34.4 12.4 34.6 12.9 34.6 13.4C34.6 13.9 34.5 14.4 34.2 14.8C33.9 15.2 33.5 15.6 33 15.8C32.5 16 31.8 16.1 31.1 16.1C30 16.1 29.1 15.8 28.5 15.3C27.6 15 27.3 14.3 27.1 13.3Z" fill="white"/>
<path d="M40.2 16.2V15.2C40 15.5 39.7 15.8 39.3 16C38.9 16.2 38.5 16.3 38.1 16.3C37.7 16.3 37.3 16.2 36.9 16C36.6 15.8 36.3 15.5 36.1 15.2C35.9 14.9 35.9 14.4 35.9 13.8V9.70001H37.6V12.7C37.6 13.6 37.6 14.2 37.7 14.4C37.8 14.6 37.9 14.8 38 14.9C38.1 15 38.4 15.1 38.6 15.1C38.9 15.1 39.2 15 39.4 14.9C39.6 14.7 39.8 14.5 39.9 14.3C40 14.1 40 13.5 40 12.5V9.79999H41.7V16.3H40.2V16.2Z" fill="white"/>
<path d="M43.6 8.79999V7.20001H45.3V8.79999H43.6ZM43.6 16.2V9.70001H45.3V16.2H43.6Z" fill="white"/>
<path d="M48.9 16.2L46.3 9.70001H48.1L49.3 13L49.7 14.1C49.8 13.8 49.9 13.6 49.9 13.5C50 13.3 50 13.1 50.1 12.9L51.3 9.60001H53.1L50.5 16.1H48.9V16.2Z" fill="white"/>
<path d="M55.7 16.2H54V9.70001H55.6V10.6C55.9 10.2 56.1 9.90001 56.3 9.70001C56.5 9.60001 56.8 9.5 57 9.5C57.4 9.5 57.8 9.59999 58.1 9.79999L57.6 11.3C57.3 11.1 57 11 56.8 11C56.6 11 56.4 11.1 56.2 11.2C56 11.3 55.9 11.6 55.8 11.9C55.7 12.2 55.7 13 55.7 14.1V16.2V16.2Z" fill="white"/>
<path d="M62.7 14.1L64.4 14.4C64.2 15 63.8 15.5 63.4 15.8C62.9 16.1 62.3 16.3 61.6 16.3C60.5 16.3 59.6 15.9 59.1 15.2C58.7 14.6 58.5 13.9 58.5 13C58.5 11.9 58.8 11.1 59.3 10.5C59.9 9.9 60.6 9.60001 61.4 9.60001C62.4 9.60001 63.1 9.90001 63.7 10.6C64.3 11.2 64.5 12.2 64.5 13.5H60.2C60.2 14 60.4 14.4 60.6 14.7C60.8 15 61.2 15.1 61.6 15.1C61.9 15.1 62.1 15 62.3 14.9C62.4 14.7 62.6 14.4 62.7 14.1ZM62.8 12.4C62.8 11.9 62.7 11.5 62.4 11.3C62.2 11 61.9 10.9 61.5 10.9C61.1 10.9 60.8 11 60.6 11.3C60.4 11.6 60.2 11.9 60.2 12.4H62.8Z" fill="white"/>
<path d="M11.3726 14.3343C10.7002 14.3343 10.1959 14.0751 9.69158 13.6431C9.35537 13.3839 9.18726 12.9519 9.01916 12.6063C9.35537 12.6927 9.77563 12.6927 10.1118 12.5199C9.52347 12.3471 9.01915 12.0879 8.68294 11.5695C8.34674 11.0511 8.09459 10.5327 8.09459 9.92788C8.43079 10.1007 8.85105 10.2735 9.18726 10.2735C8.5989 9.8415 8.17864 9.23673 8.09459 8.45913C8.01053 7.85434 8.17864 7.3359 8.4308 6.9039C9.77563 8.54549 11.5407 9.40952 13.5579 9.58232C13.5579 9.49592 13.558 9.40953 13.4739 9.32313C13.3899 8.89113 13.4739 8.45913 13.642 8.02714C13.9782 7.24954 14.5666 6.6447 15.4071 6.47191C16.3317 6.29911 17.0881 6.55835 17.7605 7.16314C17.7605 7.16314 17.7605 7.16314 17.8446 7.16314C18.3489 7.07674 18.8532 6.81753 19.3575 6.55834C19.3575 6.64474 19.1054 7.1631 18.9373 7.3359C18.7692 7.5951 18.517 7.76791 18.2648 7.94071C18.7692 7.85431 19.1894 7.76791 19.6937 7.50871C19.6937 7.50871 19.6937 7.50874 19.6937 7.59514C19.6937 7.59514 19.6937 7.59512 19.6937 7.68152C19.4416 8.02712 19.1054 8.37272 18.7692 8.71832C18.6851 8.80472 18.6011 8.89113 18.517 8.89113C18.517 8.89113 18.517 8.89111 18.517 8.97751C18.517 9.40951 18.517 9.84152 18.4329 10.1871C18.3489 10.8783 18.1808 11.5695 17.8446 12.2607C17.5924 12.8655 17.1722 13.4703 16.7519 14.0751C16.1636 14.7663 15.5752 15.2847 14.7347 15.7167C14.1463 16.0623 13.4739 16.3214 12.8015 16.4078C12.2131 16.4942 11.6248 16.5806 10.9524 16.5806C10.1118 16.5806 9.27131 16.3214 8.51484 15.9758C8.17864 15.803 7.84243 15.6303 7.50623 15.4575C9.10321 15.5439 10.2799 15.1983 11.3726 14.3343Z" fill="white"/>
</g>
</svg>
