<svg width="57" height="23" viewBox="0 0 57 23" fill="none" xmlns="http://www.w3.org/2000/svg">
<mask id="mask0" mask-type="alpha" maskUnits="userSpaceOnUse" x="0" y="0" width="57" height="23">
<path d="M53.1 0H3.79999C1.69999 0 0 1.70002 0 3.80002V19.2C0 21.3 1.69999 23 3.79999 23H53.1C55.2 23 56.9 21.3 56.9 19.2V3.80002C56.9 1.70002 55.2 0 53.1 0Z" fill="#50ABF1"/>
</mask>
<g mask="url(#mask0)">
<rect width="57" height="23" fill="#0274B3"/>
<rect width="57" height="23" fill="#50ABF1"/>
<path d="M32.5 12.1H33.7V13.6H27.2V12.1H30.8V10.4C30.8 9.69999 30.6 9.19999 30.3 8.89999C30 8.59999 29.5 8.5 28.7 8.5C28.3 8.5 27.8 8.50001 27.2 8.60001L27.1 7.20001C27.7 7.10001 28.4 7 29 7C30.2 7 31.1 7.20001 31.6 7.70001C32.2 8.20001 32.4 9 32.4 10V12.1H32.5Z" fill="white"/>
<path d="M36.5 7.10001V13.6H34.7V7.10001H36.5Z" fill="white"/>
<path d="M38.1 8.60001V7.10001H43.8V8.80002C43.8 9.40002 43.8 9.90001 43.7 10.1C43.6 10.3 43.5 10.6 43.4 10.9L43.1 11.3C42.9 11.6 42.8 11.8 42.7 12C42.7 12.2 42.6 12.3 42.6 12.5V13.6H40.9V12.4C40.9 12.1 40.9 11.8 41 11.6C41.1 11.4 41.3 11.1 41.5 10.7L41.7 10.5C41.9 10.2 42 9.89999 42 9.39999V8.60001H38.1ZM38.1 16.1V10.2H39.8V16.1H38.1Z" fill="white"/>
<path d="M47.7 12.3C48.2 12.1 48.5 11.9 48.6 11.6C48.7 11.3 48.8 10.8 48.8 10.2L48.9 7.10001H50.6L50.5 9.39999C50.5 10.1 50.4 10.6 50.4 11C50.3 11.4 50.2 11.7 50.1 12.1C49.9 12.5 49.6 12.8 49.3 13.1C48.9 13.4 48.3 13.7 47.6 13.9C46.9 14.1 45.9 14.4 44.9 14.5L44.7 13.1C45.4 13 45.9 12.9 46.4 12.8L45.3 7.10001H47L47.7 12.3Z" fill="white"/>
<path d="M11.3726 14.3343C10.7002 14.3343 10.1959 14.0751 9.69158 13.6431C9.35537 13.3839 9.18726 12.9519 9.01916 12.6063C9.35537 12.6927 9.77563 12.6927 10.1118 12.5199C9.52347 12.3471 9.01915 12.0879 8.68294 11.5695C8.34674 11.0511 8.09459 10.5327 8.09459 9.92788C8.43079 10.1007 8.85105 10.2735 9.18726 10.2735C8.5989 9.8415 8.17864 9.23672 8.09459 8.45913C8.01053 7.85433 8.17864 7.3359 8.4308 6.9039C9.77563 8.54549 11.5407 9.40951 13.5579 9.58231C13.5579 9.49591 13.558 9.40952 13.4739 9.32312C13.3899 8.89113 13.4739 8.45913 13.642 8.02713C13.9782 7.24954 14.5666 6.6447 15.4071 6.4719C16.3317 6.2991 17.0881 6.55834 17.7605 7.16314C17.7605 7.16314 17.7605 7.16314 17.8446 7.16314C18.3489 7.07674 18.8532 6.81753 19.3575 6.55833C19.3575 6.64473 19.1054 7.1631 18.9373 7.3359C18.7692 7.59509 18.517 7.7679 18.2648 7.9407C18.7692 7.8543 19.1894 7.7679 19.6937 7.5087C19.6937 7.5087 19.6937 7.50874 19.6937 7.59514C19.6937 7.59514 19.6937 7.59511 19.6937 7.68151C19.4416 8.02711 19.1054 8.37272 18.7692 8.71832C18.6851 8.80472 18.6011 8.89113 18.517 8.89113C18.517 8.89113 18.517 8.89111 18.517 8.97751C18.517 9.4095 18.517 9.84152 18.4329 10.1871C18.3489 10.8783 18.1808 11.5695 17.8446 12.2607C17.5924 12.8655 17.1722 13.4703 16.7519 14.0751C16.1636 14.7663 15.5752 15.2847 14.7347 15.7166C14.1463 16.0622 13.4739 16.3214 12.8015 16.4078C12.2131 16.4942 11.6248 16.5806 10.9524 16.5806C10.1118 16.5806 9.27131 16.3214 8.51484 15.9758C8.17864 15.803 7.84243 15.6303 7.50623 15.4575C9.10321 15.5439 10.2799 15.1983 11.3726 14.3343Z" fill="white"/>
</g>
</svg>
