<svg width="67" height="23" viewBox="0 0 67 23" fill="none" xmlns="http://www.w3.org/2000/svg">
<mask id="mask0" mask-type="alpha" maskUnits="userSpaceOnUse" x="0" y="0" width="67" height="23">
<path d="M63.1 0H3.79999C1.69999 0 0 1.69999 0 3.79999V19.2C0 21.3 1.69999 23 3.79999 23H63.1C65.2 23 66.9 21.3 66.9 19.2V3.79999C66.9 1.59999 65.2 0 63.1 0Z" fill="#50ABF1"/>
</mask>
<g mask="url(#mask0)">
<rect width="67" height="23" fill="#0274B3"/>
<rect width="67" height="23" fill="#50ABF1"/>
<path d="M26.4 10L34 9.89999L34.3 10.5V10.6H31.1V12.4C31.5 12 31.9 11.8 32.4 11.8C33.2 11.8 33.8 12.5 33.8 13.3C33.8 14 33.5 14.7 32.9 15.4V15.4L32.3 14.9C32.9 14.2 33.3 13.5 33.3 12.9C33.3 12.6 33.1 12.4 32.8 12.4C32.2 12.4 31.6 12.8 31.2 13.5V16.2L31.1 16.3L30.4 16.1V14.1C30.1 14.4 29.7 14.5 29.4 14.5C29 14.5 28.5 14.3 28.1 13.9C27.8 13.6 27.6 13.1 27.6 12.2C27.6 11.7 27.6 11.2 27.6 10.7H26.8L26.4 10ZM30.3 10.6H28.2C28.2 11.2 28.2 11.7 28.2 12.3C28.2 13.3 28.4 13.8 29 13.8C29.5 13.8 30 13.5 30.4 12.9V10.6H30.3Z" fill="white"/>
<path d="M33.5 7.39999C33.9 8.39999 34.4 8.79999 34.9 8.79999C35.5 8.79999 35.9 8.4 36.1 7.5H36.2L36.7 7.89999C36.5 9.09999 35.9 9.60001 35.1 9.60001C34.3 9.60001 33.6 8.99999 33.2 7.79999L33.5 7.39999ZM33.7 10L36.4 9.89999L36.7 10.5V10.6H35.6V16.2L35.5 16.3L34.8 16.1V10.6H33.9L33.7 10Z" fill="white"/>
<path d="M36.2 10L43.1 9.89999L43.4 10.5V10.6H42.3V16.2L42.2 16.3L41.5 16.1V12.4C40.4 12.6 40 12.9 39.7 14.1L39.1 13.7C39.2 13.3 39.4 12.9 39.6 12.6C39.4 12.5 39.2 12.4 38.9 12.4C38.2 12.4 37.7 13 37.7 13.5C37.7 14.5 38.4 15 39.6 15.5L39.1 16.2C37.8 15.3 37 14.3 37 13.1C37 12.2 37.6 11.5 38.5 11.5C39.1 11.5 39.5 11.7 39.9 12.1C40.3 11.8 40.9 11.6 41.6 11.5V10.5H36.5L36.2 10Z" fill="white"/>
<path d="M45.8 10.6H44.7V16.2L44.6 16.3L43.9 16.1V10.6H43L42.7 10V9.89999H43.9C43.7 9.49999 43.6 9.19999 43.4 8.79999C43.1 8.09999 42.8 7.79999 42.1 7.79999C41.7 7.79999 41.4 7.9 41 8L40.7 7.20001C41 7.10001 41.4 7 41.9 7C43 7 43.3 7.7 44.4 10H45.4L45.8 10.6Z" fill="white"/>
<path d="M48.7 10L56.3 9.89999L56.6 10.5V10.6H53.4V12.5C53.8 12.1 54.2 11.9 54.7 11.9C55.5 11.9 56.1 12.6 56.1 13.4C56.1 14.1 55.7 14.7 55.2 15.3H55.1L54.5 14.8C55.1 14.1 55.5 13.5 55.5 12.9C55.5 12.6 55.3 12.4 55 12.4C54.5 12.4 53.9 12.8 53.4 13.4V16L53.3 16.1L52.6 15.9V14.1C52.2 14.4 51.8 14.6 51.4 14.6C50.3 14.6 49.5 13.7 49.5 12.8C49.5 11.9 50.3 11.3 51.3 11.3C51.8 11.3 52.2 11.4 52.7 11.5V10.4H49.1L48.7 10ZM52.6 12.2C52.3 12.1 52 12.1 51.7 12.1C50.8 12.1 50.2 12.7 50.2 13.3C50.2 13.8 50.5 14.1 51 14.1C51.5 14.1 52.1 13.8 52.6 13.2V12.2Z" fill="white"/>
<path d="M55.9 10L60.3 9.89999L60.6 10.5V10.6H59.1C59.2 10.9 59.2 11.3 59.2 11.6C59.2 12.7 58.7 13.3 57.9 13.7C58.4 14.3 59.3 14.9 60.3 15.5L59.9 16.3H59.8C58.7 15.5 57.9 14.7 57.3 13.8C57 13.4 56.8 13 56.8 12.8C56.8 12.7 56.8 12.6 56.9 12.5C57 12.4 57.2 12.3 57.5 12.3C57.8 12.3 58 12.3 58.3 12.3C58.4 12.1 58.5 11.7 58.5 11.4C58.5 11.2 58.5 10.9 58.4 10.7H56.2L55.9 10Z" fill="white"/>
<path d="M58.6 10.1C58.4 9.70001 58.2 9.29999 58 8.89999C57.7 8.19999 57.4 7.89999 56.7 7.89999C56.3 7.89999 56 8.00001 55.6 8.10001L55.3 7.29999C55.6 7.19999 56 7.10001 56.5 7.10001C57.7 7.10001 57.9 7.90001 59.1 10.1V10.2H58.6V10.1ZM59.5 7.70001L60.1 8.29999L59.5 8.89999L58.9 8.29999L59.5 7.70001Z" fill="white"/>
<path d="M11.3726 14.3343C10.7002 14.3343 10.1959 14.0751 9.69158 13.6431C9.35537 13.3839 9.18726 12.9519 9.01916 12.6063C9.35537 12.6927 9.77563 12.6927 10.1118 12.5199C9.52347 12.3471 9.01915 12.0879 8.68294 11.5695C8.34674 11.0511 8.09459 10.5327 8.09459 9.92788C8.43079 10.1007 8.85105 10.2735 9.18726 10.2735C8.5989 9.8415 8.17864 9.23673 8.09459 8.45913C8.01053 7.85434 8.17864 7.3359 8.4308 6.9039C9.77563 8.54549 11.5407 9.40951 13.5579 9.58231C13.5579 9.49591 13.558 9.40952 13.4739 9.32313C13.3899 8.89113 13.4739 8.45913 13.642 8.02713C13.9782 7.24954 14.5666 6.6447 15.4071 6.4719C16.3317 6.2991 17.0881 6.55834 17.7605 7.16314C17.7605 7.16314 17.7605 7.16314 17.8446 7.16314C18.3489 7.07674 18.8532 6.81753 19.3575 6.55833C19.3575 6.64473 19.1054 7.1631 18.9373 7.3359C18.7692 7.59509 18.517 7.7679 18.2648 7.9407C18.7692 7.8543 19.1894 7.7679 19.6937 7.50871C19.6937 7.50871 19.6937 7.50874 19.6937 7.59514C19.6937 7.59514 19.6937 7.59512 19.6937 7.68152C19.4416 8.02711 19.1054 8.37272 18.7692 8.71832C18.6851 8.80472 18.6011 8.89113 18.517 8.89113C18.517 8.89113 18.517 8.89111 18.517 8.97751C18.517 9.4095 18.517 9.84152 18.4329 10.1871C18.3489 10.8783 18.1808 11.5695 17.8446 12.2607C17.5924 12.8655 17.1722 13.4703 16.7519 14.0751C16.1636 14.7663 15.5752 15.2847 14.7347 15.7167C14.1463 16.0622 13.4739 16.3214 12.8015 16.4078C12.2131 16.4942 11.6248 16.5806 10.9524 16.5806C10.1118 16.5806 9.27131 16.3214 8.51484 15.9758C8.17864 15.803 7.84243 15.6303 7.50623 15.4575C9.10321 15.5439 10.2799 15.1983 11.3726 14.3343Z" fill="white"/>
</g>
</svg>
