<svg width="91" height="23" viewBox="0 0 91 23" fill="none" xmlns="http://www.w3.org/2000/svg">
<mask id="mask0" mask-type="alpha" maskUnits="userSpaceOnUse" x="0" y="0" width="91" height="23">
<path d="M87.1 0H3.79999C1.69999 0 0 1.70002 0 3.80002V19.2C0 21.3 1.69999 23 3.79999 23H87.1C89.2 23 90.9 21.3 90.9 19.2V3.80002C90.9 1.70002 89.2 0 87.1 0Z" fill="#50ABF1"/>
</mask>
<g mask="url(#mask0)">
<rect width="91" height="23" fill="#0274B3"/>
<rect width="91" height="23" fill="#50ABF1"/>
<path d="M27.6 15V6H30.3L31.9 12.1L33.5 6H36.2V15H34.5V7.89999L32.7 15H31L29.2 7.89999V15H27.6Z" fill="white"/>
<path d="M41.8 13L43.5 13.3C43.3 13.9 42.9 14.4 42.5 14.7C42 15 41.4 15.2 40.7 15.2C39.6 15.2 38.7 14.8 38.2 14.1C37.8 13.5 37.6 12.8 37.6 11.9C37.6 10.8 37.9 9.99999 38.4 9.39999C39 8.79999 39.7 8.5 40.5 8.5C41.5 8.5 42.2 8.8 42.8 9.5C43.4 10.1 43.6 11.1 43.6 12.4H39.3C39.3 12.9 39.5 13.3 39.7 13.6C40 13.9 40.3 14 40.7 14C41 14 41.2 13.9 41.4 13.8C41.5 13.5 41.7 13.3 41.8 13ZM41.9 11.2C41.9 10.7 41.8 10.3 41.5 10.1C41.3 9.80001 41 9.70001 40.6 9.70001C40.2 9.70001 39.9 9.80001 39.7 10.1C39.5 10.4 39.3 10.7 39.3 11.2H41.9Z" fill="white"/>
<path d="M50.9 15H49.2V11.7C49.2 11 49.2 10.5 49.1 10.3C49 10.1 48.9 9.89999 48.7 9.79999C48.5 9.69999 48.3 9.60001 48.1 9.60001C47.8 9.60001 47.5 9.69999 47.3 9.79999C47.1 9.89999 46.9 10.2 46.8 10.4C46.7 10.7 46.7 11.2 46.7 11.9V14.8H45V8.5H46.6V9.5C47.2 8.8 47.9 8.39999 48.7 8.39999C49.1 8.39999 49.4 8.50001 49.7 8.60001C50 8.70001 50.3 8.90001 50.4 9.10001C50.5 9.30001 50.7 9.59999 50.7 9.79999C50.8 10.1 50.8 10.5 50.8 11V15H50.9Z" fill="white"/>
<path d="M52.5 15.5L54.5 15.7C54.5 15.9 54.6 16.1 54.7 16.2C54.9 16.3 55.1 16.4 55.5 16.4C55.9 16.4 56.3 16.3 56.5 16.2C56.7 16.1 56.8 16 56.8 15.8C56.9 15.7 56.9 15.4 56.9 15V14.1C56.4 14.8 55.7 15.2 55 15.2C54.1 15.2 53.4 14.8 52.9 14.1C52.5 13.5 52.3 12.8 52.3 11.9C52.3 10.8 52.6 9.99999 53.1 9.39999C53.6 8.79999 54.3 8.5 55.1 8.5C55.9 8.5 56.6 8.90001 57.1 9.60001V8.5H58.7V14.3C58.7 15.1 58.6 15.6 58.5 16C58.4 16.4 58.2 16.7 58 16.9C57.8 17.1 57.5 17.3 57.1 17.4C56.7 17.5 56.2 17.6 55.7 17.6C54.6 17.6 53.8 17.4 53.4 17C52.9 16.6 52.7 16.1 52.7 15.6C52.5 15.6 52.5 15.5 52.5 15.5ZM54 11.6C54 12.3 54.1 12.8 54.4 13.1C54.7 13.4 55 13.6 55.4 13.6C55.8 13.6 56.2 13.4 56.5 13.1C56.8 12.8 56.9 12.3 56.9 11.6C56.9 10.9 56.8 10.4 56.5 10.1C56.2 9.80001 55.9 9.60001 55.4 9.60001C55 9.60001 54.6 9.80001 54.4 10.1C54.1 10.5 54 11 54 11.6Z" fill="white"/>
<path d="M60.3 7.70001V6.10001H62V7.70001H60.3ZM60.3 15V8.5H62V15H60.3Z" fill="white"/>
<path d="M63.7 15V6H65.4V10.8L67.4 8.5H69.5L67.3 10.9L69.7 15H67.8L66.2 12.1L65.4 12.9V15H63.7V15Z" fill="white"/>
<path d="M75 15V14C74.8 14.3 74.5001 14.6 74.1001 14.8C73.7001 15 73.3 15.1 72.9 15.1C72.5 15.1 72.1 15 71.7 14.8C71.3 14.6 71.1 14.3 70.9 14C70.7 13.7 70.7 13.2 70.7 12.6V8.5H72.4V11.5C72.4 12.4 72.4 13 72.5 13.2C72.6 13.4 72.7 13.6 72.8 13.7C72.9 13.8 73.2 13.9 73.4 13.9C73.7 13.9 74 13.8 74.2 13.7C74.4 13.5 74.6 13.3 74.7 13.1C74.8 12.9 74.8 12.3 74.8 11.3V8.5H76.5V15H75Z" fill="white"/>
<path d="M81.3 8.5V9.89999H80.1001V12.5C80.1001 13 80.1001 13.3 80.1001 13.4C80.1001 13.5 80.2 13.6 80.3 13.6C80.4 13.7 80.5001 13.7 80.6001 13.7C80.8001 13.7 81 13.6 81.3 13.5L81.4 14.8C81 15 80.5 15.1 80 15.1C79.7 15.1 79.4 15 79.2 14.9C79 14.8 78.8 14.7 78.7 14.5C78.6 14.3 78.5 14.1 78.5 13.8C78.5 13.6 78.4 13.2 78.4 12.6V9.79999H77.6001V8.5H78.4V7.20001L80.1001 6.20001V8.5H81.3Z" fill="white"/>
<path d="M82.5 7.70001V6.10001H84.2V7.70001H82.5ZM82.5 15V8.5H84.2V15H82.5Z" fill="white"/>
<path d="M11.3726 14.3343C10.7002 14.3343 10.1959 14.0751 9.69158 13.6431C9.35537 13.3839 9.18726 12.9519 9.01916 12.6063C9.35537 12.6927 9.77563 12.6927 10.1118 12.5199C9.52347 12.3471 9.01915 12.0879 8.68294 11.5695C8.34674 11.0511 8.09459 10.5327 8.09459 9.92788C8.43079 10.1007 8.85105 10.2735 9.18726 10.2735C8.5989 9.8415 8.17864 9.23673 8.09459 8.45913C8.01053 7.85434 8.17864 7.3359 8.4308 6.9039C9.77563 8.54549 11.5407 9.40952 13.5579 9.58231C13.5579 9.49591 13.558 9.40953 13.4739 9.32313C13.3899 8.89113 13.4739 8.45913 13.642 8.02714C13.9782 7.24954 14.5666 6.6447 15.4071 6.4719C16.3317 6.2991 17.0881 6.55834 17.7605 7.16314C17.7605 7.16314 17.7605 7.16314 17.8446 7.16314C18.3489 7.07674 18.8532 6.81753 19.3575 6.55833C19.3575 6.64473 19.1054 7.1631 18.9373 7.3359C18.7692 7.5951 18.517 7.76791 18.2648 7.9407C18.7692 7.8543 19.1894 7.76791 19.6937 7.50871C19.6937 7.50871 19.6937 7.50874 19.6937 7.59514C19.6937 7.59514 19.6937 7.59512 19.6937 7.68152C19.4416 8.02711 19.1054 8.37272 18.7692 8.71832C18.6851 8.80472 18.6011 8.89113 18.517 8.89113C18.517 8.89113 18.517 8.89111 18.517 8.97751C18.517 9.4095 18.517 9.84152 18.4329 10.1871C18.3489 10.8783 18.1808 11.5695 17.8446 12.2607C17.5924 12.8655 17.1722 13.4703 16.7519 14.0751C16.1636 14.7663 15.5752 15.2847 14.7347 15.7167C14.1463 16.0622 13.4739 16.3214 12.8015 16.4078C12.2131 16.4942 11.6248 16.5806 10.9524 16.5806C10.1118 16.5806 9.27131 16.3214 8.51484 15.9758C8.17864 15.803 7.84243 15.6303 7.50623 15.4575C9.10321 15.5439 10.2799 15.1983 11.3726 14.3343Z" fill="white"/>
</g>
</svg>
