<svg width="102" height="23" viewBox="0 0 102 23" fill="none" xmlns="http://www.w3.org/2000/svg">
<mask id="mask0" mask-type="alpha" maskUnits="userSpaceOnUse" x="0" y="0" width="102" height="23">
<path d="M98.1 0H3.79999C1.69999 0 0 1.70002 0 3.80002V19.2C0 21.3 1.69999 23 3.79999 23H98.1C100.2 23 101.9 21.3 101.9 19.2V3.80002C101.9 1.70002 100.2 0 98.1 0Z" fill="#50ABF1"/>
</mask>
<g mask="url(#mask0)">
<rect width="102" height="23" fill="#0274B3"/>
<rect width="102" height="23" fill="#50ABF1"/>
<path d="M37.7 7.90002C37.7 8.00002 37.6 8 37.5 8C36.5 12.7 34.1 15.6 30 17C29.9 16.8 29.6 16.4 29.4 16.3C33.3 15 35.7 12.2 36.4 8.5H28.2V7.70001H36.7L36.9 7.60004L37.7 7.90002Z" fill="white"/>
<path d="M47.7 11.4H44.7L44.8 16C44.8 17.1 43.9 17.1 42.5 17.1C42.5 16.9 42.4 16.6 42.3 16.4C42.9 16.4 43.5 16.4 43.7 16.4C43.9 16.4 44.1 16.2 44.1 16V12C43.1 13.4 41.5 14.8 39.9 15.7C39.8 15.5 39.6 15.3 39.4 15.1C41 14.3 42.7 12.8 43.7 11.3H39.8V10.7H44.1V8.5H45.1C45.1 8.6 45 8.70001 44.8 8.70001V10.7H47.8V11.4H47.7Z" fill="white"/>
<path d="M59.1 8V16.3H58.2V15.5H51.3V16.3H50.4V8H59.1ZM58.2 14.6V8.79999H51.3V14.6H58.2Z" fill="white"/>
<path d="M61.6 11.1H72V12H62C61.9 12.1 61.8 12.2 61.6 12.2V11.1Z" fill="white"/>
<path d="M79.6 8C79.6 7.7 79.5 6.4 79.5 6H80.8C80.8 6.1 80.7 6.19999 80.5 6.29999C80.5 6.49999 80.5 6.60002 80.5 7.90002C82 7.80002 83.7 7.79999 84.6 7.79999V8.70001C83.5 8.70001 82 8.70001 80.5 8.70001C80.5 9.70001 80.5 10.6 80.6 11.3C80.7 11.7 80.8 12.1 80.8 12.6C80.8 13 80.8 13.5 80.7 13.8C80.4 15.3 79.3 16.6 77.1 17.4C76.9 17.2 76.7 16.9 76.5 16.7C78.4 16 79.4 15 79.8 13.8C79.5 14.2 79.1 14.5 78.5 14.5C77.4 14.5 76.4 13.6 76.4 12.3C76.4 11 77.5 10 78.7 10C79.2 10 79.6 10.2 79.9 10.4C79.9 10.2 79.9 9.29999 79.8 8.79999C78.5 8.79999 74.5 9 74 9V8.20001L76.9 8.10004L79.6 8ZM79.9 12.4C79.9 11.9 79.9 10.8 78.6 10.8C77.7 10.8 77.1 11.5 77.1 12.4C77.1 13.3 77.8 13.9 78.5 13.9C79.4 13.8 79.9 13.1 79.9 12.4Z" fill="white"/>
<path d="M89.1 11.4C89.9 11 91.2 10.7 92.2 10.7C94.2 10.7 95.4 11.9 95.4 13.7C95.4 16 93.4 17.2 90.9 17.2C89.3 17.2 88.2 16.5 88.2 15.4C88.2 14.5 89.1 13.7 90.3 13.7C91.7 13.7 92.7 14.8 92.9 16C93.9 15.6 94.6 14.8 94.6 13.7C94.6 12.3 93.6 11.5 92 11.5C90.1 11.5 88.3 12.3 87.5 13.1C87.1 13.5 86.6 14 86.3 14.4L85.7 13.8C86.8 12.6 90.4 9.20004 92.1 7.60004C91.4 7.70004 88.9 7.80002 87.4 7.90002C87.4 8.00002 87.2 8.10004 87.1 8.10004L87 7C88.7 7 91.9 6.90001 92.8 6.70001L93 6.60004L93.7 7.40002C93.6 7.40002 93.5 7.5 93.4 7.5C92.5 8.3 90.1 10.5 89.1 11.4ZM90.8 16.4C91.2 16.4 91.6 16.4 91.9 16.3C91.8 15.3 91 14.5 90.1 14.5C89.4 14.5 88.9 14.9 88.9 15.4C89 16.2 90 16.4 90.8 16.4Z" fill="white"/>
<path d="M11.3726 14.3343C10.7002 14.3343 10.1959 14.0751 9.69158 13.6431C9.35537 13.3839 9.18726 12.9519 9.01916 12.6063C9.35537 12.6927 9.77563 12.6927 10.1118 12.5199C9.52347 12.3471 9.01915 12.0879 8.68294 11.5695C8.34674 11.0511 8.09459 10.5327 8.09459 9.92788C8.43079 10.1007 8.85105 10.2735 9.18726 10.2735C8.5989 9.8415 8.17864 9.23673 8.09459 8.45913C8.01053 7.85434 8.17864 7.3359 8.4308 6.9039C9.77563 8.54549 11.5407 9.40952 13.5579 9.58232C13.5579 9.49592 13.558 9.40953 13.4739 9.32313C13.3899 8.89113 13.4739 8.45913 13.642 8.02714C13.9782 7.24954 14.5666 6.6447 15.4071 6.47191C16.3317 6.29911 17.0881 6.55835 17.7605 7.16314C17.7605 7.16314 17.7605 7.16314 17.8446 7.16314C18.3489 7.07674 18.8532 6.81753 19.3575 6.55834C19.3575 6.64474 19.1054 7.1631 18.9373 7.3359C18.7692 7.5951 18.517 7.76791 18.2648 7.94071C18.7692 7.85431 19.1894 7.76791 19.6937 7.50871C19.6937 7.50871 19.6937 7.50874 19.6937 7.59514C19.6937 7.59514 19.6937 7.59512 19.6937 7.68152C19.4416 8.02712 19.1054 8.37272 18.7692 8.71832C18.6851 8.80472 18.6011 8.89113 18.517 8.89113C18.517 8.89113 18.517 8.89111 18.517 8.97751C18.517 9.40951 18.517 9.84152 18.4329 10.1871C18.3489 10.8783 18.1808 11.5695 17.8446 12.2607C17.5924 12.8655 17.1722 13.4703 16.7519 14.0751C16.1636 14.7663 15.5752 15.2847 14.7347 15.7167C14.1463 16.0623 13.4739 16.3214 12.8015 16.4078C12.2131 16.4942 11.6248 16.5806 10.9524 16.5806C10.1118 16.5806 9.27131 16.3214 8.51484 15.9758C8.17864 15.803 7.84243 15.6303 7.50623 15.4575C9.10321 15.5439 10.2799 15.1983 11.3726 14.3343Z" fill="white"/>
</g>
</svg>
