<svg width="70" height="23" viewBox="0 0 70 23" fill="none" xmlns="http://www.w3.org/2000/svg">
<mask id="mask0" mask-type="alpha" maskUnits="userSpaceOnUse" x="0" y="0" width="70" height="23">
<path d="M66.1 0H3.79999C1.69999 0 0 1.70005 0 3.80005V19.2C0 21.3 1.69999 23 3.79999 23H66.1C68.2 23 69.9 21.3 69.9 19.2V3.80005C69.9 1.70005 68.2 0 66.1 0Z" fill="#50ABF1"/>
</mask>
<g mask="url(#mask0)">
<rect width="70" height="23" fill="#0274B3"/>
<rect width="70" height="23" fill="#50ABF1"/>
<path d="M35.6 7.20001C35.6 7.00001 35 6.60002 34.5 6.40002C34.3 6.30002 34.3 6.30001 34.3 6.20001C34.3 6.10001 34.4 6.10004 34.7 6.10004C35.2 6.20004 35.4 6.3 36.1 6.5C36.4 6.6 36.4 6.70005 36.4 6.80005C36.4 6.90005 36.4 7.00001 36.4 7.20001V11.7H37C37.6 11.6 37.4 11.4 38.2 11.4C38.4 11.4 39 11.4 39 11.8C39 12 38.9 12.1 38.6 12.1H36.4V13.5C36.4 16.2 36.3 17 36.1 17.5C36 17.7 35.9 17.8 35.8 17.8C35.7 17.8 35.7 17.7 35.7 17.4V12.7C34 13.9 32.6 14.2 32.4 14.2C32.2 14.2 31.9 13.6 31.9 13.4V13C30.5 14 29.3 14.4 29.1 14.4C28.9 14.4 28.7 14 28.7 13.5V9.40002C28.7 9.10002 28.4 9.00005 27.9 8.80005C27.8 8.80005 27.7 8.70001 27.7 8.70001C27.7 8.70001 27.8 8.6 27.9 8.5C28.4 8.5 29.1 8.70001 29.3 8.70001H29.6C30 8.60001 29.8 8.40002 30.4 8.40002C30.5 8.40002 31 8.40001 31 8.70001C31 8.80001 30.9 8.90002 30.7 8.90002L29.6 9C29.5 9.1 29.4 9.00001 29.4 9.20001V13.2C29.4 13.4 29.4 13.6 29.6 13.6C29.8 13.6 31.3 13.1 31.9 12.7V9.20001C31.9 8.90001 31.6 8.70004 31.3 8.60004C31.2 8.60004 31.1 8.50002 31.1 8.40002C31.1 8.30002 31.2 8.30005 31.4 8.30005C31.9 8.30005 32.3 8.50004 32.6 8.60004H33.1C33.6 8.50004 33.3 8.30005 34.1 8.30005C34.4 8.30005 34.8 8.30004 34.8 8.60004C34.8 8.70004 34.6 8.90002 34.4 8.90002L32.9 9C32.8 9.1 32.7 9.00005 32.7 9.30005V13.3C32.7 13.5 32.7 13.6 32.9 13.6C33.2 13.6 34.8 13.2 35.8 12.5V7.20001H35.6Z" fill="white"/>
<path d="M48.5 15.6C49 15.6 48.9 15.3 49.6 15.3C49.9 15.3 51 15.3 51 15.8C51 16 50.8 16.1 50.6 16.1H50.5C49.9 16.1 49.1 16.1 48.4 16.1C48 16.1 46.1 16.1 45.6 16.1C44.5 16.1 43 16.2 42.3 16.2C41.8 16.3 41.8 16.5 41.5 16.5C41.2 16.5 39.8 15.9 39.8 15.7C39.8 15.7 39.9 15.6 40 15.6C40.1 15.6 40.1 15.6 40.2 15.6C40.8 15.7 41.9 15.8 43.2 15.8C44.6 15.8 46.3 15.7 47.9 15.7L48.5 15.6ZM42.4 10.8C42.3 10.6 41.9 10.5 41.5 10.3C41.4 10.3 41.3 10.2 41.3 10.2C41.3 10.2 41.4 10 42 10C42.5 10 42.9 10 43.3 10.2C44 10.2 45.8 10.1 46.7 10C47.1 10 47.1 9.90005 47.6 9.80005C47.7 9.50005 47.7 8.60002 47.8 7.90002C46.7 8.00002 45 8.10001 43.5 8.20001C43.1 8.30001 43 8.40002 42.9 8.40002C42.7 8.40002 41.6 7.90005 41.6 7.80005C41.6 7.80005 41.6 7.70001 41.7 7.70001C41.7 7.70001 41.8 7.70001 41.9 7.70001C42.5 7.80001 43.1 7.80005 43.7 7.80005C44.8 7.80005 46.1 7.70004 47.3 7.60004C47.6 7.60004 47.7 7.5 48.1 7.5C48.7 7.5 49 7.50001 49 7.70001C49 7.90001 48.7 8.00001 48.7 8.20001C48.6 8.70001 48.3 9.40005 48.2 9.80005C48.5 9.80005 48.7 10 48.7 10.1C48.7 10.2 48.6 10.3 48.4 10.3C46.7 10.3 45 10.5 43.7 10.5C43.5 10.6 43.4 10.5 43.4 10.6C43.4 10.8 43.4 11.5 43.4 12.2C43.4 12.4 43.5 12.5 43.8 12.5C44.7 12.5 45.9 12.5 47.1 12.4C47.8 12.3 47.5 12 48.4 12C48.7 12 49.2 12 49.2 12.3C49.2 12.5 49 12.6 48.8 12.6C47.7 12.7 46.8 12.7 46 12.8H45.2C44.5 12.8 44 12.8 43.5 12.8C43 12.8 42.5 12.6 42.5 12L42.4 10.8Z" fill="white"/>
<path d="M60.6 7.20001C60.6 7.00001 59.9 6.70002 59.4 6.40002C59.3 6.30002 59.2 6.30001 59.2 6.20001C59.2 6.10001 59.4 6.1 59.7 6C60.2 6.1 60.7 6.20005 61.1 6.30005C61.4 6.40005 61.4 6.50004 61.4 6.60004C61.4 6.70004 61.4 6.8 61.4 7V11.6H62C62.6 11.5 62.4 11.3 63.2 11.3C63.4 11.3 64 11.3 64 11.7C64 11.9 63.8 12 63.6 12H61.4V15.6C61.4 16.4 61.3 16.9 61.1 17.5C61 17.7 60.9 17.7 60.8 17.7C60.7 17.7 60.6 17.5 60.6 17.1V12.4C59.1 13.2 56 14.3 54.5 14.3C54.3 14.3 53.9 13.8 53.9 13.3V9.30005C53.8 9.00005 53.5 8.90001 52.8 8.70001C52.7 8.70001 52.6 8.70004 52.6 8.60004C52.6 8.50004 52.7 8.50002 53 8.40002C53.7 8.40002 54.4 8.50001 54.8 8.70001C55.5 8.70001 56.3 8.70004 56.7 8.60004C57.3 8.50004 57.2 8.20001 58 8.20001C58.3 8.20001 58.9 8.2 58.9 8.5C58.9 8.6 58.8 8.80005 58.5 8.80005C57.3 8.90005 56 8.90002 54.9 8.90002C54.7 8.90002 54.6 8.90004 54.6 9.10004C54.6 9.70004 54.6 11.6 54.6 12.6C54.6 13.6 54.6 13.6 55 13.6C55.4 13.6 58.7 13.1 60.6 12.1V7.20001V7.20001Z" fill="white"/>
<path d="M11.3726 14.3343C10.7002 14.3343 10.1959 14.0751 9.69158 13.6431C9.35537 13.3839 9.18726 12.9519 9.01916 12.6063C9.35537 12.6927 9.77563 12.6927 10.1118 12.5199C9.52347 12.3471 9.01915 12.0879 8.68294 11.5695C8.34674 11.0511 8.09459 10.5327 8.09459 9.92788C8.43079 10.1007 8.85105 10.2735 9.18726 10.2735C8.5989 9.8415 8.17864 9.23673 8.09459 8.45913C8.01053 7.85434 8.17864 7.3359 8.4308 6.9039C9.77563 8.54549 11.5407 9.40952 13.5579 9.58232C13.5579 9.49592 13.558 9.40953 13.4739 9.32313C13.3899 8.89113 13.4739 8.45913 13.642 8.02714C13.9782 7.24954 14.5666 6.6447 15.4071 6.47191C16.3317 6.29911 17.0881 6.55835 17.7605 7.16314C17.7605 7.16314 17.7605 7.16314 17.8446 7.16314C18.3489 7.07674 18.8532 6.81753 19.3575 6.55834C19.3575 6.64474 19.1054 7.1631 18.9373 7.3359C18.7692 7.5951 18.517 7.76791 18.2648 7.94071C18.7692 7.85431 19.1894 7.76791 19.6937 7.50871C19.6937 7.50871 19.6937 7.50874 19.6937 7.59514C19.6937 7.59514 19.6937 7.59512 19.6937 7.68152C19.4416 8.02712 19.1054 8.37272 18.7692 8.71832C18.6851 8.80472 18.6011 8.89113 18.517 8.89113C18.517 8.89113 18.517 8.89111 18.517 8.97751C18.517 9.40951 18.517 9.84152 18.4329 10.1871C18.3489 10.8783 18.1808 11.5695 17.8446 12.2607C17.5924 12.8655 17.1722 13.4703 16.7519 14.0751C16.1636 14.7663 15.5752 15.2847 14.7347 15.7167C14.1463 16.0623 13.4739 16.3214 12.8015 16.4078C12.2131 16.4942 11.6248 16.5806 10.9524 16.5806C10.1118 16.5806 9.27131 16.3214 8.51484 15.9758C8.17864 15.803 7.84243 15.6303 7.50623 15.4575C9.10321 15.5439 10.2799 15.1983 11.3726 14.3343Z" fill="white"/>
</g>
</svg>
