<svg width="73" height="23" viewBox="0 0 73 23" fill="none" xmlns="http://www.w3.org/2000/svg">
<mask id="mask0" mask-type="alpha" maskUnits="userSpaceOnUse" x="0" y="0" width="73" height="23">
<path d="M69.1 0H3.79999C1.69999 0 0 1.7 0 3.8V19.2C0 21.3 1.69999 23 3.79999 23H69.1C71.2 23 72.9 21.3 72.9 19.2V3.8C72.9 1.7 71.2 0 69.1 0Z" fill="#50ABF1"/>
</mask>
<g mask="url(#mask0)">
<rect width="73" height="23" fill="#0274B3"/>
<rect width="73" height="23" fill="#50ABF1"/>
<path d="M29.9 15L26.7 6H28.7L31 12.6L33.2 6H35.1L31.9 15H29.9Z" fill="white"/>
<path d="M34.6 11.7C34.6 11.1 34.7 10.6 35 10C35.3 9.5 35.7 9.1 36.2 8.8C36.7 8.5 37.3 8.39999 37.9 8.39999C38.9 8.39999 39.7 8.69999 40.3 9.39999C40.9 9.99999 41.2 10.8 41.2 11.8C41.2 12.8 40.9 13.6 40.2 14.2C39.6 14.8 38.8 15.2 37.8 15.2C37.2 15.2 36.6 15.1 36.1 14.8C35.6 14.5 35.1 14.1 34.9 13.6C34.7 13.1 34.6 12.4 34.6 11.7ZM36.4 11.8C36.4 12.4 36.6 12.9 36.9 13.3C37.2 13.6 37.6 13.8 38 13.8C38.4 13.8 38.8 13.6 39.1 13.3C39.4 13 39.6 12.5 39.6 11.8C39.6 11.2 39.4 10.7 39.1 10.3C38.8 10 38.4 9.8 38 9.8C37.6 9.8 37.2 10 36.9 10.3C36.5 10.6 36.4 11.1 36.4 11.8Z" fill="white"/>
<path d="M42.7 15V6H44.4V15H42.7Z" fill="white"/>
<path d="M46 15.5L48 15.7C48 15.9 48.1 16.1 48.2 16.2C48.4 16.3 48.6 16.4 49 16.4C49.4 16.4 49.8 16.3 50 16.2C50.2 16.1 50.3 16 50.3 15.8C50.4 15.7 50.4 15.4 50.4 15V14C49.9 14.7 49.2 15.1 48.5 15.1C47.6 15.1 46.9 14.7 46.4 14C46 13.4 45.8 12.7 45.8 11.8C45.8 10.7 46.1 9.9 46.6 9.3C47.1 8.7 47.8 8.39999 48.6 8.39999C49.4 8.39999 50.1 8.8 50.6 9.5V8.60001H52.2V14.4C52.2 15.2 52.1 15.7 52 16.1C51.9 16.5 51.7 16.8 51.5 17C51.3 17.2 51 17.4 50.6 17.5C50.2 17.6 49.7 17.7 49.2 17.7C48.1 17.7 47.3 17.5 46.9 17.1C46.4 16.7 46.2 16.2 46.2 15.7C46 15.6 46 15.5 46 15.5ZM47.5 11.6C47.5 12.3 47.6 12.8 47.9 13.1C48.2 13.4 48.5 13.6 48.9 13.6C49.3 13.6 49.7 13.4 50 13.1C50.3 12.8 50.4 12.3 50.4 11.6C50.4 10.9 50.3 10.4 50 10.1C49.7 9.80001 49.4 9.60001 48.9 9.60001C48.5 9.60001 48.1 9.80001 47.9 10.1C47.6 10.5 47.5 11 47.5 11.6Z" fill="white"/>
<path d="M57.5 13L59.2 13.3C59 13.9 58.6 14.4 58.2 14.7C57.7 15 57.1 15.2 56.4 15.2C55.3 15.2 54.4 14.8 53.9 14.1C53.5 13.5 53.3 12.8 53.3 11.9C53.3 10.8 53.6 9.99999 54.1 9.39999C54.7 8.79999 55.4 8.5 56.2 8.5C57.2 8.5 57.9 8.8 58.5 9.5C59.1 10.1 59.3 11.1 59.3 12.4H55C55 12.9 55.2 13.3 55.4 13.6C55.6 13.9 56 14 56.4 14C56.7 14 56.9 13.9 57.1 13.8C57.3 13.5 57.5 13.3 57.5 13ZM57.6 11.2C57.6 10.7 57.5 10.3 57.2 10.1C57 9.80001 56.7 9.7 56.3 9.7C55.9 9.7 55.6 9.80001 55.4 10.1C55.2 10.4 55 10.7 55 11.2H57.6Z" fill="white"/>
<path d="M66.7 15H64.9V11.7C64.9 11 64.9 10.5 64.8 10.3C64.7 10.1 64.6 9.9 64.4 9.8C64.2 9.7 64 9.60001 63.8 9.60001C63.5 9.60001 63.2 9.7 63 9.8C62.8 9.9 62.6 10.2 62.5 10.4C62.4 10.7 62.4 11.2 62.4 11.9V14.8H60.7V8.3H62.3V9.3C62.9 8.6 63.6 8.2 64.4 8.2C64.8 8.2 65.1 8.29999 65.4 8.39999C65.7 8.49999 66 8.69999 66.1 8.89999C66.2 9.09999 66.4 9.40001 66.4 9.60001C66.5 9.90001 66.5 10.3 66.5 10.8V15H66.7Z" fill="white"/>
<path d="M11.3726 14.3343C10.7002 14.3343 10.1959 14.0751 9.69158 13.6431C9.35537 13.3839 9.18726 12.9519 9.01916 12.6063C9.35537 12.6927 9.77563 12.6927 10.1118 12.5199C9.52347 12.3471 9.01915 12.0879 8.68294 11.5695C8.34674 11.0511 8.09459 10.5327 8.09459 9.92788C8.43079 10.1007 8.85105 10.2735 9.18726 10.2735C8.5989 9.8415 8.17864 9.23673 8.09459 8.45913C8.01053 7.85434 8.17864 7.3359 8.4308 6.9039C9.77563 8.54549 11.5407 9.40952 13.5579 9.58232C13.5579 9.49592 13.558 9.40953 13.4739 9.32313C13.3899 8.89113 13.4739 8.45913 13.642 8.02714C13.9782 7.24954 14.5666 6.6447 15.4071 6.47191C16.3317 6.29911 17.0881 6.55835 17.7605 7.16314C17.7605 7.16314 17.7605 7.16314 17.8446 7.16314C18.3489 7.07674 18.8532 6.81753 19.3575 6.55834C19.3575 6.64474 19.1054 7.1631 18.9373 7.3359C18.7692 7.5951 18.517 7.76791 18.2648 7.94071C18.7692 7.85431 19.1894 7.76791 19.6937 7.50871C19.6937 7.50871 19.6937 7.50874 19.6937 7.59514C19.6937 7.59514 19.6937 7.59512 19.6937 7.68152C19.4416 8.02712 19.1054 8.37272 18.7692 8.71832C18.6851 8.80472 18.6011 8.89113 18.517 8.89113C18.517 8.89113 18.517 8.89111 18.517 8.97751C18.517 9.40951 18.517 9.84152 18.4329 10.1871C18.3489 10.8783 18.1808 11.5695 17.8446 12.2607C17.5924 12.8655 17.1722 13.4703 16.7519 14.0751C16.1636 14.7663 15.5752 15.2847 14.7347 15.7167C14.1463 16.0623 13.4739 16.3214 12.8015 16.4078C12.2131 16.4942 11.6248 16.5806 10.9524 16.5806C10.1118 16.5806 9.27131 16.3214 8.51484 15.9758C8.17864 15.803 7.84243 15.6303 7.50623 15.4575C9.10321 15.5439 10.2799 15.1983 11.3726 14.3343Z" fill="white"/>
</g>
</svg>
