<svg width="89" height="23" viewBox="0 0 89 23" fill="none" xmlns="http://www.w3.org/2000/svg">
<mask id="mask0" mask-type="alpha" maskUnits="userSpaceOnUse" x="0" y="0" width="89" height="23">
<path d="M85.1 0H3.79999C1.69999 0 0 1.69999 0 3.79999V19.2C0 21.3 1.69999 23 3.79999 23H85.1C87.2 23 88.9 21.3 88.9 19.2V3.79999C88.9 1.69999 87.2 0 85.1 0Z" fill="#50ABF1"/>
</mask>
<g mask="url(#mask0)">
<rect width="89" height="23" fill="#0274B3"/>
<rect width="89" height="23" fill="#50ABF1"/>
<path d="M27.2 10.7C27.2 9.79995 27.3 8.99996 27.6 8.39996C27.8 7.89996 28.1 7.49995 28.4 7.19995C28.8 6.79995 29.1 6.59996 29.6 6.39996C30.2 6.19996 30.8 6 31.5 6C32.8 6 33.9 6.39995 34.7 7.19995C35.5 7.99995 35.9 9.19998 35.9 10.6C35.9 12 35.5 13.2 34.7 14C33.9 14.8 32.9 15.2 31.5 15.2C30.2 15.2 29.1 14.8 28.3 14C27.6 13.3 27.2 12.2 27.2 10.7ZM29.1 10.7C29.1 11.7 29.3 12.5 29.8 13C30.3 13.5 30.9 13.8 31.6 13.8C32.3 13.8 32.9 13.5 33.4 13C33.9 12.5 34.1 11.7 34.1 10.7C34.1 9.69995 33.9 8.89996 33.4 8.39996C32.9 7.89996 32.4 7.59998 31.6 7.59998C30.8 7.59998 30.3 7.89996 29.8 8.39996C29.3 8.89996 29.1 9.59995 29.1 10.7Z" fill="white"/>
<path d="M37.3 15.2V6.19995H39V9.39996C39.5 8.79996 40.2 8.5 40.9 8.5C41.7 8.5 42.3 8.79996 42.9 9.39996C43.4 9.99996 43.7 10.8 43.7 11.9C43.7 13 43.4 13.9 42.9 14.5C42.4 15.1 41.7 15.4 41 15.4C40.6 15.4 40.3 15.3 39.9 15.1C39.5 14.9 39.2 14.6 39 14.3V15.3H37.3V15.2ZM39 11.8C39 12.5 39.1 13 39.3 13.3C39.6 13.8 40 14 40.5 14C40.9 14 41.2 13.8 41.5 13.5C41.8 13.2 41.9 12.7 41.9 12C41.9 11.3 41.8 10.7 41.5 10.4C41.2 10.1 40.9 9.89996 40.5 9.89996C40.1 9.89996 39.7 10.1 39.5 10.4C39.1 10.6 39 11.1 39 11.8Z" fill="white"/>
<path d="M44.4 13.3L46.1 13C46.2 13.3 46.3 13.6 46.5 13.8C46.7 14 47 14.1 47.4 14.1C47.8 14.1 48.2 14 48.4 13.9C48.6 13.8 48.6 13.6 48.6 13.4C48.6 13.3 48.6 13.2 48.5 13.1C48.4 13 48.2 12.9 47.9 12.9C46.5 12.6 45.6 12.3 45.3 12.1C44.8 11.7 44.5 11.3 44.5 10.6C44.5 9.99998 44.7 9.59995 45.2 9.19995C45.7 8.79995 46.3 8.59998 47.3 8.59998C48.2 8.59998 48.8 8.7 49.3 9C49.8 9.3 50 9.69999 50.2 10.3L48.6 10.6C48.5 10.3 48.4 10.2 48.2 10C48 9.9 47.7 9.79999 47.4 9.79999C46.9 9.79999 46.6 9.9 46.4 10C46.3 10.1 46.2 10.2 46.2 10.3C46.2 10.4 46.3 10.5 46.4 10.6C46.6 10.7 47.1 10.9 48 11.1C48.9 11.3 49.6 11.6 49.9 11.9C50.3 12.2 50.4 12.6 50.4 13.2C50.4 13.8 50.2 14.3 49.7 14.7C49.2 15.1 48.5 15.3 47.5 15.3C46.6 15.3 45.9 15.1 45.4 14.8C44.9 14.4 44.5 13.9 44.4 13.3Z" fill="white"/>
<path d="M55.7 13.1L57.4 13.4C57.2 14 56.8 14.5 56.4 14.8C55.9 15.1 55.3 15.3 54.6 15.3C53.5 15.3 52.6 14.9 52.1 14.2C51.7 13.6 51.5 12.9 51.5 12C51.5 10.9 51.8 10.1 52.3 9.5C52.9 8.9 53.6 8.59998 54.4 8.59998C55.4 8.59998 56.1 8.89998 56.7 9.59998C57.3 10.2 57.5 11.2 57.5 12.5H53.2C53.2 13 53.4 13.4 53.6 13.7C53.8 14 54.2 14.1 54.6 14.1C54.9 14.1 55.1 14 55.3 13.9C55.5 13.7 55.6 13.4 55.7 13.1ZM55.8 11.4C55.8 10.9 55.7 10.5 55.4 10.3C55.2 9.99999 54.9 9.89996 54.5 9.89996C54.1 9.89996 53.8 9.99999 53.6 10.3C53.4 10.6 53.2 10.9 53.2 11.4H55.8Z" fill="white"/>
<path d="M60.5 15.2H58.8V8.69995H60.4V9.59998C60.7 9.19998 60.9 8.89995 61.1 8.69995C61.3 8.59995 61.6 8.5 61.8 8.5C62.2 8.5 62.6 8.59999 62.9 8.79999L62.4 10.3C62.1 10.1 61.8 10 61.6 10C61.4 10 61.2 10.1 61 10.2C60.8 10.3 60.7 10.6 60.6 10.9C60.5 11.2 60.5 12 60.5 13.1V15.2Z" fill="white"/>
<path d="M65 15.2L62.9 8.69995H64.6L65.8 13L66.9 8.69995H68.6L69.7 13L70.9 8.69995H72.6L70.5 15.2H68.9L67.8 11L66.7 15.2H65Z" fill="white"/>
<path d="M77.8 15.2V14.2C77.6 14.5 77.3 14.8 76.9 15C76.5 15.2 76.1 15.3 75.7 15.3C75.3 15.3 74.9 15.2 74.5 15C74.1 14.8 73.9 14.5 73.7 14.2C73.5 13.9 73.5 13.4 73.5 12.8V8.69995H75.2V11.7C75.2 12.6 75.2 13.2 75.3 13.4C75.4 13.6 75.5 13.8 75.6 13.9C75.7 14 76 14.1 76.2 14.1C76.5 14.1 76.8 14 77 13.9C77.2 13.7 77.4 13.5 77.5 13.3C77.6 13.1 77.6 12.5 77.6 11.5V8.79999H79.3V15.3H77.8V15.2Z" fill="white"/>
<path d="M82.8 8.69995V15C82.8 15.8 82.7 16.4 82.6 16.8C82.5 17.1 82.3 17.4 82 17.6C81.7 17.8 81.3 17.9 80.8 17.9C80.6 17.9 80.4 17.9 80.2 17.9C80 17.9 79.8 17.8 79.6 17.8L79.9 16.3C80 16.3 80.1 16.3 80.1 16.3C80.2 16.3 80.2 16.3 80.3 16.3C80.5 16.3 80.6 16.3 80.7 16.2C80.8 16.1 80.9 16 80.9 15.9C80.9 15.8 81 15.5 81 14.9V8.69995H82.8V8.69995ZM81.1 7.79999V6.19995H82.8V7.79999H81.1Z" fill="white"/>
<path d="M11.3726 14.3343C10.7002 14.3343 10.1959 14.0751 9.69158 13.6431C9.35537 13.3839 9.18726 12.9519 9.01916 12.6063C9.35537 12.6927 9.77563 12.6927 10.1118 12.5199C9.52347 12.3471 9.01915 12.0879 8.68294 11.5695C8.34674 11.0511 8.09459 10.5327 8.09459 9.92788C8.43079 10.1007 8.85105 10.2735 9.18726 10.2735C8.5989 9.8415 8.17864 9.23673 8.09459 8.45913C8.01053 7.85434 8.17864 7.3359 8.4308 6.9039C9.77563 8.54549 11.5407 9.40952 13.5579 9.58232C13.5579 9.49592 13.558 9.40953 13.4739 9.32313C13.3899 8.89113 13.4739 8.45913 13.642 8.02714C13.9782 7.24954 14.5666 6.6447 15.4071 6.47191C16.3317 6.29911 17.0881 6.55835 17.7605 7.16314C17.7605 7.16314 17.7605 7.16314 17.8446 7.16314C18.3489 7.07674 18.8532 6.81753 19.3575 6.55834C19.3575 6.64474 19.1054 7.1631 18.9373 7.3359C18.7692 7.5951 18.517 7.76791 18.2648 7.94071C18.7692 7.85431 19.1894 7.76791 19.6937 7.50871C19.6937 7.50871 19.6937 7.50874 19.6937 7.59514C19.6937 7.59514 19.6937 7.59512 19.6937 7.68152C19.4416 8.02712 19.1054 8.37272 18.7692 8.71832C18.6851 8.80472 18.6011 8.89113 18.517 8.89113C18.517 8.89113 18.517 8.89111 18.517 8.97751C18.517 9.40951 18.517 9.84152 18.4329 10.1871C18.3489 10.8783 18.1808 11.5695 17.8446 12.2607C17.5924 12.8655 17.1722 13.4703 16.7519 14.0751C16.1636 14.7663 15.5752 15.2847 14.7347 15.7167C14.1463 16.0623 13.4739 16.3214 12.8015 16.4078C12.2131 16.4942 11.6248 16.5806 10.9524 16.5806C10.1118 16.5806 9.27131 16.3214 8.51484 15.9758C8.17864 15.803 7.84243 15.6303 7.50623 15.4575C9.10321 15.5439 10.2799 15.1983 11.3726 14.3343Z" fill="white"/>
</g>
</svg>
