<svg width="72" height="23" viewBox="0 0 72 23" fill="none" xmlns="http://www.w3.org/2000/svg">
<mask id="mask0" mask-type="alpha" maskUnits="userSpaceOnUse" x="0" y="0" width="72" height="23">
<path d="M68.1 0H3.79999C1.69999 0 0 1.69999 0 3.79999V19.2C0 21.3 1.69999 23 3.79999 23H68.1C70.2 23 71.9 21.3 71.9 19.2V3.79999C71.9 1.69999 70.2 0 68.1 0Z" fill="#50ABF1"/>
</mask>
<g mask="url(#mask0)">
<rect width="72" height="23" fill="#0274B3"/>
<rect width="72" height="23" fill="#50ABF1"/>
<path d="M27.1 12.3L28.9 12.1C29 12.7 29.2 13.1 29.5 13.4C29.8 13.7 30.3 13.8 30.8 13.8C31.4 13.8 31.8 13.7 32.1 13.4C32.4 13.2 32.5 12.9 32.5 12.5C32.5 12.3 32.4 12.1 32.3 12C32.2 11.9 32 11.7 31.6 11.6C31.4 11.5 30.9 11.4 30.2 11.2C29.2 11 28.5 10.7 28.2 10.3C27.6 9.79999 27.4 9.2 27.4 8.5C27.4 8 27.5 7.59995 27.8 7.19995C28.1 6.79995 28.4 6.49999 28.9 6.29999C29.4 6.09999 30 6 30.7 6C31.8 6 32.7 6.19995 33.2 6.69995C33.7 7.19995 34.1 7.89995 34.1 8.69995L32.3 8.79999C32.2 8.29999 32.1 7.99999 31.8 7.79999C31.5 7.59999 31.2 7.5 30.7 7.5C30.2 7.5 29.8 7.59999 29.5 7.79999C29.3 7.89999 29.2 8.09996 29.2 8.39996C29.2 8.59996 29.3 8.79996 29.5 8.89996C29.7 9.09996 30.3 9.3 31.2 9.5C32.1 9.7 32.7 9.89998 33.2 10.1C33.6 10.3 34 10.6 34.2 11C34.4 11.4 34.6 11.9 34.6 12.4C34.6 12.9 34.5 13.4 34.2 13.8C33.9 14.2 33.5 14.6 33 14.8C32.5 15 31.8 15.1 31.1 15.1C30 15.1 29.1 14.8 28.5 14.3C27.6 14 27.3 13.3 27.1 12.3Z" fill="white"/>
<path d="M39.7 13.1L41.4 13.4C41.2 14 40.8 14.5 40.4 14.8C39.9 15.1 39.3 15.3 38.6 15.3C37.5 15.3 36.6 14.9 36.1 14.2C35.7 13.6 35.5 12.9 35.5 12C35.5 10.9 35.8 10.1 36.3 9.5C36.9 8.9 37.6 8.59998 38.4 8.59998C39.4 8.59998 40.1 8.89998 40.7 9.59998C41.3 10.2 41.5 11.2 41.5 12.5H37.2C37.2 13 37.4 13.4 37.6 13.7C37.9 14 38.2 14.1 38.6 14.1C38.9 14.1 39.1 14 39.3 13.9C39.5 13.7 39.6 13.4 39.7 13.1ZM39.8 11.4C39.8 10.9 39.7 10.5 39.4 10.3C39.2 9.99999 38.9 9.89996 38.5 9.89996C38.1 9.89996 37.8 9.99999 37.6 10.3C37.4 10.6 37.2 10.9 37.2 11.4H39.8Z" fill="white"/>
<path d="M42.7 15.6L44.7 15.8C44.7 16 44.8 16.2 44.9 16.3C45.1 16.4 45.3 16.5 45.7 16.5C46.1 16.5 46.5 16.4 46.7 16.3C46.9 16.2 47 16.1 47 15.9C47.1 15.8 47.1 15.5 47.1 15.1V14.2C46.6 14.9 45.9 15.3 45.2 15.3C44.3 15.3 43.6 14.9 43.1 14.2C42.7 13.6 42.5 12.9 42.5 12C42.5 10.9 42.8 10.1 43.3 9.5C43.8 8.9 44.5 8.59998 45.3 8.59998C46.1 8.59998 46.8 8.99995 47.3 9.69995V8.79999H48.9V14.6C48.9 15.4 48.8 15.9 48.7 16.3C48.6 16.7 48.4 17 48.2 17.2C48 17.4 47.7 17.6 47.3 17.7C46.9 17.8 46.4 17.9 45.9 17.9C44.8 17.9 44 17.7 43.6 17.3C43.1 16.9 42.9 16.4 42.9 15.9C42.7 15.7 42.7 15.7 42.7 15.6ZM44.3 11.8C44.3 12.5 44.4 13 44.7 13.3C45 13.6 45.3 13.8 45.7 13.8C46.1 13.8 46.5 13.6 46.8 13.3C47.1 13 47.2 12.5 47.2 11.8C47.2 11.1 47.1 10.6 46.8 10.3C46.5 9.99999 46.2 9.79999 45.7 9.79999C45.3 9.79999 44.9 9.99999 44.7 10.3C44.4 10.6 44.3 11.1 44.3 11.8Z" fill="white"/>
<path d="M54.8 15.2V14.2C54.6 14.5 54.3 14.8 53.9 15C53.5 15.2 53.1 15.3 52.7 15.3C52.3 15.3 51.9 15.2 51.5 15C51.1 14.8 50.9 14.5 50.7 14.2C50.5 13.9 50.5 13.4 50.5 12.8V8.69995H52.2V11.7C52.2 12.6 52.2 13.2 52.3 13.4C52.4 13.6 52.5 13.8 52.6 13.9C52.7 14 53 14.1 53.2 14.1C53.5 14.1 53.8 14 54 13.9C54.2 13.7 54.4 13.5 54.5 13.3C54.6 13.1 54.6 12.5 54.6 11.5V8.79999H56.3V15.3H54.8V15.2Z" fill="white"/>
<path d="M58.2 7.79999V6.19995H59.9V7.79999H58.2ZM58.2 15.2V8.69995H59.9V15.2H58.2Z" fill="white"/>
<path d="M63.3 15.2H61.6V8.69995H63.2V9.59998C63.5 9.19998 63.7 8.89995 63.9 8.69995C64.1 8.59995 64.4001 8.5 64.6001 8.5C65.0001 8.5 65.4 8.59999 65.7 8.79999L65.2 10.3C64.9 10.1 64.6 10 64.4 10C64.2 10 64 10.1 63.8 10.2C63.6 10.3 63.5 10.6 63.4 10.9C63.3 11.2 63.3 12 63.3 13.1V15.2Z" fill="white"/>
<path d="M11.3726 14.3343C10.7002 14.3343 10.1959 14.0751 9.69158 13.6431C9.35537 13.3839 9.18726 12.9519 9.01916 12.6063C9.35537 12.6927 9.77563 12.6927 10.1118 12.5199C9.52347 12.3471 9.01915 12.0879 8.68294 11.5695C8.34674 11.0511 8.09459 10.5327 8.09459 9.92788C8.43079 10.1007 8.85105 10.2735 9.18726 10.2735C8.5989 9.8415 8.17864 9.23673 8.09459 8.45913C8.01053 7.85434 8.17864 7.3359 8.4308 6.9039C9.77563 8.54549 11.5407 9.40952 13.5579 9.58232C13.5579 9.49592 13.558 9.40953 13.4739 9.32313C13.3899 8.89113 13.4739 8.45913 13.642 8.02714C13.9782 7.24954 14.5666 6.6447 15.4071 6.47191C16.3317 6.29911 17.0881 6.55835 17.7605 7.16314C17.7605 7.16314 17.7605 7.16314 17.8446 7.16314C18.3489 7.07674 18.8532 6.81753 19.3575 6.55834C19.3575 6.64474 19.1054 7.1631 18.9373 7.3359C18.7692 7.5951 18.517 7.76791 18.2648 7.94071C18.7692 7.85431 19.1894 7.76791 19.6937 7.50871C19.6937 7.50871 19.6937 7.50874 19.6937 7.59514C19.6937 7.59514 19.6937 7.59512 19.6937 7.68152C19.4416 8.02712 19.1054 8.37272 18.7692 8.71832C18.6851 8.80472 18.6011 8.89113 18.517 8.89113C18.517 8.89113 18.517 8.89111 18.517 8.97751C18.517 9.40951 18.517 9.84152 18.4329 10.1871C18.3489 10.8783 18.1808 11.5695 17.8446 12.2607C17.5924 12.8655 17.1722 13.4703 16.7519 14.0751C16.1636 14.7663 15.5752 15.2847 14.7347 15.7167C14.1463 16.0623 13.4739 16.3214 12.8015 16.4078C12.2131 16.4942 11.6248 16.5806 10.9524 16.5806C10.1118 16.5806 9.27131 16.3214 8.51484 15.9758C8.17864 15.803 7.84243 15.6303 7.50623 15.4575C9.10321 15.5439 10.2799 15.1983 11.3726 14.3343Z" fill="white"/>
</g>
</svg>
