<svg width="86" height="23" viewBox="0 0 86 23" fill="none" xmlns="http://www.w3.org/2000/svg">
<mask id="mask0" mask-type="alpha" maskUnits="userSpaceOnUse" x="0" y="0" width="86" height="23">
<path d="M82.1 0H3.79999C1.69999 0 0 1.70005 0 3.80005V19.2C0 21.3 1.69999 23 3.79999 23H82.1C84.2 23 85.9 21.3 85.9 19.2V3.80005C85.9 1.70005 84.2 0 82.1 0Z" fill="#50ABF1"/>
</mask>
<g mask="url(#mask0)">
<rect width="86" height="23" fill="#0274B3"/>
<rect width="86" height="23" fill="#50ABF1"/>
<path d="M33.3 11.7L35.1 12.3C34.8 13.3 34.4 14 33.8 14.5C33.2 15 32.4 15.2 31.4 15.2C30.2 15.2 29.2 14.8 28.5 14C27.7 13.2 27.4 12.1 27.4 10.7C27.4 9.20001 27.8 8.00001 28.6 7.20001C29.4 6.40001 30.4 6 31.6 6C32.7 6 33.6 6.3 34.3 7C34.7 7.4 35 7.90001 35.2 8.70001L33.4 9.10004C33.3 8.60004 33.1 8.3 32.7 8C32.4 7.7 32 7.60004 31.5 7.60004C30.8 7.60004 30.3 7.79999 29.9 8.29999C29.5 8.79999 29.3 9.50004 29.3 10.6C29.3 11.7 29.5 12.5 29.9 13C30.3 13.5 30.8 13.7 31.5 13.7C32 13.7 32.4 13.5 32.7 13.2C32.9 12.8 33.2 12.4 33.3 11.7Z" fill="white"/>
<path d="M37.1 8.5H42.9V15H41.2V9.90002H38.9V12.8C38.9 13.5 38.8 14.1 38.6 14.4C38.4 14.7 38.2 14.9 38 15C37.8 15.1 37.5 15.1 37 15.1C36.7 15.1 36.4 15.1 35.9 15V13.7C35.9 13.7 36 13.7 36.2 13.7C36.4 13.7 36.5 13.7 36.6 13.7C36.8 13.7 37 13.6 37 13.5C37.1 13.3 37.1 12.9 37.1 12.2V8.5V8.5Z" fill="white"/>
<path d="M48.2 12.9L49.9 13.2C49.7 13.8 49.3 14.3 48.9 14.6C48.4 14.9 47.8 15.1 47.1 15.1C46 15.1 45.1 14.7 44.6 14C44.2 13.4 44 12.7 44 11.8C44 10.7 44.3 9.89999 44.8 9.29999C45.4 8.69999 46.1 8.40002 46.9 8.40002C47.9 8.40002 48.6 8.70002 49.2 9.40002C49.8 10 50 11 50 12.3H45.7C45.7 12.8 45.9 13.2 46.1 13.5C46.3 13.8 46.7 13.9 47.1 13.9C47.4 13.9 47.6 13.8 47.8 13.7C47.9 13.5 48.1 13.3 48.2 12.9ZM48.3 11.2C48.3 10.7 48.2 10.3 47.9 10.1C47.7 9.80004 47.4 9.70001 47 9.70001C46.6 9.70001 46.3 9.80004 46.1 10.1C45.9 10.4 45.7 10.7 45.7 11.2H48.3Z" fill="white"/>
<path d="M56.7 15H51.8V16.7H50.4V13.6H51.1C51.4 13.3 51.6 12.8 51.8 12.1C52 11.4 52.1 10.2 52.1 8.5H57.3V13.6H58V16.7H56.6V15H56.7ZM55.8 13.6V9.90002H53.7C53.6 11.7 53.3 12.9 52.8 13.6H55.8Z" fill="white"/>
<path d="M59.3 8.5H61V12.6L63.6 8.5H65.3V15H63.7V10.8L61 15H59.3V8.5V8.5Z" fill="white"/>
<path d="M66.3 8.5H72.2V9.90002H70.1V15H68.4V9.90002H66.3V8.5V8.5Z" fill="white"/>
<path d="M73.2 8.5H74.9V11.2H76.6C77.3 11.2 77.8 11.2 78.2 11.3C78.6 11.4 78.9 11.6 79.1 11.9C79.3 12.2 79.5 12.6 79.5 13C79.5 13.6 79.3 14.1 78.9 14.4C78.5 14.7 77.8 14.9 77 14.9H73.3V8.5H73.2ZM74.9 13.9H76.5C77 13.9 77.3 13.8 77.5 13.7C77.6 13.5 77.7 13.3 77.7 13.1C77.7 12.8 77.6 12.6 77.3 12.5C77.1 12.4 76.6 12.3 76 12.3H74.9V13.9Z" fill="white"/>
<path d="M11.3726 14.3343C10.7002 14.3343 10.1959 14.0751 9.69158 13.6431C9.35537 13.3839 9.18726 12.9519 9.01916 12.6063C9.35537 12.6927 9.77563 12.6926 10.1118 12.5198C9.52347 12.3471 9.01915 12.0879 8.68294 11.5695C8.34674 11.0511 8.09459 10.5327 8.09459 9.92787C8.43079 10.1007 8.85105 10.2735 9.18726 10.2735C8.5989 9.84149 8.17864 9.23671 8.09459 8.45912C8.01053 7.85432 8.17864 7.33588 8.4308 6.90389C9.77563 8.54548 11.5407 9.4095 13.5579 9.5823C13.5579 9.4959 13.558 9.40951 13.4739 9.32311C13.3899 8.89112 13.4739 8.45912 13.642 8.02712C13.9782 7.24953 14.5666 6.64469 15.4071 6.47189C16.3317 6.29909 17.0881 6.55833 17.7605 7.16313C17.7605 7.16313 17.7605 7.16313 17.8446 7.16313C18.3489 7.07673 18.8532 6.81752 19.3575 6.55832C19.3575 6.64472 19.1054 7.16309 18.9373 7.33588C18.7692 7.59508 18.517 7.76789 18.2648 7.94069C18.7692 7.85429 19.1894 7.76789 19.6937 7.50869C19.6937 7.50869 19.6937 7.50873 19.6937 7.59512C19.6937 7.59512 19.6937 7.5951 19.6937 7.6815C19.4416 8.0271 19.1054 8.37271 18.7692 8.71831C18.6851 8.80471 18.6011 8.89112 18.517 8.89112C18.517 8.89112 18.517 8.89109 18.517 8.97749C18.517 9.40949 18.517 9.84151 18.4329 10.1871C18.3489 10.8783 18.1808 11.5695 17.8446 12.2607C17.5924 12.8655 17.1722 13.4703 16.7519 14.0751C16.1636 14.7663 15.5752 15.2846 14.7347 15.7166C14.1463 16.0622 13.4739 16.3214 12.8015 16.4078C12.2131 16.4942 11.6248 16.5806 10.9524 16.5806C10.1118 16.5806 9.27131 16.3214 8.51484 15.9758C8.17864 15.803 7.84243 15.6302 7.50623 15.4575C9.10321 15.5438 10.2799 15.1983 11.3726 14.3343Z" fill="white"/>
</g>
</svg>
