<svg width="93" height="23" viewBox="0 0 93 23" fill="none" xmlns="http://www.w3.org/2000/svg">
<mask id="mask0" mask-type="alpha" maskUnits="userSpaceOnUse" x="0" y="0" width="93" height="23">
<path d="M89.1 0H3.79999C1.69999 0 0 1.69999 0 3.79999V19.2C0 21.3 1.69999 23 3.79999 23H89.1C91.2 23 92.9 21.3 92.9 19.2V3.79999C92.9 1.69999 91.2 0 89.1 0Z" fill="#50ABF1"/>
</mask>
<g mask="url(#mask0)">
<rect width="93" height="23" fill="#0274B3"/>
<rect width="93" height="23" fill="#50ABF1"/>
<path d="M29.6 15V7.60004H26.9V6.10004H34V7.60004H31.3V15H29.6Z" fill="white"/>
<path d="M35.6 10.5L34 10.2C34.2 9.60001 34.5 9.10005 34.9 8.80005C35.3 8.50005 36 8.30005 36.8 8.30005C37.6 8.30005 38.1 8.40004 38.5 8.60004C38.9 8.80004 39.1 9.00005 39.3 9.30005C39.5 9.60005 39.5 10.1 39.5 10.8V12.8C39.5 13.4 39.5 13.8 39.6 14.1C39.7 14.4 39.8 14.7 39.9 15H38.2C38.2 14.9 38.1 14.7 38 14.5C38 14.4 38 14.3 37.9 14.3C37.6 14.6 37.3 14.8 37 14.9C36.7 15 36.3 15.1 35.9 15.1C35.2 15.1 34.7 14.9 34.3 14.6C33.9 14.2 33.7 13.8 33.7 13.2C33.7 12.8 33.8 12.5 34 12.2C34.2 11.9 34.4 11.7 34.7 11.5C35 11.3 35.5 11.2 36.1 11.1C36.9 10.9 37.5 10.8 37.8 10.7V10.5C37.8 10.2 37.7 9.90005 37.6 9.80005C37.5 9.70005 37.1 9.60004 36.7 9.60004C36.4 9.60004 36.2 9.70005 36 9.80005C35.8 9.90005 35.7 10.2 35.6 10.5ZM37.9 11.9C37.7 12 37.3 12.1 36.9 12.2C36.5 12.3 36.1 12.4 36 12.5C35.8 12.7 35.7 12.9 35.7 13.1C35.7 13.3 35.8 13.5 36 13.7C36.2 13.9 36.4 14 36.7 14C37 14 37.3 13.9 37.6 13.7C37.8 13.5 37.9 13.4 38 13.1C38 13 38.1 12.7 38.1 12.3V11.9H37.9Z" fill="white"/>
<path d="M41.2 15V6H42.9V10.8L44.9 8.5H47L44.8 10.9L47.2 15H45.3L43.7 12.1L42.9 12.9V15H41.2Z" fill="white"/>
<path d="M48.2 7.60004V6H49.9V7.60004H48.2ZM48.2 15V8.5H49.9V15H48.2Z" fill="white"/>
<path d="M51.7 8.5H53.3V9.5C53.5 9.2 53.8 8.90001 54.1 8.70001C54.5 8.50001 54.8 8.40002 55.3 8.40002C56.1 8.40002 56.7 8.70005 57.2 9.30005C57.7 9.90005 58 10.7 58 11.8C58 12.9 57.7 13.7 57.2 14.3C56.7 14.9 56 15.2 55.3 15.2C54.9 15.2 54.6 15.1 54.3 15C54 14.9 53.7 14.6 53.4 14.3V17.6H51.7V8.5ZM53.4 11.6C53.4 12.3 53.5 12.9 53.8 13.2C54.1 13.5 54.4 13.7 54.9 13.7C55.3 13.7 55.6 13.5 55.9 13.2C56.2 12.9 56.3 12.4 56.3 11.6C56.3 10.9 56.2 10.4 55.9 10.1C55.6 9.80004 55.3 9.60004 54.9 9.60004C54.5 9.60004 54.1 9.80004 53.9 10.1C53.5 10.5 53.4 11 53.4 11.6Z" fill="white"/>
<path d="M66.6 12.9L68.3 13.2C68.1 13.8 67.7 14.3 67.3 14.6C66.8 14.9 66.2 15.1 65.5 15.1C64.4 15.1 63.5 14.7 63 14C62.6 13.4 62.4 12.7 62.4 11.8C62.4 10.7 62.7 9.90005 63.2 9.30005C63.8 8.70005 64.5 8.40002 65.3 8.40002C66.3 8.40002 67 8.70002 67.6 9.40002C68.2 10 68.4 11 68.4 12.3H64.1C64.1 12.8 64.3 13.2 64.5 13.5C64.7 13.8 65.1 13.9 65.5 13.9C65.8 13.9 66 13.8 66.2 13.7C66.4 13.5 66.5 13.2 66.6 12.9ZM66.7 11.2C66.7 10.7 66.6 10.3 66.3 10.1C66.1 9.80004 65.8 9.70001 65.4 9.70001C65 9.70001 64.7 9.80004 64.5 10.1C64.3 10.4 64.1 10.7 64.1 11.2H66.7Z" fill="white"/>
<path d="M75.8 15H74.2V14C73.9 14.4 73.6 14.6 73.3 14.8C72.9 15 72.6 15.1 72.2 15.1C71.5 15.1 70.8 14.8 70.3 14.2C69.8 13.6 69.5 12.8 69.5 11.7C69.5 10.6 69.8 9.80001 70.3 9.20001C70.8 8.60001 71.5 8.30005 72.3 8.30005C73 8.30005 73.7 8.60001 74.2 9.20001V6H75.9V15H75.8ZM71.2 11.6C71.2 12.3 71.3 12.8 71.5 13.1C71.8 13.5 72.2 13.8 72.7 13.8C73.1 13.8 73.4 13.6 73.7 13.3C74 13 74.1 12.5 74.1 11.8C74.1 11.1 74 10.5 73.7 10.2C73.4 9.90001 73.1 9.70001 72.7 9.70001C72.3 9.70001 72 9.90001 71.7 10.2C71.3 10.5 71.2 10.9 71.2 11.6Z" fill="white"/>
<path d="M77.4 7.60004V6H79.1V7.60004H77.4ZM77.4 15V8.5H79.1V15H77.4Z" fill="white"/>
<path d="M86.8 15H85.1V11.7C85.1 11 85.1 10.5 85 10.3C84.9 10.1 84.8 9.90005 84.6 9.80005C84.4 9.70005 84.2 9.60004 84 9.60004C83.7 9.60004 83.4 9.70005 83.2 9.80005C83 9.90005 82.8 10.2 82.7 10.4C82.6 10.7 82.6 11.2 82.6 11.9V14.8H80.9V8.30005H82.5V9.30005C83.1 8.60005 83.8 8.20001 84.6 8.20001C85 8.20001 85.3 8.30002 85.6 8.40002C85.9 8.50002 86.2 8.70002 86.3 8.90002C86.4 9.10002 86.6 9.40004 86.6 9.60004C86.7 9.90004 86.7 10.3 86.7 10.8V15H86.8Z" fill="white"/>
<path d="M11.3726 14.3343C10.7002 14.3343 10.1959 14.0751 9.69158 13.6431C9.35537 13.3839 9.18726 12.9519 9.01916 12.6063C9.35537 12.6927 9.77563 12.6926 10.1118 12.5198C9.52347 12.3471 9.01915 12.0879 8.68294 11.5695C8.34674 11.0511 8.09459 10.5327 8.09459 9.92787C8.43079 10.1007 8.85105 10.2735 9.18726 10.2735C8.5989 9.84149 8.17864 9.23671 8.09459 8.45912C8.01053 7.85432 8.17864 7.33588 8.4308 6.90389C9.77563 8.54548 11.5407 9.4095 13.5579 9.5823C13.5579 9.4959 13.558 9.40951 13.4739 9.32311C13.3899 8.89112 13.4739 8.45912 13.642 8.02712C13.9782 7.24953 14.5666 6.64469 15.4071 6.47189C16.3317 6.29909 17.0881 6.55833 17.7605 7.16313C17.7605 7.16313 17.7605 7.16313 17.8446 7.16313C18.3489 7.07673 18.8532 6.81752 19.3575 6.55832C19.3575 6.64472 19.1054 7.16309 18.9373 7.33588C18.7692 7.59508 18.517 7.76789 18.2648 7.94069C18.7692 7.85429 19.1894 7.76789 19.6937 7.50869C19.6937 7.50869 19.6937 7.50873 19.6937 7.59512C19.6937 7.59512 19.6937 7.5951 19.6937 7.6815C19.4416 8.0271 19.1054 8.37271 18.7692 8.71831C18.6851 8.80471 18.6011 8.89112 18.517 8.89112C18.517 8.89112 18.517 8.89109 18.517 8.97749C18.517 9.40949 18.517 9.84151 18.4329 10.1871C18.3489 10.8783 18.1808 11.5695 17.8446 12.2607C17.5924 12.8655 17.1722 13.4703 16.7519 14.0751C16.1636 14.7663 15.5752 15.2846 14.7347 15.7166C14.1463 16.0622 13.4739 16.3214 12.8015 16.4078C12.2131 16.4942 11.6248 16.5806 10.9524 16.5806C10.1118 16.5806 9.27131 16.3214 8.51484 15.9758C8.17864 15.803 7.84243 15.6302 7.50623 15.4575C9.10321 15.5438 10.2799 15.1983 11.3726 14.3343Z" fill="white"/>
</g>
</svg>
