<svg width="87" height="23" viewBox="0 0 87 23" fill="none" xmlns="http://www.w3.org/2000/svg">
<mask id="mask0" mask-type="alpha" maskUnits="userSpaceOnUse" x="0" y="0" width="87" height="23">
<path d="M83.1 0H3.79999C1.69999 0 0 1.69999 0 3.79999V19.2C0 21.3 1.69999 23 3.79999 23H83.1C85.2 23 86.9 21.3 86.9 19.2V3.79999C86.9 1.69999 85.2 0 83.1 0Z" fill="#50ABF1"/>
</mask>
<g mask="url(#mask0)">
<rect width="87" height="23" fill="#0274B3"/>
<rect width="87" height="23" fill="#50ABF1"/>
<path d="M33.3 10.6L31.6 10.9C31.5 10.6 31.4 10.3 31.2 10.1C31 9.89998 30.7 9.79999 30.4 9.79999C30 9.79999 29.6 9.89995 29.4 10.2C29.1 10.5 29 11 29 11.7C29 12.5 29.1 13 29.4 13.3C29.7 13.6 30 13.8 30.4 13.8C30.7 13.8 31 13.7 31.2 13.5C31.4 13.3 31.6 13 31.6 12.5L33.3 12.8C33.1 13.6 32.8 14.2 32.3 14.6C31.8 15 31.1 15.2 30.3 15.2C29.4 15.2 28.6 14.9 28 14.3C27.4 13.7 27.2 12.9 27.2 11.8C27.2 10.7 27.5 9.89999 28 9.29999C28.6 8.69999 29.3 8.39996 30.3 8.39996C31.1 8.39996 31.7 8.59996 32.2 8.89996C32.7 9.39996 33.1 9.89998 33.3 10.6Z" fill="white"/>
<path d="M35 8.69995H40.8V15.2H39.1V10.1H36.8V13C36.8 13.7 36.7 14.3 36.5 14.6C36.3 14.9 36.1 15.1 35.9 15.2C35.7 15.3 35.4 15.3 34.9 15.3C34.6 15.3 34.3 15.3 33.8 15.2V13.9C33.8 13.9 33.9 13.9 34.1 13.9C34.3 13.9 34.4 13.9 34.5 13.9C34.7 13.9 34.9 13.8 34.9 13.7C35 13.5 35 13.1 35 12.4V8.69995V8.69995Z" fill="white"/>
<path d="M42.5 7.79999V6.19995H44.2V7.79999H42.5ZM42.5 15.2V8.69995H44.2V15.2H42.5Z" fill="white"/>
<path d="M51.4 15.2H46.5V16.9H45.1V13.8H45.8C46.1 13.5 46.3 13 46.5 12.3C46.7 11.6 46.8 10.4 46.8 8.69995H52V13.8H52.7V16.9H51.3V15.2H51.4ZM50.4 13.8V10.1H48.3C48.2 11.9 47.9 13.1 47.4 13.8H50.4Z" fill="white"/>
<path d="M53.3 8.69995H55.1L56.7 13.3L58.2 8.69995H60L57.7 14.9L57.3 16C57.1 16.4 57 16.7 56.9 16.9C56.8 17.1 56.6 17.3 56.4 17.4C56.2 17.5 56 17.6 55.7 17.7C55.4 17.8 55.1 17.8 54.8 17.8C54.5 17.8 54.1 17.8 53.8 17.7L53.6 16.4C53.9 16.5 54.1 16.5 54.3 16.5C54.7 16.5 55 16.4 55.2 16.1C55.4 15.9 55.5 15.6 55.6 15.2L53.3 8.69995Z" fill="white"/>
<path d="M61 8.69995H62.7V12.8L65.3 8.69995H67V15.2H65.4V11L62.7 15.2H61V8.69995V8.69995ZM65.1 6H65.9C65.9 6.6 65.7 6.99999 65.3 7.29999C65 7.59999 64.5 7.79999 64 7.79999C63.5 7.79999 63 7.59999 62.7 7.29999C62.4 6.99999 62.2 6.5 62.1 6H62.9C62.9 6.3 63 6.49995 63.2 6.69995C63.4 6.79995 63.6 6.89996 64 6.89996C64.4 6.89996 64.6 6.79995 64.8 6.69995C65 6.59995 65.1 6.3 65.1 6Z" fill="white"/>
<path d="M68 8.69995H73.9V10.1H71.8V15.2H70.1V10.1H68V8.69995V8.69995Z" fill="white"/>
<path d="M78.6 13.1L80.3 13.4C80.1 14 79.7 14.5 79.3 14.8C78.8 15.1 78.2 15.3 77.5 15.3C76.4 15.3 75.5 14.9 75 14.2C74.6 13.6 74.4 12.9 74.4 12C74.4 10.9 74.7 10.1 75.2 9.5C75.8 8.9 76.5 8.59998 77.3 8.59998C78.3 8.59998 79 8.89998 79.6 9.59998C80.2 10.2 80.4 11.2 80.4 12.5H76.1C76.1 13 76.3 13.4 76.5 13.7C76.7 14 77.1 14.1 77.5 14.1C77.8 14.1 78 14 78.2 13.9C78.4 13.7 78.5 13.4 78.6 13.1ZM78.7 11.4C78.7 10.9 78.6 10.5 78.3 10.3C78.1 9.99999 77.8 9.89996 77.4 9.89996C77 9.89996 76.7 9.99999 76.5 10.3C76.3 10.6 76.1 10.9 76.1 11.4H78.7Z" fill="white"/>
<path d="M11.3726 14.3343C10.7002 14.3343 10.1959 14.0751 9.69158 13.6431C9.35537 13.3839 9.18726 12.9519 9.01916 12.6063C9.35537 12.6927 9.77563 12.6926 10.1118 12.5198C9.52347 12.3471 9.01915 12.0879 8.68294 11.5695C8.34674 11.0511 8.09459 10.5327 8.09459 9.92787C8.43079 10.1007 8.85105 10.2735 9.18726 10.2735C8.5989 9.84149 8.17864 9.23671 8.09459 8.45912C8.01053 7.85432 8.17864 7.33588 8.4308 6.90389C9.77563 8.54548 11.5407 9.4095 13.5579 9.5823C13.5579 9.4959 13.558 9.40951 13.4739 9.32311C13.3899 8.89112 13.4739 8.45912 13.642 8.02712C13.9782 7.24953 14.5666 6.64469 15.4071 6.47189C16.3317 6.29909 17.0881 6.55833 17.7605 7.16313C17.7605 7.16313 17.7605 7.16313 17.8446 7.16313C18.3489 7.07673 18.8532 6.81752 19.3575 6.55832C19.3575 6.64472 19.1054 7.16309 18.9373 7.33588C18.7692 7.59508 18.517 7.76789 18.2648 7.94069C18.7692 7.85429 19.1894 7.76789 19.6937 7.50869C19.6937 7.50869 19.6937 7.50873 19.6937 7.59512C19.6937 7.59512 19.6937 7.5951 19.6937 7.6815C19.4416 8.0271 19.1054 8.37271 18.7692 8.71831C18.6851 8.80471 18.6011 8.89112 18.517 8.89112C18.517 8.89112 18.517 8.89109 18.517 8.97749C18.517 9.40949 18.517 9.84151 18.4329 10.1871C18.3489 10.8783 18.1808 11.5695 17.8446 12.2607C17.5924 12.8655 17.1722 13.4703 16.7519 14.0751C16.1636 14.7663 15.5752 15.2846 14.7347 15.7166C14.1463 16.0622 13.4739 16.3214 12.8015 16.4078C12.2131 16.4942 11.6248 16.5806 10.9524 16.5806C10.1118 16.5806 9.27131 16.3214 8.51484 15.9758C8.17864 15.803 7.84243 15.6302 7.50623 15.4575C9.10321 15.5438 10.2799 15.1983 11.3726 14.3343Z" fill="white"/>
</g>
</svg>
