<svg width="84" height="23" viewBox="0 0 84 23" fill="none" xmlns="http://www.w3.org/2000/svg">
<mask id="mask0" mask-type="alpha" maskUnits="userSpaceOnUse" x="0" y="0" width="84" height="23">
<path d="M80.1 0H3.79999C1.69999 0 0 1.69999 0 3.79999V19.2C0 21.3 1.69999 23 3.79999 23H80.1C82.2 23 83.9 21.3 83.9 19.2V3.79999C83.9 1.69999 82.2 0 80.1 0Z" fill="#50ABF1"/>
</mask>
<g mask="url(#mask0)">
<rect width="84" height="23" fill="#0274B3"/>
<rect width="84" height="23" fill="#50ABF1"/>
<path d="M29.6 16V8.59998H26.9V7.09998H34V8.59998H31.3V16H29.6Z" fill="white"/>
<path d="M37 7V10.3C37.6 9.69999 38.2 9.29999 39 9.29999C39.4 9.29999 39.8 9.4 40.1 9.5C40.4 9.6 40.7 9.79998 40.8 10.1C40.9 10.4 41.1 10.6 41.1 10.9C41.1 11.2 41.2 11.6 41.2 12.2V16H39.5V12.6C39.5 11.9 39.5 11.5 39.4 11.3C39.3 11.1 39.2 11 39.1 10.9C38.9 10.8 38.7 10.7 38.5 10.7C38.2 10.7 38 10.8 37.7 10.9C37.4 11 37.3 11.2 37.2 11.5C37.1 11.8 37 12.2 37 12.7V16H35.3V7H37Z" fill="white"/>
<path d="M46.6 13.9L48.3 14.2C48.1 14.8 47.7 15.3 47.3 15.6C46.8 15.9 46.2 16.1 45.5 16.1C44.4 16.1 43.5 15.7 43 15C42.6 14.4 42.4 13.7 42.4 12.8C42.4 11.7 42.7 10.9 43.2 10.3C43.8 9.69999 44.5 9.39996 45.3 9.39996C46.3 9.39996 47 9.69996 47.6 10.4C48.2 11 48.4 12 48.4 13.3H44.1C44.1 13.8 44.3 14.2 44.5 14.5C44.7 14.8 45.1 14.9 45.5 14.9C45.8 14.9 46 14.8 46.2 14.7C46.4 14.4 46.6 14.2 46.6 13.9ZM46.7 12.1C46.7 11.6 46.6 11.2 46.3 11C46.1 10.7 45.8 10.6 45.4 10.6C45 10.6 44.7 10.7 44.5 11C44.3 11.3 44.1 11.6 44.1 12.1H46.7Z" fill="white"/>
<path d="M49.5 12.6C49.5 12 49.6 11.5 49.9 10.9C50.2 10.4 50.6 10 51.1 9.70001C51.6 9.40001 52.2 9.29999 52.8 9.29999C53.8 9.29999 54.6 9.59999 55.2 10.3C55.8 10.9 56.1 11.7 56.1 12.7C56.1 13.7 55.8 14.5 55.1 15.1C54.5 15.7 53.7 16.1 52.7 16.1C52.1 16.1 51.5 16 51 15.7C50.5 15.4 50 15 49.8 14.5C49.6 14 49.5 13.4 49.5 12.6ZM51.2 12.7C51.2 13.3 51.4 13.8 51.7 14.2C52 14.5 52.4 14.7 52.8 14.7C53.2 14.7 53.6 14.5 53.9 14.2C54.2 13.9 54.4 13.4 54.4 12.7C54.4 12.1 54.2 11.6 53.9 11.2C53.6 10.9 53.2 10.7 52.8 10.7C52.4 10.7 52 10.9 51.7 11.2C51.4 11.6 51.2 12.1 51.2 12.7Z" fill="white"/>
<path d="M66.9 16H65.3V15C65 15.4 64.7 15.6 64.4 15.8C64 16 63.7 16.1 63.3 16.1C62.6 16.1 61.9 15.8 61.4 15.2C60.9 14.6 60.6 13.8 60.6 12.7C60.6 11.6 60.9 10.8 61.4 10.2C61.9 9.60001 62.6 9.29999 63.4 9.29999C64.1 9.29999 64.8 9.60001 65.3 10.2V7H67V16H66.9ZM62.3 12.6C62.3 13.3 62.4 13.8 62.6 14.1C62.9 14.5 63.3 14.8 63.8 14.8C64.2 14.8 64.5 14.6 64.8 14.3C65.1 14 65.2 13.5 65.2 12.8C65.2 12.1 65.1 11.5 64.8 11.2C64.5 10.9 64.2 10.7 63.8 10.7C63.4 10.7 63.1 10.9 62.8 11.2C62.5 11.4 62.3 11.9 62.3 12.6Z" fill="white"/>
<path d="M68.2 12.6C68.2 12 68.3 11.5 68.6 10.9C68.9 10.4 69.3 10 69.8 9.70001C70.3 9.40001 70.9 9.29999 71.5 9.29999C72.5 9.29999 73.3 9.59999 73.9 10.3C74.5 10.9 74.8 11.7 74.8 12.7C74.8 13.7 74.5 14.5 73.8 15.1C73.2 15.7 72.4 16.1 71.4 16.1C70.8 16.1 70.2 16 69.7 15.7C69.2 15.4 68.7 15 68.5 14.5C68.3 14 68.2 13.4 68.2 12.6ZM70.2 8.59998H69.4C69.4 8.49998 69.4 8.39996 69.4 8.39996C69.4 7.99996 69.5 7.59996 69.7 7.39996C69.9 7.19996 70.2 7.09998 70.5 7.09998C70.6 7.09998 70.8 7.09998 70.9 7.09998C71 7.09998 71.2 7.19996 71.6 7.39996C72 7.59996 72.2 7.59998 72.4 7.59998C72.5 7.59998 72.6 7.6 72.7 7.5C72.8 7.4 72.8 7.29998 72.9 7.09998H73.7C73.7 7.59998 73.6 7.99999 73.4 8.29999C73.2 8.49999 72.9 8.70001 72.6 8.70001C72.5 8.70001 72.3 8.70001 72.2 8.70001C72.1 8.70001 71.9 8.59996 71.5 8.39996C71.1 8.29996 70.9 8.20001 70.7 8.20001C70.6 8.20001 70.5 8.19999 70.4 8.29999C70.3 8.29999 70.3 8.39998 70.2 8.59998ZM70 12.7C70 13.3 70.2 13.8 70.5 14.2C70.8 14.5 71.2 14.7 71.6 14.7C72 14.7 72.4 14.5 72.7 14.2C73 13.9 73.2 13.4 73.2 12.7C73.2 12.1 73 11.6 72.7 11.2C72.4 10.9 72 10.7 71.6 10.7C71.2 10.7 70.8 10.9 70.5 11.2C70.1 11.6 70 12.1 70 12.7Z" fill="white"/>
<path d="M76.3 8.59998V7H78V8.59998H76.3ZM76.3 16V9.5H78V16H76.3Z" fill="white"/>
<path d="M11.3726 14.3343C10.7002 14.3343 10.1959 14.0751 9.69158 13.6431C9.35537 13.3839 9.18726 12.9519 9.01916 12.6063C9.35537 12.6927 9.77563 12.6926 10.1118 12.5198C9.52347 12.3471 9.01915 12.0879 8.68294 11.5695C8.34674 11.0511 8.09459 10.5327 8.09459 9.92787C8.43079 10.1007 8.85105 10.2735 9.18726 10.2735C8.5989 9.84149 8.17864 9.23671 8.09459 8.45912C8.01053 7.85432 8.17864 7.33588 8.4308 6.90389C9.77563 8.54548 11.5407 9.4095 13.5579 9.5823C13.5579 9.4959 13.558 9.40951 13.4739 9.32311C13.3899 8.89112 13.4739 8.45912 13.642 8.02712C13.9782 7.24953 14.5666 6.64469 15.4071 6.47189C16.3317 6.29909 17.0881 6.55833 17.7605 7.16313C17.7605 7.16313 17.7605 7.16313 17.8446 7.16313C18.3489 7.07673 18.8532 6.81752 19.3575 6.55832C19.3575 6.64472 19.1054 7.16309 18.9373 7.33588C18.7692 7.59508 18.517 7.76789 18.2648 7.94069C18.7692 7.85429 19.1894 7.76789 19.6937 7.50869C19.6937 7.50869 19.6937 7.50873 19.6937 7.59512C19.6937 7.59512 19.6937 7.5951 19.6937 7.6815C19.4416 8.0271 19.1054 8.37271 18.7692 8.71831C18.6851 8.80471 18.6011 8.89112 18.517 8.89112C18.517 8.89112 18.517 8.89109 18.517 8.97749C18.517 9.40949 18.517 9.84151 18.4329 10.1871C18.3489 10.8783 18.1808 11.5695 17.8446 12.2607C17.5924 12.8655 17.1722 13.4703 16.7519 14.0751C16.1636 14.7663 15.5752 15.2846 14.7347 15.7166C14.1463 16.0622 13.4739 16.3214 12.8015 16.4078C12.2131 16.4942 11.6248 16.5806 10.9524 16.5806C10.1118 16.5806 9.27131 16.3214 8.51484 15.9758C8.17864 15.803 7.84243 15.6302 7.50623 15.4575C9.10321 15.5438 10.2799 15.1983 11.3726 14.3343Z" fill="white"/>
</g>
</svg>
