<svg width="57" height="23" viewBox="0 0 57 23" fill="none" xmlns="http://www.w3.org/2000/svg">
<mask id="mask0" mask-type="alpha" maskUnits="userSpaceOnUse" x="0" y="0" width="57" height="23">
<path d="M53.1 0H3.79999C1.69999 0 0 1.69999 0 3.79999V19.2C0 21.3 1.69999 23 3.79999 23H53.1C55.2 23 56.9 21.3 56.9 19.2V3.79999C56.9 1.69999 55.2 0 53.1 0Z" fill="#50ABF1"/>
</mask>
<g mask="url(#mask0)">
<rect width="57" height="23" fill="#0274B3"/>
<rect width="57" height="23" fill="#50ABF1"/>
<path d="M37.2001 12.8H33.5001C34.2001 14.8 35.4001 16.3 37.4001 16.9C37.2001 17.1 37 17.4 36.8 17.6C34.9 16.9 33.7001 15.6 33.0001 13.7C32.6001 15.1 31.5001 16.6 28.9001 17.6C28.8001 17.4 28.5 17.1 28.3 16.9C31.3 15.7 32.1 14.1 32.3 12.7H28.6001V11.9H32.3V9.60001H29.1001V8.8H36.5001V9.60001H33.2001V11.9H37.1001V12.8H37.2001ZM31.0001 8.8C30.8001 8.2 30.2001 7.30001 29.7001 6.60001L30.4001 6.2C30.9001 6.9 31.5001 7.8 31.7001 8.3L31.0001 8.8ZM34.1001 8.40001C34.5001 7.80001 35.1001 6.7 35.4001 6L36.4001 6.40001C36.4001 6.50001 36.3001 6.5 36.1001 6.5C35.8001 7.1 35.2 8.1 34.8 8.7L34.1001 8.40001Z" fill="white"/>
<path d="M40.1001 9.60001C41.0001 9.90001 42.1001 10.4 42.6001 10.8L42.1001 11.5C41.6001 11.1 40.5001 10.5 39.6001 10.2L40.1001 9.60001ZM40.1001 16.9C40.8001 15.9 41.8001 14.2 42.5001 12.8L43.1001 13.4C42.4001 14.7 41.5001 16.3 40.9001 17.3C40.9001 17.4 41.0001 17.4 41.0001 17.5C41.0001 17.6 41.0001 17.6 40.9001 17.7L40.1001 16.9ZM40.8 6.2C41.7 6.5 42.7001 7.1 43.2001 7.5L42.7001 8.2C42.2001 7.7 41.2 7.1 40.3 6.8L40.8 6.2ZM47.5001 16.5H51.3V17.3H42.9001V16.5H46.6001V13.3H43.7001V12.5H46.6001V9.60001H43.3V8.8H51.0001V9.60001H47.5001V12.5H50.5001V13.3H47.5001V16.5V16.5ZM45.6001 6C46.7001 6.5 47.9001 7.4 48.5001 8L47.9001 8.7C47.3001 8.1 46.1001 7.20001 45.0001 6.60001L45.6001 6Z" fill="white"/>
<path d="M11.3726 14.3343C10.7002 14.3343 10.1959 14.0751 9.69158 13.6431C9.35537 13.3839 9.18726 12.9519 9.01916 12.6063C9.35537 12.6927 9.77563 12.6927 10.1118 12.5199C9.52347 12.3471 9.01915 12.0879 8.68294 11.5695C8.34674 11.0511 8.09459 10.5327 8.09459 9.92788C8.43079 10.1007 8.85105 10.2735 9.18726 10.2735C8.5989 9.8415 8.17864 9.23673 8.09459 8.45913C8.01053 7.85434 8.17864 7.3359 8.4308 6.9039C9.77563 8.54549 11.5407 9.40952 13.5579 9.58232C13.5579 9.49592 13.558 9.40953 13.4739 9.32313C13.3899 8.89113 13.4739 8.45913 13.642 8.02714C13.9782 7.24954 14.5666 6.6447 15.4071 6.47191C16.3317 6.29911 17.0881 6.55835 17.7605 7.16314C17.7605 7.16314 17.7605 7.16314 17.8446 7.16314C18.3489 7.07674 18.8532 6.81753 19.3575 6.55834C19.3575 6.64474 19.1054 7.1631 18.9373 7.3359C18.7692 7.5951 18.517 7.76791 18.2648 7.94071C18.7692 7.85431 19.1894 7.76791 19.6937 7.50871C19.6937 7.50871 19.6937 7.50874 19.6937 7.59514C19.6937 7.59514 19.6937 7.59512 19.6937 7.68152C19.4416 8.02712 19.1054 8.37272 18.7692 8.71832C18.6851 8.80472 18.6011 8.89113 18.517 8.89113C18.517 8.89113 18.517 8.89111 18.517 8.97751C18.517 9.40951 18.517 9.84152 18.4329 10.1871C18.3489 10.8783 18.1808 11.5695 17.8446 12.2607C17.5924 12.8655 17.1722 13.4703 16.7519 14.0751C16.1636 14.7663 15.5752 15.2847 14.7347 15.7167C14.1463 16.0623 13.4739 16.3214 12.8015 16.4078C12.2131 16.4942 11.6248 16.5806 10.9524 16.5806C10.1118 16.5806 9.27131 16.3214 8.51484 15.9758C8.17864 15.803 7.84243 15.6303 7.50623 15.4575C9.10321 15.5439 10.2799 15.1983 11.3726 14.3343Z" fill="white"/>
</g>
</svg>
