<svg width="76" height="23" viewBox="0 0 76 23" fill="none" xmlns="http://www.w3.org/2000/svg">
<mask id="mask0" mask-type="alpha" maskUnits="userSpaceOnUse" x="0" y="0" width="76" height="23">
<path d="M72.1 0H3.80002C1.70002 0 0 1.69999 0 3.79999V19.2C0 21.3 1.70002 23 3.80002 23H72.1C74.2 23 75.9 21.3 75.9 19.2V3.79999C75.8 1.69999 74.1 0 72.1 0Z" fill="#50ABF1"/>
</mask>
<g mask="url(#mask0)">
<rect width="76" height="23" fill="#0274B3"/>
<rect width="76" height="23" fill="#E1E7EC"/>
<rect width="76" height="23" fill="#CB1F24"/>
<path d="M27.5 16V7H30.2L31.8 13.1L33.4 7H36.1V16H34.4V8.89999L32.6 16H30.9L29.1 8.89999V16H27.5Z" fill="white"/>
<path d="M41.7 13.9L43.4 14.2C43.2 14.8 42.8 15.3 42.4 15.6C41.9 15.9 41.3 16.1 40.6 16.1C39.5 16.1 38.6 15.7 38.1 15C37.7 14.4 37.5 13.7 37.5 12.8C37.5 11.7 37.8 10.9 38.3 10.3C38.9 9.69999 39.6 9.39999 40.4 9.39999C41.4 9.39999 42.1 9.69999 42.7 10.4C43.3 11 43.5 12 43.5 13.3H39.2C39.2 13.8 39.4 14.2 39.6 14.5C39.9 14.8 40.2 14.9 40.6 14.9C40.9 14.9 41.1 14.8 41.3 14.7C41.5 14.5 41.6 14.3 41.7 13.9ZM41.8 12.2C41.8 11.7 41.7 11.3 41.4 11.1C41.2 10.8 40.9 10.7 40.5 10.7C40.1 10.7 39.8 10.8 39.6 11.1C39.4 11.4 39.2 11.7 39.2 12.2H41.8Z" fill="white"/>
<path d="M46.5 16H44.8V9.5H46.4V10.4C46.7 9.99999 46.9 9.7 47.1 9.5C47.3 9.4 47.6 9.29999 47.8 9.29999C48.2 9.29999 48.6 9.40001 48.9 9.60001L48.4 11.1C48.1 10.9 47.8 10.8 47.6 10.8C47.4 10.8 47.2 10.9 47 11C46.8 11.1 46.7 11.4 46.6 11.7C46.5 12 46.5 12.8 46.5 13.9V16Z" fill="white"/>
<path d="M49.7 16V7H51.4V11.8L53.4 9.5H55.5L53.3 11.9L55.7 16H53.8L52.2 13.1L51.4 13.9V16H49.7V16Z" fill="white"/>
<path d="M60.5 13.9L62.2 14.2C62 14.8 61.6 15.3 61.2 15.6C60.7 15.9 60.1 16.1 59.4 16.1C58.3 16.1 57.4 15.7 56.9 15C56.5 14.4 56.3 13.7 56.3 12.8C56.3 11.7 56.6 10.9 57.1 10.3C57.7 9.69999 58.4 9.39999 59.2 9.39999C60.2 9.39999 60.9 9.69999 61.5 10.4C62.1 11 62.3 12 62.3 13.3H58C58 13.8 58.2 14.2 58.4 14.5C58.6 14.8 59 14.9 59.4 14.9C59.7 14.9 59.9 14.8 60.1 14.7C60.3 14.5 60.4 14.3 60.5 13.9ZM60.6 12.2C60.6 11.7 60.5 11.3 60.2 11.1C60 10.8 59.7 10.7 59.3 10.7C58.9 10.7 58.6 10.8 58.4 11.1C58.2 11.4 58 11.7 58 12.2H60.6Z" fill="white"/>
<path d="M69.6 16H67.9V12.7C67.9 12 67.9 11.5 67.8 11.3C67.7 11.1 67.6 10.9 67.4 10.8C67.2 10.7 67 10.6 66.8 10.6C66.5 10.6 66.2 10.7 66 10.8C65.8 10.9 65.6 11.2 65.5 11.4C65.4 11.7 65.4 12.2 65.4 12.9V15.8H63.7V9.29999H65.3V10.3C65.9 9.59999 66.6 9.19998 67.4 9.19998C67.8 9.19998 68.1 9.29999 68.4 9.39999C68.7 9.49999 69 9.69999 69.1 9.89999C69.2 10.1 69.4 10.4 69.4 10.6C69.5 10.9 69.5 11.3 69.5 11.8V16H69.6Z" fill="white"/>
<g clip-path="url(#clip0)">
<path d="M13.3656 4.48387C9.62208 4.48387 6.58044 7.62363 6.58044 11.4879C6.58044 14.362 8.24165 16.8255 10.6515 17.9123C10.6281 17.4293 10.6515 16.8255 10.7685 16.2941C10.9089 15.7145 11.6342 12.4781 11.6342 12.4781C11.6342 12.4781 11.4237 12.0193 11.4237 11.3672C11.4237 10.3286 12.0086 9.55576 12.7339 9.55576C13.3422 9.55576 13.6464 10.0388 13.6464 10.6184C13.6464 11.2464 13.2486 12.2125 13.038 13.1061C12.8743 13.8548 13.389 14.4586 14.1143 14.4586C15.4012 14.4586 16.2669 12.7438 16.2669 10.7392C16.2669 9.19344 15.2608 8.05832 13.4358 8.05832C11.3768 8.05832 10.09 9.65234 10.09 11.4154C10.09 12.0192 10.2538 12.454 10.5346 12.7921C10.6515 12.937 10.675 13.0094 10.6281 13.1785C10.6047 13.2993 10.5112 13.6132 10.4877 13.734C10.4409 13.903 10.3006 13.9755 10.1368 13.903C9.17752 13.4924 8.75636 12.4298 8.75636 11.2222C8.75636 9.24173 10.3708 6.85069 13.5996 6.85069C16.1967 6.85069 17.9047 8.78285 17.9047 10.8599C17.9047 13.6132 16.4306 15.6661 14.2547 15.6661C13.5294 15.6661 12.8275 15.2556 12.5935 14.7967C12.5935 14.7967 12.1958 16.4149 12.1256 16.7288C11.9852 17.2602 11.7044 17.8157 11.4471 18.2263C12.0554 18.4195 12.7105 18.5161 13.3656 18.5161C17.1092 18.5161 20.1508 15.3763 20.1508 11.512C20.1508 7.64773 17.1092 4.48387 13.3656 4.48387Z" fill="#CB1F24"/>
<path d="M13.3656 4.48387C9.62208 4.48387 6.58044 7.62363 6.58044 11.4879C6.58044 14.362 8.24165 16.8255 10.6515 17.9123C10.6281 17.4293 10.6515 16.8255 10.7685 16.2941C10.9089 15.7145 11.6342 12.4781 11.6342 12.4781C11.6342 12.4781 11.4237 12.0193 11.4237 11.3672C11.4237 10.3286 12.0086 9.55576 12.7339 9.55576C13.3422 9.55576 13.6464 10.0388 13.6464 10.6184C13.6464 11.2464 13.2486 12.2125 13.038 13.1061C12.8743 13.8548 13.389 14.4586 14.1143 14.4586C15.4012 14.4586 16.2669 12.7438 16.2669 10.7392C16.2669 9.19344 15.2608 8.05832 13.4358 8.05832C11.3768 8.05832 10.09 9.65234 10.09 11.4154C10.09 12.0192 10.2538 12.454 10.5346 12.7921C10.6515 12.937 10.675 13.0094 10.6281 13.1785C10.6047 13.2993 10.5112 13.6132 10.4877 13.734C10.4409 13.903 10.3006 13.9755 10.1368 13.903C9.17752 13.4924 8.75636 12.4298 8.75636 11.2222C8.75636 9.24173 10.3708 6.85069 13.5996 6.85069C16.1967 6.85069 17.9047 8.78285 17.9047 10.8599C17.9047 13.6132 16.4306 15.6661 14.2547 15.6661C13.5294 15.6661 12.8275 15.2556 12.5935 14.7967C12.5935 14.7967 12.1958 16.4149 12.1256 16.7288C11.9852 17.2602 11.7044 17.8157 11.4471 18.2263C12.0554 18.4195 12.7105 18.5161 13.3656 18.5161C17.1092 18.5161 20.1508 15.3763 20.1508 11.512C20.1508 7.64773 17.1092 4.48387 13.3656 4.48387Z" fill="white"/>
</g>
</g>
<defs>
<clipPath id="clip0">
<rect width="13.5938" height="14.0323" fill="white" transform="matrix(-1 0 0 1 20.1625 4.48387)"/>
</clipPath>
</defs>
</svg>
