<svg width="87" height="23" viewBox="0 0 87 23" fill="none" xmlns="http://www.w3.org/2000/svg">
<mask id="mask0" mask-type="alpha" maskUnits="userSpaceOnUse" x="0" y="0" width="87" height="23">
<path d="M83.1 0H3.80002C1.70002 0 0 1.69999 0 3.79999V19.2C0 21.3 1.70002 23 3.80002 23H83.1C85.2 23 86.9 21.3 86.9 19.2V3.79999C86.8 1.69999 85.1 0 83.1 0Z" fill="#50ABF1"/>
</mask>
<g mask="url(#mask0)">
<rect width="87" height="23" fill="#0274B3"/>
<rect width="87" height="23" fill="#E1E7EC"/>
<rect width="87" height="23" fill="#CB1F24"/>
<path d="M27.5 15.1V6.10001H29.3V10.1L33 6.10001H35.4L32 9.60001L35.6 15.1H33.3L30.8 10.9L29.3 12.4V15.1H27.5Z" fill="white"/>
<path d="M38 14.7V17.6H36.3V12.5C36.3 11.6 36.4 10.8 36.6 10.3C36.8 9.80002 37.1 9.3 37.6 9C38.1 8.7 38.7 8.5 39.4 8.5C40.4 8.5 41.3 8.8 41.9 9.5C42.5 10.2 42.8 11 42.8 11.9C42.8 12.8 42.5 13.6 41.9 14.3C41.3 14.9 40.6 15.3 39.7 15.3C39.2 15.2 38.6 15.1 38 14.7ZM38 12C38 12.5 38.1 13 38.4 13.3C38.7 13.6 39 13.8 39.5 13.8C40 13.8 40.3 13.6 40.6 13.2C40.9 12.8 41 12.3 41 11.7C41 11.1 40.9 10.6 40.6 10.3C40.3 9.90002 40 9.80002 39.5 9.80002C39.1 9.80002 38.7 10 38.4 10.3C38.2 10.7 38 11.2 38 12Z" fill="white"/>
<path d="M49.2 8.60001H50.7C50.5 9.10001 50.3 9.70002 50.1 10.4C49.9 11.1 49.9 11.7 49.9 11.9C49.9 12.3 50 12.8 50.1 13.4C50.2 14 50.4 14.6 50.6 15.1H49.2C49.2 15 49.1 14.9 49.1 14.8C49 14.6 48.9 14.3 48.9 14.1C48.4 14.9 47.7 15.3 46.8 15.3C45.9 15.3 45.2 14.9 44.7 14.2C44.2 13.5 43.9 12.7 43.9 11.7C43.9 10.8 44.2 10 44.7 9.40002C45.2 8.80002 45.9 8.5 46.8 8.5C47.7 8.5 48.4 8.90002 48.9 9.80002C48.9 9.40002 49 9.10001 49.2 8.60001ZM45.6 11.9C45.6 12.5 45.7 13 46 13.4C46.3 13.8 46.6 14 47 14C47.4 14 47.7 13.8 48 13.5C48.2 13.2 48.4 12.7 48.4 12C48.4 11.3 48.3 10.8 48 10.5C47.7 10.2 47.4 10 47 10C46.6 10 46.3 10.2 46 10.5C45.7 10.7 45.6 11.2 45.6 11.9ZM46.5 7.80002L47.3 6H49.2L47.5 7.80002H46.5Z" fill="white"/>
<path d="M51.3 8.60001H56.3V10H54.7V15.1H53V10H51.3V8.60001Z" fill="white"/>
<path d="M62.1 8.60001H63.6C63.4 9.10001 63.2 9.70002 63 10.4C62.8 11.1 62.8 11.7 62.8 11.9C62.8 12.3 62.9 12.8 63 13.4C63.1 14 63.3 14.6 63.5 15.1H62.1C62.1 15 62 14.9 62 14.8C61.9 14.6 61.8 14.3 61.8 14.1C61.3 14.9 60.6 15.3 59.7 15.3C58.8 15.3 58.1 14.9 57.6 14.2C57.1 13.5 56.8 12.7 56.8 11.7C56.8 10.8 57.1 10 57.6 9.40002C58.1 8.80002 58.8 8.5 59.7 8.5C60.6 8.5 61.3 8.90002 61.8 9.80002C61.8 9.40002 61.9 9.10001 62.1 8.60001ZM58.5 11.9C58.5 12.5 58.6 13 58.9 13.4C59.2 13.8 59.5 14 59.9 14C60.3 14 60.6 13.8 60.9 13.5C61.1 13.2 61.3 12.7 61.3 12C61.3 11.3 61.2 10.8 60.9 10.5C60.6 10.2 60.3 10 59.9 10C59.5 10 59.2 10.2 58.9 10.5C58.6 10.7 58.5 11.2 58.5 11.9Z" fill="white"/>
<path d="M67.7 8.60001H72.7V10H71.1V15.1H69.4V10H67.7V8.60001Z" fill="white"/>
<path d="M73.2 11.8C73.2 11.2 73.3 10.7 73.6 10.1C73.9 9.60001 74.3 9.20002 74.8 8.90002C75.3 8.60002 75.9 8.5 76.5 8.5C77.5 8.5 78.3 8.8 78.9 9.5C79.5 10.1 79.8 10.9 79.8 11.9C79.8 12.9 79.5 13.7 78.8 14.3C78.2 14.9 77.4 15.3 76.4 15.3C75.8 15.3 75.2 15.2 74.7 14.9C74.2 14.6 73.7 14.2 73.5 13.7C73.3 13.2 73.2 12.5 73.2 11.8ZM74.9 11.9C74.9 12.5 75.1 13 75.4 13.4C75.7 13.7 76.1 13.9 76.5 13.9C76.9 13.9 77.3 13.7 77.6 13.4C77.9 13.1 78.1 12.6 78.1 11.9C78.1 11.3 77.9 10.8 77.6 10.4C77.3 10.1 76.9 9.90002 76.5 9.90002C76.1 9.90002 75.7 10.1 75.4 10.4C75.1 10.7 74.9 11.2 74.9 11.9Z" fill="white"/>
<g clip-path="url(#clip0)">
<path d="M13.3656 4.48387C9.62208 4.48387 6.58044 7.62363 6.58044 11.4879C6.58044 14.362 8.24165 16.8255 10.6515 17.9123C10.6281 17.4293 10.6515 16.8255 10.7685 16.2941C10.9089 15.7145 11.6342 12.4781 11.6342 12.4781C11.6342 12.4781 11.4237 12.0193 11.4237 11.3672C11.4237 10.3286 12.0086 9.55576 12.7339 9.55576C13.3422 9.55576 13.6464 10.0388 13.6464 10.6184C13.6464 11.2464 13.2486 12.2125 13.038 13.1061C12.8743 13.8548 13.389 14.4586 14.1143 14.4586C15.4012 14.4586 16.2669 12.7438 16.2669 10.7392C16.2669 9.19344 15.2608 8.05832 13.4358 8.05832C11.3768 8.05832 10.09 9.65234 10.09 11.4154C10.09 12.0192 10.2538 12.454 10.5346 12.7921C10.6515 12.937 10.675 13.0094 10.6281 13.1785C10.6047 13.2993 10.5112 13.6132 10.4877 13.734C10.4409 13.903 10.3006 13.9755 10.1368 13.903C9.17752 13.4924 8.75636 12.4298 8.75636 11.2222C8.75636 9.24173 10.3708 6.85069 13.5996 6.85069C16.1967 6.85069 17.9047 8.78285 17.9047 10.8599C17.9047 13.6132 16.4306 15.6661 14.2547 15.6661C13.5294 15.6661 12.8275 15.2556 12.5935 14.7967C12.5935 14.7967 12.1958 16.4149 12.1256 16.7288C11.9852 17.2602 11.7044 17.8157 11.4471 18.2263C12.0554 18.4195 12.7105 18.5161 13.3656 18.5161C17.1092 18.5161 20.1508 15.3763 20.1508 11.512C20.1508 7.64773 17.1092 4.48387 13.3656 4.48387Z" fill="#CB1F24"/>
<path d="M13.3656 4.48387C9.62208 4.48387 6.58044 7.62363 6.58044 11.4879C6.58044 14.362 8.24165 16.8255 10.6515 17.9123C10.6281 17.4293 10.6515 16.8255 10.7685 16.2941C10.9089 15.7145 11.6342 12.4781 11.6342 12.4781C11.6342 12.4781 11.4237 12.0193 11.4237 11.3672C11.4237 10.3286 12.0086 9.55576 12.7339 9.55576C13.3422 9.55576 13.6464 10.0388 13.6464 10.6184C13.6464 11.2464 13.2486 12.2125 13.038 13.1061C12.8743 13.8548 13.389 14.4586 14.1143 14.4586C15.4012 14.4586 16.2669 12.7438 16.2669 10.7392C16.2669 9.19344 15.2608 8.05832 13.4358 8.05832C11.3768 8.05832 10.09 9.65234 10.09 11.4154C10.09 12.0192 10.2538 12.454 10.5346 12.7921C10.6515 12.937 10.675 13.0094 10.6281 13.1785C10.6047 13.2993 10.5112 13.6132 10.4877 13.734C10.4409 13.903 10.3006 13.9755 10.1368 13.903C9.17752 13.4924 8.75636 12.4298 8.75636 11.2222C8.75636 9.24173 10.3708 6.85069 13.5996 6.85069C16.1967 6.85069 17.9047 8.78285 17.9047 10.8599C17.9047 13.6132 16.4306 15.6661 14.2547 15.6661C13.5294 15.6661 12.8275 15.2556 12.5935 14.7967C12.5935 14.7967 12.1958 16.4149 12.1256 16.7288C11.9852 17.2602 11.7044 17.8157 11.4471 18.2263C12.0554 18.4195 12.7105 18.5161 13.3656 18.5161C17.1092 18.5161 20.1508 15.3763 20.1508 11.512C20.1508 7.64773 17.1092 4.48387 13.3656 4.48387Z" fill="white"/>
</g>
</g>
<defs>
<clipPath id="clip0">
<rect width="13.5938" height="14.0323" fill="white" transform="matrix(-1 0 0 1 20.1625 4.48387)"/>
</clipPath>
</defs>
</svg>
