<svg width="85" height="24" viewBox="0 0 85 24" fill="none" xmlns="http://www.w3.org/2000/svg">
<mask id="mask0" mask-type="alpha" maskUnits="userSpaceOnUse" x="0" y="0" width="85" height="24">
<path d="M81.1 0H3.80002C1.70002 0 0 1.69999 0 3.79999V19.3C0 21.4 1.70002 23.1 3.80002 23.1H81.1C83.2 23.1 84.9 21.4 84.9 19.3V3.89996C84.8 1.69996 83.1 0 81.1 0Z" fill="#50ABF1"/>
</mask>
<g mask="url(#mask0)">
<rect width="85" height="23" fill="#0274B3"/>
<rect width="85" height="23" fill="#E1E7EC"/>
<rect width="85" height="23" fill="#CB1F24"/>
<path d="M34.4 13.8H33.9C33.7 13.8 33.6 13.8 33.5 13.8C33.4 13.8 33.4 13.9 33.4 13.9C33.4 13.9 33.5 14 33.7 14.1C33.9 14.2 34 14.3 34 14.5C34 14.7 34 15 33.9 15.3C33.8 15.6 33.7 15.9 33.6 16.2C33.5 16.4 33.3 16.6 32.8 16.9C32.4 17.2 31.9 17.4 31.3 17.6C30.7 17.8 30.1 17.9 29.5 17.9C28.8 17.9 28.3 17.7 28 17.4C27.7 17.1 27.5 16.6 27.5 16.1C27.5 15.5 27.6 14.9 27.7 14.4C27.9 13.8 28.3 13.1 28.8 12.2L29.1 12.5C28.7 13.2 28.5 13.7 28.3 14.1C28.2 14.5 28.1 14.9 28.1 15.2C28.1 15.5 28.2 15.9 28.5 16.1C28.7 16.3 29.1 16.4 29.5 16.4C30 16.4 30.6 16.3 31.2 16.2C31.7 16.1 32.2 15.9 32.6 15.7C33 15.5 33.2 15.3 33.2 15.2C33.2 15.2 33.1 15.1 32.9 15.1C32.7 15.1 32.5 15.1 32.3 15.1C31.9 15.1 31.6 15.1 31.5 15.1C31.4 15.1 31.3 15 31.3 14.9C31.3 14.7 31.3 14.4 31.4 14.2C31.5 14 31.6 13.8 31.7 13.6C32 13.3 32.3 13 32.7 12.8C33.1 12.5 33.5 12.4 33.8 12.4H34.5V13.8H34.4Z" fill="white"/>
<path d="M37.8 13.8H34V12.1H37.2C37.2 11.8 37.1 11.6 37 11.4C36.9 11.3 36.8 11.1 36.6 10.9L37.1 9.39996C37.4 9.69996 37.6 10.1 37.7 10.5C37.8 10.9 37.9 11.4 37.9 12.2V13.8H37.8ZM37.7 14.9L37.1 16.1L36.2 15.6L35.7 16.6L34.6 16L35.3 14.8L36.2 15.3L36.7 14.3L37.7 14.9Z" fill="white"/>
<path d="M43.4 13.4C43.4 14.1 43.1 14.8 42.5 15.5C41.9 16.2 41.3 16.5 40.7 16.5C40.4 16.5 40 16.4 39.6 16.2C39.2 16 38.6 15.6 37.8 14.9L38.1 14.5C38.5 14.8 38.9 15 39.2 15.1C39.4 15.2 39.7 15.2 40 15.2C40.4 15.2 40.8 15.1 41.2 14.9C41.7 14.6 42.1 14.2 42.6 13.6C42.4 13.6 42.3 13.6 42.2 13.6C41.8 13.6 41.5 13.5 41.2 13.2C41 12.9 40.8 12.6 40.8 12.1C40.8 11.5 40.9 10.9 41.2 10.3C41.5 9.69999 41.9 9.39996 42.2 9.39996C42.5 9.39996 42.8 9.59998 43 10.1C43.2 10.5 43.3 11.1 43.3 11.7V13.4H43.4ZM42.7 12.1C42.6 11.4 42.4 11.1 42 11.1C41.9 11.1 41.8 11.1 41.7 11.2C41.6 11.3 41.6 11.4 41.6 11.5C41.6 11.6 41.7 11.8 41.8 11.9C42 12 42.2 12 42.4 12H42.7V12.1Z" fill="white"/>
<path d="M50 13.8H43V12.1H47.3C46.8 11.6 46.4 11.2 45.9 11C45.5 10.8 45.2 10.7 44.8 10.7C44.7 10.7 44.6 10.7 44.5 10.7C44.4 10.7 44.3 10.7 44.1 10.8C44.3 10.3 44.6 9.89995 44.8 9.69995C45 9.49995 45.4 9.29999 45.7 9.29999C46 9.29999 46.2 9.4 46.5 9.5C46.7 9.6 47 9.79998 47.3 10.1C47.5 10.3 47.9 10.7 48.3 11.2C48.6 11.5 48.8 11.8 49 11.9C49.2 12 49.4 12.1 49.7 12.2V13.8H50ZM47.7 15.1L47 16.5L45.6 15.8L46.3 14.4L47.7 15.1Z" fill="white"/>
<path d="M58.6 13.8H57.8C57.7 13.8 57.5 13.8 57.4 13.7C57.2 13.6 57 13.4 56.8 13.1C56.6 12.7 56.4 12.1 56.4 11.3C56.1 11.6 55.9 11.9 55.8 12C55.6 12.2 55.4 12.3 55.2 12.3C55.1 12.3 55 12.3 54.9 12.3L54.2 12.2C53.9 12.1 53.7 12.1 53.6 12.1C53.5 12.1 53.5 12 53.5 11.9C53.5 11.8 53.6 11.4 53.9 10.9C54.2 10.3 54.4 9.99999 54.5 9.79999C54.6 9.69999 54.8 9.49996 55 9.39996C55.2 9.29996 55.4 9.2 55.7 9L56 8.79999C56 8.69999 56 8.69998 56 8.59998C56 8.49998 56 8.49996 56 8.39996C56 8.19996 56 8.09999 56.1 7.79999C56.2 7.59999 56.3 7.29996 56.5 6.89996L57.1 10.7C57.2 11.3 57.3 11.7 57.5 11.9C57.6 12 57.7 12.1 57.9 12.1H58.7V13.8H58.6ZM56.3 10.3L56.2 9.59998C56.1 9.69998 56 9.69995 55.9 9.69995C55.7 9.79995 55.5 9.9 55.4 10C55.3 10.1 55.2 10.2 55.2 10.2C55.1 10.3 55.1 10.4 55.1 10.4C55.1 10.5 55.2 10.5 55.3 10.5C55.4 10.5 55.6 10.5 55.7 10.5C55.8 10.5 55.9 10.5 56 10.4C55.9 10.6 56.1 10.5 56.3 10.3Z" fill="white"/>
<path d="M62.5 13.8H58.3V12.1H62C62 11.7 62 11.5 62 11.3C62 11.1 61.9 10.9 61.8 10.7C61.7 11 61.5 11.1 61.3 11.3C61.1 11.4 60.8 11.5 60.6 11.5C60.3 11.5 60 11.4 59.8 11.2C59.6 11 59.5 10.7 59.5 10.4C59.5 9.89996 59.6 9.29995 59.9 8.69995C60.2 7.99995 60.5 7.59998 60.9 7.59998C61.3 7.59998 61.7 7.99995 62.1 8.69995C62.5 9.39995 62.7 10.2 62.7 11.1V13.8H62.5ZM61.6 5.69995L60.9 7.09998L59.5 6.39996L60.2 5L61.6 5.69995ZM61.1 9.69995C61 9.49995 60.9 9.39999 60.8 9.29999C60.7 9.19999 60.6 9.19995 60.5 9.19995C60.4 9.19995 60.3 9.29996 60.2 9.39996C60.1 9.49996 60.1 9.59999 60.1 9.79999C60.1 9.89999 60.1 10 60.2 10C60.3 10.1 60.4 10.1 60.5 10.1C60.6 10.1 60.7 10.1 60.8 10C60.9 9.9 61 9.79995 61.1 9.69995Z" fill="white"/>
<path d="M67.9 13.9C67.9 14.1 67.8 14.5 67.5 14.9C67.2 15.3 66.9 15.7 66.5 16C66.1 16.3 65.7 16.5 65.4 16.5C65 16.5 64.7 16.4 64.2 16.2C63.8 16 63.3 15.7 62.5 15.1L62.8 14.7C63.2 14.9 63.5 15.1 63.7 15.2C63.9 15.3 64.2 15.3 64.4 15.3C64.7 15.3 65 15.2 65.2 15.1C65.5 14.9 65.9 14.6 66.3 14.2C67 13.6 67.3 13.1 67.3 12.8C67.3 12.6 67.2 12.4 67.1 12.2C67 11.9 66.8 11.6 66.6 11.4L66.9 9.79999C67.2 10.1 67.4 10.4 67.5 10.8C67.7 11.2 67.7 11.6 67.7 12.1V13.9H67.9Z" fill="white"/>
<path d="M77.5 13.8H71C70.7 13.8 70.5 13.7 70.3 13.6C70.1 13.5 70 13.2 69.9 12.9C69.6 13.3 69.4 13.5 69.2 13.6C69 13.7 68.7 13.8 68.3 13.8H67.4V12.1H68.3C68.8 12.1 69.1 12 69.4 11.7C69.7 11.4 69.9 10.9 70 10.3L70.4 10.4C70.4 10.5 70.4 10.7 70.4 10.8C70.4 11.1 70.4 11.3 70.4 11.4C70.4 11.6 70.5 11.8 70.6 11.9C70.7 12 70.9 12.1 71.1 12.1C71.3 12.1 71.5 12.1 71.7 12C71.9 11.9 72.1 11.7 72.5 11.5L74.7 9.89996C75 9.69996 75.2 9.6 75.3 9.5C75.6 9.3 75.9 9.19995 76.2 9.19995C76.7 9.19995 77 9.39995 77.3 9.69995C77.6 10.1 77.8 10.6 77.8 11.4V13.8H77.5ZM76.7 11.5C76.7 11.3 76.6 11.2 76.3 11.1C76.1 11 75.8 11 75.5 11C75.2 11 74.9 11.1 74.6 11.3C74.3 11.5 73.8 11.8 73.1 12.3H74.7C76 12.1 76.7 11.9 76.7 11.5Z" fill="white"/>
<g clip-path="url(#clip0)">
<path d="M13.3656 4.48387C9.62208 4.48387 6.58044 7.62363 6.58044 11.4879C6.58044 14.362 8.24165 16.8255 10.6515 17.9123C10.6281 17.4293 10.6515 16.8255 10.7685 16.2941C10.9089 15.7145 11.6342 12.4781 11.6342 12.4781C11.6342 12.4781 11.4237 12.0193 11.4237 11.3672C11.4237 10.3286 12.0086 9.55576 12.7339 9.55576C13.3422 9.55576 13.6464 10.0388 13.6464 10.6184C13.6464 11.2464 13.2486 12.2125 13.038 13.1061C12.8743 13.8548 13.389 14.4586 14.1143 14.4586C15.4012 14.4586 16.2669 12.7438 16.2669 10.7392C16.2669 9.19344 15.2608 8.05832 13.4358 8.05832C11.3768 8.05832 10.09 9.65234 10.09 11.4154C10.09 12.0192 10.2538 12.454 10.5346 12.7921C10.6515 12.937 10.675 13.0094 10.6281 13.1785C10.6047 13.2993 10.5112 13.6132 10.4877 13.734C10.4409 13.903 10.3006 13.9755 10.1368 13.903C9.17752 13.4924 8.75636 12.4298 8.75636 11.2222C8.75636 9.24173 10.3708 6.85069 13.5996 6.85069C16.1967 6.85069 17.9047 8.78285 17.9047 10.8599C17.9047 13.6132 16.4306 15.6661 14.2547 15.6661C13.5294 15.6661 12.8275 15.2556 12.5935 14.7967C12.5935 14.7967 12.1958 16.4149 12.1256 16.7288C11.9852 17.2602 11.7044 17.8157 11.4471 18.2263C12.0554 18.4195 12.7105 18.5161 13.3656 18.5161C17.1092 18.5161 20.1508 15.3763 20.1508 11.512C20.1508 7.64773 17.1092 4.48387 13.3656 4.48387Z" fill="#CB1F24"/>
<path d="M13.3656 4.48387C9.62208 4.48387 6.58044 7.62363 6.58044 11.4879C6.58044 14.362 8.24165 16.8255 10.6515 17.9123C10.6281 17.4293 10.6515 16.8255 10.7685 16.2941C10.9089 15.7145 11.6342 12.4781 11.6342 12.4781C11.6342 12.4781 11.4237 12.0193 11.4237 11.3672C11.4237 10.3286 12.0086 9.55576 12.7339 9.55576C13.3422 9.55576 13.6464 10.0388 13.6464 10.6184C13.6464 11.2464 13.2486 12.2125 13.038 13.1061C12.8743 13.8548 13.389 14.4586 14.1143 14.4586C15.4012 14.4586 16.2669 12.7438 16.2669 10.7392C16.2669 9.19344 15.2608 8.05832 13.4358 8.05832C11.3768 8.05832 10.09 9.65234 10.09 11.4154C10.09 12.0192 10.2538 12.454 10.5346 12.7921C10.6515 12.937 10.675 13.0094 10.6281 13.1785C10.6047 13.2993 10.5112 13.6132 10.4877 13.734C10.4409 13.903 10.3006 13.9755 10.1368 13.903C9.17752 13.4924 8.75636 12.4298 8.75636 11.2222C8.75636 9.24173 10.3708 6.85069 13.5996 6.85069C16.1967 6.85069 17.9047 8.78285 17.9047 10.8599C17.9047 13.6132 16.4306 15.6661 14.2547 15.6661C13.5294 15.6661 12.8275 15.2556 12.5935 14.7967C12.5935 14.7967 12.1958 16.4149 12.1256 16.7288C11.9852 17.2602 11.7044 17.8157 11.4471 18.2263C12.0554 18.4195 12.7105 18.5161 13.3656 18.5161C17.1092 18.5161 20.1508 15.3763 20.1508 11.512C20.1508 7.64773 17.1092 4.48387 13.3656 4.48387Z" fill="white"/>
</g>
</g>
<defs>
<clipPath id="clip0">
<rect width="13.5938" height="14.0323" fill="white" transform="matrix(-1 0 0 1 20.1625 4.48387)"/>
</clipPath>
</defs>
</svg>
