<svg width="100" height="23" viewBox="0 0 100 23" fill="none" xmlns="http://www.w3.org/2000/svg">
<mask id="mask0" mask-type="alpha" maskUnits="userSpaceOnUse" x="0" y="0" width="100" height="23">
<path d="M96.1 0H3.80002C1.70002 0 0 1.70002 0 3.80002V19.2C0 21.3 1.70002 23 3.80002 23H96.1C98.2 23 99.9 21.3 99.9 19.2V3.80002C99.8 1.70002 98.1 0 96.1 0Z" fill="#50ABF1"/>
</mask>
<g mask="url(#mask0)">
<rect width="100" height="23" fill="#0274B3"/>
<rect width="100" height="23" fill="#E1E7EC"/>
<rect width="100" height="23" fill="#CB1F24"/>
<path d="M27.5 15.1V6.10001H34.1V7.60001H29.3V9.60001H33.8V11.1H29.3V13.5H34.3V15H27.5V15.1Z" fill="white"/>
<path d="M41.7 15.1H40V11.8C40 11.1 40 10.6 39.9 10.4C39.8 10.2 39.7 9.99999 39.5 9.89999C39.3 9.79999 39.1 9.70001 38.9 9.70001C38.6 9.70001 38.3 9.79999 38.1 9.89999C37.9 9.99999 37.7 10.3 37.6 10.5C37.5 10.8 37.5 11.3 37.5 12V14.9H35.8V8.39999H37.4V9.39999C38 8.69999 38.7 8.29999 39.5 8.29999C39.9 8.29999 40.2 8.4 40.5 8.5C40.8 8.6 41.1 8.8 41.2 9C41.3 9.2 41.5 9.50001 41.5 9.70001C41.6 10 41.6 10.4 41.6 10.9V15.1H41.7Z" fill="white"/>
<path d="M45.1 15.1H43.4V8.60001H45V9.5C45.3 9.1 45.5 8.80001 45.7 8.60001C45.9 8.50001 46.2 8.39999 46.4 8.39999C46.8 8.39999 47.2 8.50001 47.5 8.70001L47 10.2C46.7 10 46.4 9.89999 46.2 9.89999C46 9.89999 45.8 10 45.6 10.1C45.4 10.2 45.3 10.5 45.2 10.8C45.1 11.1 45.1 11.9 45.1 13V15.1Z" fill="white"/>
<path d="M52.1 13L53.8 13.3C53.6 13.9 53.2 14.4 52.8 14.7C52.3 15 51.7 15.2 51 15.2C49.9 15.2 49 14.8 48.5 14.1C48.1 13.5 47.9 12.8 47.9 11.9C47.9 10.8 48.2 9.99999 48.7 9.39999C49.3 8.79999 50 8.5 50.8 8.5C51.8 8.5 52.5 8.8 53.1 9.5C53.7 10.1 53.9 11.1 53.9 12.4H49.6C49.6 12.9 49.8 13.3 50 13.6C50.2 13.9 50.6 14 51 14C51.3 14 51.5 13.9 51.7 13.8C51.9 13.6 52 13.3 52.1 13ZM52.2 11.3C52.2 10.8 52.1 10.4 51.8 10.2C51.6 9.90001 51.3 9.79999 50.9 9.79999C50.5 9.79999 50.2 9.90001 50 10.2C49.8 10.5 49.6 10.8 49.6 11.3H52.2Z" fill="white"/>
<path d="M55.1 15.5L57.1 15.7C57.1 15.9 57.2 16.1 57.3 16.2C57.5 16.3 57.7 16.4 58.1 16.4C58.5 16.4 58.9 16.3 59.1 16.2C59.3 16.1 59.4 16 59.4 15.8C59.5 15.7 59.5 15.4 59.5 15V14C59 14.7 58.3 15.1 57.6 15.1C56.7 15.1 56 14.7 55.5 14C55.1 13.4 54.9 12.7 54.9 11.8C54.9 10.7 55.2 9.89999 55.7 9.29999C56.2 8.69999 56.9 8.39999 57.7 8.39999C58.5 8.39999 59.2 8.8 59.7 9.5V8.60001H61.3V14.4C61.3 15.2 61.2 15.7 61.1 16.1C61 16.5 60.8 16.8 60.6 17C60.4 17.2 60.1 17.4 59.7 17.5C59.3 17.6 58.8 17.7 58.3 17.7C57.2 17.7 56.4 17.5 56 17.1C55.5 16.7 55.3 16.2 55.3 15.7C55.1 15.7 55.1 15.6 55.1 15.5ZM56.7 11.7C56.7 12.4 56.8 12.9 57.1 13.2C57.4 13.5 57.7 13.7 58.1 13.7C58.5 13.7 58.9 13.5 59.2 13.2C59.5 12.9 59.6 12.4 59.6 11.7C59.6 11 59.5 10.5 59.2 10.2C58.9 9.90001 58.6 9.70001 58.1 9.70001C57.7 9.70001 57.3 9.90001 57.1 10.2C56.8 10.6 56.7 11 56.7 11.7Z" fill="white"/>
<path d="M63 7.70001V6.10001H64.7V7.70001H63ZM63 15.1V8.60001H64.7V15.1H63Z" fill="white"/>
<path d="M70.1 8.60001C70.1 8.50001 70.1 8.39999 70 8.29999C70 8.19999 70 7.99999 70 7.89999C70 7.59999 70.1 7.30001 70.2 7.10001C70.3 6.90001 70.5 6.7 70.7 6.5C70.9 6.3 71.2 6.20001 71.4 6.10001C71.7 6.00001 72 6 72.4 6C72.7 6 73.1 6.00001 73.4 6.10001C73.7 6.20001 73.9 6.19999 74.2 6.29999C74.5 6.39999 74.7 6.4 74.9 6.5V8.70001H76.1V10.1H74.9V12.7C74.9 13 74.9 13.2 74.9 13.3C74.9 13.5 74.9 13.6 74.9 13.6C74.9 13.7 75 13.8 75.1 13.8C75.2 13.9 75.3 13.9 75.4 13.9C75.6 13.9 75.8 13.8 76.1 13.7L76.2 15C75.8 15.2 75.3 15.3 74.8 15.3C74.5 15.3 74.2 15.2 74 15.1C73.8 15 73.6 14.9 73.5 14.7C73.4 14.5 73.3 14.3 73.3 14C73.3 13.8 73.2 13.4 73.2 12.8V10H72.4V8.60001H73.2V7.10001C73.1 7.10001 73 7.10001 73 7.10001C72.9 7.10001 72.9 7.10001 72.8 7.10001C72.7 7.10001 72.6 7.10001 72.6 7.10001C72.4 7.10001 72.3 7.10001 72.1 7.10001C71.9 7.10001 71.8 7.19999 71.7 7.29999C71.6 7.39999 71.5 7.50001 71.5 7.60001C71.5 7.70001 71.4 7.90001 71.4 8.10001C71.4 8.30001 71.4 8.50001 71.4 8.70001C71.4 8.90001 71.5 9.09999 71.5 9.29999C71.5 9.49999 71.6 9.69999 71.6 9.79999C71.6 9.99999 71.7 10.1 71.7 10.2L70.1 10.5C70 10.2 69.9 9.99999 69.7 9.89999C69.5 9.79999 69.2 9.70001 68.9 9.70001C68.4 9.70001 68.1 9.79999 67.9 9.89999C67.8 9.99999 67.7 10.1 67.7 10.2C67.7 10.3 67.8 10.4 67.9 10.5C68 10.6 68.6 10.8 69.5 11C70.4 11.2 71.1 11.5 71.4 11.8C71.8 12.1 71.9 12.5 71.9 13.1C71.9 13.7 71.7 14.2 71.2 14.6C70.7 15 70 15.2 69 15.2C68.6 15.2 68.2 15.2 67.8 15.1C67.4 15 67.1 14.9 66.9 14.7C66.6 14.5 66.4 14.3 66.3 14.1C66.1 13.9 66 13.6 65.9 13.3L67.6 13C67.7 13.3 67.8 13.6 68 13.8C68.2 14 68.5 14.1 68.9 14.1C69.3 14.1 69.7 14 69.9 13.9C70.1 13.8 70.1 13.6 70.1 13.4C70.1 13.3 70.1 13.2 70 13.1C69.9 13 69.7 12.9 69.4 12.9C68 12.6 67.1 12.3 66.8 12.1C66.3 11.8 66 11.3 66 10.6C66 10 66.2 9.60001 66.7 9.20001C67.2 8.80001 67.8 8.60001 68.8 8.60001C69.1 8.60001 69.3 8.60001 69.5 8.60001C69.8 8.50001 70 8.60001 70.1 8.60001Z" fill="white"/>
<path d="M78.8 15.1H77.1V8.60001H78.7V9.5C79 9.1 79.2 8.80001 79.4 8.60001C79.6 8.50001 79.9 8.39999 80.1 8.39999C80.5 8.39999 80.9 8.50001 81.2 8.70001L80.7 10.2C80.4 10 80.1 9.89999 79.9 9.89999C79.7 9.89999 79.5 10 79.3 10.1C79.1 10.2 79 10.5 78.9 10.8C78.8 11.1 78.8 11.9 78.8 13V15.1Z" fill="white"/>
<path d="M85.8 13L87.5 13.3C87.3 13.9 86.9 14.4 86.5 14.7C86 15 85.4 15.2 84.7 15.2C83.6 15.2 82.7 14.8 82.2 14.1C81.8 13.5 81.6 12.8 81.6 11.9C81.6 10.8 81.9 9.99999 82.4 9.39999C83 8.79999 83.7 8.5 84.5 8.5C85.5 8.5 86.2 8.8 86.8 9.5C87.4 10.1 87.6 11.1 87.6 12.4H83.3C83.3 12.9 83.5 13.3 83.7 13.6C83.9 13.9 84.3 14 84.7 14C85 14 85.2 13.9 85.4 13.8C85.6 13.6 85.7 13.3 85.8 13ZM85.9 11.3C85.9 10.8 85.8 10.4 85.5 10.2C85.3 9.90001 85 9.79999 84.6 9.79999C84.2 9.79999 83.9 9.90001 83.7 10.2C83.5 10.5 83.3 10.8 83.3 11.3H85.9Z" fill="white"/>
<path d="M90.7 15.1H89V8.60001H90.6V9.5C90.9 9.1 91.1 8.80001 91.3 8.60001C91.5 8.50001 91.8 8.39999 92 8.39999C92.4 8.39999 92.8 8.50001 93.1 8.70001L92.6 10.2C92.3 10 92 9.89999 91.8 9.89999C91.6 9.89999 91.4 10 91.2 10.1C91 10.2 90.9 10.5 90.8 10.8C90.7 11.1 90.7 11.9 90.7 13V15.1Z" fill="white"/>
<g clip-path="url(#clip0)">
<path d="M13.3656 4.48387C9.62208 4.48387 6.58044 7.62363 6.58044 11.4879C6.58044 14.362 8.24165 16.8255 10.6515 17.9123C10.6281 17.4293 10.6515 16.8255 10.7685 16.2941C10.9089 15.7145 11.6342 12.4781 11.6342 12.4781C11.6342 12.4781 11.4237 12.0193 11.4237 11.3672C11.4237 10.3286 12.0086 9.55576 12.7339 9.55576C13.3422 9.55576 13.6464 10.0388 13.6464 10.6184C13.6464 11.2464 13.2486 12.2125 13.038 13.1061C12.8743 13.8548 13.389 14.4586 14.1143 14.4586C15.4012 14.4586 16.2669 12.7438 16.2669 10.7392C16.2669 9.19344 15.2608 8.05832 13.4358 8.05832C11.3768 8.05832 10.09 9.65234 10.09 11.4154C10.09 12.0192 10.2538 12.454 10.5346 12.7921C10.6515 12.937 10.675 13.0094 10.6281 13.1785C10.6047 13.2993 10.5112 13.6132 10.4877 13.734C10.4409 13.903 10.3006 13.9755 10.1368 13.903C9.17752 13.4924 8.75636 12.4298 8.75636 11.2222C8.75636 9.24173 10.3708 6.85069 13.5996 6.85069C16.1967 6.85069 17.9047 8.78285 17.9047 10.8599C17.9047 13.6132 16.4306 15.6661 14.2547 15.6661C13.5294 15.6661 12.8275 15.2556 12.5935 14.7967C12.5935 14.7967 12.1958 16.4149 12.1256 16.7288C11.9852 17.2602 11.7044 17.8157 11.4471 18.2263C12.0554 18.4195 12.7105 18.5161 13.3656 18.5161C17.1092 18.5161 20.1508 15.3763 20.1508 11.512C20.1508 7.64773 17.1092 4.48387 13.3656 4.48387Z" fill="#CB1F24"/>
<path d="M13.3656 4.48387C9.62208 4.48387 6.58044 7.62363 6.58044 11.4879C6.58044 14.362 8.24165 16.8255 10.6515 17.9123C10.6281 17.4293 10.6515 16.8255 10.7685 16.2941C10.9089 15.7145 11.6342 12.4781 11.6342 12.4781C11.6342 12.4781 11.4237 12.0193 11.4237 11.3672C11.4237 10.3286 12.0086 9.55576 12.7339 9.55576C13.3422 9.55576 13.6464 10.0388 13.6464 10.6184C13.6464 11.2464 13.2486 12.2125 13.038 13.1061C12.8743 13.8548 13.389 14.4586 14.1143 14.4586C15.4012 14.4586 16.2669 12.7438 16.2669 10.7392C16.2669 9.19344 15.2608 8.05832 13.4358 8.05832C11.3768 8.05832 10.09 9.65234 10.09 11.4154C10.09 12.0192 10.2538 12.454 10.5346 12.7921C10.6515 12.937 10.675 13.0094 10.6281 13.1785C10.6047 13.2993 10.5112 13.6132 10.4877 13.734C10.4409 13.903 10.3006 13.9755 10.1368 13.903C9.17752 13.4924 8.75636 12.4298 8.75636 11.2222C8.75636 9.24173 10.3708 6.85069 13.5996 6.85069C16.1967 6.85069 17.9047 8.78285 17.9047 10.8599C17.9047 13.6132 16.4306 15.6661 14.2547 15.6661C13.5294 15.6661 12.8275 15.2556 12.5935 14.7967C12.5935 14.7967 12.1958 16.4149 12.1256 16.7288C11.9852 17.2602 11.7044 17.8157 11.4471 18.2263C12.0554 18.4195 12.7105 18.5161 13.3656 18.5161C17.1092 18.5161 20.1508 15.3763 20.1508 11.512C20.1508 7.64773 17.1092 4.48387 13.3656 4.48387Z" fill="white"/>
</g>
</g>
<defs>
<clipPath id="clip0">
<rect width="13.5938" height="14.0323" fill="white" transform="matrix(-1 0 0 1 20.1625 4.48387)"/>
</clipPath>
</defs>
</svg>
