<svg width="61" height="23" viewBox="0 0 61 23" fill="none" xmlns="http://www.w3.org/2000/svg">
<mask id="mask0" mask-type="alpha" maskUnits="userSpaceOnUse" x="0" y="0" width="61" height="23">
<path d="M57.1 0H3.80002C1.70002 0 0 1.69999 0 3.79999V19.2C0 21.3 1.70002 23 3.80002 23H57.1C59.2 23 60.9 21.3 60.9 19.2V3.79999C60.8 1.69999 59.1 0 57.1 0Z" fill="#50ABF1"/>
</mask>
<g mask="url(#mask0)">
<rect width="61" height="23" fill="#0274B3"/>
<rect width="61" height="23" fill="#E1E7EC"/>
<rect width="61" height="23" fill="#CB1F24"/>
<path d="M27.5 9.90002L34 9.80005L34.3 10.4V10.5H33.2V16.1L33.1 16.2L32.4 16V13.6C32.1 13.7 31.9 13.7 31.6 13.7C31.1 13.7 30.5 13.6 29.8 13.2C29.6 13.6 29.4 13.8 29.1 14C29.7 14.6 30.4 15.1 31.3 15.6L30.9 16.4H30.8C29.7 15.5 28.9 14.7 28.4 14C28.2 13.6 28 13.2 28 13C28 12.9 28.1 12.5 28.5 12.5C28.7 12.5 28.9 12.5 29.1 12.6C29.2 12.3 29.2 12.1 29.2 11.7C29.2 11.3 29.2 10.9 29.1 10.6H27.6L27.5 9.90002ZM30 10.5C30.1 11 30.1 11.5 30.1 12C30.1 12.3 30.1 12.5 30 12.8C30.4 12.9 30.8 13 31.1 13C31.5 13 31.9 12.9 32.4 12.8V10.5H30Z" fill="white"/>
<path d="M32.6 10C32.4 9.6 32.2 9.20005 32 8.80005C31.7 8.10005 31.4 7.80005 30.7 7.80005C30.3 7.80005 30 7.9 29.6 8L29.3 7.20001C29.6 7.10001 30 7 30.5 7C31.7 7 31.9 7.8 33.1 10V10.1H32.6V10Z" fill="white"/>
<path d="M33.7 9.90002L39.5 9.80005L39.8 10.4V10.5H38.7V16.1L38.6 16.2L37.9 16V14.4C37.5 14.7 37 14.9 36.5 14.9C35.4 14.9 34.4 14 34.4 13C34.4 12.1 35.2 11.5 36.3 11.5C36.8 11.5 37.4 11.6 38 11.7V10.6H34L33.7 9.90002ZM37 12.1C35.7 12.1 35.3 12.7 35.3 13.3C35.3 13.8 35.6 14.2 36.4 14.2C36.9 14.2 38.1 13.9 38.1 12.9V12.2C37.7 12.1 37.3 12.1 37 12.1Z" fill="white"/>
<path d="M42.8 9.90002L50.4 9.80005L50.7 10.4V10.5H47.5V12.4C47.9 12 48.3 11.8 48.8 11.8C49.6 11.8 50.2 12.5 50.2 13.3C50.2 14 49.8 14.6 49.3 15.2H49.2L48.6 14.7C49.2 14 49.6 13.4 49.6 12.8C49.6 12.5 49.4 12.3 49.1 12.3C48.6 12.3 48 12.7 47.5 13.3V15.9L47.4 16L46.7 15.8V14C46.3 14.3 45.9 14.5 45.5 14.5C44.4 14.5 43.6 13.6 43.6 12.7C43.6 11.8 44.4 11.2 45.4 11.2C45.9 11.2 46.3 11.3 46.8 11.4V10.3H43.2L42.8 9.90002ZM46.7 12.1C46.4 12 46.1 12 45.8 12C44.9 12 44.3 12.6 44.3 13.2C44.3 13.7 44.6 14 45.1 14C45.6 14 46.2 13.7 46.7 13.1V12.1V12.1Z" fill="white"/>
<path d="M50 9.90002L54.4 9.80005L54.7 10.4V10.5H53.2C53.3 10.8 53.3 11.2 53.3 11.5C53.3 12.6 52.8 13.2 52 13.6C52.5 14.2 53.4 14.8 54.4 15.4L54 16.2H53.9C52.8 15.4 52 14.6 51.4 13.7C51.1 13.3 50.9 12.9 50.9 12.7C50.9 12.6 50.9 12.5 51 12.4C51.1 12.3 51.3 12.2 51.6 12.2C51.9 12.2 52.1 12.2 52.4 12.2C52.5 12 52.6 11.6 52.6 11.3C52.6 11.1 52.6 10.8 52.5 10.6H50.3L50 9.90002Z" fill="white"/>
<path d="M52.7 10C52.5 9.6 52.3 9.20005 52.1 8.80005C51.8 8.10005 51.5 7.80005 50.8 7.80005C50.4 7.80005 50.1 7.9 49.7 8L49.4 7.20001C49.7 7.10001 50.1 7 50.6 7C51.8 7 52 7.8 53.2 10V10.1H52.7V10ZM53.6 7.60004L54.2 8.20001L53.6 8.80005L53 8.20001L53.6 7.60004Z" fill="white"/>
<g clip-path="url(#clip0)">
<path d="M13.3656 4.48387C9.62208 4.48387 6.58044 7.62363 6.58044 11.4879C6.58044 14.362 8.24165 16.8255 10.6515 17.9123C10.6281 17.4293 10.6515 16.8255 10.7685 16.2941C10.9089 15.7145 11.6342 12.4781 11.6342 12.4781C11.6342 12.4781 11.4237 12.0193 11.4237 11.3672C11.4237 10.3286 12.0086 9.55576 12.7339 9.55576C13.3422 9.55576 13.6464 10.0388 13.6464 10.6184C13.6464 11.2464 13.2486 12.2125 13.038 13.1061C12.8743 13.8548 13.389 14.4586 14.1143 14.4586C15.4012 14.4586 16.2669 12.7438 16.2669 10.7392C16.2669 9.19344 15.2608 8.05832 13.4358 8.05832C11.3768 8.05832 10.09 9.65234 10.09 11.4154C10.09 12.0192 10.2538 12.454 10.5346 12.7921C10.6515 12.937 10.675 13.0094 10.6281 13.1785C10.6047 13.2993 10.5112 13.6132 10.4877 13.734C10.4409 13.903 10.3006 13.9755 10.1368 13.903C9.17752 13.4924 8.75636 12.4298 8.75636 11.2222C8.75636 9.24173 10.3708 6.85069 13.5996 6.85069C16.1967 6.85069 17.9047 8.78285 17.9047 10.8599C17.9047 13.6132 16.4306 15.6661 14.2547 15.6661C13.5294 15.6661 12.8275 15.2556 12.5935 14.7967C12.5935 14.7967 12.1958 16.4149 12.1256 16.7288C11.9852 17.2602 11.7044 17.8157 11.4471 18.2263C12.0554 18.4195 12.7105 18.5161 13.3656 18.5161C17.1092 18.5161 20.1508 15.3763 20.1508 11.512C20.1508 7.64773 17.1092 4.48387 13.3656 4.48387Z" fill="#CB1F24"/>
<path d="M13.3656 4.48387C9.62208 4.48387 6.58044 7.62363 6.58044 11.4879C6.58044 14.362 8.24165 16.8255 10.6515 17.9123C10.6281 17.4293 10.6515 16.8255 10.7685 16.2941C10.9089 15.7145 11.6342 12.4781 11.6342 12.4781C11.6342 12.4781 11.4237 12.0193 11.4237 11.3672C11.4237 10.3286 12.0086 9.55576 12.7339 9.55576C13.3422 9.55576 13.6464 10.0388 13.6464 10.6184C13.6464 11.2464 13.2486 12.2125 13.038 13.1061C12.8743 13.8548 13.389 14.4586 14.1143 14.4586C15.4012 14.4586 16.2669 12.7438 16.2669 10.7392C16.2669 9.19344 15.2608 8.05832 13.4358 8.05832C11.3768 8.05832 10.09 9.65234 10.09 11.4154C10.09 12.0192 10.2538 12.454 10.5346 12.7921C10.6515 12.937 10.675 13.0094 10.6281 13.1785C10.6047 13.2993 10.5112 13.6132 10.4877 13.734C10.4409 13.903 10.3006 13.9755 10.1368 13.903C9.17752 13.4924 8.75636 12.4298 8.75636 11.2222C8.75636 9.24173 10.3708 6.85069 13.5996 6.85069C16.1967 6.85069 17.9047 8.78285 17.9047 10.8599C17.9047 13.6132 16.4306 15.6661 14.2547 15.6661C13.5294 15.6661 12.8275 15.2556 12.5935 14.7967C12.5935 14.7967 12.1958 16.4149 12.1256 16.7288C11.9852 17.2602 11.7044 17.8157 11.4471 18.2263C12.0554 18.4195 12.7105 18.5161 13.3656 18.5161C17.1092 18.5161 20.1508 15.3763 20.1508 11.512C20.1508 7.64773 17.1092 4.48387 13.3656 4.48387Z" fill="white"/>
</g>
</g>
<defs>
<clipPath id="clip0">
<rect width="13.5938" height="14.0323" fill="white" transform="matrix(-1 0 0 1 20.1625 4.48387)"/>
</clipPath>
</defs>
</svg>
