<svg width="78" height="23" viewBox="0 0 78 23" fill="none" xmlns="http://www.w3.org/2000/svg">
<mask id="mask0" mask-type="alpha" maskUnits="userSpaceOnUse" x="0" y="0" width="78" height="23">
<path d="M74.1 0H3.80002C1.70002 0 0 1.69999 0 3.79999V19.2C0 21.3 1.70002 23 3.80002 23H74.1C76.2 23 77.9 21.3 77.9 19.2V3.79999C77.8 1.69999 76.1 0 74.1 0Z" fill="#50ABF1"/>
</mask>
<g mask="url(#mask0)">
<rect width="78" height="23" fill="#0274B3"/>
<rect width="78" height="23" fill="#E1E7EC"/>
<rect width="78" height="23" fill="#CB1F24"/>
<path d="M27.5 12.3L29.3 12.1C29.4 12.7 29.6 13.1 29.9 13.4C30.2 13.7 30.7 13.8 31.2 13.8C31.8 13.8 32.2 13.7 32.5 13.4C32.8 13.2 32.9 12.9 32.9 12.5C32.9 12.3 32.8 12.1 32.7 12C32.6 11.9 32.4 11.7 32 11.6C31.8 11.5 31.3 11.4 30.6 11.2C29.6 11 28.9 10.7 28.6 10.3C28 9.79999 27.8 9.2 27.8 8.5C27.8 8 27.9 7.60001 28.2 7.20001C28.5 6.80001 28.8 6.49999 29.3 6.29999C29.8 6.09999 30.4 6 31.1 6C32.2 6 33.1 6.20001 33.6 6.70001C34.1 7.20001 34.5 7.90001 34.5 8.70001L32.7 8.79999C32.6 8.29999 32.5 7.99999 32.2 7.79999C31.9 7.59999 31.6 7.5 31.1 7.5C30.6 7.5 30.2 7.59999 29.9 7.79999C29.7 7.89999 29.6 8.10002 29.6 8.40002C29.6 8.60002 29.7 8.80002 29.9 8.90002C30.1 9.10002 30.7 9.3 31.6 9.5C32.5 9.7 33.1 9.89998 33.6 10.1C34 10.3 34.4 10.6 34.6 11C34.8 11.4 35 11.9 35 12.4C35 12.9 34.9 13.4 34.6 13.8C34.3 14.2 33.9 14.6 33.4 14.8C32.9 15 32.2 15.1 31.5 15.1C30.4 15.1 29.5 14.8 28.9 14.3C28 14.1 27.6 13.3 27.5 12.3Z" fill="white"/>
<path d="M36.3 7.79999V6.20001H38V7.79999H36.3ZM36.3 15.2V8.70001H38V15.2H36.3Z" fill="white"/>
<path d="M39.6 8.70001H41.2V9.59998C41.8 8.89998 42.4 8.59998 43.2 8.59998C43.6 8.59998 44 8.70002 44.3 8.90002C44.6 9.10002 44.9 9.30001 45.1 9.70001C45.4 9.40001 45.7 9.10002 46 8.90002C46.3 8.70002 46.7 8.59998 47.1 8.59998C47.6 8.59998 48 8.70002 48.3 8.90002C48.6 9.10002 48.9 9.39999 49 9.79999C49.1 10.1 49.2 10.5 49.2 11.1V15.3H47.5V11.5C47.5 10.9 47.4 10.4 47.3 10.3C47.1 10.1 46.9 9.90002 46.6 9.90002C46.4 9.90002 46.1 9.99998 45.9 10.1C45.7 10.2 45.5 10.5 45.4 10.7C45.3 10.9 45.3 11.4 45.3 12V15.1H43.6V11.5C43.6 10.9 43.6 10.5 43.5 10.3C43.4 10.1 43.3 10 43.2 9.90002C43.1 9.80002 42.9 9.79999 42.7 9.79999C42.4 9.79999 42.2 9.9 42 10C41.8 10.1 41.6 10.3 41.5 10.6C41.4 10.9 41.4 11.3 41.4 11.9V15.1H39.7V8.70001H39.6Z" fill="white"/>
<path d="M50.8 8.70001H52.4V9.70001C52.6 9.40001 52.9 9.10002 53.2 8.90002C53.6 8.70002 53.9 8.59998 54.4 8.59998C55.2 8.59998 55.8 8.9 56.3 9.5C56.8 10.1 57.1 10.9 57.1 12C57.1 13.1 56.8 13.9 56.3 14.5C55.8 15.1 55.1 15.4 54.4 15.4C54 15.4 53.7 15.3 53.4 15.2C53.1 15.1 52.8 14.8 52.5 14.5V17.8H50.8V8.70001V8.70001ZM52.5 11.8C52.5 12.5 52.6 13.1 52.9 13.4C53.2 13.7 53.5 13.9 54 13.9C54.4 13.9 54.7 13.7 55 13.4C55.3 13.1 55.4 12.6 55.4 11.8C55.4 11.1 55.3 10.6 55 10.3C54.7 9.99999 54.4 9.79999 54 9.79999C53.6 9.79999 53.2 9.99999 53 10.3C52.7 10.7 52.5 11.2 52.5 11.8Z" fill="white"/>
<path d="M59.8 10.7L58.2 10.4C58.4 9.80002 58.7 9.3 59.1 9C59.5 8.7 60.2 8.5 61 8.5C61.8 8.5 62.3 8.59999 62.7 8.79999C63.1 8.99999 63.3 9.2 63.5 9.5C63.7 9.8 63.7 10.3 63.7 11V13C63.7 13.6 63.7 14 63.8 14.3C63.9 14.6 64 14.9 64.1 15.2H62.4C62.4 15.1 62.3 14.9 62.2 14.7C62.2 14.6 62.2 14.5 62.1 14.5C61.8 14.8 61.5 15 61.2 15.1C60.9 15.2 60.5 15.3 60.1 15.3C59.4 15.3 58.9 15.1 58.5 14.8C58.1 14.4 57.9 14 57.9 13.4C57.9 13 58 12.7 58.2 12.4C58.4 12.1 58.6 11.9 58.9 11.7C59.2 11.5 59.7 11.4 60.3 11.3C61.1 11.1 61.7 11 62 10.9V10.7C62 10.4 61.9 10.1 61.8 10C61.6 9.9 61.3 9.79999 60.9 9.79999C60.6 9.79999 60.4 9.9 60.2 10C60 10.1 59.9 10.4 59.8 10.7ZM62.1 12.1C61.9 12.2 61.5 12.3 61.1 12.4C60.6 12.5 60.3 12.6 60.2 12.7C60 12.9 59.9 13.1 59.9 13.3C59.9 13.5 60 13.7 60.2 13.9C60.4 14.1 60.6 14.2 60.9 14.2C61.2 14.2 61.5 14.1 61.8 13.9C62 13.7 62.1 13.6 62.2 13.3C62.2 13.2 62.3 12.9 62.3 12.5V12.1H62.1Z" fill="white"/>
<path d="M71.4 15.2H69.7V11.9C69.7 11.2 69.7 10.7 69.6 10.5C69.5 10.3 69.4 10.1 69.2 10C69 9.9 68.8 9.79999 68.6 9.79999C68.3 9.79999 68 9.9 67.8 10C67.6 10.1 67.4 10.4 67.3 10.6C67.2 10.9 67.2 11.4 67.2 12.1V15H65.5V8.5H67.1V9.5C67.7 8.8 68.4 8.40002 69.2 8.40002C69.6 8.40002 69.9 8.49998 70.2 8.59998C70.5 8.69998 70.8 8.89998 70.9 9.09998C71 9.29998 71.2 9.59999 71.2 9.79999C71.3 10.1 71.3 10.5 71.3 11V15.2H71.4Z" fill="white"/>
<g clip-path="url(#clip0)">
<path d="M13.3656 4.48387C9.62208 4.48387 6.58044 7.62363 6.58044 11.4879C6.58044 14.362 8.24165 16.8255 10.6515 17.9123C10.6281 17.4293 10.6515 16.8255 10.7685 16.2941C10.9089 15.7145 11.6342 12.4781 11.6342 12.4781C11.6342 12.4781 11.4237 12.0193 11.4237 11.3672C11.4237 10.3286 12.0086 9.55576 12.7339 9.55576C13.3422 9.55576 13.6464 10.0388 13.6464 10.6184C13.6464 11.2464 13.2486 12.2125 13.038 13.1061C12.8743 13.8548 13.389 14.4586 14.1143 14.4586C15.4012 14.4586 16.2669 12.7438 16.2669 10.7392C16.2669 9.19344 15.2608 8.05832 13.4358 8.05832C11.3768 8.05832 10.09 9.65234 10.09 11.4154C10.09 12.0192 10.2538 12.454 10.5346 12.7921C10.6515 12.937 10.675 13.0094 10.6281 13.1785C10.6047 13.2993 10.5112 13.6132 10.4877 13.734C10.4409 13.903 10.3006 13.9755 10.1368 13.903C9.17752 13.4924 8.75636 12.4298 8.75636 11.2222C8.75636 9.24173 10.3708 6.85069 13.5996 6.85069C16.1967 6.85069 17.9047 8.78285 17.9047 10.8599C17.9047 13.6132 16.4306 15.6661 14.2547 15.6661C13.5294 15.6661 12.8275 15.2556 12.5935 14.7967C12.5935 14.7967 12.1958 16.4149 12.1256 16.7288C11.9852 17.2602 11.7044 17.8157 11.4471 18.2263C12.0554 18.4195 12.7105 18.5161 13.3656 18.5161C17.1092 18.5161 20.1508 15.3763 20.1508 11.512C20.1508 7.64773 17.1092 4.48387 13.3656 4.48387Z" fill="#CB1F24"/>
<path d="M13.3656 4.48387C9.62208 4.48387 6.58044 7.62363 6.58044 11.4879C6.58044 14.362 8.24165 16.8255 10.6515 17.9123C10.6281 17.4293 10.6515 16.8255 10.7685 16.2941C10.9089 15.7145 11.6342 12.4781 11.6342 12.4781C11.6342 12.4781 11.4237 12.0193 11.4237 11.3672C11.4237 10.3286 12.0086 9.55576 12.7339 9.55576C13.3422 9.55576 13.6464 10.0388 13.6464 10.6184C13.6464 11.2464 13.2486 12.2125 13.038 13.1061C12.8743 13.8548 13.389 14.4586 14.1143 14.4586C15.4012 14.4586 16.2669 12.7438 16.2669 10.7392C16.2669 9.19344 15.2608 8.05832 13.4358 8.05832C11.3768 8.05832 10.09 9.65234 10.09 11.4154C10.09 12.0192 10.2538 12.454 10.5346 12.7921C10.6515 12.937 10.675 13.0094 10.6281 13.1785C10.6047 13.2993 10.5112 13.6132 10.4877 13.734C10.4409 13.903 10.3006 13.9755 10.1368 13.903C9.17752 13.4924 8.75636 12.4298 8.75636 11.2222C8.75636 9.24173 10.3708 6.85069 13.5996 6.85069C16.1967 6.85069 17.9047 8.78285 17.9047 10.8599C17.9047 13.6132 16.4306 15.6661 14.2547 15.6661C13.5294 15.6661 12.8275 15.2556 12.5935 14.7967C12.5935 14.7967 12.1958 16.4149 12.1256 16.7288C11.9852 17.2602 11.7044 17.8157 11.4471 18.2263C12.0554 18.4195 12.7105 18.5161 13.3656 18.5161C17.1092 18.5161 20.1508 15.3763 20.1508 11.512C20.1508 7.64773 17.1092 4.48387 13.3656 4.48387Z" fill="white"/>
</g>
</g>
<defs>
<clipPath id="clip0">
<rect width="13.5938" height="14.0323" fill="white" transform="matrix(-1 0 0 1 20.1625 4.48387)"/>
</clipPath>
</defs>
</svg>
