<svg width="66" height="23" viewBox="0 0 66 23" fill="none" xmlns="http://www.w3.org/2000/svg">
<mask id="mask0" mask-type="alpha" maskUnits="userSpaceOnUse" x="0" y="0" width="66" height="23">
<path d="M62.1 0H3.80002C1.70002 0 0 1.69999 0 3.79999V19.2C0 21.3 1.70002 23 3.80002 23H62.1C64.2 23 65.9 21.3 65.9 19.2V3.79999C65.8 1.69999 64.1 0 62.1 0Z" fill="#50ABF1"/>
</mask>
<g mask="url(#mask0)">
<rect width="66" height="23" fill="#0274B3"/>
<rect width="66" height="23" fill="#E1E7EC"/>
<rect width="66" height="23" fill="#CB1F24"/>
<path d="M27.5 13.3L29.3 13.1C29.4 13.7 29.6 14.1 29.9 14.4C30.2 14.7 30.7 14.8 31.2 14.8C31.8 14.8 32.2 14.7 32.5 14.4C32.8 14.2 32.9 13.9 32.9 13.5C32.9 13.3 32.8 13.1 32.7 13C32.6 12.9 32.4 12.7 32 12.6C31.8 12.5 31.3 12.4 30.6 12.2C29.6 12 28.9 11.7 28.6 11.3C28 10.8 27.8 10.2 27.8 9.5C27.8 9 27.9 8.60001 28.2 8.20001C28.5 7.80001 28.8 7.50005 29.3 7.30005C29.8 7.10005 30.4 7 31.1 7C32.2 7 33.1 7.20001 33.6 7.70001C34.1 8.20001 34.5 8.90001 34.5 9.70001L32.7 9.90002C32.6 9.40002 32.5 9.10002 32.2 8.90002C31.9 8.70002 31.6 8.60004 31.1 8.60004C30.6 8.60004 30.2 8.70002 29.9 8.90002C29.7 9.00002 29.6 9.2 29.6 9.5C29.6 9.7 29.7 9.9 29.9 10C30.1 10.2 30.7 10.4 31.6 10.6C32.5 10.8 33.1 11 33.6 11.2C34 11.4 34.4 11.7 34.6 12.1C34.8 12.5 35 13 35 13.5C35 14 34.9 14.5 34.6 14.9C34.3 15.3 33.9 15.7 33.4 15.9C32.9 16.1 32.2 16.2 31.5 16.2C30.4 16.2 29.5 15.9 28.9 15.4C28 15 27.6 14.3 27.5 13.3Z" fill="white"/>
<path d="M37.6 11.7L36 11.4C36.2 10.8 36.5 10.3 36.9 10C37.3 9.7 38 9.5 38.8 9.5C39.6 9.5 40.1 9.60005 40.5 9.80005C40.9 10 41.1 10.2 41.3 10.5C41.5 10.8 41.5 11.3 41.5 12V14C41.5 14.6 41.5 15 41.6 15.3C41.7 15.6 41.8 15.9 41.9 16.2H40.2C40.2 16.1 40.1 15.9 40 15.7C40 15.6 40 15.5 39.9 15.5C39.6 15.8 39.3 16 39 16.1C38.7 16.2 38.3 16.3 37.9 16.3C37.2 16.3 36.7 16.1 36.3 15.8C35.9 15.4 35.7 15 35.7 14.4C35.7 14 35.8 13.7 36 13.4C36.2 13.1 36.4 12.9 36.7 12.7C37 12.5 37.5 12.4 38.1 12.3C38.9 12.1 39.5 12 39.8 11.9V11.7C39.8 11.4 39.7 11.1 39.6 11C39.5 10.9 39.1 10.8 38.7 10.8C38.4 10.8 38.2 10.9 38 11C37.8 11.2 37.7 11.4 37.6 11.7ZM39.9 13.1C39.7 13.2 39.3 13.3 38.9 13.4C38.5 13.5 38.1 13.6 38 13.7C37.8 13.9 37.7 14.1 37.7 14.3C37.7 14.5 37.8 14.7 38 14.9C38.2 15.1 38.4 15.2 38.7 15.2C39 15.2 39.3 15.1 39.6 14.9C39.8 14.7 39.9 14.6 40 14.3C40 14.2 40.1 13.9 40.1 13.5V13.1H39.9Z" fill="white"/>
<path d="M43.2 16.2V7.20001H44.9V16.2H43.2Z" fill="white"/>
<path d="M48.5 16.2L45.9 9.70001H47.7L48.9 13L49.3 14.1C49.4 13.8 49.5 13.6 49.5 13.5C49.6 13.3 49.6 13.1 49.7 12.9L50.9 9.60004H52.7L50.1 16.1H48.5V16.2Z" fill="white"/>
<path d="M55 11.7L53.4 11.4C53.6 10.8 53.9 10.3 54.3 10C54.7 9.7 55.4 9.5 56.2 9.5C57 9.5 57.5 9.60005 57.9 9.80005C58.3 10 58.5 10.2 58.7 10.5C58.9 10.8 58.9 11.3 58.9 12V14C58.9 14.6 58.9 15 59 15.3C59.1 15.6 59.2 15.9 59.3 16.2H57.6C57.6 16.1 57.5 15.9 57.4 15.7C57.4 15.6 57.4 15.5 57.3 15.5C57 15.8 56.7 16 56.4 16.1C56.1 16.2 55.7 16.3 55.3 16.3C54.6 16.3 54.1 16.1 53.7 15.8C53.3 15.4 53.1 15 53.1 14.4C53.1 14 53.2 13.7 53.4 13.4C53.6 13.1 53.8 12.9 54.1 12.7C54.4 12.5 54.9 12.4 55.5 12.3C56.3 12.1 56.9 12 57.2 11.9V11.7C57.2 11.4 57.1 11.1 57 11C56.8 10.9 56.5 10.8 56.1 10.8C55.8 10.8 55.6 10.9 55.4 11C55.2 11.1 55.1 11.4 55 11.7ZM57.3 13.1C57.1 13.2 56.7 13.3 56.3 13.4C55.8 13.5 55.5 13.6 55.4 13.7C55.2 13.9 55.1 14.1 55.1 14.3C55.1 14.5 55.2 14.7 55.4 14.9C55.6 15.1 55.8 15.2 56.1 15.2C56.4 15.2 56.7 15.1 57 14.9C57.2 14.7 57.3 14.6 57.4 14.3C57.4 14.2 57.5 13.9 57.5 13.5V13.1H57.3Z" fill="white"/>
<g clip-path="url(#clip0)">
<path d="M13.3656 4.48387C9.62208 4.48387 6.58044 7.62363 6.58044 11.4879C6.58044 14.362 8.24165 16.8255 10.6515 17.9123C10.6281 17.4293 10.6515 16.8255 10.7685 16.2941C10.9089 15.7145 11.6342 12.4781 11.6342 12.4781C11.6342 12.4781 11.4237 12.0193 11.4237 11.3672C11.4237 10.3286 12.0086 9.55576 12.7339 9.55576C13.3422 9.55576 13.6464 10.0388 13.6464 10.6184C13.6464 11.2464 13.2486 12.2125 13.038 13.1061C12.8743 13.8548 13.389 14.4586 14.1143 14.4586C15.4012 14.4586 16.2669 12.7438 16.2669 10.7392C16.2669 9.19344 15.2608 8.05832 13.4358 8.05832C11.3768 8.05832 10.09 9.65234 10.09 11.4154C10.09 12.0192 10.2538 12.454 10.5346 12.7921C10.6515 12.937 10.675 13.0094 10.6281 13.1785C10.6047 13.2993 10.5112 13.6132 10.4877 13.734C10.4409 13.903 10.3006 13.9755 10.1368 13.903C9.17752 13.4924 8.75636 12.4298 8.75636 11.2222C8.75636 9.24173 10.3708 6.85069 13.5996 6.85069C16.1967 6.85069 17.9047 8.78285 17.9047 10.8599C17.9047 13.6132 16.4306 15.6661 14.2547 15.6661C13.5294 15.6661 12.8275 15.2556 12.5935 14.7967C12.5935 14.7967 12.1958 16.4149 12.1256 16.7288C11.9852 17.2602 11.7044 17.8157 11.4471 18.2263C12.0554 18.4195 12.7105 18.5161 13.3656 18.5161C17.1092 18.5161 20.1508 15.3763 20.1508 11.512C20.1508 7.64773 17.1092 4.48387 13.3656 4.48387Z" fill="#CB1F24"/>
<path d="M13.3656 4.48387C9.62208 4.48387 6.58044 7.62363 6.58044 11.4879C6.58044 14.362 8.24165 16.8255 10.6515 17.9123C10.6281 17.4293 10.6515 16.8255 10.7685 16.2941C10.9089 15.7145 11.6342 12.4781 11.6342 12.4781C11.6342 12.4781 11.4237 12.0193 11.4237 11.3672C11.4237 10.3286 12.0086 9.55576 12.7339 9.55576C13.3422 9.55576 13.6464 10.0388 13.6464 10.6184C13.6464 11.2464 13.2486 12.2125 13.038 13.1061C12.8743 13.8548 13.389 14.4586 14.1143 14.4586C15.4012 14.4586 16.2669 12.7438 16.2669 10.7392C16.2669 9.19344 15.2608 8.05832 13.4358 8.05832C11.3768 8.05832 10.09 9.65234 10.09 11.4154C10.09 12.0192 10.2538 12.454 10.5346 12.7921C10.6515 12.937 10.675 13.0094 10.6281 13.1785C10.6047 13.2993 10.5112 13.6132 10.4877 13.734C10.4409 13.903 10.3006 13.9755 10.1368 13.903C9.17752 13.4924 8.75636 12.4298 8.75636 11.2222C8.75636 9.24173 10.3708 6.85069 13.5996 6.85069C16.1967 6.85069 17.9047 8.78285 17.9047 10.8599C17.9047 13.6132 16.4306 15.6661 14.2547 15.6661C13.5294 15.6661 12.8275 15.2556 12.5935 14.7967C12.5935 14.7967 12.1958 16.4149 12.1256 16.7288C11.9852 17.2602 11.7044 17.8157 11.4471 18.2263C12.0554 18.4195 12.7105 18.5161 13.3656 18.5161C17.1092 18.5161 20.1508 15.3763 20.1508 11.512C20.1508 7.64773 17.1092 4.48387 13.3656 4.48387Z" fill="white"/>
</g>
</g>
<defs>
<clipPath id="clip0">
<rect width="13.5938" height="14.0323" fill="white" transform="matrix(-1 0 0 1 20.1625 4.48387)"/>
</clipPath>
</defs>
</svg>
