<svg width="59" height="23" viewBox="0 0 59 23" fill="none" xmlns="http://www.w3.org/2000/svg">
<mask id="mask0" mask-type="alpha" maskUnits="userSpaceOnUse" x="0" y="0" width="59" height="23">
<path d="M55.1 0H3.80002C1.70002 0 0 1.69999 0 3.79999V19.2C0 21.3 1.70002 23 3.80002 23H55.1C57.2 23 58.9 21.3 58.9 19.2V3.79999C58.8 1.69999 57.1 0 55.1 0Z" fill="#50ABF1"/>
</mask>
<g mask="url(#mask0)">
<rect width="59" height="23" fill="#0274B3"/>
<rect width="59" height="23" fill="#E1E7EC"/>
<rect width="59" height="23" fill="#CB1F24"/>
<path d="M29.5 10.5C29 11.3 28.5 12 28 12.6C27.9 12.4 27.7 12 27.6 11.8C28.8 10.5 30 8.29995 30.7 6.19995L31.7 6.5C31.7 6.6 31.6 6.59998 31.4 6.59998C31.1 7.49998 30.7 8.39995 30.2 9.19995L30.5 9.29999C30.5 9.39999 30.4 9.4 30.2 9.5V17.8H29.4V10.5H29.5ZM39.3 13.1H36.2C37 14.5 38.4 15.8 39.6 16.5C39.4 16.7 39.1 17 39 17.2C37.8 16.4 36.5 15 35.6 13.6V17.7H34.8V13.6C33.9 15.1 32.5 16.4 31.3 17.1C31.2 16.9 30.9 16.6 30.7 16.4C32 15.7 33.4 14.4 34.3 13H31V12.2H34.8V10.7H32V6.5H38.6V10.7H35.7V12.2H39.3V13.1ZM32.8 7.39996V10.1H37.7V7.39996H32.8Z" fill="white"/>
<path d="M51.6 8.5H44.7C44.3 9.5 43.7 10.4 43.1 11.3H43.2C43.2 11.4 43.1 11.4 42.9 11.5V17.6H42.1V12.4C41.6 12.9 41.1 13.4 40.5 13.8C40.4 13.6 40.2 13.2 40 13C40.8 12.4 41.4 11.8 42 11V11.1H42.1C42.7 10.3 43.2 9.4 43.6 8.5H40.4V7.69995H44C44.2 7.19995 44.4 6.6 44.5 6L45.6 6.29999C45.6 6.39999 45.5 6.39996 45.3 6.39996C45.2 6.79996 45 7.19998 44.9 7.59998H51.5V8.5H51.6ZM51.9 13.4V14.2H48.4V16.7C48.4 17.2 48.3 17.5 47.9 17.6C47.5 17.7 46.8 17.7 45.7 17.7C45.7 17.4 45.5 17.1 45.4 16.9C45.9 16.9 46.3 16.9 46.6 16.9C47.5 16.9 47.6 16.9 47.6 16.6V14.1H44V13.3H47.6V12.1H47.9C48.5 11.7 49.1 11.2 49.6 10.8H45.1V10.1H50.4L50.6 10L51.3 10.4C51.3 10.5 51.2 10.5 51.1 10.5C50.5 11.2 49.4 12 48.5 12.6V13.3H51.9V13.4Z" fill="white"/>
<g clip-path="url(#clip0)">
<path d="M13.3656 4.48387C9.62208 4.48387 6.58044 7.62363 6.58044 11.4879C6.58044 14.362 8.24165 16.8255 10.6515 17.9123C10.6281 17.4293 10.6515 16.8255 10.7685 16.2941C10.9089 15.7145 11.6342 12.4781 11.6342 12.4781C11.6342 12.4781 11.4237 12.0193 11.4237 11.3672C11.4237 10.3286 12.0086 9.55576 12.7339 9.55576C13.3422 9.55576 13.6464 10.0388 13.6464 10.6184C13.6464 11.2464 13.2486 12.2125 13.038 13.1061C12.8743 13.8548 13.389 14.4586 14.1143 14.4586C15.4012 14.4586 16.2669 12.7438 16.2669 10.7392C16.2669 9.19344 15.2608 8.05832 13.4358 8.05832C11.3768 8.05832 10.09 9.65234 10.09 11.4154C10.09 12.0192 10.2538 12.454 10.5346 12.7921C10.6515 12.937 10.675 13.0094 10.6281 13.1785C10.6047 13.2993 10.5112 13.6132 10.4877 13.734C10.4409 13.903 10.3006 13.9755 10.1368 13.903C9.17752 13.4924 8.75636 12.4298 8.75636 11.2222C8.75636 9.24173 10.3708 6.85069 13.5996 6.85069C16.1967 6.85069 17.9047 8.78285 17.9047 10.8599C17.9047 13.6132 16.4306 15.6661 14.2547 15.6661C13.5294 15.6661 12.8275 15.2556 12.5935 14.7967C12.5935 14.7967 12.1958 16.4149 12.1256 16.7288C11.9852 17.2602 11.7044 17.8157 11.4471 18.2263C12.0554 18.4195 12.7105 18.5161 13.3656 18.5161C17.1092 18.5161 20.1508 15.3763 20.1508 11.512C20.1508 7.64773 17.1092 4.48387 13.3656 4.48387Z" fill="#CB1F24"/>
<path d="M13.3656 4.48387C9.62208 4.48387 6.58044 7.62363 6.58044 11.4879C6.58044 14.362 8.24165 16.8255 10.6515 17.9123C10.6281 17.4293 10.6515 16.8255 10.7685 16.2941C10.9089 15.7145 11.6342 12.4781 11.6342 12.4781C11.6342 12.4781 11.4237 12.0193 11.4237 11.3672C11.4237 10.3286 12.0086 9.55576 12.7339 9.55576C13.3422 9.55576 13.6464 10.0388 13.6464 10.6184C13.6464 11.2464 13.2486 12.2125 13.038 13.1061C12.8743 13.8548 13.389 14.4586 14.1143 14.4586C15.4012 14.4586 16.2669 12.7438 16.2669 10.7392C16.2669 9.19344 15.2608 8.05832 13.4358 8.05832C11.3768 8.05832 10.09 9.65234 10.09 11.4154C10.09 12.0192 10.2538 12.454 10.5346 12.7921C10.6515 12.937 10.675 13.0094 10.6281 13.1785C10.6047 13.2993 10.5112 13.6132 10.4877 13.734C10.4409 13.903 10.3006 13.9755 10.1368 13.903C9.17752 13.4924 8.75636 12.4298 8.75636 11.2222C8.75636 9.24173 10.3708 6.85069 13.5996 6.85069C16.1967 6.85069 17.9047 8.78285 17.9047 10.8599C17.9047 13.6132 16.4306 15.6661 14.2547 15.6661C13.5294 15.6661 12.8275 15.2556 12.5935 14.7967C12.5935 14.7967 12.1958 16.4149 12.1256 16.7288C11.9852 17.2602 11.7044 17.8157 11.4471 18.2263C12.0554 18.4195 12.7105 18.5161 13.3656 18.5161C17.1092 18.5161 20.1508 15.3763 20.1508 11.512C20.1508 7.64773 17.1092 4.48387 13.3656 4.48387Z" fill="white"/>
</g>
</g>
<defs>
<clipPath id="clip0">
<rect width="13.5938" height="14.0323" fill="white" transform="matrix(-1 0 0 1 20.1625 4.48387)"/>
</clipPath>
</defs>
</svg>
