<svg width="58" height="23" viewBox="0 0 58 23" fill="none" xmlns="http://www.w3.org/2000/svg">
<mask id="mask0" mask-type="alpha" maskUnits="userSpaceOnUse" x="0" y="0" width="58" height="23">
<path d="M54.1 0H3.80002C1.70002 0 0 1.69999 0 3.79999V19.2C0 21.3 1.70002 23 3.80002 23H54.1C56.2 23 57.9 21.3 57.9 19.2V3.79999C57.8 1.69999 56.1 0 54.1 0Z" fill="#50ABF1"/>
</mask>
<g mask="url(#mask0)">
<rect width="58" height="23" fill="#0274B3"/>
<rect width="58" height="23" fill="#E1E7EC"/>
<rect width="58" height="23" fill="#CB1F24"/>
<path d="M29.9999 8.5C29.5999 8.6 29.5999 8.70001 29.3999 8.70001C29.1999 8.70001 28.2999 8.29998 28.2999 8.09998C28.2999 8.09998 28.3999 8 28.4999 8C28.5999 8 28.6999 8 28.7999 8C28.9999 8 29.3999 8 29.6999 8C30.6999 8 31.8999 7.90002 32.2999 7.90002C32.6999 7.90002 32.3999 7.79999 32.9999 7.79999C33.4999 7.79999 33.6999 7.80002 33.6999 7.90002C33.6999 8.00002 33.4999 8.10001 33.3999 8.20001C32.9999 8.90001 32.1999 10.1 31.6999 10.8C33.0999 12.5 33.0999 11.8 33.5999 12.6C33.8999 13.1 33.9999 13.4 33.9999 13.6C33.9999 13.8 33.8999 13.9 33.7999 13.9C33.6999 13.9 33.5999 13.8 33.4999 13.7C32.9999 13.1 32.3999 12.1 31.3999 11C29.6999 12.8 27.5999 14.2 27.3999 14.2C27.3999 14.2 27.4999 14.1 27.6999 13.9C30.3999 11.8 31.8999 9.59998 32.5999 8.09998C32.3999 8.39998 30.2999 8.5 29.9999 8.5ZM35.8999 7.29999C35.8999 6.99999 35.2999 6.70002 34.6999 6.40002C34.4999 6.30002 34.2999 6.30001 34.2999 6.20001C34.2999 6.10001 34.3999 6.1 34.6999 6C35.1999 6 36.0999 6.30002 36.2999 6.40002C36.6999 6.50002 36.6999 6.59999 36.6999 6.79999C36.6999 6.99999 36.5999 7.09999 36.5999 7.29999V15.7C36.5999 17.4 36.2999 17.9 36.0999 17.9C35.9999 17.9 35.7999 17.6 35.7999 17V10.9H34.0999C33.7999 10.9 33.7999 11 33.5999 11C33.4999 11 32.5999 10.7 32.5999 10.5C32.5999 10.5 32.6999 10.4 32.7999 10.4C32.8999 10.4 32.8999 10.4 32.9999 10.4C33.2999 10.4 33.4999 10.4 33.7999 10.4C34.3999 10.4 34.7999 10.4 35.8999 10.4V7.29999Z" fill="white"/>
<path d="M44.7999 7.79999C45.0999 7.69999 44.9999 7.70001 45.3999 7.70001C45.7999 7.70001 46.0999 7.70002 46.0999 7.90002C46.0999 8.00002 45.8999 8.19999 45.7999 8.29999C45.3999 8.89999 44.6999 9.70001 44.2999 10.2C44.4999 10.4 44.7999 10.7 44.9999 10.9C45.4999 11.3 45.4999 10.9 46.2999 11.8C46.4999 12 46.4999 12.2 46.4999 12.4C46.4999 12.5 46.3999 12.7 46.2999 12.7C46.1999 12.7 45.9999 12.6 45.8999 12.5C45.5999 12.2 44.7999 11.4 43.9999 10.6C41.8999 12.4 40.0999 13.1 39.8999 13.1H39.7999C39.7999 13.1 39.8999 13 40.0999 12.9C41.6999 12 43.7999 10.4 44.8999 8.40002C44.2999 8.40002 42.7999 8.5 42.2999 8.5C41.9999 8.5 41.9999 8.70001 41.7999 8.70001C41.5999 8.70001 40.5999 8.29998 40.5999 8.09998C40.5999 8.09998 40.6999 8 40.7999 8C40.7999 8 40.8999 8 40.9999 8C41.3999 8.1 41.9999 8.09998 42.5999 8.09998C42.8999 7.89998 44.4999 7.79999 44.7999 7.79999ZM45.9999 13.3C45.9999 13.2 45.8999 13.1 45.7999 13C45.6999 13 45.6999 12.9 45.6999 12.8C45.6999 12.7 45.6999 12.7 45.7999 12.7C45.9999 12.7 46.5999 13 46.5999 13.1C46.5999 13.2 46.4999 13.3 46.3999 13.5C47.7999 13.8 48.3999 14.6 48.3999 15.5C48.3999 16.5 47.4999 17.5 45.8999 17.5C44.2999 17.5 43.4999 16.5 43.4999 15.5C43.4999 14.6 44.1999 13.7 45.5999 13.5C45.8999 13.5 45.9999 13.4 45.9999 13.3ZM44.3999 15.4C44.3999 16.2 44.9999 16.9 46.1999 16.9C47.3999 16.9 47.9999 16.1 47.9999 15.4C47.9999 14.6 47.3999 13.9 46.1999 13.9C44.9999 13.9 44.3999 14.6 44.3999 15.4ZM47.8999 7.09998C47.8999 6.99998 47.4999 6.70002 46.7999 6.40002C46.5999 6.30002 46.4999 6.30001 46.4999 6.20001C46.4999 6.10001 46.6999 6.09998 46.9999 6.09998C47.5999 6.19998 47.9999 6.30002 48.3999 6.40002C48.6999 6.50002 48.6999 6.60001 48.6999 6.70001C48.6999 6.80001 48.6999 6.89998 48.6999 7.09998V10.6C48.8999 10.6 48.9999 10.6 49.1999 10.6C49.7999 10.5 49.4999 10.3 50.3999 10.3C50.6999 10.3 51.1999 10.3 51.1999 10.6C51.1999 10.7 51.0999 10.9 50.7999 10.9H48.6999C48.6999 12 48.5999 12.5 48.4999 12.8C48.3999 13.1 48.1999 13.2 48.0999 13.2C47.9999 13.2 47.8999 13 47.8999 12.6V7.09998Z" fill="white"/>
<g clip-path="url(#clip0)">
<path d="M13.3656 4.48387C9.62208 4.48387 6.58044 7.62363 6.58044 11.4879C6.58044 14.362 8.24165 16.8255 10.6515 17.9123C10.6281 17.4293 10.6515 16.8255 10.7685 16.2941C10.9089 15.7145 11.6342 12.4781 11.6342 12.4781C11.6342 12.4781 11.4237 12.0193 11.4237 11.3672C11.4237 10.3286 12.0086 9.55576 12.7339 9.55576C13.3422 9.55576 13.6464 10.0388 13.6464 10.6184C13.6464 11.2464 13.2486 12.2125 13.038 13.1061C12.8743 13.8548 13.389 14.4586 14.1143 14.4586C15.4012 14.4586 16.2669 12.7438 16.2669 10.7392C16.2669 9.19344 15.2608 8.05832 13.4358 8.05832C11.3768 8.05832 10.09 9.65234 10.09 11.4154C10.09 12.0192 10.2538 12.454 10.5346 12.7921C10.6515 12.937 10.675 13.0094 10.6281 13.1785C10.6047 13.2993 10.5112 13.6132 10.4877 13.734C10.4409 13.903 10.3006 13.9755 10.1368 13.903C9.17752 13.4924 8.75636 12.4298 8.75636 11.2222C8.75636 9.24173 10.3708 6.85069 13.5996 6.85069C16.1967 6.85069 17.9047 8.78285 17.9047 10.8599C17.9047 13.6132 16.4306 15.6661 14.2547 15.6661C13.5294 15.6661 12.8275 15.2556 12.5935 14.7967C12.5935 14.7967 12.1958 16.4149 12.1256 16.7288C11.9852 17.2602 11.7044 17.8157 11.4471 18.2263C12.0554 18.4195 12.7105 18.5161 13.3656 18.5161C17.1092 18.5161 20.1508 15.3763 20.1508 11.512C20.1508 7.64773 17.1092 4.48387 13.3656 4.48387Z" fill="#CB1F24"/>
<path d="M13.3656 4.48387C9.62208 4.48387 6.58044 7.62363 6.58044 11.4879C6.58044 14.362 8.24165 16.8255 10.6515 17.9123C10.6281 17.4293 10.6515 16.8255 10.7685 16.2941C10.9089 15.7145 11.6342 12.4781 11.6342 12.4781C11.6342 12.4781 11.4237 12.0193 11.4237 11.3672C11.4237 10.3286 12.0086 9.55576 12.7339 9.55576C13.3422 9.55576 13.6464 10.0388 13.6464 10.6184C13.6464 11.2464 13.2486 12.2125 13.038 13.1061C12.8743 13.8548 13.389 14.4586 14.1143 14.4586C15.4012 14.4586 16.2669 12.7438 16.2669 10.7392C16.2669 9.19344 15.2608 8.05832 13.4358 8.05832C11.3768 8.05832 10.09 9.65234 10.09 11.4154C10.09 12.0192 10.2538 12.454 10.5346 12.7921C10.6515 12.937 10.675 13.0094 10.6281 13.1785C10.6047 13.2993 10.5112 13.6132 10.4877 13.734C10.4409 13.903 10.3006 13.9755 10.1368 13.903C9.17752 13.4924 8.75636 12.4298 8.75636 11.2222C8.75636 9.24173 10.3708 6.85069 13.5996 6.85069C16.1967 6.85069 17.9047 8.78285 17.9047 10.8599C17.9047 13.6132 16.4306 15.6661 14.2547 15.6661C13.5294 15.6661 12.8275 15.2556 12.5935 14.7967C12.5935 14.7967 12.1958 16.4149 12.1256 16.7288C11.9852 17.2602 11.7044 17.8157 11.4471 18.2263C12.0554 18.4195 12.7105 18.5161 13.3656 18.5161C17.1092 18.5161 20.1508 15.3763 20.1508 11.512C20.1508 7.64773 17.1092 4.48387 13.3656 4.48387Z" fill="white"/>
</g>
</g>
<defs>
<clipPath id="clip0">
<rect width="13.5938" height="14.0323" fill="white" transform="matrix(-1 0 0 1 20.1625 4.48387)"/>
</clipPath>
</defs>
</svg>
