<svg width="84" height="23" viewBox="0 0 84 23" fill="none" xmlns="http://www.w3.org/2000/svg">
<mask id="mask0" mask-type="alpha" maskUnits="userSpaceOnUse" x="0" y="0" width="84" height="23">
<path d="M80.1 0H3.80002C1.70002 0 0 1.69999 0 3.79999V19.2C0 21.3 1.70002 23 3.80002 23H80.1C82.2 23 83.9 21.3 83.9 19.2V3.79999C83.8 1.59999 82.1 0 80.1 0Z" fill="#50ABF1"/>
</mask>
<g mask="url(#mask0)">
<rect width="84" height="23" fill="#0274B3"/>
<rect width="84" height="23" fill="#E1E7EC"/>
<rect width="84" height="23" fill="#CB1F24"/>
<path d="M27.5 7H31.1C31.8 7 32.3 7.00001 32.7 7.10001C33 7.20001 33.4 7.3 33.6 7.5C33.9 7.7 34.1 7.90001 34.3 8.20001C34.5 8.50001 34.6 8.90001 34.6 9.20001C34.6 9.60001 34.5 9.99999 34.3 10.4C34.1 10.8 33.8 11 33.4 11.2C33.9 11.4 34.4 11.6 34.7 12C35 12.4 35.1 12.8 35.1 13.4C35.1 13.8 35 14.2 34.8 14.6C34.6 15 34.4 15.3 34 15.5C33.7 15.7 33.3 15.9 32.8 15.9C32.5 15.9 31.8 16 30.6 16H27.6V7H27.5ZM29.3 8.5V10.6H30.5C31.2 10.6 31.6 10.6 31.8 10.6C32.1 10.6 32.4 10.5 32.5 10.3C32.7 10.1 32.8 9.90001 32.8 9.60001C32.8 9.30001 32.7 9.09999 32.6 8.89999C32.4 8.69999 32.2 8.60001 31.9 8.60001C31.7 8.60001 31.2 8.60001 30.4 8.60001H29.3V8.5ZM29.3 12.1V14.5H31C31.7 14.5 32.1 14.5 32.2 14.4C32.5 14.4 32.7 14.2 32.9 14C33.1 13.8 33.2 13.6 33.2 13.2C33.2 12.9 33.1 12.7 33 12.5C32.9 12.3 32.7 12.2 32.4 12.1C32.1 12 31.6 12 30.8 12H29.3V12.1Z" fill="white"/>
<path d="M40.3 13.9L42 14.2C41.8 14.8 41.4 15.3 41 15.6C40.5 15.9 39.9 16.1 39.2 16.1C38.1 16.1 37.2 15.7 36.7 15C36.3 14.4 36.1 13.7 36.1 12.8C36.1 11.7 36.4 10.9 36.9 10.3C37.5 9.69999 38.2 9.39999 39 9.39999C40 9.39999 40.7 9.69999 41.3 10.4C41.9 11.1 42.1 12 42.1 13.3H37.8C37.8 13.8 38 14.2 38.2 14.5C38.5 14.8 38.8 14.9 39.2 14.9C39.5 14.9 39.7 14.8 39.9 14.7C40 14.5 40.2 14.2 40.3 13.9ZM40.4 12.2C40.4 11.7 40.3 11.3 40 11.1C39.8 10.8 39.5 10.7 39.1 10.7C38.7 10.7 38.4 10.8 38.2 11.1C38 11.4 37.8 11.7 37.8 12.2H40.4Z" fill="white"/>
<path d="M44.7 16L42.6 9.5H44.3L45.5 13.8L46.6 9.5H48.3L49.4 13.8L50.6 9.5H52.3L50.2 16H48.5L47.4 11.8L46.3 16H44.7Z" fill="white"/>
<path d="M54.5 11.5L52.9 11.2C53.1 10.6 53.4 10.1 53.8 9.79999C54.2 9.49999 54.9 9.29999 55.7 9.29999C56.5 9.29999 57 9.40001 57.4 9.60001C57.8 9.80001 58 9.99999 58.2 10.3C58.4 10.6 58.4 11.1 58.4 11.8V13.8C58.4 14.4 58.4 14.8 58.5 15.1C58.6 15.4 58.7 15.7 58.8 16H57.1C57.1 15.9 57 15.7 56.9 15.5C56.9 15.4 56.9 15.3 56.8 15.3C56.5 15.6 56.2 15.8 55.9 15.9C55.6 16 55.2 16.1 54.8 16.1C54.1 16.1 53.6 15.9 53.2 15.6C52.8 15.2 52.6 14.8 52.6 14.2C52.6 13.8 52.7 13.5 52.9 13.2C53.1 12.9 53.3 12.7 53.6 12.5C53.9 12.3 54.4 12.2 55 12.1C55.8 11.9 56.4 11.8 56.7 11.7V11.5C56.7 11.2 56.6 10.9 56.5 10.8C56.3 10.7 56 10.6 55.6 10.6C55.3 10.6 55.1 10.7 54.9 10.8C54.7 10.9 54.6 11.2 54.5 11.5ZM56.8 12.8C56.6 12.9 56.2 13 55.8 13.1C55.3 13.2 55 13.3 54.9 13.4C54.7 13.6 54.6 13.8 54.6 14C54.6 14.2 54.7 14.4 54.9 14.6C55.1 14.8 55.3 14.9 55.6 14.9C55.9 14.9 56.2 14.8 56.5 14.6C56.7 14.4 56.8 14.3 56.9 14C56.9 13.9 57 13.6 57 13.2V12.8H56.8Z" fill="white"/>
<path d="M61.8 16H60.1V9.5H61.7V10.4C62 9.99999 62.2 9.7 62.4 9.5C62.6 9.4 62.9 9.29999 63.1 9.29999C63.5 9.29999 63.9 9.40001 64.2 9.60001L63.7 11.1C63.4 10.9 63.1 10.8 62.9 10.8C62.7 10.8 62.5 10.9 62.3 11C62.1 11.1 62 11.4 61.9 11.7C61.8 12 61.8 12.8 61.8 13.9V16Z" fill="white"/>
<path d="M68.8 13.9L70.5 14.2C70.3 14.8 69.9 15.3 69.5 15.6C69 15.9 68.4 16.1 67.7 16.1C66.6 16.1 65.7 15.7 65.2 15C64.8 14.4 64.6 13.7 64.6 12.8C64.6 11.7 64.9 10.9 65.4 10.3C66 9.69999 66.7 9.39999 67.5 9.39999C68.5 9.39999 69.2 9.69999 69.8 10.4C70.4 11 70.6 12 70.6 13.3H66.3C66.3 13.8 66.5 14.2 66.7 14.5C66.9 14.8 67.3 14.9 67.7 14.9C68 14.9 68.2 14.8 68.4 14.7C68.6 14.5 68.7 14.2 68.8 13.9ZM68.9 12.2C68.9 11.7 68.8 11.3 68.5 11.1C68.3 10.8 68 10.7 67.6 10.7C67.2 10.7 66.9 10.8 66.7 11.1C66.5 11.4 66.3 11.7 66.3 12.2H68.9Z" fill="white"/>
<path d="M77.9 16H76.2V12.7C76.2 12 76.2 11.5 76.1 11.3C76 11.1 75.9 10.9 75.7 10.8C75.5 10.7 75.3 10.6 75.1 10.6C74.8 10.6 74.5 10.7 74.3 10.8C74.1 10.9 73.9 11.2 73.8 11.4C73.7 11.7 73.7 12.2 73.7 12.9V15.8H72V9.5H73.6V10.5C74.2 9.8 74.9 9.39999 75.7 9.39999C76.1 9.39999 76.4 9.50001 76.7 9.60001C77 9.70001 77.3 9.90001 77.4 10.1C77.5 10.3 77.7 10.6 77.7 10.8C77.8 11.1 77.8 11.5 77.8 12V16H77.9Z" fill="white"/>
<g clip-path="url(#clip0)">
<path d="M13.3656 4.48387C9.62208 4.48387 6.58044 7.62363 6.58044 11.4879C6.58044 14.362 8.24165 16.8255 10.6515 17.9123C10.6281 17.4293 10.6515 16.8255 10.7685 16.2941C10.9089 15.7145 11.6342 12.4781 11.6342 12.4781C11.6342 12.4781 11.4237 12.0193 11.4237 11.3672C11.4237 10.3286 12.0086 9.55576 12.7339 9.55576C13.3422 9.55576 13.6464 10.0388 13.6464 10.6184C13.6464 11.2464 13.2486 12.2125 13.038 13.1061C12.8743 13.8548 13.389 14.4586 14.1143 14.4586C15.4012 14.4586 16.2669 12.7438 16.2669 10.7392C16.2669 9.19344 15.2608 8.05832 13.4358 8.05832C11.3768 8.05832 10.09 9.65234 10.09 11.4154C10.09 12.0192 10.2538 12.454 10.5346 12.7921C10.6515 12.937 10.675 13.0094 10.6281 13.1785C10.6047 13.2993 10.5112 13.6132 10.4877 13.734C10.4409 13.903 10.3006 13.9755 10.1368 13.903C9.17752 13.4924 8.75636 12.4298 8.75636 11.2222C8.75636 9.24173 10.3708 6.85069 13.5996 6.85069C16.1967 6.85069 17.9047 8.78285 17.9047 10.8599C17.9047 13.6132 16.4306 15.6661 14.2547 15.6661C13.5294 15.6661 12.8275 15.2556 12.5935 14.7967C12.5935 14.7967 12.1958 16.4149 12.1256 16.7288C11.9852 17.2602 11.7044 17.8157 11.4471 18.2263C12.0554 18.4195 12.7105 18.5161 13.3656 18.5161C17.1092 18.5161 20.1508 15.3763 20.1508 11.512C20.1508 7.64773 17.1092 4.48387 13.3656 4.48387Z" fill="#CB1F24"/>
<path d="M13.3656 4.48387C9.62208 4.48387 6.58044 7.62363 6.58044 11.4879C6.58044 14.362 8.24165 16.8255 10.6515 17.9123C10.6281 17.4293 10.6515 16.8255 10.7685 16.2941C10.9089 15.7145 11.6342 12.4781 11.6342 12.4781C11.6342 12.4781 11.4237 12.0193 11.4237 11.3672C11.4237 10.3286 12.0086 9.55576 12.7339 9.55576C13.3422 9.55576 13.6464 10.0388 13.6464 10.6184C13.6464 11.2464 13.2486 12.2125 13.038 13.1061C12.8743 13.8548 13.389 14.4586 14.1143 14.4586C15.4012 14.4586 16.2669 12.7438 16.2669 10.7392C16.2669 9.19344 15.2608 8.05832 13.4358 8.05832C11.3768 8.05832 10.09 9.65234 10.09 11.4154C10.09 12.0192 10.2538 12.454 10.5346 12.7921C10.6515 12.937 10.675 13.0094 10.6281 13.1785C10.6047 13.2993 10.5112 13.6132 10.4877 13.734C10.4409 13.903 10.3006 13.9755 10.1368 13.903C9.17752 13.4924 8.75636 12.4298 8.75636 11.2222C8.75636 9.24173 10.3708 6.85069 13.5996 6.85069C16.1967 6.85069 17.9047 8.78285 17.9047 10.8599C17.9047 13.6132 16.4306 15.6661 14.2547 15.6661C13.5294 15.6661 12.8275 15.2556 12.5935 14.7967C12.5935 14.7967 12.1958 16.4149 12.1256 16.7288C11.9852 17.2602 11.7044 17.8157 11.4471 18.2263C12.0554 18.4195 12.7105 18.5161 13.3656 18.5161C17.1092 18.5161 20.1508 15.3763 20.1508 11.512C20.1508 7.64773 17.1092 4.48387 13.3656 4.48387Z" fill="white"/>
</g>
</g>
<defs>
<clipPath id="clip0">
<rect width="13.5938" height="14.0323" fill="white" transform="matrix(-1 0 0 1 20.1625 4.48387)"/>
</clipPath>
</defs>
</svg>
