<svg width="73" height="23" viewBox="0 0 73 23" fill="none" xmlns="http://www.w3.org/2000/svg">
<mask id="mask0" mask-type="alpha" maskUnits="userSpaceOnUse" x="0" y="0" width="73" height="23">
<path d="M69.1 0H3.80002C1.70002 0 0 1.69999 0 3.79999V19.2C0 21.3 1.70002 23 3.80002 23H69.1C71.2 23 72.9 21.3 72.9 19.2V3.79999C72.8 1.69999 71.1 0 69.1 0Z" fill="#50ABF1"/>
</mask>
<g mask="url(#mask0)">
<rect width="73" height="23" fill="#0274B3"/>
<rect width="73" height="23" fill="#E1E7EC"/>
<rect width="73" height="23" fill="#CB1F24"/>
<path d="M27.5 15V13.4L32.2 7.60004H28V6.10004H34.6V7.5L29.7 13.5H34.8V15H27.5Z" fill="white"/>
<path d="M37.2 10.5L35.6 10.2C35.8 9.60001 36.1 9.09999 36.5 8.79999C36.9 8.49999 37.6 8.29999 38.4 8.29999C39.2 8.29999 39.7 8.40004 40.1 8.60004C40.5 8.80004 40.7 8.99999 40.9 9.29999C41.1 9.59999 41.1 10.1 41.1 10.8V12.8C41.1 13.4 41.1 13.8 41.2 14.1C41.3 14.4 41.4 14.7 41.5 15H39.8C39.8 14.9 39.7 14.7 39.6 14.5C39.6 14.4 39.6 14.3 39.5 14.3C39.2 14.6 38.9 14.8 38.6 14.9C38.3 15 37.9 15.1 37.5 15.1C36.8 15.1 36.3 14.9 35.9 14.6C35.5 14.2 35.3 13.8 35.3 13.2C35.3 12.8 35.4 12.5 35.6 12.2C35.8 11.9 36 11.7 36.3 11.5C36.6 11.3 37.1 11.2 37.7 11.1C38.5 10.9 39.1 10.8 39.4 10.7V10.5C39.4 10.2 39.3 9.89999 39.2 9.79999C39.1 9.69999 38.7 9.60004 38.3 9.60004C38 9.60004 37.8 9.69999 37.6 9.79999C37.4 9.99999 37.3 10.2 37.2 10.5ZM39.5 11.9C39.3 12 38.9 12.1 38.5 12.2C38.1 12.3 37.7 12.4 37.6 12.5C37.4 12.7 37.3 12.9 37.3 13.1C37.3 13.3 37.4 13.5 37.6 13.7C37.8 13.9 38 14 38.3 14C38.6 14 38.9 13.9 39.2 13.7C39.4 13.5 39.5 13.4 39.6 13.1C39.6 13 39.7 12.7 39.7 12.3V11.9H39.5Z" fill="white"/>
<path d="M42.8 8.5H44.4V9.5C44.6 9.2 44.9 8.90001 45.2 8.70001C45.6 8.50001 45.9 8.40002 46.4 8.40002C47.2 8.40002 47.8 8.69999 48.3 9.29999C48.8 9.89999 49.1 10.7 49.1 11.8C49.1 12.9 48.8 13.7 48.3 14.3C47.8 14.9 47.1 15.2 46.4 15.2C46 15.2 45.7 15.1 45.4 15C45.1 14.9 44.8 14.6 44.5 14.3V17.6H42.8V8.5V8.5ZM44.5 11.6C44.5 12.3 44.6 12.9 44.9 13.2C45.2 13.5 45.5 13.7 46 13.7C46.4 13.7 46.7 13.5 47 13.2C47.3 12.9 47.4 12.4 47.4 11.6C47.4 10.9 47.3 10.4 47 10.1C46.7 9.80004 46.4 9.60004 46 9.60004C45.6 9.60004 45.2 9.80004 45 10.1C44.7 10.5 44.5 11 44.5 11.6Z" fill="white"/>
<path d="M50.5 7.60004V6H52.2V7.60004H50.5ZM50.5 15V8.5H52.2V15H50.5Z" fill="white"/>
<path d="M53.4 13.1L55.1 12.8C55.2 13.1 55.3 13.4 55.5 13.6C55.7 13.8 56 13.9 56.4 13.9C56.8 13.9 57.2 13.8 57.4 13.7C57.6 13.6 57.6 13.4 57.6 13.2C57.6 13.1 57.6 13 57.5 12.9C57.4 12.8 57.2 12.7 56.9 12.7C55.5 12.4 54.6 12.1 54.3 11.9C53.8 11.5 53.5 11.1 53.5 10.4C53.5 9.80002 53.7 9.4 54.2 9C54.7 8.6 55.3 8.40002 56.3 8.40002C57.2 8.40002 57.8 8.49999 58.3 8.79999C58.8 9.09999 59 9.50004 59.2 10.1L57.6 10.4C57.5 10.1 57.4 9.99999 57.2 9.79999C57 9.69999 56.7 9.60004 56.4 9.60004C55.9 9.60004 55.6 9.69999 55.4 9.79999C55.3 9.89999 55.2 10 55.2 10.1C55.2 10.2 55.3 10.3 55.4 10.4C55.6 10.5 56.1 10.7 57 10.9C57.9 11.1 58.6 11.4 58.9 11.7C59.3 12 59.4 12.4 59.4 13C59.4 13.6 59.2 14.1 58.7 14.5C58.2 14.9 57.5 15.1 56.5 15.1C55.6 15.1 54.9 14.9 54.4 14.6C53.9 14.2 53.5 13.7 53.4 13.1Z" fill="white"/>
<path d="M60.3 15V13.7L62.7 10.9C63.1 10.4 63.4 10.1 63.6 9.90002C63.4 9.90002 63.1 9.90002 62.8 9.90002H60.5V8.5H65.9V9.70001L63.4 12.6L62.5 13.5C63 13.5 63.3 13.5 63.4 13.5H66.1V15H60.3V15Z" fill="white"/>
<g clip-path="url(#clip0)">
<path d="M13.3656 4.48387C9.62208 4.48387 6.58044 7.62363 6.58044 11.4879C6.58044 14.362 8.24165 16.8255 10.6515 17.9123C10.6281 17.4293 10.6515 16.8255 10.7685 16.2941C10.9089 15.7145 11.6342 12.4781 11.6342 12.4781C11.6342 12.4781 11.4237 12.0193 11.4237 11.3672C11.4237 10.3286 12.0086 9.55576 12.7339 9.55576C13.3422 9.55576 13.6464 10.0388 13.6464 10.6184C13.6464 11.2464 13.2486 12.2125 13.038 13.1061C12.8743 13.8548 13.389 14.4586 14.1143 14.4586C15.4012 14.4586 16.2669 12.7438 16.2669 10.7392C16.2669 9.19344 15.2608 8.05832 13.4358 8.05832C11.3768 8.05832 10.09 9.65234 10.09 11.4154C10.09 12.0192 10.2538 12.454 10.5346 12.7921C10.6515 12.937 10.675 13.0094 10.6281 13.1785C10.6047 13.2993 10.5112 13.6132 10.4877 13.734C10.4409 13.903 10.3006 13.9755 10.1368 13.903C9.17752 13.4924 8.75636 12.4298 8.75636 11.2222C8.75636 9.24173 10.3708 6.85069 13.5996 6.85069C16.1967 6.85069 17.9047 8.78285 17.9047 10.8599C17.9047 13.6132 16.4306 15.6661 14.2547 15.6661C13.5294 15.6661 12.8275 15.2556 12.5935 14.7967C12.5935 14.7967 12.1958 16.4149 12.1256 16.7288C11.9852 17.2602 11.7044 17.8157 11.4471 18.2263C12.0554 18.4195 12.7105 18.5161 13.3656 18.5161C17.1092 18.5161 20.1508 15.3763 20.1508 11.512C20.1508 7.64773 17.1092 4.48387 13.3656 4.48387Z" fill="#CB1F24"/>
<path d="M13.3656 4.48387C9.62208 4.48387 6.58044 7.62363 6.58044 11.4879C6.58044 14.362 8.24165 16.8255 10.6515 17.9123C10.6281 17.4293 10.6515 16.8255 10.7685 16.2941C10.9089 15.7145 11.6342 12.4781 11.6342 12.4781C11.6342 12.4781 11.4237 12.0193 11.4237 11.3672C11.4237 10.3286 12.0086 9.55576 12.7339 9.55576C13.3422 9.55576 13.6464 10.0388 13.6464 10.6184C13.6464 11.2464 13.2486 12.2125 13.038 13.1061C12.8743 13.8548 13.389 14.4586 14.1143 14.4586C15.4012 14.4586 16.2669 12.7438 16.2669 10.7392C16.2669 9.19344 15.2608 8.05832 13.4358 8.05832C11.3768 8.05832 10.09 9.65234 10.09 11.4154C10.09 12.0192 10.2538 12.454 10.5346 12.7921C10.6515 12.937 10.675 13.0094 10.6281 13.1785C10.6047 13.2993 10.5112 13.6132 10.4877 13.734C10.4409 13.903 10.3006 13.9755 10.1368 13.903C9.17752 13.4924 8.75636 12.4298 8.75636 11.2222C8.75636 9.24173 10.3708 6.85069 13.5996 6.85069C16.1967 6.85069 17.9047 8.78285 17.9047 10.8599C17.9047 13.6132 16.4306 15.6661 14.2547 15.6661C13.5294 15.6661 12.8275 15.2556 12.5935 14.7967C12.5935 14.7967 12.1958 16.4149 12.1256 16.7288C11.9852 17.2602 11.7044 17.8157 11.4471 18.2263C12.0554 18.4195 12.7105 18.5161 13.3656 18.5161C17.1092 18.5161 20.1508 15.3763 20.1508 11.512C20.1508 7.64773 17.1092 4.48387 13.3656 4.48387Z" fill="white"/>
</g>
</g>
<defs>
<clipPath id="clip0">
<rect width="13.5938" height="14.0323" fill="white" transform="matrix(-1 0 0 1 20.1625 4.48387)"/>
</clipPath>
</defs>
</svg>
