<svg width="82" height="23" viewBox="0 0 82 23" fill="none" xmlns="http://www.w3.org/2000/svg">
<mask id="mask0" mask-type="alpha" maskUnits="userSpaceOnUse" x="0" y="0" width="82" height="23">
<path d="M78.1 0H3.80002C1.70002 0 0 1.69999 0 3.79999V19.2C0 21.3 1.70002 23 3.80002 23H78.1C80.2 23 81.9 21.3 81.9 19.2V3.79999C81.8 1.69999 80.1 0 78.1 0Z" fill="#50ABF1"/>
</mask>
<g mask="url(#mask0)">
<rect width="82" height="23" fill="#0274B3"/>
<rect width="82" height="23" fill="#E1E7EC"/>
<rect width="82" height="23" fill="#CB1F24"/>
<path d="M32 12.8V11.3H35.9V14.9C35.5 15.3 35 15.6 34.3 15.9C33.6 16.2 32.9 16.3 32.1 16.3C31.2 16.3 30.3 16.1 29.6 15.7C28.9 15.3 28.4 14.7 28 14C27.6 13.3 27.5 12.5 27.5 11.6C27.5 10.7 27.7 9.79998 28.1 9.09998C28.5 8.39998 29.1 7.79996 29.8 7.39996C30.4 7.09996 31.1 7 31.9 7C33 7 33.9 7.20001 34.5 7.70001C35.1 8.20001 35.5 8.79998 35.7 9.59998L33.9 9.89996C33.8 9.49996 33.5 9.09996 33.2 8.89996C32.9 8.59996 32.4 8.5 31.9 8.5C31.1 8.5 30.5 8.79999 30 9.29999C29.5 9.79999 29.3 10.5 29.3 11.5C29.3 12.6 29.5 13.4 30 13.9C30.5 14.4 31.1 14.7 31.9 14.7C32.3 14.7 32.7 14.6 33 14.5C33.4 14.4 33.7 14.2 34 14V12.9H32V12.8Z" fill="white"/>
<path d="M41.8 16.1V15.1C41.6 15.4 41.3 15.7 40.9 15.9C40.5 16.1 40.1 16.2 39.7 16.2C39.3 16.2 38.9 16.1 38.5 15.9C38.2 15.7 37.9 15.4 37.7 15.1C37.5 14.8 37.5 14.3 37.5 13.7V9.59998H39.2V12.6C39.2 13.5 39.2 14.1 39.3 14.3C39.4 14.5 39.5 14.7 39.6 14.8C39.7 14.9 40 15 40.2 15C40.5 15 40.8 14.9 41 14.8C41.2 14.6 41.4 14.4 41.5 14.2C41.6 14 41.6 13.4 41.6 12.4V9.70001H43.3V16.2H41.8V16.1Z" fill="white"/>
<path d="M46.5 11.6L44.9 11.3C45.1 10.7 45.4 10.2 45.8 9.89996C46.2 9.59996 46.9 9.39996 47.7 9.39996C48.5 9.39996 49 9.50001 49.4 9.70001C49.8 9.90001 50 10.1 50.2 10.4C50.4 10.7 50.4 11.2 50.4 11.9V13.9C50.4 14.5 50.4 14.9 50.5 15.2C50.6 15.5 50.7 15.8 50.8 16.1H49.1C49.1 16 49 15.8 48.9 15.6C48.9 15.5 48.9 15.4 48.8 15.4C48.5 15.7 48.2 15.9 47.9 16C47.6 16.1 47.2 16.2 46.8 16.2C46.1 16.2 45.6 16 45.2 15.7C44.8 15.3 44.6 14.9 44.6 14.3C44.6 13.9 44.7 13.6 44.9 13.3C45.1 13 45.3 12.8 45.6 12.6C45.9 12.4 46.4 12.3 47 12.2C47.8 12 48.4 11.9 48.7 11.8V11.6C48.7 11.3 48.6 11 48.5 10.9C48.3 10.8 48 10.7 47.6 10.7C47.3 10.7 47.1 10.8 46.9 10.9C46.7 11 46.6 11.3 46.5 11.6ZM48.8 13C48.6 13.1 48.2 13.2 47.8 13.3C47.3 13.4 47 13.5 46.9 13.6C46.7 13.8 46.6 14 46.6 14.2C46.6 14.4 46.7 14.6 46.9 14.8C47.1 15 47.3 15.1 47.6 15.1C47.9 15.1 48.2 15 48.5 14.8C48.7 14.6 48.8 14.5 48.9 14.2C48.9 14.1 49 13.8 49 13.4V13H48.8Z" fill="white"/>
<path d="M53.8 16.1H52.1V9.59998H53.7V10.5C54 10.1 54.2 9.79998 54.4 9.59998C54.6 9.49998 54.9 9.39996 55.1 9.39996C55.5 9.39996 55.9 9.50001 56.2 9.70001L55.7 11.3C55.4 11.1 55.1 11 54.9 11C54.7 11 54.5 11.1 54.3 11.2C54.1 11.3 54 11.6 53.9 11.9C53.8 12.2 53.8 13 53.8 14.1V16.1V16.1Z" fill="white"/>
<path d="M63 16.1H61.4V15.1C61.1 15.5 60.8 15.7 60.5 15.9C60.1 16.1 59.8 16.2 59.4 16.2C58.7 16.2 58 15.9 57.5 15.3C57 14.7 56.7 13.9 56.7 12.8C56.7 11.7 57 10.9 57.5 10.3C58 9.69999 58.7 9.39996 59.5 9.39996C60.2 9.39996 60.9 9.69999 61.4 10.3V7.09998H63.1V16.1H63ZM58.4 12.7C58.4 13.4 58.5 13.9 58.7 14.2C59 14.6 59.4 14.9 59.9 14.9C60.3 14.9 60.6 14.7 60.9 14.4C61.2 14.1 61.3 13.6 61.3 12.9C61.3 12.2 61.2 11.6 60.9 11.3C60.6 11 60.3 10.8 59.9 10.8C59.5 10.8 59.2 11 58.9 11.3C58.5 11.6 58.4 12.1 58.4 12.7Z" fill="white"/>
<path d="M65.9 11.6L64.3 11.3C64.5 10.7 64.8 10.2 65.2 9.89996C65.6 9.59996 66.3 9.39996 67.1 9.39996C67.9 9.39996 68.4 9.50001 68.8 9.70001C69.2 9.90001 69.4 10.1 69.6 10.4C69.8 10.7 69.8 11.2 69.8 11.9V13.9C69.8 14.5 69.8 14.9 69.9 15.2C70 15.5 70.1 15.8 70.2 16.1H68.5C68.5 16 68.4 15.8 68.3 15.6C68.3 15.5 68.3 15.4 68.2 15.4C67.9 15.7 67.6 15.9 67.3 16C67 16.1 66.6 16.2 66.2 16.2C65.5 16.2 65 16 64.6 15.7C64.2 15.3 64 14.9 64 14.3C64 13.9 64.1 13.6 64.3 13.3C64.5 13 64.7 12.8 65 12.6C65.3 12.4 65.8 12.3 66.4 12.2C67.2 12 67.8 11.9 68.1 11.8V11.6C68.1 11.3 68 11 67.9 10.9C67.7 10.8 67.4 10.7 67 10.7C66.7 10.7 66.5 10.8 66.3 10.9C66.1 11 66 11.3 65.9 11.6ZM68.2 13C68 13.1 67.6 13.2 67.2 13.3C66.7 13.4 66.4 13.5 66.3 13.6C66.1 13.8 66 14 66 14.2C66 14.4 66.1 14.6 66.3 14.8C66.5 15 66.7 15.1 67 15.1C67.3 15.1 67.6 15 67.9 14.8C68.1 14.6 68.2 14.5 68.3 14.2C68.3 14.1 68.4 13.8 68.4 13.4V13H68.2Z" fill="white"/>
<path d="M73.3 16.1H71.6V9.59998H73.2V10.5C73.5 10.1 73.7 9.79998 73.9 9.59998C74.1 9.49998 74.4 9.39996 74.6 9.39996C75 9.39996 75.4 9.50001 75.7 9.70001L75.2 11.2C74.9 11 74.6 10.9 74.4 10.9C74.2 10.9 74 11 73.8 11.1C73.6 11.2 73.5 11.5 73.4 11.8C73.3 12.1 73.3 12.9 73.3 14V16.1Z" fill="white"/>
<g clip-path="url(#clip0)">
<path d="M13.3656 4.48386C9.62208 4.48386 6.58044 7.62361 6.58044 11.4879C6.58044 14.362 8.24165 16.8255 10.6515 17.9123C10.6281 17.4293 10.6515 16.8255 10.7685 16.2941C10.9089 15.7145 11.6342 12.4781 11.6342 12.4781C11.6342 12.4781 11.4237 12.0193 11.4237 11.3671C11.4237 10.3286 12.0086 9.55575 12.7339 9.55575C13.3422 9.55575 13.6464 10.0388 13.6464 10.6184C13.6464 11.2464 13.2486 12.2124 13.038 13.1061C12.8743 13.8548 13.389 14.4586 14.1143 14.4586C15.4012 14.4586 16.2669 12.7438 16.2669 10.7392C16.2669 9.19342 15.2608 8.0583 13.4358 8.0583C11.3768 8.0583 10.09 9.65233 10.09 11.4154C10.09 12.0192 10.2538 12.4539 10.5346 12.7921C10.6515 12.937 10.675 13.0094 10.6281 13.1785C10.6047 13.2992 10.5112 13.6132 10.4877 13.734C10.4409 13.903 10.3006 13.9755 10.1368 13.903C9.17752 13.4924 8.75636 12.4298 8.75636 11.2222C8.75636 9.24171 10.3708 6.85068 13.5996 6.85068C16.1967 6.85068 17.9047 8.78284 17.9047 10.8599C17.9047 13.6132 16.4306 15.6661 14.2547 15.6661C13.5294 15.6661 12.8275 15.2555 12.5935 14.7967C12.5935 14.7967 12.1958 16.4148 12.1256 16.7288C11.9852 17.2602 11.7044 17.8157 11.4471 18.2262C12.0554 18.4195 12.7105 18.5161 13.3656 18.5161C17.1092 18.5161 20.1508 15.3763 20.1508 11.512C20.1508 7.64772 17.1092 4.48386 13.3656 4.48386Z" fill="#CB1F24"/>
<path d="M13.3656 4.48386C9.62208 4.48386 6.58044 7.62361 6.58044 11.4879C6.58044 14.362 8.24165 16.8255 10.6515 17.9123C10.6281 17.4293 10.6515 16.8255 10.7685 16.2941C10.9089 15.7145 11.6342 12.4781 11.6342 12.4781C11.6342 12.4781 11.4237 12.0193 11.4237 11.3671C11.4237 10.3286 12.0086 9.55575 12.7339 9.55575C13.3422 9.55575 13.6464 10.0388 13.6464 10.6184C13.6464 11.2464 13.2486 12.2124 13.038 13.1061C12.8743 13.8548 13.389 14.4586 14.1143 14.4586C15.4012 14.4586 16.2669 12.7438 16.2669 10.7392C16.2669 9.19342 15.2608 8.0583 13.4358 8.0583C11.3768 8.0583 10.09 9.65233 10.09 11.4154C10.09 12.0192 10.2538 12.4539 10.5346 12.7921C10.6515 12.937 10.675 13.0094 10.6281 13.1785C10.6047 13.2992 10.5112 13.6132 10.4877 13.734C10.4409 13.903 10.3006 13.9755 10.1368 13.903C9.17752 13.4924 8.75636 12.4298 8.75636 11.2222C8.75636 9.24171 10.3708 6.85068 13.5996 6.85068C16.1967 6.85068 17.9047 8.78284 17.9047 10.8599C17.9047 13.6132 16.4306 15.6661 14.2547 15.6661C13.5294 15.6661 12.8275 15.2555 12.5935 14.7967C12.5935 14.7967 12.1958 16.4148 12.1256 16.7288C11.9852 17.2602 11.7044 17.8157 11.4471 18.2262C12.0554 18.4195 12.7105 18.5161 13.3656 18.5161C17.1092 18.5161 20.1508 15.3763 20.1508 11.512C20.1508 7.64772 17.1092 4.48386 13.3656 4.48386Z" fill="white"/>
</g>
</g>
<defs>
<clipPath id="clip0">
<rect width="13.5938" height="14.0323" fill="white" transform="matrix(-1 0 0 1 20.1625 4.48386)"/>
</clipPath>
</defs>
</svg>
