<svg width="100" height="23" viewBox="0 0 100 23" fill="none" xmlns="http://www.w3.org/2000/svg">
<mask id="mask0" mask-type="alpha" maskUnits="userSpaceOnUse" x="0" y="0" width="100" height="23">
<path d="M96.1 0H3.80002C1.70002 0 0 1.70005 0 3.80005V19.2C0 21.3 1.70002 23 3.80002 23H96.1C98.2 23 99.9 21.3 99.9 19.2V3.80005C99.8 1.70005 98.1 0 96.1 0Z" fill="#50ABF1"/>
</mask>
<g mask="url(#mask0)">
<rect width="100" height="23" fill="#0274B3"/>
<rect width="100" height="23" fill="#E1E7EC"/>
<rect width="100" height="23" fill="#CB1F24"/>
<path d="M33.5 11.7L35.3 12.3C35 13.3 34.6 14 34 14.5C33.4 15 32.6 15.2 31.6 15.2C30.4 15.2 29.4 14.8 28.7 14C27.9 13.2 27.6 12.1 27.6 10.7C27.6 9.20001 28 8.00001 28.8 7.20001C29.6 6.40001 30.6 6 31.8 6C32.9 6 33.8 6.3 34.5 7C34.9 7.4 35.2 7.90001 35.4 8.70001L33.6 9.09998C33.5 8.59998 33.3 8.3 32.9 8C32.6 7.7 32.2 7.59998 31.7 7.59998C31 7.59998 30.5 7.79999 30.1 8.29999C29.7 8.79999 29.5 9.49998 29.5 10.6C29.5 11.7 29.7 12.5 30.1 13C30.5 13.5 31 13.7 31.7 13.7C32.2 13.7 32.6 13.5 32.9 13.2C33.1 12.8 33.4 12.3 33.5 11.7Z" fill="white"/>
<path d="M36.4 11.6C36.4 11 36.5 10.5 36.8 9.90002C37.1 9.40002 37.5 9.00001 38 8.70001C38.5 8.40001 39.1 8.29999 39.7 8.29999C40.7 8.29999 41.5 8.59999 42.1 9.29999C42.7 9.99999 43 10.7 43 11.7C43 12.7 42.7 13.5 42 14.1C41.4 14.7 40.6 15.1 39.6 15.1C39 15.1 38.4 15 37.9 14.7C37.4 14.4 36.9 14 36.7 13.5C36.5 13 36.4 12.4 36.4 11.6ZM38.2 11.7C38.2 12.3 38.4 12.8 38.7 13.2C39 13.5 39.4 13.7 39.8 13.7C40.2 13.7 40.6 13.5 40.9 13.2C41.2 12.9 41.4 12.4 41.4 11.7C41.4 11.1 41.2 10.6 40.9 10.2C40.6 9.90001 40.2 9.70001 39.8 9.70001C39.4 9.70001 39 9.90001 38.7 10.2C38.4 10.6 38.2 11.1 38.2 11.7Z" fill="white"/>
<path d="M43.3 15L45.6 11.7L43.4 8.59998H45.5L46.6 10.4L47.8 8.59998H49.8L47.6 11.7L50 15.1H47.9L46.6 13.1L45.3 15.1H43.3V15Z" fill="white"/>
<path d="M51.1 8.5H52.7V9.5C52.9 9.2 53.2 8.90001 53.5 8.70001C53.9 8.50001 54.2 8.40002 54.7 8.40002C55.5 8.40002 56.1 8.69999 56.6 9.29999C57.1 9.89999 57.4 10.7 57.4 11.8C57.4 12.9 57.1 13.7 56.6 14.3C56.1 14.9 55.4 15.2 54.7 15.2C54.3 15.2 54 15.1 53.7 15C53.4 14.9 53.1 14.6 52.8 14.3V17.6H51.1V8.5V8.5ZM52.8 11.6C52.8 12.3 52.9 12.9 53.2 13.2C53.5 13.5 53.8 13.7 54.3 13.7C54.7 13.7 55 13.5 55.3 13.2C55.6 12.9 55.7 12.4 55.7 11.6C55.7 10.9 55.6 10.4 55.3 10.1C55 9.79998 54.7 9.59998 54.3 9.59998C53.9 9.59998 53.5 9.79998 53.3 10.1C52.9 10.5 52.8 11 52.8 11.6Z" fill="white"/>
<path d="M60.1 10.5L58.5 10.2C58.7 9.60001 59 9.09999 59.4 8.79999C59.8 8.49999 60.5 8.29999 61.3 8.29999C62.1 8.29999 62.6 8.39998 63 8.59998C63.4 8.79998 63.6 8.99999 63.8 9.29999C64 9.59999 64 10.1 64 10.8V12.8C64 13.4 64 13.8 64.1 14.1C64.2 14.4 64.3 14.7 64.4 15H62.7C62.7 14.9 62.6 14.7 62.5 14.5C62.5 14.4 62.5 14.3 62.4 14.3C62.1 14.6 61.8 14.8 61.5 14.9C61.2 15 60.8 15.1 60.4 15.1C59.7 15.1 59.2 14.9 58.8 14.6C58.4 14.2 58.2 13.8 58.2 13.2C58.2 12.8 58.3 12.5 58.5 12.2C58.7 11.9 58.9 11.7 59.2 11.5C59.5 11.3 60 11.2 60.6 11.1C61.4 10.9 62 10.8 62.3 10.7V10.5C62.3 10.2 62.2 9.89999 62.1 9.79999C61.9 9.69999 61.6 9.59998 61.2 9.59998C60.9 9.59998 60.7 9.69999 60.5 9.79999C60.3 9.89999 60.2 10.2 60.1 10.5ZM62.4 11.9C62.2 12 61.8 12.1 61.4 12.2C60.9 12.3 60.6 12.4 60.5 12.5C60.3 12.7 60.2 12.9 60.2 13.1C60.2 13.3 60.3 13.5 60.5 13.7C60.7 13.9 60.9 14 61.2 14C61.5 14 61.8 13.9 62.1 13.7C62.3 13.5 62.4 13.4 62.5 13.1C62.5 13 62.6 12.7 62.6 12.3V11.9H62.4Z" fill="white"/>
<path d="M65.7 8.5H67.4V10.9H69.9V8.5H71.6V15H69.9V12.3H67.4V15H65.7V8.5Z" fill="white"/>
<path d="M73.3 8.5H75V12.6L77.6 8.5H79.3V15H77.7V10.8L75 15H73.3V8.5Z" fill="white"/>
<path d="M80.2 8.5H86.1V9.90002H84V15H82.3V9.90002H80.2V8.5V8.5Z" fill="white"/>
<path d="M87.2 8.5H88.9V11.2H90.6C91.3 11.2 91.8 11.2 92.2 11.3C92.6 11.4 92.9 11.6 93.1 11.9C93.3 12.2 93.5 12.6 93.5 13C93.5 13.6 93.3 14.1 92.9 14.4C92.5 14.7 91.8 14.9 91 14.9H87.3V8.5H87.2ZM88.9 13.9H90.5C91 13.9 91.3 13.8 91.5 13.7C91.6 13.5 91.7 13.3 91.7 13.1C91.7 12.8 91.6 12.6 91.3 12.5C91.1 12.4 90.6 12.3 90 12.3H88.9V13.9Z" fill="white"/>
<g clip-path="url(#clip0)">
<path d="M13.3656 4.48386C9.62208 4.48386 6.58044 7.62361 6.58044 11.4879C6.58044 14.362 8.24165 16.8255 10.6515 17.9123C10.6281 17.4293 10.6515 16.8255 10.7685 16.2941C10.9089 15.7145 11.6342 12.4781 11.6342 12.4781C11.6342 12.4781 11.4237 12.0193 11.4237 11.3671C11.4237 10.3286 12.0086 9.55575 12.7339 9.55575C13.3422 9.55575 13.6464 10.0388 13.6464 10.6184C13.6464 11.2464 13.2486 12.2124 13.038 13.1061C12.8743 13.8548 13.389 14.4586 14.1143 14.4586C15.4012 14.4586 16.2669 12.7438 16.2669 10.7392C16.2669 9.19342 15.2608 8.0583 13.4358 8.0583C11.3768 8.0583 10.09 9.65233 10.09 11.4154C10.09 12.0192 10.2538 12.4539 10.5346 12.7921C10.6515 12.937 10.675 13.0094 10.6281 13.1785C10.6047 13.2992 10.5112 13.6132 10.4877 13.734C10.4409 13.903 10.3006 13.9755 10.1368 13.903C9.17752 13.4924 8.75636 12.4298 8.75636 11.2222C8.75636 9.24171 10.3708 6.85068 13.5996 6.85068C16.1967 6.85068 17.9047 8.78284 17.9047 10.8599C17.9047 13.6132 16.4306 15.6661 14.2547 15.6661C13.5294 15.6661 12.8275 15.2555 12.5935 14.7967C12.5935 14.7967 12.1958 16.4148 12.1256 16.7288C11.9852 17.2602 11.7044 17.8157 11.4471 18.2262C12.0554 18.4195 12.7105 18.5161 13.3656 18.5161C17.1092 18.5161 20.1508 15.3763 20.1508 11.512C20.1508 7.64772 17.1092 4.48386 13.3656 4.48386Z" fill="#CB1F24"/>
<path d="M13.3656 4.48386C9.62208 4.48386 6.58044 7.62361 6.58044 11.4879C6.58044 14.362 8.24165 16.8255 10.6515 17.9123C10.6281 17.4293 10.6515 16.8255 10.7685 16.2941C10.9089 15.7145 11.6342 12.4781 11.6342 12.4781C11.6342 12.4781 11.4237 12.0193 11.4237 11.3671C11.4237 10.3286 12.0086 9.55575 12.7339 9.55575C13.3422 9.55575 13.6464 10.0388 13.6464 10.6184C13.6464 11.2464 13.2486 12.2124 13.038 13.1061C12.8743 13.8548 13.389 14.4586 14.1143 14.4586C15.4012 14.4586 16.2669 12.7438 16.2669 10.7392C16.2669 9.19342 15.2608 8.0583 13.4358 8.0583C11.3768 8.0583 10.09 9.65233 10.09 11.4154C10.09 12.0192 10.2538 12.4539 10.5346 12.7921C10.6515 12.937 10.675 13.0094 10.6281 13.1785C10.6047 13.2992 10.5112 13.6132 10.4877 13.734C10.4409 13.903 10.3006 13.9755 10.1368 13.903C9.17752 13.4924 8.75636 12.4298 8.75636 11.2222C8.75636 9.24171 10.3708 6.85068 13.5996 6.85068C16.1967 6.85068 17.9047 8.78284 17.9047 10.8599C17.9047 13.6132 16.4306 15.6661 14.2547 15.6661C13.5294 15.6661 12.8275 15.2555 12.5935 14.7967C12.5935 14.7967 12.1958 16.4148 12.1256 16.7288C11.9852 17.2602 11.7044 17.8157 11.4471 18.2262C12.0554 18.4195 12.7105 18.5161 13.3656 18.5161C17.1092 18.5161 20.1508 15.3763 20.1508 11.512C20.1508 7.64772 17.1092 4.48386 13.3656 4.48386Z" fill="white"/>
</g>
</g>
<defs>
<clipPath id="clip0">
<rect width="13.5938" height="14.0323" fill="white" transform="matrix(-1 0 0 1 20.1625 4.48386)"/>
</clipPath>
</defs>
</svg>
