<svg width="68" height="23" viewBox="0 0 68 23" fill="none" xmlns="http://www.w3.org/2000/svg">
<mask id="mask0" mask-type="alpha" maskUnits="userSpaceOnUse" x="0" y="0" width="68" height="23">
<path d="M64.1 0H3.80002C1.70002 0 0 1.69999 0 3.79999V19.2C0 21.3 1.70002 23 3.80002 23H64.1C66.2 23 67.9 21.3 67.9 19.2V3.79999C67.8 1.69999 66.1 0 64.1 0Z" fill="#50ABF1"/>
</mask>
<g mask="url(#mask0)">
<rect width="68" height="23" fill="#0274B3"/>
<rect width="68" height="23" fill="#E1E7EC"/>
<rect width="68" height="23" fill="#CB1F24"/>
<path d="M27.5 12.3L29.3 12.1C29.4 12.7 29.6 13.1 29.9 13.4C30.2 13.7 30.7 13.8 31.2 13.8C31.8 13.8 32.2 13.7 32.5 13.4C32.8 13.2 32.9 12.9 32.9 12.5C32.9 12.3 32.8 12.1 32.7 12C32.6 11.9 32.4 11.7 32 11.6C31.8 11.5 31.3 11.4 30.6 11.2C29.6 11 28.9 10.7 28.6 10.3C28 9.79999 27.8 9.2 27.8 8.5C27.8 8 27.9 7.60001 28.2 7.20001C28.5 6.80001 28.8 6.49999 29.3 6.29999C29.8 6.09999 30.4 6 31.1 6C32.2 6 33.1 6.20001 33.6 6.70001C34.1 7.20001 34.5 7.90001 34.5 8.70001L32.7 8.79999C32.6 8.29999 32.5 7.99999 32.2 7.79999C31.9 7.59999 31.6 7.5 31.1 7.5C30.6 7.5 30.2 7.59999 29.9 7.79999C29.7 7.89999 29.6 8.10002 29.6 8.40002C29.6 8.60002 29.7 8.80002 29.9 8.90002C30.1 9.10002 30.7 9.3 31.6 9.5C32.5 9.7 33.1 9.89998 33.6 10.1C34 10.3 34.4 10.6 34.6 11C34.8 11.4 35 11.9 35 12.4C35 12.9 34.9 13.4 34.6 13.8C34.3 14.2 33.9 14.6 33.4 14.8C32.9 15 32.2 15.1 31.5 15.1C30.4 15.1 29.5 14.8 28.9 14.3C28 14.1 27.6 13.3 27.5 12.3Z" fill="white"/>
<path d="M36.2 8.70001H37.8V9.70001C38 9.40001 38.3 9.10002 38.6 8.90002C39 8.70002 39.3 8.59998 39.8 8.59998C40.6 8.59998 41.2 8.9 41.7 9.5C42.2 10.1 42.5 10.9 42.5 12C42.5 13.1 42.2 13.9 41.7 14.5C41.2 15.1 40.5 15.4 39.8 15.4C39.4 15.4 39.1 15.3 38.8 15.2C38.5 15.1 38.2 14.8 37.9 14.5V17.8H36.2V8.70001V8.70001ZM37.9 11.9C37.9 12.6 38 13.2 38.3 13.5C38.6 13.8 38.9 14 39.4 14C39.8 14 40.1 13.8 40.4 13.5C40.7 13.2 40.8 12.7 40.8 11.9C40.8 11.2 40.7 10.7 40.4 10.4C40.1 10.1 39.8 9.90002 39.4 9.90002C39 9.90002 38.6 10.1 38.4 10.4C38.1 10.8 37.9 11.2 37.9 11.9Z" fill="white"/>
<path d="M45.2 10.7L43.6 10.4C43.8 9.80002 44.1 9.3 44.5 9C44.9 8.7 45.6 8.5 46.4 8.5C47.2 8.5 47.7 8.59999 48.1 8.79999C48.5 8.99999 48.7 9.2 48.9 9.5C49.1 9.8 49.1 10.3 49.1 11V13C49.1 13.6 49.1 14 49.2 14.3C49.3 14.6 49.4 14.9 49.5 15.2H47.8C47.8 15.1 47.7 14.9 47.6 14.7C47.6 14.6 47.6 14.5 47.5 14.5C47.2 14.8 46.9 15 46.6 15.1C46.3 15.2 45.9 15.3 45.5 15.3C44.8 15.3 44.3 15.1 43.9 14.8C43.5 14.4 43.3 14 43.3 13.4C43.3 13 43.4 12.7 43.6 12.4C43.8 12.1 44 11.9 44.3 11.7C44.6 11.5 45.1 11.4 45.7 11.3C46.5 11.1 47.1 11 47.4 10.9V10.7C47.4 10.4 47.3 10.1 47.2 10C47 9.9 46.7 9.79999 46.3 9.79999C46 9.79999 45.8 9.9 45.6 10C45.4 10.1 45.3 10.4 45.2 10.7ZM47.5 12.1C47.3 12.2 46.9 12.3 46.5 12.4C46 12.5 45.7 12.6 45.6 12.7C45.4 12.9 45.3 13.1 45.3 13.3C45.3 13.5 45.4 13.7 45.6 13.9C45.8 14.1 46 14.2 46.3 14.2C46.6 14.2 46.9 14.1 47.2 13.9C47.4 13.7 47.5 13.6 47.6 13.3C47.6 13.2 47.7 12.9 47.7 12.5V12.1H47.5Z" fill="white"/>
<path d="M52.5 15.2H50.8V8.70001H52.4V9.59998C52.7 9.19998 52.9 8.90001 53.1 8.70001C53.3 8.60001 53.6 8.5 53.8 8.5C54.2 8.5 54.6 8.59999 54.9 8.79999L54.4 10.3C54.1 10.1 53.8 10 53.6 10C53.4 10 53.2 10.1 53 10.2C52.8 10.3 52.7 10.6 52.6 10.9C52.5 11.2 52.5 12 52.5 13.1V15.2Z" fill="white"/>
<path d="M57.1 10.7L55.5 10.4C55.7 9.80002 56 9.3 56.4 9C56.8 8.7 57.5 8.5 58.3 8.5C59.1 8.5 59.6 8.59999 60 8.79999C60.4 8.99999 60.6 9.2 60.8 9.5C61 9.8 61 10.3 61 11V13C61 13.6 61 14 61.1 14.3C61.2 14.6 61.3 14.9 61.4 15.2H59.7C59.7 15.1 59.6 14.9 59.5 14.7C59.5 14.6 59.5 14.5 59.4 14.5C59.1 14.8 58.8 15 58.5 15.1C58.2 15.2 57.8 15.3 57.4 15.3C56.7 15.3 56.2 15.1 55.8 14.8C55.4 14.4 55.2 14 55.2 13.4C55.2 13 55.3 12.7 55.5 12.4C55.7 12.1 55.9 11.9 56.2 11.7C56.5 11.5 57 11.4 57.6 11.3C58.4 11.1 59 11 59.3 10.9V10.7C59.3 10.4 59.2 10.1 59.1 10C58.9 9.9 58.6 9.79999 58.2 9.79999C57.9 9.79999 57.7 9.9 57.5 10C57.3 10.1 57.2 10.4 57.1 10.7ZM59.3 12.1C59.1 12.2 58.7 12.3 58.3 12.4C57.8 12.5 57.5 12.6 57.4 12.7C57.2 12.9 57.1 13.1 57.1 13.3C57.1 13.5 57.2 13.7 57.4 13.9C57.6 14.1 57.8 14.2 58.1 14.2C58.4 14.2 58.7 14.1 59 13.9C59.2 13.7 59.3 13.6 59.4 13.3C59.4 13.2 59.5 12.9 59.5 12.5V12.1H59.3Z" fill="white"/>
<g clip-path="url(#clip0)">
<path d="M13.3656 4.48386C9.62208 4.48386 6.58044 7.62361 6.58044 11.4879C6.58044 14.362 8.24165 16.8255 10.6515 17.9123C10.6281 17.4293 10.6515 16.8255 10.7685 16.2941C10.9089 15.7145 11.6342 12.4781 11.6342 12.4781C11.6342 12.4781 11.4237 12.0193 11.4237 11.3671C11.4237 10.3286 12.0086 9.55575 12.7339 9.55575C13.3422 9.55575 13.6464 10.0388 13.6464 10.6184C13.6464 11.2464 13.2486 12.2124 13.038 13.1061C12.8743 13.8548 13.389 14.4586 14.1143 14.4586C15.4012 14.4586 16.2669 12.7438 16.2669 10.7392C16.2669 9.19342 15.2608 8.0583 13.4358 8.0583C11.3768 8.0583 10.09 9.65233 10.09 11.4154C10.09 12.0192 10.2538 12.4539 10.5346 12.7921C10.6515 12.937 10.675 13.0094 10.6281 13.1785C10.6047 13.2992 10.5112 13.6132 10.4877 13.734C10.4409 13.903 10.3006 13.9755 10.1368 13.903C9.17752 13.4924 8.75636 12.4298 8.75636 11.2222C8.75636 9.24171 10.3708 6.85068 13.5996 6.85068C16.1967 6.85068 17.9047 8.78284 17.9047 10.8599C17.9047 13.6132 16.4306 15.6661 14.2547 15.6661C13.5294 15.6661 12.8275 15.2555 12.5935 14.7967C12.5935 14.7967 12.1958 16.4148 12.1256 16.7288C11.9852 17.2602 11.7044 17.8157 11.4471 18.2262C12.0554 18.4195 12.7105 18.5161 13.3656 18.5161C17.1092 18.5161 20.1508 15.3763 20.1508 11.512C20.1508 7.64772 17.1092 4.48386 13.3656 4.48386Z" fill="#CB1F24"/>
<path d="M13.3656 4.48386C9.62208 4.48386 6.58044 7.62361 6.58044 11.4879C6.58044 14.362 8.24165 16.8255 10.6515 17.9123C10.6281 17.4293 10.6515 16.8255 10.7685 16.2941C10.9089 15.7145 11.6342 12.4781 11.6342 12.4781C11.6342 12.4781 11.4237 12.0193 11.4237 11.3671C11.4237 10.3286 12.0086 9.55575 12.7339 9.55575C13.3422 9.55575 13.6464 10.0388 13.6464 10.6184C13.6464 11.2464 13.2486 12.2124 13.038 13.1061C12.8743 13.8548 13.389 14.4586 14.1143 14.4586C15.4012 14.4586 16.2669 12.7438 16.2669 10.7392C16.2669 9.19342 15.2608 8.0583 13.4358 8.0583C11.3768 8.0583 10.09 9.65233 10.09 11.4154C10.09 12.0192 10.2538 12.4539 10.5346 12.7921C10.6515 12.937 10.675 13.0094 10.6281 13.1785C10.6047 13.2992 10.5112 13.6132 10.4877 13.734C10.4409 13.903 10.3006 13.9755 10.1368 13.903C9.17752 13.4924 8.75636 12.4298 8.75636 11.2222C8.75636 9.24171 10.3708 6.85068 13.5996 6.85068C16.1967 6.85068 17.9047 8.78284 17.9047 10.8599C17.9047 13.6132 16.4306 15.6661 14.2547 15.6661C13.5294 15.6661 12.8275 15.2555 12.5935 14.7967C12.5935 14.7967 12.1958 16.4148 12.1256 16.7288C11.9852 17.2602 11.7044 17.8157 11.4471 18.2262C12.0554 18.4195 12.7105 18.5161 13.3656 18.5161C17.1092 18.5161 20.1508 15.3763 20.1508 11.512C20.1508 7.64772 17.1092 4.48386 13.3656 4.48386Z" fill="white"/>
</g>
</g>
<defs>
<clipPath id="clip0">
<rect width="13.5938" height="14.0323" fill="white" transform="matrix(-1 0 0 1 20.1625 4.48386)"/>
</clipPath>
</defs>
</svg>
