<svg width="75" height="23" viewBox="0 0 75 23" fill="none" xmlns="http://www.w3.org/2000/svg">
<mask id="mask0" mask-type="alpha" maskUnits="userSpaceOnUse" x="0" y="0" width="75" height="23">
<path d="M71.1 0H3.80002C1.70002 0 0 1.69999 0 3.79999V19.2C0 21.3 1.70002 23 3.80002 23H71.1C73.2 23 74.9 21.3 74.9 19.2V3.79999C74.8 1.69999 73.1 0 71.1 0Z" fill="#50ABF1"/>
</mask>
<g mask="url(#mask0)">
<rect width="75" height="23" fill="#0274B3"/>
<rect width="75" height="23" fill="#E1E7EC"/>
<rect width="75" height="23" fill="#CB1F24"/>
<g clip-path="url(#clip0)">
<path d="M13.3656 4.48386C9.62208 4.48386 6.58044 7.62361 6.58044 11.4879C6.58044 14.362 8.24165 16.8255 10.6515 17.9123C10.6281 17.4293 10.6515 16.8255 10.7685 16.2941C10.9089 15.7145 11.6342 12.4781 11.6342 12.4781C11.6342 12.4781 11.4237 12.0193 11.4237 11.3671C11.4237 10.3286 12.0086 9.55575 12.7339 9.55575C13.3422 9.55575 13.6464 10.0388 13.6464 10.6184C13.6464 11.2464 13.2486 12.2124 13.038 13.1061C12.8743 13.8548 13.389 14.4586 14.1143 14.4586C15.4012 14.4586 16.2669 12.7438 16.2669 10.7392C16.2669 9.19342 15.2608 8.0583 13.4358 8.0583C11.3768 8.0583 10.09 9.65233 10.09 11.4154C10.09 12.0192 10.2538 12.4539 10.5346 12.7921C10.6515 12.937 10.675 13.0094 10.6281 13.1785C10.6047 13.2992 10.5112 13.6132 10.4877 13.734C10.4409 13.903 10.3006 13.9755 10.1368 13.903C9.17752 13.4924 8.75636 12.4298 8.75636 11.2222C8.75636 9.24171 10.3708 6.85068 13.5996 6.85068C16.1967 6.85068 17.9047 8.78284 17.9047 10.8599C17.9047 13.6132 16.4306 15.6661 14.2547 15.6661C13.5294 15.6661 12.8275 15.2555 12.5935 14.7967C12.5935 14.7967 12.1958 16.4148 12.1256 16.7288C11.9852 17.2602 11.7044 17.8157 11.4471 18.2262C12.0554 18.4195 12.7105 18.5161 13.3656 18.5161C17.1092 18.5161 20.1508 15.3763 20.1508 11.512C20.1508 7.64772 17.1092 4.48386 13.3656 4.48386Z" fill="#CB1F24"/>
<path d="M13.3656 4.48386C9.62208 4.48386 6.58044 7.62361 6.58044 11.4879C6.58044 14.362 8.24165 16.8255 10.6515 17.9123C10.6281 17.4293 10.6515 16.8255 10.7685 16.2941C10.9089 15.7145 11.6342 12.4781 11.6342 12.4781C11.6342 12.4781 11.4237 12.0193 11.4237 11.3671C11.4237 10.3286 12.0086 9.55575 12.7339 9.55575C13.3422 9.55575 13.6464 10.0388 13.6464 10.6184C13.6464 11.2464 13.2486 12.2124 13.038 13.1061C12.8743 13.8548 13.389 14.4586 14.1143 14.4586C15.4012 14.4586 16.2669 12.7438 16.2669 10.7392C16.2669 9.19342 15.2608 8.0583 13.4358 8.0583C11.3768 8.0583 10.09 9.65233 10.09 11.4154C10.09 12.0192 10.2538 12.4539 10.5346 12.7921C10.6515 12.937 10.675 13.0094 10.6281 13.1785C10.6047 13.2992 10.5112 13.6132 10.4877 13.734C10.4409 13.903 10.3006 13.9755 10.1368 13.903C9.17752 13.4924 8.75636 12.4298 8.75636 11.2222C8.75636 9.24171 10.3708 6.85068 13.5996 6.85068C16.1967 6.85068 17.9047 8.78284 17.9047 10.8599C17.9047 13.6132 16.4306 15.6661 14.2547 15.6661C13.5294 15.6661 12.8275 15.2555 12.5935 14.7967C12.5935 14.7967 12.1958 16.4148 12.1256 16.7288C11.9852 17.2602 11.7044 17.8157 11.4471 18.2262C12.0554 18.4195 12.7105 18.5161 13.3656 18.5161C17.1092 18.5161 20.1508 15.3763 20.1508 11.512C20.1508 7.64772 17.1092 4.48386 13.3656 4.48386Z" fill="white"/>
</g>
<path d="M37.8 10.1L36.2 9.79999C36.4 9.19999 36.7 8.70002 37.1 8.40002C37.5 8.10002 38.2 7.90002 39 7.90002C39.8 7.90002 40.3 8.00001 40.7 8.20001C41.1 8.40001 41.3 8.60002 41.5 8.90002C41.7 9.20002 41.7 9.70002 41.7 10.4V12.4C41.7 13 41.7 13.4 41.8 13.7C41.9 14 42 14.3 42.1 14.6H40.4C40.4 14.5 40.3 14.3 40.2 14.1C40.2 14 40.2 13.9 40.1 13.9C39.8 14.2 39.5 14.4 39.2 14.5C38.9 14.6 38.5 14.7 38.1 14.7C37.4 14.7 36.9 14.5 36.5 14.2C36.1 13.8 35.9 13.4 35.9 12.8C35.9 12.4 36 12.1 36.2 11.8C36.4 11.5 36.6 11.3 36.9 11.1C37.2 10.9 37.7 10.8 38.3 10.7C39.1 10.5 39.7 10.4 40 10.3V10.1C40 9.79998 39.9 9.50002 39.8 9.40002C39.7 9.30002 39.3 9.20001 38.9 9.20001C38.6 9.20001 38.4 9.30002 38.2 9.40002C38 9.60002 37.9 9.79998 37.8 10.1ZM40.1 11.5C39.9 11.6 39.5 11.7 39.1 11.8C38.7 11.9 38.3 12 38.2 12.1C38 12.3 37.9 12.5 37.9 12.7C37.9 12.9 38 13.1 38.2 13.3C38.4 13.5 38.6 13.6 38.9 13.6C39.2 13.6 39.5 13.5 39.8 13.3C40 13.1 40.1 13 40.2 12.7C40.2 12.6 40.3 12.3 40.3 11.9V11.5H40.1Z" fill="white"/>
<path d="M42.6 8.20001H44.4L46 12.8L47.5 8.20001H49.3L47 14.4L46.6 15.5C46.4 15.9 46.3 16.2 46.2 16.4C46.1 16.6 45.9 16.8 45.7 16.9C45.5 17 45.3 17.1 45 17.2C44.7 17.3 44.4 17.3 44.1 17.3C43.8 17.3 43.4 17.3 43.1 17.2L42.9 15.9C43.2 16 43.4 16 43.6 16C44 16 44.3 15.9 44.5 15.6C44.7 15.4 44.8 15.1 44.9 14.7L42.6 8.20001Z" fill="white"/>
<path d="M56.4 14.6H54.8V13.6C54.5 14 54.2 14.2 53.9 14.4C53.5 14.6 53.2 14.7 52.8 14.7C52.1 14.7 51.4 14.4 50.9 13.8C50.4 13.2 50.1 12.4 50.1 11.3C50.1 10.2 50.4 9.39999 50.9 8.79999C51.4 8.19999 52.1 7.90002 52.9 7.90002C53.6 7.90002 54.3 8.19999 54.8 8.79999V5.59998H56.5V14.6H56.4ZM51.8 11.3C51.8 12 51.9 12.5 52.1 12.8C52.4 13.2 52.8 13.5 53.3 13.5C53.7 13.5 54 13.3 54.3 13C54.6 12.7 54.7 12.2 54.7 11.5C54.7 10.8 54.6 10.2 54.3 9.90002C54 9.60002 53.7 9.40002 53.3 9.40002C52.9 9.40002 52.6 9.60002 52.3 9.90002C51.9 10.1 51.8 10.6 51.8 11.3Z" fill="white"/>
<path d="M61.8 12.6L63.5 12.9C63.3 13.5 62.9 14 62.5 14.3C62 14.6 61.4 14.8 60.7 14.8C59.6 14.8 58.7 14.4 58.2 13.7C57.8 13.1 57.6 12.4 57.6 11.5C57.6 10.4 57.9 9.6 58.4 9C59 8.4 59.7 8.09998 60.5 8.09998C61.5 8.09998 62.2 8.39998 62.8 9.09998C63.4 9.69998 63.6 10.7 63.6 12H59.3C59.3 12.5 59.5 12.9 59.7 13.2C59.9 13.5 60.3 13.6 60.7 13.6C61 13.6 61.2 13.5 61.4 13.4C61.6 13.1 61.7 12.9 61.8 12.6ZM61.9 10.8C61.9 10.3 61.8 9.90001 61.5 9.70001C61.3 9.40001 61 9.29999 60.6 9.29999C60.2 9.29999 59.9 9.40001 59.7 9.70001C59.5 10 59.3 10.3 59.3 10.8H61.9Z" fill="white"/>
<path d="M68 8.20001V9.59998H66.8V12.2C66.8 12.7 66.8 13 66.8 13.1C66.8 13.2 66.9 13.3 67 13.3C67.1 13.4 67.2 13.4 67.3 13.4C67.5 13.4 67.7 13.3 68 13.2L68.1 14.5C67.7 14.7 67.2 14.8 66.7 14.8C66.4 14.8 66.1 14.7 65.9 14.6C65.7 14.5 65.5 14.4 65.4 14.2C65.3 14 65.2 13.8 65.2 13.5C65.2 13.3 65.1 12.9 65.1 12.3V9.5H64.3V8.09998H65.1V6.79999L66.8 5.79999V8.09998H68V8.20001Z" fill="white"/>
<path d="M27.5 14.6V5.59998H29.3V9.59998L33 5.59998H35.4L32 9.09998L35.6 14.6H33.3L30.8 10.4L29.3 11.9V14.6H27.5Z" fill="white"/>
</g>
<defs>
<clipPath id="clip0">
<rect width="13.5938" height="14.0323" fill="white" transform="matrix(-1 0 0 1 20.1625 4.48386)"/>
</clipPath>
</defs>
</svg>
