<svg width="87" height="23" viewBox="0 0 87 23" fill="none" xmlns="http://www.w3.org/2000/svg">
<mask id="mask0" mask-type="alpha" maskUnits="userSpaceOnUse" x="0" y="0" width="87" height="23">
<path d="M83.1 0H3.80002C1.70002 0 0 1.69999 0 3.79999V19.2C0 21.3 1.70002 23 3.80002 23H83.1C85.2 23 86.9 21.3 86.9 19.2V3.79999C86.8 1.59999 85.1 0 83.1 0Z" fill="#50ABF1"/>
</mask>
<g mask="url(#mask0)">
<rect width="87" height="23" fill="#0274B3"/>
<rect width="87" height="23" fill="#E1E7EC"/>
<rect width="87" height="23" fill="#CB1F24"/>
<path d="M29.9999 12.5V11.4C30.2999 11.4 30.4999 11.4 30.5999 11.3C30.6999 11.3 30.8999 11.2 30.9999 11C31.0999 10.9 31.1999 10.7 31.1999 10.5C31.1999 10.3 31.0999 10.1 30.9999 9.90002C30.8999 9.70002 30.5999 9.60004 30.2999 9.60004C30.0999 9.60004 29.8999 9.60001 29.6999 9.70001C29.4999 9.80001 29.3999 10 29.1999 10.4L27.6999 10.1C27.7999 9.50004 28.1999 9.09999 28.5999 8.79999C29.0999 8.49999 29.5999 8.40002 30.1999 8.40002C30.9999 8.40002 31.5999 8.60002 31.9999 8.90002C32.3999 9.30002 32.5999 9.69999 32.5999 10.3C32.5999 10.6 32.4999 10.9 32.2999 11.1C32.0999 11.3 31.7999 11.5 31.3999 11.7C31.8999 11.8 32.1999 12 32.4999 12.3C32.7999 12.6 32.8999 12.9 32.8999 13.3C32.8999 13.8 32.6999 14.2 32.1999 14.6C31.6999 15 30.9999 15.1 30.1999 15.1C28.6999 15.1 27.6999 14.5 27.3999 13.3L28.9999 13C29.2999 13.6 29.6999 14 30.2999 14C30.5999 14 30.8999 13.9 31.0999 13.7C31.2999 13.5 31.3999 13.3 31.3999 13.1C31.3999 12.8 31.2999 12.6 31.0999 12.5C30.8999 12.4 30.5999 12.3 30.2999 12.3H29.9999V12.5Z" fill="white"/>
<path d="M38.9999 6H40.1999C40.1999 6.5 39.9999 6.90001 39.7999 7.20001C39.5999 7.50001 38.9999 7.60004 38.0999 7.60004C37.9999 7.60004 37.8999 7.60004 37.7999 7.60004H37.5999C37.0999 7.60004 36.5999 7.69999 36.2999 7.79999C35.9999 7.89999 35.6999 8.2 35.4999 8.5C35.2999 8.8 35.1999 9.40001 35.1999 10.2C35.4999 9.70001 35.7999 9.40004 36.1999 9.10004C36.5999 8.80004 37.0999 8.70001 37.5999 8.70001C38.4999 8.70001 39.1999 9.00001 39.7999 9.70001C40.3999 10.4 40.6999 11.1 40.6999 12C40.6999 12.9 40.3999 13.7 39.7999 14.3C39.1999 15 38.3999 15.3 37.3999 15.3C36.6999 15.3 36.0999 15.1 35.5999 14.8C35.0999 14.5 34.6999 14 34.4999 13.4C34.2999 12.8 34.1999 11.9 34.1999 10.6C34.1999 9.00004 34.4999 7.90001 35.0999 7.20001C35.6999 6.50001 36.6999 6.20001 38.0999 6.20001H38.9999C38.7999 6.30001 38.8999 6.2 38.9999 6ZM35.5999 12C35.5999 12.6 35.6999 13.1 35.9999 13.4C36.2999 13.7 36.6999 13.9 37.0999 13.9C37.5999 13.9 37.8999 13.7 38.1999 13.4C38.4999 13.1 38.5999 12.6 38.5999 12C38.5999 11.4 38.4999 11 38.1999 10.6C37.8999 10.2 37.4999 10.1 37.0999 10.1C36.6999 10.1 36.2999 10.3 35.9999 10.6C35.6999 11 35.5999 11.4 35.5999 12Z" fill="white"/>
<path d="M45.5999 13.1L47.2999 13.4C47.0999 14 46.6999 14.5 46.2999 14.8C45.7999 15.1 45.1999 15.3 44.4999 15.3C43.3999 15.3 42.4999 14.9 41.9999 14.2C41.5999 13.6 41.3999 12.9 41.3999 12C41.3999 10.9 41.6999 10.1 42.1999 9.5C42.7999 8.9 43.4999 8.60004 44.2999 8.60004C45.2999 8.60004 45.9999 8.90004 46.5999 9.60004C47.1999 10.2 47.3999 11.2 47.3999 12.5H43.0999C43.0999 13 43.2999 13.4 43.4999 13.7C43.7999 14 44.0999 14.1 44.4999 14.1C44.7999 14.1 44.9999 14 45.1999 13.9C45.3999 13.7 45.5999 13.5 45.5999 13.1ZM45.6999 11.4C45.6999 10.9 45.5999 10.5 45.2999 10.3C45.0999 9.99999 44.7999 9.90002 44.3999 9.90002C43.9999 9.90002 43.6999 9.99999 43.4999 10.3C43.2999 10.6 43.0999 10.9 43.0999 11.4H45.6999Z" fill="white"/>
<path d="M48.7999 8.70001H50.3999V9.70001C50.5999 9.40001 50.8999 9.10002 51.1999 8.90002C51.5999 8.70002 51.8999 8.60004 52.3999 8.60004C53.1999 8.60004 53.7999 8.9 54.2999 9.5C54.7999 10.1 55.0999 10.9 55.0999 12C55.0999 13.1 54.7999 13.9 54.2999 14.5C53.7999 15.1 53.0999 15.4 52.3999 15.4C51.9999 15.4 51.6999 15.3 51.3999 15.2C51.0999 15.1 50.7999 14.8 50.4999 14.5V17.8H48.7999V8.70001V8.70001ZM50.4999 11.8C50.4999 12.5 50.5999 13.1 50.8999 13.4C51.1999 13.7 51.4999 13.9 51.9999 13.9C52.3999 13.9 52.6999 13.7 52.9999 13.4C53.2999 13.1 53.3999 12.6 53.3999 11.8C53.3999 11.1 53.2999 10.6 52.9999 10.3C52.6999 9.99999 52.3999 9.79999 51.9999 9.79999C51.5999 9.79999 51.1999 9.99999 50.9999 10.3C50.5999 10.7 50.4999 11.2 50.4999 11.8Z" fill="white"/>
<path d="M60.2999 13.1L61.9999 13.4C61.7999 14 61.3999 14.5 60.9999 14.8C60.4999 15.1 59.8999 15.3 59.1999 15.3C58.0999 15.3 57.1999 14.9 56.6999 14.2C56.2999 13.6 56.0999 12.9 56.0999 12C56.0999 10.9 56.3999 10.1 56.8999 9.5C57.4999 8.9 58.1999 8.60004 58.9999 8.60004C59.9999 8.60004 60.6999 8.90004 61.2999 9.60004C61.8999 10.2 62.0999 11.2 62.0999 12.5H57.7999C57.7999 13 57.9999 13.4 58.1999 13.7C58.3999 14 58.7999 14.1 59.1999 14.1C59.4999 14.1 59.6999 14 59.8999 13.9C59.9999 13.7 60.1999 13.5 60.2999 13.1ZM60.3999 11.4C60.3999 10.9 60.2999 10.5 59.9999 10.3C59.7999 9.99999 59.4999 9.90002 59.0999 9.90002C58.6999 9.90002 58.3999 9.99999 58.1999 10.3C57.9999 10.6 57.7999 10.9 57.7999 11.4H60.3999Z" fill="white"/>
<path d="M63.3999 8.70001H67.7999V10.1H65.0999V15.2H63.3999V8.70001Z" fill="white"/>
<path d="M67.8999 8.70001H73.7999V10.1H71.6999V15.2H69.9999V10.1H67.8999V8.70001Z" fill="white"/>
<path d="M74.7999 8.70001H76.4999V12.8L79.0999 8.70001H80.7999V15.2H79.1999V11L76.4999 15.2H74.7999V8.70001Z" fill="white"/>
<g clip-path="url(#clip0)">
<path d="M13.3656 4.48386C9.62208 4.48386 6.58044 7.62361 6.58044 11.4879C6.58044 14.362 8.24165 16.8255 10.6515 17.9123C10.6281 17.4293 10.6515 16.8255 10.7685 16.2941C10.9089 15.7145 11.6342 12.4781 11.6342 12.4781C11.6342 12.4781 11.4237 12.0193 11.4237 11.3671C11.4237 10.3286 12.0086 9.55575 12.7339 9.55575C13.3422 9.55575 13.6464 10.0388 13.6464 10.6184C13.6464 11.2464 13.2486 12.2124 13.038 13.1061C12.8743 13.8548 13.389 14.4586 14.1143 14.4586C15.4012 14.4586 16.2669 12.7438 16.2669 10.7392C16.2669 9.19342 15.2608 8.0583 13.4358 8.0583C11.3768 8.0583 10.09 9.65233 10.09 11.4154C10.09 12.0192 10.2538 12.4539 10.5346 12.7921C10.6515 12.937 10.675 13.0094 10.6281 13.1785C10.6047 13.2992 10.5112 13.6132 10.4877 13.734C10.4409 13.903 10.3006 13.9755 10.1368 13.903C9.17752 13.4924 8.75636 12.4298 8.75636 11.2222C8.75636 9.24171 10.3708 6.85068 13.5996 6.85068C16.1967 6.85068 17.9047 8.78284 17.9047 10.8599C17.9047 13.6132 16.4306 15.6661 14.2547 15.6661C13.5294 15.6661 12.8275 15.2555 12.5935 14.7967C12.5935 14.7967 12.1958 16.4148 12.1256 16.7288C11.9852 17.2602 11.7044 17.8157 11.4471 18.2262C12.0554 18.4195 12.7105 18.5161 13.3656 18.5161C17.1092 18.5161 20.1508 15.3763 20.1508 11.512C20.1508 7.64772 17.1092 4.48386 13.3656 4.48386Z" fill="#CB1F24"/>
<path d="M13.3656 4.48386C9.62208 4.48386 6.58044 7.62361 6.58044 11.4879C6.58044 14.362 8.24165 16.8255 10.6515 17.9123C10.6281 17.4293 10.6515 16.8255 10.7685 16.2941C10.9089 15.7145 11.6342 12.4781 11.6342 12.4781C11.6342 12.4781 11.4237 12.0193 11.4237 11.3671C11.4237 10.3286 12.0086 9.55575 12.7339 9.55575C13.3422 9.55575 13.6464 10.0388 13.6464 10.6184C13.6464 11.2464 13.2486 12.2124 13.038 13.1061C12.8743 13.8548 13.389 14.4586 14.1143 14.4586C15.4012 14.4586 16.2669 12.7438 16.2669 10.7392C16.2669 9.19342 15.2608 8.0583 13.4358 8.0583C11.3768 8.0583 10.09 9.65233 10.09 11.4154C10.09 12.0192 10.2538 12.4539 10.5346 12.7921C10.6515 12.937 10.675 13.0094 10.6281 13.1785C10.6047 13.2992 10.5112 13.6132 10.4877 13.734C10.4409 13.903 10.3006 13.9755 10.1368 13.903C9.17752 13.4924 8.75636 12.4298 8.75636 11.2222C8.75636 9.24171 10.3708 6.85068 13.5996 6.85068C16.1967 6.85068 17.9047 8.78284 17.9047 10.8599C17.9047 13.6132 16.4306 15.6661 14.2547 15.6661C13.5294 15.6661 12.8275 15.2555 12.5935 14.7967C12.5935 14.7967 12.1958 16.4148 12.1256 16.7288C11.9852 17.2602 11.7044 17.8157 11.4471 18.2262C12.0554 18.4195 12.7105 18.5161 13.3656 18.5161C17.1092 18.5161 20.1508 15.3763 20.1508 11.512C20.1508 7.64772 17.1092 4.48386 13.3656 4.48386Z" fill="white"/>
</g>
</g>
<defs>
<clipPath id="clip0">
<rect width="13.5938" height="14.0323" fill="white" transform="matrix(-1 0 0 1 20.1625 4.48386)"/>
</clipPath>
</defs>
</svg>
