<svg width="84" height="23" viewBox="0 0 84 23" fill="none" xmlns="http://www.w3.org/2000/svg">
<mask id="mask0" mask-type="alpha" maskUnits="userSpaceOnUse" x="0" y="0" width="84" height="23">
<path d="M80.1 0H3.80002C1.70002 0 0 1.70005 0 3.80005V19.2C0 21.3 1.70002 23 3.80002 23H80.1C82.2 23 83.9 21.3 83.9 19.2V3.80005C83.8 1.70005 82.1 0 80.1 0Z" fill="#50ABF1"/>
</mask>
<g mask="url(#mask0)">
<rect width="86" height="23" fill="#0274B3"/>
<rect width="86" height="23" fill="#E1E7EC"/>
<rect width="86" height="23" fill="#CB1F24"/>
<path d="M31.2 9.70001V11.1H30V13.7C30 14.2 30 14.5 30 14.6C30 14.7 30.1 14.8 30.2 14.8C30.3 14.9 30.4 14.9 30.5 14.9C30.7 14.9 30.9 14.8 31.2 14.7L31.3 16C30.9 16.2 30.4 16.3 29.9 16.3C29.6 16.3 29.3 16.2 29.1 16.1C28.9 16 28.7 15.9 28.6 15.7C28.5 15.5 28.4 15.3 28.4 15C28.4 14.8 28.3 14.4 28.3 13.8V11H27.5V9.60004H28.3V8.29999L30 7.29999V9.60004H31.2V9.70001Z" fill="white"/>
<path d="M32.4 8.79999V7.20001H34.1V8.79999H32.4ZM32.4 16.2V9.70001H34.1V16.2H32.4Z" fill="white"/>
<path d="M39.6 14.1L41.3 14.4C41.1 15 40.7 15.5 40.3 15.8C39.8 16.1 39.2 16.3 38.5 16.3C37.4 16.3 36.5 15.9 36 15.2C35.6 14.6 35.4 13.9 35.4 13C35.4 11.9 35.7 11.1 36.2 10.5C36.8 9.9 37.5 9.60004 38.3 9.60004C39.3 9.60004 40 9.90004 40.6 10.6C41.2 11.2 41.4 12.2 41.4 13.5H37.1C37.1 14 37.3 14.4 37.5 14.7C37.8 15 38.1 15.1 38.5 15.1C38.8 15.1 39 15 39.2 14.9C39.4 14.7 39.5 14.4 39.6 14.1ZM36.3 8.90002L37.6 7.10004H39.2L40.5 8.90002H39.1L38.4 8L37.7 8.90002H36.3ZM39.7 12.4C39.7 11.9 39.6 11.5 39.3 11.3C39.1 11 38.8 10.9 38.4 10.9C38 10.9 37.7 11 37.5 11.3C37.3 11.6 37.1 11.9 37.1 12.4H39.7ZM37.6 6.70001L38.4 5H40.3L38.7 6.70001H37.6Z" fill="white"/>
<path d="M45.8 9.70001V11.1H44.6V13.7C44.6 14.2 44.6 14.5 44.6 14.6C44.6 14.7 44.7 14.8 44.8 14.8C44.9 14.9 45 14.9 45.1 14.9C45.3 14.9 45.5 14.8 45.8 14.7L45.9 16C45.5 16.2 45 16.3 44.5 16.3C44.2 16.3 43.9 16.2 43.7 16.1C43.5 16 43.3 15.9 43.2 15.7C43.1 15.5 43 15.3 43 15C43 14.8 42.9 14.4 42.9 13.8V11H42.1V9.60004H42.9V8.29999L44.6 7.29999V9.60004H45.8V9.70001Z" fill="white"/>
<path d="M50.4 16.2V7.20001H52.1V12L54.1 9.70001H56.2L54 12.1L56.4 16.2H54.5L52.9 13.3L52.1 14.1V16.2H50.4Z" fill="white"/>
<path d="M57.4 8.79999V7.20001H59.1V8.79999H57.4ZM57.4 16.2V9.70001H59.1V16.2H57.4Z" fill="white"/>
<path d="M64.7 14.1L66.4 14.4C66.2 15 65.8 15.5 65.4 15.8C64.9 16.1 64.3 16.3 63.6 16.3C62.5 16.3 61.6 15.9 61.1 15.2C60.7 14.6 60.5 13.9 60.5 13C60.5 11.9 60.8 11.1 61.3 10.5C61.9 9.9 62.6 9.60004 63.4 9.60004C64.4 9.60004 65.1 9.90004 65.7 10.6C66.3 11.2 66.5 12.2 66.5 13.5H62.2C62.2 14 62.4 14.4 62.6 14.7C62.8 15 63.2 15.1 63.6 15.1C63.9 15.1 64.1 15 64.3 14.9C64.4 14.7 64.6 14.4 64.7 14.1ZM61.4 8.90002L62.7 7.10004H64.3L65.6 8.90002H64.2L63.5 8L62.8 8.90002H61.4ZM64.8 12.4C64.8 11.9 64.7 11.5 64.4 11.3C64.2 11 63.9 10.9 63.5 10.9C63.1 10.9 62.8 11 62.6 11.3C62.4 11.6 62.2 11.9 62.2 12.4H64.8ZM62.6 18.6V16.9H64.3V18.6H62.6Z" fill="white"/>
<path d="M67.7 9.70001H69.3V10.6C69.9 9.90004 70.5 9.60004 71.3 9.60004C71.7 9.60004 72.1 9.70002 72.4 9.90002C72.7 10.1 73 10.3 73.2 10.7C73.5 10.4 73.8 10.1 74.1 9.90002C74.4 9.70002 74.8 9.60004 75.2 9.60004C75.7 9.60004 76.1 9.70002 76.4 9.90002C76.7 10.1 77 10.4 77.1 10.8C77.2 11.1 77.3 11.5 77.3 12.1V16.3H75.6V12.6C75.6 12 75.5 11.5 75.4 11.4C75.2 11.2 75 11 74.7 11C74.5 11 74.2 11.1 74 11.2C73.8 11.3 73.6 11.6 73.5 11.8C73.4 12 73.4 12.5 73.4 13.1V16.2H71.7V12.6C71.7 12 71.7 11.6 71.6 11.4C71.5 11.2 71.4 11.1 71.3 11C71.2 10.9 71 10.9 70.8 10.9C70.5 10.9 70.3 11 70.1 11.1C69.9 11.2 69.7 11.4 69.6 11.7C69.5 12 69.5 12.4 69.5 13V16.2H67.7V9.70001Z" fill="white"/>
<g clip-path="url(#clip0)">
<path d="M13.3656 4.48386C9.62208 4.48386 6.58044 7.62361 6.58044 11.4879C6.58044 14.362 8.24165 16.8255 10.6515 17.9123C10.6281 17.4293 10.6515 16.8255 10.7685 16.2941C10.9089 15.7145 11.6342 12.4781 11.6342 12.4781C11.6342 12.4781 11.4237 12.0193 11.4237 11.3671C11.4237 10.3286 12.0086 9.55575 12.7339 9.55575C13.3422 9.55575 13.6464 10.0388 13.6464 10.6184C13.6464 11.2464 13.2486 12.2124 13.038 13.1061C12.8743 13.8548 13.389 14.4586 14.1143 14.4586C15.4012 14.4586 16.2669 12.7438 16.2669 10.7392C16.2669 9.19342 15.2608 8.0583 13.4358 8.0583C11.3768 8.0583 10.09 9.65233 10.09 11.4154C10.09 12.0192 10.2538 12.4539 10.5346 12.7921C10.6515 12.937 10.675 13.0094 10.6281 13.1785C10.6047 13.2992 10.5112 13.6132 10.4877 13.734C10.4409 13.903 10.3006 13.9755 10.1368 13.903C9.17752 13.4924 8.75636 12.4298 8.75636 11.2222C8.75636 9.24171 10.3708 6.85068 13.5996 6.85068C16.1967 6.85068 17.9047 8.78284 17.9047 10.8599C17.9047 13.6132 16.4306 15.6661 14.2547 15.6661C13.5294 15.6661 12.8275 15.2555 12.5935 14.7967C12.5935 14.7967 12.1958 16.4148 12.1256 16.7288C11.9852 17.2602 11.7044 17.8157 11.4471 18.2262C12.0554 18.4195 12.7105 18.5161 13.3656 18.5161C17.1092 18.5161 20.1508 15.3763 20.1508 11.512C20.1508 7.64772 17.1092 4.48386 13.3656 4.48386Z" fill="#CB1F24"/>
<path d="M13.3656 4.48386C9.62208 4.48386 6.58044 7.62361 6.58044 11.4879C6.58044 14.362 8.24165 16.8255 10.6515 17.9123C10.6281 17.4293 10.6515 16.8255 10.7685 16.2941C10.9089 15.7145 11.6342 12.4781 11.6342 12.4781C11.6342 12.4781 11.4237 12.0193 11.4237 11.3671C11.4237 10.3286 12.0086 9.55575 12.7339 9.55575C13.3422 9.55575 13.6464 10.0388 13.6464 10.6184C13.6464 11.2464 13.2486 12.2124 13.038 13.1061C12.8743 13.8548 13.389 14.4586 14.1143 14.4586C15.4012 14.4586 16.2669 12.7438 16.2669 10.7392C16.2669 9.19342 15.2608 8.0583 13.4358 8.0583C11.3768 8.0583 10.09 9.65233 10.09 11.4154C10.09 12.0192 10.2538 12.4539 10.5346 12.7921C10.6515 12.937 10.675 13.0094 10.6281 13.1785C10.6047 13.2992 10.5112 13.6132 10.4877 13.734C10.4409 13.903 10.3006 13.9755 10.1368 13.903C9.17752 13.4924 8.75636 12.4298 8.75636 11.2222C8.75636 9.24171 10.3708 6.85068 13.5996 6.85068C16.1967 6.85068 17.9047 8.78284 17.9047 10.8599C17.9047 13.6132 16.4306 15.6661 14.2547 15.6661C13.5294 15.6661 12.8275 15.2555 12.5935 14.7967C12.5935 14.7967 12.1958 16.4148 12.1256 16.7288C11.9852 17.2602 11.7044 17.8157 11.4471 18.2262C12.0554 18.4195 12.7105 18.5161 13.3656 18.5161C17.1092 18.5161 20.1508 15.3763 20.1508 11.512C20.1508 7.64772 17.1092 4.48386 13.3656 4.48386Z" fill="white"/>
</g>
</g>
<defs>
<clipPath id="clip0">
<rect width="13.5938" height="14.0323" fill="white" transform="matrix(-1 0 0 1 20.1625 4.48386)"/>
</clipPath>
</defs>
</svg>
