<svg xmlns="http://www.w3.org/2000/svg" width="15" height="15" viewBox="0 0 15 15">
  <g fill="none" fill-rule="evenodd" transform="translate(-2 -3)">
    <rect width="20" height="20" rx="1"/>
    <g fill="#97A1B1" fill-rule="nonzero" transform="translate(2 3)">
      <path d="M7.5,0 C3.3645,0 0,3.36454545 0,7.50004545 C0,11.6355455 3.3645,15 7.5,15 C11.6355,15 15,11.6355455 15,7.50004545 C15,3.36454545 11.6355,0 7.5,0 Z M7.5,14 C3.91585185,14 1,11.0841481 1,7.50004815 C1,3.91594815 3.91585185,1 7.5,1 C11.0841481,1 14,3.91594815 14,7.50004815 C14,11.0841481 11.0841,14 7.5,14 Z"/>
      <path d="M7.49990909 4.18181818C6.99872727 4.18181818 6.591 4.58981818 6.591 5.09131818 6.591 5.59236364 6.99872727 6 7.49990909 6 8.00109091 6 8.40881818 5.59236364 8.40881818 5.09131818 8.40881818 4.58981818 8.00109091 4.18181818 7.49990909 4.18181818zM7.5 7.36363636C7.12345455 7.36363636 6.81818182 7.66890909 6.81818182 8.04545455L6.81818182 10.1363636C6.81818182 10.5129091 7.12345455 10.8181818 7.5 10.8181818 7.87654545 10.8181818 8.18181818 10.5129091 8.18181818 10.1363636L8.18181818 8.04545455C8.18181818 7.66890909 7.87654545 7.36363636 7.5 7.36363636z"/>
    </g>
  </g>
</svg>
