<svg width="68" height="23" viewBox="0 0 68 23" fill="none" xmlns="http://www.w3.org/2000/svg">
<mask id="mask0" mask-type="alpha" maskUnits="userSpaceOnUse" x="0" y="0" width="68" height="23">
<path d="M64.1 0H3.80002C1.70002 0 0 1.70002 0 3.80002V19.2C0 21.3 1.70002 23 3.80002 23H64.1C66.2 23 67.9 21.3 67.9 19.2V3.80002C67.8 1.70002 66.1 0 64.1 0Z" fill="#50ABF1"/>
</mask>
<g mask="url(#mask0)">
<rect width="68" height="23" fill="#0274B3"/>
<path d="M30 16V8.60001H27.3V7.10001H34.4V8.60001H31.7V16H30Z" fill="white"/>
<path d="M38.5 14L40.2 14.3C40 14.9 39.6 15.4 39.2 15.7C38.8 16 38.1 16.2 37.4 16.2C36.3 16.2 35.4 15.8 34.9 15.1C34.5 14.5 34.3 13.8 34.3 12.9C34.3 11.8 34.6 11 35.1 10.4C35.7 9.79999 36.4 9.5 37.2 9.5C38.2 9.5 38.9 9.8 39.5 10.5C40.1 11.1 40.3 12.1 40.3 13.4H36C36 13.9 36.2 14.3 36.4 14.6C36.7 14.9 37 15 37.4 15C37.7 15 37.9 14.9 38.1 14.8C38.2 14.5 38.4 14.3 38.5 14ZM38.6 12.2C38.6 11.7 38.5 11.3 38.2 11.1C37.9 10.9 37.7 10.7 37.3 10.7C36.9 10.7 36.6 10.8 36.4 11.1C36.2 11.4 36 11.7 36 12.2H38.6Z" fill="white"/>
<path d="M41.7 8.70001V7.10001H43.4V8.70001H41.7ZM41.7 16V9.5H43.4V16H41.7Z" fill="white"/>
<path d="M45.2 16V7H46.9V16H45.2Z" fill="white"/>
<path d="M52.4 14L54.1 14.3C53.9 14.9 53.5 15.4 53.1 15.7C52.7 16 52 16.2 51.3 16.2C50.2 16.2 49.3 15.8 48.8 15.1C48.4 14.5 48.2 13.8 48.2 12.9C48.2 11.8 48.5 11 49 10.4C49.6 9.79999 50.3 9.5 51.1 9.5C52.1 9.5 52.8 9.8 53.4 10.5C54 11.1 54.2 12.1 54.2 13.4H49.9C49.9 13.9 50.1 14.3 50.3 14.6C50.6 14.9 50.9 15 51.3 15C51.6 15 51.8 14.9 52 14.8C52.2 14.5 52.3 14.3 52.4 14ZM52.5 12.2C52.5 11.7 52.4 11.3 52.1 11.1C51.8 10.9 51.6 10.7 51.2 10.7C50.8 10.7 50.5 10.8 50.3 11.1C50.1 11.4 49.9 11.7 49.9 12.2H52.5Z" fill="white"/>
<path d="M61.5 16H59.8V12.7C59.8 12 59.8 11.5 59.7 11.3C59.6 11.1 59.5 10.9 59.3 10.8C59.1 10.7 58.9 10.6 58.7 10.6C58.4 10.6 58.1 10.7 57.9 10.8C57.7 10.9 57.5 11.2 57.4 11.4C57.3 11.7 57.3 12.2 57.3 12.9V15.8H55.6V9.30002H57.2V10.3C57.8 9.60002 58.5 9.20001 59.3 9.20001C59.7 9.20001 60 9.29999 60.3 9.39999C60.6 9.49999 60.9 9.69999 61 9.89999C61.1 10.1 61.3 10.4 61.3 10.6C61.4 10.9 61.4 11.3 61.4 11.8V16H61.5Z" fill="white"/>
<path d="M14.0534 10.1435C14.9049 9.03164 16.0329 9.00159 17.1682 9.11428C18.4564 9.2495 19.4461 10.3313 19.5407 11.8337C19.6644 13.7419 19.6572 15.6575 19.6935 17.5657C19.7008 17.9263 19.497 18.1216 19.1477 18.1291C18.551 18.1366 17.9615 18.1441 17.3647 18.1291C16.9644 18.1141 16.8189 17.9338 16.8189 17.4981C16.8189 16.0932 16.8262 14.6959 16.8116 13.2911C16.8116 13.0132 16.7461 12.7202 16.6733 12.4498C16.5351 11.9314 16.1785 11.6234 15.6618 11.5633C15.1305 11.4957 14.6429 11.661 14.3882 12.1568C14.199 12.5324 14.0534 12.9681 14.0389 13.3888C13.9952 14.711 14.0243 16.0407 14.0243 17.3703C14.0243 17.9788 13.8788 18.1291 13.3038 18.1366C12.8162 18.1441 12.3359 18.1441 11.8483 18.1366C11.3607 18.1291 11.2152 17.9713 11.2152 17.483C11.2152 14.9439 11.2152 12.4047 11.2152 9.86551C11.2152 9.36218 11.3753 9.19691 11.8701 9.1894C12.285 9.18189 12.6925 9.1894 13.1073 9.1894C13.9006 9.18189 13.9879 9.26452 14.0534 10.1435Z" fill="white"/>
<path d="M10.1017 13.6968C10.1017 14.9438 10.1017 16.1984 10.1017 17.4454C10.1017 17.9488 9.94157 18.1216 9.45397 18.1366C8.94454 18.1441 8.43511 18.1516 7.92568 18.1366C7.46719 18.1216 7.29253 17.9413 7.29253 17.4605C7.29253 14.9213 7.29253 12.3821 7.29253 9.84296C7.29253 9.39973 7.48174 9.1969 7.91112 9.18938C8.44238 9.17436 8.97365 9.17436 9.51219 9.18938C9.91973 9.20441 10.1017 9.40724 10.1017 9.83545C10.1017 11.1201 10.1017 12.4047 10.1017 13.6968Z" fill="white"/>
<path d="M10.4728 6.71032C10.4728 7.72449 9.68686 8.54333 8.70439 8.54333C7.71464 8.54333 6.92138 7.71698 6.92138 6.68778C6.92138 5.67362 7.70736 4.86228 8.68984 4.85477C9.68686 4.84726 10.4728 5.6661 10.4728 6.71032Z" fill="white"/>
</g>
</svg>
