<svg width="96" height="23" viewBox="0 0 96 23" fill="none" xmlns="http://www.w3.org/2000/svg">
<mask id="mask0" mask-type="alpha" maskUnits="userSpaceOnUse" x="0" y="0" width="96" height="23">
<path d="M92.1 0H3.80002C1.70002 0 0 1.69999 0 3.79999V19.2C0 21.3 1.70002 23 3.80002 23H92.1C94.2 23 95.9 21.3 95.9 19.2V3.79999C95.8 1.69999 94.1 0 92.1 0Z" fill="#50ABF1"/>
</mask>
<g mask="url(#mask0)">
<rect width="96" height="23" fill="#0274B3"/>
<path d="M36.7 11.7L38.5 12.3C38.2 13.3 37.8 14 37.2 14.5C36.6 15 35.8 15.2 34.8 15.2C33.6 15.2 32.6 14.8 31.9 14C31.1 13.2 30.8 12.1 30.8 10.7C30.8 9.19995 31.2 7.99995 32 7.19995C32.8 6.39995 33.8 6 35 6C36.1 6 37 6.3 37.7 7C38.1 7.4 38.4 7.89995 38.6 8.69995L36.8 9.09998C36.7 8.59998 36.5 8.3 36.1 8C35.8 7.7 35.4 7.59998 34.9 7.59998C34.2 7.59998 33.7 7.79999 33.3 8.29999C32.9 8.79999 32.7 9.49998 32.7 10.6C32.7 11.7 32.9 12.5 33.3 13C33.7 13.5 34.2 13.7 34.9 13.7C35.4 13.7 35.8 13.5 36.1 13.2C36.3 12.9 36.6 12.4 36.7 11.7Z" fill="white"/>
<path d="M39.6 11.7C39.6 11.1 39.7 10.6 40 10C40.3 9.5 40.7 9.09999 41.2 8.79999C41.7 8.49999 42.3 8.39996 42.9 8.39996C43.9 8.39996 44.7 8.69996 45.3 9.39996C45.9 9.99996 46.2 10.8 46.2 11.8C46.2 12.8 45.9 13.6 45.2 14.2C44.6 14.8 43.8 15.2 42.8 15.2C42.2 15.2 41.6 15.1 41.1 14.8C40.6 14.5 40.1 14.1 39.9 13.6C39.8 13.1 39.6 12.4 39.6 11.7ZM41.4 11.8C41.4 12.4 41.6 12.9 41.9 13.3C42.2 13.6 42.6 13.8 43 13.8C43.4 13.8 43.8 13.6 44.1 13.3C44.4 13 44.6 12.5 44.6 11.8C44.6 11.2 44.4 10.7 44.1 10.3C43.8 9.99999 43.4 9.79999 43 9.79999C42.6 9.79999 42.2 9.99999 41.9 10.3C41.6 10.6 41.4 11.1 41.4 11.8Z" fill="white"/>
<path d="M47.6 8.5H49.2V9.39996C49.8 8.69996 50.4 8.39996 51.2 8.39996C51.6 8.39996 52 8.49995 52.3 8.69995C52.6 8.89995 52.9 9.1 53.1 9.5C53.4 9.2 53.7 8.89995 54 8.69995C54.3 8.49995 54.7 8.39996 55.1 8.39996C55.6 8.39996 56 8.49995 56.3 8.69995C56.6 8.89995 56.9 9.19998 57 9.59998C57.1 9.89998 57.2 10.3 57.2 10.9V15.1H55.5V11.4C55.5 10.8 55.4 10.3 55.3 10.2C55.1 9.99995 54.9 9.79999 54.6 9.79999C54.4 9.79999 54.1 9.9 53.9 10C53.7 10.1 53.5 10.4 53.4 10.6C53.3 10.8 53.3 11.3 53.3 11.9V15H51.6V11.4C51.6 10.8 51.6 10.4 51.5 10.2C51.4 9.99995 51.3 9.89999 51.2 9.79999C51.1 9.69999 50.9 9.69995 50.7 9.69995C50.4 9.69995 50.2 9.79996 50 9.89996C49.8 9.99996 49.6 10.2 49.5 10.5C49.4 10.8 49.4 11.2 49.4 11.8V15H47.7V8.5H47.6Z" fill="white"/>
<path d="M58.8 8.5H60.4V9.5C60.6 9.2 60.9 8.89995 61.2 8.69995C61.6 8.49995 61.9 8.39996 62.4 8.39996C63.2 8.39996 63.8 8.69999 64.3 9.29999C64.8 9.89999 65.1 10.7 65.1 11.8C65.1 12.9 64.8 13.7 64.3 14.3C63.8 14.9 63.1 15.2 62.4 15.2C62 15.2 61.7 15.1 61.4 15C61.1 14.9 60.8 14.6 60.5 14.3V17.6H58.8V8.5ZM60.5 11.7C60.5 12.4 60.6 13 60.9 13.3C61.2 13.6 61.5 13.8 62 13.8C62.4 13.8 62.7 13.6 63 13.3C63.3 13 63.4 12.5 63.4 11.7C63.4 11 63.3 10.5 63 10.2C62.7 9.89995 62.4 9.69995 62 9.69995C61.6 9.69995 61.2 9.89995 61 10.2C60.8 10.5 60.5 11 60.5 11.7Z" fill="white"/>
<path d="M67.7 10.5L66.1 10.2C66.3 9.59995 66.6 9.09999 67 8.79999C67.4 8.49999 68.1 8.29999 68.9 8.29999C69.7 8.29999 70.2 8.39998 70.6 8.59998C71 8.79998 71.2 8.99999 71.4 9.29999C71.6 9.59999 71.6 10.1 71.6 10.8V12.8C71.6 13.4 71.6 13.8 71.7 14.1C71.8 14.4 71.9 14.7 72 15H70.3C70.3 14.9 70.2 14.7 70.1 14.5C70.1 14.4 70.1 14.3 70 14.3C69.7 14.6 69.4 14.8 69.1 14.9C68.8 15 68.4 15.1 68 15.1C67.3 15.1 66.8 14.9 66.4 14.6C66 14.2 65.8 13.8 65.8 13.2C65.8 12.8 65.9 12.5 66.1 12.2C66.3 11.9 66.5 11.7 66.8 11.5C67.1 11.3 67.6 11.2 68.2 11.1C69 10.9 69.6 10.8 69.9 10.7V10.6C69.9 10.3 69.8 9.99996 69.7 9.89996C69.5 9.79996 69.2 9.69995 68.8 9.69995C68.5 9.69995 68.3 9.79996 68.1 9.89996C67.9 9.99996 67.8 10.2 67.7 10.5ZM70 11.9C69.8 12 69.4 12.1 69 12.2C68.5 12.3 68.2 12.4 68.1 12.5C67.9 12.7 67.8 12.9 67.8 13.1C67.8 13.3 67.9 13.5 68.1 13.7C68.3 13.9 68.5 14 68.8 14C69.1 14 69.4 13.9 69.7 13.7C69.9 13.5 70 13.4 70.1 13.1C70.1 13 70.2 12.7 70.2 12.3V11.9H70Z" fill="white"/>
<path d="M75.1 15H73.4V8.5H75V9.39996C75.3 8.99996 75.5 8.7 75.7 8.5C75.9 8.4 76.2 8.29999 76.4 8.29999C76.8 8.29999 77.2 8.39998 77.5 8.59998L77 10.1C76.7 9.89998 76.4 9.79999 76.2 9.79999C76 9.79999 75.8 9.9 75.6 10C75.4 10.1 75.3 10.4 75.2 10.7C75.1 11 75.1 11.8 75.1 12.9V15Z" fill="white"/>
<path d="M81.3 8.5V9.89996H80.1V12.5C80.1 13 80.1 13.3 80.1 13.4C80.1 13.5 80.2 13.6 80.3 13.6C80.4 13.7 80.5 13.7 80.6 13.7C80.8 13.7 81 13.6 81.3 13.5L81.4 14.8C81 15 80.5 15.1 80 15.1C79.7 15.1 79.4 15 79.2 14.9C79 14.8 78.8 14.7 78.7 14.5C78.6 14.3 78.5 14.1 78.5 13.8C78.5 13.6 78.4 13.2 78.4 12.6V9.79999H77.6V8.39996H78.4V7.09998L80.1 6.09998V8.39996H81.3V8.5Z" fill="white"/>
<path d="M82.5 7.69995V6.09998H84.2V7.69995H82.5ZM82.5 15V8.5H84.2V15H82.5Z" fill="white"/>
<path d="M87.6 15H85.9V8.5H87.5V9.39996C87.8 8.99996 88 8.7 88.2 8.5C88.4 8.4 88.7 8.29999 88.9 8.29999C89.3 8.29999 89.7 8.39998 90 8.59998L89.5 10.1C89.2 9.89998 88.9 9.79999 88.7 9.79999C88.5 9.79999 88.3 9.9 88.1 10C87.9 10.1 87.8 10.4 87.7 10.7C87.6 11 87.6 11.8 87.6 12.9V15Z" fill="white"/>
<path d="M14.0534 10.1435C14.9049 9.03167 16.0329 9.00162 17.1682 9.11431C18.4564 9.24953 19.4461 10.3313 19.5407 11.8338C19.6644 13.7419 19.6572 15.6576 19.6935 17.5657C19.7008 17.9263 19.497 18.1216 19.1477 18.1291C18.551 18.1366 17.9615 18.1441 17.3647 18.1291C16.9644 18.1141 16.8189 17.9338 16.8189 17.4981C16.8189 16.0933 16.8262 14.696 16.8116 13.2912C16.8116 13.0132 16.7461 12.7202 16.6733 12.4498C16.5351 11.9314 16.1785 11.6234 15.6618 11.5633C15.1305 11.4957 14.6429 11.661 14.3882 12.1568C14.199 12.5324 14.0534 12.9681 14.0389 13.3888C13.9952 14.711 14.0243 16.0407 14.0243 17.3704C14.0243 17.9789 13.8788 18.1291 13.3038 18.1366C12.8162 18.1441 12.3359 18.1441 11.8483 18.1366C11.3607 18.1291 11.2152 17.9714 11.2152 17.4831C11.2152 14.9439 11.2152 12.4047 11.2152 9.86554C11.2152 9.36222 11.3753 9.19694 11.8701 9.18943C12.285 9.18192 12.6925 9.18943 13.1073 9.18943C13.9006 9.18192 13.9879 9.26456 14.0534 10.1435Z" fill="white"/>
<path d="M10.1017 13.6968C10.1017 14.9439 10.1017 16.1984 10.1017 17.4455C10.1017 17.9488 9.94157 18.1216 9.45397 18.1366C8.94454 18.1441 8.43511 18.1516 7.92568 18.1366C7.46719 18.1216 7.29253 17.9413 7.29253 17.4605C7.29253 14.9213 7.29253 12.3821 7.29253 9.84297C7.29253 9.39975 7.48174 9.19691 7.91112 9.1894C8.44238 9.17437 8.97365 9.17437 9.51219 9.1894C9.91973 9.20442 10.1017 9.40726 10.1017 9.83546C10.1017 11.1201 10.1017 12.4047 10.1017 13.6968Z" fill="white"/>
<path d="M10.4728 6.71034C10.4728 7.7245 9.68686 8.54335 8.70439 8.54335C7.71464 8.54335 6.92138 7.71699 6.92138 6.6878C6.92138 5.67363 7.70736 4.8623 8.68984 4.85479C9.68686 4.84728 10.4728 5.66612 10.4728 6.71034Z" fill="white"/>
</g>
</svg>
