<svg width="58" height="23" viewBox="0 0 58 23" fill="none" xmlns="http://www.w3.org/2000/svg">
<mask id="mask0" mask-type="alpha" maskUnits="userSpaceOnUse" x="0" y="0" width="58" height="23">
<path d="M54.1 0H3.80002C1.70002 0 0 1.70002 0 3.80002V19.2C0 21.3 1.70002 23 3.80002 23H54.1C56.2 23 57.9 21.3 57.9 19.2V3.80002C57.8 1.70002 56.1 0 54.1 0Z" fill="#50ABF1"/>
</mask>
<g mask="url(#mask0)">
<rect width="58" height="23" fill="#0274B3"/>
<path d="M29.3 8.5V9.70001C29.3 10.3 29.5 10.6 30 10.6C30.1 10.6 30.1 10.6 30.2 10.6L30.5 11.7C30.2 11.8 29.9 11.9 29.6 11.9C29.2 11.9 28.8 11.8 28.5 11.7C28.2 11.5 28 11.3 27.9 11C27.8 10.7 27.7 10.3 27.7 9.70001V7.5C28.5 7.3 29.3 7.30002 30 7.30002C31.1 7.30002 31.9 7.40001 32.3 7.70001C32.8 8.00001 33.1 8.30001 33.4 8.70001C33.6 9.10001 33.7 9.80001 33.7 10.7V16.3H32V10.6C32 9.80001 31.8 9.20002 31.5 8.90002C31.2 8.60002 30.7 8.5 30 8.5C29.8 8.4 29.6 8.4 29.3 8.5Z" fill="white"/>
<path d="M35.1 12.3C35.3 12.4 35.6 12.4 35.8 12.4C36 12.4 36.2 12.3 36.3 12.2C36.4 12.1 36.4 11.9 36.4 11.5V8.40002C36.1 8.40002 35.7 8.4 35.1 8.5L35 7.20001C36.1 7.10001 37.1 7 38.3 7C39.3 7 40 7.10002 40.6 7.30002C41.2 7.50002 41.6 7.80001 41.9 8.20001C42.2 8.60001 42.3 9.30001 42.3 10.1V13.6H40.6V10.4C40.6 9.60002 40.5 9.00002 40.2 8.80002C39.9 8.60002 39.3 8.40002 38.2 8.40002V11.6C38.2 12.2 38.2 12.5 38.1 12.8C38 13 37.8 13.2 37.6 13.4C37.4 13.6 37 13.6 36.5 13.6C36 13.6 35.5 13.5 35 13.4L35.1 12.3Z" fill="white"/>
<path d="M45.5 11.3C45.6 11.6 45.8 11.9 46.1 12.1C46.4 12.3 46.8 12.4 47.2 12.4C47.9 12.4 48.4 12.2 48.8 11.8C49.2 11.4 49.4 10.6 49.5 9.40002L49.7 7H51.4L51.2 9.5C51.1 10.6 50.9 11.3 50.7 11.8C50.5 12.3 50.1 12.7 49.5 13.1C48.9 13.5 48.2 13.7 47.3 13.7C46.2 13.7 45.2 13.3 44.6 12.6C43.9 11.9 43.6 10.7 43.6 9.20001L43.5 7H45.2V8.70001C45.2 8.90001 45.2 9.30001 45.2 9.70001C45.2 9.90001 45.2 10 45.2 10.1C45.5 10.1 45.7 10 45.9 9.90002C46.1 9.80002 46.3 9.60002 46.3 9.40002C46.4 9.20002 46.4 8.80001 46.4 8.20001L46.5 7H48.2L48.1 8.60001C48.1 9.00001 48 9.30001 48 9.60001C47.9 9.80001 47.8 10.1 47.7 10.3C47.6 10.5 47.3 10.7 46.9 10.9C46.6 11.2 46.1 11.3 45.5 11.3Z" fill="white"/>
<path d="M14.0534 10.1435C14.9049 9.03164 16.0329 9.00159 17.1682 9.11428C18.4564 9.2495 19.4461 10.3313 19.5407 11.8337C19.6644 13.7419 19.6572 15.6575 19.6935 17.5657C19.7008 17.9263 19.497 18.1216 19.1477 18.1291C18.551 18.1366 17.9615 18.1441 17.3647 18.1291C16.9644 18.1141 16.8189 17.9338 16.8189 17.4981C16.8189 16.0932 16.8262 14.696 16.8116 13.2911C16.8116 13.0132 16.7461 12.7202 16.6733 12.4498C16.5351 11.9314 16.1785 11.6234 15.6618 11.5633C15.1305 11.4957 14.6429 11.661 14.3882 12.1568C14.199 12.5324 14.0534 12.9681 14.0389 13.3888C13.9952 14.711 14.0243 16.0407 14.0243 17.3703C14.0243 17.9788 13.8788 18.1291 13.3038 18.1366C12.8162 18.1441 12.3359 18.1441 11.8483 18.1366C11.3607 18.1291 11.2152 17.9713 11.2152 17.483C11.2152 14.9439 11.2152 12.4047 11.2152 9.86551C11.2152 9.36219 11.3753 9.19691 11.8701 9.1894C12.285 9.18189 12.6925 9.1894 13.1073 9.1894C13.9006 9.18189 13.9879 9.26453 14.0534 10.1435Z" fill="white"/>
<path d="M10.1017 13.6968C10.1017 14.9438 10.1017 16.1984 10.1017 17.4454C10.1017 17.9488 9.94157 18.1216 9.45397 18.1366C8.94454 18.1441 8.43511 18.1516 7.92568 18.1366C7.46719 18.1216 7.29253 17.9413 7.29253 17.4605C7.29253 14.9213 7.29253 12.3821 7.29253 9.84296C7.29253 9.39973 7.48174 9.19689 7.91112 9.18938C8.44238 9.17436 8.97365 9.17436 9.51219 9.18938C9.91973 9.20441 10.1017 9.40724 10.1017 9.83544C10.1017 11.1201 10.1017 12.4047 10.1017 13.6968Z" fill="white"/>
<path d="M10.4728 6.71032C10.4728 7.72449 9.68686 8.54333 8.70439 8.54333C7.71464 8.54333 6.92138 7.71698 6.92138 6.68778C6.92138 5.67362 7.70736 4.86228 8.68984 4.85477C9.68686 4.84726 10.4728 5.6661 10.4728 6.71032Z" fill="white"/>
</g>
</svg>
