<svg width="51" height="23" viewBox="0 0 51 23" fill="none" xmlns="http://www.w3.org/2000/svg">
<mask id="mask0" mask-type="alpha" maskUnits="userSpaceOnUse" x="0" y="0" width="51" height="23">
<path d="M47.1 0H3.80002C1.70002 0 0 1.70002 0 3.80002V19.2C0 21.3 1.70002 23 3.80002 23H47.1C49.2 23 50.9 21.3 50.9 19.2V3.80002C50.8 1.70002 49.1 0 47.1 0Z" fill="#50ABF1"/>
</mask>
<g mask="url(#mask0)">
<rect width="51" height="23" fill="#0274B3"/>
<path d="M26.8 9.90002L33.9 9.80002L34.2 10.4V10.5H33.1V16.1L33 16.2L32.3 16V10.5H30.7C31.1 10.9 31.3 11.4 31.3 11.8C31.3 12.6 30.6 13.3 29.6 13.9C30.2 14.6 30.8 15.1 31.5 15.5L31.2 16.3H31.1C30.2 15.7 29.6 15 29.1 14.1C28.8 14.2 28.5 14.3 28.3 14.3C28.1 14.3 27.9 14.2 27.7 13.8C27.6 13.6 27.5 13.5 27.5 13.4C27.5 13.2 27.7 13 28.1 13C28.5 13 28.8 13.1 29.2 13.3C29.4 13.2 29.6 13.1 29.8 13C28.8 12.4 28.1 11.8 28.1 11.1C28.1 11 28.1 10.8 28.2 10.6H27.1L26.8 9.90002ZM28.8 11.3C28.8 11.9 29.3 12.2 30.1 12.5C30.4 12.2 30.6 11.9 30.6 11.4C30.6 10.9 30.2 10.5 29.7 10.5C29.2 10.5 28.8 10.8 28.8 11.3Z" fill="white"/>
<path d="M32.5 10C32.3 9.6 32.1 9.20002 31.9 8.80002C31.6 8.10002 31.3 7.80002 30.6 7.80002C30.2 7.80002 29.9 7.9 29.5 8L29.2 7.20001C29.5 7.10001 29.9 7 30.4 7C31.6 7 31.8 7.8 33 10V10.1H32.5V10Z" fill="white"/>
<path d="M33.6 9.90002L39.5 9.80002L39.8 10.4V10.5H38.7V16.1L38.6 16.2L37.9 16V14.2C37.5 14.5 37.1 14.6 36.6 14.6C35.4 14.6 34.6 13.6 34.2 12.4L34.3 12.3C35.1 12 35.8 11.8 35.8 11.3C35.8 11 35.7 10.8 35.4 10.5H33.8L33.6 9.90002ZM36.1 10.5C36.4 11 36.5 11.3 36.5 11.6C36.5 12.2 36.2 12.5 35.4 12.8C35.3 12.8 35.2 12.9 35.2 13C35.2 13.2 35.6 13.9 36.5 13.9C36.9 13.9 37.2 13.8 37.6 13.6C37.9 13.4 38 13.1 38 12.7V10.5H36.1Z" fill="white"/>
<path d="M39.3 9.90002L43.7 9.80002L44 10.4V10.5H42.5C42.6 10.8 42.6 11.2 42.6 11.5C42.6 12.6 42.1 13.2 41.3 13.6C41.8 14.2 42.7 14.8 43.7 15.3L43.3 16.1H43.2C42.1 15.3 41.3 14.5 40.7 13.6C40.4 13.2 40.2 12.8 40.2 12.6C40.2 12.5 40.2 12.4 40.3 12.3C40.4 12.2 40.6 12.1 40.9 12.1C41.2 12.1 41.4 12.1 41.7 12.1C41.8 11.9 41.9 11.5 41.9 11.2C41.9 11 41.9 10.7 41.8 10.5H39.6L39.3 9.90002Z" fill="white"/>
<path d="M14.0534 10.1435C14.9049 9.03164 16.0329 9.00159 17.1682 9.11428C18.4564 9.2495 19.4461 10.3313 19.5407 11.8337C19.6644 13.7419 19.6572 15.6575 19.6935 17.5657C19.7008 17.9263 19.497 18.1216 19.1477 18.1291C18.551 18.1366 17.9615 18.1441 17.3647 18.1291C16.9644 18.1141 16.8189 17.9338 16.8189 17.4981C16.8189 16.0932 16.8262 14.696 16.8116 13.2911C16.8116 13.0132 16.7461 12.7202 16.6733 12.4498C16.5351 11.9314 16.1785 11.6234 15.6618 11.5633C15.1305 11.4957 14.6429 11.661 14.3882 12.1568C14.199 12.5324 14.0534 12.9681 14.0389 13.3888C13.9952 14.711 14.0243 16.0407 14.0243 17.3703C14.0243 17.9788 13.8788 18.1291 13.3038 18.1366C12.8162 18.1441 12.3359 18.1441 11.8483 18.1366C11.3607 18.1291 11.2152 17.9713 11.2152 17.483C11.2152 14.9439 11.2152 12.4047 11.2152 9.86551C11.2152 9.36219 11.3753 9.19691 11.8701 9.1894C12.285 9.18189 12.6925 9.1894 13.1073 9.1894C13.9006 9.18189 13.9879 9.26453 14.0534 10.1435Z" fill="white"/>
<path d="M10.1017 13.6968C10.1017 14.9438 10.1017 16.1984 10.1017 17.4454C10.1017 17.9488 9.94157 18.1216 9.45397 18.1366C8.94454 18.1441 8.43511 18.1516 7.92568 18.1366C7.46719 18.1216 7.29253 17.9413 7.29253 17.4605C7.29253 14.9213 7.29253 12.3821 7.29253 9.84296C7.29253 9.39973 7.48174 9.19689 7.91112 9.18938C8.44238 9.17436 8.97365 9.17436 9.51219 9.18938C9.91973 9.20441 10.1017 9.40724 10.1017 9.83544C10.1017 11.1201 10.1017 12.4047 10.1017 13.6968Z" fill="white"/>
<path d="M10.4728 6.71032C10.4728 7.72449 9.68686 8.54333 8.70439 8.54333C7.71464 8.54333 6.92138 7.71698 6.92138 6.68778C6.92138 5.67362 7.70736 4.86228 8.68984 4.85477C9.68686 4.84726 10.4728 5.6661 10.4728 6.71032Z" fill="white"/>
</g>
</svg>
