<svg width="90" height="23" viewBox="0 0 90 23" fill="none" xmlns="http://www.w3.org/2000/svg">
<mask id="mask0" mask-type="alpha" maskUnits="userSpaceOnUse" x="0" y="0" width="90" height="23">
<path d="M86.1 0H3.80002C1.70002 0 0 1.69999 0 3.79999V19.2C0 21.3 1.70002 23 3.80002 23H86.1C88.2 23 89.9 21.3 89.9 19.2V3.79999C89.8 1.69999 88.1 0 86.1 0Z" fill="#50ABF1"/>
</mask>
<g mask="url(#mask0)">
<rect width="90" height="23" fill="#0274B3"/>
<path d="M33.7 12.7L35.5 13.3C35.2 14.3 34.8 15 34.2 15.5C33.6 16 32.8 16.2 31.8 16.2C30.6 16.2 29.6 15.8 28.9 15C28.1 14.2 27.8 13.1 27.8 11.7C27.8 10.2 28.2 8.99995 29 8.19995C29.8 7.39995 30.8 7 32 7C33.1 7 34 7.3 34.7 8C35.1 8.4 35.4 8.89995 35.6 9.69995L33.8 10.1C33.7 9.59998 33.5 9.3 33.1 9C32.8 8.7 32.4 8.59998 31.9 8.59998C31.2 8.59998 30.7 8.79999 30.3 9.29999C29.9 9.79999 29.7 10.5 29.7 11.6C29.7 12.7 29.9 13.5 30.3 14C30.7 14.5 31.2 14.7 31.9 14.7C32.4 14.7 32.8 14.5 33.1 14.2C33.3 13.9 33.6 13.4 33.7 12.7Z" fill="white"/>
<path d="M36.6 12.7C36.6 12.1 36.7 11.6 37 11C37.3 10.5 37.7 10.1 38.2 9.79999C38.7 9.49999 39.3 9.39996 39.9 9.39996C40.9 9.39996 41.7 9.69996 42.3 10.4C42.9 11 43.2 11.8 43.2 12.8C43.2 13.8 42.9 14.6 42.2 15.2C41.6 15.8 40.8 16.2 39.8 16.2C39.2 16.2 38.6 16.1 38.1 15.8C37.6 15.5 37.1 15.1 36.9 14.6C36.8 14.1 36.6 13.4 36.6 12.7ZM38.4 12.8C38.4 13.4 38.6 13.9 38.9 14.3C39.2 14.6 39.6 14.8 40 14.8C40.4 14.8 40.8 14.6 41.1 14.3C41.4 14 41.6 13.5 41.6 12.8C41.6 12.2 41.4 11.7 41.1 11.3C40.8 11 40.4 10.8 40 10.8C39.6 10.8 39.2 11 38.9 11.3C38.6 11.6 38.4 12.1 38.4 12.8Z" fill="white"/>
<path d="M50.6 16H48.9V12.7C48.9 12 48.9 11.5 48.8 11.3C48.7 11.1 48.6 10.9 48.4 10.8C48.2 10.7 48 10.6 47.8 10.6C47.5 10.6 47.2 10.7 47 10.8C46.8 10.9 46.6 11.2 46.5 11.4C46.4 11.7 46.4 12.2 46.4 12.9V15.8H44.7V9.29999H46.3V10.3C46.9 9.59999 47.6 9.19995 48.4 9.19995C48.8 9.19995 49.1 9.29996 49.4 9.39996C49.7 9.49996 50 9.69996 50.1 9.89996C50.2 10.1 50.4 10.4 50.4 10.6C50.5 10.9 50.5 11.3 50.5 11.8V16H50.6Z" fill="white"/>
<path d="M58.3 16H56.7V15C56.4 15.4 56.1 15.6 55.8 15.8C55.4 16 55.1 16.1 54.7 16.1C54 16.1 53.3 15.8 52.8 15.2C52.3 14.6 52 13.8 52 12.7C52 11.6 52.3 10.8 52.8 10.2C53.3 9.59995 54 9.29999 54.8 9.29999C55.5 9.29999 56.2 9.59995 56.7 10.2V7H58.4V16H58.3ZM53.7 12.6C53.7 13.3 53.8 13.8 54 14.1C54.3 14.5 54.7 14.8 55.2 14.8C55.6 14.8 55.9 14.6 56.2 14.3C56.5 14 56.6 13.5 56.6 12.8C56.6 12.1 56.5 11.5 56.2 11.2C55.9 10.9 55.6 10.7 55.2 10.7C54.8 10.7 54.5 10.9 54.2 11.2C53.9 11.5 53.7 12 53.7 12.6Z" fill="white"/>
<path d="M60 8.69995V7.09998H61.7V8.69995H60ZM60 16V9.5H61.7V16H60Z" fill="white"/>
<path d="M65.2 16L62.6 9.5H64.4L65.6 12.8L66 13.9C66.1 13.6 66.2 13.4 66.2 13.3C66.3 13.1 66.3 12.9 66.4 12.8L67.6 9.5H69.4L66.8 16H65.2Z" fill="white"/>
<path d="M70.4 8.69995V7.09998H72.1V8.69995H70.4ZM70.4 16V9.5H72.1V16H70.4Z" fill="white"/>
<path d="M79.8 16H78.2V15C77.9 15.4 77.6 15.6 77.3 15.8C76.9 16 76.6 16.1 76.2 16.1C75.5 16.1 74.8 15.8 74.3 15.2C73.8 14.6 73.5 13.8 73.5 12.7C73.5 11.6 73.8 10.8 74.3 10.2C74.8 9.59995 75.5 9.29999 76.3 9.29999C77 9.29999 77.7 9.59995 78.2 10.2V7H79.9V16H79.8ZM75.3 12.6C75.3 13.3 75.4 13.8 75.6 14.1C75.9 14.5 76.3 14.8 76.8 14.8C77.2 14.8 77.5 14.6 77.8 14.3C78.1 14 78.2 13.5 78.2 12.8C78.2 12.1 78.1 11.5 77.8 11.2C77.5 10.9 77.2 10.7 76.8 10.7C76.4 10.7 76.1 10.9 75.8 11.2C75.5 11.5 75.3 12 75.3 12.6Z" fill="white"/>
<path d="M81.5 8.69995V7.09998H83.2V8.69995H81.5ZM81.5 16V9.5H83.2V16H81.5Z" fill="white"/>
<path d="M14.0534 10.1435C14.9049 9.03164 16.0329 9.00159 17.1682 9.11428C18.4564 9.2495 19.4461 10.3313 19.5407 11.8337C19.6644 13.7419 19.6572 15.6575 19.6935 17.5657C19.7008 17.9263 19.497 18.1216 19.1477 18.1291C18.551 18.1366 17.9615 18.1441 17.3647 18.1291C16.9644 18.1141 16.8189 17.9338 16.8189 17.4981C16.8189 16.0932 16.8262 14.6959 16.8116 13.2911C16.8116 13.0132 16.7461 12.7202 16.6733 12.4498C16.5351 11.9314 16.1785 11.6234 15.6618 11.5633C15.1305 11.4957 14.6429 11.661 14.3882 12.1568C14.199 12.5324 14.0534 12.9681 14.0389 13.3888C13.9952 14.711 14.0243 16.0407 14.0243 17.3703C14.0243 17.9788 13.8788 18.1291 13.3038 18.1366C12.8162 18.1441 12.3359 18.1441 11.8483 18.1366C11.3607 18.1291 11.2152 17.9713 11.2152 17.483C11.2152 14.9439 11.2152 12.4047 11.2152 9.86551C11.2152 9.36218 11.3753 9.19691 11.8701 9.1894C12.285 9.18189 12.6925 9.1894 13.1073 9.1894C13.9006 9.18189 13.9879 9.26452 14.0534 10.1435Z" fill="white"/>
<path d="M10.1017 13.6968C10.1017 14.9438 10.1017 16.1984 10.1017 17.4454C10.1017 17.9488 9.94157 18.1216 9.45397 18.1366C8.94454 18.1441 8.43511 18.1516 7.92568 18.1366C7.46719 18.1216 7.29253 17.9413 7.29253 17.4605C7.29253 14.9213 7.29253 12.3821 7.29253 9.84296C7.29253 9.39973 7.48174 9.1969 7.91112 9.18938C8.44238 9.17436 8.97365 9.17436 9.51219 9.18938C9.91973 9.20441 10.1017 9.40724 10.1017 9.83545C10.1017 11.1201 10.1017 12.4047 10.1017 13.6968Z" fill="white"/>
<path d="M10.4728 6.71032C10.4728 7.72449 9.68686 8.54333 8.70439 8.54333C7.71464 8.54333 6.92138 7.71698 6.92138 6.68778C6.92138 5.67362 7.70736 4.86228 8.68984 4.85477C9.68686 4.84726 10.4728 5.6661 10.4728 6.71032Z" fill="white"/>
</g>
</svg>
