<svg width="82" height="23" viewBox="0 0 82 23" fill="none" xmlns="http://www.w3.org/2000/svg">
<mask id="mask0" mask-type="alpha" maskUnits="userSpaceOnUse" x="0" y="0" width="82" height="23">
<path d="M78.1 0H3.80002C1.70002 0 0 1.69999 0 3.79999V19.2C0 21.3 1.70002 23 3.80002 23H78.1C80.2 23 81.9 21.3 81.9 19.2V3.79999C81.8 1.69999 80.1 0 78.1 0Z" fill="#50ABF1"/>
</mask>
<g mask="url(#mask0)">
<rect width="82" height="23" fill="#0274B3"/>
<path d="M32.7 9.89996C32.7 9.69996 32.3 9.49996 31.9 9.39996C31.7 9.29996 31.6 9.30001 31.6 9.20001C31.6 9.10001 31.7 9.1 32 9C33.3 9.1 33.5 9.19996 33.5 9.39996C33.5 9.49996 33.5 9.60001 33.4 9.70001V11.6C34.2 11.6 34.8 11.6 36.2 11.5C37.2 11.4 37.1 11.2 37.6 11.2C38.2 11.2 38.7 11.4 38.7 11.6C38.7 11.8 38.5 11.9 38.2 11.9H38.1C37.5 11.9 36.9 11.9 36.2 11.9C34.2 11.9 31.9 12 30.4 12.2C30 12.3 29.9 12.4 29.7 12.4C29.3 12.4 28.1 11.9 28.1 11.7C28.1 11.7 28.1 11.6 28.2 11.6C28.3 11.6 28.3 11.6 28.4 11.6C29.1 11.7 29.9 11.8 30.6 11.8C31.3 11.8 32 11.8 32.6 11.7V9.89996H32.7ZM35.9 6.89996C36.2 6.89996 36.2 6.79999 36.6 6.79999C36.9 6.79999 37.4 6.8 37.4 7C37.4 7.1 37.2 7.29996 37.2 7.39996C36.9 8.49996 36.7 9.59999 36.2 10.3C36.1 10.5 36 10.5 35.9 10.5C35.9 10.5 35.8 10.5 35.8 10.4C35.8 10.3 35.8 10.2 35.8 10.1C36 9.29998 36.2 8.40001 36.3 7.20001C35.3 7.20001 32.9 7.3 31.5 7.5C31.2 7.5 31 7.70001 30.8 7.70001C30.4 7.70001 29.5 7.2 29.5 7C29.5 7 29.5 6.89996 29.6 6.89996C29.7 6.89996 29.8 6.89996 30 6.89996C30.5 6.99996 31.1 7 31.7 7C33 7.1 35.3 6.89996 35.9 6.89996ZM32.9 13.3C33.1 13.3 33.2 13.2 33.2 13.1C33.2 13.1 33.2 13 33.1 12.9C33 12.8 33 12.8 33 12.7C33 12.7 33 12.6 33.1 12.6C33.3 12.6 33.8 12.8 33.8 13C33.8 13.1 33.7 13.2 33.7 13.3C35.2 13.6 35.9 14.5 35.9 15.4C35.9 16.4 35 17.4 33.4 17.4C31.7 17.4 30.8 16.3 30.8 15.3C30.8 14.4 31.4 13.6 32.8 13.3H32.9ZM31.5 15.3C31.5 16.1 32.1 16.9 33.3 16.9C34.5 16.9 35.1 16.1 35.1 15.3C35.1 14.5 34.5 13.7 33.3 13.7C32.1 13.7 31.5 14.5 31.5 15.3Z" fill="white"/>
<path d="M43.6 12.5C43.4 12.5 43 12.6 42.6 12.6C42.2 12.7 42.1 12.8 41.9 12.8C41.6 12.8 40.3 12.2 40.3 12C40.3 12 40.4 11.9 40.5 11.9C40.6 11.9 40.7 11.9 40.8 11.9C41.2 12 42.1 12 43.2 12C45.3 12 48.1 11.9 49.1 11.8C49.8 11.8 49.7 11.6 50.3 11.6C50.8 11.6 51.6 11.6 51.6 12C51.6 12.2 51.4 12.3 51.1 12.3C50.5 12.3 49.6 12.2 48.5 12.2H48.2C48.2 14 48.2 16.4 48 17.1C47.9 17.4 47.8 17.6 47.7 17.6C47.6 17.6 47.5 17.4 47.5 16.9V12.2C47.1 12.2 45.5 12.2 44.6 12.3C44.6 15 44.6 15.8 44.3 16.6C44.2 16.9 44 17.1 43.9 17.1C43.8 17.1 43.7 16.9 43.7 16.4L43.6 12.5ZM45.4 6.79999C45.6 6.79999 45.7 6.69998 45.7 6.59998C45.7 6.49998 45.7 6.39996 45.6 6.39996C45.5 6.29996 45.4 6.20001 45.4 6.20001C45.4 6.20001 45.5 6.09998 45.6 6.09998C45.9 6.09998 46.4 6.3 46.4 6.5C46.4 6.6 46.3 6.79996 46.3 6.89996C47.8 7.19996 48.5 8.1 48.5 9C48.5 10 47.6 11.1 46 11.1C44.3 11.1 43.4 9.99996 43.4 8.89996C43.2 7.99996 43.9 7.09999 45.4 6.79999ZM44 8.89996C44 9.69996 44.6 10.5 45.9 10.5C47.1 10.5 47.7 9.69996 47.7 8.89996C47.7 8.09996 47.1 7.29999 45.9 7.29999C44.6 7.29999 44 8.09996 44 8.89996Z" fill="white"/>
<path d="M57.5 9.5C58.5 9.4 58 9.19998 59.3 9.09998C59.9 9.09998 60.1 9.3 60.1 9.5C60.1 9.5 60.1 9.79999 59.6 9.79999C58.8 9.89999 56.5 9.9 55 10C54.6 10.1 54.5 10.2 54.3 10.2C54 10.2 53 9.7 53 9.5C53 9.5 53.1 9.39996 53.2 9.39996C53.3 9.39996 53.3 9.39996 53.4 9.39996C54 9.49996 54.7 9.5 55.3 9.5C55.6 9.6 57.2 9.5 57.5 9.5ZM56.2 11.1C56.4 11.1 56.6 11 56.6 10.8C56.6 10.7 56.6 10.7 56.5 10.6C56.5 10.5 56.4 10.5 56.4 10.4C56.4 10.4 56.4 10.3 56.5 10.3C56.8 10.3 57.2 10.5 57.2 10.7C57.2 10.8 57.1 10.9 57 11C58.5 11.2 59.2 12.1 59.2 13C59.2 14 58.3 15 56.7 15C55 15 54.2 13.9 54.2 13C54.1 12.2 54.8 11.3 56.2 11.1ZM56.1 8.29999C55.7 8.29999 54.8 7.6 54.8 7.5C54.8 7.5 54.8 7.39996 54.9 7.39996C55 7.39996 55 7.39996 55.2 7.39996C56.1 7.59996 56.8 7.59998 57.8 7.59998C58.1 7.59998 58.3 7.79996 58.3 7.89996C58.3 8.09996 58.1 8.19999 57.5 8.29999H56.1ZM54.9 13C54.9 13.8 55.5 14.5 56.7 14.5C57.9 14.5 58.5 13.7 58.5 13C58.5 12.2 57.9 11.5 56.7 11.5C55.5 11.5 54.9 12.2 54.9 13ZM61 7.20001C61 7.00001 60.3 6.69996 59.8 6.39996C59.7 6.29996 59.6 6.30001 59.6 6.20001C59.6 6.10001 59.8 6.1 60.1 6C60.6 6.1 61.1 6.19999 61.5 6.29999C61.8 6.39999 61.8 6.49998 61.8 6.59998C61.8 6.69998 61.8 6.8 61.8 7V11.6H62.4C63 11.5 62.8 11.3 63.6 11.3C63.8 11.3 64.4 11.3 64.4 11.7C64.4 11.9 64.3 12 64 12H61.8V15.6C61.8 16.4 61.7 16.9 61.5 17.5C61.4 17.7 61.3 17.7 61.2 17.7C61.1 17.7 61 17.5 61 17.1V7.20001Z" fill="white"/>
<path d="M68.1 8.59998C67.6 8.69998 67.5 8.79999 67.3 8.79999C67 8.79999 66 8.29998 66 8.09998C66 8.09998 66.1 8 66.2 8C66.3 8 66.4 8 66.5 8C67.1 8.1 67.9 8.09998 68.8 8.09998C69.3 8.09998 69.8 8.09998 70.4 8.09998C70.8 8.09998 70.7 8 71.1 8C71.2 8 71.2 8 71.3 8C71.7 8 71.8 8.10001 71.8 8.20001C71.8 8.30001 71.6 8.49998 71.5 8.59998C70.4 11.5 68.8 13.3 66 15.2C65.8 15.3 65.6 15.4 65.5 15.4C65.5 15.3 65.6 15.2 65.8 15.1C68 13.4 70 10.9 70.7 8.5L68.1 8.59998ZM74 7.29999C74 7.09999 73.6 6.79996 72.9 6.39996C72.7 6.29996 72.6 6.30001 72.6 6.20001C72.6 6.10001 72.7 6.1 73 6C73.8 6.1 74.2 6.29996 74.5 6.39996C74.7 6.49996 74.7 6.60001 74.7 6.70001C74.7 6.80001 74.7 6.9 74.7 7V14.4C74.7 16.7 74.6 17 74.4 17.5C74.3 17.7 74.2 17.7 74.1 17.7C74 17.7 73.9 17.5 73.9 17.2V7.29999H74Z" fill="white"/>
<path d="M14.0534 10.1435C14.9049 9.03164 16.0329 9.00159 17.1682 9.11428C18.4564 9.2495 19.4461 10.3313 19.5407 11.8337C19.6644 13.7419 19.6572 15.6575 19.6935 17.5657C19.7008 17.9263 19.497 18.1216 19.1477 18.1291C18.551 18.1366 17.9615 18.1441 17.3647 18.1291C16.9644 18.1141 16.8189 17.9338 16.8189 17.4981C16.8189 16.0932 16.8262 14.6959 16.8116 13.2911C16.8116 13.0132 16.7461 12.7202 16.6733 12.4498C16.5351 11.9314 16.1785 11.6234 15.6618 11.5633C15.1305 11.4957 14.6429 11.661 14.3882 12.1568C14.199 12.5324 14.0534 12.9681 14.0389 13.3888C13.9952 14.711 14.0243 16.0407 14.0243 17.3703C14.0243 17.9788 13.8788 18.1291 13.3038 18.1366C12.8162 18.1441 12.3359 18.1441 11.8483 18.1366C11.3607 18.1291 11.2152 17.9713 11.2152 17.483C11.2152 14.9439 11.2152 12.4047 11.2152 9.86551C11.2152 9.36218 11.3753 9.19691 11.8701 9.1894C12.285 9.18189 12.6925 9.1894 13.1073 9.1894C13.9006 9.18189 13.9879 9.26452 14.0534 10.1435Z" fill="white"/>
<path d="M10.1017 13.6968C10.1017 14.9438 10.1017 16.1984 10.1017 17.4454C10.1017 17.9488 9.94157 18.1216 9.45397 18.1366C8.94454 18.1441 8.43511 18.1516 7.92568 18.1366C7.46719 18.1216 7.29253 17.9413 7.29253 17.4605C7.29253 14.9213 7.29253 12.3821 7.29253 9.84296C7.29253 9.39973 7.48174 9.1969 7.91112 9.18938C8.44238 9.17436 8.97365 9.17436 9.51219 9.18938C9.91973 9.20441 10.1017 9.40724 10.1017 9.83545C10.1017 11.1201 10.1017 12.4047 10.1017 13.6968Z" fill="white"/>
<path d="M10.4728 6.71032C10.4728 7.72449 9.68686 8.54333 8.70439 8.54333C7.71464 8.54333 6.92138 7.71698 6.92138 6.68778C6.92138 5.67362 7.70736 4.86228 8.68984 4.85477C9.68686 4.84726 10.4728 5.6661 10.4728 6.71032Z" fill="white"/>
</g>
</svg>
