<svg width="88" height="23" viewBox="0 0 88 23" fill="none" xmlns="http://www.w3.org/2000/svg">
<mask id="mask0" mask-type="alpha" maskUnits="userSpaceOnUse" x="0" y="0" width="88" height="23">
<path d="M84.1 0H3.80002C1.70002 0 0 1.69999 0 3.79999V19.2C0 21.3 1.70002 23 3.80002 23H84.1C86.2 23 87.9 21.3 87.9 19.2V3.79999C87.8 1.69999 86.1 0 84.1 0Z" fill="#50ABF1"/>
</mask>
<g mask="url(#mask0)">
<rect width="88" height="23" fill="#0274B3"/>
<path d="M31 16V7H33.9C35 7 35.7 6.99998 36.1 7.09998C36.6 7.19998 37 7.5 37.4 8C37.7 8.5 37.9 8.99995 37.9 9.69995C37.9 10.3 37.8 10.7 37.6 11.1C37.4 11.5 37.1 11.8 36.8 12C36.5 12.2 36.2 12.4 35.9 12.4C35.5 12.5 34.8 12.5 34 12.5H32.8V15.9H31V16ZM32.8 8.59998V11.1H33.8C34.5 11.1 35 11.1 35.2 11C35.4 10.9 35.6 10.8 35.8 10.6C35.9 10.4 36 10.2 36 9.89996C36 9.59996 35.9 9.29998 35.7 9.09998C35.5 8.89998 35.3 8.79995 35 8.69995C34.8 8.69995 34.3 8.59998 33.7 8.59998H32.8Z" fill="white"/>
<path d="M40.6 11.5L39 11.2C39.2 10.6 39.5 10.1 39.9 9.79999C40.3 9.49999 41 9.29999 41.8 9.29999C42.6 9.29999 43.1 9.39998 43.5 9.59998C43.9 9.79998 44.1 9.99999 44.3 10.3C44.5 10.6 44.5 11.1 44.5 11.8V13.8C44.5 14.4 44.5 14.8 44.6 15.1C44.7 15.4 44.8 15.7 44.9 16H43.2C43.2 15.9 43.1 15.7 43 15.5C43 15.4 43 15.3 42.9 15.3C42.6 15.6 42.3 15.8 42 15.9C41.7 16 41.3 16.1 40.9 16.1C40.2 16.1 39.7 15.9 39.3 15.6C38.9 15.2 38.7 14.8 38.7 14.2C38.7 13.8 38.8 13.5 39 13.2C39.2 12.9 39.4 12.7 39.7 12.5C40 12.3 40.5 12.2 41.1 12.1C41.9 11.9 42.5 11.8 42.8 11.7V11.6C42.8 11.3 42.7 11 42.6 10.9C42.4 10.8 42.1 10.7 41.7 10.7C41.4 10.7 41.2 10.8 41 10.9C40.8 11 40.7 11.2 40.6 11.5ZM42.9 12.9C42.7 13 42.3 13.1 41.9 13.2C41.4 13.3 41.1 13.4 41 13.5C40.8 13.7 40.7 13.9 40.7 14.1C40.7 14.3 40.8 14.5 41 14.7C41.2 14.9 41.4 15 41.7 15C42 15 42.3 14.9 42.6 14.7C42.8 14.5 42.9 14.4 43 14.1C43 14 43.1 13.7 43.1 13.3V12.9H42.9Z" fill="white"/>
<path d="M47.9 16H46.2V9.5H47.8V10.4C48.1 9.99996 48.3 9.7 48.5 9.5C48.7 9.4 49 9.29999 49.2 9.29999C49.6 9.29999 50 9.39998 50.3 9.59998L49.8 11.1C49.5 10.9 49.2 10.8 49 10.8C48.8 10.8 48.6 10.9 48.4 11C48.2 11.1 48.1 11.4 48 11.7C47.9 12 47.9 12.8 47.9 13.9V16Z" fill="white"/>
<path d="M54.2 9.5V10.9H53V13.5C53 14 53 14.3 53 14.4C53 14.5 53.1 14.6 53.2 14.6C53.3 14.7 53.4 14.7 53.5 14.7C53.7 14.7 53.9 14.6 54.2 14.5L54.3 15.8C53.9 16 53.4 16.1 52.9 16.1C52.6 16.1 52.3 16 52.1 15.9C51.9 15.8 51.7 15.7 51.6 15.5C51.5 15.3 51.4 15.1 51.4 14.8C51.4 14.6 51.3 14.2 51.3 13.6V10.8H50.5V9.39996H51.3V8.09998L53 7.09998V9.39996H54.2V9.5Z" fill="white"/>
<path d="M55.3 8.69995V7.09998H57V8.69995H55.3ZM55.3 16V9.5H57V16H55.3Z" fill="white"/>
<path d="M58.8 16V7H60.5V16H58.8Z" fill="white"/>
<path d="M64 7.09998V10.4C64.6 9.79996 65.2 9.39996 66 9.39996C66.4 9.39996 66.8 9.49998 67.1 9.59998C67.4 9.69998 67.7 9.89995 67.8 10.2C67.9 10.5 68.1 10.7 68.1 11C68.1 11.3 68.2 11.7 68.2 12.3V16.1H66.5V12.6C66.5 11.9 66.5 11.5 66.4 11.3C66.3 11.1 66.2 11 66.1 10.9C65.9 10.8 65.7 10.7 65.5 10.7C65.2 10.7 65 10.8 64.7 10.9C64.5 11 64.3 11.2 64.2 11.5C64.1 11.8 64 12.2 64 12.7V16H62.3V7H64V7.09998Z" fill="white"/>
<path d="M71.2 11.5L69.6 11.2C69.8 10.6 70.1 10.1 70.5 9.79999C70.9 9.49999 71.6 9.29999 72.4 9.29999C73.2 9.29999 73.7 9.39998 74.1 9.59998C74.5 9.79998 74.7 9.99999 74.9 10.3C75.1 10.6 75.1 11.1 75.1 11.8V13.8C75.1 14.4 75.1 14.8 75.2 15.1C75.3 15.4 75.4 15.7 75.5 16H73.8C73.8 15.9 73.7 15.7 73.6 15.5C73.6 15.4 73.6 15.3 73.5 15.3C73.2 15.6 72.9 15.8 72.6 15.9C72.3 16 71.9 16.1 71.5 16.1C70.8 16.1 70.3 15.9 69.9 15.6C69.5 15.2 69.3 14.8 69.3 14.2C69.3 13.8 69.4 13.5 69.6 13.2C69.8 12.9 70 12.7 70.3 12.5C70.6 12.3 71.1 12.2 71.7 12.1C72.5 11.9 73.1 11.8 73.4 11.7V11.6C73.4 11.3 73.3 11 73.2 10.9C73 10.8 72.7 10.7 72.3 10.7C72 10.7 71.8 10.8 71.6 10.9C71.4 11 71.3 11.2 71.2 11.5ZM73.5 12.9C73.3 13 72.9 13.1 72.5 13.2C72 13.3 71.7 13.4 71.6 13.5C71.4 13.7 71.3 13.9 71.3 14.1C71.3 14.3 71.4 14.5 71.6 14.7C71.8 14.9 72 15 72.3 15C72.6 15 72.9 14.9 73.2 14.7C73.4 14.5 73.5 14.4 73.6 14.1C73.6 14 73.7 13.7 73.7 13.3V12.9H73.5Z" fill="white"/>
<path d="M78.6 16H76.9V9.5H78.5V10.4C78.8 9.99996 79 9.7 79.2 9.5C79.4 9.4 79.7 9.29999 79.9 9.29999C80.3 9.29999 80.7 9.39998 81 9.59998L80.5 11.1C80.2 10.9 79.9 10.8 79.7 10.8C79.5 10.8 79.3 10.9 79.1 11C78.9 11.1 78.8 11.4 78.7 11.7C78.6 12 78.6 12.8 78.6 13.9V16Z" fill="white"/>
<path d="M14.0534 10.1435C14.9049 9.03167 16.0329 9.00162 17.1682 9.11431C18.4564 9.24953 19.4461 10.3313 19.5407 11.8338C19.6644 13.7419 19.6572 15.6576 19.6935 17.5657C19.7008 17.9263 19.497 18.1216 19.1477 18.1291C18.551 18.1366 17.9615 18.1441 17.3647 18.1291C16.9644 18.1141 16.8189 17.9338 16.8189 17.4981C16.8189 16.0933 16.8262 14.696 16.8116 13.2912C16.8116 13.0132 16.7461 12.7202 16.6733 12.4498C16.5351 11.9314 16.1785 11.6234 15.6618 11.5633C15.1305 11.4957 14.6429 11.661 14.3882 12.1568C14.199 12.5324 14.0534 12.9681 14.0389 13.3888C13.9952 14.711 14.0243 16.0407 14.0243 17.3704C14.0243 17.9789 13.8788 18.1291 13.3038 18.1366C12.8162 18.1441 12.3359 18.1441 11.8483 18.1366C11.3607 18.1291 11.2152 17.9714 11.2152 17.4831C11.2152 14.9439 11.2152 12.4047 11.2152 9.86554C11.2152 9.36222 11.3753 9.19694 11.8701 9.18943C12.285 9.18192 12.6925 9.18943 13.1073 9.18943C13.9006 9.18192 13.9879 9.26456 14.0534 10.1435Z" fill="white"/>
<path d="M10.1017 13.6968C10.1017 14.9439 10.1017 16.1984 10.1017 17.4455C10.1017 17.9488 9.94157 18.1216 9.45397 18.1366C8.94454 18.1441 8.43511 18.1516 7.92568 18.1366C7.46719 18.1216 7.29253 17.9413 7.29253 17.4605C7.29253 14.9213 7.29253 12.3821 7.29253 9.84297C7.29253 9.39975 7.48174 9.19691 7.91112 9.1894C8.44238 9.17437 8.97365 9.17437 9.51219 9.1894C9.91973 9.20442 10.1017 9.40726 10.1017 9.83546C10.1017 11.1201 10.1017 12.4047 10.1017 13.6968Z" fill="white"/>
<path d="M10.4728 6.71034C10.4728 7.7245 9.68686 8.54335 8.70439 8.54335C7.71464 8.54335 6.92138 7.71699 6.92138 6.6878C6.92138 5.67363 7.70736 4.8623 8.68984 4.85479C9.68686 4.84728 10.4728 5.66612 10.4728 6.71034Z" fill="white"/>
</g>
</svg>
