<svg width="63" height="23" viewBox="0 0 63 23" fill="none" xmlns="http://www.w3.org/2000/svg">
<mask id="mask0" mask-type="alpha" maskUnits="userSpaceOnUse" x="0" y="0" width="63" height="23">
<path d="M59.1 0H3.80002C1.70002 0 0 1.69999 0 3.79999V19.2C0 21.3 1.70002 23 3.80002 23H59.1C61.2 23 62.9 21.3 62.9 19.2V3.79999C62.8 1.69999 61.1 0 59.1 0Z" fill="#50ABF1"/>
</mask>
<g mask="url(#mask0)">
<rect width="63" height="23" fill="#0274B3"/>
<path d="M31 7.09998H34.3C35 7.09998 35.6 7.19999 36 7.29999C36.5 7.49999 37 7.69998 37.4 8.09998C37.8 8.49998 38.1 8.99998 38.3 9.59998C38.5 10.2 38.6 10.9 38.6 11.7C38.6 12.4 38.5 13.1 38.3 13.6C38.1 14.3 37.8 14.8 37.3 15.2C37 15.5 36.6 15.7 36 15.9C35.6 16 35.1 16.1 34.4 16.1H31V7.09998ZM32.8 8.59998V14.5H34.2C34.7 14.5 35.1 14.5 35.3 14.4C35.6 14.3 35.8 14.2 36 14C36.2 13.8 36.4 13.5 36.5 13.1C36.6 12.7 36.7 12.2 36.7 11.5C36.7 10.8 36.6 10.3 36.5 9.89996C36.4 9.49996 36.2 9.2 36 9C35.8 8.8 35.5 8.69998 35.2 8.59998C34.9 8.49998 34.5 8.5 33.7 8.5H32.8V8.59998Z" fill="white"/>
<path d="M43.8 14L45.5 14.3C45.3 14.9 44.9 15.4 44.5 15.7C44.1 16 43.4 16.2 42.7 16.2C41.6 16.2 40.7 15.8 40.2 15.1C39.8 14.5 39.6 13.8 39.6 12.9C39.6 11.8 39.9 11 40.4 10.4C41 9.79996 41.7 9.5 42.5 9.5C43.5 9.5 44.2 9.8 44.8 10.5C45.4 11.1 45.6 12.1 45.6 13.4H41.3C41.3 13.9 41.5 14.3 41.7 14.6C42 14.9 42.3 15 42.7 15C43 15 43.2 14.9 43.4 14.8C43.6 14.5 43.7 14.3 43.8 14ZM43.9 12.2C43.9 11.7 43.8 11.3 43.5 11.1C43.2 10.9 43 10.7 42.6 10.7C42.2 10.7 41.9 10.8 41.7 11.1C41.5 11.4 41.3 11.7 41.3 12.2H43.9Z" fill="white"/>
<path d="M47 16V7H48.7V16H47Z" fill="white"/>
<path d="M51.8 11.5L50.2 11.2C50.4 10.6 50.7 10.1 51.1 9.79999C51.5 9.49999 52.2 9.29999 53 9.29999C53.8 9.29999 54.3 9.39998 54.7 9.59998C55.1 9.79998 55.3 9.99999 55.5 10.3C55.7 10.6 55.7 11.1 55.7 11.8V13.8C55.7 14.4 55.7 14.8 55.8 15.1C55.9 15.4 56 15.7 56.1 16H54.4C54.4 15.9 54.3 15.7 54.2 15.5C54.2 15.4 54.2 15.3 54.1 15.3C53.8 15.6 53.5 15.8 53.2 15.9C52.9 16 52.5 16.1 52.1 16.1C51.4 16.1 50.9 15.9 50.5 15.6C50.1 15.2 49.9 14.8 49.9 14.2C49.9 13.8 50 13.5 50.2 13.2C50.4 12.9 50.6 12.7 50.9 12.5C51.2 12.3 51.7 12.2 52.3 12.1C53.1 11.9 53.7 11.8 54 11.7V11.6C54 11.3 53.9 11 53.8 10.9C53.6 10.8 53.3 10.7 52.9 10.7C52.6 10.7 52.4 10.8 52.2 10.9C52 11 51.9 11.2 51.8 11.5ZM54.1 12.9C53.9 13 53.5 13.1 53.1 13.2C52.6 13.3 52.3 13.4 52.2 13.5C52 13.7 51.9 13.9 51.9 14.1C51.9 14.3 52 14.5 52.2 14.7C52.4 14.9 52.6 15 52.9 15C53.2 15 53.5 14.9 53.8 14.7C54 14.5 54.1 14.4 54.2 14.1C54.2 14 54.3 13.7 54.3 13.3V12.9H54.1Z" fill="white"/>
<path d="M14.0534 10.1435C14.9049 9.03167 16.0329 9.00162 17.1682 9.11431C18.4564 9.24953 19.4461 10.3313 19.5407 11.8338C19.6644 13.7419 19.6572 15.6576 19.6935 17.5657C19.7008 17.9263 19.497 18.1216 19.1477 18.1291C18.551 18.1366 17.9615 18.1441 17.3647 18.1291C16.9644 18.1141 16.8189 17.9338 16.8189 17.4981C16.8189 16.0933 16.8262 14.696 16.8116 13.2912C16.8116 13.0132 16.7461 12.7202 16.6733 12.4498C16.5351 11.9314 16.1785 11.6234 15.6618 11.5633C15.1305 11.4957 14.6429 11.661 14.3882 12.1568C14.199 12.5324 14.0534 12.9681 14.0389 13.3888C13.9952 14.711 14.0243 16.0407 14.0243 17.3704C14.0243 17.9789 13.8788 18.1291 13.3038 18.1366C12.8162 18.1441 12.3359 18.1441 11.8483 18.1366C11.3607 18.1291 11.2152 17.9714 11.2152 17.4831C11.2152 14.9439 11.2152 12.4047 11.2152 9.86554C11.2152 9.36222 11.3753 9.19694 11.8701 9.18943C12.285 9.18192 12.6925 9.18943 13.1073 9.18943C13.9006 9.18192 13.9879 9.26456 14.0534 10.1435Z" fill="white"/>
<path d="M10.1017 13.6968C10.1017 14.9439 10.1017 16.1984 10.1017 17.4455C10.1017 17.9488 9.94157 18.1216 9.45397 18.1366C8.94454 18.1441 8.43511 18.1516 7.92568 18.1366C7.46719 18.1216 7.29253 17.9413 7.29253 17.4605C7.29253 14.9213 7.29253 12.3821 7.29253 9.84297C7.29253 9.39975 7.48174 9.19691 7.91112 9.1894C8.44238 9.17437 8.97365 9.17437 9.51219 9.1894C9.91973 9.20442 10.1017 9.40726 10.1017 9.83546C10.1017 11.1201 10.1017 12.4047 10.1017 13.6968Z" fill="white"/>
<path d="M10.4728 6.71034C10.4728 7.7245 9.68686 8.54335 8.70439 8.54335C7.71464 8.54335 6.92138 7.71699 6.92138 6.6878C6.92138 5.67363 7.70736 4.8623 8.68984 4.85479C9.68686 4.84728 10.4728 5.66612 10.4728 6.71034Z" fill="white"/>
</g>
</svg>
