<svg width="100" height="23" viewBox="0 0 100 23" fill="none" xmlns="http://www.w3.org/2000/svg">
<mask id="mask0" mask-type="alpha" maskUnits="userSpaceOnUse" x="0" y="0" width="100" height="23">
<path d="M96.1 0H3.80002C1.70002 0 0 1.69999 0 3.79999V19.2C0 21.3 1.70002 23 3.80002 23H96.1C98.2 23 99.9 21.3 99.9 19.2V3.79999C99.8 1.69999 98.1 0 96.1 0Z" fill="#50ABF1"/>
</mask>
<g mask="url(#mask0)">
<rect width="100" height="23" fill="#0274B3"/>
<path d="M31 6H38.1V15H36.3V7.5H32.8V15H31V6Z" fill="white"/>
<path d="M39.6 11.6C39.6 11 39.7 10.5 40 9.90002C40.3 9.40002 40.7 9.00001 41.2 8.70001C41.7 8.40001 42.3 8.29999 42.9 8.29999C43.9 8.29999 44.7 8.59999 45.3 9.29999C45.9 9.89999 46.2 10.7 46.2 11.7C46.2 12.7 45.9 13.5 45.2 14.1C44.6 14.7 43.8 15.1 42.8 15.1C42.2 15.1 41.6 15 41.1 14.7C40.6 14.4 40.1 14 39.9 13.5C39.7 13 39.6 12.3 39.6 11.6ZM41.4 11.7C41.4 12.3 41.6 12.8 41.9 13.2C42.2 13.5 42.6 13.7 43 13.7C43.4 13.7 43.8 13.5 44.1 13.2C44.4 12.9 44.6 12.4 44.6 11.7C44.6 11.1 44.4 10.6 44.1 10.2C43.8 9.90001 43.4 9.70001 43 9.70001C42.6 9.70001 42.2 9.90001 41.9 10.2C41.6 10.5 41.4 11 41.4 11.7Z" fill="white"/>
<path d="M47.6 8.40002H49.2V13.5H51.2V8.40002H52.8V13.5H54.8V8.40002H56.4V14.9H47.7V8.40002H47.6Z" fill="white"/>
<path d="M58 8.40002H59.7V12.5L62.3 8.40002H64V14.9H62.3V10.7L59.6 14.9H57.9V8.40002H58Z" fill="white"/>
<path d="M65.7 8.40002H67.3V9.40002C67.5 9.10002 67.8 8.79998 68.1 8.59998C68.5 8.39998 68.8 8.29999 69.3 8.29999C70.1 8.29999 70.7 8.60001 71.2 9.20001C71.7 9.80001 72 10.6 72 11.7C72 12.8 71.7 13.6 71.2 14.2C70.7 14.8 70 15.1 69.3 15.1C68.9 15.1 68.6 15 68.3 14.9C68 14.8 67.7 14.5 67.4 14.2V17.5H65.7V8.40002ZM67.4 11.6C67.4 12.3 67.5 12.9 67.8 13.2C68.1 13.5 68.4 13.7 68.9 13.7C69.3 13.7 69.6 13.5 69.9 13.2C70.2 12.9 70.3 12.4 70.3 11.6C70.3 10.9 70.2 10.4 69.9 10.1C69.6 9.79998 69.3 9.59998 68.9 9.59998C68.5 9.59998 68.1 9.79998 67.9 10.1C67.7 10.4 67.4 10.9 67.4 11.6Z" fill="white"/>
<path d="M73.4 8.40002H75.1V12.5L77.7 8.40002H79.4V14.9H77.7V10.7L75 14.9H73.3V8.40002H73.4Z" fill="white"/>
<path d="M80.3 8.40002H86.2V9.79999H84.1V14.9H82.4V9.79999H80.3V8.40002Z" fill="white"/>
<path d="M87.2 8.40002H88.9V12.5L91.5 8.40002H93.2V14.9H91.5V10.7L88.8 14.9H87.1V8.40002H87.2Z" fill="white"/>
<path d="M14.0534 10.1435C14.9049 9.03167 16.0329 9.00162 17.1682 9.11431C18.4564 9.24953 19.4461 10.3313 19.5407 11.8338C19.6644 13.7419 19.6572 15.6576 19.6935 17.5657C19.7008 17.9263 19.497 18.1216 19.1477 18.1291C18.551 18.1366 17.9615 18.1441 17.3647 18.1291C16.9644 18.1141 16.8189 17.9338 16.8189 17.4981C16.8189 16.0933 16.8262 14.696 16.8116 13.2912C16.8116 13.0132 16.7461 12.7202 16.6733 12.4498C16.5351 11.9314 16.1785 11.6234 15.6618 11.5633C15.1305 11.4957 14.6429 11.661 14.3882 12.1568C14.199 12.5324 14.0534 12.9681 14.0389 13.3888C13.9952 14.711 14.0243 16.0407 14.0243 17.3704C14.0243 17.9789 13.8788 18.1291 13.3038 18.1366C12.8162 18.1441 12.3359 18.1441 11.8483 18.1366C11.3607 18.1291 11.2152 17.9714 11.2152 17.4831C11.2152 14.9439 11.2152 12.4047 11.2152 9.86554C11.2152 9.36222 11.3753 9.19694 11.8701 9.18943C12.285 9.18192 12.6925 9.18943 13.1073 9.18943C13.9006 9.18192 13.9879 9.26456 14.0534 10.1435Z" fill="white"/>
<path d="M10.1017 13.6968C10.1017 14.9439 10.1017 16.1984 10.1017 17.4455C10.1017 17.9488 9.94157 18.1216 9.45397 18.1366C8.94454 18.1441 8.43511 18.1516 7.92568 18.1366C7.46719 18.1216 7.29253 17.9413 7.29253 17.4605C7.29253 14.9213 7.29253 12.3821 7.29253 9.84297C7.29253 9.39975 7.48174 9.19691 7.91112 9.1894C8.44238 9.17437 8.97365 9.17437 9.51219 9.1894C9.91973 9.20442 10.1017 9.40726 10.1017 9.83546C10.1017 11.1201 10.1017 12.4047 10.1017 13.6968Z" fill="white"/>
<path d="M10.4728 6.71034C10.4728 7.7245 9.68686 8.54335 8.70439 8.54335C7.71464 8.54335 6.92138 7.71699 6.92138 6.6878C6.92138 5.67363 7.70736 4.8623 8.68984 4.85479C9.68686 4.84728 10.4728 5.66612 10.4728 6.71034Z" fill="white"/>
</g>
</svg>
