<svg width="81" height="23" viewBox="0 0 81 23" fill="none" xmlns="http://www.w3.org/2000/svg">
<mask id="mask0" mask-type="alpha" maskUnits="userSpaceOnUse" x="0" y="0" width="81" height="23">
<path d="M77.1 0H3.80002C1.70002 0 0 1.69999 0 3.79999V19.2C0 21.3 1.70002 23 3.80002 23H77.1C79.2 23 80.9 21.3 80.9 19.2V3.79999C80.8 1.69999 79.1 0 77.1 0Z" fill="#50ABF1"/>
</mask>
<g mask="url(#mask0)">
<rect width="81" height="23" fill="#0274B3"/>
<path d="M36.7 12.9L38.5 13.5C38.2 14.5 37.8 15.2 37.2 15.7C36.6 16.2 35.8 16.4 34.8 16.4C33.6 16.4 32.6 16 31.9 15.2C31.1 14.4 30.8 13.3 30.8 11.9C30.8 10.4 31.2 9.19996 32 8.39996C32.8 7.59996 33.8 7.20001 35 7.20001C36.1 7.20001 37 7.50001 37.7 8.20001C38.1 8.60001 38.4 9.09996 38.6 9.89996L36.8 10.3C36.7 9.79999 36.5 9.50001 36.1 9.20001C35.8 8.90001 35.4 8.79999 34.9 8.79999C34.2 8.79999 33.7 9 33.3 9.5C32.9 10 32.7 10.7 32.7 11.8C32.7 12.9 32.9 13.7 33.3 14.2C33.7 14.7 34.2 14.9 34.9 14.9C35.4 14.9 35.8 14.7 36.1 14.4C36.3 14.1 36.6 13.6 36.7 12.9Z" fill="white"/>
<path d="M41.7 7.29999V10.6C42.3 9.99998 42.9 9.59998 43.7 9.59998C44.1 9.59998 44.5 9.69999 44.8 9.79999C45.1 9.89999 45.4 10.1 45.5 10.4C45.6 10.7 45.8 10.9 45.8 11.2C45.8 11.5 45.9 11.9 45.9 12.5V16.3H44.2V12.9C44.2 12.2 44.2 11.8 44.1 11.6C44 11.4 43.9 11.3 43.8 11.2C43.6 11.1 43.4 11 43.2 11C42.9 11 42.7 11.1 42.4 11.2C42.2 11.3 42 11.5 41.9 11.8C41.8 12.1 41.7 12.5 41.7 13V16.3H40V7.29999H41.7Z" fill="white"/>
<path d="M47.7 8.89996V7.29999H49.4V8.89996H47.7ZM47.7 16.2V9.70001H49.4V16.2H47.7Z" fill="white"/>
<path d="M52.4 11.7L50.8 11.4C51 10.8 51.3 10.3 51.7 10C52.1 9.7 52.8 9.5 53.6 9.5C54.4 9.5 54.9 9.59999 55.3 9.79999C55.7 9.99999 55.9 10.2 56.1 10.5C56.3 10.8 56.3 11.3 56.3 12V14C56.3 14.6 56.3 15 56.4 15.3C56.5 15.6 56.6 15.9 56.7 16.2H55C55 16.1 54.9 15.9 54.8 15.7C54.8 15.6 54.8 15.5 54.7 15.5C54.4 15.8 54.1 16 53.8 16.1C53.5 16.2 53.1 16.3 52.7 16.3C52 16.3 51.5 16.1 51.1 15.8C50.7 15.4 50.5 15 50.5 14.4C50.5 14 50.6 13.7 50.8 13.4C51 13.1 51.2 12.9 51.5 12.7C51.8 12.5 52.3 12.4 52.9 12.3C53.7 12.1 54.3 12 54.6 11.9V11.7C54.6 11.4 54.5 11.1 54.4 11C54.2 10.9 53.9 10.8 53.5 10.8C53.2 10.8 53 10.9 52.8 11C52.6 11.1 52.5 11.4 52.4 11.7ZM54.7 13.1C54.5 13.2 54.1 13.3 53.7 13.4C53.2 13.5 52.9 13.6 52.8 13.7C52.6 13.9 52.5 14.1 52.5 14.3C52.5 14.5 52.6 14.7 52.8 14.9C53 15.1 53.2 15.2 53.5 15.2C53.8 15.2 54.1 15.1 54.4 14.9C54.6 14.7 54.7 14.6 54.8 14.3C54.8 14.2 54.9 13.9 54.9 13.5V13.1H54.7Z" fill="white"/>
<path d="M61 14.4L62.7 14.1C62.8 14.4 62.9 14.7 63.1 14.9C63.3 15.1 63.6 15.2 64 15.2C64.4 15.2 64.8 15.1 65 15C65.2 14.9 65.2 14.7 65.2 14.5C65.2 14.4 65.2 14.3 65.1 14.2C65 14.1 64.8 14 64.5 14C63.1 13.7 62.2 13.4 61.9 13.2C61.4 12.8 61.1 12.4 61.1 11.7C61.1 11.1 61.3 10.7 61.8 10.3C62.3 9.89999 62.9 9.70001 63.9 9.70001C64.8 9.70001 65.4 9.79998 65.9 10.1C66.4 10.4 66.6 10.8 66.8 11.4L65.2 11.7C65.1 11.4 65 11.3 64.8 11.1C64.6 11 64.3 10.9 64 10.9C63.5 10.9 63.2 11 63 11.1C62.9 11.2 62.8 11.3 62.8 11.4C62.8 11.5 62.9 11.6 63 11.7C63.2 11.8 63.7 12 64.6 12.2C65.5 12.4 66.2 12.7 66.5 13C66.9 13.3 67 13.7 67 14.3C67 14.9 66.8 15.4 66.3 15.8C65.8 16.2 65.1 16.4 64.1 16.4C63.2 16.4 62.5 16.2 62 15.9C61.5 15.5 61.2 15 61 14.4Z" fill="white"/>
<path d="M72.3 14.2L74 14.5C73.8 15.1 73.4 15.6 73 15.9C72.6 16.2 71.9 16.4 71.2 16.4C70.1 16.4 69.2 16 68.7 15.3C68.3 14.7 68.1 14 68.1 13.1C68.1 12 68.4 11.2 68.9 10.6C69.5 9.99998 70.2 9.70001 71 9.70001C72 9.70001 72.7 10 73.3 10.7C73.9 11.3 74.1 12.3 74.1 13.6H69.8C69.8 14.1 70 14.5 70.2 14.8C70.5 15.1 70.8 15.2 71.2 15.2C71.5 15.2 71.7 15.1 71.9 15C72.1 14.7 72.2 14.5 72.3 14.2ZM71.1 8.20001C71.3 8.10001 71.4 8.09996 71.4 7.89996C71.4 7.79996 71.3 7.70001 71.2 7.70001C71 7.60001 70.8 7.59998 70.4 7.59998C70.3 7.59998 70.1 7.59998 69.8 7.59998L69.7 7C69.9 7 70.2 7 70.6 7C71.1 7 71.5 7.10001 71.8 7.20001C72.2 7.40001 72.3 7.59996 72.3 7.89996C72.3 8.29996 71.9 8.60001 71.2 8.70001V9H70.7V8.29999C70.9 8.19999 71.1 8.20001 71.1 8.20001ZM72.4 12.4C72.4 11.9 72.3 11.5 72 11.3C71.7 11.1 71.5 10.9 71.1 10.9C70.7 10.9 70.4 11 70.2 11.3C70 11.6 69.8 11.9 69.8 12.4H72.4Z" fill="white"/>
<path d="M14.0534 10.1435C14.9049 9.03167 16.0329 9.00162 17.1682 9.11431C18.4564 9.24953 19.4461 10.3313 19.5407 11.8338C19.6644 13.7419 19.6572 15.6576 19.6935 17.5657C19.7008 17.9263 19.497 18.1216 19.1477 18.1291C18.551 18.1366 17.9615 18.1441 17.3647 18.1291C16.9644 18.1141 16.8189 17.9338 16.8189 17.4981C16.8189 16.0933 16.8262 14.696 16.8116 13.2912C16.8116 13.0132 16.7461 12.7202 16.6733 12.4498C16.5351 11.9314 16.1785 11.6234 15.6618 11.5633C15.1305 11.4957 14.6429 11.661 14.3882 12.1568C14.199 12.5324 14.0534 12.9681 14.0389 13.3888C13.9952 14.711 14.0243 16.0407 14.0243 17.3704C14.0243 17.9789 13.8788 18.1291 13.3038 18.1366C12.8162 18.1441 12.3359 18.1441 11.8483 18.1366C11.3607 18.1291 11.2152 17.9714 11.2152 17.4831C11.2152 14.9439 11.2152 12.4047 11.2152 9.86554C11.2152 9.36222 11.3753 9.19694 11.8701 9.18943C12.285 9.18192 12.6925 9.18943 13.1073 9.18943C13.9006 9.18192 13.9879 9.26456 14.0534 10.1435Z" fill="white"/>
<path d="M10.1017 13.6968C10.1017 14.9439 10.1017 16.1984 10.1017 17.4455C10.1017 17.9488 9.94157 18.1216 9.45397 18.1366C8.94454 18.1441 8.43511 18.1516 7.92568 18.1366C7.46719 18.1216 7.29253 17.9413 7.29253 17.4605C7.29253 14.9213 7.29253 12.3821 7.29253 9.84297C7.29253 9.39975 7.48174 9.19691 7.91112 9.1894C8.44238 9.17437 8.97365 9.17437 9.51219 9.1894C9.91973 9.20442 10.1017 9.40726 10.1017 9.83546C10.1017 11.1201 10.1017 12.4047 10.1017 13.6968Z" fill="white"/>
<path d="M10.4728 6.71034C10.4728 7.7245 9.68686 8.54335 8.70439 8.54335C7.71464 8.54335 6.92138 7.71699 6.92138 6.6878C6.92138 5.67363 7.70736 4.8623 8.68984 4.85479C9.68686 4.84728 10.4728 5.66612 10.4728 6.71034Z" fill="white"/>
</g>
</svg>
