<svg width="88" height="23" viewBox="0 0 88 23" fill="none" xmlns="http://www.w3.org/2000/svg">
<mask id="mask0" mask-type="alpha" maskUnits="userSpaceOnUse" x="0" y="0" width="88" height="23">
<path d="M83.3 0H3.8C1.7 0 0 1.70002 0 3.80002V19.2C0 21.3 1.7 23 3.8 23H83.3C85.4 23 87.1 21.3 87.1 19.2V3.70001C87.1 1.70001 85.4 0 83.3 0Z" fill="#4367AF"/>
</mask>
<g mask="url(#mask0)">
<rect x="-1" width="88" height="23" fill="#0274B3"/>
<path d="M29.1 15L25.9 6H27.9L30.2 12.6L32.4 6H34.3L31.1 15H29.1Z" fill="white"/>
<path d="M34.9 7.59998V6H36.6V7.59998H34.9ZM34.9 15V8.5H36.6V15H34.9Z" fill="white"/>
<path d="M37.8 13.1L39.5 12.8C39.6 13.1 39.7 13.4 39.9 13.6C40.1 13.8 40.4 13.9 40.8 13.9C41.2 13.9 41.6 13.8 41.8 13.7C42 13.6 42 13.4 42 13.2C42 13.1 42 13 41.9 12.9C41.8 12.8 41.6 12.7 41.3 12.7C39.9 12.4 39 12.1 38.7 11.9C38.2 11.5 37.9 11.1 37.9 10.4C37.9 9.79999 38.1 9.4 38.6 9C39 8.6 39.7 8.39999 40.7 8.39999C41.6 8.39999 42.2 8.49999 42.7 8.79999C43.1 9.09999 43.4 9.49998 43.6 10.1L42 10.4C41.9 10.1 41.8 9.99999 41.6 9.79999C41.4 9.69999 41.1 9.59998 40.8 9.59998C40.3 9.59998 40 9.69999 39.8 9.79999C39.7 9.89999 39.6 9.99998 39.6 10.1C39.6 10.2 39.7 10.3 39.8 10.4C40 10.5 40.5 10.7 41.4 10.9C42.3 11.1 43 11.4 43.3 11.7C43.7 12 43.8 12.4 43.8 13C43.8 13.6 43.6 14.1 43.1 14.5C42.6 14.9 41.9 15.1 40.9 15.1C40 15.1 39.3 14.9 38.8 14.6C38.3 14.3 38 13.7 37.8 13.1Z" fill="white"/>
<path d="M45.4 7.59998V6H47.1V7.59998H45.4ZM45.4 15V8.5H47.1V15H45.4Z" fill="white"/>
<path d="M51.8 8.5V9.89999H50.6V12.5C50.6 13 50.6 13.3 50.6 13.4C50.6 13.5 50.7 13.6 50.8 13.6C50.9 13.7 51 13.7 51.1 13.7C51.3 13.7 51.5 13.6 51.8 13.5L51.9 14.8C51.5 15 51 15.1 50.5 15.1C50.2 15.1 49.9 15 49.7 14.9C49.5 14.8 49.3 14.7 49.2 14.5C49.1 14.3 49 14.1 49 13.8C49 13.6 48.9 13.2 48.9 12.6V9.79999H48.1V8.39999H48.9V7.09998L50.6 6.09998V8.39999H51.8V8.5Z" fill="white"/>
<path d="M56.8 12.9L58.5 13.2C58.3 13.8 57.9 14.3 57.5 14.6C57.1 14.9 56.4 15.1 55.7 15.1C54.6 15.1 53.7 14.7 53.2 14C52.8 13.4 52.6 12.7 52.6 11.8C52.6 10.7 52.9 9.89999 53.4 9.29999C54 8.69999 54.7 8.39999 55.5 8.39999C56.5 8.39999 57.2 8.69999 57.8 9.39999C58.4 9.99999 58.6 11 58.6 12.3H54.3C54.3 12.8 54.5 13.2 54.7 13.5C55 13.8 55.3 13.9 55.7 13.9C56 13.9 56.2 13.8 56.4 13.7C56.6 13.5 56.7 13.2 56.8 12.9ZM56.9 11.2C56.9 10.7 56.8 10.3 56.5 10.1C56.3 9.79998 56 9.69998 55.6 9.69998C55.2 9.69998 54.9 9.79998 54.7 10.1C54.5 10.4 54.3 10.7 54.3 11.2H56.9Z" fill="white"/>
<path d="M59.8 12.6V10.9H63.2V12.6H59.8Z" fill="white"/>
<path d="M64 8.5H65.6V9.39999C66.2 8.69999 66.8 8.39999 67.6 8.39999C68 8.39999 68.4 8.49998 68.7 8.69998C69 8.89998 69.3 9.1 69.5 9.5C69.8 9.2 70.1 8.89998 70.4 8.69998C70.7 8.49998 71.1 8.39999 71.5 8.39999C72 8.39999 72.4 8.49998 72.7 8.69998C73 8.89998 73.3 9.19998 73.4 9.59998C73.5 9.89998 73.6 10.3 73.6 10.9V15.1H71.9V11.4C71.9 10.8 71.8 10.3 71.7 10.2C71.5 9.99998 71.3 9.79999 71 9.79999C70.8 9.79999 70.5 9.9 70.3 10C70.1 10.1 69.9 10.4 69.8 10.6C69.7 10.9 69.7 11.3 69.7 11.9V15H68V11.4C68 10.8 68 10.4 67.9 10.2C67.8 9.99998 67.7 9.89999 67.6 9.79999C67.5 9.69999 67.3 9.69998 67.1 9.69998C66.8 9.69998 66.6 9.79999 66.4 9.89999C66.2 9.99999 66 10.2 65.9 10.5C65.8 10.8 65.8 11.2 65.8 11.8V15H64.1V8.5H64Z" fill="white"/>
<path d="M79.1 12.9L80.8 13.2C80.6 13.8 80.2 14.3 79.8 14.6C79.4 14.9 78.7 15.1 78 15.1C76.9 15.1 76 14.7 75.5 14C75.1 13.4 74.9 12.7 74.9 11.8C74.9 10.7 75.2 9.89999 75.7 9.29999C76.3 8.69999 77 8.39999 77.8 8.39999C78.8 8.39999 79.5 8.69999 80.1 9.39999C80.7 9.99999 80.9 11 80.9 12.3H76.6C76.6 12.8 76.8 13.2 77 13.5C77.3 13.8 77.6 13.9 78 13.9C78.3 13.9 78.5 13.8 78.7 13.7C78.9 13.5 79 13.2 79.1 12.9ZM79.2 11.2C79.2 10.7 79.1 10.3 78.8 10.1C78.6 9.79998 78.3 9.69998 77.9 9.69998C77.5 9.69998 77.2 9.79998 77 10.1C76.8 10.4 76.6 10.7 76.6 11.2H79.2Z" fill="white"/>
<path d="M14.4586 17.3519C14.4167 17.3519 14.3916 17.3605 14.3665 17.3605C13.6303 17.3605 12.8941 17.3605 12.158 17.3605C12.0827 17.3605 12.0576 17.3346 12.0576 17.2569C12.0576 14.6748 12.0576 12.1014 12.0576 9.51933C12.0576 9.39843 12.0576 9.39843 12.1747 9.39843C12.8691 9.39843 13.555 9.39843 14.2494 9.39843C14.3665 9.39843 14.3665 9.39843 14.3665 9.51933C14.3665 9.81294 14.3665 10.1066 14.3665 10.4002C14.3665 10.4261 14.3665 10.4606 14.3833 10.4952C14.3916 10.4779 14.4084 10.4693 14.4167 10.452C14.6259 10.0634 14.9354 9.7784 15.3035 9.56251C15.6967 9.33798 16.115 9.22572 16.5667 9.21708C17.052 9.19981 17.5204 9.26026 17.9722 9.43297C18.2232 9.52797 18.4407 9.67477 18.6415 9.85612C19.0681 10.2534 19.2689 10.7629 19.3944 11.3156C19.4697 11.6696 19.5115 12.0323 19.5199 12.395C19.5282 12.6195 19.5366 12.8441 19.5366 13.06C19.5366 14.4589 19.5366 15.8493 19.5366 17.2483C19.5366 17.2828 19.5366 17.3087 19.5366 17.3519C19.5031 17.3519 19.4697 17.3605 19.4446 17.3605C18.7 17.3605 17.9638 17.3605 17.2193 17.3605C17.1356 17.3605 17.1189 17.3346 17.1189 17.2569C17.1189 15.832 17.1189 14.4071 17.1189 12.9909C17.1189 12.6714 17.0771 12.3518 16.9516 12.0582C16.7843 11.6696 16.4914 11.4537 16.0815 11.4105C15.8389 11.3846 15.613 11.4019 15.3788 11.471C14.9856 11.5919 14.743 11.8682 14.6091 12.2568C14.5171 12.5159 14.4669 12.7836 14.4669 13.06C14.4586 14.4417 14.4586 15.8234 14.4502 17.2051C14.4502 17.2483 14.4586 17.2914 14.4586 17.3519Z" fill="white"/>
<path d="M8.16746 17.3519C8.16746 17.3174 8.1591 17.2915 8.1591 17.2655C8.1591 14.6835 8.1591 12.0928 8.1591 9.5107C8.1591 9.39844 8.15909 9.3898 8.26785 9.3898C8.99568 9.3898 9.7235 9.3898 10.4513 9.3898C10.5517 9.3898 10.5601 9.3898 10.5601 9.50207C10.5601 12.0841 10.5601 14.6748 10.5601 17.2569C10.5601 17.3087 10.5601 17.3519 10.4848 17.3519C9.73187 17.3519 8.97894 17.3519 8.22602 17.3519C8.21766 17.3605 8.20092 17.3605 8.16746 17.3519Z" fill="white"/>
<path d="M7.97505 6.89408C7.96668 6.11687 8.61085 5.43465 9.38887 5.45192C10.1418 5.4692 10.7609 6.09096 10.7692 6.88545C10.7692 7.68856 10.1753 8.32761 9.37214 8.33624C8.58575 8.34488 7.97505 7.6972 7.97505 6.89408Z" fill="white"/>
</g>
</svg>
