<svg width="62" height="23" viewBox="0 0 62 23" fill="none" xmlns="http://www.w3.org/2000/svg">
<mask id="mask0" mask-type="alpha" maskUnits="userSpaceOnUse" x="0" y="0" width="62" height="23">
<path d="M57.3 0H3.79999C1.69999 0 0 1.69999 0 3.79999V19.2C0 21.3 1.69999 23 3.79999 23H57.3C59.4 23 61.1 21.3 61.1 19.2V3.79999C61.1 1.69999 59.4 0 57.3 0Z" fill="#4367AF"/>
</mask>
<g mask="url(#mask0)">
<rect width="61" height="23" fill="#0274B3"/>
<path d="M25.1 9L30.5 8.89999L30.8 9.5V9.60001H29.7V11.1L29.6 11.2C29.3 11.2 28.9 11.2 28.5 11.2C27.7 11.2 27.1 11.3 26.9 11.5C26.7 11.7 26.6 11.9 26.6 12.1C26.6 12.4 26.7 12.6 26.9 12.8C27.4 12.4 28 12.1 28.7 12.1C29.2 12.1 29.6 12.3 29.8 12.6C30.1 12.9 30.3 13.3 30.3 13.7C30.3 14.3 29.8 14.7 29.1 15C28.9 14.8 28.7 14.6 28.5 14.4C29.2 14.1 29.7 13.8 29.7 13.4C29.7 13.2 29.5 13 29 13C28.4 13 27.1 13.5 27.1 14.5C27.1 15.6 28.5 16.1 30.4 16.3L30 17C27.8 16.4 26.4 15.6 26.4 14.1C26.4 13.8 26.5 13.5 26.7 13.2C26.2 12.8 25.9 12.3 25.9 11.8C25.9 11.4 26.1 11.1 26.4 10.8C26.7 10.6 27.3 10.5 28.1 10.5H28.8C28.9 10.5 29 10.4 29 10.3V9.5H25.4L25.1 9Z" fill="white"/>
<path d="M30.2 9L36.4 8.89999L36.7 9.5V9.60001H35.6V15.1L35.5 15.2L34.8 15V12.6H32.5V12.9C32.5 13.2 32.5 13.4 32.4 13.5C32.3 13.6 32.2 13.7 32 13.7C31.7 13.7 30.9 13 30.9 12.5C30.9 12.4 31 12.2 31.1 12.1C31.2 12 31.4 11.9 31.8 11.9V9.60001H30.4L30.2 9ZM34.9 9.60001H32.6V11.9H34.9V9.60001Z" fill="white"/>
<path d="M35 9C34.8 8.6 34.6 8.19999 34.4 7.79999C34.1 7.09999 33.8 6.79999 33.1 6.79999C32.7 6.79999 32.4 6.9 32 7L31.7 6.19998C32 6.09998 32.4 6 32.9 6C34 6 34.3 6.7 35.5 9V9.10001H35V9ZM35.9 6.60001L36.5 7.19998L35.9 7.79999L35.3 7.19998L35.9 6.60001Z" fill="white"/>
<path d="M39.6 9L40.9 8.89999C40.7 8.59999 40.5 8.19999 40.5 7.79999C40.5 6.89999 41.3 6.10001 42.7 6.10001C44.3 6.10001 45.7 6.89999 47.1 8.39999L46.9 8.69998C45.8 7.59998 44.6 6.79999 43.2 6.79999C42.1 6.79999 41.2 7.29998 41.2 8.19998C41.2 8.49998 41.3 8.69999 41.4 8.89999H42.4L42.7 9.5V9.60001H41.6V15.1L41.5 15.2L40.8 15C40.8 13.2 40.8 11.4 40.8 9.60001H39.9L39.6 9Z" fill="white"/>
<path d="M42 9L48.2 8.89999L48.5 9.5V9.60001H47.4V15.1L47.3 15.2L46.6 15V12.6H44.3V12.9C44.3 13.2 44.3 13.4 44.2 13.5C44.1 13.6 44 13.7 43.8 13.7C43.5 13.7 42.7 13 42.7 12.5C42.7 12.4 42.8 12.2 42.9 12.1C43 12 43.2 11.9 43.6 11.9V9.60001H42.2L42 9ZM46.6 9.60001H44.3V11.9H46.6V9.60001Z" fill="white"/>
<path d="M47.9 9L54.8 8.89999L55.1 9.5V9.60001H54V15.1L53.9 15.2L53.2 15V11.3C52.1 11.5 51.8 11.8 51.4 12.9L50.8 12.5C50.9 12.1 51.1 11.7 51.3 11.4C51.1 11.3 50.9 11.2 50.6 11.2C49.9 11.2 49.5 11.8 49.5 12.3C49.5 13.3 50.2 13.8 51.4 14.3L50.9 15C49.6 14.1 48.8 13.1 48.8 11.9C48.8 11 49.4 10.4 50.3 10.4C50.9 10.4 51.3 10.6 51.7 11C52.1 10.7 52.6 10.5 53.3 10.4V9.39999H48.3L47.9 9Z" fill="white"/>
<path d="M53.3 9C53.1 8.6 52.9 8.19999 52.7 7.79999C52.4 7.09999 52.1 6.79999 51.4 6.79999C51 6.79999 50.7 6.9 50.3 7L50 6.19998C50.3 6.09998 50.7 6 51.2 6C52.3 6 52.6 6.7 53.8 9V9.10001H53.3V9Z" fill="white"/>
<path d="M14.4586 17.3519C14.4167 17.3519 14.3916 17.3605 14.3665 17.3605C13.6303 17.3605 12.8942 17.3605 12.158 17.3605C12.0827 17.3605 12.0576 17.3346 12.0576 17.2569C12.0576 14.6748 12.0576 12.1014 12.0576 9.51934C12.0576 9.39844 12.0576 9.39844 12.1747 9.39844C12.8691 9.39844 13.5551 9.39844 14.2494 9.39844C14.3665 9.39844 14.3665 9.39844 14.3665 9.51934C14.3665 9.81295 14.3665 10.1066 14.3665 10.4002C14.3665 10.4261 14.3665 10.4606 14.3833 10.4952C14.3916 10.4779 14.4084 10.4693 14.4167 10.452C14.6259 10.0634 14.9354 9.77841 15.3035 9.56252C15.6967 9.33799 16.115 9.22572 16.5667 9.21709C17.052 9.19982 17.5205 9.26027 17.9722 9.43298C18.2232 9.52797 18.4407 9.67478 18.6415 9.85613C19.0681 10.2534 19.2689 10.7629 19.3944 11.3156C19.4697 11.6696 19.5115 12.0323 19.5199 12.395C19.5282 12.6195 19.5366 12.8441 19.5366 13.06C19.5366 14.4589 19.5366 15.8493 19.5366 17.2483C19.5366 17.2828 19.5366 17.3087 19.5366 17.3519C19.5032 17.3519 19.4697 17.3605 19.4446 17.3605C18.7 17.3605 17.9638 17.3605 17.2193 17.3605C17.1356 17.3605 17.1189 17.3346 17.1189 17.2569C17.1189 15.832 17.1189 14.4071 17.1189 12.9909C17.1189 12.6714 17.0771 12.3518 16.9516 12.0582C16.7843 11.6696 16.4915 11.4537 16.0815 11.4106C15.8389 11.3846 15.613 11.4019 15.3788 11.471C14.9856 11.5919 14.743 11.8682 14.6091 12.2568C14.5171 12.5159 14.4669 12.7836 14.4669 13.06C14.4586 14.4417 14.4586 15.8234 14.4502 17.2051C14.4502 17.2483 14.4586 17.2915 14.4586 17.3519Z" fill="white"/>
<path d="M8.16747 17.3519C8.16747 17.3174 8.1591 17.2915 8.1591 17.2656C8.1591 14.6835 8.1591 12.0928 8.1591 9.51071C8.1591 9.39845 8.1591 9.38981 8.26786 9.38981C8.99568 9.38981 9.72351 9.38981 10.4513 9.38981C10.5517 9.38981 10.5601 9.38981 10.5601 9.50208C10.5601 12.0841 10.5601 14.6748 10.5601 17.2569C10.5601 17.3087 10.5601 17.3519 10.4848 17.3519C9.73188 17.3519 8.97895 17.3519 8.22603 17.3519C8.21766 17.3605 8.20093 17.3605 8.16747 17.3519Z" fill="white"/>
<path d="M7.97506 6.89409C7.96669 6.11688 8.61086 5.43466 9.38888 5.45193C10.1418 5.4692 10.7609 6.09097 10.7692 6.88545C10.7692 7.68857 10.1753 8.32761 9.37215 8.33625C8.58576 8.34489 7.97506 7.69721 7.97506 6.89409Z" fill="white"/>
</g>
</svg>
