<svg width="131" height="23" viewBox="0 0 131 23" fill="none" xmlns="http://www.w3.org/2000/svg">
<mask id="mask0" mask-type="alpha" maskUnits="userSpaceOnUse" x="0" y="0" width="131" height="23">
<path d="M126.3 0H3.8C1.7 0 0 1.69999 0 3.79999V19.2C0 21.3 1.7 23 3.8 23H126.3C128.4 23 130.1 21.3 130.1 19.2V3.79999C130.1 1.69999 128.4 0 126.3 0Z" fill="#4367AF"/>
</mask>
<g mask="url(#mask0)">
<rect x="-1" width="131" height="23" fill="#0274B3"/>
<path d="M25.9 6.10001H29.5C30.2 6.10001 30.7 6.09998 31.1 6.19998C31.4 6.29998 31.8 6.40001 32 6.60001C32.2 6.80001 32.5 6.99999 32.7 7.39999C32.9 7.79999 33 8.09999 33 8.39999C33 8.79999 32.9 9.20001 32.7 9.60001C32.5 10 32.2 10.2 31.8 10.4C32.3 10.6 32.8 10.8 33.1 11.2C33.4 11.6 33.5 12 33.5 12.6C33.5 13 33.4 13.4 33.2 13.8C33 14.2 32.8 14.5 32.4 14.7C32.1 14.9 31.7 15.1 31.2 15.1C30.9 15.1 30.2 15.2 29 15.2H25.9V6.10001ZM27.7 7.60001V9.69998H28.9C29.6 9.69998 30 9.69998 30.2 9.69998C30.5 9.69998 30.8 9.59999 30.9 9.39999C31.1 9.19999 31.2 8.99998 31.2 8.69998C31.2 8.39998 31.1 8.2 31 8C30.8 7.8 30.6 7.69998 30.3 7.69998C30.1 7.69998 29.6 7.69998 28.8 7.69998H27.7V7.60001ZM27.7 11.1V13.5H29.4C30.1 13.5 30.5 13.5 30.6 13.4C30.9 13.4 31.1 13.2 31.3 13C31.5 12.8 31.6 12.6 31.6 12.2C31.6 11.9 31.5 11.7 31.4 11.5C31.3 11.3 31.1 11.2 30.8 11.1C30.5 11 30 11 29.2 11H27.7V11.1Z" fill="white"/>
<path d="M38.7 13L40.4 13.3C40.2 13.9 39.8 14.4 39.4 14.7C39 15 38.3 15.2 37.6 15.2C36.5 15.2 35.6 14.8 35.1 14.1C34.7 13.5 34.5 12.8 34.5 11.9C34.5 10.8 34.8 9.99999 35.3 9.39999C35.9 8.79999 36.6 8.5 37.4 8.5C38.4 8.5 39.1 8.8 39.7 9.5C40.3 10.1 40.5 11.1 40.5 12.4H36.2C36.2 12.9 36.4 13.3 36.6 13.6C36.9 13.9 37.2 14 37.6 14C37.9 14 38.1 13.9 38.3 13.8C38.4 13.5 38.6 13.3 38.7 13ZM38.8 11.2C38.8 10.7 38.7 10.3 38.4 10.1C38.2 9.80001 37.9 9.69998 37.5 9.69998C37.1 9.69998 36.8 9.80001 36.6 10.1C36.4 10.4 36.2 10.7 36.2 11.2H38.8Z" fill="white"/>
<path d="M47.8 15H46.1V11.7C46.1 11 46.1 10.5 46 10.3C45.9 10.1 45.8 9.89999 45.6 9.79999C45.4 9.69999 45.2 9.60001 45 9.60001C44.7 9.60001 44.4 9.69999 44.2 9.79999C44 9.99999 43.8 10.2 43.7 10.4C43.6 10.7 43.6 11.2 43.6 11.9V14.8H41.9V8.29999H43.5V9.29999C44.1 8.59999 44.8 8.19998 45.6 8.19998C46 8.19998 46.3 8.29999 46.6 8.39999C46.9 8.49999 47.2 8.69999 47.3 8.89999C47.5 9.09999 47.6 9.40001 47.6 9.60001C47.6 9.80001 47.7 10.3 47.7 10.8V15H47.8Z" fill="white"/>
<path d="M49.5 7.69998V6.10001H51.2V7.69998H49.5ZM49.5 15V8.5H51.2V15H49.5Z" fill="white"/>
<path d="M55.8 15V13.7L58.2 10.9C58.6 10.4 58.9 10.1 59.1 9.89999C58.9 9.89999 58.6 9.89999 58.3 9.89999H56V8.5H61.4V9.69998L58.9 12.6L58 13.5C58.5 13.5 58.8 13.5 58.9 13.5H61.6V15H55.8Z" fill="white"/>
<path d="M62.8 7.69998V6.10001H64.5V7.69998H62.8ZM62.8 15V8.5H64.5V15H62.8Z" fill="white"/>
<path d="M65.4 8.5H67.2L68.8 13.1L70.3 8.5H72.1L69.8 14.8L69.4 15.9C69.2 16.3 69.1 16.6 69 16.8C68.9 17 68.7 17.2 68.5 17.3C68.3 17.4 68.1 17.5 67.8 17.6C67.5 17.7 67.2 17.7 66.9 17.7C66.6 17.7 66.2 17.7 65.9 17.6L65.7 16.3C66 16.4 66.2 16.4 66.4 16.4C66.8 16.4 67.1 16.3 67.3 16C67.5 15.8 67.6 15.5 67.7 15.1L65.4 8.5Z" fill="white"/>
<path d="M74.5 10.5L72.9 10.2C73.1 9.59998 73.4 9.09999 73.8 8.79999C74.2 8.49999 74.9 8.29999 75.7 8.29999C76.5 8.29999 77 8.40001 77.4 8.60001C77.8 8.80001 78 8.99999 78.2 9.29999C78.4 9.59999 78.4 10.1 78.4 10.8V12.8C78.4 13.4 78.4 13.8 78.5 14.1C78.6 14.4 78.7 14.7 78.8 15H77.1C77.1 14.9 77 14.7 76.9 14.5C76.9 14.4 76.9 14.3 76.8 14.3C76.5 14.6 76.2 14.8 75.9 14.9C75.6 15 75.2 15.1 74.8 15.1C74.1 15.1 73.6 14.9 73.2 14.6C72.8 14.3 72.6 13.8 72.6 13.2C72.6 12.8 72.7 12.5 72.9 12.2C73.1 11.9 73.3 11.7 73.6 11.5C73.9 11.3 74.4 11.2 75 11.1C75.8 10.9 76.4 10.8 76.7 10.7V10.5C76.7 10.2 76.6 9.89999 76.5 9.79999C76.3 9.69999 76 9.60001 75.6 9.60001C75.3 9.60001 75.1 9.69999 74.9 9.79999C74.8 9.99999 74.6 10.2 74.5 10.5ZM76.8 11.9C76.6 12 76.2 12.1 75.8 12.2C75.3 12.3 75 12.4 74.9 12.5C74.7 12.7 74.6 12.9 74.6 13.1C74.6 13.3 74.7 13.5 74.9 13.7C75.1 13.9 75.3 14 75.6 14C75.9 14 76.2 13.9 76.5 13.7C76.7 13.5 76.8 13.4 76.9 13.1C76.9 13 77 12.7 77 12.3V11.9H76.8Z" fill="white"/>
<path d="M81.8 15H80.1V8.5H81.7V9.39999C82 8.99999 82.2 8.7 82.4 8.5C82.6 8.3 82.9 8.29999 83.1 8.29999C83.5 8.29999 83.9 8.40001 84.2 8.60001L83.7 10.1C83.4 9.90001 83.1 9.79999 82.9 9.79999C82.7 9.79999 82.5 9.9 82.3 10C82.1 10.1 82 10.4 81.9 10.7C81.8 11 81.8 11.8 81.8 12.9V15Z" fill="white"/>
<path d="M88.8 13L90.5 13.3C90.3 13.9 89.9 14.4 89.5 14.7C89.1 15 88.4 15.2 87.7 15.2C86.6 15.2 85.7 14.8 85.2 14.1C84.8 13.5 84.6 12.8 84.6 11.9C84.6 10.8 84.9 9.99999 85.4 9.39999C86 8.79999 86.7 8.5 87.5 8.5C88.5 8.5 89.2 8.8 89.8 9.5C90.4 10.1 90.6 11.1 90.6 12.4H86.3C86.3 12.9 86.5 13.3 86.7 13.6C87 13.9 87.3 14 87.7 14C88 14 88.2 13.9 88.4 13.8C88.6 13.5 88.7 13.3 88.8 13ZM88.9 11.2C88.9 10.7 88.8 10.3 88.5 10.1C88.3 9.80001 88 9.69998 87.6 9.69998C87.2 9.69998 86.9 9.80001 86.7 10.1C86.5 10.4 86.3 10.7 86.3 11.2H88.9Z" fill="white"/>
<path d="M95 8.5V9.89999H93.8V12.5C93.8 13 93.8 13.3 93.8 13.4C93.8 13.5 93.9 13.6 94 13.6C94.1 13.7 94.2 13.7 94.3 13.7C94.5 13.7 94.7 13.6 95 13.5L95.1 14.8C94.7 15 94.2 15.1 93.7 15.1C93.4 15.1 93.1 15 92.9 14.9C92.7 14.8 92.5 14.7 92.4 14.5C92.3 14.3 92.2 14.1 92.2 13.8C92.2 13.6 92.1 13.2 92.1 12.6V9.79999H91.3V8.39999H92.1V7.10001L93.8 6.10001V8.39999H95V8.5Z" fill="white"/>
<path d="M103.5 13L105.2 13.3C105 13.9 104.6 14.4 104.2 14.7C103.7 15 103.1 15.2 102.4 15.2C101.3 15.2 100.4 14.8 99.9 14.1C99.5 13.5 99.3 12.8 99.3 11.9C99.3 10.8 99.6 9.99999 100.1 9.39999C100.7 8.79999 101.4 8.5 102.2 8.5C103.2 8.5 103.9 8.8 104.5 9.5C105.1 10.1 105.3 11.1 105.3 12.4H101C101 12.9 101.2 13.3 101.4 13.6C101.7 13.9 102 14 102.4 14C102.7 14 102.9 13.9 103.1 13.8C103.2 13.5 103.4 13.3 103.5 13ZM103.6 11.2C103.6 10.7 103.5 10.3 103.2 10.1C103 9.80001 102.7 9.69998 102.3 9.69998C101.9 9.69998 101.6 9.80001 101.4 10.1C101.2 10.4 101 10.7 101 11.2H103.6Z" fill="white"/>
<path d="M112.6 15H111V14C110.7 14.4 110.4 14.6 110.1 14.8C109.7 15 109.4 15.1 109 15.1C108.3 15.1 107.6 14.8 107.1 14.2C106.6 13.6 106.3 12.8 106.3 11.7C106.3 10.6 106.6 9.79998 107.1 9.19998C107.6 8.59998 108.3 8.29999 109.1 8.29999C109.8 8.29999 110.5 8.59998 111 9.19998V6H112.7V15H112.6ZM108 11.7C108 12.4 108.1 12.9 108.3 13.2C108.6 13.6 109 13.9 109.5 13.9C109.9 13.9 110.2 13.7 110.5 13.4C110.8 13.1 110.9 12.6 110.9 11.9C110.9 11.2 110.8 10.6 110.5 10.3C110.2 9.99999 109.9 9.79999 109.5 9.79999C109.1 9.79999 108.7 9.99999 108.5 10.3C108.2 10.5 108 11 108 11.7Z" fill="white"/>
<path d="M114.3 7.69998V6.10001H116V7.69998H114.3ZM114.3 15V8.5H116V15H114.3Z" fill="white"/>
<path d="M123.7 15H122V11.7C122 11 122 10.5 121.9 10.3C121.8 10.1 121.7 9.89999 121.5 9.79999C121.3 9.69999 121.1 9.60001 120.9 9.60001C120.6 9.60001 120.3 9.69999 120.1 9.79999C119.9 9.99999 119.7 10.2 119.6 10.4C119.5 10.7 119.5 11.2 119.5 11.9V14.8H117.8V8.29999H119.4V9.29999C120 8.59999 120.7 8.19998 121.5 8.19998C121.9 8.19998 122.2 8.29999 122.5 8.39999C122.8 8.49999 123.1 8.69999 123.2 8.89999C123.4 9.09999 123.5 9.40001 123.5 9.60001C123.5 9.80001 123.6 10.3 123.6 10.8V15H123.7Z" fill="white"/>
<path d="M14.4586 17.3519C14.4167 17.3519 14.3916 17.3605 14.3665 17.3605C13.6303 17.3605 12.8941 17.3605 12.158 17.3605C12.0827 17.3605 12.0576 17.3346 12.0576 17.2569C12.0576 14.6748 12.0576 12.1014 12.0576 9.51933C12.0576 9.39843 12.0576 9.39843 12.1747 9.39843C12.8691 9.39843 13.555 9.39843 14.2494 9.39843C14.3665 9.39843 14.3665 9.39843 14.3665 9.51933C14.3665 9.81294 14.3665 10.1066 14.3665 10.4002C14.3665 10.4261 14.3665 10.4606 14.3833 10.4952C14.3916 10.4779 14.4084 10.4693 14.4167 10.452C14.6259 10.0634 14.9354 9.7784 15.3035 9.56251C15.6967 9.33798 16.115 9.22572 16.5667 9.21708C17.052 9.19981 17.5204 9.26026 17.9722 9.43297C18.2232 9.52797 18.4407 9.67477 18.6415 9.85612C19.0681 10.2534 19.2689 10.7629 19.3944 11.3156C19.4697 11.6696 19.5115 12.0323 19.5199 12.395C19.5282 12.6195 19.5366 12.8441 19.5366 13.06C19.5366 14.4589 19.5366 15.8493 19.5366 17.2483C19.5366 17.2828 19.5366 17.3087 19.5366 17.3519C19.5031 17.3519 19.4697 17.3605 19.4446 17.3605C18.7 17.3605 17.9638 17.3605 17.2193 17.3605C17.1356 17.3605 17.1189 17.3346 17.1189 17.2569C17.1189 15.832 17.1189 14.4071 17.1189 12.9909C17.1189 12.6714 17.0771 12.3518 16.9516 12.0582C16.7843 11.6696 16.4914 11.4537 16.0815 11.4105C15.8389 11.3846 15.613 11.4019 15.3788 11.471C14.9856 11.5919 14.743 11.8682 14.6091 12.2568C14.5171 12.5159 14.4669 12.7836 14.4669 13.06C14.4586 14.4417 14.4586 15.8234 14.4502 17.2051C14.4502 17.2483 14.4586 17.2914 14.4586 17.3519Z" fill="white"/>
<path d="M8.16746 17.3519C8.16746 17.3174 8.1591 17.2915 8.1591 17.2655C8.1591 14.6835 8.1591 12.0928 8.1591 9.5107C8.1591 9.39844 8.15909 9.3898 8.26785 9.3898C8.99568 9.3898 9.7235 9.3898 10.4513 9.3898C10.5517 9.3898 10.5601 9.3898 10.5601 9.50207C10.5601 12.0841 10.5601 14.6748 10.5601 17.2569C10.5601 17.3087 10.5601 17.3519 10.4848 17.3519C9.73187 17.3519 8.97894 17.3519 8.22602 17.3519C8.21766 17.3605 8.20092 17.3605 8.16746 17.3519Z" fill="white"/>
<path d="M7.97505 6.89408C7.96668 6.11687 8.61085 5.43465 9.38887 5.45192C10.1418 5.46919 10.7609 6.09096 10.7692 6.88544C10.7692 7.68856 10.1753 8.3276 9.37214 8.33624C8.58575 8.34487 7.97505 7.6972 7.97505 6.89408Z" fill="white"/>
</g>
</svg>
