<svg width="138" height="23" viewBox="0 0 138 23" fill="none" xmlns="http://www.w3.org/2000/svg">
<mask id="mask0" mask-type="alpha" maskUnits="userSpaceOnUse" x="0" y="0" width="138" height="23">
<path d="M133.3 0H3.79999C1.69999 0 0 1.69999 0 3.79999V19.2C0 21.3 1.69999 23 3.79999 23H133.3C135.4 23 137.1 21.3 137.1 19.2V3.79999C137.1 1.69999 135.4 0 133.3 0Z" fill="#4367AF"/>
</mask>
<g mask="url(#mask0)">
<rect width="137" height="23" fill="#0274B3"/>
<path d="M28.6 14.9L25.4 6H27.3L29.5 12.6L31.7 6H33.6L30.4 14.9H28.6Z" fill="white"/>
<path d="M34.3 7.60001V6H36V7.60001H34.3ZM34.3 14.9V8.5H36V14.9H34.3Z" fill="white"/>
<path d="M37.2 13.1L38.9 12.8C39 13.1 39.1 13.4 39.3 13.6C39.5 13.8 39.8 13.9 40.2 13.9C40.6 13.9 41 13.8 41.2 13.7C41.3 13.6 41.4 13.4 41.4 13.2C41.4 13.1 41.4 13 41.3 12.9C41.2 12.8 41 12.7 40.7 12.7C39.3 12.4 38.5 12.1 38.1 11.9C37.6 11.6 37.3 11.1 37.3 10.5C37.3 9.9 37.5 9.50001 38 9.10001C38.4 8.70001 39.1 8.5 40 8.5C40.9 8.5 41.5 8.60002 42 8.90002C42.4 9.20002 42.7 9.60001 42.9 10.2L41.3 10.5C41.2 10.2 41.1 10.1 40.9 9.90002C40.7 9.80002 40.4 9.70001 40.1 9.70001C39.7 9.70001 39.3 9.80002 39.1 9.90002C39 10 38.9 10.1 38.9 10.2C38.9 10.3 39 10.4 39.1 10.5C39.3 10.6 39.8 10.8 40.7 11C41.6 11.2 42.2 11.5 42.6 11.8C43 12.1 43.1 12.5 43.1 13.1C43.1 13.7 42.9 14.2 42.4 14.6C41.9 15 41.2 15.2 40.2 15.2C39.3 15.2 38.6 15 38.1 14.7C37.7 14.2 37.3 13.7 37.2 13.1Z" fill="white"/>
<path d="M44.7 7.60001V6H46.4V7.60001H44.7ZM44.7 14.9V8.5H46.4V14.9H44.7Z" fill="white"/>
<path d="M51.1 8.5V9.90002H49.9V12.5C49.9 13 49.9 13.3 49.9 13.4C49.9 13.5 50 13.6 50.1 13.6C50.2 13.7 50.3 13.7 50.4 13.7C50.6 13.7 50.8 13.6 51.1 13.5L51.2 14.8C50.8 15 50.4 15.1 49.9 15.1C49.6 15.1 49.3 15 49.1 14.9C48.9 14.8 48.7 14.7 48.6 14.5C48.5 14.3 48.4 14.1 48.4 13.8C48.4 13.6 48.3 13.2 48.3 12.6V9.80002H47.5V8.40002H48.3V7.20001L50 6.20001V8.5H51.1Z" fill="white"/>
<path d="M56 12.9L57.7 13.2C57.5 13.8 57.1 14.3 56.7 14.6C56.2 14.9 55.6 15.1 54.9 15.1C53.8 15.1 53 14.7 52.4 14C52 13.4 51.8 12.7 51.8 11.8C51.8 10.7 52.1 9.90002 52.6 9.30002C53.2 8.70002 53.9 8.40002 54.7 8.40002C55.7 8.40002 56.4 8.70002 57 9.30002C57.6 9.90002 57.8 10.9 57.8 12.2H53.5C53.5 12.7 53.6 13.1 53.9 13.4C54.2 13.7 54.5 13.8 54.9 13.8C55.2 13.8 55.4 13.7 55.6 13.6C55.8 13.4 55.9 13.2 56 12.9ZM56.1 11.2C56.1 10.7 56 10.3 55.7 10.1C55.5 9.80001 55.2 9.70001 54.8 9.70001C54.4 9.70001 54.1 9.80001 53.9 10.1C53.7 10.4 53.5 10.7 53.5 11.2H56.1Z" fill="white"/>
<path d="M58.5 14.9V13.6L60.9 10.8C61.3 10.3 61.6 10 61.8 9.80002C61.6 9.80002 61.3 9.80002 61 9.80002H58.7V8.40002H64V9.60001L61.5 12.4L60.6 13.3C61.1 13.3 61.4 13.3 61.5 13.3H64.1V14.8H58.5V14.9Z" fill="white"/>
<path d="M74.7 14.9H73V11.6C73 10.9 73 10.5 72.9 10.3C72.8 10.1 72.7 9.90002 72.5 9.80002C72.3 9.70002 72.1 9.60001 71.9 9.60001C71.6 9.60001 71.3 9.70002 71.1 9.80002C70.9 10 70.7 10.2 70.6 10.4C70.5 10.7 70.5 11.2 70.5 11.9V14.8H68.8V8.40002H70.4V9.30002C71 8.60002 71.7 8.20001 72.5 8.20001C72.9 8.20001 73.2 8.30002 73.5 8.40002C73.8 8.50002 74 8.70002 74.2 8.90002C74.4 9.10002 74.5 9.30001 74.5 9.60001C74.6 9.90001 74.6 10.2 74.6 10.7V14.9H74.7Z" fill="white"/>
<path d="M76 11.6C76 11 76.1 10.5 76.4 10C76.7 9.5 77.1 9.10002 77.6 8.80002C78.1 8.50002 78.7 8.40002 79.3 8.40002C80.3 8.40002 81.1 8.70002 81.7 9.30002C82.3 9.90002 82.6 10.7 82.6 11.7C82.6 12.7 82.3 13.5 81.7 14.1C81.1 14.7 80.3 15.1 79.3 15.1C78.7 15.1 78.1 15 77.6 14.7C77.1 14.4 76.7 14 76.4 13.5C76.1 13 76 12.4 76 11.6ZM77.7 11.7C77.7 12.3 77.9 12.8 78.2 13.2C78.5 13.5 78.9 13.7 79.3 13.7C79.7 13.7 80.1 13.5 80.4 13.2C80.7 12.9 80.9 12.4 80.9 11.7C80.9 11.1 80.8 10.6 80.4 10.2C80.1 9.90001 79.7 9.70001 79.3 9.70001C78.9 9.70001 78.5 9.90001 78.2 10.2C77.9 10.6 77.7 11.1 77.7 11.7Z" fill="white"/>
<path d="M86.9 8.5V9.90002H85.7V12.5C85.7 13 85.7 13.3 85.7 13.4C85.7 13.5 85.8 13.6 85.9 13.6C86 13.7 86.1 13.7 86.2 13.7C86.4 13.7 86.6 13.6 86.9 13.5L87 14.8C86.6 15 86.2 15.1 85.7 15.1C85.4 15.1 85.1 15 84.9 14.9C84.7 14.8 84.5 14.7 84.4 14.5C84.3 14.3 84.2 14.1 84.2 13.8C84.2 13.6 84.1 13.2 84.1 12.6V9.80002H83.3V8.40002H84.1V7.20001L85.8 6.20001V8.5H86.9Z" fill="white"/>
<path d="M89.7 14.9H88V8.5H89.6V9.40002C89.9 9.00002 90.1 8.7 90.3 8.5C90.5 8.4 90.8 8.30002 91 8.30002C91.4 8.30002 91.8 8.40001 92.1 8.60001L91.6 10.1C91.3 9.90001 91 9.80002 90.8 9.80002C90.6 9.80002 90.4 9.9 90.2 10C90 10.1 89.9 10.4 89.8 10.7C89.7 11 89.7 11.8 89.7 12.9V14.9Z" fill="white"/>
<path d="M96.6 12.9L98.3 13.2C98.1 13.8 97.7 14.3 97.3 14.6C96.8 14.9 96.2 15.1 95.5 15.1C94.4 15.1 93.6 14.7 93 14C92.6 13.4 92.4 12.7 92.4 11.8C92.4 10.7 92.7 9.90002 93.2 9.30002C93.8 8.70002 94.5 8.40002 95.3 8.40002C96.3 8.40002 97 8.70002 97.6 9.30002C98.2 9.90002 98.4 10.9 98.4 12.2H94.1C94.1 12.7 94.2 13.1 94.5 13.4C94.8 13.7 95.1 13.8 95.5 13.8C95.8 13.8 96 13.7 96.2 13.6C96.4 13.4 96.6 13.2 96.6 12.9ZM96.7 11.2C96.7 10.7 96.6 10.3 96.3 10.1C96 9.90001 95.8 9.70001 95.4 9.70001C95 9.70001 94.7 9.80001 94.5 10.1C94.3 10.4 94.1 10.7 94.1 11.2H96.7Z" fill="white"/>
<path d="M103.2 8.5H104.8V9.40002C105 9.10002 105.3 8.80001 105.6 8.60001C106 8.40001 106.3 8.30002 106.8 8.30002C107.5 8.30002 108.2 8.60001 108.7 9.20001C109.2 9.80001 109.5 10.6 109.5 11.6C109.5 12.7 109.2 13.5 108.7 14.1C108.2 14.7 107.5 15 106.8 15C106.4 15 106.1 14.9 105.8 14.8C105.5 14.7 105.2 14.4 104.9 14.1V17.3H103.2V8.5ZM104.9 11.6C104.9 12.3 105 12.9 105.3 13.2C105.6 13.5 105.9 13.7 106.3 13.7C106.7 13.7 107 13.5 107.3 13.2C107.6 12.9 107.7 12.4 107.7 11.6C107.7 10.9 107.6 10.4 107.3 10.1C107 9.80001 106.7 9.60001 106.3 9.60001C105.9 9.60001 105.5 9.80001 105.3 10.1C105 10.5 104.9 11 104.9 11.6Z" fill="white"/>
<path d="M112.1 10.5L110.6 10.2C110.8 9.60001 111.1 9.10002 111.5 8.80002C111.9 8.50002 112.6 8.40002 113.4 8.40002C114.2 8.40002 114.7 8.50001 115.1 8.70001C115.5 8.90001 115.7 9.10002 115.9 9.40002C116.1 9.70002 116.1 10.2 116.1 10.9V12.9C116.1 13.5 116.1 13.9 116.2 14.2C116.3 14.5 116.4 14.8 116.5 15.1H114.8C114.8 15 114.7 14.8 114.6 14.6C114.6 14.5 114.6 14.4 114.5 14.4C114.2 14.7 113.9 14.9 113.6 15C113.3 15.1 112.9 15.2 112.5 15.2C111.8 15.2 111.3 15 110.9 14.7C110.5 14.3 110.3 13.9 110.3 13.3C110.3 12.9 110.4 12.6 110.6 12.3C110.8 12 111 11.8 111.3 11.6C111.6 11.4 112.1 11.3 112.7 11.2C113.5 11 114 10.9 114.4 10.8V10.6C114.4 10.3 114.3 10 114.2 9.90002C114 9.80002 113.7 9.70001 113.3 9.70001C113 9.70001 112.8 9.80002 112.6 9.90002C112.4 10 112.2 10.2 112.1 10.5ZM114.4 11.8C114.2 11.9 113.8 12 113.4 12.1C112.9 12.2 112.6 12.3 112.5 12.4C112.3 12.6 112.2 12.8 112.2 13C112.2 13.2 112.3 13.4 112.5 13.6C112.7 13.8 112.9 13.9 113.2 13.9C113.5 13.9 113.8 13.8 114.1 13.6C114.3 13.4 114.4 13.3 114.5 13C114.5 12.9 114.6 12.6 114.6 12.2V11.8H114.4Z" fill="white"/>
<path d="M117.6 15.4L119.5 15.6C119.5 15.8 119.6 16 119.7 16.1C119.9 16.2 120.1 16.3 120.5 16.3C120.9 16.3 121.3 16.2 121.5 16.1C121.6 16 121.8 15.9 121.8 15.7C121.9 15.6 121.9 15.3 121.9 14.9V14C121.4 14.7 120.7 15 120 15C119.1 15 118.5 14.6 117.9 13.9C117.5 13.3 117.3 12.6 117.3 11.7C117.3 10.6 117.6 9.80001 118.1 9.20001C118.6 8.60001 119.3 8.30002 120 8.30002C120.8 8.30002 121.5 8.60002 122 9.30002V8.40002H123.6V14.2C123.6 15 123.5 15.5 123.4 15.9C123.3 16.3 123.1 16.6 122.9 16.8C122.7 17 122.4 17.2 122 17.3C121.6 17.4 121.1 17.5 120.6 17.5C119.5 17.5 118.7 17.3 118.3 16.9C117.8 16.5 117.6 16.1 117.6 15.5V15.4ZM119.1 11.6C119.1 12.3 119.2 12.8 119.5 13.1C119.8 13.4 120.1 13.6 120.5 13.6C120.9 13.6 121.3 13.4 121.6 13.1C121.9 12.8 122 12.3 122 11.7C122 11 121.9 10.5 121.6 10.2C121.3 9.90001 121 9.70001 120.6 9.70001C120.2 9.70001 119.9 9.90001 119.6 10.2C119.2 10.5 119.1 10.9 119.1 11.6Z" fill="white"/>
<path d="M129 12.9L130.7 13.2C130.5 13.8 130.1 14.3 129.7 14.6C129.2 14.9 128.6 15.1 127.9 15.1C126.8 15.1 126 14.7 125.4 14C125 13.4 124.8 12.7 124.8 11.8C124.8 10.7 125.1 9.90002 125.6 9.30002C126.2 8.70002 126.9 8.40002 127.7 8.40002C128.7 8.40002 129.4 8.70002 130 9.30002C130.6 9.90002 130.8 10.9 130.8 12.2H126.5C126.5 12.7 126.6 13.1 126.9 13.4C127.2 13.7 127.5 13.8 127.9 13.8C128.2 13.8 128.4 13.7 128.6 13.6C128.8 13.4 129 13.2 129 12.9ZM129.1 11.2C129.1 10.7 129 10.3 128.7 10.1C128.4 9.90001 128.2 9.70001 127.8 9.70001C127.4 9.70001 127.1 9.80001 126.9 10.1C126.7 10.4 126.5 10.7 126.5 11.2H129.1Z" fill="white"/>
<path d="M14.4586 17.3519C14.4167 17.3519 14.3916 17.3605 14.3665 17.3605C13.6303 17.3605 12.8942 17.3605 12.158 17.3605C12.0827 17.3605 12.0576 17.3346 12.0576 17.2569C12.0576 14.6748 12.0576 12.1014 12.0576 9.51934C12.0576 9.39844 12.0576 9.39844 12.1747 9.39844C12.8691 9.39844 13.5551 9.39844 14.2494 9.39844C14.3665 9.39844 14.3665 9.39844 14.3665 9.51934C14.3665 9.81295 14.3665 10.1066 14.3665 10.4002C14.3665 10.4261 14.3665 10.4606 14.3833 10.4952C14.3916 10.4779 14.4084 10.4693 14.4167 10.452C14.6259 10.0634 14.9354 9.77841 15.3035 9.56252C15.6967 9.33799 16.115 9.22572 16.5667 9.21709C17.052 9.19982 17.5205 9.26027 17.9722 9.43298C18.2232 9.52797 18.4407 9.67478 18.6415 9.85613C19.0681 10.2534 19.2689 10.7629 19.3944 11.3156C19.4697 11.6696 19.5115 12.0323 19.5199 12.395C19.5282 12.6195 19.5366 12.8441 19.5366 13.06C19.5366 14.4589 19.5366 15.8493 19.5366 17.2483C19.5366 17.2828 19.5366 17.3087 19.5366 17.3519C19.5032 17.3519 19.4697 17.3605 19.4446 17.3605C18.7 17.3605 17.9638 17.3605 17.2193 17.3605C17.1356 17.3605 17.1189 17.3346 17.1189 17.2569C17.1189 15.832 17.1189 14.4071 17.1189 12.9909C17.1189 12.6714 17.0771 12.3518 16.9516 12.0582C16.7843 11.6696 16.4915 11.4537 16.0815 11.4106C15.8389 11.3846 15.613 11.4019 15.3788 11.471C14.9856 11.5919 14.743 11.8682 14.6091 12.2568C14.5171 12.5159 14.4669 12.7836 14.4669 13.06C14.4586 14.4417 14.4586 15.8234 14.4502 17.2051C14.4502 17.2483 14.4586 17.2915 14.4586 17.3519Z" fill="white"/>
<path d="M8.16747 17.3519C8.16747 17.3174 8.1591 17.2915 8.1591 17.2656C8.1591 14.6835 8.1591 12.0928 8.1591 9.51071C8.1591 9.39845 8.1591 9.38981 8.26786 9.38981C8.99568 9.38981 9.72351 9.38981 10.4513 9.38981C10.5517 9.38981 10.5601 9.38981 10.5601 9.50207C10.5601 12.0841 10.5601 14.6748 10.5601 17.2569C10.5601 17.3087 10.5601 17.3519 10.4848 17.3519C9.73188 17.3519 8.97895 17.3519 8.22603 17.3519C8.21766 17.3605 8.20093 17.3605 8.16747 17.3519Z" fill="white"/>
<path d="M7.97506 6.89409C7.96669 6.11688 8.61086 5.43466 9.38888 5.45194C10.1418 5.46921 10.7609 6.09097 10.7692 6.88546C10.7692 7.68857 10.1753 8.32762 9.37215 8.33625C8.58576 8.34489 7.97506 7.69721 7.97506 6.89409Z" fill="white"/>
</g>
</svg>
