<svg width="91" height="23" viewBox="0 0 91 23" fill="none" xmlns="http://www.w3.org/2000/svg">
<mask id="mask0" mask-type="alpha" maskUnits="userSpaceOnUse" x="0" y="0" width="91" height="23">
<path d="M86.3 0H3.79999C1.69999 0 0 1.69999 0 3.79999V19.2C0 21.3 1.69999 23 3.79999 23H86.3C88.4 23 90.1 21.3 90.1 19.2V3.79999C90.1 1.69999 88.4 0 86.3 0Z" fill="#4367AF"/>
</mask>
<g mask="url(#mask0)">
<rect width="91" height="23" fill="#0274B3"/>
<path d="M28.6 15.9L25.4 7H27.3L29.5 13.6L31.7 7H33.6L30.4 15.9H28.6Z" fill="white"/>
<path d="M34.3 8.59998V7H36V8.59998H34.3ZM34.3 15.9V9.5H36V15.9H34.3Z" fill="white"/>
<path d="M37.2 14L38.9 13.7C39 14 39.1 14.3 39.3 14.5C39.5 14.7 39.8 14.8 40.2 14.8C40.6 14.8 41 14.7 41.2 14.6C41.3 14.5 41.4 14.3 41.4 14.1C41.4 14 41.4 13.9 41.3 13.8C41.2 13.7 41 13.6 40.7 13.6C39.3 13.3 38.5 13 38.1 12.8C37.6 12.5 37.3 12 37.3 11.4C37.3 10.8 37.5 10.4 38 10C38.4 9.6 39.1 9.39999 40 9.39999C40.9 9.39999 41.5 9.49999 42 9.79999C42.4 10.1 42.7 10.5 42.9 11.1L41.3 11.4C41.2 11.1 41.1 11 40.9 10.8C40.7 10.7 40.4 10.6 40.1 10.6C39.7 10.6 39.3 10.7 39.1 10.8C39 10.9 38.9 11 38.9 11.1C38.9 11.2 39 11.3 39.1 11.4C39.3 11.5 39.8 11.7 40.7 11.9C41.6 12.1 42.2 12.4 42.6 12.7C43 13 43.1 13.4 43.1 14C43.1 14.6 42.9 15.1 42.4 15.5C41.9 15.9 41.2 16.1 40.2 16.1C39.3 16.1 38.6 15.9 38.1 15.6C37.7 15.1 37.3 14.6 37.2 14Z" fill="white"/>
<path d="M44.7 8.59998V7H46.4V8.59998H44.7ZM44.7 15.9V9.5H46.4V15.9H44.7Z" fill="white"/>
<path d="M51.1 9.39999V10.8H49.9V13.4C49.9 13.9 49.9 14.2 49.9 14.3C49.9 14.4 50 14.5 50.1 14.5C50.2 14.6 50.3 14.6 50.4 14.6C50.6 14.6 50.8 14.5 51.1 14.4L51.2 15.7C50.8 15.9 50.4 16 49.9 16C49.6 16 49.3 15.9 49.1 15.8C48.9 15.7 48.7 15.6 48.6 15.4C48.5 15.2 48.4 15 48.4 14.7C48.4 14.5 48.3 14.1 48.3 13.5V10.8H47.5V9.39999H48.3V8.09998L50 7.09998V9.39999H51.1Z" fill="white"/>
<path d="M56 13.8L57.7 14.1C57.5 14.7 57.1 15.2 56.7 15.5C56.2 15.8 55.6 16 54.9 16C53.8 16 53 15.6 52.4 14.9C52 14.3 51.8 13.6 51.8 12.7C51.8 11.6 52.1 10.8 52.6 10.2C53.2 9.59998 53.9 9.29999 54.7 9.29999C55.7 9.29999 56.4 9.59998 57 10.2C57.6 10.8 57.8 11.8 57.8 13.1H53.5C53.5 13.6 53.6 14 53.9 14.3C54.2 14.6 54.5 14.7 54.9 14.7C55.2 14.7 55.4 14.6 55.6 14.5C55.8 14.4 55.9 14.1 56 13.8ZM56.1 12.1C56.1 11.6 56 11.2 55.7 11C55.5 10.7 55.2 10.6 54.8 10.6C54.4 10.6 54.1 10.7 53.9 11C53.7 11.3 53.5 11.6 53.5 12.1H56.1Z" fill="white"/>
<path d="M59 13.5V11.8H62.3V13.5H59Z" fill="white"/>
<path d="M69.1 15.9H67.4V12.6C67.4 11.9 67.4 11.5 67.3 11.3C67.2 11.1 67.1 10.9 66.9 10.8C66.7 10.7 66.5 10.6 66.3 10.6C66 10.6 65.7 10.7 65.5 10.8C65.3 11 65.1 11.2 65 11.4C64.9 11.7 64.9 12.2 64.9 12.9V15.8H63.2V9.39999H64.8V10.3C65.4 9.59999 66.1 9.19998 66.9 9.19998C67.3 9.19998 67.6 9.29999 67.9 9.39999C68.2 9.49999 68.4 9.69999 68.6 9.89999C68.8 10.1 68.9 10.3 68.9 10.6C69 10.9 69 11.2 69 11.7V15.9H69.1Z" fill="white"/>
<path d="M70.5 12.6C70.5 12 70.6 11.5 70.9 11C71.2 10.5 71.6 10.1 72.1 9.79999C72.6 9.49999 73.2 9.39999 73.8 9.39999C74.8 9.39999 75.6 9.69999 76.2 10.3C76.8 10.9 77.1 11.7 77.1 12.7C77.1 13.7 76.8 14.5 76.2 15.1C75.6 15.7 74.8 16.1 73.8 16.1C73.2 16.1 72.6 16 72.1 15.7C71.6 15.4 71.2 15 70.9 14.5C70.6 13.9 70.5 13.3 70.5 12.6ZM72.2 12.7C72.2 13.3 72.4 13.8 72.7 14.2C73 14.5 73.4 14.7 73.8 14.7C74.2 14.7 74.6 14.5 74.9 14.2C75.2 13.9 75.4 13.4 75.4 12.7C75.4 12.1 75.2 11.6 74.9 11.2C74.6 10.9 74.2 10.7 73.8 10.7C73.4 10.7 73 10.9 72.7 11.2C72.4 11.5 72.2 12 72.2 12.7Z" fill="white"/>
<path d="M77.8 14L79.5 13.7C79.6 14 79.7 14.3 79.9 14.5C80.1 14.7 80.4 14.8 80.8 14.8C81.2 14.8 81.6 14.7 81.8 14.6C81.9 14.5 82 14.3 82 14.1C82 14 82 13.9 81.9 13.8C81.8 13.7 81.6 13.6 81.3 13.6C79.9 13.3 79.1 13 78.7 12.8C78.2 12.5 77.9 12 77.9 11.4C77.9 10.8 78.1 10.4 78.6 10C79 9.6 79.7 9.39999 80.6 9.39999C81.5 9.39999 82.1 9.49999 82.6 9.79999C83 10.1 83.3 10.5 83.5 11.1L81.9 11.4C81.8 11.1 81.7 11 81.5 10.8C81.3 10.7 81 10.6 80.7 10.6C80.3 10.6 79.9 10.7 79.7 10.8C79.6 10.9 79.5 11 79.5 11.1C79.5 11.2 79.6 11.3 79.7 11.4C79.9 11.5 80.4 11.7 81.3 11.9C82.2 12.1 82.8 12.4 83.2 12.7C83.6 13 83.7 13.4 83.7 14C83.7 14.6 83.5 15.1 83 15.5C82.5 15.9 81.8 16.1 80.8 16.1C79.9 16.1 79.2 15.9 78.7 15.6C78.3 15.1 78 14.6 77.8 14Z" fill="white"/>
<path d="M14.4586 17.3519C14.4167 17.3519 14.3916 17.3605 14.3665 17.3605C13.6303 17.3605 12.8942 17.3605 12.158 17.3605C12.0827 17.3605 12.0576 17.3346 12.0576 17.2569C12.0576 14.6748 12.0576 12.1014 12.0576 9.51935C12.0576 9.39845 12.0576 9.39845 12.1747 9.39845C12.8691 9.39845 13.5551 9.39845 14.2494 9.39845C14.3665 9.39845 14.3665 9.39845 14.3665 9.51935C14.3665 9.81296 14.3665 10.1066 14.3665 10.4002C14.3665 10.4261 14.3665 10.4606 14.3833 10.4952C14.3916 10.4779 14.4084 10.4693 14.4167 10.452C14.6259 10.0634 14.9354 9.77842 15.3035 9.56252C15.6967 9.338 16.115 9.22573 16.5667 9.2171C17.052 9.19983 17.5205 9.26028 17.9722 9.43299C18.2232 9.52798 18.4407 9.67479 18.6415 9.85614C19.0681 10.2534 19.2689 10.7629 19.3944 11.3156C19.4697 11.6696 19.5115 12.0323 19.5199 12.395C19.5282 12.6196 19.5366 12.8441 19.5366 13.06C19.5366 14.459 19.5366 15.8493 19.5366 17.2483C19.5366 17.2828 19.5366 17.3087 19.5366 17.3519C19.5032 17.3519 19.4697 17.3605 19.4446 17.3605C18.7 17.3605 17.9638 17.3605 17.2193 17.3605C17.1356 17.3605 17.1189 17.3346 17.1189 17.2569C17.1189 15.832 17.1189 14.4071 17.1189 12.9909C17.1189 12.6714 17.0771 12.3519 16.9516 12.0582C16.7843 11.6696 16.4915 11.4537 16.0815 11.4106C15.8389 11.3847 15.613 11.4019 15.3788 11.471C14.9856 11.5919 14.743 11.8683 14.6091 12.2569C14.5171 12.5159 14.4669 12.7836 14.4669 13.06C14.4586 14.4417 14.4586 15.8234 14.4502 17.2051C14.4502 17.2483 14.4586 17.2915 14.4586 17.3519Z" fill="white"/>
<path d="M8.16747 17.3519C8.16747 17.3174 8.1591 17.2915 8.1591 17.2656C8.1591 14.6835 8.1591 12.0928 8.1591 9.51072C8.1591 9.39845 8.1591 9.38982 8.26786 9.38982C8.99568 9.38982 9.72351 9.38982 10.4513 9.38982C10.5517 9.38982 10.5601 9.38982 10.5601 9.50208C10.5601 12.0842 10.5601 14.6749 10.5601 17.2569C10.5601 17.3087 10.5601 17.3519 10.4848 17.3519C9.73188 17.3519 8.97895 17.3519 8.22603 17.3519C8.21766 17.3606 8.20093 17.3606 8.16747 17.3519Z" fill="white"/>
<path d="M7.97506 6.89409C7.96669 6.11688 8.61086 5.43466 9.38888 5.45194C10.1418 5.46921 10.7609 6.09097 10.7692 6.88546C10.7692 7.68857 10.1753 8.32762 9.37215 8.33625C8.58576 8.34489 7.97506 7.69721 7.97506 6.89409Z" fill="white"/>
</g>
</svg>
