<svg width="116" height="23" viewBox="0 0 116 23" fill="none" xmlns="http://www.w3.org/2000/svg">
<mask id="mask0" mask-type="alpha" maskUnits="userSpaceOnUse" x="0" y="0" width="116" height="23">
<path d="M111.3 0H3.8C1.7 0 0 1.70002 0 3.80002V19.2C0 21.3 1.7 23 3.8 23H111.3C113.4 23 115.1 21.3 115.1 19.2V3.80002C115.1 1.70002 113.4 0 111.3 0Z" fill="#4367AF"/>
</mask>
<g mask="url(#mask0)">
<rect x="-1" width="116" height="23" fill="#0274B3"/>
<path d="M25.9 11.7C25.9 10.8 26 9.99999 26.3 9.39999C26.5 8.89999 26.8 8.49998 27.1 8.19998C27.5 7.79998 27.8 7.59999 28.3 7.39999C28.9 7.19999 29.5 7 30.2 7C31.5 7 32.6 7.39998 33.4 8.19998C34.2 8.99998 34.6 10.2 34.6 11.6C34.6 13 34.2 14.2 33.4 15C32.6 15.8 31.6 16.2 30.2 16.2C28.9 16.2 27.8 15.8 27 15C26.3 14.2 25.9 13.1 25.9 11.7ZM27.7 11.6C27.7 12.6 27.9 13.4 28.4 13.9C28.9 14.4 29.5 14.7 30.2 14.7C30.9 14.7 31.5 14.4 32 13.9C32.5 13.4 32.7 12.6 32.7 11.6C32.7 10.6 32.5 9.79999 32 9.29999C31.5 8.79999 31 8.5 30.2 8.5C29.4 8.5 28.9 8.79999 28.4 9.29999C28 9.79999 27.7 10.6 27.7 11.6Z" fill="white"/>
<path d="M41.9 16.1H40.3V15.1C40 15.5 39.7 15.7 39.4 15.9C39.1 16.1 38.7 16.2 38.3 16.2C37.6 16.2 36.9 15.9 36.4 15.3C35.9 14.7 35.6 13.9 35.6 12.8C35.6 11.7 35.9 10.9 36.4 10.3C36.9 9.69999 37.6 9.39999 38.4 9.39999C39.1 9.39999 39.8 9.69999 40.3 10.3V7.09998H42V16.1H41.9ZM37.4 12.7C37.4 13.4 37.5 13.9 37.7 14.2C38 14.6 38.4 14.9 38.9 14.9C39.3 14.9 39.6 14.7 39.9 14.4C40.2 14.1 40.3 13.6 40.3 12.9C40.3 12.2 40.2 11.6 39.9 11.3C39.6 11 39.3 10.8 38.9 10.8C38.5 10.8 38.1 11 37.9 11.3C37.7 11.6 37.4 12.1 37.4 12.7Z" fill="white"/>
<path d="M44.9 16.1L42.8 9.59998H44.5L45.7 13.9L46.8 9.59998H48.5L49.6 13.9L50.8 9.59998H52.5L50.4 16.1H48.7L47.6 11.9L46.5 16.1H44.9Z" fill="white"/>
<path d="M53.4 8.69998V7.09998H55.1V8.69998H53.4ZM53.4 16.1V9.59998H55.1V16.1H53.4Z" fill="white"/>
<path d="M60.6 14L62.3 14.3C62.1 14.9 61.7 15.4 61.3 15.7C60.9 16 60.2 16.2 59.5 16.2C58.4 16.2 57.5 15.8 57 15.1C56.6 14.5 56.4 13.8 56.4 12.9C56.4 11.8 56.7 11 57.2 10.4C57.8 9.79999 58.5 9.5 59.3 9.5C60.3 9.5 61 9.8 61.6 10.5C62.2 11.1 62.4 12.1 62.4 13.4H58.1C58.1 13.9 58.3 14.3 58.5 14.6C58.8 14.9 59.1 15 59.5 15C59.8 15 60 14.9 60.2 14.8C60.4 14.6 60.5 14.4 60.6 14ZM60.7 12.3C60.7 11.8 60.6 11.4 60.3 11.2C60.1 10.9 59.8 10.8 59.4 10.8C59 10.8 58.7 10.9 58.5 11.2C58.3 11.5 58.1 11.8 58.1 12.3H60.7Z" fill="white"/>
<path d="M69.8 16.1H68.2V15.1C67.9 15.5 67.6 15.7 67.3 15.9C67 16.1 66.6 16.2 66.2 16.2C65.5 16.2 64.8 15.9 64.3 15.3C63.8 14.7 63.5 13.9 63.5 12.8C63.5 11.7 63.8 10.9 64.3 10.3C64.8 9.69999 65.5 9.39999 66.3 9.39999C67 9.39999 67.7 9.69999 68.2 10.3V7.09998H69.9V16.1H69.8ZM65.2 12.7C65.2 13.4 65.3 13.9 65.5 14.2C65.8 14.6 66.2 14.9 66.7 14.9C67.1 14.9 67.4 14.7 67.7 14.4C68 14.1 68.1 13.6 68.1 12.9C68.1 12.2 68 11.6 67.7 11.3C67.4 11 67.1 10.8 66.7 10.8C66.3 10.8 65.9 11 65.7 11.3C65.5 11.6 65.2 12.1 65.2 12.7Z" fill="white"/>
<path d="M70.8 16.1V14.8L73.2 12C73.6 11.5 73.9 11.2 74.1 11C73.9 11 73.6 11 73.3 11H71V9.59998H76.4V10.8L73.9 13.7L73 14.6C73.5 14.6 73.8 14.6 73.9 14.6H76.6V16.1H70.8ZM72.5 8.79999L73.3 7H75.2L73.5 8.79999H72.5Z" fill="white"/>
<path d="M81.1 9.59998H82.7V10.5C83.3 9.8 83.9 9.5 84.7 9.5C85.1 9.5 85.5 9.59999 85.8 9.79999C86.1 9.99999 86.4 10.2 86.6 10.6C86.9 10.3 87.2 9.99999 87.5 9.79999C87.8 9.59999 88.2 9.5 88.6 9.5C89.1 9.5 89.5 9.59999 89.8 9.79999C90.1 9.99999 90.4 10.3 90.5 10.7C90.6 11 90.7 11.4 90.7 12V16.2H89V12.5C89 11.9 88.9 11.4 88.8 11.3C88.6 11.1 88.4 10.9 88.1 10.9C87.9 10.9 87.6 11 87.4 11.1C87.2 11.2 87 11.5 86.9 11.7C86.8 12 86.8 12.4 86.8 13V16.1H85.1V12.5C85.1 11.9 85.1 11.5 85 11.3C84.9 11.1 84.8 11 84.7 10.9C84.6 10.8 84.4 10.8 84.2 10.8C83.9 10.8 83.7 10.9 83.5 11C83.3 11.1 83.1 11.3 83 11.6C82.9 11.9 82.9 12.3 82.9 12.9V16.1H81.1V9.59998Z" fill="white"/>
<path d="M98.3 16.1H96.6V12.8C96.6 12.1 96.6 11.6 96.5 11.4C96.4 11.2 96.3 11 96.1 10.9C95.9 10.8 95.7 10.7 95.5 10.7C95.2 10.7 94.9 10.8 94.7 10.9C94.5 11.1 94.3 11.3 94.2 11.5C94.1 11.8 94.1 12.3 94.1 13V15.9H92.4V9.39999H94V10.4C94.6 9.69999 95.3 9.29999 96.1 9.29999C96.5 9.29999 96.8 9.4 97.1 9.5C97.4 9.6 97.7 9.8 97.8 10C98 10.2 98.1 10.5 98.1 10.7C98.2 11 98.2 11.4 98.2 11.9V16.1H98.3Z" fill="white"/>
<path d="M100.1 8.69998V7.09998H101.8V8.69998H100.1ZM100.1 16.1V9.59998H101.8V16.1H100.1Z" fill="white"/>
<path d="M107.3 14L109 14.3C108.8 14.9 108.4 15.4 108 15.7C107.6 16 106.9 16.2 106.2 16.2C105.1 16.2 104.2 15.8 103.7 15.1C103.3 14.5 103.1 13.8 103.1 12.9C103.1 11.8 103.4 11 103.9 10.4C104.5 9.79999 105.2 9.5 106 9.5C107 9.5 107.7 9.8 108.3 10.5C108.9 11.1 109.1 12.1 109.1 13.4H104.8C104.8 13.9 105 14.3 105.2 14.6C105.5 14.9 105.8 15 106.2 15C106.5 15 106.7 14.9 106.9 14.8C107.1 14.6 107.2 14.4 107.3 14ZM107.4 12.3C107.4 11.8 107.3 11.4 107 11.2C106.8 10.9 106.5 10.8 106.1 10.8C105.7 10.8 105.4 10.9 105.2 11.2C105 11.5 104.8 11.8 104.8 12.3H107.4Z" fill="white"/>
<path d="M14.4586 17.3519C14.4167 17.3519 14.3916 17.3605 14.3665 17.3605C13.6303 17.3605 12.8941 17.3605 12.158 17.3605C12.0827 17.3605 12.0576 17.3346 12.0576 17.2569C12.0576 14.6748 12.0576 12.1014 12.0576 9.51933C12.0576 9.39843 12.0576 9.39843 12.1747 9.39843C12.8691 9.39843 13.555 9.39843 14.2494 9.39843C14.3665 9.39843 14.3665 9.39843 14.3665 9.51933C14.3665 9.81294 14.3665 10.1066 14.3665 10.4002C14.3665 10.4261 14.3665 10.4606 14.3833 10.4952C14.3916 10.4779 14.4084 10.4693 14.4167 10.452C14.6259 10.0634 14.9354 9.7784 15.3035 9.56251C15.6967 9.33798 16.115 9.22571 16.5667 9.21708C17.052 9.19981 17.5204 9.26026 17.9722 9.43297C18.2232 9.52796 18.4407 9.67477 18.6415 9.85612C19.0681 10.2534 19.2689 10.7629 19.3944 11.3156C19.4697 11.6696 19.5115 12.0323 19.5199 12.395C19.5282 12.6195 19.5366 12.8441 19.5366 13.06C19.5366 14.4589 19.5366 15.8493 19.5366 17.2483C19.5366 17.2828 19.5366 17.3087 19.5366 17.3519C19.5031 17.3519 19.4697 17.3605 19.4446 17.3605C18.7 17.3605 17.9638 17.3605 17.2193 17.3605C17.1356 17.3605 17.1189 17.3346 17.1189 17.2569C17.1189 15.832 17.1189 14.4071 17.1189 12.9909C17.1189 12.6714 17.0771 12.3518 16.9516 12.0582C16.7843 11.6696 16.4914 11.4537 16.0815 11.4105C15.8389 11.3846 15.613 11.4019 15.3788 11.471C14.9856 11.5919 14.743 11.8682 14.6091 12.2568C14.5171 12.5159 14.4669 12.7836 14.4669 13.06C14.4586 14.4417 14.4586 15.8234 14.4502 17.2051C14.4502 17.2483 14.4586 17.2914 14.4586 17.3519Z" fill="white"/>
<path d="M8.16746 17.3519C8.16746 17.3174 8.1591 17.2914 8.1591 17.2655C8.1591 14.6835 8.1591 12.0928 8.1591 9.5107C8.1591 9.39844 8.15909 9.3898 8.26785 9.3898C8.99568 9.3898 9.7235 9.3898 10.4513 9.3898C10.5517 9.3898 10.5601 9.3898 10.5601 9.50206C10.5601 12.0841 10.5601 14.6748 10.5601 17.2569C10.5601 17.3087 10.5601 17.3519 10.4848 17.3519C9.73187 17.3519 8.97894 17.3519 8.22602 17.3519C8.21766 17.3605 8.20092 17.3605 8.16746 17.3519Z" fill="white"/>
<path d="M7.97505 6.89408C7.96668 6.11687 8.61085 5.43465 9.38887 5.45192C10.1418 5.46919 10.7609 6.09096 10.7692 6.88544C10.7692 7.68856 10.1753 8.3276 9.37214 8.33624C8.58575 8.34488 7.97505 7.6972 7.97505 6.89408Z" fill="white"/>
</g>
</svg>
