<svg width="79" height="23" viewBox="0 0 79 23" fill="none" xmlns="http://www.w3.org/2000/svg">
<mask id="mask0" mask-type="alpha" maskUnits="userSpaceOnUse" x="0" y="0" width="79" height="23">
<path d="M74.3 0H3.79999C1.69999 0 0 1.69999 0 3.79999V19.2C0 21.3 1.69999 23 3.79999 23H74.3C76.4 23 78.1 21.3 78.1 19.2V3.79999C78.1 1.69999 76.4 0 74.3 0Z" fill="#4367AF"/>
</mask>
<g mask="url(#mask0)">
<rect width="78" height="23" fill="#0274B3"/>
<path d="M30.1 14.9L28.2 16L27.7 15.2C27.8 15 27.9 14.8 27.9 14.7V10.1H26.3V9.20001H28.9V14.6L30.2 13.8V14.9H30.1ZM29.1 7.80005L28.3 8.40002C28 7.80002 27.5 7.20004 26.8 6.60004L27.4 6.10004C28.2 6.50004 28.7 7.10005 29.1 7.80005ZM36.5 9.10004H32.3C32.3 9.70004 32.3 10.3 32.3 10.8H35.7C35.6 12.2 35.5 13.4 35.3 14.4C35.1 15.4 34.9 16 34.7 16.2C34.5 16.4 34.2 16.6 33.9 16.6C33.6 16.6 33.1 16.5 32.5 16.4L32.2 15.4C33 15.6 33.5 15.7 33.7 15.7C33.8 15.7 33.8 15.7 33.9 15.6C34 15.5 34.1 15.1 34.3 14.3C34.5 13.5 34.5 12.6 34.6 11.7H32.1C31.9 13.9 31.1 15.6 29.6 16.9L28.9 16.2C29.5 15.7 30 15.2 30.3 14.5C30.7 13.8 30.9 13 31 12.2C31.1 11.4 31.2 10.4 31.2 9.20001H29.1V8.30005H36.2V9.10004H36.5ZM34.1 7.60004L33.3 8.20001C32.8 7.40001 32.2 6.90004 31.6 6.60004L32.2 6C33.1 6.4 33.7 6.90004 34.1 7.60004Z" fill="white"/>
<path d="M39.6 16.8H38.7V8.20001H39.6V16.8ZM42.1 7.90002L41.4 8.60004C41 8.00004 40.3 7.5 39.5 7L40.1 6.40002C40.9 6.80002 41.5 7.30002 42.1 7.90002ZM45.3 14.1H44.4V13.6H41.9V14.3H41V9.5H45.3V14.1ZM44.4 12.7V10.4H41.9V12.7H44.4ZM47.7 15.7C47.7 16 47.6 16.2 47.5 16.4C47.3 16.6 47.1 16.7 46.9 16.7H45.7L45.4 15.8H46.7C46.9 15.8 46.9 15.7 46.9 15.6V7.60004H42.7V6.70001H47.8V15.7H47.7Z" fill="white"/>
<path d="M60.5 14.3C60.4 15.9 60 16.7 59.5 16.7C59.2 16.7 58.8 16.5 58.4 16.1C58 15.7 57.6 15.2 57.2 14.6C56.6 15.1 55.8 15.6 54.9 16.1L54.1 15.4C55.3 14.8 56.2 14.3 56.8 13.7C56.5 12.9 56.3 11.9 56.1 10.7H53.8V12.4L55.7 11.9V12.8L53.8 13.3V15.8C53.8 16.1 53.7 16.3 53.5 16.5C53.3 16.7 52.9 16.7 52.5 16.7C52 16.7 51.7 16.7 51.5 16.7L51.2 15.8H52.7C52.9 15.8 53 15.7 53 15.5V13.5L50.9 14.1L50.2 13.2C51.1 13 52.1 12.8 53 12.6V10.6H50.5V9.70001H53V8C52.4 8.2 51.8 8.30005 51 8.30005L50.4 7.40002C52 7.40002 53.6 7.00004 55.1 6.10004L55.7 6.80005C54.8 7.30005 54.2 7.70005 53.9 7.80005V9.80005H56.1C56 9.00005 56 8.10001 56 7.20001C56 6.90001 56 6.50004 56 6.10004H56.9C56.9 7.60004 56.9 8.80005 57 9.80005H60.2V10.7H57.1C57.2 11.4 57.3 12.2 57.6 13C58.1 12.4 58.6 11.7 58.9 11L59.7 11.3C59.2 12.3 58.6 13.1 57.9 13.8C58 14 58.2 14.3 58.5 14.8C58.8 15.3 59.1 15.5 59.2 15.5C59.4 15.5 59.5 15 59.6 13.9L60.5 14.3ZM60 8.60004L59.2 9.30005C58.8 8.50005 58.1 7.80005 57.1 7.30005L57.9 6.60004C58.9 7.10004 59.6 7.80004 60 8.60004Z" fill="white"/>
<path d="M65.1 6.30005C65 6.70005 65 7.00002 64.9 7.40002C64.8 7.80002 64.8 8.10002 64.7 8.40002L64.4 9.30005V16.7H63.5V11.1C63.2 11.6 62.9 12.2 62.4 12.7L61.7 12.1C63.1 10.6 63.9 8.6 64.3 6L65.1 6.30005ZM67.6 8.20001L66.8 8.70001C66.4 7.90001 66 7.30005 65.4 6.80005L66.1 6.30005C66.9 6.80005 67.3 7.40001 67.6 8.20001ZM66.5 16.7H65.6V8.80005H66.5V16.7ZM72 15.8C72 16 71.9 16.2 71.7 16.4C71.5 16.6 71.1 16.6 70.5 16.6C70.3 16.6 70.1 16.6 69.8 16.6L69.5 15.7L70.9 15.8C71 15.8 71 15.7 71 15.5V7.70001H67.6V6.80005H71.9V15.8H72Z" fill="white"/>
<path d="M14.4586 17.3519C14.4167 17.3519 14.3916 17.3605 14.3665 17.3605C13.6303 17.3605 12.8942 17.3605 12.158 17.3605C12.0827 17.3605 12.0576 17.3346 12.0576 17.2569C12.0576 14.6748 12.0576 12.1014 12.0576 9.51935C12.0576 9.39845 12.0576 9.39845 12.1747 9.39845C12.8691 9.39845 13.5551 9.39845 14.2494 9.39845C14.3665 9.39845 14.3665 9.39845 14.3665 9.51935C14.3665 9.81296 14.3665 10.1066 14.3665 10.4002C14.3665 10.4261 14.3665 10.4606 14.3833 10.4952C14.3916 10.4779 14.4084 10.4693 14.4167 10.452C14.6259 10.0634 14.9354 9.77842 15.3035 9.56252C15.6967 9.338 16.115 9.22573 16.5667 9.2171C17.052 9.19983 17.5205 9.26028 17.9722 9.43299C18.2232 9.52798 18.4407 9.67479 18.6415 9.85614C19.0681 10.2534 19.2689 10.7629 19.3944 11.3156C19.4697 11.6696 19.5115 12.0323 19.5199 12.395C19.5282 12.6196 19.5366 12.8441 19.5366 13.06C19.5366 14.459 19.5366 15.8493 19.5366 17.2483C19.5366 17.2828 19.5366 17.3087 19.5366 17.3519C19.5032 17.3519 19.4697 17.3605 19.4446 17.3605C18.7 17.3605 17.9638 17.3605 17.2193 17.3605C17.1356 17.3605 17.1189 17.3346 17.1189 17.2569C17.1189 15.832 17.1189 14.4071 17.1189 12.9909C17.1189 12.6714 17.0771 12.3519 16.9516 12.0582C16.7843 11.6696 16.4915 11.4537 16.0815 11.4106C15.8389 11.3847 15.613 11.4019 15.3788 11.471C14.9856 11.5919 14.743 11.8683 14.6091 12.2569C14.5171 12.5159 14.4669 12.7836 14.4669 13.06C14.4586 14.4417 14.4586 15.8234 14.4502 17.2051C14.4502 17.2483 14.4586 17.2915 14.4586 17.3519Z" fill="white"/>
<path d="M8.16747 17.3519C8.16747 17.3174 8.1591 17.2915 8.1591 17.2656C8.1591 14.6835 8.1591 12.0928 8.1591 9.51072C8.1591 9.39845 8.1591 9.38982 8.26786 9.38982C8.99568 9.38982 9.72351 9.38982 10.4513 9.38982C10.5517 9.38982 10.5601 9.38982 10.5601 9.50208C10.5601 12.0842 10.5601 14.6749 10.5601 17.2569C10.5601 17.3087 10.5601 17.3519 10.4848 17.3519C9.73188 17.3519 8.97895 17.3519 8.22603 17.3519C8.21766 17.3606 8.20093 17.3606 8.16747 17.3519Z" fill="white"/>
<path d="M7.97506 6.89409C7.96669 6.11688 8.61086 5.43466 9.38888 5.45194C10.1418 5.46921 10.7609 6.09097 10.7692 6.88546C10.7692 7.68857 10.1753 8.32762 9.37215 8.33625C8.58576 8.34489 7.97506 7.69721 7.97506 6.89409Z" fill="white"/>
</g>
</svg>
