<svg width="148" height="23" viewBox="0 0 148 23" fill="none" xmlns="http://www.w3.org/2000/svg">
<mask id="mask0" mask-type="alpha" maskUnits="userSpaceOnUse" x="0" y="0" width="148" height="23">
<path d="M143.3 0H3.79999C1.69999 0 0 1.69999 0 3.79999V19.2C0 21.3 1.69999 23 3.79999 23H143.3C145.4 23 147.1 21.3 147.1 19.2V3.79999C147.1 1.69999 145.4 0 143.3 0Z" fill="#4367AF"/>
</mask>
<g mask="url(#mask0)">
<rect width="147" height="23" fill="#0274B3"/>
<path d="M30.4 11.9V10.4H34.3V13.9C33.9 14.3 33.4 14.6 32.7 14.9C32 15.2 31.3 15.3 30.5 15.3C29.6 15.3 28.8 15.1 28.1 14.7C27.4 14.3 26.9 13.8 26.5 13C26.2 12.3 26 11.5 26 10.6C26 9.70001 26.2 8.90001 26.6 8.10001C27 7.40001 27.6 6.80001 28.3 6.40001C28.9 6.10001 29.6 6 30.4 6C31.5 6 32.4 6.2 33 6.7C33.6 7.2 34 7.80001 34.2 8.60001L32.4 8.90001C32.3 8.50001 32 8.10001 31.7 7.90001C31.4 7.60001 30.9 7.5 30.4 7.5C29.6 7.5 29 7.7 28.5 8.2C28 8.7 27.8 9.40001 27.8 10.4C27.8 11.5 28 12.2 28.5 12.8C29 13.3 29.6 13.6 30.3 13.6C30.7 13.6 31.1 13.5 31.4 13.4C31.8 13.3 32.1 13.1 32.4 12.9V11.8H30.4V11.9Z" fill="white"/>
<path d="M37.6 6.29999V9.59999C38.1 8.99999 38.8 8.59999 39.6 8.59999C40 8.59999 40.3 8.69999 40.7 8.79999C41 8.89999 41.3 9.09999 41.4 9.39999C41.6 9.59999 41.7 9.89998 41.7 10.2C41.8 10.5 41.8 10.9 41.8 11.5V15.3H40.1V11.9C40.1 11.2 40.1 10.8 40 10.6C39.9 10.4 39.8 10.3 39.7 10.2C39.5 10.1 39.3 9.99998 39.1 9.99998C38.8 9.99998 38.6 10.1 38.3 10.2C38.1 10.3 37.9 10.5 37.8 10.8C37.7 11.1 37.6 11.5 37.6 12V15.2H35.9V6.29999H37.6Z" fill="white"/>
<path d="M47.2 13.1L48.9 13.4C48.7 14 48.3 14.5 47.9 14.8C47.4 15.1 46.8 15.3 46.1 15.3C45 15.3 44.2 14.9 43.6 14.2C43.2 13.6 43 12.9 43 12C43 10.9 43.3 10.1 43.8 9.5C44.4 8.9 45.1 8.60001 45.9 8.60001C46.9 8.60001 47.6 8.9 48.2 9.5C48.8 10.1 49 11.1 49 12.4H44.7C44.7 12.9 44.8 13.3 45.1 13.6C45.4 13.9 45.7 14 46.1 14C46.4 14 46.6 13.9 46.8 13.8C47 13.6 47.1 13.4 47.2 13.1ZM47.3 11.4C47.3 10.9 47.2 10.5 46.9 10.3C46.7 10 46.4 9.90001 46 9.90001C45.6 9.90001 45.3 10 45.1 10.3C44.9 10.6 44.7 10.9 44.7 11.4H47.3ZM45.2 7.90001L46 6.10001H47.9L46.2 7.90001H45.2Z" fill="white"/>
<path d="M56.8 8.69998V10.1H55.6V12.7C55.6 13.2 55.6 13.5 55.6 13.6C55.6 13.7 55.7 13.8 55.8 13.8C55.9 13.9 56 13.9 56.1 13.9C56.3 13.9 56.5 13.8 56.8 13.7L56.9 15C56.5 15.2 56.1 15.3 55.6 15.3C55.3 15.3 55 15.2 54.8 15.1C54.6 15 54.4 14.9 54.3 14.7C54.2 14.5 54.1 14.3 54.1 14C54.1 13.8 54 13.4 54 12.8V9.99998H53.2V8.59999H54V7.29999L55.7 6.29999V8.59999H56.8V8.69998Z" fill="white"/>
<path d="M59.7 6.29999V9.59999C60.2 8.99999 60.9 8.59999 61.7 8.59999C62.1 8.59999 62.4 8.69999 62.8 8.79999C63.1 8.89999 63.4 9.09999 63.5 9.39999C63.7 9.59999 63.8 9.89998 63.8 10.2C63.9 10.5 63.9 10.9 63.9 11.5V15.3H62.1V11.9C62.1 11.2 62.1 10.8 62 10.6C61.9 10.4 61.8 10.3 61.7 10.2C61.5 10.1 61.3 9.99998 61.1 9.99998C60.8 9.99998 60.6 10.1 60.3 10.2C60.1 10.3 59.9 10.5 59.8 10.8C59.7 11.1 59.6 11.5 59.6 12V15.2H57.9V6.29999H59.7Z" fill="white"/>
<path d="M66.8 10.7L65.3 10.4C65.5 9.80001 65.8 9.3 66.2 9C66.6 8.7 67.3 8.60001 68.1 8.60001C68.9 8.60001 69.4 8.70001 69.8 8.90001C70.2 9.10001 70.4 9.30001 70.6 9.60001C70.8 9.90001 70.8 10.4 70.8 11.1V13.1C70.8 13.7 70.8 14.1 70.9 14.4C71 14.7 71.1 15 71.2 15.3H69.5C69.5 15.2 69.4 15 69.3 14.8C69.3 14.7 69.3 14.6 69.2 14.6C68.9 14.9 68.6 15.1 68.3 15.2C68 15.3 67.6 15.4 67.2 15.4C66.5 15.4 66 15.2 65.6 14.9C65.2 14.5 65 14.1 65 13.5C65 13.1 65.1 12.8 65.3 12.5C65.5 12.2 65.7 12 66 11.8C66.3 11.6 66.8 11.5 67.4 11.4C68.2 11.3 68.7 11.1 69.1 11V10.8C69.1 10.5 69 10.2 68.9 10.1C68.7 10 68.4 9.90001 68 9.90001C67.7 9.90001 67.5 10 67.3 10.1C67.1 10.2 66.9 10.4 66.8 10.7ZM69.2 6.10001H70C70 6.60001 69.8 7.10001 69.4 7.40001C69.1 7.70001 68.6 7.90001 68.1 7.90001C67.6 7.90001 67.1 7.70001 66.8 7.40001C66.5 7.10001 66.3 6.70001 66.2 6.10001H67C67 6.40001 67.1 6.6 67.3 6.8C67.5 6.9 67.7 7 68.1 7C68.4 7 68.7 6.9 68.9 6.8C69 6.6 69.1 6.40001 69.2 6.10001ZM69.1 12C68.9 12.1 68.5 12.2 68.1 12.3C67.6 12.4 67.3 12.5 67.2 12.6C67 12.8 66.9 13 66.9 13.2C66.9 13.4 67 13.6 67.2 13.8C67.4 14 67.6 14.1 67.9 14.1C68.2 14.1 68.5 14 68.8 13.8C69 13.6 69.1 13.5 69.2 13.2C69.2 13.1 69.3 12.8 69.3 12.4V12H69.1Z" fill="white"/>
<path d="M72.3 8.7H73.9V9.60001C74.5 8.90001 75.1 8.60001 75.9 8.60001C76.3 8.60001 76.7 8.70001 77 8.90001C77.3 9.10001 77.6 9.3 77.7 9.7C78 9.4 78.3 9.10001 78.6 8.90001C78.9 8.70001 79.3 8.60001 79.6 8.60001C80.1 8.60001 80.5 8.70001 80.8 8.90001C81.1 9.10001 81.4 9.4 81.5 9.7C81.6 10 81.7 10.4 81.7 11V15.1H80.1V11.4C80.1 10.8 80 10.3 79.9 10.2C79.7 10 79.5 9.8 79.2 9.8C79 9.8 78.7 9.9 78.5 10C78.3 10.1 78.1 10.4 78 10.6C77.9 10.9 77.9 11.3 77.9 11.9V15H76.2V11.5C76.2 10.9 76.2 10.5 76.1 10.3C76 10.1 75.9 10 75.8 9.90001C75.7 9.80001 75.5 9.8 75.3 9.8C75 9.8 74.8 9.9 74.6 10C74.4 10.1 74.2 10.3 74.1 10.6C74 10.9 74 11.3 74 11.9V15H72.3V8.7Z" fill="white"/>
<path d="M92.5 10.6L90.8 10.9C90.7 10.6 90.6 10.3 90.4 10.1C90.2 9.90002 89.9 9.80002 89.6 9.80002C89.2 9.80002 88.8 9.90001 88.6 10.2C88.3 10.5 88.2 11 88.2 11.7C88.2 12.5 88.3 13 88.6 13.3C88.9 13.6 89.2 13.8 89.6 13.8C89.9 13.8 90.2 13.7 90.4 13.5C90.6 13.3 90.8 13 90.8 12.6L92.5 12.9C92.3 13.7 92 14.2 91.5 14.6C91 15 90.3 15.2 89.5 15.2C88.6 15.2 87.8 14.9 87.2 14.3C86.6 13.7 86.4 12.9 86.4 11.8C86.4 10.7 86.7 9.90002 87.2 9.30002C87.8 8.70002 88.5 8.40002 89.5 8.40002C90.3 8.40002 90.9 8.60002 91.4 8.90002C92 9.40002 92.3 9.90002 92.5 10.6Z" fill="white"/>
<path d="M95.5 6.29999V9.59999C96 8.99999 96.7 8.59999 97.5 8.59999C97.9 8.59999 98.2 8.69999 98.6 8.79999C98.9 8.89999 99.2 9.09999 99.3 9.39999C99.5 9.59999 99.6 9.89998 99.6 10.2C99.7 10.5 99.7 10.9 99.7 11.5V15.3H98V11.9C98 11.2 98 10.8 97.9 10.6C97.8 10.4 97.7 10.3 97.6 10.2C97.4 10.1 97.2 9.99998 97 9.99998C96.7 9.99998 96.5 10.1 96.2 10.2C96 10.3 95.8 10.5 95.7 10.8C95.6 11.1 95.5 11.5 95.5 12V15.2H93.8V6.29999H95.5Z" fill="white"/>
<path d="M105.7 15.1V14.1C105.5 14.4 105.2 14.7 104.8 14.9C104.4 15.1 104 15.2 103.6 15.2C103.2 15.2 102.8 15.1 102.4 14.9C102.1 14.7 101.8 14.4 101.7 14.1C101.5 13.8 101.5 13.3 101.5 12.7V8.60001H103.2V11.6C103.2 12.5 103.2 13.1 103.3 13.3C103.4 13.5 103.5 13.7 103.6 13.8C103.8 13.9 104 14 104.2 14C104.5 14 104.8 13.9 105 13.8C105.2 13.6 105.4 13.4 105.5 13.2C105.6 13 105.6 12.4 105.6 11.5V8.8H107.3V15.2H105.7V15.1ZM103.4 7.90001L104.2 6.10001H106.1L104.4 7.90001H103.4Z" fill="white"/>
<path d="M114.8 15.1H113.1V11.8C113.1 11.1 113.1 10.7 113 10.5C112.9 10.3 112.8 10.1 112.6 10C112.4 9.90002 112.2 9.80002 112 9.80002C111.7 9.80002 111.4 9.90002 111.2 10C111 10.2 110.8 10.4 110.7 10.6C110.6 10.9 110.6 11.4 110.6 12.1V15H108.9V8.60002H110.5V9.50002C111.1 8.80002 111.8 8.40002 112.6 8.40002C113 8.40002 113.3 8.50002 113.6 8.60002C113.9 8.70002 114.1 8.90002 114.3 9.10002C114.5 9.30002 114.6 9.50002 114.6 9.80002C114.7 10.1 114.7 10.4 114.7 10.9V15.1H114.8Z" fill="white"/>
<path d="M116.4 15.6L118.3 15.8C118.3 16 118.4 16.2 118.5 16.3C118.7 16.4 118.9 16.5 119.3 16.5C119.7 16.5 120.1 16.4 120.3 16.3C120.4 16.2 120.6 16.1 120.6 15.9C120.7 15.8 120.7 15.5 120.7 15.1V14.2C120.2 14.9 119.5 15.2 118.8 15.2C117.9 15.2 117.3 14.8 116.7 14.1C116.3 13.5 116.1 12.8 116.1 11.9C116.1 10.8 116.4 10 116.9 9.40001C117.4 8.80001 118.1 8.5 118.8 8.5C119.6 8.5 120.3 8.8 120.8 9.5V8.60001H122.4V14.4C122.4 15.2 122.3 15.7 122.2 16.1C122.1 16.5 121.9 16.8 121.7 17C121.5 17.2 121.2 17.4 120.8 17.5C120.4 17.6 119.9 17.7 119.4 17.7C118.3 17.7 117.5 17.5 117.1 17.1C116.6 16.7 116.4 16.3 116.4 15.7V15.6ZM117.9 11.8C117.9 12.5 118 13 118.3 13.3C118.6 13.6 118.9 13.8 119.3 13.8C119.7 13.8 120.1 13.6 120.4 13.3C120.7 13 120.8 12.5 120.8 11.9C120.8 11.2 120.7 10.7 120.4 10.4C120.1 10.1 119.8 9.90001 119.4 9.90001C119 9.90001 118.7 10.1 118.4 10.4C118.1 10.6 117.9 11.1 117.9 11.8Z" fill="white"/>
<path d="M130.5 8.69998V10.1H129.3V12.7C129.3 13.2 129.3 13.5 129.3 13.6C129.3 13.7 129.4 13.8 129.5 13.8C129.6 13.9 129.7 13.9 129.8 13.9C130 13.9 130.2 13.8 130.5 13.7L130.6 15C130.2 15.2 129.8 15.3 129.3 15.3C129 15.3 128.7 15.2 128.5 15.1C128.3 15 128.1 14.9 128 14.7C127.9 14.5 127.8 14.3 127.8 14C127.8 13.8 127.7 13.4 127.7 12.8V9.99998H126.9V8.59999H127.7V7.29999L129.4 6.29999V8.59999H130.5V8.69998Z" fill="white"/>
<path d="M131.3 11.8C131.3 11.2 131.4 10.7 131.7 10.2C132 9.7 132.4 9.3 132.9 9C133.4 8.7 134 8.60001 134.6 8.60001C135.6 8.60001 136.4 8.9 137 9.5C137.6 10.1 137.9 10.9 137.9 11.9C137.9 12.9 137.6 13.7 137 14.3C136.4 14.9 135.6 15.3 134.6 15.3C134 15.3 133.4 15.2 132.9 14.9C132.4 14.6 132 14.2 131.7 13.7C131.5 13.2 131.3 12.6 131.3 11.8ZM132.6 7.90001L133.9 6.10001H135.5L136.8 7.90001H135.4L134.7 7L134 7.90001H132.6ZM133.1 11.9C133.1 12.5 133.3 13 133.6 13.4C133.9 13.7 134.3 13.9 134.7 13.9C135.1 13.9 135.5 13.7 135.8 13.4C136.1 13.1 136.3 12.6 136.3 11.9C136.3 11.3 136.1 10.8 135.8 10.4C135.5 10.1 135.1 9.90001 134.7 9.90001C134.3 9.90001 133.9 10.1 133.6 10.4C133.2 10.8 133.1 11.3 133.1 11.9Z" fill="white"/>
<path d="M139.3 7.79999V6.29999H141V7.89999H139.3V7.79999ZM139.3 15.1V8.69998H141V15.1H139.3Z" fill="white"/>
<path d="M14.4586 17.3519C14.4167 17.3519 14.3916 17.3605 14.3665 17.3605C13.6303 17.3605 12.8942 17.3605 12.158 17.3605C12.0827 17.3605 12.0576 17.3346 12.0576 17.2569C12.0576 14.6748 12.0576 12.1014 12.0576 9.51932C12.0576 9.39842 12.0576 9.39842 12.1747 9.39842C12.8691 9.39842 13.5551 9.39842 14.2494 9.39842C14.3665 9.39842 14.3665 9.39842 14.3665 9.51932C14.3665 9.81293 14.3665 10.1065 14.3665 10.4002C14.3665 10.4261 14.3665 10.4606 14.3833 10.4951C14.3916 10.4779 14.4084 10.4692 14.4167 10.452C14.6259 10.0634 14.9354 9.77839 15.3035 9.56249C15.6967 9.33797 16.115 9.2257 16.5667 9.21707C17.052 9.19979 17.5205 9.26024 17.9722 9.43296C18.2232 9.52795 18.4407 9.67476 18.6415 9.85611C19.0681 10.2533 19.2689 10.7629 19.3944 11.3155C19.4697 11.6696 19.5115 12.0323 19.5199 12.395C19.5282 12.6195 19.5366 12.8441 19.5366 13.0599C19.5366 14.4589 19.5366 15.8493 19.5366 17.2482C19.5366 17.2828 19.5366 17.3087 19.5366 17.3519C19.5032 17.3519 19.4697 17.3605 19.4446 17.3605C18.7 17.3605 17.9638 17.3605 17.2193 17.3605C17.1356 17.3605 17.1189 17.3346 17.1189 17.2569C17.1189 15.832 17.1189 14.4071 17.1189 12.9909C17.1189 12.6713 17.0771 12.3518 16.9516 12.0582C16.7843 11.6696 16.4915 11.4537 16.0815 11.4105C15.8389 11.3846 15.613 11.4019 15.3788 11.471C14.9856 11.5919 14.743 11.8682 14.6091 12.2568C14.5171 12.5159 14.4669 12.7836 14.4669 13.0599C14.4586 14.4417 14.4586 15.8234 14.4502 17.2051C14.4502 17.2482 14.4586 17.2914 14.4586 17.3519Z" fill="white"/>
<path d="M8.16747 17.3519C8.16747 17.3174 8.1591 17.2915 8.1591 17.2655C8.1591 14.6835 8.1591 12.0928 8.1591 9.5107C8.1591 9.39844 8.1591 9.3898 8.26786 9.3898C8.99568 9.3898 9.72351 9.3898 10.4513 9.3898C10.5517 9.3898 10.5601 9.3898 10.5601 9.50207C10.5601 12.0841 10.5601 14.6748 10.5601 17.2569C10.5601 17.3087 10.5601 17.3519 10.4848 17.3519C9.73188 17.3519 8.97895 17.3519 8.22603 17.3519C8.21766 17.3605 8.20093 17.3605 8.16747 17.3519Z" fill="white"/>
<path d="M7.97506 6.89408C7.96669 6.11687 8.61086 5.43465 9.38888 5.45192C10.1418 5.46919 10.7609 6.09096 10.7692 6.88544C10.7692 7.68856 10.1753 8.3276 9.37215 8.33624C8.58576 8.34487 7.97506 7.6972 7.97506 6.89408Z" fill="white"/>
</g>
</svg>
