<svg width="105" height="23" viewBox="0 0 105 23" fill="none" xmlns="http://www.w3.org/2000/svg">
<mask id="mask0" mask-type="alpha" maskUnits="userSpaceOnUse" x="0" y="0" width="105" height="23">
<path d="M100.3 0H3.8C1.7 0 0 1.69999 0 3.79999V19.2C0 21.3 1.7 23 3.8 23H100.3C102.4 23 104.1 21.3 104.1 19.2V3.79999C104.1 1.69999 102.4 0 100.3 0Z" fill="#4367AF"/>
</mask>
<g mask="url(#mask0)">
<rect x="-1" width="105" height="23" fill="#0274B3"/>
<path d="M25.9 11.8C26.9 10.8 28.8 8.59999 29.5 7.79999C29.8 7.49999 30.2 7.29999 30.5 7.29999C30.8 7.29999 31.2 7.49999 31.5 7.79999C33.1 9.29999 35.7 12.2 37.6 14.6L36.8 15.3C35 12.8 32.4 9.90001 31 8.60001C30.8 8.40001 30.6 8.29999 30.5 8.29999C30.3 8.29999 30.2 8.40001 30 8.60001C29.4 9.20001 27.6 11.3 26.7 12.2V12.3C26.7 12.4 26.7 12.5 26.6 12.6L25.9 11.8ZM35.4 5.5C36.2 5.5 36.8 6.09999 36.8 6.89999C36.8 7.69999 36.2 8.29999 35.4 8.29999C34.6 8.29999 34 7.69999 34 6.89999C34 6.09999 34.6 5.5 35.4 5.5ZM36.4 6.89999C36.4 6.29999 36 5.89999 35.4 5.89999C34.8 5.89999 34.4 6.39999 34.4 6.89999C34.4 7.39999 34.9 7.89999 35.4 7.89999C35.9 7.89999 36.4 7.39999 36.4 6.89999Z" fill="white"/>
<path d="M38.9 10.4H49.4V11.3H39.4C39.3 11.4 39.2 11.5 39 11.5L38.9 10.4Z" fill="white"/>
<path d="M51.3 9.29999C52.4 9.59999 53.8 9.99999 54.7 10.4L54.3 11.2C53.5 10.8 52 10.3 50.9 10L51.3 9.29999ZM52 15.4C56 14 58.9 11.8 60.5 8.10001C60.7 8.30001 61.1 8.50001 61.3 8.70001C59.6 12.4 56.7 14.8 52.9 16.1C52.9 16.2 52.9 16.4 52.8 16.4L52 15.4ZM52.6 6.20001C53.7 6.50001 55.1 6.99999 56 7.39999L55.6 8.20001C54.7 7.70001 53.4 7.19999 52.3 6.89999L52.6 6.20001ZM58.5 5.79999C59 6.19999 59.7 7.00001 60.1 7.60001L59.6 8C59.2 7.5 58.5 6.60001 58 6.20001L58.5 5.79999ZM60.2 5C60.7 5.4 61.4 6.19999 61.8 6.79999L61.3 7.20001C60.9 6.60001 60.2 5.79999 59.7 5.39999L60.2 5Z" fill="white"/>
<path d="M73.4 10.6C73.4 10.7 73.4 10.7 73.4 10.6C73.2 10.6 73.2 10.6 73.1 10.5C72.1 10.8 70.8 11.3 69.7 11.8C69.7 12.1 69.7 12.4 69.7 12.8C69.7 13.2 69.7 13.7 69.7 14.1H68.8C68.8 13.6 68.9 13.1 68.9 12.6C68.9 12.4 68.9 12.2 68.9 12.1C67.5 12.8 66.3 13.6 66.3 14.4C66.3 15.1 67.2 15.5 68.9 15.5C70.1 15.5 71.2 15.5 72 15.4V16.2C71.3 16.3 70.1 16.3 68.8 16.3C66.4 16.3 65.3 15.7 65.3 14.4C65.3 13.3 66.8 12.2 68.6 11.3C68.5 10.5 68.2 10.1 67.7 10.1C66.8 10.1 65.8 10.6 64.7 11.9C64.3 12.3 63.9 12.8 63.3 13.3L62.7 12.7C64 11.6 65.1 10.5 65.9 8.10001H65.2H63.1V7.29999C63.9 7.29999 64.8 7.29999 65.3 7.29999H66.2C66.3 6.69999 66.5 6.2 66.5 5.5L67.7 5.60001C67.7 5.70001 67.6 5.79999 67.4 5.79999C67.3 6.29999 67.2 6.70001 67.1 7.20001C68 7.20001 69.8 7 71.4 6.5L71.5 7.29999C69.9 7.79999 68 8 66.8 8C66.5 8.9 66.2 9.70001 65.9 10.1C66.5 9.60001 67.3 9.29999 67.9 9.29999C68.8 9.29999 69.3 9.89999 69.5 10.9C70.6 10.4 71.9 9.9 72.9 9.5L73.4 10.6Z" fill="white"/>
<path d="M79.3 7.39999V8.10001H74.6V7.39999H79.3ZM79 16.2H76V16.8H75.2V12.5H79V16.2ZM79 9.10001V9.79999H75.2V9.10001H79ZM75.3 11.5V10.8H79.1V11.5H75.3ZM79 5.70001V6.39999H75.3V5.70001H79ZM78.3 13.2H76V15.5H78.3V13.2ZM86.4 8.5H82.4C82.4 9.2 82.3 9.90001 82.3 10.6H85.1H85.3L85.8 10.7C85.8 10.8 85.8 10.9 85.8 11C85.6 14.9 85.5 16.2 85.1 16.6C84.8 16.9 84.6 17 83.7 17C83.4 17 83 17 82.6 17C82.6 16.8 82.5 16.4 82.3 16.2C83 16.3 83.7 16.3 83.9 16.3C84.1 16.3 84.3 16.3 84.4 16.2C84.7 15.9 84.8 14.7 85 11.5H82.3C82 13.7 81.4 15.8 79.8 17.2C79.6 17 79.4 16.7 79.2 16.6C81.4 14.9 81.6 11.6 81.7 8.70001H79.7V7.89999H82.8V5.5L83.9 5.60001C83.9 5.70001 83.8 5.79999 83.6 5.79999V7.89999H86.6V8.5H86.4Z" fill="white"/>
<path d="M92.4 10.3H88.7V17H87.9V5.89999H92.4V10.3ZM91.6 6.5H88.7V7.70001H91.6V6.5ZM88.7 9.60001H91.6V8.29999H88.7V9.60001ZM95.4 15.1H91.5V15.9H90.7V11.5H95.4V15.1ZM94.6 12.2H91.5V14.4H94.6V12.2ZM98.3 5.79999V15.7C98.3 16.3 98.1 16.6 97.8 16.7C97.4 16.9 96.7 16.9 95.6 16.9C95.6 16.7 95.4 16.3 95.3 16C95.7 16 96.2 16 96.5 16C97.5 16 97.6 16 97.6 15.7V10.2H93.8V5.79999H98.3ZM97.4 6.5H94.4V7.70001H97.4V6.5ZM94.4 9.60001H97.4V8.29999H94.4V9.60001Z" fill="white"/>
<path d="M14.4586 17.3519C14.4167 17.3519 14.3916 17.3605 14.3665 17.3605C13.6303 17.3605 12.8941 17.3605 12.158 17.3605C12.0827 17.3605 12.0576 17.3346 12.0576 17.2569C12.0576 14.6748 12.0576 12.1014 12.0576 9.51933C12.0576 9.39843 12.0576 9.39843 12.1747 9.39843C12.8691 9.39843 13.555 9.39843 14.2494 9.39843C14.3665 9.39843 14.3665 9.39843 14.3665 9.51933C14.3665 9.81294 14.3665 10.1066 14.3665 10.4002C14.3665 10.4261 14.3665 10.4606 14.3833 10.4952C14.3916 10.4779 14.4084 10.4693 14.4167 10.452C14.6259 10.0634 14.9354 9.7784 15.3035 9.56251C15.6967 9.33798 16.115 9.22572 16.5667 9.21708C17.052 9.19981 17.5204 9.26026 17.9722 9.43297C18.2232 9.52797 18.4407 9.67477 18.6415 9.85612C19.0681 10.2534 19.2689 10.7629 19.3944 11.3156C19.4697 11.6696 19.5115 12.0323 19.5199 12.395C19.5282 12.6195 19.5366 12.8441 19.5366 13.06C19.5366 14.4589 19.5366 15.8493 19.5366 17.2483C19.5366 17.2828 19.5366 17.3087 19.5366 17.3519C19.5031 17.3519 19.4697 17.3605 19.4446 17.3605C18.7 17.3605 17.9638 17.3605 17.2193 17.3605C17.1356 17.3605 17.1189 17.3346 17.1189 17.2569C17.1189 15.832 17.1189 14.4071 17.1189 12.9909C17.1189 12.6714 17.0771 12.3518 16.9516 12.0582C16.7843 11.6696 16.4914 11.4537 16.0815 11.4105C15.8389 11.3846 15.613 11.4019 15.3788 11.471C14.9856 11.5919 14.743 11.8682 14.6091 12.2568C14.5171 12.5159 14.4669 12.7836 14.4669 13.06C14.4586 14.4417 14.4586 15.8234 14.4502 17.2051C14.4502 17.2483 14.4586 17.2914 14.4586 17.3519Z" fill="white"/>
<path d="M8.16746 17.3519C8.16746 17.3174 8.1591 17.2915 8.1591 17.2655C8.1591 14.6835 8.1591 12.0928 8.1591 9.5107C8.1591 9.39844 8.15909 9.3898 8.26785 9.3898C8.99568 9.3898 9.7235 9.3898 10.4513 9.3898C10.5517 9.3898 10.5601 9.3898 10.5601 9.50207C10.5601 12.0841 10.5601 14.6748 10.5601 17.2569C10.5601 17.3087 10.5601 17.3519 10.4848 17.3519C9.73187 17.3519 8.97894 17.3519 8.22602 17.3519C8.21766 17.3605 8.20092 17.3605 8.16746 17.3519Z" fill="white"/>
<path d="M7.97505 6.89408C7.96668 6.11687 8.61085 5.43465 9.38887 5.45192C10.1418 5.4692 10.7609 6.09096 10.7692 6.88545C10.7692 7.68856 10.1753 8.32761 9.37214 8.33624C8.58575 8.34488 7.97505 7.6972 7.97505 6.89408Z" fill="white"/>
</g>
</svg>
