<svg width="108" height="23" viewBox="0 0 108 23" fill="none" xmlns="http://www.w3.org/2000/svg">
<mask id="mask0" mask-type="alpha" maskUnits="userSpaceOnUse" x="0" y="0" width="108" height="23">
<path d="M103.3 0H3.79999C1.69999 0 0 1.69999 0 3.79999V19.2C0 21.3 1.69999 23 3.79999 23H103.3C105.4 23 107.1 21.3 107.1 19.2V3.79999C107.1 1.69999 105.4 0 103.3 0Z" fill="#4367AF"/>
</mask>
<g mask="url(#mask0)">
<rect width="107" height="23" fill="#0274B3"/>
<path d="M25.9 11.7C25.9 10.8 26 9.99999 26.3 9.39999C26.5 8.89999 26.8 8.50001 27.1 8.20001C27.4 7.80001 27.8 7.59999 28.2 7.39999C28.8 7.19999 29.4 7 30.1 7C31.4 7 32.5 7.40001 33.2 8.20001C34 9.00001 34.4 10.1 34.4 11.6C34.4 13 34 14.2 33.2 15C32.4 15.8 31.4 16.2 30.1 16.2C28.8 16.2 27.7 15.8 27 15C26.3 14.3 25.9 13.2 25.9 11.7ZM27.8 11.7C27.8 12.7 28 13.5 28.5 14C29 14.5 29.6 14.8 30.3 14.8C31 14.8 31.6 14.5 32.1 14C32.6 13.5 32.8 12.7 32.8 11.7C32.8 10.7 32.6 9.89999 32.1 9.39999C31.7 8.89999 31.1 8.60001 30.3 8.60001C29.6 8.60001 29 8.89999 28.5 9.39999C28 9.89999 27.8 10.7 27.8 11.7Z" fill="white"/>
<path d="M41.8 16.1H40.2V15.2C39.9 15.6 39.6 15.8 39.3 16C38.9 16.2 38.6 16.3 38.2 16.3C37.5 16.3 36.8 16 36.3 15.4C35.8 14.8 35.5 14 35.5 12.9C35.5 11.8 35.8 11 36.3 10.4C36.8 9.79999 37.5 9.5 38.2 9.5C38.9 9.5 39.5 9.79999 40.1 10.4V7.20001H41.8V16.1ZM37.3 12.8C37.3 13.5 37.4 14 37.6 14.3C37.9 14.7 38.3 15 38.8 15C39.2 15 39.5 14.8 39.8 14.5C40.1 14.2 40.2 13.7 40.2 13C40.2 12.3 40.1 11.7 39.8 11.4C39.5 11.1 39.2 10.9 38.8 10.9C38.4 10.9 38.1 11.1 37.8 11.4C37.4 11.7 37.3 12.1 37.3 12.8Z" fill="white"/>
<path d="M44.7 16.1L42.7 9.70001H44.4L45.6 13.9L46.7 9.70001H48.3L49.4 13.9L50.6 9.70001H52.3L50.2 16.1H48.6L47.5 12L46.4 16.1H44.7Z" fill="white"/>
<path d="M53.2 8.79999V7.20001H54.9V8.79999H53.2ZM53.2 16.1V9.70001H54.9V16.1H53.2Z" fill="white"/>
<path d="M60.3 14.1L62 14.4C61.8 15 61.4 15.5 61 15.8C60.5 16.1 59.9 16.3 59.2 16.3C58.1 16.3 57.3 15.9 56.7 15.2C56.3 14.6 56.1 13.9 56.1 13C56.1 11.9 56.4 11.1 56.9 10.5C57.5 9.9 58.2 9.60001 59 9.60001C60 9.60001 60.7 9.9 61.3 10.5C61.9 11.1 62.1 12.1 62.1 13.4H57.8C57.8 13.9 57.9 14.3 58.2 14.6C58.5 14.9 58.8 15 59.2 15C59.5 15 59.7 14.9 59.9 14.8C60.1 14.6 60.2 14.4 60.3 14.1ZM60.4 12.4C60.4 11.9 60.3 11.5 60 11.3C59.8 11 59.5 10.9 59.1 10.9C58.7 10.9 58.4 11 58.2 11.3C58 11.6 57.8 11.9 57.8 12.4H60.4Z" fill="white"/>
<path d="M69.4 16.1H67.8V15.2C67.5 15.6 67.2 15.8 66.9 16C66.5 16.2 66.2 16.3 65.8 16.3C65.1 16.3 64.4 16 63.9 15.4C63.4 14.8 63.1 14 63.1 12.9C63.1 11.8 63.4 11 63.9 10.4C64.4 9.79999 65.1 9.5 65.8 9.5C66.5 9.5 67.1 9.79999 67.7 10.4V7.20001H69.4V16.1ZM64.9 12.8C64.9 13.5 65 14 65.2 14.3C65.5 14.7 65.9 15 66.4 15C66.8 15 67.1 14.8 67.4 14.5C67.7 14.2 67.8 13.7 67.8 13C67.8 12.3 67.7 11.7 67.4 11.4C67.1 11.1 66.8 10.9 66.4 10.9C66 10.9 65.7 11.1 65.4 11.4C65 11.7 64.9 12.1 64.9 12.8Z" fill="white"/>
<path d="M70.4 16.1V14.8L72.8 12C73.2 11.5 73.5 11.2 73.7 11C73.5 11 73.2 11 72.9 11H70.6V9.60001H75.9V10.8L73.4 13.6L72.5 14.5C73 14.5 73.3 14.5 73.4 14.5H76V16H70.4V16.1ZM72.1 8.89999L72.9 7.10001H74.8L73.1 8.89999H72.1Z" fill="white"/>
<path d="M86.6 16.1H84.9V12.8C84.9 12.1 84.9 11.7 84.8 11.5C84.7 11.3 84.6 11.1 84.4 11C84.2 10.9 84 10.8 83.8 10.8C83.5 10.8 83.2 10.9 83 11C82.8 11.2 82.6 11.4 82.5 11.6C82.4 11.9 82.4 12.4 82.4 13.1V16H80.7V9.60001H82.3V10.5C82.9 9.8 83.6 9.39999 84.4 9.39999C84.8 9.39999 85.1 9.50001 85.4 9.60001C85.7 9.70001 85.9 9.90001 86.1 10.1C86.3 10.3 86.4 10.5 86.4 10.8C86.5 11.1 86.5 11.4 86.5 11.9V16.1H86.6Z" fill="white"/>
<path d="M89.6 11.7L88.1 11.4C88.3 10.8 88.6 10.3 89 10C89.4 9.7 90.1 9.60001 90.9 9.60001C91.7 9.60001 92.2 9.69999 92.6 9.89999C93 10.1 93.2 10.3 93.4 10.6C93.6 10.9 93.6 11.4 93.6 12.1V14.1C93.6 14.7 93.6 15.1 93.7 15.4C93.8 15.7 93.9 16 94 16.3H92.3C92.3 16.2 92.2 16 92.1 15.8C92.1 15.7 92.1 15.6 92 15.6C91.7 15.9 91.4 16.1 91.1 16.2C90.8 16.3 90.4 16.4 90 16.4C89.3 16.4 88.8 16.2 88.4 15.9C88 15.5 87.8 15.1 87.8 14.5C87.8 14.1 87.9 13.8 88.1 13.5C88.3 13.2 88.5 13 88.8 12.8C89.1 12.6 89.6 12.5 90.2 12.4C91 12.3 91.5 12.1 91.9 12V11.8C91.9 11.5 91.8 11.2 91.7 11.1C91.5 11 91.2 10.9 90.8 10.9C90.5 10.9 90.3 11 90.1 11.1C89.8 11.1 89.7 11.4 89.6 11.7ZM91.9 13C91.7 13.1 91.3 13.2 90.9 13.3C90.5 13.4 90.1 13.5 90 13.6C89.8 13.8 89.7 14 89.7 14.2C89.7 14.4 89.8 14.6 90 14.8C90.2 15 90.4 15.1 90.7 15.1C91 15.1 91.3 15 91.6 14.8C91.8 14.6 91.9 14.5 92 14.2C92 14.1 92.1 13.8 92.1 13.4V13H91.9Z" fill="white"/>
<path d="M94.6 14.3L96.3 14C96.4 14.3 96.5 14.6 96.7 14.8C96.9 15 97.2 15.1 97.6 15.1C98 15.1 98.4 15 98.6 14.9C98.8 14.8 98.8 14.6 98.8 14.4C98.8 14.3 98.8 14.2 98.7 14.1C98.6 14 98.4 13.9 98.1 13.9C96.7 13.6 95.9 13.3 95.5 13.1C95 12.8 94.7 12.3 94.7 11.7C94.7 11.1 94.9 10.7 95.4 10.3C95.9 9.89999 96.5 9.70001 97.4 9.70001C98.3 9.70001 98.9 9.80001 99.4 10.1C99.8 10.4 100.1 10.8 100.3 11.4L98.7 11.7C98.6 11.4 98.5 11.3 98.3 11.1C98.1 11 97.8 10.9 97.5 10.9C97.1 10.9 96.7 11 96.5 11.1C96.4 11.2 96.3 11.3 96.3 11.4C96.3 11.5 96.4 11.6 96.5 11.7C96.7 11.8 97.2 12 98.1 12.2C99 12.4 99.6 12.7 100 13C100.4 13.3 100.5 13.7 100.5 14.3C100.5 14.9 100.3 15.4 99.8 15.8C99.3 16.2 98.6 16.4 97.6 16.4C96.7 16.4 96 16.2 95.5 15.9C95.1 15.4 94.8 14.9 94.6 14.3Z" fill="white"/>
<path d="M14.4586 17.3519C14.4167 17.3519 14.3916 17.3605 14.3665 17.3605C13.6303 17.3605 12.8942 17.3605 12.158 17.3605C12.0827 17.3605 12.0576 17.3346 12.0576 17.2569C12.0576 14.6748 12.0576 12.1014 12.0576 9.51934C12.0576 9.39844 12.0576 9.39844 12.1747 9.39844C12.8691 9.39844 13.5551 9.39844 14.2494 9.39844C14.3665 9.39844 14.3665 9.39844 14.3665 9.51934C14.3665 9.81295 14.3665 10.1066 14.3665 10.4002C14.3665 10.4261 14.3665 10.4606 14.3833 10.4952C14.3916 10.4779 14.4084 10.4693 14.4167 10.452C14.6259 10.0634 14.9354 9.77841 15.3035 9.56252C15.6967 9.33799 16.115 9.22572 16.5667 9.21709C17.052 9.19982 17.5205 9.26027 17.9722 9.43298C18.2232 9.52797 18.4407 9.67478 18.6415 9.85613C19.0681 10.2534 19.2689 10.7629 19.3944 11.3156C19.4697 11.6696 19.5115 12.0323 19.5199 12.395C19.5282 12.6195 19.5366 12.8441 19.5366 13.06C19.5366 14.4589 19.5366 15.8493 19.5366 17.2483C19.5366 17.2828 19.5366 17.3087 19.5366 17.3519C19.5032 17.3519 19.4697 17.3605 19.4446 17.3605C18.7 17.3605 17.9638 17.3605 17.2193 17.3605C17.1356 17.3605 17.1189 17.3346 17.1189 17.2569C17.1189 15.832 17.1189 14.4071 17.1189 12.9909C17.1189 12.6714 17.0771 12.3518 16.9516 12.0582C16.7843 11.6696 16.4915 11.4537 16.0815 11.4106C15.8389 11.3846 15.613 11.4019 15.3788 11.471C14.9856 11.5919 14.743 11.8682 14.6091 12.2568C14.5171 12.5159 14.4669 12.7836 14.4669 13.06C14.4586 14.4417 14.4586 15.8234 14.4502 17.2051C14.4502 17.2483 14.4586 17.2915 14.4586 17.3519Z" fill="white"/>
<path d="M8.16747 17.3519C8.16747 17.3174 8.1591 17.2915 8.1591 17.2656C8.1591 14.6835 8.1591 12.0928 8.1591 9.51071C8.1591 9.39845 8.1591 9.38981 8.26786 9.38981C8.99568 9.38981 9.72351 9.38981 10.4513 9.38981C10.5517 9.38981 10.5601 9.38981 10.5601 9.50207C10.5601 12.0841 10.5601 14.6748 10.5601 17.2569C10.5601 17.3087 10.5601 17.3519 10.4848 17.3519C9.73188 17.3519 8.97895 17.3519 8.22603 17.3519C8.21766 17.3605 8.20093 17.3605 8.16747 17.3519Z" fill="white"/>
<path d="M7.97506 6.89409C7.96669 6.11688 8.61086 5.43466 9.38888 5.45194C10.1418 5.46921 10.7609 6.09097 10.7692 6.88546C10.7692 7.68857 10.1753 8.32762 9.37215 8.33625C8.58576 8.34489 7.97506 7.69721 7.97506 6.89409Z" fill="white"/>
</g>
</svg>
