<svg width="76" height="23" viewBox="0 0 76 23" fill="none" xmlns="http://www.w3.org/2000/svg">
<mask id="mask0" mask-type="alpha" maskUnits="userSpaceOnUse" x="0" y="0" width="76" height="23">
<path d="M71.3 0H3.8C1.7 0 0 1.7 0 3.8V19.2C0 21.3 1.7 23 3.8 23H71.3C73.4 23 75.1 21.3 75.1 19.2V3.8C75.1 1.7 73.4 0 71.3 0Z" fill="#4367AF"/>
</mask>
<g mask="url(#mask0)">
<rect x="-1" width="76" height="23" fill="#0274B3"/>
<path d="M33 13.8H32.4C32.2 13.8 32.1 13.8 32 13.8C31.9 13.8 31.9 13.8 31.9 13.9C32 14 32.1 14 32.2 14C32.3 14 32.4 14.1 32.4 14.1C32.4 14.1 32.4 14.2 32.4 14.3C32.4 14.6 32.3 14.9 32.2 15.3C32.1 15.7 31.9 16 31.7 16C31.5 16.1 31.1 16.3 30.4 16.4C29.7 16.6 29 16.6 28.5 16.6C27.7 16.6 27.1 16.4 26.6 16.1C26.1 15.8 25.9 15.4 25.9 14.9C25.9 14.4 26 13.9 26.2 13.5C26.5 13 26.9 12.3 27.6 11.4L28 11.7C27.6 12.2 27.3 12.6 27.1 13C26.9 13.3 26.9 13.6 26.9 14C26.9 14.4 27.1 14.8 27.4 15C27.8 15.2 28.3 15.3 29.1 15.3C29.5 15.3 30 15.2 30.7 15.1C31.4 15 31.7 14.8 31.7 14.7C31.7 14.7 31.6 14.6 31.3 14.6C31 14.6 30.7 14.5 30.4 14.5C29.9 14.5 29.7 14.4 29.7 14.2C29.7 14.1 29.8 13.9 29.9 13.7C30 13.5 30.1 13.4 30.1 13.2C30.3 12.9 30.5 12.6 31 12.4C31.4 12.2 31.9 12.1 32.3 12.1H33V13.8ZM30.5 17.4L29.9 18.1L29.3 17.7L28.8 18.2L28 17.8L28.6 17.1L29.3 17.5L29.8 16.9L30.5 17.4Z" fill="white"/>
<path d="M36.4 13.8H32.6V12.1H35.8C35.8 11.8 35.7 11.6 35.6 11.4C35.5 11.3 35.4 11.1 35.2 10.8L35.7 9.30001C36 9.60001 36.2 10 36.3 10.4C36.4 10.8 36.5 11.3 36.5 12.1V13.8H36.4ZM36.3 7.30001L35.7 8.50002L34.8 8.00002L34.3 9.00002L33.2 8.40001L33.9 7.20001L34.8 7.70001L35.3 6.70001L36.3 7.30001Z" fill="white"/>
<path d="M41.8 13.9C41.8 14.1 41.7 14.5 41.4 14.9C41.1 15.3 40.8 15.7 40.4 16C40 16.3 39.6 16.5 39.3 16.5C38.9 16.5 38.6 16.4 38.1 16.2C37.7 16 37.2 15.7 36.4 15.1L36.7 14.7C37.1 14.9 37.4 15.1 37.6 15.2C37.8 15.3 38.1 15.3 38.3 15.3C38.6 15.3 38.9 15.2 39.1 15.1C39.4 14.9 39.8 14.6 40.3 14.2C41 13.6 41.3 13.1 41.3 12.8C41.3 12.6 41.2 12.4 41.1 12.2C41 11.9 40.8 11.6 40.6 11.4L40.9 9.70001C41.2 10 41.4 10.3 41.5 10.7C41.7 11.1 41.7 11.5 41.7 12V13.9H41.8Z" fill="white"/>
<path d="M44.8 13.8H43.9C43.4 13.8 43.1 13.6 42.9 13.2C42.7 12.8 42.5 12 42.5 11V9.3C42.5 8.9 42.4 8.59999 42.3 8.39999C42.2 8.29999 42.1 8.09999 41.9 7.89999L42.6 6.39999C42.8 6.69999 43 6.99999 43.1 7.39999C43.2 7.79999 43.3 8.2 43.3 8.8V10C43.3 10.9 43.4 11.4 43.5 11.8C43.6 12.1 43.7 12.2 43.9 12.2H44.8V13.8Z" fill="white"/>
<path d="M48.2 13.8H44.4V12.1H47.6C47.6 11.8 47.5 11.6 47.4 11.4C47.3 11.3 47.2 11.1 47 10.8L47.5 9.29999C47.8 9.59999 48 9.99999 48.1 10.4C48.2 10.8 48.3 11.3 48.3 12.1V13.8H48.2ZM48.1 14.9L47.5 16.1L46.6 15.6L46.1 16.6L45 16L45.7 14.8L46.6 15.3L47.1 14.3L48.1 14.9Z" fill="white"/>
<path d="M53.6 13.9C53.6 14.1 53.5 14.5 53.2 14.9C52.9 15.3 52.6 15.7 52.2 16C51.8 16.3 51.4 16.5 51.1 16.5C50.7 16.5 50.4 16.4 49.9 16.2C49.5 16 49 15.7 48.2 15.1L48.5 14.7C48.9 14.9 49.2 15.1 49.4 15.2C49.6 15.3 49.9 15.3 50.1 15.3C50.4 15.3 50.7 15.2 50.9 15.1C51.2 14.9 51.6 14.6 52.1 14.2C52.8 13.6 53.1 13.1 53.1 12.8C53.1 12.6 53 12.4 52.9 12.2C52.8 11.9 52.6 11.6 52.4 11.4L52.7 9.7C53 10 53.2 10.3 53.3 10.7C53.5 11.1 53.5 11.5 53.5 12V13.9H53.6ZM53.3 7.7L52.6 9.1L51.2 8.39999L51.9 7L53.3 7.7Z" fill="white"/>
<path d="M57 13.8H53.2V12.1H56.4C56.4 11.8 56.3 11.6 56.2 11.4C56.1 11.3 56 11.1 55.8 10.8L56.3 9.29999C56.6 9.59999 56.8 9.99999 56.9 10.4C57 10.8 57.1 11.3 57.1 12.1V13.8H57ZM56.4 15.1L55.7 16.5L54.3 15.8L55 14.4L56.4 15.1Z" fill="white"/>
<path d="M65 13.8H64.2C63.5 13.8 62.8 13.9 62.2 14C61.6 14.1 61.3 14.3 61.3 14.4C61.5 14.9 61.6 15.3 61.7 15.8C61.8 16.2 61.9 16.6 61.9 17C61.9 17.3 61.9 17.5 61.8 17.7C61.7 17.9 61.6 18.1 61.5 18.3C61.5 17.8 61.4 17.2 61.2 16.6C61.1 16.4 61 16 60.8 15.3C60.7 14.9 60.6 14.6 60.6 14.5C60.6 14.3 60.7 14.1 60.8 13.8C60.9 13.6 61 13.4 61.1 13.2C61.2 13 61.5 12.8 61.8 12.7C62.1 12.6 62.6 12.5 63.3 12.4C63 11.9 62.7 11.7 62.4 11.7C62.3 11.7 62.2 11.7 62.1 11.8C62 11.9 61.9 12.1 61.6 12.3L61.3 12.2C61.5 11.6 61.7 11.1 62 10.8C62.3 10.5 62.6 10.3 62.9 10.3C63.2 10.3 63.5 10.5 63.8 10.8C64.1 11.1 64.5 11.6 65 12.3V13.8Z" fill="white"/>
<path d="M68.8 13.8H64.6V12.1H68.3C68.3 11.7 68.3 11.5 68.3 11.3C68.3 11.1 68.2 10.9 68.1 10.7C68 11 67.8 11.1 67.6 11.3C67.4 11.4 67.1 11.5 66.9 11.5C66.6 11.5 66.3 11.4 66.1 11.2C65.9 11 65.8 10.7 65.8 10.4C65.8 9.89999 65.9 9.3 66.2 8.7C66.5 8 66.8 7.6 67.2 7.6C67.6 7.6 68 8 68.4 8.7C68.8 9.4 69 10.2 69 11.1V13.8H68.8ZM68.2 5.6L67.6 6.8L66.7 6.3L66.2 7.3L65.1 6.7L65.8 5.5L66.7 6L67.2 5L68.2 5.6ZM67.5 9.7C67.4 9.5 67.3 9.4 67.2 9.3C67.1 9.2 67 9.2 66.9 9.2C66.8 9.2 66.7 9.29999 66.6 9.39999C66.5 9.49999 66.5 9.6 66.5 9.8C66.5 9.9 66.5 10 66.6 10C66.7 10.1 66.8 10.1 66.9 10.1C67 10.1 67.1 10.1 67.2 10C67.2 9.9 67.4 9.8 67.5 9.7Z" fill="white"/>
<path d="M14.4586 17.3519C14.4167 17.3519 14.3916 17.3605 14.3665 17.3605C13.6303 17.3605 12.8941 17.3605 12.158 17.3605C12.0827 17.3605 12.0576 17.3346 12.0576 17.2569C12.0576 14.6748 12.0576 12.1014 12.0576 9.51933C12.0576 9.39843 12.0576 9.39843 12.1747 9.39843C12.8691 9.39843 13.555 9.39843 14.2494 9.39843C14.3665 9.39843 14.3665 9.39843 14.3665 9.51933C14.3665 9.81294 14.3665 10.1066 14.3665 10.4002C14.3665 10.4261 14.3665 10.4606 14.3833 10.4952C14.3916 10.4779 14.4084 10.4693 14.4167 10.452C14.6259 10.0634 14.9354 9.7784 15.3035 9.56251C15.6967 9.33798 16.115 9.22572 16.5667 9.21708C17.052 9.19981 17.5204 9.26026 17.9722 9.43297C18.2232 9.52797 18.4407 9.67477 18.6415 9.85612C19.0681 10.2534 19.2689 10.7629 19.3944 11.3156C19.4697 11.6696 19.5115 12.0323 19.5199 12.395C19.5282 12.6195 19.5366 12.8441 19.5366 13.06C19.5366 14.4589 19.5366 15.8493 19.5366 17.2483C19.5366 17.2828 19.5366 17.3087 19.5366 17.3519C19.5031 17.3519 19.4697 17.3605 19.4446 17.3605C18.7 17.3605 17.9638 17.3605 17.2193 17.3605C17.1356 17.3605 17.1189 17.3346 17.1189 17.2569C17.1189 15.832 17.1189 14.4071 17.1189 12.9909C17.1189 12.6714 17.0771 12.3518 16.9516 12.0582C16.7843 11.6696 16.4914 11.4537 16.0815 11.4105C15.8389 11.3846 15.613 11.4019 15.3788 11.471C14.9856 11.5919 14.743 11.8682 14.6091 12.2568C14.5171 12.5159 14.4669 12.7836 14.4669 13.06C14.4586 14.4417 14.4586 15.8234 14.4502 17.2051C14.4502 17.2483 14.4586 17.2914 14.4586 17.3519Z" fill="white"/>
<path d="M8.16746 17.3519C8.16746 17.3174 8.1591 17.2915 8.1591 17.2655C8.1591 14.6835 8.1591 12.0928 8.1591 9.5107C8.1591 9.39844 8.15909 9.3898 8.26785 9.3898C8.99568 9.3898 9.7235 9.3898 10.4513 9.3898C10.5517 9.3898 10.5601 9.3898 10.5601 9.50207C10.5601 12.0841 10.5601 14.6748 10.5601 17.2569C10.5601 17.3087 10.5601 17.3519 10.4848 17.3519C9.73187 17.3519 8.97894 17.3519 8.22602 17.3519C8.21766 17.3605 8.20092 17.3605 8.16746 17.3519Z" fill="white"/>
<path d="M7.97505 6.89408C7.96668 6.11687 8.61085 5.43465 9.38887 5.45192C10.1418 5.46919 10.7609 6.09096 10.7692 6.88544C10.7692 7.68856 10.1753 8.3276 9.37214 8.33624C8.58575 8.34487 7.97505 7.6972 7.97505 6.89408Z" fill="white"/>
</g>
</svg>
