<svg width="85" height="23" viewBox="0 0 85 23" fill="none" xmlns="http://www.w3.org/2000/svg">
<mask id="mask0" mask-type="alpha" maskUnits="userSpaceOnUse" x="0" y="0" width="85" height="23">
<path d="M80.3 0H3.79999C1.69999 0 0 1.69999 0 3.79999V19.2C0 21.3 1.69999 23 3.79999 23H80.3C82.4 23 84.1 21.3 84.1 19.2V3.79999C84.1 1.69999 82.4 0 80.3 0Z" fill="#4367AF"/>
</mask>
<g mask="url(#mask0)">
<rect width="84" height="23" fill="#0274B3"/>
<path d="M27.4 10C27.4 8.9 27.3 8.50002 26.3 8.30002C25.9 8.20002 25.6 8.10001 25.5 8.10001L25.7 7C25.9 7.1 26.1 7.10001 26.6 7.20001C28 7.50001 28.4 8.00002 28.4 9.80002V13.9H27.4V10Z" fill="white"/>
<path d="M29.6 12.8C29.9 12.8 30.3 12.8 31.1 12.8H32V10C32 8.9 31.9 8.60002 30.8 8.40002C30.4 8.30002 29.9 8.20001 29.7 8.10001L29.9 7C30.1 7.1 30.4 7.10001 31 7.20001C32.4 7.50001 33 7.90001 33 9.70001V12.7L32.8 13.8H31.1C30.6 13.8 29.7 13.8 29.5 13.8L29.6 12.8Z" fill="white"/>
<path d="M34.3 12.9C34.5 12.9 34.7 12.8 35.3 12.8H35.5C35.5 11.6 35.4 9.10002 35.3 8.30002C35.1 8.30002 34.6 8.30001 34.4 8.20001L34.6 7.10001C35 7.20001 35.8 7.10001 36.5 7.10001H38.5C40.3 7.10001 40.7 7.50001 40.7 9.70001V13.9H39.7V10.1C39.7 8.90001 39.6 8.30002 38.4 8.30002H36.2C36.3 9.10002 36.4 11.9 36.4 12.8L36.2 13.9H35.2C34.7 13.9 34.3 13.9 34 13.9L34.3 12.9Z" fill="white"/>
<path d="M43.5 10C43.5 8.9 43.4 8.50002 42.4 8.30002C42 8.20002 41.7 8.10001 41.6 8.10001L41.8 7C42 7.1 42.2 7.10001 42.7 7.20001C44.1 7.50001 44.5 8.00002 44.5 9.80002V13.9H43.5V10Z" fill="white"/>
<path d="M46.2 12.3C46.2 11.1 46.5 10 47.4 9C46.9 8.4 46.2 7.70002 45.7 7.30002V7.20001L47 7.10001C47.6 7.70001 48.6 8.80002 49.9 10.4C50.4 10.1 50.7 9.60002 50.7 8.80002C50.7 8.30002 50.6 7.80001 50.3 7.20001L51.5 7.10001C51.7 7.60001 51.7 8.00001 51.7 8.60001C51.7 9.60001 51.2 10.5 50.3 11C51 11.8 52 13.3 52.4 13.9H51.1C50.7 13.2 49.6 11.7 47.8 9.60001C47.3 10.3 47.1 11.2 47.2 11.9C47.2 12.6 47.4 13.3 47.5 13.8H46.3C46.2 13.4 46.2 12.8 46.2 12.3Z" fill="white"/>
<path d="M57 10C57 8.9 56.9 8.50002 55.9 8.30002C55.5 8.20002 55.2 8.10001 55.1 8.10001L55.3 7C55.5 7.1 55.7 7.10001 56.2 7.20001C57.6 7.50001 58 8.00002 58 9.80002V13.9H57V10Z" fill="white"/>
<path d="M62.7 10.1C62.7 8.90001 62.6 8.30002 61.4 8.30002H60.2C59.5 8.30002 59 8.30001 58.8 8.20001L59 7.10001C59.2 7.10001 59.9 7.10001 60.7 7.10001H61.5C63.3 7.10001 63.7 7.50001 63.7 9.70001V13.9H62.7V10.1Z" fill="white"/>
<path d="M67.3 12.7C68.8 12.3 70 11.3 70 9.40002C70 8.60002 69.7 8.30002 68.8 8.30002H67.1C66.3 8.30002 65.5 8.30001 65.3 8.20001L65.5 7.10001C65.8 7.20001 66.5 7.10001 67.3 7.10001H69C70.6 7.10001 71 7.6 71 9C71 11.7 69.2 13.4 67.1 13.9L67.3 12.7ZM65.5 10.2H66.5V16.3H65.5V10.2Z" fill="white"/>
<path d="M71.9 12.9C72.3 12.8 73.2 12.8 73.9 12.8H75.8C75.8 12 75.8 10.8 75.8 10.1C75.8 8.80001 75.6 8.30002 74.4 8.30002H73.3C72.6 8.30002 72.1 8.30001 71.9 8.20001L72.1 7.10001C72.3 7.10001 72.9 7.10001 73.7 7.10001H74.7C76.5 7.10001 76.7 7.90001 76.7 9.60001V11.6C76.7 11.9 76.7 12.4 76.7 12.7H77.6L77.4 13.8H73.4C72.9 13.8 72.1 13.8 71.8 13.8L71.9 12.9Z" fill="white"/>
<path d="M14.4586 17.3519C14.4167 17.3519 14.3916 17.3605 14.3665 17.3605C13.6303 17.3605 12.8942 17.3605 12.158 17.3605C12.0827 17.3605 12.0576 17.3346 12.0576 17.2569C12.0576 14.6748 12.0576 12.1014 12.0576 9.51934C12.0576 9.39844 12.0576 9.39844 12.1747 9.39844C12.8691 9.39844 13.5551 9.39844 14.2494 9.39844C14.3665 9.39844 14.3665 9.39844 14.3665 9.51934C14.3665 9.81295 14.3665 10.1066 14.3665 10.4002C14.3665 10.4261 14.3665 10.4606 14.3833 10.4952C14.3916 10.4779 14.4084 10.4693 14.4167 10.452C14.6259 10.0634 14.9354 9.77841 15.3035 9.56252C15.6967 9.33799 16.115 9.22573 16.5667 9.21709C17.052 9.19982 17.5205 9.26027 17.9722 9.43298C18.2232 9.52798 18.4407 9.67479 18.6415 9.85614C19.0681 10.2534 19.2689 10.7629 19.3944 11.3156C19.4697 11.6696 19.5115 12.0323 19.5199 12.395C19.5282 12.6196 19.5366 12.8441 19.5366 13.06C19.5366 14.459 19.5366 15.8493 19.5366 17.2483C19.5366 17.2828 19.5366 17.3087 19.5366 17.3519C19.5032 17.3519 19.4697 17.3605 19.4446 17.3605C18.7 17.3605 17.9638 17.3605 17.2193 17.3605C17.1356 17.3605 17.1189 17.3346 17.1189 17.2569C17.1189 15.832 17.1189 14.4071 17.1189 12.9909C17.1189 12.6714 17.0771 12.3518 16.9516 12.0582C16.7843 11.6696 16.4915 11.4537 16.0815 11.4106C15.8389 11.3847 15.613 11.4019 15.3788 11.471C14.9856 11.5919 14.743 11.8682 14.6091 12.2569C14.5171 12.5159 14.4669 12.7836 14.4669 13.06C14.4586 14.4417 14.4586 15.8234 14.4502 17.2051C14.4502 17.2483 14.4586 17.2915 14.4586 17.3519Z" fill="white"/>
<path d="M8.16747 17.3519C8.16747 17.3174 8.1591 17.2915 8.1591 17.2656C8.1591 14.6835 8.1591 12.0928 8.1591 9.51071C8.1591 9.39845 8.1591 9.38981 8.26786 9.38981C8.99568 9.38981 9.72351 9.38981 10.4513 9.38981C10.5517 9.38981 10.5601 9.38981 10.5601 9.50208C10.5601 12.0841 10.5601 14.6748 10.5601 17.2569C10.5601 17.3087 10.5601 17.3519 10.4848 17.3519C9.73188 17.3519 8.97895 17.3519 8.22603 17.3519C8.21766 17.3605 8.20093 17.3605 8.16747 17.3519Z" fill="white"/>
<path d="M7.97506 6.89409C7.96669 6.11688 8.61086 5.43466 9.38888 5.45194C10.1418 5.46921 10.7609 6.09097 10.7692 6.88546C10.7692 7.68857 10.1753 8.32762 9.37215 8.33625C8.58576 8.34489 7.97506 7.69721 7.97506 6.89409Z" fill="white"/>
</g>
</svg>
