<svg width="74" height="23" viewBox="0 0 74 23" fill="none" xmlns="http://www.w3.org/2000/svg">
<mask id="mask0" mask-type="alpha" maskUnits="userSpaceOnUse" x="0" y="0" width="74" height="23">
<path d="M69.3 0H3.79999C1.69999 0 0 1.69999 0 3.79999V19.2C0 21.3 1.69999 23 3.79999 23H69.3C71.4 23 73.1 21.3 73.1 19.2V3.79999C73.1 1.69999 71.4 0 69.3 0Z" fill="#4367AF"/>
</mask>
<g mask="url(#mask0)">
<rect width="74" height="23" fill="#0274B3"/>
<path d="M28.3 13.6H27.5C27 13.6 26.7 13.4 26.5 13C26.3 12.6 26.1 11.9 26.1 10.8V9.09998C26.1 8.69998 26 8.39995 25.9 8.19995C25.8 8.09995 25.7 7.89995 25.5 7.69995L26.2 6.19995C26.4 6.49995 26.6 6.79995 26.7 7.19995C26.8 7.59995 26.9 7.99998 26.9 8.59998V9.79999C26.9 10.6 27 11.2 27.1 11.6C27.2 11.9 27.3 12 27.5 12H28.3V13.6Z" fill="white"/>
<path d="M31.7 13.6H27.9V12H31.1C31.1 11.7 31 11.5 30.9 11.3C30.8 11.2 30.7 11 30.5 10.8L31 9.39996C31.3 9.69996 31.5 10.1 31.6 10.5C31.7 10.9 31.8 11.4 31.8 12.2V13.6H31.7ZM31.7 7L31 8.39996L29.6 7.69995L30.3 6.29999L31.7 7Z" fill="white"/>
<path d="M35 13.6H31.2V12H34.4C34.4 11.7 34.3 11.5 34.2 11.3C34.1 11.2 34 11 33.8 10.8L34.3 9.39996C34.6 9.69996 34.8 10.1 34.9 10.5C35 10.9 35.1 11.4 35.1 12.2V13.6H35ZM34.9 7.09998L34.3 8.29999L33.4 7.89996L32.9 8.89996L31.8 8.29999L32.5 7.09998L33.4 7.59998L33.9 6.59998L34.9 7.09998Z" fill="white"/>
<path d="M40.4 13.7C40.4 13.9 40.3 14.3 40 14.7C39.7 15.1 39.4 15.5 39 15.8C38.6 16.1 38.2 16.3 37.9 16.3C37.5 16.3 37.2 16.2 36.8 16C36.4 15.8 35.9 15.5 35.1 15L35.4 14.6C35.8 14.8 36.1 15 36.3 15.1C36.5 15.2 36.8 15.2 37 15.2C37.3 15.2 37.6 15.1 37.8 15C38.1 14.8 38.5 14.5 38.9 14.1C39.6 13.5 39.9 13 39.9 12.7C39.9 12.5 39.8 12.3 39.7 12.1C39.6 11.8 39.4 11.6 39.2 11.4L39.5 9.79999C39.8 10.1 40 10.4 40.1 10.8C40.2 11.2 40.3 11.6 40.3 12.1V13.7H40.4Z" fill="white"/>
<path d="M43.3 13.6H42.5C42 13.6 41.7 13.4 41.5 13C41.3 12.6 41.1 11.9 41.1 10.8V9.09998C41.1 8.69998 41 8.39995 40.9 8.19995C40.8 8.09995 40.7 7.89995 40.5 7.69995L41.2 6.19995C41.4 6.49995 41.6 6.79995 41.7 7.19995C41.8 7.59995 41.9 7.99998 41.9 8.59998V9.79999C41.9 10.6 42 11.2 42.1 11.6C42.2 11.9 42.3 12 42.5 12H43.3V13.6Z" fill="white"/>
<path d="M46.7 13.6H42.9V12H46.1C46.1 11.7 46 11.5 45.9 11.3C45.8 11.2 45.7 11 45.5 10.8L46 9.39996C46.3 9.69996 46.5 10.1 46.6 10.5C46.7 10.9 46.8 11.4 46.8 12.2V13.6H46.7ZM46.6 14.7L46 15.9L45.1 15.5L44.6 16.5L43.5 15.9L44.2 14.7L45.1 15.2L45.6 14.2L46.6 14.7Z" fill="white"/>
<path d="M52 13.7C52 13.9 51.9 14.3 51.6 14.7C51.3 15.1 51 15.5 50.6 15.8C50.2 16.1 49.8 16.3 49.5 16.3C49.1 16.3 48.8 16.2 48.4 16C48 15.8 47.5 15.5 46.7 15L47 14.6C47.4 14.8 47.7 15 47.9 15.1C48.1 15.2 48.4 15.2 48.6 15.2C48.9 15.2 49.2 15.1 49.4 15C49.7 14.8 50.1 14.5 50.5 14.1C51.2 13.5 51.5 13 51.5 12.7C51.5 12.5 51.4 12.3 51.3 12.1C51.2 11.8 51 11.6 50.8 11.4L51.1 9.79999C51.4 10.1 51.6 10.4 51.7 10.8C51.9 11.2 51.9 11.6 51.9 12.1V13.7H52ZM51.7 7.5L51 8.89996L49.6 8.19995L50.3 6.79999L51.7 7.5Z" fill="white"/>
<path d="M55.4 13.6H51.6V12H54.8C54.8 11.7 54.7 11.5 54.6 11.3C54.5 11.2 54.4 11 54.2 10.8L54.7 9.39996C55 9.69996 55.2 10.1 55.3 10.5C55.4 10.9 55.5 11.4 55.5 12.2V13.6H55.4ZM54.8 14.8L54.1 16.2L52.7 15.5L53.4 14.1L54.8 14.8Z" fill="white"/>
<path d="M63.3 13.6H62.5C61.8 13.6 61.1 13.7 60.5 13.8C59.9 13.9 59.6 14.1 59.6 14.2C59.8 14.7 59.9 15.1 60 15.6C60.1 16 60.2 16.4 60.2 16.8C60.2 17.1 60.2 17.3 60.1 17.5C60 17.7 59.9 17.9 59.8 18.1C59.8 17.6 59.7 17 59.5 16.4C59.4 16.2 59.3 15.8 59.1 15.1C59 14.7 58.9 14.4 58.9 14.3C58.9 14.1 59 13.9 59.1 13.6C59.2 13.4 59.3 13.2 59.4 13C59.5 12.8 59.8 12.6 60.1 12.5C60.4 12.4 60.9 12.3 61.6 12.2C61.3 11.7 61 11.5 60.8 11.5C60.7 11.5 60.6 11.5 60.5 11.6C60.4 11.7 60.3 11.9 60 12.1L59.7 12C59.9 11.4 60.1 10.9 60.4 10.6C60.7 10.3 60.9 10.1 61.3 10.1C61.6 10.1 61.9 10.3 62.2 10.6C62.5 10.9 62.9 11.4 63.4 12.1V13.6H63.3Z" fill="white"/>
<path d="M67.1 13.6H62.9V12H66.5C66.5 11.6 66.5 11.4 66.5 11.2C66.5 11 66.4 10.8 66.3 10.6C66.2 10.9 66 11 65.8 11.2C65.6 11.3 65.3 11.4 65.1 11.4C64.8 11.4 64.5 11.3 64.3 11.1C64.1 10.9 64 10.6 64 10.3C64 9.79999 64.1 9.29998 64.4 8.59998C64.7 7.89998 65 7.5 65.4 7.5C65.8 7.5 66.2 7.89998 66.6 8.59998C67 9.29998 67.2 10.1 67.2 10.9V13.6H67.1ZM66.5 5.5L65.9 6.69995L65 6.29999L64.5 7.29999L63.4 6.69995L64.1 5.5L65 6L65.5 5L66.5 5.5ZM65.8 9.5C65.7 9.3 65.6 9.19998 65.5 9.09998C65.4 8.99998 65.3 9 65.2 9C65.1 9 65 9.09995 64.9 9.19995C64.8 9.29995 64.8 9.39998 64.8 9.59998C64.8 9.69998 64.8 9.79999 64.9 9.79999C65 9.89999 65.1 9.89996 65.2 9.89996C65.3 9.89996 65.4 9.89999 65.5 9.79999C65.5 9.69999 65.7 9.6 65.8 9.5Z" fill="white"/>
<path d="M14.4586 17.3519C14.4167 17.3519 14.3916 17.3605 14.3665 17.3605C13.6303 17.3605 12.8942 17.3605 12.158 17.3605C12.0827 17.3605 12.0576 17.3346 12.0576 17.2569C12.0576 14.6748 12.0576 12.1014 12.0576 9.51935C12.0576 9.39845 12.0576 9.39845 12.1747 9.39845C12.8691 9.39845 13.5551 9.39845 14.2494 9.39845C14.3665 9.39845 14.3665 9.39845 14.3665 9.51935C14.3665 9.81296 14.3665 10.1066 14.3665 10.4002C14.3665 10.4261 14.3665 10.4606 14.3833 10.4952C14.3916 10.4779 14.4084 10.4693 14.4167 10.452C14.6259 10.0634 14.9354 9.77842 15.3035 9.56252C15.6967 9.338 16.115 9.22573 16.5667 9.2171C17.052 9.19983 17.5205 9.26028 17.9722 9.43299C18.2232 9.52798 18.4407 9.67479 18.6415 9.85614C19.0681 10.2534 19.2689 10.7629 19.3944 11.3156C19.4697 11.6696 19.5115 12.0323 19.5199 12.395C19.5282 12.6196 19.5366 12.8441 19.5366 13.06C19.5366 14.459 19.5366 15.8493 19.5366 17.2483C19.5366 17.2828 19.5366 17.3087 19.5366 17.3519C19.5032 17.3519 19.4697 17.3605 19.4446 17.3605C18.7 17.3605 17.9638 17.3605 17.2193 17.3605C17.1356 17.3605 17.1189 17.3346 17.1189 17.2569C17.1189 15.832 17.1189 14.4071 17.1189 12.9909C17.1189 12.6714 17.0771 12.3519 16.9516 12.0582C16.7843 11.6696 16.4915 11.4537 16.0815 11.4106C15.8389 11.3847 15.613 11.4019 15.3788 11.471C14.9856 11.5919 14.743 11.8683 14.6091 12.2569C14.5171 12.5159 14.4669 12.7836 14.4669 13.06C14.4586 14.4417 14.4586 15.8234 14.4502 17.2051C14.4502 17.2483 14.4586 17.2915 14.4586 17.3519Z" fill="white"/>
<path d="M8.16747 17.3519C8.16747 17.3174 8.1591 17.2915 8.1591 17.2656C8.1591 14.6835 8.1591 12.0928 8.1591 9.51072C8.1591 9.39845 8.1591 9.38982 8.26786 9.38982C8.99568 9.38982 9.72351 9.38982 10.4513 9.38982C10.5517 9.38982 10.5601 9.38982 10.5601 9.50208C10.5601 12.0842 10.5601 14.6749 10.5601 17.2569C10.5601 17.3087 10.5601 17.3519 10.4848 17.3519C9.73188 17.3519 8.97895 17.3519 8.22603 17.3519C8.21766 17.3606 8.20093 17.3606 8.16747 17.3519Z" fill="white"/>
<path d="M7.97506 6.89409C7.96669 6.11688 8.61086 5.43466 9.38888 5.45194C10.1418 5.46921 10.7609 6.09097 10.7692 6.88546C10.7692 7.68857 10.1753 8.32762 9.37215 8.33625C8.58576 8.34489 7.97506 7.69721 7.97506 6.89409Z" fill="white"/>
</g>
</svg>
