<svg width="69" height="23" viewBox="0 0 69 23" fill="none" xmlns="http://www.w3.org/2000/svg">
<mask id="mask0" mask-type="alpha" maskUnits="userSpaceOnUse" x="0" y="0" width="69" height="23">
<path d="M64.3 0H3.8C1.7 0 0 1.7 0 3.8V19.2C0 21.3 1.7 23 3.8 23H64.3C66.4 23 68.1 21.3 68.1 19.2V3.8C68.1 1.7 66.4 0 64.3 0Z" fill="#4367AF"/>
</mask>
<g mask="url(#mask0)">
<rect x="-1" width="69" height="23" fill="#0274B3"/>
<path d="M29.7 14.7C28.9 15.4 28.2 16 27.5 16.4L27 15.4C27.1 15.3 27.2 15.2 27.2 15V10.6H25.9V9.5H28.3V14.6C28.6 14.4 28.9 14.1 29.3 13.7L29.7 14.7ZM28.9 8.3L27.9 8.8C27.5 8.1 27 7.4 26.3 6.6L27.3 6C28 6.9 28.5 7.6 28.9 8.3ZM36.8 9.2H32.1V10.8H36.1C36.1 11.7 36 12.7 35.9 14C35.8 15.3 35.8 16 35.7 16.2C35.6 16.4 35.5 16.6 35.4 16.7C35.2 16.9 35.1 17 34.8 17C34.5 17 34.2 17.1 33.7 17.1C33.3 17.1 33 17.1 32.7 17.1L32.3 16C33 16 33.6 16 34.2 16C34.5 16 34.6 15.8 34.7 15.5C34.8 15.2 34.8 13.9 34.9 11.8H32C31.9 13.9 31.1 15.7 29.4 17.1L28.6 16.3C29.2 15.8 29.7 15.2 30.2 14.6C30.6 13.9 30.9 13.1 30.9 12.1C30.9 11.1 31 10.1 31 9.2H29.2V8.1H36.8V9.2ZM33.9 7.5L32.9 8C32.5 7.4 32.1 6.9 31.7 6.6L32.7 6.1C33.1 6.4 33.5 6.9 33.9 7.5Z" fill="white"/>
<path d="M41.4 7.8L40.5 8.5C40 7.9 39.3 7.3 38.6 6.7L39.5 6C40.2 6.5 40.8 7.1 41.4 7.8ZM39.9 17.1H38.8V8.8H39.9V17.1ZM46.5 14.5H41.3V9.2H46.5V14.5ZM48.9 15.9C48.9 16.3 48.8 16.6 48.6 16.8C48.4 17 48 17.1 47.4 17.1H46.5L46.1 16C47.1 16 47.6 16 47.7 16C47.8 16 47.8 15.9 47.8 15.8V7.5H41.8V6.4H48.9V15.9ZM45.4 13.5V10.1H42.4V13.5H45.4Z" fill="white"/>
<path d="M62 14.7C61.8 15.5 61.6 16.1 61.4 16.5C61.2 16.9 60.8 17.2 60.4 17.2C59.7 17.2 59 16.6 58.3 15.3C57.6 15.8 56.8 16.3 56 16.7L55.4 15.8C56.4 15.3 57.2 14.8 57.9 14.3C57.7 13.5 57.6 12.2 57.5 10.5H54.9V12.2C55.5 12.1 56.2 11.9 57 11.7V12.8C56.2 13 55.5 13.2 54.9 13.3V16.1C54.9 16.4 54.8 16.7 54.7 16.8C54.6 17 54.4 17.1 54.2 17.1C54 17.1 53.6 17.2 53.1 17.2C52.7 17.2 52.3 17.2 52 17.2L51.6 16C52.2 16 52.6 16 53 16C53.4 16 53.6 16 53.7 15.9C53.8 15.9 53.8 15.8 53.8 15.7V13.5C52.9 13.7 52.1 13.8 51.3 13.9L51.1 12.9C51.9 12.8 52.8 12.7 53.8 12.5V10.5H51.2V9.40002H53.8V8.00002C53.2 8.10002 52.5 8.20001 51.7 8.20001L51.2 7.20001C53.3 7.10001 55.1 6.70001 56.5 6.20001L57.1 7.10001C56.3 7.40001 55.6 7.60001 54.9 7.70001V9.40002H57.5C57.5 8.90002 57.5 7.80001 57.5 6.20001H58.6C58.6 7.30001 58.6 8.30002 58.6 9.40002H62V10.5H58.6C58.6 11.5 58.7 12.5 58.8 13.4C59.4 12.7 59.9 11.9 60.4 11L61.4 11.5C60.7 12.9 60 13.9 59.2 14.6C59.4 15.1 59.7 15.4 59.9 15.7C60.1 15.9 60.3 16 60.4 16C60.7 16 60.9 15.4 61.2 14.1L62 14.7ZM61.5 8.30002L60.6 9.00002C60.2 8.30002 59.6 7.70001 59 7.20001L59.9 6.50002C60.5 7.00002 61.1 7.60002 61.5 8.30002Z" fill="white"/>
<path d="M14.4586 17.3519C14.4167 17.3519 14.3916 17.3605 14.3665 17.3605C13.6303 17.3605 12.8941 17.3605 12.158 17.3605C12.0827 17.3605 12.0576 17.3346 12.0576 17.2569C12.0576 14.6748 12.0576 12.1014 12.0576 9.51933C12.0576 9.39843 12.0576 9.39843 12.1747 9.39843C12.8691 9.39843 13.555 9.39843 14.2494 9.39843C14.3665 9.39843 14.3665 9.39843 14.3665 9.51933C14.3665 9.81294 14.3665 10.1066 14.3665 10.4002C14.3665 10.4261 14.3665 10.4606 14.3833 10.4952C14.3916 10.4779 14.4084 10.4693 14.4167 10.452C14.6259 10.0634 14.9354 9.7784 15.3035 9.56251C15.6967 9.33798 16.115 9.22572 16.5667 9.21708C17.052 9.19981 17.5204 9.26026 17.9722 9.43297C18.2232 9.52797 18.4407 9.67477 18.6415 9.85612C19.0681 10.2534 19.2689 10.7629 19.3944 11.3156C19.4697 11.6696 19.5115 12.0323 19.5199 12.395C19.5282 12.6195 19.5366 12.8441 19.5366 13.06C19.5366 14.4589 19.5366 15.8493 19.5366 17.2483C19.5366 17.2828 19.5366 17.3087 19.5366 17.3519C19.5031 17.3519 19.4697 17.3605 19.4446 17.3605C18.7 17.3605 17.9638 17.3605 17.2193 17.3605C17.1356 17.3605 17.1189 17.3346 17.1189 17.2569C17.1189 15.832 17.1189 14.4071 17.1189 12.9909C17.1189 12.6714 17.0771 12.3518 16.9516 12.0582C16.7843 11.6696 16.4914 11.4537 16.0815 11.4105C15.8389 11.3846 15.613 11.4019 15.3788 11.471C14.9856 11.5919 14.743 11.8682 14.6091 12.2568C14.5171 12.5159 14.4669 12.7836 14.4669 13.06C14.4586 14.4417 14.4586 15.8234 14.4502 17.2051C14.4502 17.2483 14.4586 17.2914 14.4586 17.3519Z" fill="white"/>
<path d="M8.16746 17.3519C8.16746 17.3174 8.1591 17.2915 8.1591 17.2655C8.1591 14.6835 8.1591 12.0928 8.1591 9.5107C8.1591 9.39844 8.15909 9.3898 8.26785 9.3898C8.99568 9.3898 9.7235 9.3898 10.4513 9.3898C10.5517 9.3898 10.5601 9.3898 10.5601 9.50207C10.5601 12.0841 10.5601 14.6748 10.5601 17.2569C10.5601 17.3087 10.5601 17.3519 10.4848 17.3519C9.73187 17.3519 8.97894 17.3519 8.22602 17.3519C8.21766 17.3605 8.20092 17.3605 8.16746 17.3519Z" fill="white"/>
<path d="M7.97505 6.89408C7.96668 6.11687 8.61085 5.43465 9.38887 5.45192C10.1418 5.46919 10.7609 6.09096 10.7692 6.88544C10.7692 7.68856 10.1753 8.3276 9.37214 8.33624C8.58575 8.34487 7.97505 7.6972 7.97505 6.89408Z" fill="white"/>
</g>
</svg>
