<svg width="125" height="23" viewBox="0 0 125 23" fill="none" xmlns="http://www.w3.org/2000/svg">
<mask id="mask0" mask-type="alpha" maskUnits="userSpaceOnUse" x="0" y="0" width="125" height="23">
<path d="M120.3 0H3.79999C1.69999 0 0 1.7 0 3.8V19.2C0 21.3 1.69999 23 3.79999 23H120.3C122.4 23 124.1 21.3 124.1 19.2V3.8C124.1 1.7 122.4 0 120.3 0Z" fill="#4367AF"/>
</mask>
<g mask="url(#mask0)">
<rect width="124" height="23" fill="#0274B3"/>
<path d="M26.3 6H29.8C30.5 6 31 6.00001 31.4 6.10001C31.7 6.20001 32.1 6.3 32.3 6.5C32.6 6.7 32.8 6.9 33 7.2C33.2 7.5 33.3 7.9 33.3 8.2C33.3 8.6 33.2 9 33 9.3C32.8 9.6 32.5 9.90001 32.1 10.1C32.6 10.3 33.1 10.5 33.3 10.9C33.6 11.3 33.7 11.7 33.7 12.2C33.7 12.6 33.6 13 33.4 13.4C33.2 13.8 33 14.1 32.6 14.3C32.3 14.5 31.9 14.7 31.4 14.7C31.1 14.7 30.4 14.8 29.2 14.8H26.2V6H26.3ZM28.1 7.5V9.60001H29.3C30 9.60001 30.4 9.60001 30.6 9.60001C30.9 9.60001 31.1 9.5 31.3 9.3C31.5 9.1 31.6 8.90001 31.6 8.60001C31.6 8.30001 31.5 8.10001 31.4 7.90001C31.2 7.70001 31 7.60001 30.7 7.60001C30.5 7.60001 30 7.60001 29.2 7.60001H28.1V7.5ZM28.1 11.1V13.5H29.8C30.4 13.5 30.9 13.5 31 13.4C31.3 13.4 31.5 13.2 31.7 13C31.9 12.8 32 12.6 32 12.2C32 11.9 31.9 11.7 31.8 11.5C31.7 11.3 31.5 11.2 31.2 11.1C31 11 30.4 11 29.6 11H28.1V11.1Z" fill="white"/>
<path d="M35.2 7.60001V6H36.9V7.60001H35.2ZM35.2 14.9V8.5H36.9V14.9H35.2Z" fill="white"/>
<path d="M38 14.9V13.6L40.4 10.8C40.8 10.3 41.1 10 41.3 9.8C41.1 9.8 40.8 9.8 40.5 9.8H38.2V8.40001H43.5V9.60001L41 12.4L40.1 13.3C40.6 13.3 40.9 13.3 41 13.3H43.6V14.8H38V14.9Z" fill="white"/>
<path d="M44.9 7.60001V6H46.6V7.60001H44.9ZM44.9 14.9V8.5H46.6V14.9H44.9Z" fill="white"/>
<path d="M51.1 14.9V13.6L53.5 10.8C53.9 10.3 54.2 10 54.4 9.8C54.2 9.8 53.9 9.8 53.6 9.8H51.3V8.40001H56.6V9.60001L54.1 12.4L53.2 13.3C53.7 13.3 54 13.3 54.1 13.3H56.7V14.8H51.1V14.9Z" fill="white"/>
<path d="M58 7.60001V6H59.7V7.60001H58ZM58 14.9V8.5H59.7V14.9H58Z" fill="white"/>
<path d="M60.6 8.5H62.4L63.9 13.1L65.4 8.5H67.2L64.9 14.7L64.5 15.8C64.4 16.2 64.2 16.5 64.1 16.7C64 16.9 63.8 17.1 63.6 17.2C63.4 17.3 63.2 17.4 63 17.5C62.7 17.6 62.5 17.6 62.1 17.6C61.8 17.6 61.5 17.6 61.1 17.5L60.9 16.2C61.2 16.3 61.4 16.3 61.6 16.3C62 16.3 62.3 16.2 62.5 16C62.7 15.8 62.8 15.5 62.9 15.1L60.6 8.5Z" fill="white"/>
<path d="M69.6 10.5L68.1 10.2C68.3 9.6 68.6 9.1 69 8.8C69.4 8.5 70.1 8.40001 70.9 8.40001C71.7 8.40001 72.2 8.5 72.6 8.7C73 8.9 73.2 9.10001 73.4 9.40001C73.6 9.70001 73.6 10.2 73.6 10.9V12.9C73.6 13.5 73.6 13.9 73.7 14.2C73.8 14.5 73.9 14.8 74 15.1H72.3C72.3 15 72.2 14.8 72.1 14.6C72.1 14.5 72.1 14.4 72 14.4C71.7 14.7 71.4 14.9 71.1 15C70.8 15.1 70.4 15.2 70 15.2C69.3 15.2 68.8 15 68.4 14.7C68 14.3 67.8 13.9 67.8 13.3C67.8 12.9 67.9 12.6 68.1 12.3C68.3 12 68.5 11.8 68.8 11.6C69.1 11.4 69.6 11.3 70.2 11.2C71 11.1 71.5 10.9 71.9 10.8V10.6C71.9 10.3 71.8 10 71.7 9.90001C71.5 9.80001 71.2 9.7 70.8 9.7C70.5 9.7 70.3 9.80001 70.1 9.90001C69.8 9.90001 69.7 10.2 69.6 10.5ZM71.9 11.8C71.7 11.9 71.3 12 70.9 12.1C70.4 12.2 70.1 12.3 70 12.4C69.8 12.6 69.7 12.8 69.7 13C69.7 13.2 69.8 13.4 70 13.6C70.2 13.8 70.4 13.9 70.7 13.9C71 13.9 71.3 13.8 71.6 13.6C71.8 13.4 71.9 13.3 72 13C72 12.9 72.1 12.6 72.1 12.2V11.8H71.9Z" fill="white"/>
<path d="M76.9 14.9H75.2V8.5H76.8V9.40001C77.1 9.00001 77.3 8.7 77.5 8.5C77.7 8.4 78 8.3 78.2 8.3C78.6 8.3 79 8.40001 79.3 8.60001L78.8 10.1C78.5 9.90001 78.2 9.8 78 9.8C77.8 9.8 77.6 9.9 77.4 10C77.2 10.1 77.1 10.4 77 10.7C76.9 11 76.9 11.8 76.9 12.9V14.9Z" fill="white"/>
<path d="M83.8 12.9L85.5 13.2C85.3 13.8 84.9 14.3 84.5 14.6C84 14.9 83.4 15.1 82.7 15.1C81.6 15.1 80.8 14.7 80.2 14C79.8 13.4 79.6 12.7 79.6 11.8C79.6 10.7 79.9 9.9 80.4 9.3C81 8.7 81.7 8.40001 82.5 8.40001C83.5 8.40001 84.2 8.7 84.8 9.3C85.4 9.9 85.6 10.9 85.6 12.2H81.3C81.3 12.7 81.4 13.1 81.7 13.4C82 13.7 82.3 13.8 82.7 13.8C83 13.8 83.2 13.7 83.4 13.6C83.6 13.4 83.7 13.2 83.8 12.9ZM83.9 11.2C83.9 10.7 83.8 10.3 83.5 10.1C83.3 9.80001 83 9.7 82.6 9.7C82.2 9.7 81.9 9.80001 81.7 10.1C81.5 10.4 81.3 10.7 81.3 11.2H83.9Z" fill="white"/>
<path d="M89.9 8.5V9.90001H88.7V12.5C88.7 13 88.7 13.3 88.7 13.4C88.7 13.5 88.8 13.6 88.9 13.6C89 13.7 89.1 13.7 89.2 13.7C89.4 13.7 89.6 13.6 89.9 13.5L90 14.8C89.6 15 89.2 15.1 88.7 15.1C88.4 15.1 88.1 15 87.9 14.9C87.7 14.8 87.5 14.7 87.4 14.5C87.3 14.3 87.2 14.1 87.2 13.8C87.2 13.6 87.1 13.2 87.1 12.6V9.8H86.3V8.40001H87.1V7.10001L88.8 6.10001V8.40001H89.9V8.5Z" fill="white"/>
<path d="M98.3 12.9L100 13.2C99.8 13.8 99.4 14.3 99 14.6C98.5 14.9 97.9 15.1 97.2 15.1C96.1 15.1 95.3 14.7 94.7 14C94.3 13.4 94.1 12.7 94.1 11.8C94.1 10.7 94.4 9.9 94.9 9.3C95.5 8.7 96.2 8.40001 97 8.40001C98 8.40001 98.7 8.7 99.3 9.3C99.9 9.9 100.1 10.9 100.1 12.2H95.8C95.8 12.7 95.9 13.1 96.2 13.4C96.5 13.7 96.8 13.8 97.2 13.8C97.5 13.8 97.7 13.7 97.9 13.6C98 13.4 98.2 13.2 98.3 12.9ZM98.4 11.2C98.4 10.7 98.3 10.3 98 10.1C97.8 9.80001 97.5 9.7 97.1 9.7C96.7 9.7 96.4 9.80001 96.2 10.1C96 10.4 95.8 10.7 95.8 11.2H98.4Z" fill="white"/>
<path d="M107.3 14.9H105.7V14C105.4 14.4 105.1 14.6 104.8 14.8C104.4 15 104.1 15.1 103.7 15.1C103 15.1 102.3 14.8 101.8 14.2C101.3 13.6 101 12.8 101 11.7C101 10.6 101.3 9.8 101.8 9.2C102.3 8.6 103 8.3 103.7 8.3C104.4 8.3 105 8.6 105.6 9.2V6H107.3V14.9ZM102.8 11.6C102.8 12.3 102.9 12.8 103.1 13.1C103.4 13.5 103.8 13.8 104.3 13.8C104.7 13.8 105 13.6 105.3 13.3C105.6 13 105.7 12.5 105.7 11.8C105.7 11.1 105.6 10.5 105.3 10.2C105 9.9 104.7 9.7 104.3 9.7C103.9 9.7 103.6 9.9 103.3 10.2C102.9 10.5 102.8 10.9 102.8 11.6Z" fill="white"/>
<path d="M109 7.60001V6H110.7V7.60001H109ZM109 14.9V8.5H110.7V14.9H109Z" fill="white"/>
<path d="M118.3 14.9H116.6V11.6C116.6 10.9 116.6 10.5 116.5 10.3C116.4 10.1 116.3 9.9 116.1 9.8C115.9 9.7 115.7 9.60001 115.5 9.60001C115.2 9.60001 114.9 9.7 114.7 9.8C114.5 10 114.3 10.2 114.2 10.4C114.1 10.7 114.1 11.2 114.1 11.9V14.8H112.4V8.40001H114V9.3C114.6 8.6 115.3 8.2 116.1 8.2C116.5 8.2 116.8 8.30001 117.1 8.40001C117.4 8.50001 117.6 8.70001 117.8 8.90001C118 9.10001 118.1 9.30001 118.1 9.60001C118.2 9.90001 118.2 10.2 118.2 10.7V14.9H118.3Z" fill="white"/>
<path d="M14.4586 17.3519C14.4167 17.3519 14.3916 17.3605 14.3665 17.3605C13.6303 17.3605 12.8942 17.3605 12.158 17.3605C12.0827 17.3605 12.0576 17.3346 12.0576 17.2569C12.0576 14.6748 12.0576 12.1014 12.0576 9.51935C12.0576 9.39845 12.0576 9.39845 12.1747 9.39845C12.8691 9.39845 13.5551 9.39845 14.2494 9.39845C14.3665 9.39845 14.3665 9.39845 14.3665 9.51935C14.3665 9.81296 14.3665 10.1066 14.3665 10.4002C14.3665 10.4261 14.3665 10.4606 14.3833 10.4952C14.3916 10.4779 14.4084 10.4693 14.4167 10.452C14.6259 10.0634 14.9354 9.77842 15.3035 9.56252C15.6967 9.338 16.115 9.22573 16.5667 9.2171C17.052 9.19983 17.5205 9.26028 17.9722 9.43299C18.2232 9.52798 18.4407 9.67479 18.6415 9.85614C19.0681 10.2534 19.2689 10.7629 19.3944 11.3156C19.4697 11.6696 19.5115 12.0323 19.5199 12.395C19.5282 12.6196 19.5366 12.8441 19.5366 13.06C19.5366 14.459 19.5366 15.8493 19.5366 17.2483C19.5366 17.2828 19.5366 17.3087 19.5366 17.3519C19.5032 17.3519 19.4697 17.3605 19.4446 17.3605C18.7 17.3605 17.9638 17.3605 17.2193 17.3605C17.1356 17.3605 17.1189 17.3346 17.1189 17.2569C17.1189 15.832 17.1189 14.4071 17.1189 12.9909C17.1189 12.6714 17.0771 12.3519 16.9516 12.0582C16.7843 11.6696 16.4915 11.4537 16.0815 11.4106C15.8389 11.3847 15.613 11.4019 15.3788 11.471C14.9856 11.5919 14.743 11.8683 14.6091 12.2569C14.5171 12.5159 14.4669 12.7836 14.4669 13.06C14.4586 14.4417 14.4586 15.8234 14.4502 17.2051C14.4502 17.2483 14.4586 17.2915 14.4586 17.3519Z" fill="white"/>
<path d="M8.16747 17.3519C8.16747 17.3174 8.1591 17.2915 8.1591 17.2656C8.1591 14.6835 8.1591 12.0928 8.1591 9.51072C8.1591 9.39845 8.1591 9.38982 8.26786 9.38982C8.99568 9.38982 9.72351 9.38982 10.4513 9.38982C10.5517 9.38982 10.5601 9.38982 10.5601 9.50208C10.5601 12.0842 10.5601 14.6749 10.5601 17.2569C10.5601 17.3087 10.5601 17.3519 10.4848 17.3519C9.73188 17.3519 8.97895 17.3519 8.22603 17.3519C8.21766 17.3606 8.20093 17.3606 8.16747 17.3519Z" fill="white"/>
<path d="M7.97506 6.89409C7.96669 6.11688 8.61086 5.43466 9.38888 5.45194C10.1418 5.46921 10.7609 6.09097 10.7692 6.88546C10.7692 7.68857 10.1753 8.32762 9.37215 8.33625C8.58576 8.34489 7.97506 7.69721 7.97506 6.89409Z" fill="white"/>
</g>
</svg>
