<svg width="82" height="23" viewBox="0 0 82 23" fill="none" xmlns="http://www.w3.org/2000/svg">
<mask id="mask0" mask-type="alpha" maskUnits="userSpaceOnUse" x="0" y="0" width="82" height="23">
<path d="M77.3 0H3.8C1.7 0 0 1.7 0 3.8V19.2C0 21.3 1.7 23 3.8 23H77.3C79.4 23 81.1 21.3 81.1 19.2V3.8C81.1 1.7 79.4 0 77.3 0Z" fill="#4367AF"/>
</mask>
<g mask="url(#mask0)">
<rect x="-1" width="82" height="23" fill="#0274B3"/>
<path d="M27.6 7.10001V10.7H25.8V7.10001H27.6Z" fill="white"/>
<path d="M29 12.3C29.2 12.4 29.5 12.4 29.7 12.4C29.9 12.4 30.1 12.3 30.2 12.2C30.3 12.1 30.3 11.9 30.3 11.5V8.40001C30 8.40001 29.6 8.4 29 8.5L28.9 7.20001C30 7.10001 31 7 32.2 7C33.2 7 33.9 7.1 34.5 7.3C35.1 7.5 35.5 7.80001 35.8 8.20001C36.1 8.60001 36.2 9.30001 36.2 10.1V13.6H34.5V10.4C34.5 9.60001 34.4 9 34.1 8.8C33.8 8.5 33.2 8.40001 32.1 8.40001V11.6C32.1 12.2 32.1 12.5 32 12.8C31.9 13 31.7 13.2 31.5 13.4C31.2 13.6 30.9 13.6 30.4 13.6C29.9 13.6 29.4 13.5 28.9 13.4L29 12.3Z" fill="white"/>
<path d="M39.5 7.10001V13.6H37.7V7.10001H39.5Z" fill="white"/>
<path d="M45.5 10.8L47.5 13.6H45.5L43.2 10.4C42.9 10.7 42.7 11.3 42.7 12.3L42.6 13.6H40.9L41 12.2C41.1 11.3 41.2 10.6 41.5 10.2C41.7 9.80001 42 9.5 42.4 9.3L40.9 7.10001H42.9L44.8 9.8C45.1 9.6 45.3 9.00001 45.4 8.20001L45.5 7.10001H47.1L47 7.90001C46.9 8.80001 46.8 9.50001 46.5 9.90001C46.2 10.3 45.9 10.6 45.5 10.8Z" fill="white"/>
<path d="M53.7 7.10001V13.6H51.9V7.10001H53.7Z" fill="white"/>
<path d="M60.3 13.6H58.6V10.4C58.6 9.70001 58.4 9.20001 58.1 8.90001C57.8 8.60001 57.2 8.5 56.5 8.5C56.1 8.5 55.6 8.50001 55 8.60001L54.9 7.20001C55.5 7.10001 56.2 7 56.9 7C58.1 7 58.9 7.20001 59.5 7.70001C60.1 8.20001 60.4 9 60.4 10V13.6H60.3Z" fill="white"/>
<path d="M61.9 8.60001V7.10001H67.6V8.8C67.6 9.4 67.6 9.90001 67.5 10.1C67.4 10.4 67.3 10.7 67.2 10.9L66.9 11.3C66.7 11.6 66.6 11.8 66.5 12C66.5 12.2 66.4 12.3 66.4 12.5V13.6H64.7V12.4C64.7 12.1 64.7 11.8 64.8 11.5C64.9 11.2 65.1 11 65.3 10.6L65.5 10.4C65.7 10.1 65.8 9.8 65.8 9.3V8.5H61.9V8.60001ZM61.9 16.1V10.2H63.6V16.1H61.9Z" fill="white"/>
<path d="M74 12.1H75.2V13.6H68.7V12.1H72.3V10.4C72.3 9.70001 72.1 9.20001 71.8 8.90001C71.5 8.60001 71 8.5 70.2 8.5C69.8 8.5 69.3 8.50001 68.7 8.60001L68.6 7.20001C69.2 7.10001 69.9 7 70.5 7C71.7 7 72.6 7.20001 73.1 7.70001C73.7 8.20001 73.9 9 73.9 10V12.1H74Z" fill="white"/>
<path d="M14.4586 17.3519C14.4167 17.3519 14.3916 17.3605 14.3665 17.3605C13.6303 17.3605 12.8941 17.3605 12.158 17.3605C12.0827 17.3605 12.0576 17.3346 12.0576 17.2569C12.0576 14.6748 12.0576 12.1014 12.0576 9.51933C12.0576 9.39843 12.0576 9.39843 12.1747 9.39843C12.8691 9.39843 13.555 9.39843 14.2494 9.39843C14.3665 9.39843 14.3665 9.39843 14.3665 9.51933C14.3665 9.81294 14.3665 10.1066 14.3665 10.4002C14.3665 10.4261 14.3665 10.4606 14.3833 10.4952C14.3916 10.4779 14.4084 10.4693 14.4167 10.452C14.6259 10.0634 14.9354 9.7784 15.3035 9.56251C15.6967 9.33798 16.115 9.22572 16.5667 9.21708C17.052 9.19981 17.5204 9.26026 17.9722 9.43297C18.2232 9.52797 18.4407 9.67477 18.6415 9.85612C19.0681 10.2534 19.2689 10.7629 19.3944 11.3156C19.4697 11.6696 19.5115 12.0323 19.5199 12.395C19.5282 12.6195 19.5366 12.8441 19.5366 13.06C19.5366 14.4589 19.5366 15.8493 19.5366 17.2483C19.5366 17.2828 19.5366 17.3087 19.5366 17.3519C19.5031 17.3519 19.4697 17.3605 19.4446 17.3605C18.7 17.3605 17.9638 17.3605 17.2193 17.3605C17.1356 17.3605 17.1189 17.3346 17.1189 17.2569C17.1189 15.832 17.1189 14.4071 17.1189 12.9909C17.1189 12.6714 17.0771 12.3518 16.9516 12.0582C16.7843 11.6696 16.4914 11.4537 16.0815 11.4105C15.8389 11.3846 15.613 11.4019 15.3788 11.471C14.9856 11.5919 14.743 11.8682 14.6091 12.2568C14.5171 12.5159 14.4669 12.7836 14.4669 13.06C14.4586 14.4417 14.4586 15.8234 14.4502 17.2051C14.4502 17.2483 14.4586 17.2914 14.4586 17.3519Z" fill="white"/>
<path d="M8.16746 17.3519C8.16746 17.3174 8.1591 17.2915 8.1591 17.2655C8.1591 14.6835 8.1591 12.0928 8.1591 9.5107C8.1591 9.39844 8.15909 9.3898 8.26785 9.3898C8.99568 9.3898 9.7235 9.3898 10.4513 9.3898C10.5517 9.3898 10.5601 9.3898 10.5601 9.50207C10.5601 12.0841 10.5601 14.6748 10.5601 17.2569C10.5601 17.3087 10.5601 17.3519 10.4848 17.3519C9.73187 17.3519 8.97894 17.3519 8.22602 17.3519C8.21766 17.3605 8.20092 17.3605 8.16746 17.3519Z" fill="white"/>
<path d="M7.97505 6.89408C7.96668 6.11687 8.61085 5.43465 9.38887 5.45192C10.1418 5.46919 10.7609 6.09096 10.7692 6.88544C10.7692 7.68856 10.1753 8.3276 9.37214 8.33624C8.58575 8.34487 7.97505 7.6972 7.97505 6.89408Z" fill="white"/>
</g>
</svg>
