<svg width="123" height="23" viewBox="0 0 123 23" fill="none" xmlns="http://www.w3.org/2000/svg">
<mask id="mask0" mask-type="alpha" maskUnits="userSpaceOnUse" x="0" y="0" width="123" height="23">
<path d="M118.3 0H3.8C1.7 0 0 1.70002 0 3.80002V19.2C0 21.3 1.7 23 3.8 23H118.3C120.4 23 122.1 21.3 122.1 19.2V3.80002C122.1 1.70002 120.4 0 118.3 0Z" fill="#4367AF"/>
</mask>
<g mask="url(#mask0)">
<rect x="-1" width="123" height="23" fill="#0274B3"/>
<path d="M25.9 7H33V16H31.2V8.5H27.7V16H25.9V7Z" fill="white"/>
<path d="M34.5 12.6C34.5 12 34.6 11.5 34.9 10.9C35.2 10.4 35.6 10 36.1 9.70001C36.6 9.40001 37.2 9.30002 37.8 9.30002C38.8 9.30002 39.6 9.60002 40.2 10.3C40.8 10.9 41.1 11.7 41.1 12.7C41.1 13.7 40.8 14.5 40.1 15.1C39.5 15.7 38.7 16.1 37.7 16.1C37.1 16.1 36.5 16 36 15.7C35.5 15.4 35 15 34.8 14.5C34.6 14 34.5 13.3 34.5 12.6ZM36.2 12.7C36.2 13.3 36.4 13.8 36.7 14.2C37 14.5 37.4 14.7 37.8 14.7C38.2 14.7 38.6 14.5 38.9 14.2C39.2 13.9 39.4 13.4 39.4 12.7C39.4 12.1 39.2 11.6 38.9 11.2C38.6 10.9 38.2 10.7 37.8 10.7C37.4 10.7 37 10.9 36.7 11.2C36.4 11.5 36.2 12 36.2 12.7Z" fill="white"/>
<path d="M48 11.3L46.3 11.6C46.2 11.3 46.1 11 45.9 10.8C45.7 10.6 45.4 10.5 45.1 10.5C44.7 10.5 44.3 10.6 44.1 10.9C43.8 11.2 43.7 11.7 43.7 12.4C43.7 13.2 43.8 13.7 44.1 14C44.4 14.3 44.7 14.5 45.1 14.5C45.4 14.5 45.7 14.4 45.9 14.2C46.1 14 46.3 13.7 46.3 13.2L48 13.5C47.8 14.3 47.5 14.9 47 15.3C46.5 15.7 45.8 15.9 45 15.9C44 15.9 43.3 15.6 42.7 15C42.1 14.4 41.9 13.6 41.9 12.5C41.9 11.4 42.2 10.6 42.8 10C43.4 9.4 44.1 9.10001 45.1 9.10001C45.9 9.10001 46.5 9.30001 47 9.60001C47.5 10.1 47.8 10.7 48 11.3Z" fill="white"/>
<path d="M53.1 13.9L54.8 14.2C54.6 14.8 54.2 15.3 53.8 15.6C53.4 15.9 52.7 16.1 52 16.1C50.9 16.1 50 15.7 49.5 15C49.1 14.4 48.9 13.7 48.9 12.8C48.9 11.7 49.2 10.9 49.7 10.3C50.3 9.70002 51 9.40002 51.8 9.40002C52.8 9.40002 53.5 9.70002 54.1 10.4C54.7 11 54.9 12 54.9 13.3H50.6C50.6 13.8 50.8 14.2 51 14.5C51.3 14.8 51.6 14.9 52 14.9C52.3 14.9 52.5 14.8 52.7 14.7C52.8 14.4 53 14.2 53.1 13.9ZM53.2 12.1C53.2 11.6 53.1 11.2 52.8 11C52.6 10.7 52.3 10.6 51.9 10.6C51.5 10.6 51.2 10.7 51 11C50.8 11.3 50.6 11.6 50.6 12.1H53.2Z" fill="white"/>
<path d="M55.4 9.40002H61.3V10.8H59.2V15.9H57.5V10.8H55.4V9.40002Z" fill="white"/>
<path d="M62.2 9.40002H63.9V13.5L66.5 9.40002H68.2V15.9H66.5V11.7L63.8 15.9H62.1V9.40002H62.2Z" fill="white"/>
<path d="M69.2 9.40002H75.1V10.8H73V15.9H71.3V10.8H69.2V9.40002Z" fill="white"/>
<path d="M79.9 13.9L81.6 14.2C81.4 14.8 81 15.3 80.6 15.6C80.2 15.9 79.5 16.1 78.8 16.1C77.7 16.1 76.8 15.7 76.3 15C75.9 14.4 75.7 13.7 75.7 12.8C75.7 11.7 76 10.9 76.5 10.3C77.1 9.70002 77.8 9.40002 78.6 9.40002C79.6 9.40002 80.3 9.70002 80.9 10.4C81.5 11 81.7 12 81.7 13.3H77.4C77.4 13.8 77.6 14.2 77.8 14.5C78.1 14.8 78.4 14.9 78.8 14.9C79.1 14.9 79.3 14.8 79.5 14.7C79.6 14.4 79.8 14.2 79.9 13.9ZM80 12.1C80 11.6 79.9 11.2 79.6 11C79.4 10.7 79.1 10.6 78.7 10.6C78.3 10.6 78 10.7 77.8 11C77.6 11.3 77.4 11.6 77.4 12.1H80Z" fill="white"/>
<path d="M86.6 9.40002H88.7L90.3 13.9L91.9 9.40002H94V15.9H92.5V11.6L90.9 15.9H89.4L87.9 11.6V15.9H86.4V9.40002H86.6Z" fill="white"/>
<path d="M99.6 13.9L101.3 14.2C101.1 14.8 100.7 15.3 100.3 15.6C99.9 15.9 99.2 16.1 98.5 16.1C97.4 16.1 96.5 15.7 96 15C95.6 14.4 95.4 13.7 95.4 12.8C95.4 11.7 95.7 10.9 96.2 10.3C96.8 9.70002 97.5 9.40002 98.3 9.40002C99.3 9.40002 100 9.70002 100.6 10.4C101.2 11 101.4 12 101.4 13.3H97.1C97.1 13.8 97.3 14.2 97.5 14.5C97.8 14.8 98.1 14.9 98.5 14.9C98.8 14.9 99 14.8 99.2 14.7C99.4 14.4 99.5 14.2 99.6 13.9ZM99.7 12.1C99.7 11.6 99.6 11.2 99.3 11C99.1 10.7 98.8 10.6 98.4 10.6C98 10.6 97.7 10.7 97.5 11C97.3 11.3 97.1 11.6 97.1 12.1H99.7Z" fill="white"/>
<path d="M102.7 9.40002H104.4V11.8H106.9V9.40002H108.6V15.9H106.9V13.2H104.4V15.9H102.7V9.40002Z" fill="white"/>
<path d="M115.9 9.40002V15.9H114.2V13.2H114.1C113.7 13.2 113.5 13.2 113.3 13.3C113.1 13.4 112.9 13.6 112.7 13.9L112.6 14L111.5 15.8H109.5L110.7 13.9C111.1 13.4 111.4 13.1 111.7 13C111.2 13 110.8 12.8 110.5 12.5C110.2 12.2 110 11.7 110 11.2C110 10.8 110.1 10.4 110.3 10.1C110.5 9.80001 110.8 9.6 111.1 9.5C111.4 9.4 111.9 9.30002 112.6 9.30002H115.9V9.40002ZM114.2 10.5H113C112.5 10.5 112.2 10.6 112 10.7C111.8 10.8 111.7 11 111.7 11.3C111.7 11.6 111.8 11.8 112 11.9C112.2 12 112.5 12.1 113 12.1H114.1V10.5H114.2Z" fill="white"/>
<path d="M14.4586 17.3519C14.4167 17.3519 14.3916 17.3605 14.3665 17.3605C13.6303 17.3605 12.8941 17.3605 12.158 17.3605C12.0827 17.3605 12.0576 17.3346 12.0576 17.2569C12.0576 14.6748 12.0576 12.1014 12.0576 9.51932C12.0576 9.39842 12.0576 9.39842 12.1747 9.39842C12.8691 9.39842 13.555 9.39842 14.2494 9.39842C14.3665 9.39842 14.3665 9.39842 14.3665 9.51932C14.3665 9.81294 14.3665 10.1065 14.3665 10.4002C14.3665 10.4261 14.3665 10.4606 14.3833 10.4952C14.3916 10.4779 14.4084 10.4692 14.4167 10.452C14.6259 10.0634 14.9354 9.77839 15.3035 9.5625C15.6967 9.33797 16.115 9.22571 16.5667 9.21707C17.052 9.1998 17.5204 9.26025 17.9722 9.43297C18.2232 9.52796 18.4407 9.67477 18.6415 9.85612C19.0681 10.2534 19.2689 10.7629 19.3944 11.3155C19.4697 11.6696 19.5115 12.0323 19.5199 12.395C19.5282 12.6195 19.5366 12.8441 19.5366 13.06C19.5366 14.4589 19.5366 15.8493 19.5366 17.2483C19.5366 17.2828 19.5366 17.3087 19.5366 17.3519C19.5031 17.3519 19.4697 17.3605 19.4446 17.3605C18.7 17.3605 17.9638 17.3605 17.2193 17.3605C17.1356 17.3605 17.1189 17.3346 17.1189 17.2569C17.1189 15.832 17.1189 14.4071 17.1189 12.9909C17.1189 12.6713 17.0771 12.3518 16.9516 12.0582C16.7843 11.6696 16.4914 11.4537 16.0815 11.4105C15.8389 11.3846 15.613 11.4019 15.3788 11.471C14.9856 11.5919 14.743 11.8682 14.6091 12.2568C14.5171 12.5159 14.4669 12.7836 14.4669 13.06C14.4586 14.4417 14.4586 15.8234 14.4502 17.2051C14.4502 17.2483 14.4586 17.2914 14.4586 17.3519Z" fill="white"/>
<path d="M8.16746 17.3519C8.16746 17.3173 8.1591 17.2914 8.1591 17.2655C8.1591 14.6835 8.1591 12.0928 8.1591 9.5107C8.1591 9.39843 8.15909 9.38979 8.26785 9.38979C8.99568 9.38979 9.7235 9.38979 10.4513 9.38979C10.5517 9.38979 10.5601 9.38979 10.5601 9.50206C10.5601 12.0841 10.5601 14.6748 10.5601 17.2569C10.5601 17.3087 10.5601 17.3519 10.4848 17.3519C9.73187 17.3519 8.97894 17.3519 8.22602 17.3519C8.21766 17.3605 8.20092 17.3605 8.16746 17.3519Z" fill="white"/>
<path d="M7.97505 6.89408C7.96668 6.11687 8.61085 5.43465 9.38887 5.45192C10.1418 5.46919 10.7609 6.09096 10.7692 6.88544C10.7692 7.68856 10.1753 8.3276 9.37214 8.33624C8.58575 8.34487 7.97505 7.6972 7.97505 6.89408Z" fill="white"/>
</g>
</svg>
