<svg width="76" height="23" viewBox="0 0 76 23" fill="none" xmlns="http://www.w3.org/2000/svg">
<mask id="mask0" mask-type="alpha" maskUnits="userSpaceOnUse" x="0" y="0" width="76" height="23">
<path d="M71.3 0H3.79999C1.69999 0 0 1.69999 0 3.79999V19.2C0 21.3 1.69999 23 3.79999 23H71.3C73.4 23 75.1 21.3 75.1 19.2V3.79999C75.1 1.69999 73.4 0 71.3 0Z" fill="#4367AF"/>
</mask>
<g mask="url(#mask0)">
<rect width="75" height="23" fill="#0274B3"/>
<path d="M28.6 15.9L25.4 7H27.3L29.5 13.6L31.7 7H33.6L30.4 15.9H28.6Z" fill="white"/>
<path d="M34.3 8.59998V7H36V8.59998H34.3ZM34.3 15.9V9.5H36V15.9H34.3Z" fill="white"/>
<path d="M37.2 14.1L38.9 13.8C39 14.1 39.1 14.4 39.3 14.6C39.5 14.8 39.8 14.9 40.2 14.9C40.6 14.9 41 14.8 41.2 14.7C41.3 14.6 41.4 14.4 41.4 14.2C41.4 14.1 41.4 14 41.3 13.9C41.2 13.8 41 13.7 40.7 13.7C39.3 13.4 38.5 13.1 38.1 12.9C37.6 12.6 37.3 12.1 37.3 11.5C37.3 10.9 37.5 10.5 38 10.1C38.4 9.69998 39.1 9.5 40 9.5C40.9 9.5 41.5 9.59996 42 9.89996C42.4 10.2 42.7 10.6 42.9 11.2L41.3 11.5C41.2 11.2 41.1 11.1 40.9 10.9C40.7 10.8 40.4 10.7 40.1 10.7C39.7 10.7 39.3 10.8 39.1 10.9C39 11 38.9 11.1 38.9 11.2C38.9 11.3 39 11.4 39.1 11.5C39.3 11.6 39.8 11.8 40.7 12C41.6 12.2 42.2 12.5 42.6 12.8C43 13.1 43.1 13.5 43.1 14.1C43.1 14.7 42.9 15.2 42.4 15.6C41.9 16 41.2 16.2 40.2 16.2C39.3 16.2 38.6 16 38.1 15.7C37.7 15.2 37.3 14.7 37.2 14.1Z" fill="white"/>
<path d="M44.7 8.59998V7H46.4V8.59998H44.7ZM44.7 15.9V9.5H46.4V15.9H44.7Z" fill="white"/>
<path d="M51.1 9.5V10.9H49.9V13.5C49.9 14 49.9 14.3 49.9 14.4C49.9 14.5 50 14.6 50.1 14.6C50.2 14.7 50.3 14.7 50.4 14.7C50.6 14.7 50.8 14.6 51.1 14.5L51.2 15.8C50.8 16 50.4 16.1 49.9 16.1C49.6 16.1 49.3 16 49.1 15.9C48.9 15.8 48.7 15.7 48.6 15.5C48.5 15.3 48.4 15.1 48.4 14.8C48.4 14.6 48.3 14.2 48.3 13.6V10.8H47.5V9.39996H48.3V8.09998L50 7.09998V9.39996H51.1V9.5Z" fill="white"/>
<path d="M59.9 15.9V14.9C59.7 15.2 59.4 15.5 59 15.7C58.6 15.9 58.2 16 57.8 16C57.4 16 57 15.9 56.6 15.7C56.3 15.5 56 15.2 55.9 14.9C55.7 14.6 55.7 14.1 55.7 13.5V9.39996H57.4V12.4C57.4 13.3 57.4 13.9 57.5 14.1C57.6 14.3 57.7 14.5 57.8 14.6C58 14.7 58.2 14.8 58.4 14.8C58.7 14.8 59 14.7 59.2 14.6C59.4 14.4 59.6 14.2 59.7 14C59.8 13.8 59.8 13.2 59.8 12.3V9.59998H61.5V16H59.9V15.9Z" fill="white"/>
<path d="M62.7 14.1L64.4 13.8C64.5 14.1 64.6 14.4 64.8 14.6C65 14.8 65.3 14.9 65.7 14.9C66.1 14.9 66.5 14.8 66.7 14.7C66.9 14.6 66.9 14.4 66.9 14.2C66.9 14.1 66.9 14 66.8 13.9C66.7 13.8 66.5 13.7 66.2 13.7C64.8 13.4 64 13.1 63.6 12.9C63.1 12.6 62.8 12.1 62.8 11.5C62.8 10.9 63 10.5 63.5 10.1C63.9 9.69998 64.6 9.5 65.5 9.5C66.4 9.5 67 9.59996 67.5 9.89996C67.9 10.2 68.2 10.6 68.4 11.2L66.8 11.5C66.7 11.2 66.6 11.1 66.4 10.9C66.2 10.8 65.9 10.7 65.6 10.7C65.2 10.7 64.8 10.8 64.6 10.9C64.5 11 64.4 11.1 64.4 11.2C64.4 11.3 64.5 11.4 64.6 11.5C64.8 11.6 65.3 11.8 66.2 12C67.1 12.2 67.7 12.5 68.1 12.8C68.5 13.1 68.6 13.5 68.6 14.1C68.6 14.7 68.4 15.2 67.9 15.6C67.4 16 66.7 16.2 65.7 16.2C64.8 16.2 64.1 16 63.6 15.7C63.2 15.2 62.8 14.7 62.7 14.1Z" fill="white"/>
<path d="M14.4586 17.3519C14.4167 17.3519 14.3916 17.3605 14.3665 17.3605C13.6303 17.3605 12.8942 17.3605 12.158 17.3605C12.0827 17.3605 12.0576 17.3346 12.0576 17.2569C12.0576 14.6748 12.0576 12.1014 12.0576 9.51935C12.0576 9.39845 12.0576 9.39845 12.1747 9.39845C12.8691 9.39845 13.5551 9.39845 14.2494 9.39845C14.3665 9.39845 14.3665 9.39845 14.3665 9.51935C14.3665 9.81296 14.3665 10.1066 14.3665 10.4002C14.3665 10.4261 14.3665 10.4606 14.3833 10.4952C14.3916 10.4779 14.4084 10.4693 14.4167 10.452C14.6259 10.0634 14.9354 9.77842 15.3035 9.56252C15.6967 9.338 16.115 9.22573 16.5667 9.2171C17.052 9.19983 17.5205 9.26028 17.9722 9.43299C18.2232 9.52798 18.4407 9.67479 18.6415 9.85614C19.0681 10.2534 19.2689 10.7629 19.3944 11.3156C19.4697 11.6696 19.5115 12.0323 19.5199 12.395C19.5282 12.6196 19.5366 12.8441 19.5366 13.06C19.5366 14.459 19.5366 15.8493 19.5366 17.2483C19.5366 17.2828 19.5366 17.3087 19.5366 17.3519C19.5032 17.3519 19.4697 17.3605 19.4446 17.3605C18.7 17.3605 17.9638 17.3605 17.2193 17.3605C17.1356 17.3605 17.1189 17.3346 17.1189 17.2569C17.1189 15.832 17.1189 14.4071 17.1189 12.9909C17.1189 12.6714 17.0771 12.3519 16.9516 12.0582C16.7843 11.6696 16.4915 11.4537 16.0815 11.4106C15.8389 11.3847 15.613 11.4019 15.3788 11.471C14.9856 11.5919 14.743 11.8683 14.6091 12.2569C14.5171 12.5159 14.4669 12.7836 14.4669 13.06C14.4586 14.4417 14.4586 15.8234 14.4502 17.2051C14.4502 17.2483 14.4586 17.2915 14.4586 17.3519Z" fill="white"/>
<path d="M8.16747 17.3519C8.16747 17.3174 8.1591 17.2915 8.1591 17.2656C8.1591 14.6835 8.1591 12.0928 8.1591 9.51072C8.1591 9.39845 8.1591 9.38982 8.26786 9.38982C8.99568 9.38982 9.72351 9.38982 10.4513 9.38982C10.5517 9.38982 10.5601 9.38982 10.5601 9.50208C10.5601 12.0842 10.5601 14.6749 10.5601 17.2569C10.5601 17.3087 10.5601 17.3519 10.4848 17.3519C9.73188 17.3519 8.97895 17.3519 8.22603 17.3519C8.21766 17.3606 8.20093 17.3606 8.16747 17.3519Z" fill="white"/>
<path d="M7.97506 6.89409C7.96669 6.11688 8.61086 5.43466 9.38888 5.45194C10.1418 5.46921 10.7609 6.09097 10.7692 6.88546C10.7692 7.68857 10.1753 8.32762 9.37215 8.33625C8.58576 8.34489 7.97506 7.69721 7.97506 6.89409Z" fill="white"/>
</g>
</svg>
