<svg width="113" height="23" viewBox="0 0 113 23" fill="none" xmlns="http://www.w3.org/2000/svg">
<mask id="mask0" mask-type="alpha" maskUnits="userSpaceOnUse" x="0" y="0" width="113" height="23">
<path d="M108.3 0H3.79999C1.69999 0 0 1.7 0 3.8V19.2C0 21.3 1.69999 23 3.79999 23H108.3C110.4 23 112.1 21.3 112.1 19.2V3.8C112.1 1.6 110.4 0 108.3 0Z" fill="#4367AF"/>
</mask>
<g mask="url(#mask0)">
<rect width="112" height="23" fill="#0274B3"/>
<path d="M26.3 7H33.4V15.9H31.6V8.5H28.1V15.9H26.3V7Z" fill="white"/>
<path d="M34.8 12.6C34.8 12 34.9 11.5 35.2 11C35.5 10.5 35.9 10.1 36.4 9.79999C36.9 9.49999 37.5 9.39999 38.1 9.39999C39.1 9.39999 39.9 9.69999 40.5 10.3C41.1 10.9 41.4 11.7 41.4 12.7C41.4 13.7 41.1 14.5 40.5 15.1C39.9 15.7 39.1 16.1 38.1 16.1C37.5 16.1 36.9 16 36.4 15.7C35.9 15.4 35.5 15 35.2 14.5C34.9 14 34.8 13.4 34.8 12.6ZM36.5 12.7C36.5 13.3 36.7 13.8 37 14.2C37.3 14.5 37.7 14.7 38.1 14.7C38.5 14.7 38.9 14.5 39.2 14.2C39.5 13.9 39.7 13.4 39.7 12.7C39.7 12.1 39.5 11.6 39.2 11.2C38.9 10.9 38.5 10.7 38.1 10.7C37.7 10.7 37.3 10.9 37 11.2C36.7 11.6 36.5 12.1 36.5 12.7Z" fill="white"/>
<path d="M48.2 11.4L46.5 11.7C46.4 11.4 46.3 11.1 46.1 10.9C45.9 10.7 45.6 10.6 45.3 10.6C44.9 10.6 44.5 10.7 44.3 11C44 11.3 43.9 11.8 43.9 12.5C43.9 13.3 44 13.8 44.3 14.1C44.6 14.4 44.9 14.6 45.3 14.6C45.6 14.6 45.9 14.5 46.1 14.3C46.3 14.1 46.5 13.8 46.5 13.4L48.2 13.7C48 14.5 47.7 15 47.2 15.4C46.7 15.8 46 16 45.2 16C44.3 16 43.5 15.7 42.9 15.1C42.3 14.5 42.1 13.7 42.1 12.6C42.1 11.5 42.4 10.7 42.9 10.1C43.5 9.49999 44.2 9.2 45.2 9.2C46 9.2 46.6 9.4 47.1 9.7C47.7 10.2 48 10.7 48.2 11.4Z" fill="white"/>
<path d="M53.2 13.9L54.9 14.2C54.7 14.8 54.3 15.3 53.9 15.6C53.4 15.9 52.8 16.1 52.1 16.1C51 16.1 50.2 15.7 49.6 15C49.2 14.4 49 13.7 49 12.8C49 11.7 49.3 10.9 49.8 10.3C50.4 9.69999 51.1 9.39999 51.9 9.39999C52.9 9.39999 53.6 9.69999 54.2 10.3C54.8 10.9 55 11.9 55 13.2H50.7C50.7 13.7 50.8 14.1 51.1 14.4C51.4 14.7 51.7 14.8 52.1 14.8C52.4 14.8 52.6 14.7 52.8 14.6C53 14.4 53.1 14.2 53.2 13.9ZM53.3 12.2C53.3 11.7 53.2 11.3 52.9 11.1C52.7 10.8 52.4 10.7 52 10.7C51.6 10.7 51.3 10.8 51.1 11.1C50.9 11.4 50.7 11.7 50.7 12.2H53.3Z" fill="white"/>
<path d="M55.5 9.5H61.3V10.9H59.2V16H57.5V10.9H55.4V9.5H55.5Z" fill="white"/>
<path d="M62.3 9.5H63.9V13.5L66.5 9.5H68.2V15.9H66.6V11.8L63.9 15.9H62.3V9.5Z" fill="white"/>
<path d="M69.2 9.5H75V10.9H72.9V16H71.2V10.9H69.1V9.5H69.2Z" fill="white"/>
<path d="M79.7 13.9L81.4 14.2C81.2 14.8 80.8 15.3 80.4 15.6C79.9 15.9 79.3 16.1 78.6 16.1C77.5 16.1 76.7 15.7 76.1 15C75.7 14.4 75.5 13.7 75.5 12.8C75.5 11.7 75.8 10.9 76.3 10.3C76.9 9.69999 77.6 9.39999 78.4 9.39999C79.4 9.39999 80.1 9.69999 80.7 10.3C81.3 10.9 81.5 11.9 81.5 13.2H77.2C77.2 13.7 77.3 14.1 77.6 14.4C77.9 14.7 78.2 14.8 78.6 14.8C78.9 14.8 79.1 14.7 79.3 14.6C79.5 14.4 79.7 14.2 79.7 13.9ZM79.8 12.2C79.8 11.7 79.7 11.3 79.4 11.1C79.2 10.8 78.9 10.7 78.5 10.7C78.1 10.7 77.8 10.8 77.6 11.1C77.4 11.4 77.2 11.7 77.2 12.2H79.8Z" fill="white"/>
<path d="M86.3 9.5H88V11.9H90.4V9.5H92.1V15.9H90.4V13.2H88V15.9H86.3V9.5Z" fill="white"/>
<path d="M95.1 11.5L93.6 11.2C93.8 10.6 94.1 10.1 94.5 9.79999C94.9 9.49999 95.6 9.39999 96.4 9.39999C97.2 9.39999 97.7 9.5 98.1 9.7C98.5 9.9 98.7 10.1 98.9 10.4C99.1 10.7 99.1 11.2 99.1 11.9V13.9C99.1 14.5 99.1 14.9 99.2 15.2C99.3 15.5 99.4 15.8 99.5 16.1H97.8C97.8 16 97.7 15.8 97.6 15.6C97.6 15.5 97.6 15.4 97.5 15.4C97.2 15.7 96.9 15.9 96.6 16C96.3 16.1 95.9 16.2 95.5 16.2C94.8 16.2 94.3 16 93.9 15.7C93.5 15.3 93.3 14.9 93.3 14.3C93.3 13.9 93.4 13.6 93.6 13.3C93.8 13 94 12.8 94.3 12.6C94.6 12.4 95.1 12.3 95.7 12.2C96.5 12.1 97 11.9 97.4 11.8V11.6C97.4 11.3 97.3 11 97.2 10.9C97 10.8 96.7 10.7 96.3 10.7C96 10.7 95.8 10.8 95.6 10.9C95.4 10.9 95.2 11.2 95.1 11.5ZM97.4 12.8C97.2 12.9 96.8 13 96.4 13.1C95.9 13.2 95.6 13.3 95.5 13.4C95.3 13.6 95.2 13.8 95.2 14C95.2 14.2 95.3 14.4 95.5 14.6C95.7 14.8 95.9 14.9 96.2 14.9C96.5 14.9 96.8 14.8 97.1 14.6C97.3 14.4 97.4 14.3 97.5 14C97.5 13.9 97.6 13.6 97.6 13.2V12.8H97.4Z" fill="white"/>
<path d="M106.4 11.4L104.7 11.7C104.6 11.4 104.5 11.1 104.3 10.9C104.1 10.7 103.8 10.6 103.5 10.6C103.1 10.6 102.7 10.7 102.5 11C102.2 11.3 102.1 11.8 102.1 12.5C102.1 13.3 102.2 13.8 102.5 14.1C102.8 14.4 103.1 14.6 103.5 14.6C103.8 14.6 104.1 14.5 104.3 14.3C104.5 14.1 104.7 13.8 104.7 13.4L106.4 13.7C106.2 14.5 105.9 15 105.4 15.4C104.9 15.8 104.2 16 103.4 16C102.5 16 101.7 15.7 101.1 15.1C100.5 14.5 100.3 13.7 100.3 12.6C100.3 11.5 100.6 10.7 101.1 10.1C101.7 9.49999 102.4 9.2 103.4 9.2C104.2 9.2 104.8 9.4 105.3 9.7C105.8 10.2 106.2 10.7 106.4 11.4Z" fill="white"/>
<path d="M14.4586 17.3519C14.4167 17.3519 14.3916 17.3605 14.3665 17.3605C13.6303 17.3605 12.8942 17.3605 12.158 17.3605C12.0827 17.3605 12.0576 17.3346 12.0576 17.2569C12.0576 14.6748 12.0576 12.1014 12.0576 9.51935C12.0576 9.39845 12.0576 9.39845 12.1747 9.39845C12.8691 9.39845 13.5551 9.39845 14.2494 9.39845C14.3665 9.39845 14.3665 9.39845 14.3665 9.51935C14.3665 9.81296 14.3665 10.1066 14.3665 10.4002C14.3665 10.4261 14.3665 10.4606 14.3833 10.4952C14.3916 10.4779 14.4084 10.4693 14.4167 10.452C14.6259 10.0634 14.9354 9.77842 15.3035 9.56252C15.6967 9.338 16.115 9.22573 16.5667 9.2171C17.052 9.19983 17.5205 9.26028 17.9722 9.43299C18.2232 9.52798 18.4407 9.67479 18.6415 9.85614C19.0681 10.2534 19.2689 10.7629 19.3944 11.3156C19.4697 11.6696 19.5115 12.0323 19.5199 12.395C19.5282 12.6196 19.5366 12.8441 19.5366 13.06C19.5366 14.459 19.5366 15.8493 19.5366 17.2483C19.5366 17.2828 19.5366 17.3087 19.5366 17.3519C19.5032 17.3519 19.4697 17.3605 19.4446 17.3605C18.7 17.3605 17.9638 17.3605 17.2193 17.3605C17.1356 17.3605 17.1189 17.3346 17.1189 17.2569C17.1189 15.832 17.1189 14.4071 17.1189 12.9909C17.1189 12.6714 17.0771 12.3519 16.9516 12.0582C16.7843 11.6696 16.4915 11.4537 16.0815 11.4106C15.8389 11.3847 15.613 11.4019 15.3788 11.471C14.9856 11.5919 14.743 11.8683 14.6091 12.2569C14.5171 12.5159 14.4669 12.7836 14.4669 13.06C14.4586 14.4417 14.4586 15.8234 14.4502 17.2051C14.4502 17.2483 14.4586 17.2915 14.4586 17.3519Z" fill="white"/>
<path d="M8.16747 17.3519C8.16747 17.3174 8.1591 17.2915 8.1591 17.2656C8.1591 14.6835 8.1591 12.0928 8.1591 9.51072C8.1591 9.39845 8.1591 9.38982 8.26786 9.38982C8.99568 9.38982 9.72351 9.38982 10.4513 9.38982C10.5517 9.38982 10.5601 9.38982 10.5601 9.50208C10.5601 12.0842 10.5601 14.6749 10.5601 17.2569C10.5601 17.3087 10.5601 17.3519 10.4848 17.3519C9.73188 17.3519 8.97895 17.3519 8.22603 17.3519C8.21766 17.3606 8.20093 17.3606 8.16747 17.3519Z" fill="white"/>
<path d="M7.97506 6.89409C7.96669 6.11688 8.61086 5.43466 9.38888 5.45194C10.1418 5.46921 10.7609 6.09097 10.7692 6.88546C10.7692 7.68857 10.1753 8.32762 9.37215 8.33625C8.58576 8.34489 7.97506 7.69721 7.97506 6.89409Z" fill="white"/>
</g>
</svg>
