<svg width="87" height="23" viewBox="0 0 87 23" fill="none" xmlns="http://www.w3.org/2000/svg">
<mask id="mask0" mask-type="alpha" maskUnits="userSpaceOnUse" x="0" y="0" width="87" height="23">
<path d="M82.3 0H3.79999C1.69999 0 0 1.7 0 3.8V19.2C0 21.3 1.69999 23 3.79999 23H82.3C84.4 23 86.1 21.3 86.1 19.2V3.8C86.1 1.7 84.4 0 82.3 0Z" fill="#4367AF"/>
</mask>
<g mask="url(#mask0)">
<rect width="86" height="23" fill="#0274B3"/>
<path d="M28.6 16L25.4 7.10001H27.3L29.5 13.7L31.7 7.10001H33.6L30.4 16H28.6Z" fill="white"/>
<path d="M34.3 8.70001V7.10001H36V8.70001H34.3ZM34.3 16V9.60001H36V16H34.3Z" fill="white"/>
<path d="M37.2 14.2L38.9 13.9C39 14.2 39.1 14.5 39.3 14.7C39.5 14.9 39.8 15 40.2 15C40.6 15 41 14.9 41.2 14.8C41.3 14.7 41.4 14.5 41.4 14.3C41.4 14.2 41.4 14.1 41.3 14C41.2 13.9 41 13.8 40.7 13.8C39.3 13.5 38.5 13.2 38.1 13C37.6 12.7 37.3 12.2 37.3 11.6C37.3 11 37.5 10.6 38 10.2C38.4 9.80001 39.1 9.60001 40 9.60001C40.9 9.60001 41.5 9.7 42 10C42.4 10.3 42.7 10.7 42.9 11.3L41.3 11.6C41.2 11.3 41.1 11.2 40.9 11C40.7 10.9 40.4 10.8 40.1 10.8C39.7 10.8 39.3 10.9 39.1 11C39 11.1 38.9 11.2 38.9 11.3C38.9 11.4 39 11.5 39.1 11.6C39.3 11.7 39.8 11.9 40.7 12.1C41.6 12.3 42.2 12.6 42.6 12.9C43 13.2 43.1 13.6 43.1 14.2C43.1 14.8 42.9 15.3 42.4 15.7C41.9 16.1 41.2 16.3 40.2 16.3C39.3 16.3 38.6 16.1 38.1 15.8C37.7 15.2 37.3 14.8 37.2 14.2Z" fill="white"/>
<path d="M44.6 8.8L45.4 7H47.3L45.6 8.8H44.6ZM44.7 16V9.60001H46.4V16H44.7Z" fill="white"/>
<path d="M51.1 9.60001V11H49.9V13.6C49.9 14.1 49.9 14.4 49.9 14.5C49.9 14.6 50 14.7 50.1 14.7C50.2 14.8 50.3 14.8 50.4 14.8C50.6 14.8 50.8 14.7 51.1 14.6L51.2 15.9C50.8 16.1 50.4 16.2 49.9 16.2C49.6 16.2 49.3 16.1 49.1 16C48.9 15.9 48.7 15.8 48.6 15.6C48.5 15.4 48.4 15.2 48.4 14.9C48.4 14.7 48.3 14.3 48.3 13.7V10.9H47.5V9.60001H48.3V8.3L50 7.3V9.60001H51.1Z" fill="white"/>
<path d="M53.5 11.5L52 11.2C52.2 10.6 52.5 10.1 52.9 9.8C53.3 9.5 54 9.40001 54.8 9.40001C55.6 9.40001 56.1 9.50001 56.5 9.70001C56.9 9.90001 57.1 10.1 57.3 10.4C57.5 10.7 57.5 11.2 57.5 11.9V13.9C57.5 14.5 57.5 14.9 57.6 15.2C57.7 15.5 57.8 15.8 57.9 16.1H56.2C56.2 16 56.1 15.8 56 15.6C56 15.5 56 15.4 55.9 15.4C55.6 15.7 55.3 15.9 55 16C54.7 16.1 54.3 16.2 53.9 16.2C53.2 16.2 52.7 16 52.3 15.7C51.9 15.3 51.7 14.9 51.7 14.3C51.7 13.9 51.8 13.6 52 13.3C52.2 13 52.4 12.8 52.7 12.6C53 12.4 53.5 12.3 54.1 12.2C54.9 12.1 55.4 11.9 55.8 11.8V11.6C55.8 11.3 55.7 11 55.6 10.9C55.5 10.8 55.1 10.7 54.7 10.7C54.4 10.7 54.2 10.8 54 10.9C53.8 11 53.6 11.2 53.5 11.5ZM55.8 12.9C55.6 13 55.2 13.1 54.8 13.2C54.3 13.3 54 13.4 53.9 13.5C53.7 13.7 53.6 13.9 53.6 14.1C53.6 14.3 53.7 14.5 53.9 14.7C54.1 14.9 54.3 15 54.6 15C54.9 15 55.2 14.9 55.5 14.7C55.7 14.5 55.8 14.4 55.9 14.1C55.9 14 56 13.7 56 13.3V12.9H55.8Z" fill="white"/>
<path d="M65 16H63.3V12.7C63.3 12 63.3 11.6 63.2 11.4C63.1 11.2 63 11 62.8 10.9C62.6 10.8 62.4 10.7 62.2 10.7C61.9 10.7 61.6 10.8 61.4 10.9C61.2 11.1 61 11.3 60.9 11.5C60.8 11.8 60.8 12.3 60.8 13V15.9H59.1V9.60001H60.7V10.5C61.3 9.8 62 9.40001 62.8 9.40001C63.2 9.40001 63.5 9.50001 63.8 9.60001C64.1 9.70001 64.3 9.90001 64.5 10.1C64.7 10.3 64.8 10.5 64.8 10.8C64.9 11.1 64.9 11.4 64.9 11.9V16H65Z" fill="white"/>
<path d="M66.3 12.7C66.3 12.1 66.4 11.6 66.7 11.1C67 10.6 67.4 10.2 67.9 9.90001C68.4 9.60001 69 9.5 69.6 9.5C70.6 9.5 71.4 9.80001 72 10.4C72.6 11 72.9 11.8 72.9 12.8C72.9 13.8 72.6 14.6 72 15.2C71.4 15.8 70.6 16.2 69.6 16.2C69 16.2 68.4 16.1 67.9 15.8C67.4 15.5 67 15.1 66.7 14.6C66.5 14 66.3 13.4 66.3 12.7ZM68.1 12.8C68.1 13.4 68.3 13.9 68.6 14.3C68.9 14.6 69.3 14.8 69.7 14.8C70.1 14.8 70.5 14.6 70.8 14.3C71.1 14 71.3 13.5 71.3 12.8C71.3 12.2 71.1 11.7 70.8 11.3C70.5 11 70.1 10.8 69.7 10.8C69.3 10.8 68.9 11 68.6 11.3C68.2 11.6 68.1 12.1 68.1 12.8Z" fill="white"/>
<path d="M73.7 14.2L75.4 13.9C75.5 14.2 75.6 14.5 75.8 14.7C76 14.9 76.3 15 76.7 15C77.1 15 77.5 14.9 77.7 14.8C77.9 14.7 77.9 14.5 77.9 14.3C77.9 14.2 77.9 14.1 77.8 14C77.7 13.9 77.5 13.8 77.2 13.8C75.8 13.5 75 13.2 74.6 13C74.1 12.7 73.8 12.2 73.8 11.6C73.8 11 74 10.6 74.5 10.2C74.9 9.80001 75.6 9.60001 76.5 9.60001C77.4 9.60001 78 9.7 78.5 10C78.9 10.3 79.2 10.7 79.4 11.3L77.8 11.6C77.7 11.3 77.6 11.2 77.4 11C77.2 10.9 76.9 10.8 76.6 10.8C76.2 10.8 75.8 10.9 75.6 11C75.5 11.1 75.4 11.2 75.4 11.3C75.4 11.4 75.5 11.5 75.6 11.6C75.8 11.7 76.3 11.9 77.2 12.1C78.1 12.3 78.7 12.6 79.1 12.9C79.5 13.2 79.6 13.6 79.6 14.2C79.6 14.8 79.4 15.3 78.9 15.7C78.4 16.1 77.7 16.3 76.7 16.3C75.8 16.3 75.1 16.1 74.6 15.8C74.2 15.2 73.9 14.8 73.7 14.2Z" fill="white"/>
<path d="M14.4586 17.3519C14.4167 17.3519 14.3916 17.3605 14.3665 17.3605C13.6303 17.3605 12.8942 17.3605 12.158 17.3605C12.0827 17.3605 12.0576 17.3346 12.0576 17.2569C12.0576 14.6748 12.0576 12.1014 12.0576 9.51935C12.0576 9.39845 12.0576 9.39845 12.1747 9.39845C12.8691 9.39845 13.5551 9.39845 14.2494 9.39845C14.3665 9.39845 14.3665 9.39845 14.3665 9.51935C14.3665 9.81296 14.3665 10.1066 14.3665 10.4002C14.3665 10.4261 14.3665 10.4606 14.3833 10.4952C14.3916 10.4779 14.4084 10.4693 14.4167 10.452C14.6259 10.0634 14.9354 9.77842 15.3035 9.56252C15.6967 9.338 16.115 9.22573 16.5667 9.2171C17.052 9.19983 17.5205 9.26028 17.9722 9.43299C18.2232 9.52798 18.4407 9.67479 18.6415 9.85614C19.0681 10.2534 19.2689 10.7629 19.3944 11.3156C19.4697 11.6696 19.5115 12.0323 19.5199 12.395C19.5282 12.6196 19.5366 12.8441 19.5366 13.06C19.5366 14.459 19.5366 15.8493 19.5366 17.2483C19.5366 17.2828 19.5366 17.3087 19.5366 17.3519C19.5032 17.3519 19.4697 17.3605 19.4446 17.3605C18.7 17.3605 17.9638 17.3605 17.2193 17.3605C17.1356 17.3605 17.1189 17.3346 17.1189 17.2569C17.1189 15.832 17.1189 14.4071 17.1189 12.9909C17.1189 12.6714 17.0771 12.3519 16.9516 12.0582C16.7843 11.6696 16.4915 11.4537 16.0815 11.4106C15.8389 11.3847 15.613 11.4019 15.3788 11.471C14.9856 11.5919 14.743 11.8683 14.6091 12.2569C14.5171 12.5159 14.4669 12.7836 14.4669 13.06C14.4586 14.4417 14.4586 15.8234 14.4502 17.2051C14.4502 17.2483 14.4586 17.2915 14.4586 17.3519Z" fill="white"/>
<path d="M8.16747 17.3519C8.16747 17.3174 8.1591 17.2915 8.1591 17.2656C8.1591 14.6835 8.1591 12.0928 8.1591 9.51072C8.1591 9.39845 8.1591 9.38982 8.26786 9.38982C8.99568 9.38982 9.72351 9.38982 10.4513 9.38982C10.5517 9.38982 10.5601 9.38982 10.5601 9.50208C10.5601 12.0842 10.5601 14.6749 10.5601 17.2569C10.5601 17.3087 10.5601 17.3519 10.4848 17.3519C9.73188 17.3519 8.97895 17.3519 8.22603 17.3519C8.21766 17.3606 8.20093 17.3606 8.16747 17.3519Z" fill="white"/>
<path d="M7.97506 6.89409C7.96669 6.11688 8.61086 5.43466 9.38888 5.45194C10.1418 5.46921 10.7609 6.09097 10.7692 6.88546C10.7692 7.68857 10.1753 8.32762 9.37215 8.33625C8.58576 8.34489 7.97506 7.69721 7.97506 6.89409Z" fill="white"/>
</g>
</svg>
