<svg width="80" height="23" viewBox="0 0 80 23" fill="none" xmlns="http://www.w3.org/2000/svg">
<mask id="mask0" mask-type="alpha" maskUnits="userSpaceOnUse" x="0" y="0" width="80" height="23">
<path d="M75.3 0H3.8C1.7 0 0 1.7 0 3.8V19.2C0 21.3 1.7 23 3.8 23H75.3C77.4 23 79.1 21.3 79.1 19.2V3.8C79.1 1.7 77.4 0 75.3 0Z" fill="#4367AF"/>
</mask>
<g mask="url(#mask0)">
<rect x="-1" width="80" height="23" fill="#0274B3"/>
<path d="M29.1 16L25.9 7H27.9L30.2 13.6L32.4 7H34.3L31.1 16H29.1Z" fill="white"/>
<path d="M34.9 8.60001V7H36.6V8.60001H34.9ZM34.9 16V9.5H36.6V16H34.9Z" fill="white"/>
<path d="M37.8 14.2L39.5 13.9C39.6 14.2 39.7 14.5 39.9 14.7C40.1 14.9 40.4 15 40.8 15C41.2 15 41.6 14.9 41.8 14.8C42 14.7 42 14.5 42 14.3C42 14.2 42 14.1 41.9 14C41.8 13.9 41.6 13.8 41.3 13.8C39.9 13.5 39 13.2 38.7 13C38.2 12.6 37.9 12.2 37.9 11.5C37.9 10.9 38.1 10.5 38.6 10.1C39 9.70001 39.7 9.5 40.7 9.5C41.6 9.5 42.2 9.60001 42.7 9.90001C43.1 10.2 43.4 10.6 43.6 11.2L42 11.5C41.9 11.2 41.8 11.1 41.6 10.9C41.4 10.8 41.1 10.7 40.8 10.7C40.3 10.7 40 10.8 39.8 10.9C39.7 11 39.6 11.1 39.6 11.2C39.6 11.3 39.7 11.4 39.8 11.5C40 11.6 40.5 11.8 41.4 12C42.3 12.2 43 12.5 43.3 12.8C43.7 13.1 43.8 13.5 43.8 14.1C43.8 14.7 43.6 15.2 43.1 15.6C42.6 16 41.9 16.2 40.9 16.2C40 16.2 39.3 16 38.8 15.7C38.3 15.4 38 14.8 37.8 14.2Z" fill="white"/>
<path d="M45.4 8.60001V7H47.1V8.60001H45.4ZM45.4 16V9.5H47.1V16H45.4Z" fill="white"/>
<path d="M51.8 9.5V10.9H50.6V13.5C50.6 14 50.6 14.3 50.6 14.4C50.6 14.5 50.7 14.6 50.8 14.6C50.9 14.7 51 14.7 51.1 14.7C51.3 14.7 51.5 14.6 51.8 14.5L51.9 15.8C51.5 16 51 16.1 50.5 16.1C50.2 16.1 49.9 16 49.7 15.9C49.5 15.8 49.3 15.7 49.2 15.5C49.1 15.3 49 15.1 49 14.8C49 14.6 48.9 14.2 48.9 13.6V10.8H48.1V9.40001H48.9V8.10001L50.6 7.10001V9.40001H51.8V9.5Z" fill="white"/>
<path d="M54.3 11.5L52.7 11.2C52.9 10.6 53.2 10.1 53.6 9.8C54 9.5 54.7 9.3 55.5 9.3C56.3 9.3 56.8 9.40001 57.2 9.60001C57.6 9.80001 57.8 10 58 10.3C58.2 10.6 58.2 11.1 58.2 11.8V13.8C58.2 14.4 58.2 14.8 58.3 15.1C58.4 15.4 58.5 15.7 58.6 16H56.9C56.9 15.9 56.8 15.7 56.7 15.5C56.7 15.4 56.7 15.3 56.6 15.3C56.3 15.6 56 15.8 55.7 15.9C55.4 16 55 16.1 54.6 16.1C53.9 16.1 53.4 15.9 53 15.6C52.6 15.2 52.4 14.8 52.4 14.2C52.4 13.8 52.5 13.5 52.7 13.2C52.9 12.9 53.1 12.7 53.4 12.5C53.7 12.3 54.2 12.2 54.8 12.1C55.6 11.9 56.2 11.8 56.5 11.7V11.6C56.5 11.3 56.4 11 56.3 10.9C56.2 10.8 55.8 10.7 55.4 10.7C55.1 10.7 54.9 10.8 54.7 10.9C54.6 11 54.4 11.2 54.3 11.5ZM56.6 12.9C56.4 13 56 13.1 55.6 13.2C55.1 13.3 54.8 13.4 54.7 13.5C54.5 13.7 54.4 13.9 54.4 14.1C54.4 14.3 54.5 14.5 54.7 14.7C54.9 14.9 55.1 15 55.4 15C55.7 15 56 14.9 56.3 14.7C56.5 14.5 56.6 14.4 56.7 14.1C56.7 14 56.8 13.7 56.8 13.3V12.9H56.6Z" fill="white"/>
<path d="M59.9 9.5H61.5V10.4C62.1 9.70001 62.7 9.40001 63.5 9.40001C63.9 9.40001 64.3 9.50001 64.6 9.70001C64.9 9.90001 65.2 10.1 65.4 10.5C65.7 10.2 66 9.90001 66.3 9.70001C66.6 9.50001 67 9.40001 67.4 9.40001C67.9 9.40001 68.3 9.50001 68.6 9.70001C68.9 9.90001 69.2 10.2 69.3 10.6C69.4 10.9 69.5 11.3 69.5 11.9V16.1H67.8V12.4C67.8 11.8 67.7 11.3 67.6 11.2C67.4 11 67.2 10.8 66.9 10.8C66.7 10.8 66.4 10.9 66.2 11C66 11.1 65.8 11.4 65.7 11.6C65.6 11.9 65.6 12.3 65.6 12.9V16H63.9V12.4C63.9 11.8 63.9 11.4 63.8 11.2C63.7 11 63.6 10.9 63.5 10.8C63.4 10.7 63.2 10.7 63 10.7C62.7 10.7 62.5 10.8 62.3 10.9C62.1 11 61.9 11.2 61.8 11.5C61.7 11.8 61.7 12.2 61.7 12.8V16H60V9.5H59.9Z" fill="white"/>
<path d="M71.1 8.60001V7H72.8V8.60001H71.1ZM71.1 16V9.5H72.8V16H71.1Z" fill="white"/>
<path d="M14.4586 17.3519C14.4167 17.3519 14.3916 17.3605 14.3665 17.3605C13.6303 17.3605 12.8941 17.3605 12.158 17.3605C12.0827 17.3605 12.0576 17.3346 12.0576 17.2569C12.0576 14.6748 12.0576 12.1014 12.0576 9.51932C12.0576 9.39842 12.0576 9.39842 12.1747 9.39842C12.8691 9.39842 13.555 9.39842 14.2494 9.39842C14.3665 9.39842 14.3665 9.39842 14.3665 9.51932C14.3665 9.81294 14.3665 10.1065 14.3665 10.4002C14.3665 10.4261 14.3665 10.4606 14.3833 10.4952C14.3916 10.4779 14.4084 10.4692 14.4167 10.452C14.6259 10.0634 14.9354 9.77839 15.3035 9.5625C15.6967 9.33797 16.115 9.22571 16.5667 9.21707C17.052 9.1998 17.5204 9.26025 17.9722 9.43297C18.2232 9.52796 18.4407 9.67477 18.6415 9.85612C19.0681 10.2534 19.2689 10.7629 19.3944 11.3155C19.4697 11.6696 19.5115 12.0323 19.5199 12.395C19.5282 12.6195 19.5366 12.8441 19.5366 13.06C19.5366 14.4589 19.5366 15.8493 19.5366 17.2483C19.5366 17.2828 19.5366 17.3087 19.5366 17.3519C19.5031 17.3519 19.4697 17.3605 19.4446 17.3605C18.7 17.3605 17.9638 17.3605 17.2193 17.3605C17.1356 17.3605 17.1189 17.3346 17.1189 17.2569C17.1189 15.832 17.1189 14.4071 17.1189 12.9909C17.1189 12.6713 17.0771 12.3518 16.9516 12.0582C16.7843 11.6696 16.4914 11.4537 16.0815 11.4105C15.8389 11.3846 15.613 11.4019 15.3788 11.471C14.9856 11.5919 14.743 11.8682 14.6091 12.2568C14.5171 12.5159 14.4669 12.7836 14.4669 13.06C14.4586 14.4417 14.4586 15.8234 14.4502 17.2051C14.4502 17.2483 14.4586 17.2914 14.4586 17.3519Z" fill="white"/>
<path d="M8.16746 17.3519C8.16746 17.3173 8.1591 17.2914 8.1591 17.2655C8.1591 14.6835 8.1591 12.0928 8.1591 9.5107C8.1591 9.39843 8.15909 9.38979 8.26785 9.38979C8.99568 9.38979 9.7235 9.38979 10.4513 9.38979C10.5517 9.38979 10.5601 9.38979 10.5601 9.50206C10.5601 12.0841 10.5601 14.6748 10.5601 17.2569C10.5601 17.3087 10.5601 17.3519 10.4848 17.3519C9.73187 17.3519 8.97894 17.3519 8.22602 17.3519C8.21766 17.3605 8.20092 17.3605 8.16746 17.3519Z" fill="white"/>
<path d="M7.97505 6.89408C7.96668 6.11687 8.61085 5.43465 9.38887 5.45192C10.1418 5.46919 10.7609 6.09096 10.7692 6.88544C10.7692 7.68856 10.1753 8.3276 9.37214 8.33624C8.58575 8.34487 7.97505 7.6972 7.97505 6.89408Z" fill="white"/>
</g>
</svg>
