<svg width="126" height="24" viewBox="0 0 126 24" fill="none" xmlns="http://www.w3.org/2000/svg">
<mask id="mask0" mask-type="alpha" maskUnits="userSpaceOnUse" x="0" y="0" width="126" height="24">
<path d="M121.3 0H3.8C1.7 0 0 1.7 0 3.8V19.3C0 21.4 1.7 23.1 3.8 23.1H121.3C123.4 23.1 125.1 21.4 125.1 19.3V3.90001C125.1 1.70001 123.4 0 121.3 0Z" fill="#4367AF"/>
</mask>
<g mask="url(#mask0)">
<rect x="-1" width="126" height="26" fill="#0274B3"/>
<path d="M29.1 15L25.9 6H27.9L30.2 12.6L32.4 6H34.3L31.1 15H29.1Z" fill="white"/>
<path d="M34.9 7.60001V6H36.6V7.60001H34.9ZM34.9 15V8.5H36.6V15H34.9Z" fill="white"/>
<path d="M37.8 13.2L39.5 12.9C39.6 13.2 39.7 13.5 39.9 13.7C40.1 13.9 40.4 14 40.8 14C41.2 14 41.6 13.9 41.8 13.8C42 13.7 42 13.5 42 13.3C42 13.2 42 13.1 41.9 13C41.8 12.9 41.6 12.8 41.3 12.8C39.9 12.5 39 12.2 38.7 12C38.2 11.6 37.9 11.2 37.9 10.5C37.9 9.9 38.1 9.50001 38.6 9.10001C39 8.70001 39.7 8.5 40.7 8.5C41.6 8.5 42.2 8.60001 42.7 8.90001C43.1 9.20001 43.4 9.60001 43.6 10.2L42 10.5C41.9 10.2 41.8 10.1 41.6 9.90001C41.4 9.80001 41.1 9.70001 40.8 9.70001C40.3 9.70001 40 9.80001 39.8 9.90001C39.7 10 39.6 10.1 39.6 10.2C39.6 10.3 39.7 10.4 39.8 10.5C40 10.6 40.5 10.8 41.4 11C42.3 11.2 43 11.5 43.3 11.8C43.7 12.1 43.8 12.5 43.8 13.1C43.8 13.7 43.6 14.2 43.1 14.6C42.6 15 41.9 15.2 40.9 15.2C40 15.2 39.3 15 38.8 14.7C38.3 14.4 38 13.8 37.8 13.2Z" fill="white"/>
<path d="M45.4 7.60001V6H47.1V7.60001H45.4ZM45.4 15V8.5H47.1V15H45.4Z" fill="white"/>
<path d="M51.8 8.5V9.90001H50.6V12.5C50.6 13 50.6 13.3 50.6 13.4C50.6 13.5 50.7 13.6 50.8 13.6C50.9 13.7 51 13.7 51.1 13.7C51.3 13.7 51.5 13.6 51.8 13.5L51.9 14.8C51.5 15 51 15.1 50.5 15.1C50.2 15.1 49.9 15 49.7 14.9C49.5 14.8 49.3 14.7 49.2 14.5C49.1 14.3 49 14.1 49 13.8C49 13.6 48.9 13.2 48.9 12.6V9.8H48.1V8.40001H48.9V7.10001L50.6 6.10001V8.40001H51.8V8.5Z" fill="white"/>
<path d="M56.8 12.9L58.5 13.2C58.3 13.8 57.9 14.3 57.5 14.6C57.1 14.9 56.4 15.1 55.7 15.1C54.6 15.1 53.7 14.7 53.2 14C52.8 13.4 52.6 12.7 52.6 11.8C52.6 10.7 52.9 9.89999 53.4 9.29999C54 8.69999 54.7 8.39999 55.5 8.39999C56.5 8.39999 57.2 8.69999 57.8 9.39999C58.4 9.99999 58.6 11 58.6 12.3H54.3C54.3 12.8 54.5 13.2 54.7 13.5C55 13.8 55.3 13.9 55.7 13.9C56 13.9 56.2 13.8 56.4 13.7C56.6 13.5 56.7 13.3 56.8 12.9ZM56.9 11.2C56.9 10.7 56.8 10.3 56.5 10.1C56.3 9.79999 56 9.7 55.6 9.7C55.2 9.7 54.9 9.79999 54.7 10.1C54.5 10.4 54.3 10.7 54.3 11.2H56.9Z" fill="white"/>
<path d="M59.3 15V13.7L61.7 10.9C62.1 10.4 62.4 10.1 62.6 9.90001C62.4 9.90001 62.1 9.90001 61.8 9.90001H59.5V8.5H64.9V9.70001L62.4 12.6L61.5 13.5C62 13.5 62.3 13.5 62.4 13.5H65.1V15H59.3Z" fill="white"/>
<path d="M69.6 8.49998H71.2V9.39999C71.8 8.69999 72.4 8.39999 73.2 8.39999C73.6 8.39999 74 8.5 74.3 8.7C74.6 8.9 74.9 9.09998 75.1 9.49998C75.4 9.19998 75.7 8.9 76 8.7C76.3 8.5 76.7 8.39999 77.1 8.39999C77.6 8.39999 78 8.5 78.3 8.7C78.6 8.9 78.9 9.19999 79 9.59999C79.1 9.89999 79.2 10.3 79.2 10.9V15.1H77.5V11.4C77.5 10.8 77.4 10.3 77.3 10.2C77.1 10 76.9 9.79999 76.6 9.79999C76.4 9.79999 76.1 9.89998 75.9 9.99998C75.7 10.1 75.5 10.4 75.4 10.6C75.3 10.9 75.3 11.3 75.3 11.9V15H73.6V11.4C73.6 10.8 73.6 10.4 73.5 10.2C73.4 10 73.3 9.89999 73.2 9.79999C73.1 9.69999 72.9 9.7 72.7 9.7C72.4 9.7 72.2 9.79999 72 9.89999C71.8 9.99999 71.6 10.2 71.5 10.5C71.4 10.8 71.4 11.2 71.4 11.8V15H69.7V8.49998H69.6Z" fill="white"/>
<path d="M82.2 10.5L80.6 10.2C80.8 9.60003 81.1 9.10002 81.5 8.80002C81.9 8.50002 82.6 8.30002 83.4 8.30002C84.2 8.30002 84.7 8.40002 85.1 8.60002C85.5 8.80002 85.7 9.00002 85.9 9.30002C86.1 9.60002 86.1 10.1 86.1 10.8V12.8C86.1 13.4 86.1 13.8 86.2 14.1C86.3 14.4 86.4 14.7 86.5 15H84.8C84.8 14.9 84.7 14.7 84.6 14.5C84.6 14.4 84.6 14.3 84.5 14.3C84.2 14.6 83.9 14.8 83.6 14.9C83.3 15 82.9 15.1 82.5 15.1C81.8 15.1 81.3 14.9 80.9 14.6C80.5 14.2 80.3 13.8 80.3 13.2C80.3 12.8 80.4 12.5 80.6 12.2C80.8 11.9 81 11.7 81.3 11.5C81.6 11.3 82.1 11.2 82.7 11.1C83.5 10.9 84.1 10.8 84.4 10.7V10.6C84.4 10.3 84.3 10 84.2 9.90002C84.1 9.80002 83.7 9.70003 83.3 9.70003C83 9.70003 82.8 9.80002 82.6 9.90002C82.4 10 82.3 10.2 82.2 10.5ZM84.5 11.9C84.3 12 83.9 12.1 83.5 12.2C83 12.3 82.7 12.4 82.6 12.5C82.4 12.7 82.3 12.9 82.3 13.1C82.3 13.3 82.4 13.5 82.6 13.7C82.8 13.9 83 14 83.3 14C83.6 14 83.9 13.9 84.2 13.7C84.4 13.5 84.5 13.4 84.6 13.1C84.6 13 84.7 12.7 84.7 12.3V11.9H84.5Z" fill="white"/>
<path d="M91.3 8.49998H92.9V9.49998C93.1 9.19998 93.4 8.9 93.7 8.7C94.1 8.5 94.4 8.39999 94.9 8.39999C95.7 8.39999 96.3 8.69999 96.8 9.29999C97.3 9.89999 97.6 10.7 97.6 11.8C97.6 12.9 97.3 13.7 96.8 14.3C96.3 14.9 95.6 15.2 94.9 15.2C94.5 15.2 94.2 15.1 93.9 15C93.6 14.9 93.3 14.6 93 14.3V17.6H91.3V8.49998ZM93 11.7C93 12.4 93.1 13 93.4 13.3C93.7 13.6 94 13.8 94.5 13.8C94.9 13.8 95.2 13.6 95.5 13.3C95.8 13 95.9 12.5 95.9 11.7C95.9 11 95.8 10.5 95.5 10.2C95.2 9.9 94.9 9.7 94.5 9.7C94.1 9.7 93.7 9.9 93.5 10.2C93.1 10.5 93 11 93 11.7Z" fill="white"/>
<path d="M100.3 10.5L98.7 10.2C98.9 9.60003 99.2 9.10002 99.6 8.80002C100 8.50002 100.7 8.30002 101.5 8.30002C102.3 8.30002 102.8 8.40002 103.2 8.60002C103.6 8.80002 103.8 9.00002 104 9.30002C104.2 9.60002 104.2 10.1 104.2 10.8V12.8C104.2 13.4 104.2 13.8 104.3 14.1C104.4 14.4 104.5 14.7 104.6 15H102.9C102.9 14.9 102.8 14.7 102.7 14.5C102.7 14.4 102.7 14.3 102.6 14.3C102.3 14.6 102 14.8 101.7 14.9C101.4 15 101 15.1 100.6 15.1C99.9 15.1 99.4 14.9 99 14.6C98.6 14.2 98.4 13.8 98.4 13.2C98.4 12.8 98.5 12.5 98.7 12.2C98.9 11.9 99.1 11.7 99.4 11.5C99.7 11.3 100.2 11.2 100.8 11.1C101.6 10.9 102.2 10.8 102.5 10.7V10.6C102.5 10.3 102.4 10 102.3 9.90002C102.2 9.80002 101.8 9.70003 101.4 9.70003C101.1 9.70003 100.9 9.80002 100.7 9.90002C100.5 10 100.4 10.2 100.3 10.5ZM102.6 11.9C102.4 12 102 12.1 101.6 12.2C101.1 12.3 100.8 12.4 100.7 12.5C100.5 12.7 100.4 12.9 100.4 13.1C100.4 13.3 100.5 13.5 100.7 13.7C100.9 13.9 101.1 14 101.4 14C101.7 14 102 13.9 102.3 13.7C102.5 13.5 102.6 13.4 102.7 13.1C102.7 13 102.8 12.7 102.8 12.3V11.9H102.6Z" fill="white"/>
<path d="M105.8 15.4L107.8 15.6C107.8 15.8 107.9 16 108 16.1C108.2 16.2 108.4 16.3 108.8 16.3C109.2 16.3 109.6 16.2 109.8 16.1C110 16 110.1 15.9 110.1 15.7C110.2 15.6 110.2 15.3 110.2 14.9V14C109.7 14.7 109 15.1 108.3 15.1C107.4 15.1 106.7 14.7 106.2 14C105.8 13.4 105.6 12.7 105.6 11.8C105.6 10.7 105.9 9.89999 106.4 9.29999C106.9 8.69999 107.6 8.39999 108.4 8.39999C109.2 8.39999 109.9 8.79998 110.4 9.49998V8.59999H112V14.4C112 15.2 111.9 15.7 111.8 16.1C111.7 16.5 111.5 16.8 111.3 17C111.1 17.2 110.8 17.4 110.4 17.5C110 17.6 109.5 17.7 109 17.7C107.9 17.7 107.1 17.5 106.7 17.1C106.3 16.7 106 16.2 106 15.7C105.8 15.6 105.8 15.5 105.8 15.4ZM107.4 11.6C107.4 12.3 107.5 12.8 107.8 13.1C108.1 13.4 108.4 13.6 108.8 13.6C109.2 13.6 109.6 13.4 109.9 13.1C110.2 12.8 110.3 12.3 110.3 11.6C110.3 10.9 110.2 10.4 109.9 10.1C109.6 9.79999 109.3 9.59999 108.8 9.59999C108.4 9.59999 108 9.79999 107.8 10.1C107.5 10.5 107.4 11 107.4 11.6Z" fill="white"/>
<path d="M117.4 12.9L119.1 13.2C118.9 13.8 118.5 14.3 118.1 14.6C117.7 14.9 117 15.1 116.3 15.1C115.2 15.1 114.3 14.7 113.8 14C113.4 13.4 113.2 12.7 113.2 11.8C113.2 10.7 113.5 9.89999 114 9.29999C114.6 8.69999 115.3 8.39999 116.1 8.39999C117.1 8.39999 117.8 8.69999 118.4 9.39999C119 9.99999 119.2 11 119.2 12.3H114.9C114.9 12.8 115.1 13.2 115.3 13.5C115.6 13.8 115.9 13.9 116.3 13.9C116.6 13.9 116.8 13.8 117 13.7C117.2 13.5 117.3 13.3 117.4 12.9ZM117.5 11.2C117.5 10.7 117.4 10.3 117.1 10.1C116.9 9.79999 116.6 9.7 116.2 9.7C115.8 9.7 115.5 9.79999 115.3 10.1C115.1 10.4 114.9 10.7 114.9 11.2H117.5Z" fill="white"/>
<path d="M14.4586 17.3519C14.4167 17.3519 14.3916 17.3605 14.3665 17.3605C13.6303 17.3605 12.8941 17.3605 12.158 17.3605C12.0827 17.3605 12.0576 17.3346 12.0576 17.2569C12.0576 14.6748 12.0576 12.1014 12.0576 9.51933C12.0576 9.39843 12.0576 9.39843 12.1747 9.39843C12.8691 9.39843 13.555 9.39843 14.2494 9.39843C14.3665 9.39843 14.3665 9.39843 14.3665 9.51933C14.3665 9.81294 14.3665 10.1066 14.3665 10.4002C14.3665 10.4261 14.3665 10.4606 14.3833 10.4952C14.3916 10.4779 14.4084 10.4693 14.4167 10.452C14.6259 10.0634 14.9354 9.7784 15.3035 9.56251C15.6967 9.33798 16.115 9.22572 16.5667 9.21708C17.052 9.19981 17.5204 9.26026 17.9722 9.43297C18.2232 9.52797 18.4407 9.67477 18.6415 9.85612C19.0681 10.2534 19.2689 10.7629 19.3944 11.3156C19.4697 11.6696 19.5115 12.0323 19.5199 12.395C19.5282 12.6195 19.5366 12.8441 19.5366 13.06C19.5366 14.4589 19.5366 15.8493 19.5366 17.2483C19.5366 17.2828 19.5366 17.3087 19.5366 17.3519C19.5031 17.3519 19.4697 17.3605 19.4446 17.3605C18.7 17.3605 17.9638 17.3605 17.2193 17.3605C17.1356 17.3605 17.1189 17.3346 17.1189 17.2569C17.1189 15.832 17.1189 14.4071 17.1189 12.9909C17.1189 12.6714 17.0771 12.3518 16.9516 12.0582C16.7843 11.6696 16.4914 11.4537 16.0815 11.4105C15.8389 11.3846 15.613 11.4019 15.3788 11.471C14.9856 11.5919 14.743 11.8682 14.6091 12.2568C14.5171 12.5159 14.4669 12.7836 14.4669 13.06C14.4586 14.4417 14.4586 15.8234 14.4502 17.2051C14.4502 17.2483 14.4586 17.2914 14.4586 17.3519Z" fill="white"/>
<path d="M8.16746 17.3519C8.16746 17.3174 8.1591 17.2915 8.1591 17.2655C8.1591 14.6835 8.1591 12.0928 8.1591 9.5107C8.1591 9.39844 8.15909 9.3898 8.26785 9.3898C8.99568 9.3898 9.7235 9.3898 10.4513 9.3898C10.5517 9.3898 10.5601 9.3898 10.5601 9.50207C10.5601 12.0841 10.5601 14.6748 10.5601 17.2569C10.5601 17.3087 10.5601 17.3519 10.4848 17.3519C9.73187 17.3519 8.97894 17.3519 8.22602 17.3519C8.21766 17.3605 8.20092 17.3605 8.16746 17.3519Z" fill="white"/>
<path d="M7.97505 6.89408C7.96668 6.11687 8.61085 5.43465 9.38887 5.45192C10.1418 5.46919 10.7609 6.09096 10.7692 6.88544C10.7692 7.68856 10.1753 8.3276 9.37214 8.33624C8.58575 8.34487 7.97505 7.6972 7.97505 6.89408Z" fill="white"/>
</g>
</svg>
