<svg width="58" height="58" viewBox="0 0 58 58" fill="none" xmlns="http://www.w3.org/2000/svg">
<path d="M51.75 27.5663L51.7615 27.7503L51.9458 27.7538L56.5515 27.8408C57.2543 27.8541 57.8132 28.4346 57.7998 29.1372C57.7866 29.8318 57.2194 30.3859 56.5279 30.3859L56.5033 30.3857L56.502 30.3857L51.9497 30.2998L51.7587 30.2962L51.7464 30.4868C51.0084 41.8919 41.8457 51.038 30.4335 51.7497L30.2494 51.7612L30.246 51.9455L30.1591 56.5513C30.146 57.2459 29.5787 57.8 28.8872 57.8L28.8626 57.7998C28.8623 57.7998 28.8619 57.7998 28.8616 57.7998C28.1593 57.7859 27.6009 57.2058 27.6142 56.5034L27.7002 51.9497L27.7038 51.7587L27.5132 51.7463C16.1081 51.0083 6.96196 41.8456 6.25025 30.4336L6.23877 30.2496L6.05441 30.2461L1.44862 30.1591C0.745896 30.1458 0.18692 29.5653 0.200234 28.8626C0.213527 28.1609 0.794235 27.6044 1.49714 27.6142C1.49729 27.6142 1.49745 27.6142 1.49761 27.6142L6.05037 27.7001L6.24139 27.7037L6.25373 27.5131C6.99172 16.1081 16.1544 6.96201 27.5666 6.2503L27.7507 6.23883L27.7541 6.05446L27.841 1.44868C27.8542 0.754122 28.4214 0.2 29.1129 0.2L29.1375 0.200191C29.1378 0.200196 29.1381 0.200202 29.1384 0.200208C29.8407 0.21401 30.3992 0.794262 30.3859 1.49662L30.2999 6.05031L30.2963 6.24134L30.4869 6.25367C41.892 6.99155 51.0383 16.1543 51.75 27.5663ZM30.3019 48.9909L30.2978 49.2104L30.5167 49.1942C40.4964 48.4517 48.4838 40.4457 49.1982 30.4584L49.2132 30.2481L49.0025 30.2441L44.4958 30.1591C43.7931 30.1458 43.2341 29.5653 43.2474 28.8626L43.2474 28.8626C43.2606 28.1607 43.8391 27.6044 44.5443 27.6141C44.5445 27.6141 44.5447 27.6142 44.5448 27.6142L48.9912 27.6981L49.2107 27.7022L49.1944 27.4833C48.452 17.5037 40.4458 9.51647 30.4586 8.80218L30.2483 8.78714L30.2444 8.99789L30.1593 13.5043C30.1462 14.1989 29.579 14.753 28.8874 14.753L28.8629 14.7528C28.8626 14.7528 28.8623 14.7528 28.862 14.7528C28.1597 14.739 27.6012 14.1588 27.6145 13.4564L27.6984 9.00907L27.7026 8.78955L27.4836 8.80584C17.504 9.5484 9.51665 17.5543 8.80235 27.5415L8.78732 27.7518L8.99807 27.7557L13.5046 27.8408C14.2074 27.8541 14.7663 28.4346 14.753 29.1372C14.7399 29.8318 14.1727 30.3859 13.4811 30.3859L13.4566 30.3857L13.4552 30.3857L9.00913 30.3018L8.78962 30.2977L8.80591 30.5166C9.54835 40.4962 17.5545 48.4835 27.5417 49.1978L27.752 49.2129L27.756 49.0021L27.841 44.4956C27.8542 43.801 28.4214 43.2469 29.1129 43.2469L29.1375 43.2471C29.1378 43.2471 29.1382 43.2471 29.1385 43.2471C29.8408 43.261 30.3992 43.8411 30.3859 44.5435L30.3019 48.9909Z" fill="#FFA800" stroke="white" stroke-width="0.4"/>
<circle cx="29" cy="29" r="8" stroke="#3C434A" stroke-width="2"/>
<rect x="28" y="28" width="2" height="6" rx="1" fill="#3C434A"/>
<rect x="28" y="25" width="2" height="2" rx="1" fill="#3C434A"/>
</svg>
