<svg width="58" height="58" viewBox="0 0 58 58" fill="none" xmlns="http://www.w3.org/2000/svg">
<path d="M52.3832 29.3544C52.3882 27.5112 52.0276 25.6853 51.3222 23.9824C50.6168 22.2794 49.5807 20.7333 48.2738 19.4335C45.9787 17.1385 42.959 15.7103 39.7289 15.3922C36.4988 15.074 33.2583 15.8857 30.5595 17.689C27.8607 19.4922 25.8707 22.1755 24.9285 25.2815C23.9863 28.3875 24.1502 31.7241 25.3923 34.7228C26.6344 37.7215 28.8778 40.1968 31.7403 41.7268C34.6029 43.2569 37.9073 43.7471 41.0907 43.1138C44.2742 42.4806 47.1395 40.7632 49.1986 38.2542C51.2576 35.7453 52.3831 32.6001 52.3832 29.3544ZM52.3832 29.3544L52.2332 29.354M52.3832 29.3544C52.3832 29.3543 52.3832 29.3542 52.3832 29.354H52.2332M52.2332 29.354C52.2381 27.5306 51.8814 25.7244 51.1836 24.0398C50.4858 22.3552 49.4609 20.8257 48.168 19.5399C45.8975 17.2693 42.9098 15.8562 39.7142 15.5415C36.5186 15.2267 33.3127 16.0297 30.6428 17.8137C27.9729 19.5977 26.0042 22.2522 25.072 25.325C24.1399 28.3978 24.302 31.6988 25.5309 34.6654C26.7597 37.6321 28.9791 40.0808 31.811 41.5945C34.643 43.1082 37.9121 43.5932 41.0615 42.9667C44.2109 42.3403 47.0456 40.6412 49.0827 38.159C51.1198 35.6768 52.2332 32.5651 52.2332 29.354ZM47.615 37.3947L47.0129 36.7927C46.8475 36.6272 46.623 36.5342 46.3889 36.5342C46.1549 36.5342 45.9304 36.6272 45.7649 36.7927C45.5994 36.9581 45.5065 37.1826 45.5065 37.4167C45.5065 37.6507 45.5994 37.8752 45.7649 38.0407L46.3649 38.6407C44.3716 40.3704 41.8692 41.4046 39.2363 41.5868V40.7449C39.2363 40.5109 39.1433 40.2864 38.9778 40.1209C38.8123 39.9554 38.5879 39.8625 38.3539 39.8625C38.1198 39.8625 37.8954 39.9554 37.7299 40.1209C37.5644 40.2864 37.4714 40.5109 37.4714 40.7449V41.5868C34.8291 41.4039 32.3185 40.363 30.3219 38.6226L30.9039 38.0407L30.9041 38.0404C31.0689 37.8748 31.1613 37.6505 31.1611 37.4168C31.1608 37.1832 31.0678 36.9592 30.9026 36.7939C30.7374 36.6287 30.5133 36.5357 30.2797 36.5355C30.046 36.5352 29.8217 36.6276 29.6561 36.7924L29.6558 36.7927L29.0748 37.3737C27.3407 35.379 26.3037 32.8733 26.1212 30.2364H26.9631C27.1971 30.2364 27.4216 30.1435 27.587 29.978C27.7525 29.8125 27.8455 29.588 27.8455 29.354C27.8455 29.12 27.7525 28.8955 27.587 28.7301C27.4216 28.5646 27.1971 28.4716 26.9631 28.4716H26.1212C26.3034 25.8387 27.3376 23.3364 29.0673 21.3431L29.6558 21.9316C29.7378 22.0135 29.8351 22.0785 29.9421 22.1229C30.0492 22.1672 30.164 22.1901 30.2799 22.1901C30.3957 22.1901 30.5105 22.1672 30.6176 22.1229C30.7246 22.0785 30.8219 22.0135 30.9039 21.9316C30.9858 21.8496 31.0508 21.7524 31.0952 21.6453C31.1395 21.5382 31.1623 21.4235 31.1623 21.3076C31.1623 21.1917 31.1395 21.0769 31.0952 20.9699C31.0508 20.8628 30.9858 20.7655 30.9039 20.6836L30.3133 20.093C32.3112 18.3481 34.8252 17.3045 37.4714 17.1213V17.9631C37.4714 18.1972 37.5644 18.4216 37.7299 18.5871C37.8954 18.7526 38.1198 18.8456 38.3539 18.8456C38.5879 18.8456 38.8123 18.7526 38.9778 18.5871C39.1433 18.4216 39.2363 18.1972 39.2363 17.9631V17.1213C41.8731 17.3038 44.3789 18.3407 46.3736 20.0749L45.7649 20.6836C45.5994 20.8491 45.5065 21.0735 45.5065 21.3076C45.5065 21.5416 45.5994 21.7661 45.7649 21.9316C45.9304 22.0971 46.1549 22.1901 46.3889 22.1901C46.623 22.1901 46.8474 22.0971 47.0129 21.9316L47.6225 21.3221C49.3629 23.3187 50.4037 25.8292 50.5866 28.4716H49.7447C49.5107 28.4716 49.2862 28.5646 49.1208 28.7301C48.9553 28.8955 48.8623 29.12 48.8623 29.354C48.8623 29.588 48.9553 29.8125 49.1208 29.978C49.2862 30.1435 49.5107 30.2364 49.7447 30.2364H50.5866C50.4034 32.8827 49.3598 35.3967 47.615 37.3947Z" fill="#FFA800" stroke="#FFA800" stroke-width="0.3"/>
<path d="M13.117 32.6891C13.1614 32.7962 13.1842 32.9109 13.1842 33.0268L13.117 32.6891ZM13.117 32.6891C13.0727 32.5821 13.0077 32.4848 12.9258 32.4028M13.117 32.6891L12.9258 32.4028M12.9258 32.4028C12.8438 32.3209 12.7465 32.2559 12.6395 32.2115M12.9258 32.4028L12.6395 32.2115M12.6395 32.2115C12.5324 32.1672 12.4177 32.1444 12.3018 32.1444M12.6395 32.2115L12.3018 32.1444M12.3018 32.1444H5.66211M12.3018 32.1444H5.66211M5.66211 32.1444C5.42808 32.1444 5.20363 32.2374 5.03814 32.4029M5.66211 32.1444L5.03814 32.4029M5.03814 32.4029C4.87266 32.5683 4.77969 32.7928 4.77969 33.0268M5.03814 32.4029L4.77969 33.0268M4.77969 33.0268C4.77969 33.2608 4.87266 33.4853 5.03814 33.6508M4.77969 33.0268L5.03814 33.6508M5.03814 33.6508C5.20363 33.8163 5.42808 33.9092 5.66211 33.9092M5.03814 33.6508L5.66211 33.9092M5.66211 33.9092H12.3018M5.66211 33.9092H12.3018M12.3018 33.9092C12.4177 33.9092 12.5324 33.8864 12.6395 33.8421M12.3018 33.9092L12.6395 33.8421M12.6395 33.8421C12.7465 33.7977 12.8438 33.7327 12.9258 33.6508M12.6395 33.8421L12.9258 33.6508M12.9258 33.6508C13.0077 33.5689 13.0727 33.4716 13.117 33.3645M12.9258 33.6508L13.117 33.3645M13.117 33.3645C13.1614 33.2574 13.1842 33.1427 13.1842 33.0268L13.117 33.3645ZM12.117 28.2946C12.1614 28.4017 12.1842 28.5164 12.1842 28.6323L12.117 28.2946ZM12.117 28.2946C12.0727 28.1875 12.0077 28.0903 11.9258 28.0083M12.117 28.2946L11.9258 28.0083M11.9258 28.0083C11.8438 27.9264 11.7465 27.8614 11.6395 27.817M11.9258 28.0083L11.6395 27.817M11.6395 27.817C11.5324 27.7727 11.4177 27.7499 11.3018 27.7499M11.6395 27.817L11.3018 27.7499M11.3018 27.7499H1.73242M11.3018 27.7499H1.73242M1.73242 27.7499C1.49839 27.7499 1.27394 27.8428 1.10846 28.0083M1.73242 27.7499L1.10846 28.0083M1.10846 28.0083C0.942969 28.1738 0.85 28.3983 0.85 28.6323M1.10846 28.0083L0.85 28.6323M0.85 28.6323C0.85 28.8663 0.942969 29.0908 1.10846 29.2563M0.85 28.6323L1.10846 29.2563M1.10846 29.2563C1.27394 29.4217 1.49839 29.5147 1.73242 29.5147M1.10846 29.2563L1.73242 29.5147M1.73242 29.5147H11.3018M1.73242 29.5147H11.3018M11.3018 29.5147C11.4177 29.5147 11.5324 29.4919 11.6395 29.4476M11.3018 29.5147L11.6395 29.4476M11.6395 29.4476C11.7465 29.4032 11.8438 29.3382 11.9258 29.2563M11.6395 29.4476L11.9258 29.2563M11.9258 29.2563C12.0077 29.1743 12.0727 29.077 12.117 28.97M11.9258 29.2563L12.117 28.97M12.117 28.97C12.1614 28.8629 12.1842 28.7482 12.1842 28.6323L12.117 28.97ZM5.66211 25.1202H12.9955C13.2295 25.1202 13.454 25.0272 13.6194 24.8617C13.7849 24.6962 13.8779 24.4718 13.8779 24.2378C13.8779 24.0037 13.7849 23.7793 13.6194 23.6138C13.454 23.4483 13.2295 23.3553 12.9955 23.3553H5.66211C5.42808 23.3553 5.20363 23.4483 5.03814 23.6138C4.87266 23.7793 4.77969 24.0037 4.77969 24.2378C4.77969 24.4718 4.87266 24.6962 5.03814 24.8617C5.20363 25.0272 5.42808 25.1202 5.66211 25.1202ZM8.12695 20.7257H15.4519C15.686 20.7257 15.9104 20.6327 16.0759 20.4672C16.2414 20.3017 16.3344 20.0773 16.3344 19.8432C16.3344 19.6092 16.2414 19.3847 16.0759 19.2193C15.9104 19.0538 15.686 18.9608 15.4519 18.9608H8.12695C7.89292 18.9608 7.66847 19.0538 7.50299 19.2193C7.3375 19.3847 7.24453 19.6092 7.24453 19.8432C7.24453 20.0773 7.3375 20.3017 7.50299 20.4672C7.66847 20.6327 7.89292 20.7257 8.12695 20.7257ZM14.7666 36.5389H8.12695C7.89292 36.5389 7.66847 36.6319 7.50299 36.7974C7.3375 36.9629 7.24453 37.1873 7.24453 37.4213C7.24453 37.6554 7.3375 37.8798 7.50299 38.0453C7.66847 38.2108 7.89292 38.3038 8.12695 38.3038H14.7666C15.0007 38.3038 15.2251 38.2108 15.3906 38.0453C15.5561 37.8798 15.649 37.6554 15.649 37.4213C15.649 37.1873 15.5561 36.9629 15.3906 36.7974C15.2251 36.6319 15.0007 36.5389 14.7666 36.5389Z" fill="#FFA800" stroke="#FFA800" stroke-width="0.3"/>
<circle cx="38.5" cy="29" r="1.5" stroke="#3C434A"/>
<path d="M47.8574 25.2041L39.9999 29.5L39.4999 27.5003L47.8574 25.2041Z" fill="#3C434A" stroke="#3C434A"/>
<circle cx="38.5" cy="29.5" r="18.5" stroke="#FFA800" stroke-width="2"/>
</svg>
