<svg width="58" height="58" viewBox="0 0 58 58" fill="none" xmlns="http://www.w3.org/2000/svg">
<g clip-path="url(#clip0_2_237)">
<path d="M39.6937 44.9502C39.6937 44.7689 39.6937 44.7689 39.5125 44.5877C39.3312 44.2252 39.3312 44.0439 39.15 43.6814V43.5002C38.2438 41.3252 36.4312 39.5127 34.075 38.7877L26.2812 36.2502V32.6252C27.1875 31.9002 28.0938 31.1752 28.8187 30.2689H29C32.0812 30.2689 34.4375 27.7314 34.4375 24.8314V21.0252C34.4375 19.5752 33.1688 18.3064 31.7188 18.3064L32.625 15.7689C32.9875 14.3189 32.625 13.0502 31.7188 11.9627C30.9937 11.0564 30.0875 10.5127 29 10.3314C28.8188 9.06269 28.0938 7.79394 27.1875 6.88769C25.9188 5.80019 24.2875 5.43769 22.8375 5.61894L11.9625 7.43144C10.3313 7.61269 9.0625 8.33769 8.3375 9.60644C7.43125 10.6939 7.06875 12.1439 7.43125 13.7752L8.51875 18.1252H8.15625C6.70625 18.1252 5.4375 19.3939 5.4375 20.8439V22.6564C5.4375 24.1064 6.70625 25.3752 8.15625 25.3752H9.24375C9.7875 28.2752 11.4187 30.8127 13.775 32.4439V36.0689L5.98125 38.6064C3.625 39.3314 1.8125 41.1439 0.90625 43.3189V43.5002C0.725 43.8627 0.725 44.0439 0.54375 44.4064C0.54375 44.5877 0.54375 44.5877 0.3625 44.7689C0.3625 44.9502 0.18125 45.3127 0.18125 45.4939C0 46.0377 0 46.4002 0 46.7627V53.4689C0 54.0127 0.3625 54.3752 0.90625 54.3752H38.7875C39.3312 54.3752 39.6937 54.0127 39.6937 53.4689V46.7627C39.6937 46.4002 39.6937 46.0377 39.5125 45.4939C39.6937 45.3127 39.6937 45.1314 39.6937 44.9502ZM29.725 28.0939C30.0875 27.1877 30.45 26.2814 30.6312 25.3752H31.7188C32.0812 25.3752 32.2625 25.3752 32.625 25.1939C32.2625 26.6439 31.175 27.7314 29.725 28.0939ZM31.7188 19.9377C32.2625 19.9377 32.625 20.3002 32.625 20.8439V22.6564C32.625 23.2002 32.2625 23.5627 31.7188 23.5627H30.8125V20.8439V20.6627L30.9938 19.9377H31.7188ZM9.7875 10.5127C10.3313 9.78769 11.2375 9.24394 12.1437 9.06269L23.0187 7.25019C24.1062 7.06894 25.1938 7.43144 25.9188 7.97519C26.6438 8.70019 27.1875 9.78769 27.1875 10.8752C27.1875 11.4189 27.55 11.7814 28.0938 11.7814C29 11.7814 29.725 12.1439 30.2688 12.8689C30.8125 13.5939 30.9937 14.3189 30.8125 15.0439L29.3625 19.3939C29 19.3939 28.6375 19.0314 28.6375 18.6689V15.7689C28.6375 15.0439 28.275 14.5002 27.7313 14.3189C27.1875 13.9564 26.4625 14.1377 25.9188 14.5002C23.0188 16.6752 19.2125 17.5814 15.5875 16.8564L13.775 16.4939C12.5062 16.4939 11.2375 17.5814 11.2375 19.0314C11.2375 19.3939 11.0563 19.5752 10.6938 19.7564L9.0625 13.4127C8.88125 12.3252 9.24375 11.4189 9.7875 10.5127ZM9.0625 23.5627H8.15625C7.6125 23.5627 7.25 23.2002 7.25 22.6564V20.8439C7.25 20.3002 7.6125 19.9377 8.15625 19.9377H8.88125L9.0625 20.6627V23.5627ZM10.875 23.5627V21.3877C12.1438 21.2064 13.05 20.3002 13.05 19.0314C13.05 18.6689 13.4125 18.3064 13.5938 18.3064L15.225 18.6689C19.2125 19.3939 23.3813 18.4877 26.825 16.1314V19.0314C26.825 20.3002 27.7313 21.3877 29 21.3877V23.5627C29 25.3752 28.4563 26.8252 27.7313 28.2752H22.6562C22.1125 28.2752 21.75 28.6377 21.75 29.1814C21.75 29.7252 22.1125 30.0877 22.6562 30.0877H26.2812C24.65 31.5377 22.2938 32.6252 19.9375 32.6252C14.8625 32.6252 10.875 28.4564 10.875 23.5627ZM19.9375 34.4377C21.5688 34.4377 23.0187 34.0752 24.2875 33.5314V36.0689C24.2875 37.8814 21.3875 39.6939 19.9375 40.4189C18.4875 39.6939 15.5875 37.8814 15.5875 36.0689V33.5314C16.8563 34.0752 18.3062 34.4377 19.9375 34.4377ZM6.34375 40.4189L14.1375 37.8814C15.4062 40.2377 19.0312 41.8689 19.3937 42.0502H20.1188C20.6625 41.8689 24.1063 40.2377 25.375 37.8814L33.1687 40.4189C34.2562 40.7814 35.3438 41.5064 36.0687 42.2314C32.0812 43.5002 29 47.3064 29 52.0189V52.5627H10.875V52.0189C10.875 47.3064 7.79375 43.5002 3.625 42.2314C4.35 41.5064 5.25625 40.7814 6.34375 40.4189ZM1.8125 52.5627V46.7627C1.8125 46.2189 1.8125 45.8564 1.99375 45.3127V45.1314C2.175 44.5877 2.175 44.2252 2.5375 43.8627C6.34375 44.5877 9.0625 48.0314 9.0625 52.0189V52.5627H1.8125ZM38.0625 52.5627H30.8125V52.0189C30.8125 48.0314 33.7125 44.7689 37.5188 43.8627C37.7 44.2252 37.8812 44.7689 38.0625 45.1314V45.3127C38.2438 45.8564 38.2438 46.2189 38.2438 46.7627V52.5627H38.0625Z" fill="#FFA800"/>
<path d="M43.4999 3.625C39.1499 3.625 35.1624 5.4375 32.4437 8.88125C32.0812 9.24375 32.2624 9.7875 32.6249 10.15C32.9874 10.5125 33.5312 10.3313 33.8937 9.96875C36.2499 7.06875 39.6937 5.4375 43.4999 5.4375C50.5687 5.4375 56.1874 11.0562 56.1874 18.125C56.1874 25.1938 50.5687 30.8125 43.4999 30.8125C40.9624 30.8125 38.4249 30.0875 36.2499 28.4562C35.8874 28.0938 35.3437 28.275 34.9812 28.6375C34.6187 29 34.7999 29.5438 35.1624 29.9062C37.6999 31.7188 40.4187 32.625 43.4999 32.625C51.4749 32.625 57.9999 26.1 57.9999 18.125C57.9999 10.15 51.4749 3.625 43.4999 3.625Z" fill="#FFA800"/>
<path d="M37.156 24.4686C37.3372 24.6498 37.5185 24.6498 37.881 24.6498C38.2435 24.6498 38.4247 24.6498 38.606 24.4686L43.1372 19.9373C44.0435 20.6623 45.131 21.0248 46.2185 21.0248C47.6685 21.0248 49.1185 20.4811 50.0247 19.3936C51.1122 18.3061 51.656 17.0373 51.656 15.5873C51.656 14.1373 51.1122 12.6873 50.0247 11.7811C48.031 9.78733 44.406 9.78733 42.4122 11.7811C41.3247 12.8686 40.781 14.1373 40.781 15.5873C40.781 16.6748 41.1435 17.7623 41.8685 18.6686L37.3372 23.1998C36.7935 23.5623 36.7935 24.1061 37.156 24.4686ZM43.4997 13.0498C44.2247 12.3248 45.131 11.9623 46.0372 11.9623C46.9435 11.9623 47.8497 12.3248 48.5747 13.0498C49.2997 13.7748 49.6622 14.6811 49.6622 15.5873C49.6622 16.4936 49.2997 17.3998 48.5747 18.1248C47.1247 19.5748 44.7685 19.5748 43.4997 18.1248C42.7747 17.3998 42.4122 16.4936 42.4122 15.5873C42.4122 14.6811 42.7747 13.5936 43.4997 13.0498Z" fill="#3C434A"/>
</g>
<defs>
<clipPath id="clip0_2_237">
<rect width="58" height="58" fill="white"/>
</clipPath>
</defs>
</svg>
