<svg width="50" height="50" viewBox="0 0 50 50" fill="none" xmlns="http://www.w3.org/2000/svg">
<g clip-path="url(#clip0_2_232)">
<path d="M35.1562 0H14.8438C13.8077 0 12.8142 0.41155 12.0816 1.14411C11.3491 1.87668 10.9375 2.87025 10.9375 3.90625V46.0938C10.9375 47.1298 11.3491 48.1233 12.0816 48.8559C12.8142 49.5884 13.8077 50 14.8438 50H35.1562C36.1923 50 37.1858 49.5884 37.9184 48.8559C38.651 48.1233 39.0625 47.1298 39.0625 46.0938V3.90625C39.0625 2.87025 38.651 1.87668 37.9184 1.14411C37.1858 0.41155 36.1923 0 35.1562 0ZM37.5 46.0938C37.5 46.7154 37.2531 47.3115 36.8135 47.751C36.374 48.1906 35.7779 48.4375 35.1562 48.4375H14.8438C14.2221 48.4375 13.626 48.1906 13.1865 47.751C12.7469 47.3115 12.5 46.7154 12.5 46.0938V40.625H37.5V46.0938ZM37.5 39.0625H12.5V7.8125H37.5V39.0625ZM37.5 6.25H12.5V3.90625C12.5 3.28465 12.7469 2.68851 13.1865 2.24897C13.626 1.80943 14.2221 1.5625 14.8438 1.5625H35.1562C35.7779 1.5625 36.374 1.80943 36.8135 2.24897C37.2531 2.68851 37.5 3.28465 37.5 3.90625V6.25ZM25 46.875C25.4635 46.875 25.9167 46.7375 26.3021 46.48C26.6875 46.2225 26.9879 45.8564 27.1653 45.4282C27.3427 44.9999 27.3892 44.5287 27.2987 44.074C27.2083 43.6194 26.9851 43.2017 26.6573 42.874C26.3295 42.5462 25.9119 42.323 25.4572 42.2325C25.0026 42.1421 24.5314 42.1885 24.1031 42.3659C23.6748 42.5433 23.3088 42.8437 23.0512 43.2291C22.7937 43.6146 22.6562 44.0677 22.6562 44.5312C22.6562 45.1529 22.9032 45.749 23.3427 46.1885C23.7823 46.6281 24.3784 46.875 25 46.875ZM25 43.75C25.1545 43.75 25.3056 43.7958 25.434 43.8817C25.5625 43.9675 25.6626 44.0895 25.7218 44.2323C25.7809 44.375 25.7964 44.5321 25.7662 44.6837C25.7361 44.8352 25.6617 44.9744 25.5524 45.0837C25.4432 45.1929 25.304 45.2673 25.1524 45.2975C25.0009 45.3276 24.8438 45.3122 24.701 45.253C24.5583 45.1939 24.4363 45.0938 24.3504 44.9653C24.2646 44.8368 24.2188 44.6858 24.2188 44.5312C24.2188 44.3241 24.3011 44.1253 24.4476 43.9788C24.5941 43.8323 24.7928 43.75 25 43.75ZM25 3.125C24.8455 3.125 24.6944 3.17082 24.566 3.25666C24.4375 3.34251 24.3373 3.46452 24.2782 3.60728C24.2191 3.75003 24.2036 3.90712 24.2338 4.05866C24.2639 4.21021 24.3383 4.34942 24.4476 4.45868C24.5568 4.56794 24.696 4.64234 24.8476 4.67249C24.9991 4.70263 25.1562 4.68716 25.299 4.62803C25.4417 4.5689 25.5637 4.46877 25.6496 4.34029C25.7354 4.21181 25.7812 4.06077 25.7812 3.90625C25.7812 3.69905 25.6989 3.50034 25.5524 3.35382C25.4059 3.20731 25.2072 3.125 25 3.125ZM16.4062 28.125H33.5938C34.2154 28.125 34.8115 27.8781 35.251 27.4385C35.6906 26.999 35.9375 26.4029 35.9375 25.7812V24.2188C35.9375 23.5971 35.6906 23.001 35.251 22.5615C34.8115 22.1219 34.2154 21.875 33.5938 21.875H16.4062C15.7846 21.875 15.1885 22.1219 14.749 22.5615C14.3094 23.001 14.0625 23.5971 14.0625 24.2188V25.7812C14.0625 26.4029 14.3094 26.999 14.749 27.4385C15.1885 27.8781 15.7846 28.125 16.4062 28.125ZM15.625 24.2188C15.625 24.0115 15.7073 23.8128 15.8538 23.6663C16.0003 23.5198 16.199 23.4375 16.4062 23.4375H33.5938C33.801 23.4375 33.9997 23.5198 34.1462 23.6663C34.2927 23.8128 34.375 24.0115 34.375 24.2188V25.7812C34.375 25.9885 34.2927 26.1872 34.1462 26.3337C33.9997 26.4802 33.801 26.5625 33.5938 26.5625H16.4062C16.199 26.5625 16.0003 26.4802 15.8538 26.3337C15.7073 26.1872 15.625 25.9885 15.625 25.7812V24.2188ZM16.4062 35.9375H33.5938C34.2154 35.9375 34.8115 35.6906 35.251 35.251C35.6906 34.8115 35.9375 34.2154 35.9375 33.5938V32.0312C35.9375 31.4096 35.6906 30.8135 35.251 30.374C34.8115 29.9344 34.2154 29.6875 33.5938 29.6875H16.4062C15.7846 29.6875 15.1885 29.9344 14.749 30.374C14.3094 30.8135 14.0625 31.4096 14.0625 32.0312V33.5938C14.0625 34.2154 14.3094 34.8115 14.749 35.251C15.1885 35.6906 15.7846 35.9375 16.4062 35.9375ZM15.625 32.0312C15.625 31.824 15.7073 31.6253 15.8538 31.4788C16.0003 31.3323 16.199 31.25 16.4062 31.25H33.5938C33.801 31.25 33.9997 31.3323 34.1462 31.4788C34.2927 31.6253 34.375 31.824 34.375 32.0312V33.5938C34.375 33.8009 34.2927 33.9997 34.1462 34.1462C33.9997 34.2927 33.801 34.375 33.5938 34.375H16.4062C16.199 34.375 16.0003 34.2927 15.8538 34.1462C15.7073 33.9997 15.625 33.8009 15.625 33.5938V32.0312ZM25 20.3125C25.9271 20.3125 26.8334 20.0376 27.6042 19.5225C28.3751 19.0074 28.9759 18.2754 29.3307 17.4188C29.6855 16.5623 29.7783 15.6198 29.5974 14.7105C29.4166 13.8012 28.9701 12.966 28.3146 12.3104C27.659 11.6549 26.8238 11.2084 25.9145 11.0276C25.0052 10.8467 24.0627 10.9395 23.2062 11.2943C22.3496 11.6491 21.6176 12.2499 21.1025 13.0208C20.5874 13.7916 20.3125 14.6979 20.3125 15.625C20.3125 16.8682 20.8064 18.0605 21.6854 18.9396C22.5645 19.8186 23.7568 20.3125 25 20.3125ZM25 12.5C25.6181 12.5 26.2223 12.6833 26.7362 13.0267C27.2501 13.37 27.6506 13.8581 27.8871 14.4291C28.1236 15.0001 28.1855 15.6285 28.065 16.2347C27.9444 16.8408 27.6467 17.3977 27.2097 17.8347C26.7727 18.2717 26.2158 18.5694 25.6097 18.69C25.0035 18.8105 24.3751 18.7486 23.8041 18.5121C23.2331 18.2756 22.745 17.8751 22.4017 17.3612C22.0583 16.8473 21.875 16.2431 21.875 15.625C21.875 14.7962 22.2042 14.0013 22.7903 13.4153C23.3763 12.8292 24.1712 12.5 25 12.5Z" fill="#FFA800"/>
<path d="M25 20.3125C25.9271 20.3125 26.8334 20.0376 27.6042 19.5225C28.3751 19.0074 28.9759 18.2754 29.3307 17.4188C29.6855 16.5623 29.7783 15.6198 29.5974 14.7105C29.4166 13.8012 28.9701 12.966 28.3146 12.3104C27.659 11.6549 26.8238 11.2084 25.9145 11.0276C25.0052 10.8467 24.0627 10.9395 23.2062 11.2943C22.3496 11.6491 21.6176 12.2499 21.1025 13.0208C20.5874 13.7916 20.3125 14.6979 20.3125 15.625C20.3125 16.8682 20.8064 18.0605 21.6854 18.9396C22.5645 19.8186 23.7568 20.3125 25 20.3125ZM25 12.5C25.6181 12.5 26.2223 12.6833 26.7362 13.0267C27.2501 13.37 27.6506 13.8581 27.8871 14.4291C28.1236 15.0001 28.1855 15.6285 28.065 16.2347C27.9444 16.8408 27.6467 17.3977 27.2097 17.8347C26.7727 18.2717 26.2158 18.5694 25.6097 18.69C25.0035 18.8105 24.3751 18.7486 23.8041 18.5121C23.2331 18.2756 22.745 17.8751 22.4017 17.3612C22.0583 16.8473 21.875 16.2431 21.875 15.625C21.875 14.7962 22.2042 14.0013 22.7903 13.4153C23.3763 12.8292 24.1712 12.5 25 12.5Z" fill="#3C434A"/>
</g>
<defs>
<clipPath id="clip0_2_232">
<rect width="50" height="50" fill="white"/>
</clipPath>
</defs>
</svg>
