<svg width="58" height="58" viewBox="0 0 58 58" fill="none" xmlns="http://www.w3.org/2000/svg">
<circle cx="44" cy="15" r="7.25" stroke="#3C434A" stroke-width="1.5"/>
<path d="M46.25 14.25H44.75V12.75C44.75 12.5511 44.671 12.3603 44.5303 12.2197C44.3897 12.079 44.1989 12 44 12C43.8011 12 43.6103 12.079 43.4697 12.2197C43.329 12.3603 43.25 12.5511 43.25 12.75V14.25H41.75C41.5511 14.25 41.3603 14.329 41.2197 14.4697C41.079 14.6103 41 14.8011 41 15C41 15.1989 41.079 15.3897 41.2197 15.5303C41.3603 15.671 41.5511 15.75 41.75 15.75H43.25V17.25C43.25 17.4489 43.329 17.6397 43.4697 17.7803C43.6103 17.921 43.8011 18 44 18C44.1989 18 44.3897 17.921 44.5303 17.7803C44.671 17.6397 44.75 17.4489 44.75 17.25V15.75H46.25C46.4489 15.75 46.6397 15.671 46.7803 15.5303C46.921 15.3897 47 15.1989 47 15C47 14.8011 46.921 14.6103 46.7803 14.4697C46.6397 14.329 46.4489 14.25 46.25 14.25Z" fill="#3C434A"/>
<rect x="3" y="1" width="23" height="23" rx="4" stroke="#FFA800" stroke-width="2"/>
<path d="M13.1136 19.7631L13.1137 19.7631L13.1069 19.7588C13.0209 19.7046 12.9272 19.643 12.8269 19.5772C12.4106 19.3037 11.8814 18.9561 11.3245 18.7516L11.3164 18.7486L11.3082 18.7458C10.554 18.4861 9.76144 18.588 9.19036 18.6755C9.16754 18.5618 9.13551 18.4239 9.09025 18.297L9.08491 18.282L9.07901 18.2672C8.86734 17.7372 8.3571 17.6174 8.21336 17.5867C8.11555 17.5659 8.021 17.5548 7.96763 17.5485L7.96279 17.5479C7.91913 17.5428 7.90039 17.5403 7.89416 17.5395L7.64126 17.4762C7.70888 17.4457 7.77588 17.4133 7.84053 17.3788L7.84192 17.378C8.48461 17.0332 9.04634 16.5579 9.49145 16.0452C9.89824 15.5766 10.3995 14.9062 10.5842 14.1176C10.6558 13.8188 10.6514 13.505 10.531 13.2054C10.4127 12.9114 10.2137 12.7082 10.0295 12.5715C9.97971 12.5346 9.92732 12.5002 9.87364 12.4682C9.88527 12.4676 9.89717 12.4669 9.90888 12.466C9.96266 12.4617 10.1522 12.4459 10.345 12.3171C10.5421 12.1855 10.6289 12.0112 10.6499 11.969L10.651 11.9669C10.6576 11.9536 10.6629 11.9423 10.6658 11.936L10.6721 11.9223C10.6725 11.9214 10.6729 11.9207 10.6731 11.9202L10.7441 11.7778L10.7583 11.6171C10.7933 11.2193 10.7747 10.8357 10.7525 10.5001C10.7476 10.4254 10.7425 10.3538 10.7377 10.2845C10.7195 10.0256 10.7037 9.80012 10.7037 9.5698V9.55567L10.7032 9.54153C10.6862 9.03121 10.7399 8.55945 10.8941 8.16374C11.0608 7.75588 11.3253 7.35978 11.6353 7.01495C12.2855 6.33687 13.1613 5.95302 14.1337 5.87186L14.1349 5.87176C15.1535 5.7853 16.1343 5.9502 16.886 6.46199C17.6498 6.98291 18.2306 7.78245 18.3595 8.59924C18.4305 9.05496 18.415 9.50972 18.3962 10.0589C18.3935 10.1365 18.3908 10.2159 18.3883 10.2976L18.3878 10.3108V10.3241C18.3878 10.4633 18.3835 10.6048 18.3786 10.7617L18.3784 10.7676C18.3737 10.9185 18.3685 11.0844 18.3685 11.2524V11.253V11.2536V11.2541V11.2547V11.2553V11.2558V11.2564V11.257V11.2575V11.2581V11.2587V11.2593V11.2598V11.2604V11.261V11.2615V11.2621V11.2627V11.2633V11.2638V11.2644V11.265V11.2656V11.2661V11.2667V11.2673V11.2679V11.2685V11.269V11.2696V11.2702V11.2708V11.2714V11.2719V11.2725V11.2731V11.2737V11.2743V11.2748V11.2754V11.276V11.2766V11.2772V11.2778V11.2783V11.2789V11.2795V11.2801V11.2807V11.2813V11.2819V11.2824V11.283V11.2836V11.2842V11.2848V11.2854V11.286V11.2866V11.2872V11.2877V11.2883V11.2889V11.2895V11.2901V11.2907V11.2913V11.2919V11.2925V11.2931V11.2937V11.2943V11.2949V11.2954V11.296V11.2966V11.2972V11.2978V11.2984V11.299V11.2996V11.3002V11.3008V11.3014V11.302V11.3026V11.3032V11.3038V11.3044V11.305V11.3056V11.3062V11.3068V11.3074V11.308V11.3086V11.3092V11.3098V11.3104V11.311V11.3116V11.3122V11.3128V11.3134V11.314V11.3146V11.3152V11.3158V11.3164V11.317V11.3176V11.3183V11.3189V11.3195V11.3201V11.3207V11.3213V11.3219V11.3225V11.3231V11.3237V11.3243V11.3249V11.3255V11.3261V11.3268V11.3274V11.328V11.3286V11.3292V11.3298V11.3304V11.331V11.3316V11.3322V11.3329V11.3335V11.3341V11.3347V11.3353V11.3359V11.3365V11.3371V11.3377V11.3384V11.339V11.3396V11.3402V11.3408V11.3414V11.342V11.3426V11.3433V11.3439V11.3445V11.3451V11.3457V11.3463V11.347V11.3476V11.3482V11.3488V11.3494V11.35V11.3506V11.3513V11.3519V11.3525V11.3531V11.3537V11.3543V11.355V11.3556V11.3562V11.3568V11.3574V11.358V11.3587V11.3593V11.3599V11.3605V11.3611V11.3618V11.3624V11.363V11.3636V11.3642V11.3649V11.3655V11.3661V11.3667V11.3673V11.368V11.3686V11.3692V11.3698V11.3704V11.3711V11.3717V11.3723V11.3729V11.3735V11.3742V11.3748V11.3754V11.376V11.3766V11.3773V11.3779V11.3785V11.3791V11.3797V11.3804V11.381V11.3816V11.3822V11.3829V11.3835V11.3841V11.3847V11.3853V11.386V11.3866V11.3872V11.3878V11.3885V11.3891V11.3897V11.3903V11.3909V11.3916V11.3922V11.3928V11.3934V11.3941V11.3947V11.3953V11.3959V11.3966V11.3972V11.3978V11.3984V11.399V11.3997V11.4003V11.4009V11.4015V11.4022V11.4028V11.4034V11.404V11.4047V11.4053V11.4059V11.4065V11.4071V11.4078V11.4084V11.409V11.4096V11.4103V11.4109V11.4115V11.4121V11.4128V11.4134V11.414V11.4146V11.4152V11.4159V11.4165V11.4171V11.4177V11.4184V11.419V11.4196V11.4202V11.4209V11.4215V11.4221V11.4227V11.4233V11.424V11.4246V11.4252V11.4258V11.4265V11.4271V11.4277V11.4283V11.4289V11.4296V11.4302V11.4308V11.4314V11.4321V11.4327V11.4333V11.4339V11.4345V11.4352V11.4358V11.4364V11.437V11.4377V11.4383V11.4389V11.4395V11.4401V11.4408V11.4414V11.442V11.4426V11.4432V11.4439V11.4445V11.4451V11.4457V11.4463V11.447V11.4476V11.4482V11.4488V11.4494V11.4501V11.4507V11.4513V11.4519V11.4525V11.4532V11.4538V11.4544V11.455V11.4556V11.4562V11.4569V11.4575V11.4581V11.4587V11.4593V11.4599V11.4606V11.4612V11.4618V11.4624V11.463V11.4636V11.4643V11.4649V11.4655V11.4661V11.4667V11.4673V11.468V11.4686V11.4692V11.4698V11.4704V11.471V11.4716V11.4723V11.4729V11.4735V11.4741V11.4747V11.4753V11.4759V11.4765V11.4772V11.4778V11.4784V11.479V11.4796V11.4802V11.4808V11.4814V11.4821V11.4827V11.4833V11.4839V11.4845V11.4851V11.4857V11.4863V11.4869V11.4875V11.4881V11.4888V11.4894V11.49V11.4906V11.4912V11.4918V11.4924V11.493V11.4936V11.4942V11.4948V11.4954V11.496V11.4966V11.4972V11.4979V11.4985V11.4991V11.4997V11.5003V11.5009V11.5015V11.5021V11.5027V11.5033V11.5039V11.5045V11.5051V11.5057V11.5063V11.5069V11.5075V11.5081V11.5087V11.5093V11.5099V11.5105V11.5111V11.5117V11.5123V11.5129V11.5135V11.5141V11.5147V11.5153V11.5159V11.5165V11.5171V11.5177V11.5183V11.5188V11.5194V11.52V11.5206V11.5212V11.5218V11.5224V11.523V11.5236V11.5242V11.5248V11.5254V11.526V11.5265V11.5271V11.5277V11.5283V11.5289V11.5295V11.5301V11.5307V11.5313V11.5318V11.5324V11.533V11.5336V11.5342V11.5348V11.5354V11.536V11.5365V11.5371V11.5377V11.5383V11.5389V11.5395V11.54V11.5406V11.5412V11.5418V11.5424V11.5429V11.5435V11.5441V11.5447V11.5453V11.5458V11.5464V11.547V11.5476V11.5481V11.5487V11.5493V11.5499V11.5505V11.551V11.5516V11.5522V11.5527V11.5533V11.5539V11.5545V11.555V11.5556V11.5562V11.5568V11.5573V11.5579V11.5585V11.559V11.5596V11.5602V11.5607V11.5613V11.5619C18.3685 12.0072 18.6811 12.2349 18.7751 12.2941C18.8885 12.3654 18.9936 12.395 19.0345 12.4058C19.1293 12.431 19.2174 12.4393 19.2589 12.4428C19.2676 12.4435 19.2763 12.4442 19.2849 12.4448C19.0963 12.5588 18.8937 12.7201 18.7328 12.953C18.4944 13.2955 18.4962 13.6607 18.5295 13.8891C18.5622 14.1141 18.641 14.3125 18.6802 14.4107L18.684 14.4203L18.6881 14.4298C18.8236 14.7465 18.9794 15.0351 19.1508 15.314L19.1508 15.3141L19.1539 15.3191C19.496 15.8673 19.9231 16.3373 20.3834 16.7325L20.3943 16.7418L20.4055 16.7508C20.7347 17.0146 21.1135 17.2734 21.5398 17.4691C21.3975 17.5047 21.2553 17.5288 21.0999 17.5418C20.6686 17.5762 20.3696 17.8163 20.1957 18.0776C20.0572 18.2856 19.994 18.5137 19.9655 18.6185C19.9652 18.6195 19.9649 18.6206 19.9646 18.6216C19.8641 18.6086 19.7444 18.594 19.6268 18.5856C19.3257 18.5641 19.0245 18.5634 18.7234 18.5836C18.5275 18.5856 18.35 18.6057 18.2074 18.6219C18.1908 18.6238 18.1747 18.6256 18.1591 18.6273L18.1459 18.6288L18.1327 18.6307C17.7018 18.6923 17.3224 18.9178 17.1223 19.0368C17.1037 19.0479 17.0866 19.058 17.0712 19.067L17.0712 19.0669L17.0622 19.0723C16.8698 19.188 16.6746 19.3157 16.4962 19.4326C16.4357 19.4722 16.3771 19.5106 16.3212 19.5467C16.0881 19.6977 15.8787 19.8266 15.6712 19.9305L15.6441 19.9441L15.618 19.9596C15.3282 20.1316 14.988 20.15 14.3913 20.15C13.9102 20.15 13.5277 20.0298 13.1136 19.7631ZM8.46648 12.2752C8.46645 12.2752 8.46705 12.2747 8.4684 12.2737C8.46719 12.2748 8.46651 12.2753 8.46648 12.2752Z" stroke="#FFA800" stroke-width="1.7"/>
<rect x="3" y="32" width="23" height="23" rx="4" stroke="#FFA800" stroke-width="2"/>
<path d="M15.5472 39.8C15.6192 38.4192 15.978 37.713 16.4746 37.3373C17.0072 36.9344 17.7505 36.8667 18.6675 36.8667C19.7988 36.8667 20.3995 37.3525 20.7299 37.928C21.0698 38.5202 21.1342 39.2283 21.1342 39.6667C21.1342 40.4697 20.8384 41.5074 20.3321 42.624C19.8276 43.7365 19.122 44.9102 18.3208 45.9805C17.5192 47.0513 16.6265 48.0123 15.7504 48.7035C14.8678 49.3998 14.0302 49.8 13.3342 49.8C12.852 49.8 12.3796 49.4389 11.9274 48.753C11.4813 48.0765 11.0908 47.1365 10.7594 46.0988C10.0977 44.0259 9.68755 41.6131 9.53082 40.2715C9.51565 40.1415 9.45326 40.0217 9.35552 39.9348C9.25777 39.8479 9.13149 39.7999 9.00069 39.8M15.5472 39.8L8.79648 39.8408C8.79648 39.8408 8.79649 39.8408 8.79649 39.8408C8.86119 39.8139 8.93059 39.8 9.00069 39.8M15.5472 39.8H16.0008C16.4735 39.8 16.8708 39.9254 17.1522 40.2012L17.1523 40.2013C17.4165 40.4607 17.5408 40.8132 17.5408 41.2253C17.5408 41.6269 17.413 42.0936 17.2203 42.5578C17.0263 43.0253 16.7603 43.5049 16.47 43.9367C16.18 44.3679 15.8615 44.7574 15.5599 45.0417C15.4092 45.1837 15.2586 45.3034 15.114 45.3887C14.9726 45.4722 14.8194 45.5333 14.6682 45.5333C14.342 45.5333 14.0783 45.3818 13.8688 45.1375C13.6644 44.899 13.5056 44.5665 13.3728 44.179C13.1083 43.4073 12.9238 42.3448 12.7221 41.1836L12.7198 41.1703L12.7198 41.1702L12.7195 41.1683C12.5547 40.2223 12.3622 39.1176 12.1121 38.2492C11.9866 37.8135 11.8503 37.451 11.7028 37.2014C11.5476 36.9388 11.4202 36.8667 11.3342 36.8667C11.2228 36.8667 11.0302 36.9187 10.7559 37.0669C10.4868 37.2122 10.1568 37.4403 9.77559 37.7671C9.04543 38.393 8.1379 39.3723 7.12362 40.7984M15.5472 39.8L7.12362 40.7984M9.00069 39.8C9.00076 39.8 9.00083 39.8 9.0009 39.8L9.00084 40L9.00069 39.8ZM7.12362 40.7984L7.56268 41.018L8.62351 39.9572C8.62361 39.9571 8.6237 39.957 8.6238 39.9569L7.12362 40.7984ZM7.42873 42.1436L7.42886 42.1436L8.04433 42.0434L8.61724 41.4709C8.81308 42.7625 9.20583 44.9153 9.86915 46.8264C10.237 47.8864 10.6927 48.8856 11.2531 49.6235C11.8126 50.3601 12.501 50.8667 13.3342 50.8667C14.2498 50.8667 15.2599 50.3783 16.2442 49.626C17.2338 48.8696 18.2231 47.8266 19.1017 46.6723C19.9806 45.5174 20.7532 44.245 21.3069 43.0257C21.8589 41.8101 22.2008 40.6308 22.2008 39.6667C22.2008 38.499 21.8708 37.5299 21.2532 36.8505C20.6335 36.169 19.7432 35.8 18.6675 35.8C17.4233 35.8 16.3564 35.98 15.6065 36.6658C14.8533 37.3546 14.4675 38.5083 14.4675 40.3333C14.4675 40.4748 14.5237 40.6104 14.6237 40.7105L14.7651 40.569L14.6237 40.7105C14.7237 40.8105 14.8594 40.8667 15.0008 40.8667H16.0008C16.2748 40.8667 16.3743 40.9313 16.4101 40.9672C16.4472 41.0043 16.4569 41.0481 16.4669 41.1167C16.4986 41.3387 16.4347 41.6519 16.2902 42.0201C16.148 42.3821 15.9383 42.7719 15.7085 43.1358C15.479 43.4995 15.233 43.832 15.0213 44.0794C14.9153 44.2033 14.8202 44.3032 14.7421 44.3741C14.7091 44.404 14.6808 44.4273 14.6573 44.4446C14.655 44.4421 14.6525 44.4393 14.6499 44.4362C14.6122 44.392 14.5671 44.3171 14.5175 44.2068C14.4192 43.988 14.3223 43.6739 14.2299 43.3065C14.0456 42.5741 13.8885 41.6706 13.7699 40.9871L13.7699 40.9871L13.7675 40.9734C13.545 39.6931 13.3245 38.4241 12.9859 37.4752C12.8158 36.9988 12.6103 36.5855 12.3467 36.2887C12.0784 35.9865 11.7446 35.8 11.3342 35.8C10.7974 35.8 10.0348 36.155 9.12487 36.9211C8.20546 37.6951 7.10628 38.9134 5.89292 40.7C5.84999 40.7628 5.821 40.834 5.80793 40.9089C5.79482 40.984 5.798 41.061 5.81724 41.1347C5.83649 41.2085 5.87136 41.2772 5.91948 41.3363C5.9675 41.3953 6.02761 41.4433 6.09574 41.4771C6.09589 41.4771 6.09604 41.4772 6.09619 41.4773L7.42873 42.1436ZM14.6857 44.4697C14.6857 44.4698 14.6855 44.4697 14.685 44.4694L14.6857 44.4697Z" fill="#FFA800" stroke="#FFA800" stroke-width="0.4"/>
<rect x="34" y="32" width="23" height="23" rx="4" stroke="#FFA800" stroke-width="2"/>
<path d="M45.6662 35.35C44.1581 35.3502 42.6784 35.7605 41.3855 36.537C40.0925 37.3136 39.035 38.4271 38.3263 39.7585C37.6175 41.0898 37.2841 42.5889 37.3618 44.0951C37.4336 45.4868 37.8538 46.8363 38.5815 48.0205L37.3936 51.0994C37.3021 51.3365 37.3572 51.6053 37.5347 51.7872C37.7122 51.9692 37.9795 52.031 38.2188 51.9454L41.4093 50.8047C42.425 51.412 43.5599 51.7963 44.7383 51.9302C46.0254 52.0764 47.3289 51.92 48.5448 51.4733C49.7608 51.0267 50.8555 50.3022 51.7419 49.3576C52.6283 48.413 53.2818 47.2744 53.6503 46.0325C54.0188 44.7907 54.0922 43.4799 53.8645 42.2047C53.6367 40.9295 53.1143 39.7252 52.3388 38.6876C51.5633 37.65 50.5561 36.8079 49.3976 36.2285C48.2392 35.6491 46.9614 35.3483 45.6662 35.35ZM45.6662 35.35C45.6661 35.35 45.6659 35.35 45.6658 35.35L45.6667 36L45.6666 35.35C45.6665 35.35 45.6663 35.35 45.6662 35.35Z" stroke="#FFA800" stroke-width="1.3" stroke-linecap="round" stroke-linejoin="round"/>
<path d="M46.7533 44.3783C46.6637 44.4448 46.5813 44.5132 46.509 44.5772C46.1223 44.405 45.7672 44.1673 45.4598 43.8736C45.1662 43.5662 44.9284 43.2111 44.7562 42.8245C44.8202 42.7521 44.8886 42.6697 44.9552 42.5802C45.0746 42.4194 45.2105 42.2059 45.2913 41.9649C45.372 41.7244 45.4221 41.3774 45.2436 41.0337C45.1133 40.7828 44.9489 40.4541 44.8159 40.1856C44.7496 40.0519 44.6917 39.9341 44.6503 39.8498L44.6017 39.7506L44.5887 39.7241L44.5854 39.7172L44.5845 39.7155L44.5843 39.7151L44.5843 39.715L44.5843 39.715C44.4753 39.4917 44.2486 39.35 44.0001 39.35H43.3334C43.2877 39.35 43.242 39.3548 43.1973 39.3644C42.6704 39.4773 42.1987 39.7688 41.862 40.1896C41.5261 40.6095 41.3453 41.1325 41.3501 41.6702C41.3508 42.0078 41.4535 42.3791 41.5825 42.7212C41.7168 43.077 41.9011 43.4566 42.1083 43.8258C42.519 44.557 43.0527 45.3051 43.5405 45.793C44.0283 46.2808 44.7764 46.8145 45.5077 47.2251C45.8768 47.4324 46.2564 47.6167 46.6123 47.7509C46.9543 47.8799 47.3257 47.9826 47.6633 47.9833C48.201 47.9881 48.7239 47.8073 49.1439 47.4714C49.5646 47.1348 49.8562 46.663 49.969 46.1361C49.9786 46.0914 49.9834 46.0458 49.9834 46V45.3333C49.9834 45.0848 49.8417 44.8581 49.6184 44.7491L49.6184 44.7491L49.6183 44.7491L49.6179 44.7489L49.6162 44.7481L49.6094 44.7447L49.5828 44.7317L49.4837 44.6832C49.3993 44.6418 49.2815 44.5838 49.1478 44.5175C48.8793 44.3845 48.5506 44.2202 48.2997 44.0899C47.956 43.9113 47.609 43.9614 47.3685 44.0421C47.1275 44.1229 46.914 44.2588 46.7533 44.3783Z" stroke="#FFA800" stroke-width="1.3" stroke-linecap="round" stroke-linejoin="round"/>
</svg>
