<svg width="58" height="55" viewBox="0 0 58 55" fill="none" xmlns="http://www.w3.org/2000/svg">
<path fill-rule="evenodd" clip-rule="evenodd" d="M6 2H28C30.2091 2 32 3.79086 32 6V22H34V6C34 2.68629 31.3137 0 28 0H6C2.68629 0 0 2.68629 0 6V28C0 31.3137 2.68629 34 6 34H25V32H6C3.79086 32 2 30.2091 2 28V6C2 3.79086 3.79086 2 6 2Z" fill="#FFA800"/>
<rect x="29" y="26" width="28" height="28" rx="5" stroke="#FFA800" stroke-width="2"/>
<circle cx="45" cy="13" r="7.25" stroke="#3C434A" stroke-width="1.5"/>
<path d="M47.25 12.25H45.75V10.75C45.75 10.5511 45.671 10.3603 45.5303 10.2197C45.3897 10.079 45.1989 10 45 10C44.8011 10 44.6103 10.079 44.4697 10.2197C44.329 10.3603 44.25 10.5511 44.25 10.75V12.25H42.75C42.5511 12.25 42.3603 12.329 42.2197 12.4697C42.079 12.6103 42 12.8011 42 13C42 13.1989 42.079 13.3897 42.2197 13.5303C42.3603 13.671 42.5511 13.75 42.75 13.75H44.25V15.25C44.25 15.4489 44.329 15.6397 44.4697 15.7803C44.6103 15.921 44.8011 16 45 16C45.1989 16 45.3897 15.921 45.5303 15.7803C45.671 15.6397 45.75 15.4489 45.75 15.25V13.75H47.25C47.4489 13.75 47.6397 13.671 47.7803 13.5303C47.921 13.3897 48 13.1989 48 13C48 12.8011 47.921 12.6103 47.7803 12.4697C47.6397 12.329 47.4489 12.25 47.25 12.25Z" fill="#3C434A"/>
<path d="M23.5149 6.05606L23.5149 6.05609C23.8389 6.09366 24.1001 6.33969 24.1 6.65152C24.1 6.65152 24.1 6.65153 24.1 6.65154V10.0964V10.0965C24.0997 10.4398 23.7862 10.6959 23.4286 10.6958H23.4286L23.4286 10.5958L23.4285 10.6958L23.5149 6.05606ZM23.5149 6.05606L23.5126 6.05585M23.5149 6.05606L23.5126 6.05585M23.5126 6.05585C22.3566 5.94881 21.1947 5.89679 20.0322 5.90015M23.5126 6.05585L13.8002 13.8308H13.7002M19.5888 18.8813V26.5006V26.5006C19.5886 26.8439 19.2751 27.1002 18.9174 27.1M19.5888 18.8813L13.8002 26.5L13.7002 26.4999C13.7 26.8433 14.0133 27.0998 14.371 27.1H14.371H18.9174M19.5888 18.8813H22.7077H22.7077C23.0341 18.8812 23.3275 18.6681 23.3735 18.3606L23.3736 18.3604L23.9416 14.51L19.5888 18.8813ZM18.9174 27.1L18.9174 27V27.1H18.9174ZM9.9 14.4302V14.4302C9.90017 14.0868 10.2138 13.8306 10.5715 13.8308M9.9 14.4302L13.7002 13.9308V13.8308M9.9 14.4302V18.2813V14.4302ZM10.5715 13.8308L10.5714 13.9308V13.8308H10.5715ZM10.5715 13.8308H13.7002M13.7002 13.8308V11.59C13.7002 9.8415 14.3065 8.41546 15.4081 7.4275C16.5084 6.44071 18.0924 5.90018 20.0322 5.90015M20.0322 5.90015C20.0323 5.90015 20.0323 5.90015 20.0324 5.90015V6.00015L20.0321 5.90015C20.0321 5.90015 20.0322 5.90015 20.0322 5.90015ZM18.9168 15.0308H18.9167C18.559 15.0306 18.2458 14.7741 18.246 14.4308C18.246 14.4308 18.246 14.4308 18.246 14.4308V11.9718C18.246 11.456 18.3174 10.8328 18.7196 10.3388C19.125 9.84101 19.8473 9.49682 21.0982 9.49681C21.0982 9.49681 21.0982 9.49681 21.0982 9.49681L22.7571 9.49589V7.19555C22.1221 7.14964 21.1277 7.10015 20.0324 7.10015C18.4563 7.10015 17.2105 7.52436 16.3598 8.29156C15.5104 9.05755 15.0431 10.176 15.0431 11.59V14.4313V14.4314C15.0428 14.7747 14.7293 15.031 14.3716 15.0308M18.9168 15.0308L11.2429 14.9308V15.0308M18.9168 15.0308H22.5103L22.119 17.6813H18.9174C18.9174 17.6813 18.9174 17.6813 18.9174 17.6813C18.5597 17.6812 18.2462 17.9374 18.246 18.2807V18.2808V25.9M18.9168 15.0308L18.246 25.9M14.3716 15.0308L14.3717 14.9308V15.0308H14.3716ZM14.3716 15.0308H11.2429M11.2429 15.0308H11.1429V17.6813H11.2429M11.2429 15.0308V17.6813M11.2429 17.6813V17.7813L14.9431 18.2813L15.0431 18.2814C15.0433 17.938 14.73 17.6815 14.3724 17.6813H14.3723H11.2429ZM18.246 25.9H15.0431H18.246ZM19.5888 13.8308H19.4888V13.9308H19.5888V13.8308ZM10.5708 18.8813H13.7002L9.9 18.2813C9.89979 18.6247 10.2131 18.8811 10.5707 18.8813H10.5708ZM23.9416 14.5098L23.8427 14.4952L23.9416 14.5098Z" fill="#FFA800" stroke="#FFA800" stroke-width="0.2"/>
<path d="M47.2276 33.8C45.1234 33.8027 43.4306 35.5695 43.4285 37.734V37.7342C43.4285 37.7658 43.4289 37.7975 43.4296 37.8294L36.4274 45.7095M47.2276 33.8L47.2279 34L47.2271 33.8C47.2273 33.8 47.2275 33.8 47.2276 33.8ZM47.2276 33.8C48.1622 33.7967 49.0617 34.1544 49.7524 34.799C50.3015 34.6554 50.8279 34.4296 51.315 34.1285L51.3154 34.1282C51.4055 34.0729 51.5089 34.0434 51.6147 34.0434L51.6147 34.0434C51.9406 34.0437 52.1927 34.3144 52.1951 34.6338C52.2509 35.8414 51.8291 37.0204 51.0271 37.8986C51.028 37.9728 51.028 38.0453 51.028 38.1144V38.1154V38.1156C51.0267 39.0713 50.8925 40.0218 50.6295 40.9379C49.4698 45.2643 45.6469 48.2487 41.3059 48.1994C39.446 48.1995 37.626 47.644 36.0635 46.6003L36.0634 46.6002C35.8761 46.475 35.7779 46.2529 35.8042 46.0303L35.8042 46.0302C35.8421 45.7101 36.1267 45.4698 36.4525 45.5111M36.4525 45.5111C36.4525 45.5111 36.4526 45.5111 36.4527 45.5111L36.4274 45.7095M36.4525 45.5111C36.4523 45.5111 36.4521 45.511 36.452 45.511L36.4274 45.7095M36.4525 45.5111C37.5466 45.6463 38.6527 45.4598 39.6462 44.9769M36.4274 45.7095C37.6179 45.8567 38.8218 45.6361 39.889 45.0785C39.8066 45.0474 39.7257 45.0135 39.6462 44.9769M39.6462 44.9769C38.6661 44.5257 37.9115 43.6609 37.5812 42.593L37.5811 42.5926C37.5216 42.3987 37.5627 42.186 37.6922 42.0296M39.6462 44.9769C39.7236 44.9393 39.8003 44.8999 39.8762 44.8587C38.8781 44.453 38.1025 43.6018 37.7723 42.5339L37.6922 42.0296M37.6922 42.0296C37.6919 42.0299 37.6917 42.0302 37.6915 42.0305L37.8467 42.1566L37.6929 42.0288C37.6926 42.0291 37.6924 42.0294 37.6922 42.0296ZM49.9995 37.297L50.0056 37.2907C50.4478 36.8367 50.7663 36.2712 50.9313 35.6519C50.5282 35.8193 50.1106 35.9475 49.6839 36.0345C49.484 36.0757 49.2796 36.0063 49.1435 35.8552L49.1429 35.8546C48.6477 35.3003 47.9533 34.9879 47.2285 34.9901L47.2281 34.9901C45.7786 34.9919 44.5918 36.2125 44.5902 37.734C44.5906 37.9429 44.6147 38.151 44.6616 38.3542L44.662 38.3558C44.7015 38.5334 44.6599 38.7207 44.5472 38.8637C44.4349 39.0169 44.2516 39.1019 44.0614 39.0832C41.6474 38.9535 39.3721 37.8978 37.673 36.1312C37.6375 36.3133 37.6196 36.4991 37.6197 36.6856L37.6197 36.6864C37.6165 37.6031 38.0571 38.4573 38.7881 38.9622L49.9995 37.297ZM49.9995 37.297L49.994 37.3038M49.9995 37.297L49.994 37.3038M49.994 37.3038C49.8997 37.4193 49.8524 37.5665 49.8599 37.7152C49.8663 37.8492 49.8664 37.9832 49.8664 38.115C49.8649 38.9587 49.7462 39.7977 49.5141 40.6062L49.514 40.6062M49.994 37.3038L49.514 40.6062M39.0968 43.048C39.5816 43.7113 40.3353 44.1119 41.1445 44.1254L41.145 44.1254C41.3222 44.1289 41.4863 44.2147 41.5929 44.3555L39.0968 43.048ZM39.0968 43.048C39.3191 43.0261 39.5392 42.9831 39.7542 42.9193L39.7544 42.9192C40.0663 42.8263 40.2364 42.4949 40.1509 42.1858C40.1509 42.1858 40.1509 42.1858 40.1509 42.1858L39.9581 42.2392M39.0968 43.048L39.7057 41.7648M39.9581 42.2392C39.9187 42.0967 39.8056 41.9891 39.6654 41.9606C38.6246 41.7448 37.7953 40.9441 37.5059 39.8983C37.5809 39.9208 37.6565 39.9408 37.7326 39.9584M39.9581 42.2392C40.0161 42.4487 39.8994 42.6674 39.6973 42.7275L39.9581 42.2392ZM37.7326 39.9584C38.0296 40.8789 38.7796 41.5726 39.7057 41.7648M37.7326 39.9584C37.7093 39.886 37.6887 39.8122 37.6711 39.7371L38.7882 38.9623C39.0026 39.1101 39.0934 39.3824 39.0195 39.6303M37.7326 39.9584C37.9654 40.0123 38.2028 40.0433 38.4418 40.0511M39.7057 41.7648C39.7055 41.7647 39.7053 41.7647 39.7051 41.7646L39.6654 41.9606L39.706 41.7648C39.7059 41.7648 39.7058 41.7648 39.7057 41.7648ZM38.4418 40.0511C38.7122 40.0695 38.9503 39.8886 39.0195 39.6303M38.4418 40.0511C38.4401 40.0509 38.4385 40.0508 38.4368 40.0507L38.4522 39.8513L38.4459 40.0512C38.4446 40.0512 38.4432 40.0511 38.4418 40.0511ZM39.0195 39.6303C39.0191 39.6316 39.0187 39.633 39.0183 39.6343L38.8271 39.5759L39.0206 39.6263C39.0202 39.6277 39.0199 39.629 39.0195 39.6303ZM49.514 40.6062L49.5127 40.6115M49.514 40.6062L49.5127 40.6115M49.5127 40.6115C48.523 44.4547 45.1335 47.0916 41.3113 47.0094L41.3113 47.0094M49.5127 40.6115L41.3113 47.0094M41.3113 47.0094L41.3069 47.0094M41.3113 47.0094L41.3069 47.0094M41.3069 47.0094C40.4102 47.0097 39.5205 46.8628 38.6705 46.5753M41.3069 47.0094L38.6705 46.5753M38.6705 46.5753C39.6992 46.3412 40.666 45.8673 41.4961 45.1862C41.746 44.9822 41.7871 44.6117 41.593 44.3556L38.6705 46.5753ZM37.088 38.4603C37.1251 38.5317 37.1644 38.602 37.2061 38.671C37.2066 38.6718 37.2071 38.6726 37.2076 38.6734C37.2176 38.6901 37.2279 38.7068 37.2382 38.7233C37.2344 38.7211 37.2306 38.719 37.2267 38.7168C37.2154 38.7104 37.204 38.704 37.1929 38.6971C37.1223 38.6614 37.0442 38.6496 36.969 38.661C36.9352 38.6006 36.9031 38.5394 36.8725 38.4774C36.9427 38.458 37.0158 38.4522 37.088 38.4603ZM37.7014 42.0186C37.7504 42.0636 37.8007 42.1074 37.8522 42.15C37.8988 42.0952 37.9596 42.0552 38.0274 42.0347C37.9693 41.9883 37.9128 41.9403 37.8579 41.8906C37.7988 41.9235 37.7459 41.9668 37.7014 42.0186ZM36.4429 39.3759C36.4431 39.3786 36.4433 39.3812 36.4435 39.3839C36.4439 39.3867 36.4443 39.3894 36.4447 39.3922L36.6424 39.3621L36.4429 39.3759ZM36.4262 39.0761C36.4261 39.0773 36.4261 39.0784 36.4261 39.0796C36.4261 39.0809 36.4261 39.0822 36.4261 39.0836L36.6261 39.0828L36.4262 39.0761ZM36.7026 38.5559C36.7025 38.5559 36.7024 38.556 36.7023 38.556C36.7022 38.5561 36.7021 38.5562 36.702 38.5563L36.8143 38.7218L36.7026 38.5559Z" fill="#FFA800" stroke="#FFA800" stroke-width="0.4"/>
</svg>
