<svg width="58" height="58" viewBox="0 0 58 58" fill="none" xmlns="http://www.w3.org/2000/svg">
<g clip-path="url(#clip0_2_173)">
<path d="M39.7447 31.9247C40.2093 31.626 40.3438 31.0073 40.0451 30.5427C39.7465 30.0782 39.1278 29.9437 38.6632 30.2423L39.7447 31.9247ZM32.5833 34.1509C32.1187 34.4496 31.9842 35.0683 32.2828 35.5328C32.5815 35.9974 33.2002 36.1319 33.6648 35.8332L32.5833 34.1509ZM33.6648 37.7669C33.2002 37.4683 32.5815 37.6028 32.2828 38.0673C31.9842 38.5319 32.1187 39.1506 32.5833 39.4493L33.6648 37.7669ZM38.6632 43.3579C39.1278 43.6565 39.7465 43.522 40.0451 43.0574C40.3438 42.5929 40.2093 41.9742 39.7447 41.6755L38.6632 43.3579ZM32.655 36.8C32.655 38.0948 31.6053 39.1446 30.3104 39.1446V41.1446C32.7099 41.1446 34.655 39.1994 34.655 36.8H32.655ZM30.3104 39.1446C29.0155 39.1446 27.9658 38.0948 27.9658 36.8H25.9658C25.9658 39.1994 27.911 41.1446 30.3104 41.1446V39.1446ZM27.9658 36.8C27.9658 35.5051 29.0155 34.4554 30.3104 34.4554V32.4554C27.911 32.4554 25.9658 34.4005 25.9658 36.8H27.9658ZM30.3104 34.4554C31.6053 34.4554 32.655 35.5051 32.655 36.8H34.655C34.655 34.4005 32.7099 32.4554 30.3104 32.4554V34.4554ZM44.3609 44.3252C44.3609 45.62 43.3112 46.6698 42.0163 46.6698V48.6698C44.4157 48.6698 46.3609 46.7246 46.3609 44.3252H44.3609ZM42.0163 46.6698C40.7214 46.6698 39.6717 45.62 39.6717 44.3252H37.6717C37.6717 46.7246 39.6168 48.6698 42.0163 48.6698V46.6698ZM39.6717 44.3252C39.6717 43.0303 40.7214 41.9806 42.0163 41.9806V39.9806C39.6168 39.9806 37.6717 41.9257 37.6717 44.3252H39.6717ZM42.0163 41.9806C43.3112 41.9806 44.3609 43.0303 44.3609 44.3252H46.3609C46.3609 41.9257 44.4157 39.9806 42.0163 39.9806V41.9806ZM44.3609 29.2748C44.3609 30.5697 43.3112 31.6194 42.0163 31.6194V33.6194C44.4157 33.6194 46.3609 31.6742 46.3609 29.2748H44.3609ZM42.0163 31.6194C40.7214 31.6194 39.6717 30.5697 39.6717 29.2748H37.6717C37.6717 31.6742 39.6168 33.6194 42.0163 33.6194V31.6194ZM39.6717 29.2748C39.6717 27.9799 40.7214 26.9302 42.0163 26.9302V24.9302C39.6168 24.9302 37.6717 26.8753 37.6717 29.2748H39.6717ZM42.0163 26.9302C43.3112 26.9302 44.3609 27.9799 44.3609 29.2748H46.3609C46.3609 26.8753 44.4157 24.9302 42.0163 24.9302V26.9302ZM38.6632 30.2423L32.5833 34.1509L33.6648 35.8332L39.7447 31.9247L38.6632 30.2423ZM32.5833 39.4493L38.6632 43.3579L39.7447 41.6755L33.6648 37.7669L32.5833 39.4493Z" fill="#FFA800"/>
<path d="M30.6 3C31.3732 3 32 3.6268 32 4.4V22.5085C32 23.2817 31.3732 23.9085 30.6 23.9085H23.0087C22.1189 23.9085 21.2645 24.2574 20.6289 24.8803L17.8136 27.6395C17.2692 28.173 16.3981 28.173 15.8537 27.6395L13.0383 24.8803C12.4028 24.2574 11.5484 23.9085 10.6585 23.9085H2.4C1.6268 23.9085 1 23.2817 1 22.5085V4.4C1 3.6268 1.6268 3 2.4 3H30.6Z" stroke="#FFA800" stroke-width="2"/>
<path d="M16.3521 21.5945L16.5091 21.7213L16.6661 21.5945L16.9653 21.353C20.1892 18.8111 22.2612 17.0753 23.5247 15.6054C24.8019 14.1196 25.2682 12.8878 25.2682 11.3636C25.2682 8.79388 23.1466 6.75 20.5134 6.75C18.5091 6.75 17.3192 7.76742 16.5091 8.62115C15.699 7.76742 14.5091 6.75 12.5048 6.75C9.87163 6.75 7.75 8.79388 7.75 11.3636C7.75 12.8878 8.21629 14.1196 9.49346 15.6054C10.757 17.0753 12.8289 18.8111 16.0529 21.353L16.3521 21.5945ZM16.3208 10.6069L16.5091 10.8224L16.6974 10.6069L17.2462 9.97855C17.9955 9.15608 18.8806 8.2197 20.5134 8.2197C22.3349 8.2197 23.7671 9.61824 23.7671 11.3636C23.7671 12.526 23.3985 13.5001 22.2897 14.7688C21.1886 16.0288 19.376 17.5583 16.5091 19.821C13.6422 17.5583 11.8296 16.0288 10.7285 14.7688C9.61971 13.5001 9.25107 12.526 9.25107 11.3636C9.25107 9.61824 10.6832 8.2197 12.5048 8.2197C14.1376 8.2197 15.0227 9.15608 15.7719 9.97856L16.3208 10.6069Z" fill="#3C434A" stroke="#3C434A" stroke-width="0.5"/>
<path fill-rule="evenodd" clip-rule="evenodd" d="M35.9545 19.1403C35.9846 18.7639 36 18.3836 36 18C36 17.7059 35.991 17.4138 35.9732 17.1239C36.7043 17.042 37.4474 17 38.2004 17C49.1356 17 58.0004 25.8648 58.0004 36.8C58.0004 47.7352 49.1356 56.6 38.2004 56.6C27.2652 56.6 18.4004 47.7352 18.4004 36.8C18.4004 35.485 18.5286 34.1999 18.7732 32.9566C19.1781 32.9853 19.5872 33 20 33C20.272 33 20.5424 32.9936 20.811 32.9811C20.5421 34.2113 20.4004 35.4891 20.4004 36.8C20.4004 46.6307 28.3697 54.6 38.2004 54.6C48.0311 54.6 56.0004 46.6307 56.0004 36.8C56.0004 26.9693 48.0311 19 38.2004 19C37.4397 19 36.6901 19.0477 35.9545 19.1403Z" fill="#FFA800"/>
</g>
<defs>
<clipPath id="clip0_2_173">
<rect width="58" height="58" fill="white"/>
</clipPath>
</defs>
</svg>
