<svg width="59" height="55" viewBox="0 0 59 55" fill="none" xmlns="http://www.w3.org/2000/svg">
<path d="M8.86708 8.27455V8.27471H8.88038H8.96684C8.97321 8.27471 8.9803 8.27469 8.98802 8.27467L8.86708 8.27455ZM8.86708 8.27455L8.85902 8.27487M8.86708 8.27455L8.85902 8.27487M8.85902 8.27487C4.37262 8.456 0.801189 12.0512 0.8 16.4353V16.4353M8.85902 8.27487L0.8 16.4353M0.8 16.4353C0.8 20.3549 2.50372 24.4666 4.61075 27.6336L4.77726 27.5228M0.8 16.4353L4.77726 27.5228M4.77726 27.5228L4.61075 27.6336C5.66531 29.2187 6.82635 30.5752 7.96986 31.5565C9.104 32.5298 10.2443 33.1999 11.3897 33.1999C13.13 33.1999 14.1185 32.8443 14.7644 32.4681L14.7645 32.4681M4.77726 27.5228L14.7645 32.4681M14.7645 32.4681C14.9226 32.3759 15.0564 32.2878 15.1684 32.2127C15.1864 32.2007 15.2037 32.1891 15.2202 32.178C15.3095 32.118 15.3786 32.0715 15.4377 32.0374C15.514 31.9933 15.5556 31.9728 15.5928 31.961C15.6264 31.9503 15.6655 31.9439 15.7367 31.9439C15.8068 31.9439 15.8482 31.9505 15.8851 31.9622C15.9254 31.9748 15.9704 31.9965 16.0479 32.0403C16.1089 32.0751 16.1798 32.1219 16.2705 32.1819C16.2873 32.193 16.3048 32.2045 16.323 32.2165C16.4368 32.2915 16.5723 32.3792 16.7322 32.4709C17.3846 32.8452 18.3788 33.1999 20.1191 33.1999C21.2645 33.1999 22.4048 32.5298 23.5389 31.5565C24.6824 30.5752 25.8435 29.2187 26.898 27.6336C29.005 24.4666 30.7088 20.3549 30.7088 16.4353V16.4351M14.7645 32.4681L30.7088 16.4351M30.7088 16.4351C30.7033 12.0226 27.0817 8.42191 22.5657 8.28362M30.7088 16.4351L22.5657 8.28362M22.5657 8.28362C21.0684 8.20641 19.6336 8.72088 18.5604 9.13921L18.5591 9.13633C17.6116 9.45467 16.7009 9.7211 15.7588 9.7211C14.7589 9.7211 13.8794 9.44869 12.9061 9.12061C11.7554 8.56919 10.4928 8.27751 9.20889 8.27471H9.20846H9.20181H9.19737V8.27468L9.19402 8.27474C9.16769 8.27518 9.13722 8.27505 9.10039 8.27489L22.5657 8.28362ZM9.03999 9.79506H9.03887C9.02657 9.79499 9.01349 9.79501 8.99764 9.79503C8.98843 9.79504 8.97829 9.79506 8.96684 9.79506H8.9177C5.22194 9.94629 2.33595 12.8776 2.33495 16.4353L9.03999 9.79506ZM9.03999 9.79506H9.04221H9.04442C9.0566 9.79506 9.07052 9.79514 9.08577 9.79523C9.12104 9.79543 9.16339 9.79568 9.20764 9.79506C10.2846 9.79528 11.3457 10.0462 12.3056 10.5185L12.3055 10.5185M9.03999 9.79506L12.3055 10.5185M12.3055 10.5185L12.3102 10.5207M12.3055 10.5185L12.3102 10.5207M12.3102 10.5207L12.3434 10.536L12.3504 10.5392M12.3102 10.5207L12.3504 10.5392M12.3504 10.5392L12.3577 10.5419M12.3504 10.5392L12.3577 10.5419M12.3577 10.5419L12.3932 10.555L12.3931 10.5551M12.3577 10.5419L12.3931 10.5551M12.3931 10.5551L12.3987 10.557M12.3931 10.5551L12.3987 10.557M12.3987 10.557C13.3887 10.8908 14.473 11.2414 15.7588 11.2414C16.9719 11.2414 18.0549 10.9112 19.0212 10.5872H19.0528M12.3987 10.557L19.0528 10.5872M19.0528 10.5872L19.0879 10.5735M19.0528 10.5872L19.0879 10.5735M19.0879 10.5735C20.1376 10.1633 21.3901 9.74621 22.4957 9.80571L22.4957 9.806M19.0879 10.5735L22.4957 9.806M22.4957 9.806H22.5065M22.4957 9.806H22.5065M22.5065 9.806H22.5131M22.5065 9.806H22.5131M22.5131 9.806H22.5168M22.5131 9.806H22.5168M22.5168 9.806C26.2403 9.91847 29.1693 12.859 29.1738 16.4421C29.1737 19.9304 27.6015 23.8197 25.6162 26.8038C24.6247 28.2941 23.5387 29.5502 22.5336 30.4126C22.0328 30.8424 21.5516 31.1632 21.1307 31.3756C20.7055 31.5901 20.3575 31.6861 20.1191 31.6861C18.5847 31.6861 17.9434 31.415 17.5009 31.1612C17.3907 31.0979 17.2896 31.0312 17.181 30.9594L17.1729 30.9541C17.0625 30.8812 16.9448 30.8037 16.8109 30.7276C16.5351 30.5705 16.1663 30.4301 15.7367 30.4301C15.3066 30.4301 14.9374 30.5721 14.6634 30.7304C14.5304 30.8073 14.4146 30.8852 14.3066 30.9581L14.2984 30.9636C14.1922 31.0353 14.0942 31.1014 13.9867 31.164C13.5549 31.4156 12.9243 31.6861 11.3897 31.6861C11.1513 31.6861 10.8033 31.5901 10.3781 31.3756C9.95719 31.1632 9.47601 30.8424 8.97516 30.4126C7.97011 29.5502 6.8841 28.2941 5.89253 26.8037C3.90696 23.8122 2.33497 19.9236 2.33495 16.4354L22.5168 9.806Z" fill="#FFA800" stroke="#FFA800" stroke-width="0.4"/>
<path d="M15.9091 10.5C15.9091 8.9091 16.3181 4.45456 17.9545 3.36365" stroke="#FFA800" stroke-width="2" stroke-linecap="round"/>
<path d="M15.0604 5.92045L15.7675 5.21335L15.3451 4.791L14.773 4.96263L15.0604 5.92045ZM5.51494 4.55682L4.73407 5.18151L5.51494 4.55682ZM14.3786 4.55682L13.5977 5.18151L14.3786 4.55682ZM14.773 4.96263C13.7208 5.2783 11.9942 5.59705 10.3001 5.51813C8.57626 5.43783 7.11841 4.96038 6.29581 3.93212L4.73407 5.18151C6.09328 6.88053 8.2718 7.42581 10.207 7.51596C12.172 7.6075 14.1272 7.24443 15.3477 6.87828L14.773 4.96263ZM6.29581 3.93212C6.02406 3.59243 6.00103 3.42025 6.00004 3.39658C5.99988 3.39268 5.99988 3.40619 5.99237 3.42226C5.98646 3.43489 5.98766 3.42364 6.02197 3.39381C6.10221 3.32404 6.29035 3.21683 6.64016 3.13099C6.97822 3.04803 7.40661 3 7.9013 3C8.89266 3 10.0554 3.19268 11.1178 3.579C12.1909 3.96921 13.0713 4.52349 13.5977 5.18151L15.1594 3.93212C14.3222 2.8856 13.0719 2.16147 11.8013 1.69941C10.5199 1.23346 9.12586 1 7.9013 1C7.28804 1 6.6937 1.05851 6.16351 1.18862C5.64507 1.31584 5.11943 1.52823 4.70961 1.8846C4.27043 2.2665 3.97398 2.8127 4.00178 3.47984C4.02743 4.09537 4.324 4.66893 4.73407 5.18151L6.29581 3.93212ZM13.5977 5.18151C14.1396 5.85892 14.4835 6.31004 14.6862 6.59544C14.7895 6.74082 14.8428 6.82469 14.8655 6.86424C14.8781 6.8862 14.8679 6.87149 14.8524 6.83244C14.8447 6.81281 14.827 6.76589 14.8133 6.70013C14.8021 6.64624 14.7764 6.50295 14.8128 6.32093C14.8555 6.10747 14.9918 5.82617 15.2988 5.65489C15.5643 5.50674 15.8117 5.52522 15.9153 5.54034C16.0294 5.55699 16.1119 5.59043 16.1463 5.60532C16.1868 5.62288 16.2151 5.63901 16.2278 5.64648C16.2623 5.66683 16.2571 5.66834 16.1943 5.61516C16.0874 5.52472 15.9313 5.37713 15.7675 5.21335L14.3533 6.62756C14.5304 6.80469 14.7323 6.99801 14.9024 7.14194C14.978 7.20595 15.0911 7.29801 15.2114 7.36897C15.2482 7.39069 15.4083 7.48754 15.6266 7.51939C15.7427 7.53633 16.0003 7.55374 16.2733 7.40138C16.5878 7.2259 16.7291 6.93728 16.7739 6.71316C16.8125 6.52048 16.7861 6.36321 16.7712 6.29181C16.7538 6.20852 16.7295 6.14054 16.712 6.09612C16.6769 6.00746 16.6343 5.92817 16.6003 5.8689C16.5297 5.74598 16.4329 5.6008 16.3167 5.43723C16.0805 5.10473 15.7084 4.61836 15.1594 3.93212L13.5977 5.18151Z" fill="#FFA800"/>
<path d="M13.117 17.253C13.1172 16.9498 12.8721 16.7031 12.5686 16.7029H12.5685L12.5681 26L12.5679 26.2C12.8716 26.2002 13.1168 25.9537 13.117 25.6506V25.6505V25.6505V25.6505V25.6505V25.6505V25.6505V25.6505V25.6504V25.6504V25.6504V25.6504V25.6504V25.6504V25.6504V25.6504V25.6504V25.6504V25.6504V25.6504V25.6504V25.6503V25.6503V25.6503V25.6503V25.6503V25.6503V25.6503V25.6503V25.6503V25.6503V25.6503V25.6503V25.6503V25.6502V25.6502V25.6502V25.6502V25.6502V25.6502V25.6502V25.6502V25.6502V25.6502V25.6502V25.6502V25.6502V25.6501V25.6501V25.6501V25.6501V25.6501V17.253ZM13.117 17.253L12.917 17.2528H13.117V17.253ZM19.8963 16.7029H19.8966C21.9337 16.7053 23.5836 18.3604 23.586 20.4016V20.4018V25.6501V25.6501V25.6501V25.6501V25.6501V25.6502V25.6502V25.6502V25.6502V25.6502V25.6502V25.6502V25.6502V25.6502V25.6502V25.6502V25.6502V25.6502V25.6503V25.6503V25.6503V25.6503V25.6503V25.6503V25.6503V25.6503V25.6503V25.6503V25.6503V25.6503V25.6503V25.6504V25.6504V25.6504V25.6504V25.6504V25.6504V25.6504V25.6504V25.6504V25.6504V25.6504V25.6504V25.6504V25.6505V25.6505V25.6505V25.6505V25.6505V25.6505V25.6505V25.6506C23.5858 25.9537 23.3405 26.2002 23.0369 26.2M19.8963 16.7029L19.8963 25.6501L19.6963 25.65C19.6961 25.9531 19.9413 26.1998 20.2448 26.2H20.2449H20.2449H20.2449H20.2449H20.245H20.245H20.245H20.245H20.245H20.245H20.245H20.245H20.245H20.245H20.245H20.245H20.245H20.2451H20.2451H20.2451H20.2451H20.2451H20.2451H20.2451H20.2451H20.2451H20.2451H20.2451H20.2451H20.2451H20.2452H20.2452H20.2452H20.2452H20.2452H20.2452H20.2452H20.2452H20.2452H20.2452H20.2452H20.2452H20.2452H20.2453H20.2453H20.2453H20.2453H20.2453H20.2453H20.2453H20.2453H23.0369M19.8963 16.7029C19.2256 16.703 18.5707 16.8887 18.0023 17.2361L19.8963 16.7029ZM23.0369 26.2L23.037 26V26.2H23.0369ZM11.1736 14.9234L11.1844 14.9246C11.2515 14.9319 11.3192 14.9325 11.3865 14.9263C11.9429 14.8749 12.3533 14.3807 12.3019 13.8216C12.2505 13.2626 11.7571 12.8521 11.2008 12.9035L11.1807 12.9053L11.1605 12.9031C11.0981 12.8962 11.0352 12.8952 10.9726 12.9L11.1736 14.9234ZM11.1736 14.9234H11.1627M11.1736 14.9234H11.1627M11.1627 14.9234H11.1429H11.1352M11.1627 14.9234H11.1352M11.1352 14.9234L11.1275 14.924M11.1352 14.9234L11.1275 14.924M11.1275 14.924C10.5709 14.9669 10.0841 14.5492 10.0412 13.9898M11.1275 14.924L10.0412 13.9898M10.0412 13.9898C9.99836 13.4304 10.4158 12.9429 10.9725 12.9L10.0412 13.9898ZM9.77636 16.9029L9.77649 16.7029C9.47287 16.7027 9.2276 16.9493 9.2274 17.2523V17.2524V17.2524V17.2524V17.2524V17.2524V17.2524V17.2524V17.2524V17.2524V17.2524V17.2524V17.2524V17.2525V17.2525V17.2525V17.2525V17.2525V17.2525V17.2525V17.2525V17.2525V17.2525V17.2525V17.2525V17.2525V17.2525V17.2525V17.2525V17.2525V17.2525V17.2525V17.2525V17.2525V17.2525V17.2525V17.2525V17.2525V17.2526V17.2526V17.2526V17.2526V17.2526V17.2526V17.2526V17.2526V17.2526V17.2526V17.2526V17.2526V17.2526V17.2526V17.2526V17.2526V17.2526V17.2526V17.2526V17.2526V17.2526V17.2526V17.2526V17.2526V17.2527V17.2527V17.2527V17.2527V17.2527V17.2527V17.2527V17.2527V17.2527V17.2527V17.2527V17.2527V17.2527V17.2527V17.2527V17.2527V17.2527V17.2527V17.2527V17.2527V17.2527V17.2527V17.2527V17.2527V17.2527V17.2527V17.2528V17.2528V17.2528V17.2528V17.2528V17.2528V17.2528V17.2528V17.2528V17.2528V17.2528V17.2528V17.2528V17.2528V17.2528V17.2528V17.2528V17.2528V17.2528V17.2528V17.2528V25.6501L9.77636 16.9029ZM22.4881 20.4009V20.4018V25.1002H20.7943V21.8014C20.7943 20.7252 19.9241 19.8519 18.8494 19.8519C17.7748 19.8519 16.9046 20.7252 16.9046 21.8014V25.1002H15.2108V17.8027H16.9046V18.4446C16.9046 18.6777 17.0515 18.8857 17.2714 18.9631C17.4922 19.0424 17.7386 18.9713 17.8834 18.787C18.766 17.6655 20.3879 17.4739 21.5062 18.3587C22.1292 18.8517 22.4915 19.6049 22.4881 20.4009ZM12.0191 25.1002H10.3253V17.8027H12.0191V25.1002ZM11.4431 11.8063C11.3566 11.8002 11.2698 11.7995 11.1833 11.8042L11.1487 16.0232H11.1558C12.3149 16.1006 13.318 15.2234 13.399 14.062C13.4802 12.8981 12.6051 11.8878 11.4431 11.8063ZM8.94046 13.9128C8.93079 15.0696 9.8582 16.0163 11.0133 16.0264L9.14045 13.9139L8.94046 13.9121C8.94046 13.9124 8.94046 13.9126 8.94046 13.9128Z" fill="#FFA800" stroke="#FFA800" stroke-width="0.4"/>
<path fill-rule="evenodd" clip-rule="evenodd" d="M19 36V43.5553C19 47.1145 21.8853 49.9998 25.4444 49.9998H51.5556C55.1147 49.9998 58 47.1145 58 43.5553V26.4442C58 22.8851 55.1147 19.9998 51.5556 19.9998H32.0002V21.9998H51.5556C54.0102 21.9998 56 23.9896 56 26.4442V43.5553C56 46.0099 54.0102 47.9998 51.5556 47.9998H25.4444C22.9898 47.9998 21 46.0099 21 43.5553V36H19Z" fill="#FFA800"/>
<path d="M33.1104 15L39.3326 20.7778L49.5548 11" stroke="#FFA800" stroke-width="2" stroke-linecap="round"/>
<circle cx="9" cy="45" r="7.25" stroke="#3C434A" stroke-width="1.5"/>
<path d="M11.4299 44.25H9.90356V42.75C9.90356 42.5511 9.82315 42.3603 9.68003 42.2197C9.53691 42.079 9.3428 42 9.1404 42C8.938 42 8.74389 42.079 8.60077 42.2197C8.45765 42.3603 8.37724 42.5511 8.37724 42.75V44.25H6.85093C6.64852 44.25 6.45441 44.329 6.31129 44.4697C6.16817 44.6103 6.08777 44.8011 6.08777 45C6.08777 45.1989 6.16817 45.3897 6.31129 45.5303C6.45441 45.671 6.64852 45.75 6.85093 45.75H8.37724V47.25C8.37724 47.4489 8.45765 47.6397 8.60077 47.7803C8.74389 47.921 8.938 48 9.1404 48C9.3428 48 9.53691 47.921 9.68003 47.7803C9.82315 47.6397 9.90356 47.4489 9.90356 47.25V45.75H11.4299C11.6323 45.75 11.8264 45.671 11.9695 45.5303C12.1126 45.3897 12.193 45.1989 12.193 45C12.193 44.8011 12.1126 44.6103 11.9695 44.4697C11.8264 44.329 11.6323 44.25 11.4299 44.25Z" fill="#3C434A"/>
<path d="M35.1728 45.376L35.1378 45.1328C34.6552 41.7804 35.0315 39.8871 35.9101 36.6811L35.9164 36.6578C36.1204 35.9132 36.3211 35.1801 36.4769 34.4641C36.1139 33.7429 36.0257 32.8489 36.1566 32.0123C36.3313 30.8921 36.9747 29.538 38.2353 29.1776L38.2354 29.1776C38.7005 29.045 39.213 29.062 39.757 29.2723L39.7571 29.2723C40.3712 29.51 40.7258 29.9009 40.8925 30.3861C41.0562 30.8624 41.0336 31.4141 40.9309 31.9718C40.828 32.531 40.6409 33.1139 40.4603 33.6578C40.4426 33.7109 40.4251 33.7636 40.4076 33.8159C40.2451 34.3038 40.0957 34.7522 40.0178 35.1315C39.9308 35.5559 39.9169 35.9108 40.0199 36.1755C40.1167 36.4244 40.3278 36.6196 40.765 36.7059C41.4566 36.8417 42.0292 36.6327 42.496 36.2421C42.9672 35.8479 43.3293 35.2685 43.5802 34.6758C43.9311 33.8464 44.1209 32.8779 44.1245 31.946V31.946C44.1291 30.8034 43.844 29.8194 43.266 29.1005C42.6903 28.3844 41.8113 27.9152 40.5938 27.8222C38.7272 27.6799 36.7807 28.6867 35.8007 30.24L35.1728 45.376ZM35.1728 45.376L35.3731 45.2338C36.6321 44.3398 37.3953 43.428 37.9167 42.3727C38.4088 41.3769 38.6821 40.2593 38.9603 38.9282M35.1728 45.376L38.9603 38.9282M38.9603 38.9282C39.6321 39.3779 40.1755 39.686 41.1006 39.7562M38.9603 38.9282L31.8364 32.0691C31.9734 28.3353 35.1922 25.4283 38.8672 25.0254L38.8673 25.0254C40.8561 24.8077 42.9479 25.1419 44.6223 26.0704C46.3005 27.001 47.56 28.53 47.8641 30.6891L47.8641 30.6891C48.1805 32.942 47.6945 35.4565 46.3091 37.319C45.0572 39.0029 43.2284 39.9176 41.1006 39.7562M41.1006 39.7562C41.1006 39.7562 41.1006 39.7562 41.1006 39.7562L41.1119 39.6066L41.1006 39.7562ZM35.4108 37.0662L35.3039 37.0431C33.9288 36.7451 33.0271 36.164 32.4875 35.3092C31.9515 34.4602 31.7883 33.3647 31.8364 32.0692L35.4108 37.0662ZM35.4108 37.0662L35.4655 36.9716M35.4108 37.0662L35.4655 36.9716M35.4655 36.9716C35.8001 36.3936 36.0232 35.9523 36.0559 35.4991C36.0892 35.0379 35.9249 34.5899 35.557 33.9964M35.4655 36.9716L35.557 33.9964M38.1497 37.0763L38.3328 37.1852C38.5461 37.312 38.7658 37.4567 38.9873 37.6025C39.0004 37.6112 39.0135 37.6198 39.0266 37.6284C39.2626 37.7838 39.5012 37.9399 39.743 38.0818C40.229 38.3668 40.7122 38.5842 41.1865 38.6203C42.9092 38.7506 44.3552 38.0215 45.3778 36.6476C46.5743 35.0385 46.9948 32.8132 46.7185 30.8425C46.4627 29.0264 45.3872 27.7666 43.9469 27.0027C42.5024 26.2367 40.693 25.9716 38.9937 26.1575L38.1497 37.0763ZM38.1497 37.0763L38.1089 37.2855C38.0867 37.3995 38.0644 37.5156 38.0417 37.6335C37.8655 38.5482 37.6689 39.5694 37.3665 40.545C37.0638 41.5217 36.6589 42.4394 36.0737 43.1493M38.1497 37.0763L36.0737 43.1493M36.0737 43.1493C35.9597 40.877 36.4967 38.9141 37.0275 36.9774L36.0737 43.1493ZM32.9919 32.1093L32.9919 32.1095C32.9613 32.9238 33.0238 33.7161 33.3053 34.3675C33.5687 34.9769 34.0261 35.4697 34.802 35.742C34.8834 35.5026 34.8834 35.3161 34.8455 35.1552C34.7994 34.9593 34.6953 34.7887 34.5706 34.5878L34.5706 34.5877C33.6078 33.0347 33.8872 31.1178 34.8191 29.6403L34.8191 29.6403C36.0246 27.7292 38.3821 26.5113 40.6798 26.6863M32.9919 32.1093L45.1295 31.9501C45.1251 33.0067 44.9099 34.1067 44.5093 35.0523M32.9919 32.1093C33.1071 28.9692 35.8623 26.5004 38.9937 26.1575L32.9919 32.1093ZM40.6798 26.6863L40.6684 26.8359L40.6798 26.6863C40.6798 26.6863 40.6798 26.6863 40.6798 26.6863ZM40.6798 26.6863C42.1924 26.8014 43.3501 27.4014 44.1266 28.3395C44.9014 29.2755 45.2854 30.5345 45.2795 31.9508C45.2751 33.0259 45.0563 34.1457 44.6475 35.1108M44.6475 35.1108C44.6475 35.1108 44.6475 35.1107 44.6475 35.1107L44.5093 35.0523M44.6475 35.1108L44.5093 35.0523M44.6475 35.1108C44.3 35.9326 43.7821 36.707 43.0957 37.2286C42.4052 37.7532 41.5473 38.0189 40.5392 37.8206C39.6909 37.6538 39.1889 37.2787 38.9494 36.7436C38.7155 36.2211 38.7477 35.5783 38.8857 34.9075C38.9456 34.6154 39.0764 34.2212 39.218 33.7945C39.226 33.7703 39.2341 33.746 39.2422 33.7216C39.3946 33.2619 39.5582 32.7619 39.6715 32.2839C39.7855 31.8032 39.8445 31.3603 39.798 31.0116C39.7523 30.6697 39.6101 30.4404 39.3333 30.3333C39.0311 30.2166 38.7732 30.2085 38.556 30.2701C38.1995 30.3724 37.9146 30.6577 37.7011 31.0261C37.4884 31.3932 37.3574 31.8249 37.3015 32.1838L37.3015 32.184C37.1824 32.9438 37.2707 33.5693 37.6668 34.2209L37.6975 34.2714L37.6855 34.3293C37.4991 35.2278 37.269 36.0968 37.0275 36.9774L44.5093 35.0523M35.557 33.9964C34.8464 32.8492 35.0843 31.3765 35.8006 30.24L35.557 33.9964ZM47.7155 30.71C48.0274 32.9306 47.5469 35.4038 46.1888 37.2295L38.8836 25.1745C42.8103 24.7448 47.1223 26.4979 47.7155 30.71Z" fill="#FFA800" stroke="#FFA800" stroke-width="0.3"/>
</svg>
