<svg width="65" height="23" viewBox="0 0 65 23" fill="none" xmlns="http://www.w3.org/2000/svg">
<mask id="mask0" mask-type="alpha" maskUnits="userSpaceOnUse" x="0" y="0" width="65" height="23">
<path d="M61.1 0H3.80002C1.70002 0 0 1.7 0 3.8V19.2C0 21.3 1.70002 23 3.80002 23H61.1C63.2 23 64.9 21.3 64.9 19.2V3.8C64.8 1.7 63.1 0 61.1 0Z" fill="#50ABF1"/>
</mask>
<g mask="url(#mask0)">
<rect width="65" height="23" fill="#0274B3"/>
<rect width="65" height="23" fill="#E1E7EC"/>
<rect width="65" height="23" fill="#CB1F24"/>
<rect width="65" height="23" fill="#3A559F"/>
<path d="M32.3 15H31.5C31.4 15 31.2 15 31.1 14.9C30.9 14.8 30.7 14.6 30.5 14.3C30.3 13.9 30.1 13.3 30.1 12.5C29.8 12.8 29.6 13.1 29.5 13.2C29.3 13.4 29.1 13.5 28.9 13.5C28.8 13.5 28.7 13.5 28.6 13.5L27.9 13.4C27.6 13.3 27.4 13.3 27.3 13.3C27.2 13.3 27.2 13.2 27.2 13.1C27.2 13 27.3 12.6 27.6 12.1C27.9 11.5 28.1 11.2 28.2 11C28.3 10.9 28.5 10.7 28.7 10.6C28.9 10.5 29.1 10.4 29.4 10.2L29.7 10C29.7 9.90001 29.7 9.9 29.7 9.8C29.7 9.7 29.7 9.7 29.7 9.6C29.7 9.4 29.7 9.30001 29.8 9.00001C29.9 8.70001 30 8.5 30.2 8.1L30.8 11.9C30.9 12.5 31 12.9 31.2 13.1C31.3 13.2 31.4 13.3 31.6 13.3H32.4V15H32.3ZM30.9 6.5L30.2 7.6L29.3 7.1L28.8 8.1L27.7 7.50001L28.3 6.4L29.2 6.9L29.7 6L30.9 6.5ZM29.9 11.6L29.8 10.9C29.7 11 29.6 11 29.5 11C29.3 11.1 29.1 11.2 29 11.3C28.9 11.4 28.8 11.5 28.8 11.5C28.7 11.6 28.7 11.7 28.7 11.7C28.7 11.8 28.8 11.8 28.9 11.8C29 11.8 29.2 11.8 29.3 11.8C29.4 11.8 29.5 11.8 29.6 11.7C29.6 11.8 29.7 11.7 29.9 11.6Z" fill="white"/>
<path d="M36.8 15H31.9V13.4H35.9C35.7 13.2 35.6 13 35.4 12.9C35.3 12.8 35.1 12.6 34.9 12.5C34.7 12.3 34.4 12.1 34.2 12L34 12.2C33.6 11.8 33.4 11.6 33.4 11.5C33.2 11.3 33.1 11 33.1 10.7C33.1 10.3 33.1 9.99999 33.2 9.79999C33.3 9.59999 33.5 9.4 33.7 9.2C33.9 9 34.2 8.89999 34.5 8.79999C34.7 8.69999 35 8.59999 35.3 8.39999C35.5 8.29999 35.8 8.2 36.3 8V9.5C36.3 9.5 36.1 9.6 35.8 9.7C35.4 9.8 35.1 9.9 34.8 10C34.5 10.1 34.3 10.2 34.3 10.3C34.3 10.3 34.4 10.5 34.7 10.8C35.1 11.2 35.4 11.5 35.7 11.9C36.1 12.4 36.5 12.9 36.8 13.5V15Z" fill="white"/>
<path d="M42.2 15.2C42.2 15.4 42.1 15.8 41.8 16.2C41.5 16.6 41.2 17 40.8 17.3C40.4 17.6 40 17.8 39.7 17.8C39.3 17.8 39 17.7 38.5 17.5C38.1 17.3 37.6 17 36.8 16.4L37.1 16C37.5 16.2 37.8 16.4 38 16.5C38.2 16.6 38.5 16.6 38.7 16.6C39 16.6 39.3 16.5 39.5 16.4C39.8 16.2 40.2 15.9 40.6 15.5C41.3 14.9 41.6 14.4 41.6 14.1C41.6 13.9 41.5 13.7 41.4 13.5C41.3 13.2 41.1 12.9 40.9 12.7L41.2 11C41.5 11.3 41.7 11.6 41.8 12C42 12.4 42 12.8 42 13.3V15.2H42.2Z" fill="white"/>
<path d="M45.2 15H44.3C43.8 15 43.5 14.8 43.3 14.4C43.1 14 42.9 13.2 42.9 12.2V10.5C42.9 10.1 42.8 9.80001 42.7 9.60001C42.6 9.50001 42.5 9.30001 42.3 9.10001L43 7.60001C43.2 7.90001 43.4 8.20001 43.5 8.60001C43.6 9.00001 43.7 9.40002 43.7 10V11.2C43.7 12.1 43.8 12.6 43.9 13C44 13.3 44.1 13.4 44.3 13.4H45.2V15Z" fill="white"/>
<path d="M52.8 15C52.3 15 52 15 51.7 14.9C51.4 14.8 51.1 14.7 50.8 14.6C50.6 14.8 50.4 14.9 50.2 14.9C50 15 49.7 15 49.4 15H48.4C48.1 15 47.9 14.9 47.8 14.8C47.6 14.7 47.5 14.4 47.4 14.1C47.2 14.4 46.9 14.7 46.6 14.8C46.4 14.9 46.1 15 45.8 15H44.7V13.4H45.6C46 13.4 46.4 13.3 46.7 13C47.1 12.7 47.3 12.2 47.3 11.6L47.7 11.7C47.7 11.8 47.7 12 47.7 12.1C47.7 12.3 47.7 12.5 47.7 12.7C47.7 12.9 47.8 13.1 47.9 13.2C48 13.3 48.2 13.4 48.4 13.4H49.2C49.7 13.4 50.1 13.3 50.3 13.2C50.6 13 50.7 12.7 50.7 12.3C50.7 12.2 50.7 12.1 50.8 12C50.8 12 50.9 11.9 51 11.8L51.2 11.6C51.2 11.7 51.2 11.8 51.2 11.9C51.2 12 51.2 12.1 51.2 12.2C51.2 12.4 51.2 12.7 51.1 13.1C51.3 13.2 51.4 13.2 51.6 13.3C51.8 13.4 52 13.4 52.2 13.4C52.2 13.3 52.1 13.1 52 12.9C51.9 12.7 51.8 12.5 51.8 12.5C51.8 12.4 51.8 12.3 51.8 12.3C51.8 12.3 51.9 12.2 51.9 12.1L52.4 11.4C52.5 11.7 52.6 11.9 52.6 12.1C52.6 12.3 52.7 12.6 52.7 12.9V15H52.8ZM52.1 9.20001L51.4 10.4L50.5 9.90001L50 10.9L48.9 10.3L49.5 9.10001L50.4 9.60001L50.9 8.60001L52.1 9.20001ZM50.9 7.70001L50.3 9.00002L49.2 8.40001L49.8 7.20001L50.9 7.70001Z" fill="white"/>
<path d="M58 15C57.6 15 57.1 14.9 56.5 14.7C56 14.6 55.5 14.4 55.2 14.2C55 14.6 54.7 14.8 54.3 14.9C54.1 15 53.9 15 53.6 15H52.4V13.4H53.6C54 13.4 54.3 13.4 54.5 13.3C54.8 13.2 55 13 55.1 12.7C55.3 12.2 55.6 11.8 56 11.4C56.3 11.1 56.6 11 56.8 11C57 11 57.3 11.3 57.6 11.9C57.9 12.6 58.1 13.2 58.1 13.7V15H58ZM56.8 13.2C56.8 13.1 56.7 13 56.5 12.7C56.3 12.5 56.1 12.3 56 12.3C55.8 12.3 55.7 12.5 55.6 12.9C55.8 13 56 13 56.1 13.1C56.4 13.2 56.6 13.3 56.7 13.3C56.8 13.3 56.8 13.2 56.8 13.2Z" fill="white"/>
<path d="M18.0366 11.446C17.5084 11.446 16.4521 11.446 15.9239 11.446C15.9239 11.1223 15.9239 10.0432 15.9239 9.71943C15.9239 9.61151 15.9239 9.50357 15.9239 9.28774C15.9239 9.07192 16.0295 8.96404 16.2408 8.85613C16.3464 8.85613 16.4521 8.74817 16.6633 8.74817C16.9802 8.74817 18.0366 8.74817 18.3535 8.74817C18.3535 8.74817 18.3535 8.74817 18.4591 8.74817C18.4591 8.10069 18.4591 7.34533 18.4591 6.69785C17.7197 6.69785 16.6633 6.69785 15.9239 6.69785C15.607 6.69785 15.2901 6.80574 15.0788 6.80574C14.5507 7.02156 14.1282 7.34533 13.9169 7.77699C13.8113 8.10073 13.7056 8.53236 13.7056 8.96402C13.7056 9.39567 13.7056 10.7986 13.7056 11.2302C13.7056 11.2302 13.7056 11.2302 13.7056 11.3381C13.3887 11.3381 11.3817 11.3381 11.0648 11.3381C11.0648 11.9856 11.0648 13.2806 11.0648 13.9281C11.3817 13.9281 13.3887 13.9281 13.7056 13.9281C13.7056 15.5468 13.7056 17.3813 13.7056 19H8.21265C7.05068 19 6.09998 18.0288 6.09998 16.8417V6.15828C6.09998 4.97123 7.05068 4 8.21265 4H18.9873C20.1493 4 21.1 4.97123 21.1 6.15828V16.8417C21.1 18.0288 20.1493 19 18.9873 19H16.0296C16.0296 17.3813 16.0296 15.5468 16.0296 13.9281C16.0296 13.9281 16.0295 13.9281 16.1352 13.9281C16.5577 13.9281 17.1915 13.9281 17.7197 13.9281L18.0366 11.446Z" fill="white"/>
</g>
</svg>
