<svg width="74" height="23" viewBox="0 0 74 23" fill="none" xmlns="http://www.w3.org/2000/svg">
<mask id="mask0" mask-type="alpha" maskUnits="userSpaceOnUse" x="0" y="0" width="74" height="23">
<path d="M70.1 0H3.8C1.7 0 0 1.7 0 3.8V19.2C0 21.3 1.7 23 3.8 23H70.1C72.2 23 73.9 21.3 73.9 19.2V3.8C73.8 1.7 72.1 0 70.1 0Z" fill="#50ABF1"/>
</mask>
<g mask="url(#mask0)">
<rect width="74" height="23" fill="#0274B3"/>
<rect width="74" height="23" fill="#E1E7EC"/>
<rect width="74" height="23" fill="#CB1F24"/>
<rect width="74" height="23" fill="#3A559F"/>
<path d="M28.6 15V6H31.5C32.6 6 33.3 6 33.7 6.1C34.2 6.2 34.6 6.5 35 7C35.3 7.5 35.5 8 35.5 8.7C35.5 9.3 35.4 9.7 35.2 10.1C35 10.5 34.7 10.8 34.4 11C34.1 11.2 33.8 11.4 33.5 11.4C33.1 11.5 32.4 11.5 31.6 11.5H30.4V14.9H28.6V15ZM30.4 7.5V10H31.4C32.1 10 32.6 10 32.8 9.9C33 9.8 33.2 9.7 33.4 9.5C33.6 9.3 33.6 9.1 33.6 8.8C33.6 8.5 33.5 8.2 33.3 8C33.1 7.8 32.9 7.7 32.6 7.6C32.4 7.6 31.9 7.5 31.3 7.5H30.4Z" fill="white"/>
<path d="M38.2 10.4L36.7 10.2C36.9 9.59999 37.2 9.09999 37.6 8.79999C38 8.49999 38.7 8.29999 39.5 8.29999C40.3 8.29999 40.8 8.39999 41.2 8.59999C41.6 8.79999 41.8 8.99999 42 9.29999C42.2 9.59999 42.2 10.1 42.2 10.8V12.8C42.2 13.4 42.2 13.8 42.3 14.1C42.4 14.4 42.5 14.7 42.6 15H40.9C40.9 14.9 40.8 14.7 40.7 14.5C40.7 14.4 40.7 14.3 40.6 14.3C40.3 14.6 40 14.8 39.7 14.9C39.4 15 39 15.1 38.6 15.1C37.9 15.1 37.4 14.9 37 14.6C36.7 14.2 36.5 13.7 36.5 13.2C36.5 12.8 36.6 12.5 36.8 12.2C37 11.9 37.2 11.7 37.5 11.5C37.8 11.3 38.3 11.2 38.9 11.1C39.7 10.9 40.3 10.8 40.6 10.7V10.5C40.6 10.2 40.5 9.89999 40.4 9.79999C40.3 9.69999 39.9 9.59999 39.5 9.59999C39.2 9.59999 39 9.69999 38.8 9.79999C38.5 9.89999 38.3 10.1 38.2 10.4ZM40.5 11.8C40.3 11.9 39.9 12 39.5 12.1C39 12.2 38.7 12.3 38.6 12.4C38.4 12.6 38.3 12.8 38.3 13C38.3 13.2 38.4 13.4 38.6 13.6C38.8 13.8 39 13.9 39.3 13.9C39.6 13.9 39.9 13.8 40.2 13.6C40.4 13.4 40.5 13.3 40.6 13C40.6 12.9 40.7 12.6 40.7 12.2V11.8H40.5Z" fill="white"/>
<path d="M43.1 8.5H44.9L46.5 13.1L48 8.5H49.8L47.5 14.7L47.1 15.8C46.9 16.2 46.8 16.5 46.7 16.7C46.6 16.9 46.4 17.1 46.2 17.2C46 17.3 45.8 17.4 45.5 17.5C45.2 17.6 44.9 17.6 44.6 17.6C44.3 17.6 43.9 17.6 43.6 17.5L43.4 16.2C43.7 16.3 43.9 16.3 44.1 16.3C44.5 16.3 44.8 16.2 45 15.9C45.2 15.7 45.3 15.4 45.4 15L43.1 8.5Z" fill="white"/>
<path d="M50.9 15V6H52.6V15H50.9Z" fill="white"/>
<path d="M55.6 10.4L54 10.1C54.2 9.50001 54.5 9.00001 54.9 8.70001C55.3 8.40001 56 8.20001 56.8 8.20001C57.6 8.20001 58.1 8.30001 58.5 8.50001C58.9 8.70001 59.1 8.90001 59.3 9.20001C59.5 9.50001 59.5 10 59.5 10.7V12.7C59.5 13.3 59.5 13.7 59.6 14C59.7 14.3 59.8 14.6 59.9 14.9H58.2C58.2 14.8 58.1 14.6 58 14.4C58 14.3 58 14.2 57.9 14.2C57.6 14.5 57.3 14.7 57 14.8C56.7 14.9 56.3 15 55.9 15C55.2 15 54.7 14.8 54.3 14.5C53.9 14.2 53.7 13.7 53.7 13.1C53.7 12.7 53.8 12.4 54 12.1C54.2 11.8 54.4 11.6 54.7 11.4C55 11.2 55.5 11.1 56.1 11C56.9 10.8 57.5 10.7 57.8 10.6V10.4C57.8 10.1 57.7 9.80001 57.6 9.70001C57.4 9.60001 57.1 9.50001 56.7 9.50001C56.4 9.50001 56.2 9.60001 56 9.70001C55.9 9.90001 55.7 10.1 55.6 10.4ZM57.9 11.8C57.7 11.9 57.3 12 56.9 12.1C56.4 12.2 56.1 12.3 56 12.4C55.8 12.6 55.7 12.8 55.7 13C55.7 13.2 55.8 13.4 56 13.6C56.2 13.8 56.4 13.9 56.7 13.9C57 13.9 57.3 13.8 57.6 13.6C57.8 13.4 57.9 13.3 58 13C58 12.9 58.1 12.6 58.1 12.2V11.8H57.9Z" fill="white"/>
<path d="M60.7 13.1L62.4 12.8C62.5 13.1 62.6 13.4 62.8 13.6C63 13.8 63.3 13.9 63.7 13.9C64.1 13.9 64.5 13.8 64.7 13.7C64.9 13.6 64.9 13.4 64.9 13.2C64.9 13.1 64.9 13 64.8 12.9C64.7 12.8 64.5 12.7 64.2 12.7C62.8 12.4 61.9 12.1 61.6 11.9C61.1 11.5 60.8 11.1 60.8 10.4C60.8 9.80002 61 9.40002 61.5 9.00002C61.9 8.60002 62.6 8.40002 63.6 8.40002C64.5 8.40002 65.1 8.50002 65.6 8.80002C66 9.10002 66.3 9.50003 66.5 10.1L64.9 10.4C64.8 10.1 64.7 10 64.5 9.80002C64.3 9.70002 64 9.60003 63.7 9.60003C63.2 9.60003 62.9 9.70002 62.7 9.80002C62.6 9.90002 62.5 10 62.5 10.1C62.5 10.2 62.6 10.3 62.7 10.4C62.9 10.5 63.4 10.7 64.3 10.9C65.2 11.1 65.9 11.4 66.2 11.7C66.6 12 66.7 12.4 66.7 13C66.7 13.6 66.5 14.1 66 14.5C65.5 14.9 64.8 15.1 63.8 15.1C62.9 15.1 62.2 14.9 61.7 14.6C61.2 14.2 60.9 13.7 60.7 13.1ZM62.4 17.4V16.7C62.8 16.7 63.2 16.8 63.6 16.8C64 16.8 64.2 16.7 64.4 16.6C64.5 16.5 64.6 16.4 64.6 16.2C64.6 16.1 64.5 15.9 64.4 15.8C64.3 15.7 64.1 15.6 63.8 15.6C63.5 15.6 63.3 15.6 63 15.7L63.2 15.1C63.5 15 63.9 14.9 64.2 14.9C64.7 14.9 65.1 15 65.4 15.2C65.7 15.4 65.8 15.7 65.8 16C65.8 16.4 65.7 16.6 65.4 16.9C65 17.2 64.4 17.4 63.7 17.4C63 17.5 62.6 17.5 62.4 17.4Z" fill="white"/>
<path d="M18.0366 11.446C17.5084 11.446 16.4521 11.446 15.9239 11.446C15.9239 11.1223 15.9239 10.0432 15.9239 9.71943C15.9239 9.61151 15.9239 9.50357 15.9239 9.28774C15.9239 9.07192 16.0295 8.96404 16.2408 8.85613C16.3464 8.85613 16.4521 8.74817 16.6633 8.74817C16.9802 8.74817 18.0366 8.74817 18.3535 8.74817C18.3535 8.74817 18.3535 8.74817 18.4591 8.74817C18.4591 8.10069 18.4591 7.34533 18.4591 6.69785C17.7197 6.69785 16.6633 6.69785 15.9239 6.69785C15.607 6.69785 15.2901 6.80574 15.0788 6.80574C14.5507 7.02156 14.1282 7.34533 13.9169 7.77699C13.8113 8.10073 13.7056 8.53236 13.7056 8.96402C13.7056 9.39567 13.7056 10.7986 13.7056 11.2302C13.7056 11.2302 13.7056 11.2302 13.7056 11.3381C13.3887 11.3381 11.3817 11.3381 11.0648 11.3381C11.0648 11.9856 11.0648 13.2806 11.0648 13.9281C11.3817 13.9281 13.3887 13.9281 13.7056 13.9281C13.7056 15.5468 13.7056 17.3813 13.7056 19H8.21265C7.05068 19 6.09998 18.0288 6.09998 16.8417V6.15828C6.09998 4.97123 7.05068 4 8.21265 4H18.9873C20.1493 4 21.1 4.97123 21.1 6.15828V16.8417C21.1 18.0288 20.1493 19 18.9873 19H16.0296C16.0296 17.3813 16.0296 15.5468 16.0296 13.9281C16.0296 13.9281 16.0295 13.9281 16.1352 13.9281C16.5577 13.9281 17.1915 13.9281 17.7197 13.9281L18.0366 11.446Z" fill="white"/>
</g>
</svg>
