<svg width="102" height="23" viewBox="0 0 102 23" fill="none" xmlns="http://www.w3.org/2000/svg">
<mask id="mask0" mask-type="alpha" maskUnits="userSpaceOnUse" x="0" y="0" width="102" height="23">
<path d="M98.1 0H3.8C1.7 0 0 1.7 0 3.8V19.2C0 21.3 1.7 23 3.8 23H98.1C100.2 23 101.9 21.3 101.9 19.2V3.8C101.8 1.7 100.1 0 98.1 0Z" fill="#50ABF1"/>
</mask>
<g mask="url(#mask0)">
<rect width="102" height="23" fill="#0274B3"/>
<rect width="102" height="23" fill="#E1E7EC"/>
<rect width="102" height="23" fill="#CB1F24"/>
<rect width="102" height="23" fill="#3A559F"/>
<path d="M34.3 11.7L36.1 12.3C35.8 13.3 35.4 14 34.8 14.5C34.2 15 33.4 15.2 32.4 15.2C31.2 15.2 30.2 14.8 29.5 14C28.8 13.2 28.4 12.1 28.4 10.7C28.4 9.2 28.8 8 29.6 7.2C30.4 6.4 31.4 6 32.6 6C33.7 6 34.6 6.3 35.3 7C35.7 7.4 36 7.9 36.2 8.7L34.4 9.10001C34.3 8.60001 34.1 8.3 33.7 8C33.4 7.7 33 7.60001 32.5 7.60001C31.8 7.60001 31.3 7.8 30.9 8.3C30.5 8.8 30.3 9.50001 30.3 10.6C30.3 11.7 30.5 12.5 30.9 13C31.3 13.5 31.8 13.7 32.5 13.7C33 13.7 33.4 13.5 33.7 13.2C34 12.9 34.2 12.4 34.3 11.7Z" fill="white"/>
<path d="M37.6 8.5H43.4V15H41.7V9.89999H39.4V15H37.7V8.5H37.6Z" fill="white"/>
<path d="M44.8 11.7C44.8 11.1 44.9 10.6 45.2 10C45.5 9.50003 45.9 9.10003 46.4 8.80003C46.9 8.50003 47.5 8.40002 48.1 8.40002C49.1 8.40002 49.9 8.70002 50.5 9.40002C51.1 10 51.4 10.8 51.4 11.8C51.4 12.8 51.1 13.6 50.4 14.2C49.7 14.8 49 15.2 48 15.2C47.4 15.2 46.8 15.1 46.3 14.8C45.8 14.5 45.3 14.1 45.1 13.6C44.9 13.1 44.8 12.4 44.8 11.7ZM46.6 11.8C46.6 12.4 46.8 12.9 47.1 13.3C47.4 13.6 47.8 13.8 48.2 13.8C48.6 13.8 49 13.6 49.3 13.3C49.6 13 49.8 12.5 49.8 11.8C49.8 11.2 49.6 10.7 49.3 10.3C49 9.90003 48.6 9.80003 48.2 9.80003C47.8 9.80003 47.4 10 47.1 10.3C46.7 10.6 46.6 11.1 46.6 11.8Z" fill="white"/>
<path d="M58.1 15H53.2V16.7H51.7V13.6H52.4C52.7 13.3 52.9 12.8 53.1 12.1C53.3 11.4 53.4 10.2 53.4 8.5H58.6V13.6H59.3V16.7H57.9V15H58.1ZM57.1 13.6V9.89999H55C54.9 11.7 54.6 12.9 54.1 13.6H57.1Z" fill="white"/>
<path d="M64.4 13L66.1 13.3C65.9 13.9 65.5 14.4 65.1 14.7C64.6 15 64 15.2 63.3 15.2C62.2 15.2 61.3 14.8 60.8 14.1C60.4 13.5 60.2 12.8 60.2 11.9C60.2 10.8 60.5 9.99999 61 9.39999C61.5 8.79999 62.3 8.5 63.1 8.5C64.1 8.5 64.8 8.8 65.4 9.5C66 10.1 66.2 11.1 66.2 12.4H61.9C61.9 12.9 62.1 13.3 62.3 13.6C62.6 13.9 62.9 14 63.3 14C63.6 14 63.8 13.9 64 13.8C64.2 13.5 64.3 13.3 64.4 13ZM64.5 11.2C64.5 10.7 64.4 10.3 64.1 10.1C63.8 9.90001 63.6 9.7 63.2 9.7C62.8 9.7 62.5 9.80001 62.3 10.1C62.1 10.4 61.9 10.7 61.9 11.2H64.5Z" fill="white"/>
<path d="M68.1 8.5H73.9V15H72.2V9.89999H69.9V12.8C69.9 13.5 69.8 14.1 69.6 14.4C69.4 14.7 69.2 14.9 69 15C68.8 15.1 68.5 15.1 68 15.1C67.7 15.1 67.4 15.1 66.9 15V13.7C66.9 13.7 67 13.7 67.2 13.7C67.4 13.7 67.5 13.7 67.6 13.7C67.8 13.7 68 13.6 68 13.5C68.1 13.3 68.1 12.9 68.1 12.2V8.5Z" fill="white"/>
<path d="M81.1 8.50003V15H79.4V12.3H79.2C78.8 12.3 78.6 12.3 78.4 12.4C78.2 12.5 78 12.7 77.8 13L77.7 13.1L76.6 14.9H74.6L75.8 13C76.2 12.5 76.5 12.2 76.8 12.1C76.3 12.1 75.9 11.9 75.6 11.6C75.3 11.3 75.2 10.8 75.2 10.3C75.2 9.90003 75.3 9.50003 75.5 9.20003C75.7 8.90003 76 8.70004 76.3 8.60004C76.6 8.50004 77.1 8.40002 77.8 8.40002H81.1V8.50003ZM79.4 9.60004H78.2C77.7 9.60004 77.4 9.70003 77.2 9.80003C77 9.90003 76.9 10.1 76.9 10.4C76.9 10.7 77 10.9 77.2 11C77.4 11.1 77.7 11.2 78.2 11.2H79.3V9.60004H79.4Z" fill="white"/>
<path d="M82.8 8.5H84.5V10.9H87V8.5H88.7V15H87V12.3H84.5V15H82.8V8.5Z" fill="white"/>
<path d="M94.2 13L95.9 13.3C95.7 13.9 95.3 14.4 94.9 14.7C94.4 15 93.8 15.2 93.1 15.2C92 15.2 91.1 14.8 90.6 14.1C90.2 13.5 90 12.8 90 11.9C90 10.8 90.3 9.99999 90.8 9.39999C91.3 8.79999 92.1 8.5 92.9 8.5C93.9 8.5 94.6 8.8 95.2 9.5C95.8 10.1 96 11.1 96 12.4H91.7C91.7 12.9 91.9 13.3 92.1 13.6C92.4 13.9 92.7 14 93.1 14C93.4 14 93.6 13.9 93.8 13.8C93.9 13.5 94.1 13.3 94.2 13ZM94.3 11.2C94.3 10.7 94.2 10.3 93.9 10.1C93.6 9.90001 93.4 9.7 93 9.7C92.6 9.7 92.3 9.80001 92.1 10.1C91.9 10.4 91.7 10.7 91.7 11.2H94.3Z" fill="white"/>
<path d="M18.0366 11.446C17.5084 11.446 16.4521 11.446 15.9239 11.446C15.9239 11.1223 15.9239 10.0432 15.9239 9.71943C15.9239 9.61151 15.9239 9.50357 15.9239 9.28774C15.9239 9.07192 16.0295 8.96404 16.2408 8.85613C16.3464 8.85613 16.4521 8.74817 16.6633 8.74817C16.9802 8.74817 18.0366 8.74817 18.3535 8.74817C18.3535 8.74817 18.3535 8.74817 18.4591 8.74817C18.4591 8.10069 18.4591 7.34533 18.4591 6.69785C17.7197 6.69785 16.6633 6.69785 15.9239 6.69785C15.607 6.69785 15.2901 6.80574 15.0788 6.80574C14.5507 7.02156 14.1282 7.34533 13.9169 7.77699C13.8113 8.10073 13.7056 8.53236 13.7056 8.96402C13.7056 9.39567 13.7056 10.7986 13.7056 11.2302C13.7056 11.2302 13.7056 11.2302 13.7056 11.3381C13.3887 11.3381 11.3817 11.3381 11.0648 11.3381C11.0648 11.9856 11.0648 13.2806 11.0648 13.9281C11.3817 13.9281 13.3887 13.9281 13.7056 13.9281C13.7056 15.5468 13.7056 17.3813 13.7056 19H8.21265C7.05068 19 6.09998 18.0288 6.09998 16.8417V6.15828C6.09998 4.97123 7.05068 4 8.21265 4H18.9873C20.1493 4 21.1 4.97123 21.1 6.15828V16.8417C21.1 18.0288 20.1493 19 18.9873 19H16.0296C16.0296 17.3813 16.0296 15.5468 16.0296 13.9281C16.0296 13.9281 16.0295 13.9281 16.1352 13.9281C16.5577 13.9281 17.1915 13.9281 17.7197 13.9281L18.0366 11.446Z" fill="white"/>
</g>
</svg>
