<svg width="98" height="23" viewBox="0 0 98 23" fill="none" xmlns="http://www.w3.org/2000/svg">
<mask id="mask0" mask-type="alpha" maskUnits="userSpaceOnUse" x="0" y="0" width="98" height="23">
<path d="M94.1 0H3.8C1.7 0 0 1.7 0 3.8V19.2C0 21.3 1.7 23 3.8 23H94.1C96.2 23 97.9 21.3 97.9 19.2V3.8C97.8 1.7 96.1 0 94.1 0Z" fill="#50ABF1"/>
</mask>
<g mask="url(#mask0)">
<rect width="98" height="23" fill="#0274B3"/>
<rect width="98" height="23" fill="#E1E7EC"/>
<rect width="98" height="23" fill="#CB1F24"/>
<rect width="98" height="23" fill="#3A559F"/>
<path d="M27.5 7.19998V6.29999H33.1V7.19998H31.7C31.3 7.29998 31 7.49999 30.7 7.79999C30.4 8.09999 30.2 8.39999 30.1 8.79999C29.9 9.19999 29.8 9.59998 29.7 9.99998C29.6 10.4 29.6 10.9 29.6 11.3C29.6 11.6 29.6 11.9 29.7 12.2C29.7 12.5 29.8 12.8 29.8 13C29.9 13.3 29.9 13.5 30 13.7C30.1 13.9 30.2 14.1 30.3 14.3H30.4C30.4 14.2 30.4 14.1 30.5 14C30.6 13.9 30.6 13.8 30.7 13.7C30.8 13.6 30.9 13.5 31 13.5C31.1 13.4 31.3 13.4 31.4 13.4C31.6 13.4 31.7 13.4 31.8 13.5C31.9 13.6 32 13.6 32.1 13.7C32.2 13.8 32.3 13.9 32.3 14C32.3 14.1 32.4 14.2 32.4 14.4C32.4 14.5 32.4 14.6 32.3 14.8C32.2 15 32.2 15.1 32.1 15.2C32 15.3 31.9 15.4 31.7 15.5C31.5 15.6 31.3 15.6 31 15.6C30.7 15.6 30.4 15.5 30.2 15.4C30 15.3 29.7 15.1 29.6 14.9C29.4 14.7 29.3 14.5 29.1 14.2C28.9 13.9 28.9 13.6 28.8 13.3C28.7 13 28.6 12.7 28.6 12.3C28.6 12 28.5 11.6 28.5 11.2C28.5 10.8 28.5 10.4 28.6 9.99998C28.7 9.59998 28.7 9.19999 28.8 8.79999C28.9 8.39999 29 8.09999 29.2 7.79999C29.4 7.49999 29.5 7.29999 29.7 7.09999H27.5V7.19998Z" fill="white"/>
<path d="M35.8 10.4C35.7 10.6 35.6 10.7 35.5 10.9C35.4 11 35.3 11.1 35.1 11.2C34.9 11.3 34.9 11.3 34.7 11.4C34.6 11.4 34.5 11.4 34.4 11.4C34.2 11.4 34.1 11.4 34 11.3C33.9 11.2 33.7 11.1 33.6 11C33.5 10.9 33.4 10.8 33.3 10.6C33.2 10.4 33.2 10.3 33.2 10.1C33.2 9.90001 33.3 9.59999 33.4 9.39999C33.5 9.19999 33.7 9 33.8 8.8C33.9 8.6 34.2 8.5 34.4 8.3C34.6 8.2 34.8 7.99999 34.9 7.89999C34.8 7.89999 34.8 7.8 34.6 7.7C34.4 7.6 34.4 7.49999 34.2 7.39999C34 7.29999 33.9 7.2 33.7 7.2C33.5 7.2 33.3 7.10001 33.2 7.10001H32.7V6.2H33.3C33.5 6.2 33.8 6.2 34 6.3C34.2 6.4 34.4 6.4 34.6 6.5C34.8 6.6 35 6.7 35.2 6.8C35.4 6.9 35.6 7.1 35.8 7.2C35.9 7.1 36.1 6.9 36.3 6.8C36.5 6.7 36.6 6.49999 36.8 6.39999C37 6.29999 37.2 6.20001 37.4 6.10001C37.6 6.00001 37.8 6 37.9 6C38.1 6 38.3 6.1 38.5 6.2C38.7 6.3 38.9 6.5 39.1 6.7C39.3 6.9 39.4 7.09999 39.6 7.39999C39.8 7.69999 39.9 7.9 40 8.2V6.2H42.3V7.10001H41V15.3H40V10.3C39.8 9.9 39.6 9.4 39.4 9C39.2 8.6 39 8.3 38.8 8C38.6 7.7 38.4 7.5 38.2 7.3C38 7.1 37.9 7 37.7 7C37.6 7 37.5 7.00001 37.4 7.10001C37.3 7.20001 37.2 7.2 37.1 7.3C37 7.4 36.9 7.50001 36.8 7.60001C36.7 7.70001 36.6 7.8 36.6 7.8C36.8 8 37.1 8.1 37.3 8.3C37.5 8.5 37.7 8.6 37.9 8.8C38.1 9 38.2 9.19999 38.3 9.39999C38.4 9.59999 38.5 9.8 38.5 10C38.5 10.2 38.5 10.3 38.4 10.5C38.3 10.7 38.2 10.8 38.1 10.9C38 11 37.9 11.1 37.7 11.2C37.5 11.3 37.4 11.3 37.2 11.3C37.1 11.3 37 11.3 36.9 11.3C36.8 11.3 36.7 11.2 36.5 11.1C36.4 11 36.3 10.9 36.1 10.8C36 10.8 35.9 10.6 35.8 10.4Z" fill="white"/>
<path d="M48.4 15.7C48.3 15.4 48.1 15.1 47.9 14.8C47.7 14.5 47.4 14.2 47.1 14C46.8 13.7 46.5 13.5 46.2 13.3C45.9 13.1 45.6 12.9 45.2 12.7C44.8 12.5 44.6 12.4 44.3 12.3C44 12.2 43.7 12.1 43.5 12V10.7C43.8 10.5 44.1 10.3 44.5 10.1C44.9 9.89999 45.2 9.69998 45.6 9.49998C45.4 9.29998 45.2 9.09998 45 8.89998C44.8 8.69998 44.5 8.59998 44.3 8.49998C44.1 8.39998 43.8 8.29998 43.6 8.19998C43.4 8.09998 43.2 8.09998 43 7.99998V7.19998H41.8V6.29999H50.3V7.19998H49V15.7H48.4ZM47.1 9.89998C46.9 9.99998 46.7 10.1 46.4 10.2C46.1 10.3 45.9 10.4 45.6 10.6C45.4 10.7 45.1 10.8 44.9 11C44.7 11.1 44.5 11.2 44.4 11.3V11.4C44.7 11.5 45 11.6 45.3 11.7C45.6 11.8 45.9 12 46.2 12.1C46.5 12.2 46.8 12.4 47.1 12.7C47.4 13 47.7 13.2 47.9 13.4V7.29999H43.8C44.1 7.39999 44.4 7.49998 44.7 7.69998C45 7.89998 45.3 8.09999 45.6 8.29999C45.9 8.49999 46.2 8.79999 46.4 9.09999C46.8 9.29999 46.9 9.59998 47.1 9.89998Z" fill="white"/>
<path d="M45.8 16.8C45.8 16.7 45.8 16.6 45.9 16.5C46 16.4 46 16.3 46.1 16.3C46.2 16.3 46.3 16.2 46.3 16.1C46.4 16.1 46.5 16 46.6 16C46.7 16 46.8 16 46.9 16.1C47 16.1 47.1 16.2 47.1 16.3C47.1 16.4 47.2 16.5 47.3 16.5C47.4 16.5 47.4 16.7 47.4 16.8C47.4 16.9 47.4 17 47.3 17.1C47.2 17.2 47.2 17.3 47.1 17.3C47 17.3 46.9 17.4 46.9 17.5C46.8 17.5 46.7 17.6 46.6 17.6C46.5 17.6 46.4 17.6 46.3 17.5C46.2 17.5 46.1 17.4 46.1 17.3C46.1 17.2 46 17.1 45.9 17.1C45.8 17.1 45.8 16.9 45.8 16.8Z" fill="white"/>
<path d="M51.1 8.10002C51.1 8.00002 51.1 7.90001 51 7.70001C50.9 7.60001 50.9 7.50001 50.8 7.40001C50.7 7.30001 50.6 7.20001 50.5 7.20001C50.4 7.20001 50.2 7.10002 50.1 7.10002H49.8V6.20001H50.1C50.2 6.20001 50.3 6.20001 50.4 6.20001C50.5 6.20001 50.7 6.30002 50.8 6.30002C50.9 6.30002 51.1 6.40002 51.2 6.50002C51.3 6.60002 51.5 6.70002 51.6 6.80002C51.6 6.60002 51.6 6.50001 51.7 6.40001C51.8 6.30001 51.9 6.20001 52 6.20001H53.4V7.10002H53.1C53 7.10002 52.8 7.10001 52.7 7.20001C52.6 7.20001 52.5 7.30001 52.4 7.40001C52.3 7.50001 52.2 7.60001 52.2 7.70001C52.1 7.80001 52.1 7.90002 52.1 8.10002V15.4H51.1V8.10002Z" fill="white"/>
<path d="M58.8 7.19998H53V6.29999H61V7.19998H59.7V15.7H59.1C59 15.4 58.8 15 58.6 14.7C58.4 14.4 58.1 14.1 57.8 13.8C57.5 13.5 57.2 13.3 56.9 13C56.6 12.8 56.3 12.5 55.9 12.4C55.6 12.2 55.3 12 55 11.9C54.7 11.8 54.4 11.7 54.2 11.6V10.3C54.5 10.1 54.8 9.89998 55.1 9.69998C55.4 9.49998 55.8 9.29999 56.2 9.09999C56.6 8.89999 57 8.69998 57.4 8.49998C57.8 8.29998 58.2 8.19998 58.7 8.19998V7.19998H58.8ZM55 14.2C55 14.1 55 14 55.1 13.9C55.1 13.8 55.2 13.7 55.3 13.7C55.4 13.7 55.5 13.6 55.5 13.5C55.6 13.5 55.7 13.4 55.8 13.4C55.9 13.4 56 13.4 56.1 13.5C56.2 13.5 56.3 13.6 56.3 13.7C56.3 13.8 56.4 13.9 56.5 13.9C56.6 13.9 56.6 14.1 56.6 14.2C56.6 14.3 56.6 14.4 56.5 14.5C56.4 14.6 56.4 14.7 56.3 14.7C56.2 14.7 56.1 14.8 56.1 14.9C56.1 15 55.9 15 55.8 15C55.7 15 55.6 15 55.5 14.9C55.4 14.8 55.3 14.8 55.3 14.7C55.3 14.6 55.2 14.5 55.1 14.5C55 14.4 55 14.3 55 14.2ZM58.8 13.3V9.09999C58.6 9.09999 58.4 9.19998 58.2 9.19998C58 9.29998 57.8 9.39998 57.5 9.49998C57.3 9.59998 57 9.69999 56.8 9.79999C56.6 9.89999 56.4 9.99998 56.1 10.2C55.9 10.3 55.7 10.4 55.5 10.5C55.3 10.6 55.2 10.7 55.1 10.8V10.9C55.7 11.1 56.3 11.4 56.9 11.8C57.6 12.3 58.2 12.8 58.8 13.3Z" fill="white"/>
<path d="M69.9 7.19998H64.1V6.29999H75.5V7.19998H70.8V8.09999C71.3 8.09999 71.8 8.19999 72.3 8.29999C72.8 8.39999 73.2 8.59998 73.6 8.89998C74 9.19998 74.3 9.49999 74.5 9.79999C74.7 10.2 74.8 10.6 74.8 11C74.8 11.3 74.7 11.6 74.6 11.9C74.5 12.2 74.3 12.4 74.2 12.6C74 12.8 73.8 12.9 73.6 13C73.4 13.1 73.1 13.1 72.9 13.1C72.7 13.1 72.4 13.1 72.3 13C72.1 12.9 72 12.8 71.9 12.7C71.8 12.6 71.7 12.5 71.7 12.3C71.7 12.2 71.6 12.1 71.6 12C71.6 11.9 71.6 11.8 71.7 11.6C71.7 11.5 71.8 11.4 71.9 11.3C72 11.2 72.1 11.1 72.2 11.1C72.3 11 72.5 11 72.6 11C72.8 11 72.9 11 73 11.1C73.1 11.2 73.2 11.2 73.3 11.3C73.4 11.4 73.4 11.5 73.5 11.6C73.5 11.7 73.6 11.8 73.6 11.9H73.7C73.8 11.8 73.9 11.7 74 11.6C74.1 11.5 74.1 11.3 74.1 11.1C74.1 10.9 74 10.6 73.9 10.4C73.8 10.2 73.6 9.89999 73.4 9.79999C73.2 9.59999 72.9 9.39999 72.5 9.29999C72.1 9.19999 71.7 9.09999 71.1 9.09999V15.6H70.5C70.4 15.3 70.2 14.9 70 14.6C69.8 14.3 69.5 14 69.2 13.7C68.9 13.4 68.6 13.2 68.3 12.9C68 12.7 67.7 12.4 67.3 12.3C67 12.1 66.7 11.9 66.4 11.8C66.1 11.7 65.8 11.6 65.6 11.5V10.2C65.9 9.99998 66.2 9.79999 66.5 9.59999C66.8 9.39999 67.2 9.19998 67.6 8.99998C68 8.79998 68.4 8.59998 68.8 8.39998C69.2 8.19998 69.6 8.09999 70.1 8.09999V7.19998H69.9ZM69.9 13.3V9.09999C69.7 9.09999 69.5 9.19999 69.3 9.29999C69.1 9.39999 68.9 9.49999 68.6 9.59999C68.4 9.69999 68.1 9.79998 67.9 9.89998C67.7 9.99998 67.5 10.1 67.3 10.3C67.1 10.4 66.9 10.5 66.8 10.6C66.6 10.7 66.5 10.8 66.4 10.9V11C67 11.2 67.6 11.5 68.2 11.9C68.7 12.3 69.3 12.8 69.9 13.3Z" fill="white"/>
<path d="M80.8 7.19998H75V6.29999H83V7.19998H81.7V15.7H81.1C81 15.4 80.8 15 80.6 14.7C80.4 14.4 80.1 14.1 79.8 13.8C79.5 13.5 79.2 13.3 78.9 13C78.6 12.8 78.3 12.5 77.9 12.4C77.6 12.2 77.3 12 77 11.9C76.7 11.8 76.4 11.7 76.2 11.6V10.3C76.5 10.1 76.8 9.89998 77.1 9.69998C77.4 9.49998 77.8 9.29999 78.2 9.09999C78.6 8.89999 79 8.69998 79.4 8.49998C79.8 8.29998 80.2 8.19998 80.7 8.19998V7.19998H80.8ZM77.1 14.2C77.1 14.1 77.1 14 77.2 13.9C77.3 13.8 77.3 13.7 77.4 13.7C77.5 13.7 77.6 13.6 77.6 13.5C77.7 13.5 77.8 13.4 77.9 13.4C78 13.4 78.1 13.4 78.2 13.5C78.3 13.5 78.4 13.6 78.4 13.7C78.4 13.8 78.5 13.9 78.6 13.9C78.7 13.9 78.7 14.1 78.7 14.2C78.7 14.3 78.7 14.4 78.6 14.5C78.5 14.6 78.5 14.7 78.4 14.7C78.3 14.7 78.2 14.8 78.2 14.9C78.2 15 78 15 77.9 15C77.8 15 77.7 15 77.6 14.9C77.5 14.8 77.4 14.8 77.4 14.7C77.4 14.6 77.3 14.5 77.2 14.5C77.1 14.5 77.1 14.3 77.1 14.2ZM80.8 13.3V9.09999C80.6 9.09999 80.4 9.19998 80.2 9.19998C80 9.29998 79.8 9.39998 79.5 9.49998C79.3 9.59998 79 9.69999 78.8 9.79999C78.6 9.89999 78.4 9.99998 78.1 10.2C77.9 10.3 77.7 10.4 77.5 10.5C77.3 10.6 77.2 10.7 77.1 10.8V10.9C77.7 11.1 78.3 11.4 78.9 11.8C79.7 12.3 80.3 12.8 80.8 13.3Z" fill="white"/>
<path d="M84.8 17L84.2 17.7C84 17.6 83.9 17.4 83.7 17.3C83.5 17.2 83.4 17 83.2 16.9C83 16.8 82.8 16.7 82.6 16.6C82.4 16.5 82.2 16.4 81.9 16.3C81.8 16.5 81.7 16.8 81.6 16.9C81.5 17 81.3 17.2 81.2 17.3C81.1 17.4 80.9 17.5 80.7 17.6C80.5 17.7 80.3 17.7 80.1 17.7C79.9 17.7 79.7 17.7 79.5 17.6C79.3 17.5 79.2 17.5 79 17.3C78.8 17.1 78.8 17.1 78.7 16.9C78.6 16.7 78.6 16.6 78.6 16.4C78.6 16.2 78.6 16.1 78.7 15.9C78.8 15.7 78.9 15.6 79 15.5C79.1 15.4 79.3 15.3 79.6 15.2C79.8 15.1 80.1 15.1 80.5 15.1C80.8 15.1 81.1 15.1 81.4 15.2C81.7 15.3 82 15.4 82.3 15.5C82.6 15.6 82.9 15.7 83.1 15.9C83.4 16 83.6 16.2 83.8 16.3C84 16.4 84.2 16.6 84.4 16.7C84.5 16.8 84.7 16.9 84.8 17ZM80.8 16.1C80.7 16.1 80.6 16 80.5 16C80.4 16 80.2 16 80.1 16C80 16 79.9 16 79.8 16.1C79.7 16.2 79.6 16.2 79.6 16.2C79.5 16.3 79.5 16.3 79.5 16.4C79.5 16.5 79.5 16.5 79.5 16.6C79.5 16.7 79.5 16.7 79.5 16.8C79.5 16.9 79.6 16.9 79.6 16.9C79.7 16.9 79.7 17 79.8 17C79.9 17 80 17 80 17C80.2 17 80.4 16.9 80.5 16.8C80.7 16.6 80.8 16.3 80.8 16.1Z" fill="white"/>
<path d="M89.4 12V7.19998H82.7V6.29999H91.8V7.19998H90.5V15.7H89.9C89.8 15.4 89.7 15.1 89.6 14.8C89.5 14.5 89.3 14.1 89.2 13.8C89 13.4 88.9 13.1 88.7 12.7C88.5 12.3 88.3 12 88.1 11.7C87.9 11.4 87.7 11.1 87.4 10.8C87.1 10.5 86.9 10.3 86.6 10.2L86.5 10.3C86.6 10.4 86.7 10.5 86.7 10.7C86.8 10.8 86.8 11 86.8 11.2C86.8 11.4 86.8 11.6 86.7 11.7C86.6 11.9 86.5 12 86.4 12.1C86.3 12.2 86.1 12.3 85.9 12.4C85.7 12.5 85.5 12.5 85.4 12.5C85.2 12.5 85 12.5 84.8 12.4C84.6 12.3 84.5 12.2 84.3 12.1C84.2 12 84.1 11.8 84 11.6C83.9 11.4 83.9 11.2 83.9 11C83.9 10.7 84 10.4 84.1 10.2C84.2 9.99998 84.4 9.79999 84.6 9.59999C84.8 9.49999 85 9.29999 85.3 9.29999C85.5 9.19999 85.8 9.19998 86 9.19998C86.4 9.19998 86.8 9.29998 87.1 9.39998C87.4 9.49998 87.8 9.79999 88.1 10.1C88.4 10.4 88.7 10.7 88.9 11C89.1 11.3 89.3 11.7 89.4 12Z" fill="white"/>
<path d="M18.0366 11.446C17.5084 11.446 16.4521 11.446 15.9239 11.446C15.9239 11.1223 15.9239 10.0432 15.9239 9.71943C15.9239 9.61151 15.9239 9.50357 15.9239 9.28774C15.9239 9.07192 16.0295 8.96404 16.2408 8.85613C16.3464 8.85613 16.4521 8.74817 16.6633 8.74817C16.9802 8.74817 18.0366 8.74817 18.3535 8.74817C18.3535 8.74817 18.3535 8.74817 18.4591 8.74817C18.4591 8.10069 18.4591 7.34533 18.4591 6.69785C17.7197 6.69785 16.6633 6.69785 15.9239 6.69785C15.607 6.69785 15.2901 6.80574 15.0788 6.80574C14.5507 7.02156 14.1282 7.34533 13.9169 7.77699C13.8113 8.10073 13.7056 8.53236 13.7056 8.96402C13.7056 9.39567 13.7056 10.7986 13.7056 11.2302C13.7056 11.2302 13.7056 11.2302 13.7056 11.3381C13.3887 11.3381 11.3817 11.3381 11.0648 11.3381C11.0648 11.9856 11.0648 13.2806 11.0648 13.9281C11.3817 13.9281 13.3887 13.9281 13.7056 13.9281C13.7056 15.5468 13.7056 17.3813 13.7056 19H8.21265C7.05068 19 6.09998 18.0288 6.09998 16.8417V6.15828C6.09998 4.97123 7.05068 4 8.21265 4H18.9873C20.1493 4 21.1 4.97123 21.1 6.15828V16.8417C21.1 18.0288 20.1493 19 18.9873 19H16.0296C16.0296 17.3813 16.0296 15.5468 16.0296 13.9281C16.0296 13.9281 16.0295 13.9281 16.1352 13.9281C16.5577 13.9281 17.1915 13.9281 17.7197 13.9281L18.0366 11.446Z" fill="white"/>
</g>
</svg>
