<svg width="63" height="23" viewBox="0 0 63 23" fill="none" xmlns="http://www.w3.org/2000/svg">
<mask id="mask0" mask-type="alpha" maskUnits="userSpaceOnUse" x="0" y="0" width="63" height="23">
<path d="M59.1 0H3.8C1.7 0 0 1.69999 0 3.79999V19.2C0 21.3 1.7 23 3.8 23H59.1C61.2 23 62.9 21.3 62.9 19.2V3.79999C62.8 1.69999 61.1 0 59.1 0Z" fill="#50ABF1"/>
</mask>
<g mask="url(#mask0)">
<rect width="63" height="23" fill="#0274B3"/>
<rect width="63" height="23" fill="#E1E7EC"/>
<rect width="63" height="23" fill="#CB1F24"/>
<rect width="63" height="23" fill="#3A559F"/>
<path d="M28.6 5H31.9C32.6 5 33.2 5.1 33.6 5.2C34.1 5.4 34.6 5.6 35 6C35.4 6.4 35.7 6.9 35.9 7.5C36.1 8.1 36.2 8.79999 36.2 9.59999C36.2 10.3 36.1 11 35.9 11.5C35.7 12.2 35.4 12.7 34.9 13.1C34.6 13.4 34.2 13.6 33.6 13.8C33.2 13.9 32.7 14 32 14H28.6V5ZM30.4 6.5V12.4H31.8C32.3 12.4 32.7 12.4 32.9 12.3C33.2 12.2 33.4 12.1 33.6 11.9C33.8 11.7 34 11.4 34.1 11C34.2 10.6 34.3 10.1 34.3 9.39999C34.3 8.69999 34.2 8.2 34.1 7.8C34 7.4 33.8 7.09999 33.6 6.89999C33.4 6.69999 33.1 6.6 32.8 6.5C32.5 6.4 32.1 6.39999 31.3 6.39999H30.4V6.5Z" fill="white"/>
<path d="M37.6 6.59999V5H39.3V6.59999H37.6ZM37.6 14V7.5H39.3V14H37.6Z" fill="white"/>
<path d="M42.8 7.5V13.8C42.8 14.6 42.7 15.2 42.6 15.6C42.5 15.9 42.3 16.2 42 16.4C41.7 16.6 41.3 16.7 40.8 16.7C40.6 16.7 40.4 16.7 40.2 16.7C40 16.7 39.8 16.6 39.6 16.6L39.9 15.1C40 15.1 40.1 15.1 40.1 15.1C40.2 15.1 40.2 15.1 40.3 15.1C40.5 15.1 40.6 15.1 40.7 15C40.8 14.9 40.9 14.8 40.9 14.7C40.9 14.6 41 14.3 41 13.7V7.5H42.8ZM41.1 6.59999V5H42.8V6.59999H41.1Z" fill="white"/>
<path d="M48.4 11.9L50.1 12.2C49.9 12.8 49.5 13.3 49.1 13.6C48.7 13.9 48 14.1 47.3 14.1C46.2 14.1 45.3 13.7 44.8 13C44.4 12.4 44.2 11.7 44.2 10.8C44.2 9.70003 44.5 8.90003 45 8.30003C45.6 7.70003 46.3 7.40002 47.1 7.40002C48.1 7.40002 48.8 7.70002 49.4 8.40002C50 9.00002 50.2 10 50.2 11.3H45.9C45.9 11.8 46.1 12.2 46.3 12.5C46.6 12.8 46.9 12.9 47.3 12.9C47.6 12.9 47.8 12.8 48 12.7C48.1 12.4 48.3 12.2 48.4 11.9ZM48.5 10.1C48.5 9.60002 48.4 9.20003 48.1 9.00003C47.9 8.70003 47.6 8.60002 47.2 8.60002C46.8 8.60002 46.5 8.70003 46.3 9.00003C46.1 9.30003 45.9 9.60002 45.9 10.1H48.5Z" fill="white"/>
<path d="M51.6 14V5H53.3V14H51.6Z" fill="white"/>
<path d="M55 6.59999V5H56.7V6.59999H55ZM55 14V7.5H56.7V14H55Z" fill="white"/>
<path d="M18.0366 11.446C17.5084 11.446 16.4521 11.446 15.9239 11.446C15.9239 11.1223 15.9239 10.0432 15.9239 9.71943C15.9239 9.61151 15.9239 9.50357 15.9239 9.28774C15.9239 9.07192 16.0295 8.96404 16.2408 8.85613C16.3464 8.85613 16.4521 8.74817 16.6633 8.74817C16.9802 8.74817 18.0366 8.74817 18.3535 8.74817C18.3535 8.74817 18.3535 8.74817 18.4591 8.74817C18.4591 8.10069 18.4591 7.34533 18.4591 6.69785C17.7197 6.69785 16.6633 6.69785 15.9239 6.69785C15.607 6.69785 15.2901 6.80574 15.0788 6.80574C14.5507 7.02156 14.1282 7.34533 13.9169 7.77699C13.8113 8.10073 13.7056 8.53236 13.7056 8.96402C13.7056 9.39567 13.7056 10.7986 13.7056 11.2302C13.7056 11.2302 13.7056 11.2302 13.7056 11.3381C13.3887 11.3381 11.3817 11.3381 11.0648 11.3381C11.0648 11.9856 11.0648 13.2806 11.0648 13.9281C11.3817 13.9281 13.3887 13.9281 13.7056 13.9281C13.7056 15.5468 13.7056 17.3813 13.7056 19H8.21265C7.05068 19 6.09998 18.0288 6.09998 16.8417V6.15828C6.09998 4.97123 7.05068 4 8.21265 4H18.9873C20.1493 4 21.1 4.97123 21.1 6.15828V16.8417C21.1 18.0288 20.1493 19 18.9873 19H16.0296C16.0296 17.3813 16.0296 15.5468 16.0296 13.9281C16.0296 13.9281 16.0295 13.9281 16.1352 13.9281C16.5577 13.9281 17.1915 13.9281 17.7197 13.9281L18.0366 11.446Z" fill="white"/>
</g>
</svg>
