<svg width="103" height="23" viewBox="0 0 103 23" fill="none" xmlns="http://www.w3.org/2000/svg">
<mask id="mask0" mask-type="alpha" maskUnits="userSpaceOnUse" x="0" y="0" width="103" height="23">
<path d="M99.1 0H3.8C1.7 0 0 1.69999 0 3.79999V19.2C0 21.3 1.7 23 3.8 23H99.1C101.2 23 102.9 21.3 102.9 19.2V3.79999C102.8 1.69999 101.1 0 99.1 0Z" fill="#50ABF1"/>
</mask>
<g mask="url(#mask0)">
<rect width="103" height="23" fill="#0274B3"/>
<rect width="103" height="23" fill="#E1E7EC"/>
<rect width="103" height="23" fill="#CB1F24"/>
<rect width="103" height="23" fill="#3A559F"/>
<path d="M34.3 11.7L36.1 12.3C35.8 13.3 35.4 14 34.8 14.5C34.2 15 33.4 15.2 32.4 15.2C31.2 15.2 30.2 14.8 29.5 14C28.8 13.2 28.4 12.1 28.4 10.7C28.4 9.20001 28.8 8.00001 29.6 7.20001C30.4 6.40001 31.4 6 32.6 6C33.7 6 34.6 6.3 35.3 7C35.7 7.4 36 7.90001 36.2 8.70001L34.4 9.10001C34.3 8.60001 34.1 8.3 33.7 8C33.4 7.7 33 7.60001 32.5 7.60001C31.8 7.60001 31.3 7.80002 30.9 8.30002C30.5 8.80002 30.3 9.50001 30.3 10.6C30.3 11.7 30.5 12.5 30.9 13C31.3 13.5 31.8 13.7 32.5 13.7C33 13.7 33.4 13.5 33.7 13.2C34 12.9 34.2 12.4 34.3 11.7Z" fill="white"/>
<path d="M37.2 11.7C37.2 11.1 37.3 10.6 37.6 10C37.9 9.5 38.3 9.10002 38.8 8.80002C39.3 8.50002 39.9 8.40002 40.5 8.40002C41.5 8.40002 42.3 8.70002 42.9 9.40002C43.5 10 43.8 10.8 43.8 11.8C43.8 12.8 43.5 13.6 42.8 14.2C42.2 14.8 41.4 15.2 40.4 15.2C39.8 15.2 39.2 15.1 38.7 14.8C38.2 14.5 37.7 14.1 37.5 13.6C37.4 13.1 37.2 12.4 37.2 11.7ZM39 11.8C39 12.4 39.2 12.9 39.5 13.3C39.8 13.7 40.2 13.8 40.6 13.8C41 13.8 41.4 13.6 41.7 13.3C42 13 42.2 12.5 42.2 11.8C42.2 11.2 42 10.7 41.7 10.3C41.4 10 41 9.80002 40.6 9.80002C40.2 9.80002 39.8 10 39.5 10.3C39.2 10.6 39 11.1 39 11.8Z" fill="white"/>
<path d="M45.2 8.5H46.8V9.40002C47.4 8.70002 48 8.40002 48.8 8.40002C49.2 8.40002 49.6 8.50001 49.9 8.70001C50.2 8.90001 50.5 9.1 50.7 9.5C51 9.2 51.3 8.90001 51.6 8.70001C51.9 8.50001 52.3 8.40002 52.7 8.40002C53.2 8.40002 53.6 8.50001 53.9 8.70001C54.2 8.90001 54.5 9.20001 54.6 9.60001C54.7 9.90001 54.8 10.3 54.8 10.9V15.1H53.1V11.4C53.1 10.8 53 10.3 52.9 10.2C52.7 10 52.5 9.80002 52.2 9.80002C52 9.80002 51.7 9.9 51.5 10C51.3 10.1 51.1 10.4 51 10.6C50.9 10.8 50.9 11.3 50.9 11.9V15H49.2V11.4C49.2 10.8 49.2 10.4 49.1 10.2C49 10 48.9 9.90002 48.8 9.80002C48.7 9.70002 48.5 9.70001 48.3 9.70001C48 9.70001 47.8 9.80002 47.6 9.90002C47.4 10 47.2 10.2 47.1 10.5C47 10.8 47 11.2 47 11.8V15H45.3V8.5H45.2Z" fill="white"/>
<path d="M56.4 8.5H58V9.5C58.2 9.2 58.5 8.90001 58.8 8.70001C59.2 8.50001 59.5 8.40002 60 8.40002C60.8 8.40002 61.4 8.70002 61.9 9.30002C62.4 9.90002 62.7 10.7 62.7 11.8C62.7 12.9 62.4 13.7 61.9 14.3C61.4 14.9 60.7 15.2 60 15.2C59.6 15.2 59.3 15.1 59 15C58.7 14.9 58.4 14.6 58.1 14.3V17.6H56.4V8.5ZM58.1 11.7C58.1 12.4 58.2 13 58.5 13.3C58.8 13.6 59.1 13.8 59.6 13.8C60 13.8 60.3 13.6 60.6 13.3C60.9 13 61 12.5 61 11.7C61 11 60.9 10.5 60.6 10.2C60.3 9.90001 60 9.70001 59.6 9.70001C59.2 9.70001 58.8 9.90001 58.6 10.2C58.4 10.5 58.1 11 58.1 11.7Z" fill="white"/>
<path d="M65.4 10.5L63.8 10.2C64 9.60004 64.3 9.10005 64.7 8.80005C65.1 8.50005 65.8 8.30005 66.6 8.30005C67.4 8.30005 67.9 8.40004 68.3 8.60004C68.7 8.80004 68.9 9.00005 69.1 9.30005C69.3 9.60005 69.3 10.1 69.3 10.8V12.8C69.3 13.4 69.3 13.8 69.4 14.1C69.5 14.4 69.6 14.7 69.7 15H68C68 14.9 67.9 14.7 67.8 14.5C67.8 14.4 67.8 14.3 67.7 14.3C67.4 14.6 67.1 14.8001 66.8 14.9001C66.5 15.0001 66.1 15.1 65.7 15.1C65 15.1 64.5 14.9 64.1 14.6C63.7 14.2 63.5 13.8 63.5 13.2C63.5 12.8 63.6 12.5 63.8 12.2C64 11.9 64.2 11.7 64.5 11.5C64.8 11.3 65.3 11.2 65.9 11.1C66.7 10.9 67.3 10.8 67.6 10.7V10.5C67.6 10.2 67.5 9.90005 67.4 9.80005C67.3 9.70005 66.9 9.60004 66.5 9.60004C66.2 9.60004 66 9.70005 65.8 9.80005C65.6 10 65.5 10.2 65.4 10.5ZM67.7 11.9001C67.5 12.0001 67.1 12.1 66.7 12.2C66.2 12.3 65.9 12.4 65.8 12.5C65.6 12.7 65.5 12.9 65.5 13.1C65.5 13.3 65.6 13.5 65.8 13.7C66 13.9 66.2 14 66.5 14C66.8 14 67.1 13.9 67.4 13.7C67.6 13.5 67.7 13.4 67.8 13.1C67.8 13 67.9 12.7 67.9 12.3V11.9001H67.7Z" fill="white"/>
<path d="M72.7 15H71V8.50003H72.6V9.40005C72.9 9.00005 73.1 8.70003 73.3 8.50003C73.5 8.30003 73.8 8.30005 74 8.30005C74.4 8.30005 74.8 8.40004 75.1 8.60004L74.6 10.1C74.3 9.90004 74 9.80005 73.8 9.80005C73.6 9.80005 73.4 9.90003 73.2 10C73 10.1 72.9 10.4 72.8 10.7C72.7 11 72.7 11.8001 72.7 12.9001V15Z" fill="white"/>
<path d="M78.9 8.5V9.90002H77.7V12.5C77.7 13 77.7 13.3 77.7 13.4C77.7 13.5 77.8 13.6 77.9 13.6C78 13.7 78.1 13.7 78.2 13.7C78.4 13.7 78.6 13.6 78.9 13.5L79 14.8C78.6 15 78.1 15.1 77.6 15.1C77.3 15.1 77 15 76.8 14.9C76.6 14.8 76.4 14.7 76.3 14.5C76.2 14.3 76.1 14.1 76.1 13.8C76.1 13.6 76 13.2 76 12.6V9.80002H75.2V8.40002H76V7.20001L77.7 6.20001V8.5H78.9Z" fill="white"/>
<path d="M83.8 13L85.5 13.3C85.3 13.9 84.9 14.4 84.5 14.7C84 15 83.4 15.2 82.7 15.2C81.6 15.2 80.7 14.8 80.2 14.1C79.8 13.5 79.6 12.8 79.6 11.9C79.6 10.8 79.9 10 80.4 9.40002C80.9 8.80002 81.7 8.5 82.5 8.5C83.5 8.5 84.2 8.8 84.8 9.5C85.4 10.1 85.6 11.1 85.6 12.4H81.3C81.3 12.9 81.5 13.3 81.7 13.6C82 13.9 82.3 14 82.7 14C83 14 83.2 13.9 83.4 13.8C83.6 13.5 83.7 13.3 83.8 13ZM83.9 11.2C83.9 10.7 83.8 10.3 83.5 10.1C83.2 9.90001 83 9.70001 82.6 9.70001C82.2 9.70001 81.9 9.80001 81.7 10.1C81.5 10.4 81.3 10.7 81.3 11.2H83.9Z" fill="white"/>
<path d="M87 7.69998V6.09998H88.7V7.69998H87ZM87 15V8.49997H88.7V15H87Z" fill="white"/>
<path d="M89.7 15L92 11.7L89.8 8.59998H91.9L93 10.4L94.2 8.59998H96.2L94 11.7L96.4 15.1H94.3L93 13.1L91.7 15.1H89.7V15Z" fill="white"/>
<path d="M18.0366 11.446C17.5084 11.446 16.4521 11.446 15.9239 11.446C15.9239 11.1223 15.9239 10.0432 15.9239 9.71943C15.9239 9.61151 15.9239 9.50357 15.9239 9.28774C15.9239 9.07192 16.0295 8.96404 16.2408 8.85613C16.3464 8.85613 16.4521 8.74817 16.6633 8.74817C16.9802 8.74817 18.0366 8.74817 18.3535 8.74817C18.3535 8.74817 18.3535 8.74817 18.4591 8.74817C18.4591 8.10069 18.4591 7.34533 18.4591 6.69785C17.7197 6.69785 16.6633 6.69785 15.9239 6.69785C15.607 6.69785 15.2901 6.80574 15.0788 6.80574C14.5507 7.02156 14.1282 7.34533 13.9169 7.77699C13.8113 8.10073 13.7056 8.53236 13.7056 8.96402C13.7056 9.39567 13.7056 10.7986 13.7056 11.2302C13.7056 11.2302 13.7056 11.2302 13.7056 11.3381C13.3887 11.3381 11.3817 11.3381 11.0648 11.3381C11.0648 11.9856 11.0648 13.2806 11.0648 13.9281C11.3817 13.9281 13.3887 13.9281 13.7056 13.9281C13.7056 15.5468 13.7056 17.3813 13.7056 19H8.21265C7.05068 19 6.09998 18.0288 6.09998 16.8417V6.15828C6.09998 4.97123 7.05068 4 8.21265 4H18.9873C20.1493 4 21.1 4.97123 21.1 6.15828V16.8417C21.1 18.0288 20.1493 19 18.9873 19H16.0296C16.0296 17.3813 16.0296 15.5468 16.0296 13.9281C16.0296 13.9281 16.0295 13.9281 16.1352 13.9281C16.5577 13.9281 17.1915 13.9281 17.7197 13.9281L18.0366 11.446Z" fill="white"/>
</g>
</svg>
