<svg width="69" height="23" viewBox="0 0 69 23" fill="none" xmlns="http://www.w3.org/2000/svg">
<mask id="mask0" mask-type="alpha" maskUnits="userSpaceOnUse" x="0" y="0" width="69" height="23">
<path d="M65.1 0H3.8C1.7 0 0 1.69993 0 3.79993V19.2C0 21.3 1.7 23 3.8 23H65.1C67.2 23 68.9 21.3 68.9 19.2V3.79993C68.8 1.69993 67.1 0 65.1 0Z" fill="#50ABF1"/>
</mask>
<g mask="url(#mask0)">
<rect width="69" height="23" fill="#0274B3"/>
<rect width="69" height="23" fill="#E1E7EC"/>
<rect width="69" height="23" fill="#CB1F24"/>
<rect width="69" height="23" fill="#3A559F"/>
<path d="M28.2 13.3L30 13.1001C30.1 13.7001 30.3 14.1 30.6 14.4C30.9 14.7 31.4 14.8 31.9 14.8C32.5 14.8 32.9 14.7 33.2 14.4C33.5 14.2 33.6 13.9 33.6 13.5C33.6 13.3 33.5 13.1 33.4 13C33.3 12.9 33.1 12.7001 32.7 12.6001C32.5 12.5001 32 12.4001 31.3 12.2001C30.3 12.0001 29.6 11.7 29.3 11.3C28.7 10.8 28.5 10.2 28.5 9.5C28.5 9 28.6 8.60007 28.9 8.20007C29.2 7.80007 29.5 7.50005 30 7.30005C30.5 7.10005 31.1 7 31.8 7C32.9 7 33.8 7.20007 34.3 7.70007C34.9 8.20007 35.2 8.90007 35.2 9.70007L33.4 9.80005C33.3 9.30005 33.2 9.00005 32.9 8.80005C32.6 8.60005 32.3 8.5 31.8 8.5C31.3 8.5 30.9 8.60005 30.6 8.80005C30.4 8.90005 30.3 9.10002 30.3 9.40002C30.3 9.60002 30.4 9.80002 30.6 9.90002C30.8 10.1 31.4 10.3 32.3 10.5C33.2 10.7 33.8 10.9001 34.3 11.1001C34.7 11.3001 35.1 11.6 35.3 12C35.5 12.4 35.7 12.9 35.7 13.4C35.7 13.9 35.6 14.4 35.3 14.8C35 15.2 34.6 15.6 34.1 15.8C33.6 16 32.9 16.1001 32.1 16.1001C31 16.1001 30.1 15.8 29.5 15.3C28.6 15.1 28.3 14.3 28.2 13.3Z" fill="white"/>
<path d="M42.9 16.2001H41.3V15.2001C41 15.6001 40.7 15.8 40.4 16C40 16.2 39.7 16.3 39.3 16.3C38.6 16.3 37.9 16 37.4 15.4C36.9 14.8 36.6 14 36.6 12.9C36.6 11.8 36.9 11 37.4 10.4C37.9 9.80002 38.6 9.5 39.4 9.5C40.1 9.5 40.8 9.80002 41.3 10.4V7.20007H43V16.2001H42.9ZM38.3 12.8C38.3 13.5 38.4 14 38.6 14.3C38.9 14.7 39.3 15 39.8 15C40.2 15 40.5 14.8 40.8 14.5C41.1 14.2 41.2 13.7 41.2 13C41.2 12.3 41.1 11.7 40.8 11.4C40.5 11.1 40.2 10.9 39.8 10.9C39.4 10.9 39.1 11.1 38.8 11.4C38.5 11.7 38.3 12.2 38.3 12.8Z" fill="white"/>
<path d="M44.5 8.90002L45.3 7.1001H47.2L45.5 8.90002H44.5ZM44.6 16.2001V9.70007H46.3V16.2001H44.6Z" fill="white"/>
<path d="M48.1 16.2001V7.20007H49.8V16.2001H48.1Z" fill="white"/>
<path d="M55.3 14.1001L57 14.4C56.8 15 56.4 15.5 56 15.8C55.6 16.1 54.9 16.3 54.2 16.3C53.1 16.3 52.2 15.9001 51.7 15.2001C51.3 14.6001 51.1 13.9 51.1 13C51.1 11.9 51.4 11.1 51.9 10.5C52.5 9.9 53.2 9.6001 54 9.6001C55 9.6001 55.7 9.9001 56.3 10.6001C56.9 11.2001 57.1 12.2 57.1 13.5H52.8C52.8 14 53 14.4001 53.2 14.7001C53.5 15.0001 53.8 15.1001 54.2 15.1001C54.5 15.1001 54.7 15 54.9 14.9C55.1 14.7 55.2 14.5001 55.3 14.1001ZM55.4 12.4C55.4 11.9 55.3 11.5 55 11.3C54.8 11 54.5 10.9 54.1 10.9C53.7 10.9 53.4 11 53.2 11.3C53 11.6 52.8 11.9 52.8 12.4H55.4Z" fill="white"/>
<path d="M61.5 9.70007V11.1001H60.3V13.7001C60.3 14.2001 60.3 14.5001 60.3 14.6001C60.3 14.7001 60.4 14.8 60.5 14.8C60.6 14.9 60.7 14.9 60.8 14.9C61 14.9 61.2 14.8001 61.5 14.7001L61.6 16C61.2 16.2 60.7 16.3 60.2 16.3C59.9 16.3 59.6 16.2001 59.4 16.1001C59.2 16.0001 59 15.9001 58.9 15.7001C58.8 15.5001 58.7 15.3 58.7 15C58.7 14.8 58.6 14.4 58.6 13.8V11H57.8V9.6001H58.6V8.30005L60.3 7.30005V9.6001H61.5V9.70007Z" fill="white"/>
<path d="M18.0366 11.446C17.5084 11.446 16.4521 11.446 15.9239 11.446C15.9239 11.1223 15.9239 10.0432 15.9239 9.71943C15.9239 9.61151 15.9239 9.50357 15.9239 9.28774C15.9239 9.07192 16.0295 8.96404 16.2408 8.85613C16.3464 8.85613 16.4521 8.74817 16.6633 8.74817C16.9802 8.74817 18.0366 8.74817 18.3535 8.74817C18.3535 8.74817 18.3535 8.74817 18.4591 8.74817C18.4591 8.10069 18.4591 7.34533 18.4591 6.69785C17.7197 6.69785 16.6633 6.69785 15.9239 6.69785C15.607 6.69785 15.2901 6.80574 15.0788 6.80574C14.5507 7.02156 14.1282 7.34533 13.9169 7.77699C13.8113 8.10073 13.7056 8.53236 13.7056 8.96402C13.7056 9.39567 13.7056 10.7986 13.7056 11.2302C13.7056 11.2302 13.7056 11.2302 13.7056 11.3381C13.3887 11.3381 11.3817 11.3381 11.0648 11.3381C11.0648 11.9856 11.0648 13.2806 11.0648 13.9281C11.3817 13.9281 13.3887 13.9281 13.7056 13.9281C13.7056 15.5468 13.7056 17.3813 13.7056 19H8.21265C7.05068 19 6.09998 18.0288 6.09998 16.8417V6.15828C6.09998 4.97123 7.05068 4 8.21265 4H18.9873C20.1493 4 21.1 4.97123 21.1 6.15828V16.8417C21.1 18.0288 20.1493 19 18.9873 19H16.0296C16.0296 17.3813 16.0296 15.5468 16.0296 13.9281C16.0296 13.9281 16.0295 13.9281 16.1352 13.9281C16.5577 13.9281 17.1915 13.9281 17.7197 13.9281L18.0366 11.446Z" fill="white"/>
</g>
</svg>
