<svg width="81" height="23" viewBox="0 0 81 23" fill="none" xmlns="http://www.w3.org/2000/svg">
<mask id="mask0" mask-type="alpha" maskUnits="userSpaceOnUse" x="0" y="0" width="81" height="23">
<path d="M77.1 0H3.8C1.7 0 0 1.69999 0 3.79999V19.2C0 21.3 1.7 23 3.8 23H77.1C79.2 23 80.9 21.3 80.9 19.2V3.79999C80.8 1.69999 79.1 0 77.1 0Z" fill="#50ABF1"/>
</mask>
<g mask="url(#mask0)">
<rect width="81" height="23" fill="#0274B3"/>
<rect width="81" height="23" fill="#E1E7EC"/>
<rect width="81" height="23" fill="#CB1F24"/>
<rect width="81" height="23" fill="#3A559F"/>
<path d="M28.6 16V7H32.4C33.4 7 34.1 7.10001 34.5 7.20001C34.9 7.40001 35.3 7.60001 35.5 8.10001C35.7 8.60001 35.9 9 35.9 9.5C35.9 10.2 35.7 10.7 35.3 11.2C34.9 11.6 34.3 11.9 33.5 12C33.9 12.2 34.2 12.5 34.5 12.8C34.8 13.1 35.1 13.6 35.5 14.3L36.6 16H34.4L33.1 14C32.6 13.3 32.3 12.9 32.1 12.7C31.9 12.5 31.7 12.4 31.6 12.3C31.4 12.2 31.1 12.2 30.7 12.2H30.3V15.9H28.6V16ZM30.4 10.8H31.7C32.6 10.8 33.1 10.8 33.3 10.7C33.5 10.6 33.7 10.5 33.8 10.3C33.9 10.1 34 9.90001 34 9.60001C34 9.30001 33.9 9.09999 33.8 8.89999C33.6 8.69999 33.4 8.6 33.1 8.5C33 8.5 32.5 8.5 31.8 8.5H30.4V10.8Z" fill="white"/>
<path d="M39.4 7V10.3C40 9.70002 40.6 9.30002 41.4 9.30002C41.8 9.30002 42.2 9.4 42.5 9.5C42.8 9.6 43.1 9.80001 43.2 10.1C43.4 10.3 43.5 10.6 43.5 10.9C43.6 11.2 43.6 11.6 43.6 12.2V16H41.9V12.6C41.9 11.9 41.9 11.5 41.8 11.3C41.7 11.1 41.6 11 41.5 10.9C41.4 10.8 41.1 10.7 40.9 10.7C40.6 10.7 40.4 10.8 40.1 10.9C39.8 11 39.7 11.2 39.6 11.5C39.5 11.8 39.4 12.2 39.4 12.7V16H37.7V7H39.4Z" fill="white"/>
<path d="M46.6 11.5L45 11.2C45.2 10.6 45.5 10.1 45.9 9.80005C46.3 9.50005 47 9.30005 47.8 9.30005C48.6 9.30005 49.1 9.40004 49.5 9.60004C49.9 9.80004 50.1 10 50.3 10.3C50.5 10.6 50.5 11.1 50.5 11.8V13.8C50.5 14.4 50.5 14.8 50.6 15.1C50.7 15.4 50.8 15.7 50.9 16H49.2C49.2 15.9 49.1 15.7 49 15.5C49 15.4 49 15.3 48.9 15.3C48.6 15.6 48.3 15.8 48 15.9C47.7 16 47.3 16.1 46.9 16.1C46.2 16.1 45.7 15.9 45.3 15.6C44.9 15.2 44.7 14.8 44.7 14.2C44.7 13.8 44.8 13.5 45 13.2C45.2 12.9 45.4 12.7 45.7 12.5C46 12.3 46.5 12.2 47.1 12.1C47.9 11.9 48.5 11.8 48.8 11.7V11.5C48.8 11.2 48.7 10.9 48.6 10.8C48.5 10.7 48.1 10.6 47.7 10.6C47.4 10.6 47.2 10.7 47 10.8C46.8 10.9 46.7 11.2 46.6 11.5ZM48.9 12.9C48.7 13 48.3 13.1 47.9 13.2C47.4 13.3 47.1 13.4 47 13.5C46.8 13.7 46.7 13.9 46.7 14.1C46.7 14.3 46.8 14.5 47 14.7C47.2 14.9 47.4 15 47.7 15C48 15 48.3 14.9 48.6 14.7C48.8 14.5 48.9 14.4 49 14.1C49 14 49.1 13.7 49.1 13.3V12.9H48.9Z" fill="white"/>
<path d="M58.2 16H56.5V12.7C56.5 12 56.5 11.5 56.4 11.3C56.3 11.1 56.2 10.9 56 10.8C55.8 10.7 55.6 10.6 55.4 10.6C55.1 10.6 54.8 10.7 54.6 10.8C54.4 10.9 54.2 11.2 54.1 11.4C54 11.7 54 12.2 54 12.9V15.8H52.3V9.30002H53.9V10.3C54.5 9.60002 55.2 9.20001 56 9.20001C56.4 9.20001 56.7 9.29999 57 9.39999C57.3 9.49999 57.6 9.69999 57.7 9.89999C57.8 10.1 58 10.4 58 10.6C58.1 10.9 58.1 11.3 58.1 11.8V16H58.2Z" fill="white"/>
<path d="M65.8 16H64.1V12.7C64.1 12 64.1 11.5 64 11.3C63.9 11.1 63.8 10.9 63.6 10.8C63.4 10.7 63.2 10.6 63 10.6C62.7 10.6 62.4 10.7 62.2 10.8C62 10.9 61.8 11.2 61.7 11.4C61.6 11.7 61.6 12.2 61.6 12.9V15.8H59.9V9.30002H61.5V10.3C62.1 9.60002 62.8 9.20001 63.6 9.20001C64 9.20001 64.3 9.29999 64.6 9.39999C64.9 9.49999 65.2 9.69999 65.3 9.89999C65.4 10.1 65.6 10.4 65.6 10.6C65.7 10.9 65.7 11.3 65.7 11.8V16H65.8Z" fill="white"/>
<path d="M71.8 16V15C71.6 15.3 71.3 15.6 70.9 15.8C70.5 16 70.1 16.1 69.7 16.1C69.3 16.1 68.9 16 68.5 15.8C68.2 15.6 67.9 15.3 67.7 15C67.5 14.7 67.5 14.2 67.5 13.6V9.5H69.2V12.5C69.2 13.4 69.2 14 69.3 14.2C69.4 14.4 69.5 14.6 69.6 14.7C69.8 14.8 70 14.9 70.2 14.9C70.5 14.9 70.8 14.8 71 14.7C71.2 14.5 71.4 14.3 71.5 14.1C71.6 13.9 71.6 13.3 71.6 12.3V9.60001H73.3V16.1H71.8V16Z" fill="white"/>
<path d="M18.0366 11.446C17.5084 11.446 16.4521 11.446 15.9239 11.446C15.9239 11.1223 15.9239 10.0432 15.9239 9.71943C15.9239 9.61151 15.9239 9.50357 15.9239 9.28774C15.9239 9.07192 16.0295 8.96404 16.2408 8.85613C16.3464 8.85613 16.4521 8.74817 16.6633 8.74817C16.9802 8.74817 18.0366 8.74817 18.3535 8.74817C18.3535 8.74817 18.3535 8.74817 18.4591 8.74817C18.4591 8.10069 18.4591 7.34533 18.4591 6.69785C17.7197 6.69785 16.6633 6.69785 15.9239 6.69785C15.607 6.69785 15.2901 6.80574 15.0788 6.80574C14.5507 7.02156 14.1282 7.34533 13.9169 7.77699C13.8113 8.10073 13.7056 8.53236 13.7056 8.96402C13.7056 9.39567 13.7056 10.7986 13.7056 11.2302C13.7056 11.2302 13.7056 11.2302 13.7056 11.3381C13.3887 11.3381 11.3817 11.3381 11.0648 11.3381C11.0648 11.9856 11.0648 13.2806 11.0648 13.9281C11.3817 13.9281 13.3887 13.9281 13.7056 13.9281C13.7056 15.5468 13.7056 17.3813 13.7056 19H8.21265C7.05068 19 6.09998 18.0288 6.09998 16.8417V6.15828C6.09998 4.97123 7.05068 4 8.21265 4H18.9873C20.1493 4 21.1 4.97123 21.1 6.15828V16.8417C21.1 18.0288 20.1493 19 18.9873 19H16.0296C16.0296 17.3813 16.0296 15.5468 16.0296 13.9281C16.0296 13.9281 16.0295 13.9281 16.1352 13.9281C16.5577 13.9281 17.1915 13.9281 17.7197 13.9281L18.0366 11.446Z" fill="white"/>
</g>
</svg>
