<svg width="53" height="23" viewBox="0 0 53 23" fill="none" xmlns="http://www.w3.org/2000/svg">
<mask id="mask0" mask-type="alpha" maskUnits="userSpaceOnUse" x="0" y="0" width="53" height="23">
<path d="M49.1 0H3.8C1.7 0 0 1.69999 0 3.79999V19.2C0 21.3 1.7 23 3.8 23H49.1C51.2 23 52.9 21.3 52.9 19.2V3.79999C52.8 1.69999 51.1 0 49.1 0Z" fill="#50ABF1"/>
</mask>
<g mask="url(#mask0)">
<rect width="53" height="23" fill="#0274B3"/>
<rect width="53" height="23" fill="#E1E7EC"/>
<rect width="53" height="23" fill="#CB1F24"/>
<rect width="53" height="23" fill="#3A559F"/>
<path d="M28.6 7H31.9C32.6 7 33.2 7.10001 33.6 7.20001C34.1 7.40001 34.6 7.6 35 8C35.4 8.4 35.7 8.9 35.9 9.5C36.1 10.1 36.2 10.8 36.2 11.6C36.2 12.3 36.1 13 35.9 13.5C35.7 14.2 35.4 14.7 34.9 15.1C34.6 15.4 34.2 15.6 33.6 15.8C33.2 15.9 32.7 16 32 16H28.6V7ZM30.4 8.5V14.4H31.8C32.3 14.4 32.7 14.4 32.9 14.3C33.2 14.2 33.4 14.1 33.6 13.9C33.8 13.7 34 13.4 34.1 13C34.2 12.6 34.3 12.1 34.3 11.4C34.3 10.7 34.2 10.2 34.1 9.80002C34 9.40002 33.8 9.09999 33.6 8.89999C33.4 8.69999 33.1 8.6 32.8 8.5C32.5 8.4 32.1 8.39999 31.3 8.39999H30.4V8.5Z" fill="white"/>
<path d="M41.4 13.9L43.1 14.2C42.9 14.8 42.5 15.3 42.1 15.6C41.7 15.9 41 16.1 40.3 16.1C39.2 16.1 38.3 15.7 37.8 15C37.4 14.4 37.2 13.7 37.2 12.8C37.2 11.7 37.5 10.9 38 10.3C38.6 9.70005 39.3 9.40002 40.1 9.40002C41.1 9.40002 41.8 9.70002 42.4 10.4C43 11 43.2 12 43.2 13.3H38.9C38.9 13.8 39.1 14.2 39.3 14.5C39.6 14.8 39.9 14.9 40.3 14.9C40.6 14.9 40.8 14.8 41 14.7C41.2 14.5 41.3 14.2 41.4 13.9ZM41.5 12.2C41.5 11.7 41.4 11.3 41.1 11.1C40.9 10.8 40.6 10.7 40.2 10.7C39.8 10.7 39.5 10.8 39.3 11.1C39.1 11.4 38.9 11.7 38.9 12.2H41.5Z" fill="white"/>
<path d="M44.6 16V7H46.3V16H44.6Z" fill="white"/>
<path d="M18.0366 11.446C17.5084 11.446 16.4521 11.446 15.9239 11.446C15.9239 11.1223 15.9239 10.0432 15.9239 9.71943C15.9239 9.61151 15.9239 9.50357 15.9239 9.28774C15.9239 9.07192 16.0295 8.96404 16.2408 8.85613C16.3464 8.85613 16.4521 8.74817 16.6633 8.74817C16.9802 8.74817 18.0366 8.74817 18.3535 8.74817C18.3535 8.74817 18.3535 8.74817 18.4591 8.74817C18.4591 8.10069 18.4591 7.34533 18.4591 6.69785C17.7197 6.69785 16.6633 6.69785 15.9239 6.69785C15.607 6.69785 15.2901 6.80574 15.0788 6.80574C14.5507 7.02156 14.1282 7.34533 13.9169 7.77699C13.8113 8.10073 13.7056 8.53236 13.7056 8.96402C13.7056 9.39567 13.7056 10.7986 13.7056 11.2302C13.7056 11.2302 13.7056 11.2302 13.7056 11.3381C13.3887 11.3381 11.3817 11.3381 11.0648 11.3381C11.0648 11.9856 11.0648 13.2806 11.0648 13.9281C11.3817 13.9281 13.3887 13.9281 13.7056 13.9281C13.7056 15.5468 13.7056 17.3813 13.7056 19H8.21265C7.05068 19 6.09998 18.0288 6.09998 16.8417V6.15828C6.09998 4.97123 7.05068 4 8.21265 4H18.9873C20.1493 4 21.1 4.97123 21.1 6.15828V16.8417C21.1 18.0288 20.1493 19 18.9873 19H16.0296C16.0296 17.3813 16.0296 15.5468 16.0296 13.9281C16.0296 13.9281 16.0295 13.9281 16.1352 13.9281C16.5577 13.9281 17.1915 13.9281 17.7197 13.9281L18.0366 11.446Z" fill="white"/>
</g>
</svg>
