<svg width="68" height="23" viewBox="0 0 68 23" fill="none" xmlns="http://www.w3.org/2000/svg">
<mask id="mask0" mask-type="alpha" maskUnits="userSpaceOnUse" x="0" y="0" width="68" height="23">
<path d="M64.1 0H3.80002C1.70002 0 0 1.70002 0 3.80002V19.2C0 21.3 1.70002 23 3.80002 23H64.1C66.2 23 67.9 21.3 67.9 19.2V3.80002C67.8 1.70002 66.1 0 64.1 0Z" fill="#50ABF1"/>
</mask>
<g mask="url(#mask0)">
<rect width="68" height="23" fill="#0274B3"/>
<rect width="68" height="23" fill="#E1E7EC"/>
<rect width="68" height="23" fill="#CB1F24"/>
<rect width="68" height="23" fill="#3A559F"/>
<path d="M30 16V8.60001H27.3V7.10001H34.4V8.60001H31.7V16H30Z" fill="white"/>
<path d="M38.5 14L40.2 14.3C40 14.9 39.6 15.4 39.2 15.7C38.8 16 38.1 16.2 37.4 16.2C36.3 16.2 35.4 15.8 34.9 15.1C34.5 14.5 34.3 13.8 34.3 12.9C34.3 11.8 34.6 11 35.1 10.4C35.7 9.79999 36.4 9.5 37.2 9.5C38.2 9.5 38.9 9.8 39.5 10.5C40.1 11.1 40.3 12.1 40.3 13.4H36C36 13.9 36.2 14.3 36.4 14.6C36.7 14.9 37 15 37.4 15C37.7 15 37.9 14.9 38.1 14.8C38.2 14.5 38.4 14.3 38.5 14ZM38.6 12.2C38.6 11.7 38.5 11.3 38.2 11.1C37.9 10.9 37.7 10.7 37.3 10.7C36.9 10.7 36.6 10.8 36.4 11.1C36.2 11.4 36 11.7 36 12.2H38.6Z" fill="white"/>
<path d="M41.7 8.70001V7.10001H43.4V8.70001H41.7ZM41.7 16V9.5H43.4V16H41.7Z" fill="white"/>
<path d="M45.2 16V7H46.9V16H45.2Z" fill="white"/>
<path d="M52.4 14L54.1 14.3C53.9 14.9 53.5 15.4 53.1 15.7C52.7 16 52 16.2 51.3 16.2C50.2 16.2 49.3 15.8 48.8 15.1C48.4 14.5 48.2 13.8 48.2 12.9C48.2 11.8 48.5 11 49 10.4C49.6 9.79999 50.3 9.5 51.1 9.5C52.1 9.5 52.8 9.8 53.4 10.5C54 11.1 54.2 12.1 54.2 13.4H49.9C49.9 13.9 50.1 14.3 50.3 14.6C50.6 14.9 50.9 15 51.3 15C51.6 15 51.8 14.9 52 14.8C52.2 14.5 52.3 14.3 52.4 14ZM52.5 12.2C52.5 11.7 52.4 11.3 52.1 11.1C51.8 10.9 51.6 10.7 51.2 10.7C50.8 10.7 50.5 10.8 50.3 11.1C50.1 11.4 49.9 11.7 49.9 12.2H52.5Z" fill="white"/>
<path d="M61.5 16H59.8V12.7C59.8 12 59.8 11.5 59.7 11.3C59.6 11.1 59.5 10.9 59.3 10.8C59.1 10.7 58.9 10.6 58.7 10.6C58.4 10.6 58.1 10.7 57.9 10.8C57.7 10.9 57.5 11.2 57.4 11.4C57.3 11.7 57.3 12.2 57.3 12.9V15.8H55.6V9.30002H57.2V10.3C57.8 9.60002 58.5 9.20001 59.3 9.20001C59.7 9.20001 60 9.29999 60.3 9.39999C60.6 9.49999 60.9 9.69999 61 9.89999C61.1 10.1 61.3 10.4 61.3 10.6C61.4 10.9 61.4 11.3 61.4 11.8V16H61.5Z" fill="white"/>
<path d="M18.0366 11.446C17.5084 11.446 16.4521 11.446 15.9239 11.446C15.9239 11.1223 15.9239 10.0432 15.9239 9.71943C15.9239 9.61151 15.9239 9.50357 15.9239 9.28774C15.9239 9.07192 16.0295 8.96404 16.2408 8.85613C16.3464 8.85613 16.4521 8.74817 16.6633 8.74817C16.9802 8.74817 18.0366 8.74817 18.3535 8.74817C18.3535 8.74817 18.3535 8.74817 18.4591 8.74817C18.4591 8.10069 18.4591 7.34533 18.4591 6.69785C17.7197 6.69785 16.6633 6.69785 15.9239 6.69785C15.607 6.69785 15.2901 6.80574 15.0788 6.80574C14.5507 7.02156 14.1282 7.34533 13.9169 7.77699C13.8113 8.10073 13.7056 8.53236 13.7056 8.96402C13.7056 9.39567 13.7056 10.7986 13.7056 11.2302C13.7056 11.2302 13.7056 11.2302 13.7056 11.3381C13.3887 11.3381 11.3817 11.3381 11.0648 11.3381C11.0648 11.9856 11.0648 13.2806 11.0648 13.9281C11.3817 13.9281 13.3887 13.9281 13.7056 13.9281C13.7056 15.5468 13.7056 17.3813 13.7056 19H8.21265C7.05068 19 6.09998 18.0288 6.09998 16.8417V6.15828C6.09998 4.97123 7.05068 4 8.21265 4H18.9873C20.1493 4 21.1 4.97123 21.1 6.15828V16.8417C21.1 18.0288 20.1493 19 18.9873 19H16.0296C16.0296 17.3813 16.0296 15.5468 16.0296 13.9281C16.0296 13.9281 16.0295 13.9281 16.1352 13.9281C16.5577 13.9281 17.1915 13.9281 17.7197 13.9281L18.0366 11.446Z" fill="white"/>
</g>
</svg>
