<svg width="111" height="23" viewBox="0 0 111 23" fill="none" xmlns="http://www.w3.org/2000/svg">
<mask id="mask0" mask-type="alpha" maskUnits="userSpaceOnUse" x="0" y="0" width="111" height="23">
<path d="M107.1 0H3.80002C1.70002 0 0 1.70002 0 3.80002V19.2C0 21.3 1.70002 23 3.80002 23H107.1C109.2 23 110.9 21.3 110.9 19.2V3.80002C110.8 1.70002 109.1 0 107.1 0Z" fill="#50ABF1"/>
</mask>
<g mask="url(#mask0)">
<rect width="111" height="23" fill="#0274B3"/>
<rect width="111" height="23" fill="#E1E7EC"/>
<rect width="111" height="23" fill="#CB1F24"/>
<rect width="111" height="23" fill="#3A559F"/>
<path d="M28 15.1V6.10001H29.8V10.1L33.5 6.10001H35.9L32.5 9.60001L36.1 15.1H33.8L31.3 10.9L29.8 12.4V15.1H28Z" fill="white"/>
<path d="M36.3 11.8C36.3 11.2 36.4 10.7 36.7 10.1C37 9.60001 37.4 9.20002 37.9 8.90002C38.4 8.60002 39 8.5 39.6 8.5C40.6 8.5 41.4 8.8 42 9.5C42.6 10.1 42.9 10.9 42.9 11.9C42.9 12.9 42.6 13.7 41.9 14.3C41.3 14.9 40.5 15.3 39.5 15.3C38.9 15.3 38.3 15.2 37.8 14.9C37.3 14.6 36.8 14.2 36.6 13.7C36.5 13.2 36.3 12.5 36.3 11.8ZM38.1 11.9C38.1 12.5 38.3 13 38.6 13.4C38.9 13.8 39.3 13.9 39.7 13.9C40.1 13.9 40.5 13.7 40.8 13.4C41.1 13.1 41.3 12.6 41.3 11.9C41.3 11.3 41.1 10.8 40.8 10.4C40.5 10.1 40.1 9.90002 39.7 9.90002C39.3 9.90002 38.9 10.1 38.6 10.4C38.3 10.7 38.1 11.2 38.1 11.9Z" fill="white"/>
<path d="M44.4 15.1V8.60001H46.1V15.1H44.4Z" fill="white"/>
<path d="M49.7 15.1L47.1 8.60001H48.9L50.1 11.9L50.5 13C50.6 12.7 50.7 12.5 50.7 12.4C50.8 12.2 50.8 12 50.9 11.9L52.1 8.60001H53.9L51.3 15.1H49.7Z" fill="white"/>
<path d="M54.4 11.8C54.4 11.2 54.5 10.7 54.8 10.1C55.1 9.60001 55.5 9.20002 56 8.90002C56.5 8.60002 57.1 8.5 57.7 8.5C58.7 8.5 59.5 8.8 60.1 9.5C60.7 10.1 61 10.9 61 11.9C61 12.9 60.7 13.7 60 14.3C59.4 14.9 58.6 15.3 57.6 15.3C57 15.3 56.4 15.2 55.9 14.9C55.4 14.6 54.9 14.2 54.7 13.7C54.6 13.2 54.4 12.5 54.4 11.8ZM56.2 11.9C56.2 12.5 56.4 13 56.7 13.4C57 13.8 57.4 13.9 57.8 13.9C58.2 13.9 58.6 13.7 58.9 13.4C59.2 13.1 59.4 12.6 59.4 11.9C59.4 11.3 59.2 10.8 58.9 10.4C58.6 10.1 58.2 9.90002 57.8 9.90002C57.4 9.90002 57 10.1 56.7 10.4C56.4 10.7 56.2 11.2 56.2 11.9Z" fill="white"/>
<path d="M61.5 8.60001H70.5V10H68.8V15.1H67.1V10H65V15.1H63.3V10H61.6V8.60001H61.5Z" fill="white"/>
<path d="M71 11.8C71 11.2 71.1 10.7 71.4 10.1C71.7 9.60001 72.1 9.20002 72.6 8.90002C73.1 8.60002 73.7 8.5 74.3 8.5C75.3 8.5 76.1 8.8 76.7 9.5C77.3 10.1 77.6 10.9 77.6 11.9C77.6 12.9 77.3 13.7 76.6 14.3C76 14.9 75.2 15.3 74.2 15.3C73.6 15.3 73 15.2 72.5 14.9C72 14.6 71.5 14.2 71.3 13.7C71.1 13.2 71 12.5 71 11.8ZM72.7 11.9C72.7 12.5 72.9 13 73.2 13.4C73.5 13.8 73.9 13.9 74.3 13.9C74.7 13.9 75.1 13.7 75.4 13.4C75.7 13.1 75.9 12.6 75.9 11.9C75.9 11.3 75.7 10.8 75.4 10.4C75.1 10.1 74.7 9.90002 74.3 9.90002C73.9 9.90002 73.5 10.1 73.2 10.4C72.9 10.7 72.7 11.2 72.7 11.9Z" fill="white"/>
<path d="M78.9 7.80002L79.7 6H81.6L79.9 7.80002H78.9ZM79 15.1V8.60001H80.7V15.1H79Z" fill="white"/>
<path d="M88.4 17.6H86.7V11.8C86.7 11.2 86.7 10.8 86.6 10.6C86.6 10.4 86.4 10.2 86.3 10C86.1 9.9 85.9 9.80002 85.6 9.80002C85.3 9.80002 85 9.90001 84.8 10.1C84.6 10.3 84.4 10.5 84.3 10.8C84.2 11.1 84.2 11.6 84.2 12.2V15.1H82.5V8.60001H84.1V9.60001C84.7 8.90001 85.4 8.5 86.2 8.5C86.7 8.5 87.1 8.60002 87.5 8.80002C87.8 9.00002 88.1 9.30001 88.2 9.60001C88.3 9.90001 88.4 10.4 88.4 11.1V17.6Z" fill="white"/>
<path d="M97.5 8.60001V10H95.9C96.2 10.5 96.4 11.1 96.4 11.8C96.4 12.7 96.1 13.6 95.5 14.2C94.9 14.9 94.1 15.2 93.1 15.2C92.1 15.2 91.3 14.9 90.7 14.3C90.1 13.7 89.8 12.9 89.8 11.9C89.8 10.9 90.1 10.1 90.7 9.40002C91.3 8.80002 92.1 8.40002 93.2 8.40002C93.5 8.40002 93.9 8.4 94.3 8.5H97.5V8.60001ZM91.5 11.9C91.5 12.5 91.6 13 91.9 13.4C92.2 13.8 92.6 13.9 93 13.9C93.4 13.9 93.8 13.7 94.1 13.4C94.4 13.1 94.6 12.6 94.6 11.9C94.6 11.3 94.5 10.8 94.2 10.5C93.9 10.1 93.5 10 93.1 10C92.6 10 92.2 10.2 92 10.5C91.6 10.8 91.5 11.3 91.5 11.9Z" fill="white"/>
<path d="M104.6 17.6H102.9V11.8C102.9 11.2 102.9 10.8 102.8 10.6C102.8 10.4 102.6 10.2 102.5 10C102.3 9.9 102.1 9.80002 101.8 9.80002C101.5 9.80002 101.2 9.90001 101 10.1C100.8 10.3 100.6 10.5 100.5 10.8C100.4 11.1 100.4 11.6 100.4 12.2V15.1H98.7V8.60001H100.3V9.60001C100.9 8.90001 101.6 8.5 102.4 8.5C102.9 8.5 103.3 8.60002 103.7 8.80002C104 9.00002 104.3 9.30001 104.4 9.60001C104.5 9.90001 104.6 10.4 104.6 11.1V17.6Z" fill="white"/>
<path d="M18.0366 11.446C17.5084 11.446 16.4521 11.446 15.9239 11.446C15.9239 11.1223 15.9239 10.0432 15.9239 9.71943C15.9239 9.61151 15.9239 9.50357 15.9239 9.28774C15.9239 9.07192 16.0295 8.96404 16.2408 8.85613C16.3464 8.85613 16.4521 8.74817 16.6633 8.74817C16.9802 8.74817 18.0366 8.74817 18.3535 8.74817C18.3535 8.74817 18.3535 8.74817 18.4591 8.74817C18.4591 8.10069 18.4591 7.34533 18.4591 6.69785C17.7197 6.69785 16.6633 6.69785 15.9239 6.69785C15.607 6.69785 15.2901 6.80574 15.0788 6.80574C14.5507 7.02156 14.1282 7.34533 13.9169 7.77699C13.8113 8.10073 13.7056 8.53236 13.7056 8.96402C13.7056 9.39567 13.7056 10.7986 13.7056 11.2302C13.7056 11.2302 13.7056 11.2302 13.7056 11.3381C13.3887 11.3381 11.3817 11.3381 11.0648 11.3381C11.0648 11.9856 11.0648 13.2806 11.0648 13.9281C11.3817 13.9281 13.3887 13.9281 13.7056 13.9281C13.7056 15.5468 13.7056 17.3813 13.7056 19H8.21265C7.05068 19 6.09998 18.0288 6.09998 16.8417V6.15828C6.09998 4.97123 7.05068 4 8.21265 4H18.9873C20.1493 4 21.1 4.97123 21.1 6.15828V16.8417C21.1 18.0288 20.1493 19 18.9873 19H16.0296C16.0296 17.3813 16.0296 15.5468 16.0296 13.9281C16.0296 13.9281 16.0295 13.9281 16.1352 13.9281C16.5577 13.9281 17.1915 13.9281 17.7197 13.9281L18.0366 11.446Z" fill="white"/>
</g>
</svg>
