<svg width="68" height="23" viewBox="0 0 68 23" fill="none" xmlns="http://www.w3.org/2000/svg">
<mask id="mask0" mask-type="alpha" maskUnits="userSpaceOnUse" x="0" y="0" width="68" height="23">
<path d="M64.1 0H3.80002C1.70002 0 0 1.7 0 3.8V19.2C0 21.3 1.70002 23 3.80002 23H64.1C66.2 23 67.9 21.3 67.9 19.2V3.8C67.8 1.7 66.1 0 64.1 0Z" fill="#50ABF1"/>
</mask>
<g mask="url(#mask0)">
<rect width="68" height="23" fill="#0274B3"/>
<rect width="68" height="23" fill="#E1E7EC"/>
<rect width="68" height="23" fill="#CB1F24"/>
<rect width="68" height="23" fill="#3A559F"/>
<path d="M27.5 13.3L29.3 13.1C29.4 13.7 29.6 14.1 29.9 14.4C30.2 14.7 30.7 14.8 31.2 14.8C31.8 14.8 32.2 14.7 32.5 14.4C32.8 14.2 32.9 13.9 32.9 13.5C32.9 13.3 32.8 13.1 32.7 13C32.6 12.9 32.4 12.7 32 12.6C31.8 12.5 31.3 12.4 30.6 12.2C29.6 12 28.9 11.7 28.6 11.3C28 10.8 27.8 10.2 27.8 9.5C27.8 9 27.9 8.6 28.2 8.2C28.5 7.8 28.8 7.5 29.3 7.3C29.8 7.1 30.4 7 31.1 7C32.2 7 33.1 7.2 33.6 7.7C34.2 8.2 34.5 8.9 34.5 9.7L32.7 9.8C32.6 9.3 32.5 9 32.2 8.8C31.9 8.6 31.6 8.5 31.1 8.5C30.6 8.5 30.2 8.6 29.9 8.8C29.7 8.9 29.6 9.1 29.6 9.4C29.6 9.6 29.7 9.8 29.9 9.9C30.1 10.1 30.7 10.3 31.6 10.5C32.5 10.7 33.1 10.9 33.6 11.1C34.1 11.3 34.4 11.6 34.6 12C34.8 12.4 35 12.9 35 13.4C35 13.9 34.9 14.4 34.6 14.8C34.3 15.2 33.9 15.6 33.4 15.8C32.9 16 32.2 16.1 31.4 16.1C30.3 16.1 29.4 15.8 28.8 15.3C28 15.1 27.7 14.3 27.5 13.3Z" fill="white"/>
<path d="M38.1 7.30001V10.6C38.7 10 39.3 9.60001 40.1 9.60001C40.5 9.60001 40.9 9.70001 41.2 9.80001C41.5 9.90001 41.8 10.1 41.9 10.4C42.1 10.6 42.2 10.9 42.2 11.2C42.3 11.5 42.3 11.9 42.3 12.5V16.3H40.6V12.8C40.6 12.1 40.6 11.7 40.5 11.5C40.4 11.3 40.3 11.2 40.2 11.1C40.1 11 39.8 10.9 39.6 10.9C39.3 10.9 39.1 11 38.8 11.1C38.5 11.2 38.4 11.4 38.3 11.7C38.2 12 38.1 12.4 38.1 12.9V16.2H36.4V7.20001H38.1V7.30001Z" fill="white"/>
<path d="M45.3 11.7L43.7 11.4C43.9 10.8 44.2 10.3 44.6 10C45 9.7 45.7 9.5 46.5 9.5C47.3 9.5 47.8 9.6 48.2 9.8C48.6 10 48.8 10.2 49 10.5C49.2 10.8 49.2 11.3 49.2 12V14C49.2 14.6 49.2 15 49.3 15.3C49.4 15.6 49.5 15.9 49.6 16.2H47.9C47.9 16.1 47.8 15.9 47.7 15.7C47.7 15.6 47.7 15.5 47.6 15.5C47.3 15.8 47 16 46.7 16.1C46.4 16.2 46 16.3 45.6 16.3C44.9 16.3 44.4 16.1 44 15.8C43.6 15.5 43.4 15 43.4 14.4C43.4 14 43.5 13.7 43.7 13.4C43.9 13.1 44.1 12.9 44.4 12.7C44.7 12.5 45.2 12.4 45.8 12.3C46.6 12.1 47.2 12 47.5 11.9V11.8C47.5 11.5 47.4 11.2 47.3 11.1C47.2 11 46.8 10.9 46.4 10.9C46.1 10.9 45.9 11 45.7 11.1C45.5 11.2 45.4 11.4 45.3 11.7ZM47.6 13.1C47.4 13.2 47 13.3 46.6 13.4C46.1 13.5 45.8 13.6 45.7 13.7C45.5 13.9 45.4 14.1 45.4 14.3C45.4 14.5 45.5 14.7 45.7 14.9C45.9 15.1 46.1 15.2 46.4 15.2C46.7 15.2 47 15.1 47.3 14.9C47.5 14.7 47.6 14.6 47.7 14.3C47.7 14.2 47.8 13.9 47.8 13.5V13.1H47.6Z" fill="white"/>
<path d="M52.6 16.2H50.9V9.7H52.5V10.6C52.8 10.2 53 9.9 53.2 9.7C53.4 9.6 53.7 9.5 53.9 9.5C54.3 9.5 54.7 9.6 55 9.8L54.5 11.3C54.2 11.1 53.9 11 53.7 11C53.5 11 53.3 11.1 53.1 11.2C52.9 11.3 52.8 11.6 52.7 11.9C52.6 12.2 52.6 13 52.6 14.1V16.2Z" fill="white"/>
<path d="M59.6 14.2L61.3 14.5C61.1 15.1 60.7 15.6 60.3 15.9C59.9 16.2 59.2 16.4 58.5 16.4C57.4 16.4 56.5 16 56 15.3C55.6 14.7 55.4 14 55.4 13.1C55.4 12 55.7 11.2 56.2 10.6C56.8 10 57.5 9.70001 58.3 9.70001C59.3 9.70001 60 10 60.6 10.7C61.2 11.3 61.4 12.3 61.4 13.6H57.1C57.1 14.1 57.3 14.5 57.5 14.8C57.8 15.1 58.1 15.2 58.5 15.2C58.8 15.2 59 15.1 59.2 15C59.4 14.7 59.5 14.5 59.6 14.2ZM59.7 12.4C59.7 11.9 59.6 11.5 59.3 11.3C59 11.1 58.8 10.9 58.4 10.9C58 10.9 57.7 11 57.5 11.3C57.3 11.6 57.1 11.9 57.1 12.4H59.7Z" fill="white"/>
<path d="M18.0366 11.446C17.5084 11.446 16.4521 11.446 15.9239 11.446C15.9239 11.1223 15.9239 10.0432 15.9239 9.71943C15.9239 9.61151 15.9239 9.50357 15.9239 9.28774C15.9239 9.07192 16.0295 8.96404 16.2408 8.85613C16.3464 8.85613 16.4521 8.74817 16.6633 8.74817C16.9802 8.74817 18.0366 8.74817 18.3535 8.74817C18.3535 8.74817 18.3535 8.74817 18.4591 8.74817C18.4591 8.10069 18.4591 7.34533 18.4591 6.69785C17.7197 6.69785 16.6633 6.69785 15.9239 6.69785C15.607 6.69785 15.2901 6.80574 15.0788 6.80574C14.5507 7.02156 14.1282 7.34533 13.9169 7.77699C13.8113 8.10073 13.7056 8.53236 13.7056 8.96402C13.7056 9.39567 13.7056 10.7986 13.7056 11.2302C13.7056 11.2302 13.7056 11.2302 13.7056 11.3381C13.3887 11.3381 11.3817 11.3381 11.0648 11.3381C11.0648 11.9856 11.0648 13.2806 11.0648 13.9281C11.3817 13.9281 13.3887 13.9281 13.7056 13.9281C13.7056 15.5468 13.7056 17.3813 13.7056 19H8.21265C7.05068 19 6.09998 18.0288 6.09998 16.8417V6.15828C6.09998 4.97123 7.05068 4 8.21265 4H18.9873C20.1493 4 21.1 4.97123 21.1 6.15828V16.8417C21.1 18.0288 20.1493 19 18.9873 19H16.0296C16.0296 17.3813 16.0296 15.5468 16.0296 13.9281C16.0296 13.9281 16.0295 13.9281 16.1352 13.9281C16.5577 13.9281 17.1915 13.9281 17.7197 13.9281L18.0366 11.446Z" fill="white"/>
</g>
</svg>
