<svg width="72" height="23" viewBox="0 0 72 23" fill="none" xmlns="http://www.w3.org/2000/svg">
<mask id="mask0" mask-type="alpha" maskUnits="userSpaceOnUse" x="0" y="0" width="72" height="23">
<path d="M68.1 0H3.8C1.7 0 0 1.69999 0 3.79999V19.2C0 21.3 1.7 23 3.8 23H68.1C70.2 23 71.9 21.3 71.9 19.2V3.79999C71.8 1.69999 70.1 0 68.1 0Z" fill="#50ABF1"/>
</mask>
<g mask="url(#mask0)">
<rect width="72" height="23" fill="#0274B3"/>
<rect width="72" height="23" fill="#E1E7EC"/>
<rect width="72" height="23" fill="#CB1F24"/>
<rect width="72" height="23" fill="#3A559F"/>
<path d="M28.6 15V6H30.4V10L34.1 6H36.5L33.1 9.5L36.7 15H34.4L31.9 10.8L30.4 12.3V15H28.6Z" fill="white"/>
<path d="M37.2 11.6C37.2 11 37.3 10.5001 37.6 9.90005C37.9 9.40005 38.3 9.00004 38.8 8.70004C39.3 8.40004 39.9 8.30005 40.5 8.30005C41.5 8.30005 42.3 8.60005 42.9 9.30005C43.5 9.90005 43.8 10.7 43.8 11.7C43.8 12.7 43.5 13.5 42.8 14.1C42.2 14.7 41.4 15.1 40.4 15.1C39.8 15.1 39.2 15 38.7 14.7C38.2 14.4 37.7 14 37.5 13.5C37.3 13 37.2 12.4 37.2 11.6ZM39 11.7C39 12.3 39.2 12.8 39.5 13.2C39.8 13.5 40.2 13.7 40.6 13.7C41 13.7 41.4 13.5 41.7 13.2C42 12.9 42.2 12.4 42.2 11.7C42.2 11.1 42 10.6 41.7 10.2C41.4 9.90004 41 9.70004 40.6 9.70004C40.2 9.70004 39.8 9.90004 39.5 10.2C39.2 10.5 39 11.1 39 11.7Z" fill="white"/>
<path d="M51.2 15H49.5V11.7C49.5 11 49.5 10.5 49.4 10.3C49.3 10.1 49.2 9.90002 49 9.80002C48.8 9.70002 48.6 9.60001 48.4 9.60001C48.1 9.60001 47.8 9.70002 47.6 9.80002C47.4 9.90002 47.2 10.2 47.1 10.4C47 10.7 47 11.2 47 11.9V14.8H45.3V8.30002H46.9V9.30002C47.5 8.60002 48.2 8.20001 49 8.20001C49.4 8.20001 49.7 8.30002 50 8.40002C50.3 8.50002 50.6 8.70002 50.7 8.90002C50.8 9.10002 51 9.40001 51 9.60001C51.1 9.90001 51.1 10.3 51.1 10.8V15H51.2Z" fill="white"/>
<path d="M52.9 7.60001V6H54.6V7.60001H52.9ZM52.9 15V8.5H54.6V15H52.9Z" fill="white"/>
<path d="M56.3 15.4L58.3 15.6C58.3 15.8 58.4 16 58.5 16.1C58.7 16.2 58.9 16.3 59.3 16.3C59.7 16.3 60.1 16.2 60.3 16.1C60.5 16 60.6 15.9 60.6 15.7C60.7 15.6 60.7 15.3 60.7 14.9V14C60.2 14.7 59.5 15.1 58.8 15.1C57.9 15.1 57.2 14.7 56.7 14C56.3 13.4 56.1 12.7 56.1 11.8C56.1 10.7 56.4 9.90002 56.9 9.30002C57.4 8.70002 58.1 8.40002 58.9 8.40002C59.7 8.40002 60.4 8.8 60.9 9.5V8.60001H62.5V14.4C62.5 15.2 62.4 15.7 62.3 16.1C62.2 16.5 62 16.8 61.8 17C61.6 17.2 61.3 17.4 60.9 17.5C60.5 17.6 60 17.7 59.5 17.7C58.4 17.7 57.6 17.5 57.2 17.1C56.7 16.7 56.5 16.2 56.5 15.7C56.2 15.5 56.3 15.5 56.3 15.4ZM57.8 11.6C57.8 12.3 57.9 12.8 58.2 13.1C58.5 13.4 58.8 13.6 59.2 13.6C59.6 13.6 60 13.4 60.3 13.1C60.6 12.8 60.7 12.3 60.7 11.6C60.7 10.9 60.6 10.4 60.3 10.1C60 9.80001 59.7 9.60001 59.2 9.60001C58.8 9.60001 58.4 9.80001 58.2 10.1C57.9 10.4 57.8 10.9 57.8 11.6Z" fill="white"/>
<path d="M64.1 7.60001V6H65.8V7.60001H64.1ZM64.1 15V8.5H65.8V15H64.1Z" fill="white"/>
<path d="M18.0366 11.446C17.5084 11.446 16.4521 11.446 15.9239 11.446C15.9239 11.1223 15.9239 10.0432 15.9239 9.71943C15.9239 9.61151 15.9239 9.50357 15.9239 9.28774C15.9239 9.07192 16.0295 8.96404 16.2408 8.85613C16.3464 8.85613 16.4521 8.74817 16.6633 8.74817C16.9802 8.74817 18.0366 8.74817 18.3535 8.74817C18.3535 8.74817 18.3535 8.74817 18.4591 8.74817C18.4591 8.10069 18.4591 7.34533 18.4591 6.69785C17.7197 6.69785 16.6633 6.69785 15.9239 6.69785C15.607 6.69785 15.2901 6.80574 15.0788 6.80574C14.5507 7.02156 14.1282 7.34533 13.9169 7.77699C13.8113 8.10073 13.7056 8.53236 13.7056 8.96402C13.7056 9.39567 13.7056 10.7986 13.7056 11.2302C13.7056 11.2302 13.7056 11.2302 13.7056 11.3381C13.3887 11.3381 11.3817 11.3381 11.0648 11.3381C11.0648 11.9856 11.0648 13.2806 11.0648 13.9281C11.3817 13.9281 13.3887 13.9281 13.7056 13.9281C13.7056 15.5468 13.7056 17.3813 13.7056 19H8.21265C7.05068 19 6.09998 18.0288 6.09998 16.8417V6.15828C6.09998 4.97123 7.05068 4 8.21265 4H18.9873C20.1493 4 21.1 4.97123 21.1 6.15828V16.8417C21.1 18.0288 20.1493 19 18.9873 19H16.0296C16.0296 17.3813 16.0296 15.5468 16.0296 13.9281C16.0296 13.9281 16.0295 13.9281 16.1352 13.9281C16.5577 13.9281 17.1915 13.9281 17.7197 13.9281L18.0366 11.446Z" fill="white"/>
</g>
</svg>
