<svg width="62" height="23" viewBox="0 0 62 23" fill="none" xmlns="http://www.w3.org/2000/svg">
<mask id="mask0" mask-type="alpha" maskUnits="userSpaceOnUse" x="0" y="0" width="62" height="23">
<path d="M58.1 0H3.8C1.7 0 0 1.69999 0 3.79999V19.2C0 21.3 1.7 23 3.8 23H58.1C60.2 23 61.9 21.3 61.9 19.2V3.79999C61.8 1.69999 60.1 0 58.1 0Z" fill="#50ABF1"/>
</mask>
<g mask="url(#mask0)">
<rect width="62" height="23" fill="#0274B3"/>
<rect width="62" height="23" fill="#E1E7EC"/>
<rect width="62" height="23" fill="#CB1F24"/>
<rect width="62" height="23" fill="#3A559F"/>
<path d="M31.8 5H33.6V10.7C33.6 11.4 33.5 12 33.4 12.4C33.2 12.9 32.9 13.3 32.4 13.7C31.9 14 31.3 14.2 30.6 14.2C29.7 14.2 29 14 28.6 13.5C28.2 13 27.9 12.3 27.9 11.3L29.6 11.1C29.6 11.6 29.7 12 29.8 12.2C30 12.5 30.3 12.7 30.7 12.7C31.1 12.7 31.4 12.6 31.6 12.4C31.8 12.2 31.9 11.7 31.9 11V5H31.8Z" fill="white"/>
<path d="M36.8 9.40002L35.2 9.10001C35.4 8.50001 35.7 8.00001 36.1 7.70001C36.5 7.40001 37.2 7.20001 38 7.20001C38.8 7.20001 39.3 7.3 39.7 7.5C40.1 7.7 40.3 7.90001 40.5 8.20001C40.7 8.50001 40.7 9.00001 40.7 9.70001V11.7C40.7 12.3 40.7 12.7 40.8 13C40.9 13.3 41 13.6 41.1 13.9H39.4C39.4 13.8 39.3 13.6 39.2 13.4C39.2 13.3 39.2 13.2 39.1 13.2C38.8 13.5 38.5 13.7 38.2 13.8C37.9 13.9 37.5 14 37.1 14C36.4 14 35.9 13.8 35.5 13.5C35.1 13.1 34.9 12.7 34.9 12.1C34.9 11.7 35 11.4 35.2 11.1C35.4 10.8 35.6 10.6 35.9 10.4C36.2 10.2 36.7 10.1 37.3 10C38.1 9.8 38.7 9.70001 39 9.60001V9.40002C39 9.10002 38.9 8.80001 38.8 8.70001C38.6 8.60001 38.3 8.5 37.9 8.5C37.6 8.5 37.4 8.60001 37.2 8.70001C37.1 8.90001 37 9.10002 36.8 9.40002ZM39.1 10.8C38.9 10.9 38.5 11 38.1 11.1C37.6 11.2 37.3 11.3 37.2 11.4C37 11.6 36.9 11.8 36.9 12C36.9 12.2 37 12.4 37.2 12.6C37.4 12.8 37.6 12.9 37.9 12.9C38.2 12.9 38.5 12.8 38.8 12.6C39 12.4 39.1 12.3 39.2 12C39.2 11.9 39.3 11.6 39.3 11.2V10.8H39.1Z" fill="white"/>
<path d="M42.4 14.4L44.4 14.6C44.4 14.8 44.5 15 44.6 15.1C44.8 15.2 45 15.3 45.4 15.3C45.8 15.3 46.2 15.2 46.4 15.1C46.6 15 46.7 14.9 46.7 14.7C46.8 14.6 46.8 14.3 46.8 13.9V13C46.3 13.7 45.6 14.1 44.9 14.1C44 14.1 43.3 13.7 42.8 13C42.4 12.4 42.2 11.7 42.2 10.8C42.2 9.70002 42.5 8.90002 43 8.30002C43.5 7.70002 44.2 7.40002 45 7.40002C45.8 7.40002 46.5 7.8 47 8.5V7.60001H48.6V13.4C48.6 14.2 48.5 14.7 48.4 15.1C48.3 15.5 48.1 15.8 47.9 16C47.7 16.2 47.4 16.4 47 16.5C46.6 16.6 46.1 16.7 45.6 16.7C44.5 16.7 43.7 16.5 43.3 16.1C42.9 15.7 42.6 15.2 42.6 14.7C42.4 14.5 42.4 14.5 42.4 14.4ZM43.9 10.6C43.9 11.3 44 11.8 44.3 12.1C44.6 12.4 44.9 12.6 45.3 12.6C45.7 12.6 46.1 12.4 46.4 12.1C46.7 11.8 46.8 11.3 46.8 10.6C46.8 9.90001 46.7 9.40001 46.4 9.10001C46.1 8.80001 45.8 8.60001 45.3 8.60001C44.9 8.60001 44.5 8.80001 44.3 9.10001C44 9.40001 43.9 9.90001 43.9 10.6Z" fill="white"/>
<path d="M51.5 9.40002L49.9 9.10001C50.1 8.50001 50.4 8.00001 50.8 7.70001C51.2 7.40001 51.9 7.20001 52.7 7.20001C53.5 7.20001 54 7.3 54.4 7.5C54.8 7.7 55 7.90001 55.2 8.20001C55.4 8.50001 55.4 9.00001 55.4 9.70001V11.7C55.4 12.3 55.4 12.7 55.5 13C55.6 13.3 55.7 13.6 55.8 13.9H54.1C54.1 13.8 54 13.6 53.9 13.4C53.9 13.3 53.9 13.2 53.8 13.2C53.5 13.5 53.2 13.7 52.9 13.8C52.6 13.9 52.2 14 51.8 14C51.1 14 50.6 13.8 50.2 13.5C49.8 13.1 49.6 12.7 49.6 12.1C49.6 11.7 49.7 11.4 49.9 11.1C50.1 10.8 50.3 10.6 50.6 10.4C50.9 10.2 51.4 10.1 52 10C52.8 9.8 53.4 9.70001 53.7 9.60001V9.40002C53.7 9.10002 53.6 8.80001 53.5 8.70001C53.3 8.60001 53 8.5 52.6 8.5C52.3 8.5 52.1 8.60001 51.9 8.70001C51.7 8.80001 51.6 9.10002 51.5 9.40002ZM53.8 10.8C53.6 10.9 53.2 11 52.8 11.1C52.3 11.2 52 11.3 51.9 11.4C51.7 11.6 51.6 11.8 51.6 12C51.6 12.2 51.7 12.4 51.9 12.6C52.1 12.8 52.3 12.9 52.6 12.9C52.9 12.9 53.2 12.8 53.5 12.6C53.7 12.4 53.8 12.3 53.9 12C53.9 11.9 54 11.6 54 11.2V10.8H53.8Z" fill="white"/>
<path d="M18.0366 11.446C17.5084 11.446 16.4521 11.446 15.9239 11.446C15.9239 11.1223 15.9239 10.0432 15.9239 9.71943C15.9239 9.61151 15.9239 9.50357 15.9239 9.28774C15.9239 9.07192 16.0295 8.96404 16.2408 8.85613C16.3464 8.85613 16.4521 8.74817 16.6633 8.74817C16.9802 8.74817 18.0366 8.74817 18.3535 8.74817C18.3535 8.74817 18.3535 8.74817 18.4591 8.74817C18.4591 8.10069 18.4591 7.34533 18.4591 6.69785C17.7197 6.69785 16.6633 6.69785 15.9239 6.69785C15.607 6.69785 15.2901 6.80574 15.0788 6.80574C14.5507 7.02156 14.1282 7.34533 13.9169 7.77699C13.8113 8.10073 13.7056 8.53236 13.7056 8.96402C13.7056 9.39567 13.7056 10.7986 13.7056 11.2302C13.7056 11.2302 13.7056 11.2302 13.7056 11.3381C13.3887 11.3381 11.3817 11.3381 11.0648 11.3381C11.0648 11.9856 11.0648 13.2806 11.0648 13.9281C11.3817 13.9281 13.3887 13.9281 13.7056 13.9281C13.7056 15.5468 13.7056 17.3813 13.7056 19H8.21265C7.05068 19 6.09998 18.0288 6.09998 16.8417V6.15828C6.09998 4.97123 7.05068 4 8.21265 4H18.9873C20.1493 4 21.1 4.97123 21.1 6.15828V16.8417C21.1 18.0288 20.1493 19 18.9873 19H16.0296C16.0296 17.3813 16.0296 15.5468 16.0296 13.9281C16.0296 13.9281 16.0295 13.9281 16.1352 13.9281C16.5577 13.9281 17.1915 13.9281 17.7197 13.9281L18.0366 11.446Z" fill="white"/>
</g>
</svg>
