<svg width="91" height="23" viewBox="0 0 91 23" fill="none" xmlns="http://www.w3.org/2000/svg">
<mask id="mask0" mask-type="alpha" maskUnits="userSpaceOnUse" x="0" y="0" width="91" height="23">
<path d="M87.1 0H3.8C1.7 0 0 1.69999 0 3.79999V19.2C0 21.3 1.7 23 3.8 23H87.1C89.2 23 90.9 21.3 90.9 19.2V3.79999C90.8 1.69999 89.1 0 87.1 0Z" fill="#50ABF1"/>
</mask>
<g mask="url(#mask0)">
<rect width="91" height="23" fill="#0274B3"/>
<rect width="91" height="23" fill="#E1E7EC"/>
<rect width="91" height="23" fill="#CB1F24"/>
<rect width="91" height="23" fill="#3A559F"/>
<path d="M28.6 16V7H31.5C32.6 7 33.3 7.00001 33.7 7.10001C34.2 7.20001 34.6 7.5 35 8C35.3 8.5 35.5 9.00001 35.5 9.70001C35.5 10.3 35.4 10.7 35.2 11.1C35 11.5 34.7 11.8 34.4 12C34.1 12.2 33.8 12.4 33.5 12.4C33.1 12.5 32.4 12.5 31.6 12.5H30.4V15.9H28.6V16ZM30.4 8.5V11H31.4C32.1 11 32.6 11 32.8 10.9C33 10.8 33.2 10.7 33.4 10.5C33.5 10.3 33.6 10.1 33.6 9.80002C33.6 9.50002 33.5 9.2 33.3 9C33.1 8.8 32.9 8.70001 32.6 8.60001C32.4 8.60001 31.9 8.5 31.3 8.5H30.4Z" fill="white"/>
<path d="M38.2 11.5L36.6 11.2C36.8 10.6 37.1 10.1 37.5 9.80005C37.9 9.50005 38.6 9.30005 39.4 9.30005C40.2 9.30005 40.7 9.40004 41.1 9.60004C41.5 9.80004 41.7 10 41.9 10.3C42.1 10.6 42.1 11.1 42.1 11.8V13.8C42.1 14.4 42.1 14.8 42.2 15.1C42.3 15.4 42.4 15.7 42.5 16H40.8C40.8 15.9 40.7 15.7 40.6 15.5C40.6 15.4 40.6 15.3 40.5 15.3C40.2 15.6 39.9 15.8 39.6 15.9C39.3 16 38.9 16.1 38.5 16.1C37.8 16.1 37.3 15.9 36.9 15.6C36.5 15.2 36.3 14.8 36.3 14.2C36.3 13.8 36.4 13.5 36.6 13.2C36.8 12.9 37 12.7 37.3 12.5C37.6 12.3 38.1 12.2 38.7 12.1C39.5 11.9 40.1 11.8 40.4 11.7V11.6C40.4 11.3 40.3 11 40.2 10.9C40 10.8 39.7 10.7 39.3 10.7C39 10.7 38.8 10.8 38.6 10.9C38.5 10.9 38.3 11.2 38.2 11.5ZM40.5 12.9C40.3 13 39.9 13.1 39.5 13.2C39 13.3 38.7 13.4 38.6 13.5C38.4 13.7 38.3 13.9 38.3 14.1C38.3 14.3 38.4 14.5 38.6 14.7C38.8 14.9 39 15 39.3 15C39.6 15 39.9 14.9 40.2 14.7C40.4 14.5 40.5 14.4 40.6 14.1C40.6 14 40.7 13.7 40.7 13.3V12.9H40.5Z" fill="white"/>
<path d="M45.6 16H43.9V9.50003H45.5V10.4C45.8 10 46 9.70003 46.2 9.50003C46.4 9.40003 46.7 9.30005 46.9 9.30005C47.3 9.30005 47.7 9.40004 48 9.60004L47.5 11.1C47.2 10.9 46.9 10.8 46.7 10.8C46.5 10.8 46.3 10.9 46.1 11C45.9 11.1 45.8 11.4 45.7 11.7C45.6 12 45.6 12.8 45.6 13.9V16Z" fill="white"/>
<path d="M51.8 9.49997V10.9H50.6V13.5C50.6 14 50.6 14.3 50.6 14.4C50.6 14.5 50.7 14.6 50.8 14.6C50.9 14.7 51 14.7 51.1 14.7C51.3 14.7 51.5 14.6 51.8 14.5L51.9 15.8C51.5 16 51 16.1 50.5 16.1C50.2 16.1 49.9 16 49.7 15.9C49.5 15.8 49.3 15.7 49.2 15.5C49.1 15.3 49 15.1 49 14.8C49 14.6 48.9 14.2 48.9 13.6V10.8H48.1V9.39996H48.9V8.09998L50.6 7.09998V9.39996H51.8V9.49997Z" fill="white"/>
<path d="M56.7 13.9L58.4 14.2C58.2 14.8 57.8 15.3 57.4 15.6C56.9 15.9 56.3 16.1 55.6 16.1C54.5 16.1 53.6 15.7 53.1 15C52.7 14.4 52.5 13.7 52.5 12.8C52.5 11.7 52.8 10.9 53.3 10.3C53.9 9.70005 54.6 9.40002 55.4 9.40002C56.4 9.40002 57.1 9.70002 57.7 10.4C58.3 11 58.5 12 58.5 13.3H54.2C54.2 13.8 54.4 14.2 54.6 14.5C54.9 14.8 55.2 14.9 55.6 14.9C55.9 14.9 56.1 14.8 56.3 14.7C56.5 14.5 56.6 14.2 56.7 13.9ZM56.8 12.2C56.8 11.7 56.7 11.3 56.4 11.1C56.1 10.9 55.9 10.7 55.5 10.7C55.1 10.7 54.8 10.8 54.6 11.1C54.4 11.4 54.2 11.7 54.2 12.2H56.8Z" fill="white"/>
<path d="M59.9 16V7H61.6V11.8L63.6 9.5H65.7L63.5 11.9L65.9 16H64L62.4 13.1L61.6 13.9V16H59.9Z" fill="white"/>
<path d="M68.2 11.5L66.6 11.2C66.8 10.6 67.1 10.1 67.5 9.80005C67.9 9.50005 68.6 9.30005 69.4 9.30005C70.2 9.30005 70.7 9.40004 71.1 9.60004C71.5 9.80004 71.7 10 71.9 10.3C72.1 10.6 72.1 11.1 72.1 11.8V13.8C72.1 14.4 72.1 14.8 72.2 15.1C72.3 15.4 72.4 15.7 72.5 16H70.8C70.8 15.9 70.7 15.7 70.6 15.5C70.6 15.4 70.6 15.3 70.5 15.3C70.2 15.6 69.9 15.8 69.6 15.9C69.3 16 68.9 16.1 68.5 16.1C67.8 16.1 67.3 15.9 66.9 15.6C66.5 15.2 66.3 14.8 66.3 14.2C66.3 13.8 66.4 13.5 66.6 13.2C66.8 12.9 67 12.7 67.3 12.5C67.6 12.3 68.1 12.2 68.7 12.1C69.5 11.9 70.1 11.8 70.4 11.7V11.6C70.4 11.3 70.3 11 70.2 10.9C70 10.8 69.7 10.7 69.3 10.7C69 10.7 68.8 10.8 68.6 10.9C68.4 10.9 68.3 11.2 68.2 11.5ZM70.5 12.9C70.3 13 69.9 13.1 69.5 13.2C69 13.3 68.7 13.4 68.6 13.5C68.4 13.7 68.3 13.9 68.3 14.1C68.3 14.3 68.4 14.5 68.6 14.7C68.8 14.9 69 15 69.3 15C69.6 15 69.9 14.9 70.2 14.7C70.4 14.5 70.5 14.4 70.6 14.1C70.6 14 70.7 13.7 70.7 13.3V12.9H70.5Z" fill="white"/>
<path d="M76.8 9.49997V10.9H75.6V13.5C75.6 14 75.6 14.3 75.6 14.4C75.6 14.5 75.7 14.6 75.8 14.6C75.9 14.7 76 14.7 76.1 14.7C76.3 14.7 76.5 14.6 76.8 14.5L76.9 15.8C76.5 16 76 16.1 75.5 16.1C75.2 16.1 74.9 16 74.7 15.9C74.5 15.8 74.3 15.7 74.2 15.5C74.1 15.3 74 15.1 74 14.8C74 14.6 73.9 14.2 73.9 13.6V10.8H73.1V9.39996H73.9V8.09998L75.6 7.09998V9.39996H76.8V9.49997Z" fill="white"/>
<path d="M82.3 16V15C82.1 15.3 81.8 15.6 81.4 15.8C81 16 80.6 16.1 80.2 16.1C79.8 16.1 79.4 16 79 15.8C78.7 15.6 78.4 15.3 78.2 15C78 14.7 78 14.2 78 13.6V9.5H79.7V12.5C79.7 13.4 79.7 14 79.8 14.2C79.9 14.4 80 14.6 80.1 14.7C80.3 14.8 80.5 14.9 80.7 14.9C81 14.9 81.3 14.8 81.5 14.7C81.7 14.5 81.9 14.3 82 14.1C82.1 13.9 82.1 13.3 82.1 12.3V9.60001H83.8V16.1H82.3V16Z" fill="white"/>
<path d="M18.0366 11.446C17.5084 11.446 16.4521 11.446 15.9239 11.446C15.9239 11.1223 15.9239 10.0432 15.9239 9.71943C15.9239 9.61151 15.9239 9.50357 15.9239 9.28774C15.9239 9.07192 16.0295 8.96404 16.2408 8.85613C16.3464 8.85613 16.4521 8.74817 16.6633 8.74817C16.9802 8.74817 18.0366 8.74817 18.3535 8.74817C18.3535 8.74817 18.3535 8.74817 18.4591 8.74817C18.4591 8.10069 18.4591 7.34533 18.4591 6.69785C17.7197 6.69785 16.6633 6.69785 15.9239 6.69785C15.607 6.69785 15.2901 6.80574 15.0788 6.80574C14.5507 7.02156 14.1282 7.34533 13.9169 7.77699C13.8113 8.10073 13.7056 8.53236 13.7056 8.96402C13.7056 9.39567 13.7056 10.7986 13.7056 11.2302C13.7056 11.2302 13.7056 11.2302 13.7056 11.3381C13.3887 11.3381 11.3817 11.3381 11.0648 11.3381C11.0648 11.9856 11.0648 13.2806 11.0648 13.9281C11.3817 13.9281 13.3887 13.9281 13.7056 13.9281C13.7056 15.5468 13.7056 17.3813 13.7056 19H8.21265C7.05068 19 6.09998 18.0288 6.09998 16.8417V6.15828C6.09998 4.97123 7.05068 4 8.21265 4H18.9873C20.1493 4 21.1 4.97123 21.1 6.15828V16.8417C21.1 18.0288 20.1493 19 18.9873 19H16.0296C16.0296 17.3813 16.0296 15.5468 16.0296 13.9281C16.0296 13.9281 16.0295 13.9281 16.1352 13.9281C16.5577 13.9281 17.1915 13.9281 17.7197 13.9281L18.0366 11.446Z" fill="white"/>
</g>
</svg>
