<svg width="93" height="23" viewBox="0 0 93 23" fill="none" xmlns="http://www.w3.org/2000/svg">
<mask id="mask0" mask-type="alpha" maskUnits="userSpaceOnUse" x="0" y="0" width="93" height="23">
<path d="M89.1 0H3.80002C1.70002 0 0 1.69999 0 3.79999V19.2C0 21.3 1.70002 23 3.80002 23H89.1C91.2 23 92.9 21.3 92.9 19.2V3.79999C92.8 1.69999 91.1 0 89.1 0Z" fill="#50ABF1"/>
</mask>
<g mask="url(#mask0)">
<rect width="93" height="23" fill="#0274B3"/>
<rect width="93" height="23" fill="#E1E7EC"/>
<rect width="93" height="23" fill="#CB1F24"/>
<rect width="93" height="23" fill="#3A559F"/>
<path d="M37.3 12.1C37.3 12.3 37.3 12.5 37.2 12.7C37.1 12.9 37.1 13 36.9 13.3C36.8 13 36.7 12.8 36.6 12.7C36.5 12.6 36.4 12.6 36.3 12.6C36.1 12.6 35.8 12.7 35.4 13C35 13.3 34.8 13.5 34.8 13.6C34.8 13.7 34.9 13.8 35 13.8C35.1 13.8 35.3 13.8 35.5 13.8C35.6 13.8 35.6 13.8 35.7 13.8C35.8 13.8 35.8 13.8 35.9 13.8C36.3 13.8 36.6 13.8 36.8 13.9C36.9 14 37 14.1 37 14.4C37 14.8 36.9 15.3 36.8 15.7C36.6 16.2 36.3 16.6 35.9 16.8C35.4 17.1 34.9 17.3 34.4 17.5C33.9 17.7 33.4 17.8 32.9 17.8C31.6 17.8 31 17.2 31 16.1C31 15.5 31.1 15 31.2 14.6C31.4 14.1 31.7 13.5 32.2 12.7L32.5 12.9C32.2 13.4 32 13.9 31.8 14.3C31.6 14.7 31.6 15 31.6 15.3C31.6 16.1 32 16.5 32.9 16.5C33.2 16.5 33.5 16.5 33.8 16.4C34.1 16.3 34.4 16.3 34.7 16.2C34.9 16.1 35.1 16 35.4 15.9C35.8 15.7 36 15.6 36 15.6C36.2 15.5 36.3 15.4 36.3 15.3C36.3 15.3 36.2 15.2 36 15.2C35.8 15.2 35.7 15.2 35.6 15.2C35 15.2 34.6 15.1 34.3 14.9C34.1 14.8 34 14.5 34 14.1C34 13.9 34.1 13.7 34.2 13.4C34.3 13.1 34.5 12.8 34.7 12.6C35 12.2 35.3 11.8 35.6 11.6C35.9 11.4 36.2 11.3 36.5 11.3C36.7 11.3 36.9 11.4 37.1 11.6C37.2 11.5 37.3 11.8 37.3 12.1Z" fill="white"/>
<path d="M43.6 15.2C43.6 15.4 43.5 15.8 43.2 16.2C42.9 16.6 42.6 17 42.2 17.3C41.8 17.6 41.4 17.8 41.1 17.8C40.7 17.8 40.4 17.7 39.9 17.5C39.5 17.3 39 17 38.2 16.4L38.5 16C38.9 16.2 39.2 16.4 39.4 16.5C39.6 16.6 39.9 16.6 40.1 16.6C40.4 16.6 40.7 16.5 40.9 16.4C41.1 16.3 41.6 15.9 42 15.5C42.7 14.9 43 14.4 43 14.1C43 13.9 42.9 13.7 42.8 13.5C42.7 13.2 42.5 12.9 42.3 12.7L42.6 11C42.9 11.3 43.1 11.6 43.2 12C43.4 12.4 43.4 12.8 43.4 13.3V15.2H43.6Z" fill="white"/>
<path d="M45.8 13.3C45.8 13.7 45.8 14 45.7 14.3C45.6 14.6 45.4 15 45.2 15.5L44.8 15.4C44.9 14.9 44.9 14.5 44.9 14.1C44.9 13.9 44.9 13.5 44.8 13C44.8 12.5 44.7 12 44.6 11.6C44.5 11.1 44.4 10.6 44.3 9.90002C44.3 9.70002 44.2 9.50002 44.2 9.40002C44.2 9.30002 44.3 9.10005 44.4 8.80005C44.5 8.50005 44.7 8.10001 44.9 7.70001L45.3 9.90002C45.4 10.7 45.5 11.4 45.6 12C45.8 12.4 45.8 12.8 45.8 13.3Z" fill="white"/>
<path d="M50.6 15H47.8C47.5 15 47.3 14.9 47.2 14.8C47 14.7 46.9 14.4 46.9 14.1C46.9 13.9 46.9 13.7 46.9 13.5C46.9 13.3 46.9 13.1 47 12.9H47.2C47.2 13 47.3 13.1 47.4 13.2C47.5 13.3 47.6 13.3 47.8 13.3H49.9C49.8 12.7 49.6 12.2 49.4 11.9C49.2 11.6 48.9 11.3 48.6 11.1L49 9.20001C49.5 9.60001 49.9 10.1 50.1 10.7C50.3 11.3 50.4 12 50.4 13V15H50.6ZM49.5 7L48.8 8.40002L47.4 7.70001L48.1 6.30005L49.5 7Z" fill="white"/>
<path d="M55.1 15H50.2V13.4H54.2C54 13.2 53.9 13 53.7 12.9C53.6 12.8 53.4 12.6 53.2 12.5C53 12.3 52.7 12.1 52.5 12L52.3 12.2C51.9 11.8 51.7 11.6 51.7 11.5C51.5 11.3 51.4 11 51.4 10.7C51.4 10.3 51.4 10 51.5 9.80005C51.6 9.60005 51.8 9.40001 52 9.20001C52.2 9.00001 52.5 8.90005 52.8 8.80005C53 8.70005 53.3 8.60002 53.6 8.40002C53.8 8.30002 54.1 8.2 54.6 8V9.5C54.6 9.5 54.4 9.60001 54.1 9.70001C53.7 9.80001 53.4 9.9 53.1 10C52.8 10.1 52.6 10.2 52.6 10.3C52.6 10.3 52.7 10.5 53 10.8C53.4 11.2 53.7 11.5 54 11.9C54.4 12.4 54.8 12.9 55.1 13.5V15ZM54.6 6V7.40002C53.7 7.70002 53 8.00005 52.3 8.30005C51.7 8.60005 51.2 8.80004 50.9 9.10004V8.20001C51 8.10001 51.3 7.90004 51.6 7.60004C52 7.30004 52.4 7.10005 52.9 6.80005C53.5 6.50005 54 6.2 54.6 6Z" fill="white"/>
<path d="M57.8 15C56.9 15 56.3 14.8 55.9 14.5C55.6 14.2 55.4 13.8 55.4 13.2C55.4 12.8 55.5 12.4 55.6 12.1C55.7 11.7 55.9 11.3 56.2 10.8L56.6 11.1C56.4 11.4 56.3 11.6 56.3 11.8C56.3 12 56.2 12.1 56.2 12.3C56.2 12.7 56.3 13 56.6 13.1C56.9 13.2 57.4 13.3 58.3 13.3H63.7C63.5 13.1 63.4 12.9 63.2 12.8C63.1 12.7 62.9 12.5 62.7 12.4C62.5 12.2 62.2 12 62 11.9L61.8 12.1C61.4 11.7 61.2 11.5 61.2 11.4C61 11.2 60.9 10.9 60.9 10.6C60.9 10.2 60.9 9.90001 61 9.70001C61.1 9.50001 61.3 9.30004 61.5 9.10004C61.7 8.90004 62 8.80001 62.3 8.70001C62.5 8.60001 62.8 8.50005 63.1 8.30005C63.3 8.20005 63.6 8.10002 64.1 7.90002V9.40002C64.1 9.40002 63.9 9.50004 63.6 9.60004C63.2 9.70004 62.9 9.80002 62.6 9.90002C62.3 10 62.1 10.1 62.1 10.2C62.1 10.2 62.2 10.4 62.5 10.7C62.9 11.1 63.2 11.4 63.5 11.8C63.9 12.3 64.3 12.8 64.6 13.4V15.1H57.8V15Z" fill="white"/>
<path d="M66.8 13.3C66.8 13.7 66.8 14 66.7 14.3C66.6 14.6 66.4 15 66.2 15.5L65.8 15.4C65.9 14.9 65.9 14.5 65.9 14.1C65.9 13.9 65.9 13.5 65.8 13C65.8 12.5 65.7 12 65.6 11.6C65.5 11.1 65.4 10.6 65.3 9.90002C65.3 9.70002 65.2 9.50002 65.2 9.40002C65.2 9.30002 65.3 9.10005 65.4 8.80005C65.5 8.50005 65.7 8.10001 65.9 7.70001L66.3 9.90002C66.4 10.7 66.5 11.4 66.6 12C66.8 12.4 66.8 12.8 66.8 13.3Z" fill="white"/>
<path d="M72.7 15.2C72.7 15.4 72.6 15.8 72.3 16.2C72 16.6 71.7 17 71.3 17.3C70.9 17.6 70.5 17.8 70.2 17.8C69.8 17.8 69.5 17.7 69 17.5C68.6 17.3 68.1 17 67.3 16.4L67.6 16C68 16.2 68.3 16.4 68.5 16.5C68.7 16.6 69 16.6 69.2 16.6C69.5 16.6 69.8 16.5 70 16.4C70.2 16.3 70.7 15.9 71.1 15.5C71.8 14.9 72.1 14.4 72.1 14.1C72.1 13.9 72 13.7 71.9 13.5C71.8 13.2 71.6 12.9 71.4 12.7L71.7 11C72 11.3 72.2 11.6 72.3 12C72.5 12.4 72.5 12.8 72.5 13.3V15.2H72.7Z" fill="white"/>
<path d="M76.1 15H72.3V13.4H75.5C75.5 13.1 75.4 12.9 75.3 12.7C75.2 12.6 75.1 12.4 74.9 12.2L75.4 10.7C75.7 11 75.9 11.4 76 11.8C76.1 12.2 76.2 12.7 76.2 13.5V15H76.1ZM76 8.5L75.4 9.70001L74.5 9.20001L74 10.2L72.9 9.60004L73.6 8.40002L74.5 8.90002L75 7.90002L76 8.5Z" fill="white"/>
<path d="M83.7 15C83.2 15 82.9 15 82.6 14.9C82.3 14.8 82 14.7 81.7 14.6C81.5 14.8 81.3 14.9 81.1 14.9C80.9 15 80.6 15 80.3 15H79.3C79 15 78.8 14.9 78.7 14.8C78.5 14.7 78.4 14.4 78.3 14.1C78.1 14.4 77.8 14.7 77.5 14.8C77.3 14.9 77 15 76.7 15H75.7V13.4H76.6C77 13.4 77.4 13.3 77.7 13C78.1 12.7 78.3 12.2 78.3 11.6L78.7 11.7C78.7 11.8 78.7 12 78.7 12.1C78.7 12.3 78.7 12.5 78.7 12.7C78.7 12.9 78.8 13.1 78.9 13.2C79 13.3 79.2 13.4 79.4 13.4H80.2C80.7 13.4 81.1 13.3 81.3 13.2C81.6 13 81.7 12.7 81.7 12.3C81.7 12.2 81.7 12.1 81.8 12C81.8 12 81.9 11.9 82 11.8L82.2 11.6C82.2 11.7 82.2 11.8 82.2 11.9C82.2 12 82.2 12.1 82.2 12.2C82.2 12.4 82.2 12.7 82.1 13.1C82.3 13.2 82.4 13.2 82.6 13.3C82.8 13.4 83 13.4 83.2 13.4C83.2 13.3 83.1 13.1 83 12.9C82.9 12.7 82.8 12.5 82.8 12.5C82.8 12.4 82.8 12.3 82.8 12.3C82.8 12.3 82.9 12.2 82.9 12.1L83.4 11.4C83.5 11.7 83.6 11.9 83.6 12.1C83.6 12.3 83.7 12.6 83.7 12.9V15ZM83 9.20001L82.3 10.4L81.4 9.90002L80.9 10.9L79.8 10.3L80.4 9.10004L81.3 9.60004L81.8 8.60004L83 9.20001ZM81.8 7.70001L81.2 9L80.1 8.40002L80.7 7.20001L81.8 7.70001Z" fill="white"/>
<path d="M86 13.3C86 13.7 86 14 85.9 14.3C85.8 14.6 85.6 15 85.4 15.5L85 15.4C85.1 14.9 85.1 14.5 85.1 14.1C85.1 13.9 85.1 13.5 85 13C85 12.5 84.9 12 84.8 11.6C84.7 11.1 84.6 10.6 84.5 9.90002C84.5 9.70002 84.4 9.50002 84.4 9.40002C84.4 9.30002 84.5 9.10005 84.6 8.80005C84.7 8.50005 84.9 8.10001 85.1 7.70001L85.5 9.90002C85.6 10.7 85.7 11.4 85.8 12C86 12.4 86 12.8 86 13.3Z" fill="white"/>
<path d="M18.0366 11.446C17.5084 11.446 16.4521 11.446 15.9239 11.446C15.9239 11.1223 15.9239 10.0432 15.9239 9.71943C15.9239 9.61151 15.9239 9.50357 15.9239 9.28774C15.9239 9.07192 16.0295 8.96404 16.2408 8.85613C16.3464 8.85613 16.4521 8.74817 16.6633 8.74817C16.9802 8.74817 18.0366 8.74817 18.3535 8.74817C18.3535 8.74817 18.3535 8.74817 18.4591 8.74817C18.4591 8.10069 18.4591 7.34533 18.4591 6.69785C17.7197 6.69785 16.6633 6.69785 15.9239 6.69785C15.607 6.69785 15.2901 6.80574 15.0788 6.80574C14.5507 7.02156 14.1282 7.34533 13.9169 7.77699C13.8113 8.10073 13.7056 8.53236 13.7056 8.96402C13.7056 9.39567 13.7056 10.7986 13.7056 11.2302C13.7056 11.2302 13.7056 11.2302 13.7056 11.3381C13.3887 11.3381 11.3817 11.3381 11.0648 11.3381C11.0648 11.9856 11.0648 13.2806 11.0648 13.9281C11.3817 13.9281 13.3887 13.9281 13.7056 13.9281C13.7056 15.5468 13.7056 17.3813 13.7056 19H8.21265C7.05068 19 6.09998 18.0288 6.09998 16.8417V6.15828C6.09998 4.97123 7.05068 4 8.21265 4H18.9873C20.1493 4 21.1 4.97123 21.1 6.15828V16.8417C21.1 18.0288 20.1493 19 18.9873 19H16.0296C16.0296 17.3813 16.0296 15.5468 16.0296 13.9281C16.0296 13.9281 16.0295 13.9281 16.1352 13.9281C16.5577 13.9281 17.1915 13.9281 17.7197 13.9281L18.0366 11.446Z" fill="white"/>
</g>
</svg>
