<svg width="55" height="23" viewBox="0 0 55 23" fill="none" xmlns="http://www.w3.org/2000/svg">
<mask id="mask0" mask-type="alpha" maskUnits="userSpaceOnUse" x="0" y="0" width="55" height="23">
<path d="M51.1 0H3.8C1.7 0 0 1.69999 0 3.79999V19.2C0 21.3 1.7 23 3.8 23H51.1C53.2 23 54.9 21.3 54.9 19.2V3.79999C54.8 1.69999 53.1 0 51.1 0Z" fill="#50ABF1"/>
</mask>
<g mask="url(#mask0)">
<rect width="55" height="23" fill="#0274B3"/>
<rect width="55" height="23" fill="#E1E7EC"/>
<rect width="55" height="23" fill="#CB1F24"/>
<rect width="55" height="23" fill="#3A559F"/>
<path d="M31.8 7H33.6V12.7C33.6 13.4 33.5 14 33.4 14.4C33.2 14.9 32.9 15.3 32.4 15.7C31.9 16 31.3 16.2 30.6 16.2C29.7 16.2 29 16 28.6 15.5C28.2 15 27.9 14.3 27.9 13.3L29.6 13.1C29.6 13.6 29.7 14 29.8 14.2C30 14.5 30.3 14.7 30.7 14.7C31.1 14.7 31.4 14.6 31.6 14.4C31.8 14.2 31.9 13.7 31.9 13V7H31.8Z" fill="white"/>
<path d="M36.8 11.5L35.2 11.2C35.4 10.6 35.7 10.1 36.1 9.79999C36.5 9.49999 37.2 9.29999 38 9.29999C38.8 9.29999 39.3 9.39998 39.7 9.59998C40.1 9.79998 40.3 9.99999 40.5 10.3C40.7 10.6 40.7 11.1 40.7 11.8V13.8C40.7 14.4 40.7 14.8 40.8 15.1C40.9 15.4 41 15.7 41.1 16H39.4C39.4 15.9 39.3 15.7 39.2 15.5C39.2 15.4 39.2 15.3 39.1 15.3C38.8 15.6 38.5 15.8 38.2 15.9C37.9 16 37.5 16.1 37.1 16.1C36.4 16.1 35.9 15.9 35.5 15.6C35.1 15.2 34.9 14.8 34.9 14.2C34.9 13.8 35 13.5 35.2 13.2C35.4 12.9 35.6 12.7 35.9 12.5C36.2 12.3 36.7 12.2 37.3 12.1C38.1 11.9 38.7 11.8 39 11.7V11.5C39 11.2 38.9 10.9 38.8 10.8C38.6 10.7 38.3 10.6 37.9 10.6C37.6 10.6 37.4 10.7 37.2 10.8C37.1 10.9 37 11.2 36.8 11.5ZM39.1 12.9C38.9 13 38.5 13.1 38.1 13.2C37.6 13.3 37.3 13.4 37.2 13.5C37 13.7 36.9 13.9 36.9 14.1C36.9 14.3 37 14.5 37.2 14.7C37.4 14.9 37.6 15 37.9 15C38.2 15 38.5 14.9 38.8 14.7C39 14.5 39.1 14.4 39.2 14.1C39.2 14 39.3 13.7 39.3 13.3V12.9H39.1Z" fill="white"/>
<path d="M43.8 11.5L42.2 11.2C42.4 10.6 42.7 10.1 43.1 9.79999C43.5 9.49999 44.2 9.29999 45 9.29999C45.8 9.29999 46.3 9.39998 46.7 9.59998C47.1 9.79998 47.3 9.99999 47.5 10.3C47.7 10.6 47.7 11.1 47.7 11.8V13.8C47.7 14.4 47.7 14.8 47.8 15.1C47.9 15.4 48 15.7 48.1 16H46.4C46.4 15.9 46.3 15.7 46.2 15.5C46.2 15.4 46.2 15.3 46.1 15.3C45.8 15.6 45.5 15.8 45.2 15.9C44.9 16 44.5 16.1 44.1 16.1C43.4 16.1 42.9 15.9 42.5 15.6C42.1 15.2 41.9 14.8 41.9 14.2C41.9 13.8 42 13.5 42.2 13.2C42.4 12.9 42.6 12.7 42.9 12.5C43.2 12.3 43.7 12.2 44.3 12.1C45.1 11.9 45.7 11.8 46 11.7V11.5C46 11.2 45.9 10.9 45.8 10.8C45.6 10.7 45.3 10.6 44.9 10.6C44.6 10.6 44.4 10.7 44.2 10.8C44 10.9 43.9 11.2 43.8 11.5ZM46.1 12.9C45.9 13 45.5 13.1 45.1 13.2C44.6 13.3 44.3 13.4 44.2 13.5C44 13.7 43.9 13.9 43.9 14.1C43.9 14.3 44 14.5 44.2 14.7C44.4 14.9 44.6 15 44.9 15C45.2 15 45.5 14.9 45.8 14.7C46 14.5 46.1 14.4 46.2 14.1C46.2 14 46.3 13.7 46.3 13.3V12.9H46.1Z" fill="white"/>
<path d="M18.0366 11.446C17.5084 11.446 16.4521 11.446 15.9239 11.446C15.9239 11.1223 15.9239 10.0432 15.9239 9.71943C15.9239 9.61151 15.9239 9.50357 15.9239 9.28774C15.9239 9.07192 16.0295 8.96404 16.2408 8.85613C16.3464 8.85613 16.4521 8.74817 16.6633 8.74817C16.9802 8.74817 18.0366 8.74817 18.3535 8.74817C18.3535 8.74817 18.3535 8.74817 18.4591 8.74817C18.4591 8.10069 18.4591 7.34533 18.4591 6.69785C17.7197 6.69785 16.6633 6.69785 15.9239 6.69785C15.607 6.69785 15.2901 6.80574 15.0788 6.80574C14.5507 7.02156 14.1282 7.34533 13.9169 7.77699C13.8113 8.10073 13.7056 8.53236 13.7056 8.96402C13.7056 9.39567 13.7056 10.7986 13.7056 11.2302C13.7056 11.2302 13.7056 11.2302 13.7056 11.3381C13.3887 11.3381 11.3817 11.3381 11.0648 11.3381C11.0648 11.9856 11.0648 13.2806 11.0648 13.9281C11.3817 13.9281 13.3887 13.9281 13.7056 13.9281C13.7056 15.5468 13.7056 17.3813 13.7056 19H8.21265C7.05068 19 6.09998 18.0288 6.09998 16.8417V6.15828C6.09998 4.97123 7.05068 4 8.21265 4H18.9873C20.1493 4 21.1 4.97123 21.1 6.15828V16.8417C21.1 18.0288 20.1493 19 18.9873 19H16.0296C16.0296 17.3813 16.0296 15.5468 16.0296 13.9281C16.0296 13.9281 16.0295 13.9281 16.1352 13.9281C16.5577 13.9281 17.1915 13.9281 17.7197 13.9281L18.0366 11.446Z" fill="white"/>
</g>
</svg>
