<svg width="85" height="23" viewBox="0 0 85 23" fill="none" xmlns="http://www.w3.org/2000/svg">
<mask id="mask0" mask-type="alpha" maskUnits="userSpaceOnUse" x="0" y="0" width="85" height="23">
<path d="M81.1 0H3.80002C1.70002 0 0 1.70002 0 3.80002V19.2C0 21.3 1.70002 23 3.80002 23H81.1C83.2 23 84.9 21.3 84.9 19.2V3.80002C84.8 1.70002 83.1 0 81.1 0Z" fill="#50ABF1"/>
</mask>
<g mask="url(#mask0)">
<rect width="85" height="23" fill="#0274B3"/>
<rect width="85" height="23" fill="#E1E7EC"/>
<rect width="85" height="23" fill="#CB1F24"/>
<rect width="85" height="23" fill="#3A559F"/>
<path d="M28 15V6H30.9C32 6 32.7 6.00001 33.1 6.10001C33.6 6.20001 34 6.5 34.4 7C34.7 7.5 34.9 8.00001 34.9 8.70001C34.9 9.30001 34.8 9.70001 34.6 10.1C34.4 10.5 34.1 10.8 33.8 11C33.5 11.2 33.2 11.4 32.9 11.4C32.5 11.5 31.8 11.5 31 11.5H29.8V14.9H28V15ZM29.8 7.60001V10.1H30.8C31.5 10.1 32 10.1 32.2 10C32.4 9.9 32.6 9.80001 32.8 9.60001C32.9 9.40001 33 9.19999 33 8.89999C33 8.59999 32.9 8.30001 32.7 8.10001C32.5 7.90001 32.3 7.80001 32 7.70001C31.8 7.70001 31.3 7.60001 30.7 7.60001H29.8Z" fill="white"/>
<path d="M37.6 10.5L36 10.2C36.2 9.60001 36.5 9.10002 36.9 8.80002C37.3 8.50002 38 8.30002 38.8 8.30002C39.6 8.30002 40.1 8.40001 40.5 8.60001C40.9 8.80001 41.1 9.00002 41.3 9.30002C41.5 9.60002 41.5 10.1 41.5 10.8V12.8C41.5 13.4 41.5 13.8 41.6 14.1C41.7 14.4 41.8 14.7 41.9 15H40.2C40.2 14.9 40.1 14.7 40 14.5C40 14.4 40 14.3 39.9 14.3C39.6 14.6 39.3 14.8 39 14.9C38.7 15 38.3 15.1 37.9 15.1C37.2 15.1 36.7 14.9 36.3 14.6C35.9 14.3 35.7 13.8 35.7 13.2C35.7 12.8 35.8 12.5 36 12.2C36.2 11.9 36.4 11.7 36.7 11.5C37 11.3 37.5 11.2 38.1 11.1C38.9 10.9 39.5 10.8 39.8 10.7V10.6C39.8 10.3 39.7 9.99999 39.6 9.89999C39.5 9.79999 39.1 9.70001 38.7 9.70001C38.4 9.70001 38.2 9.79999 38 9.89999C37.9 9.99999 37.7 10.2 37.6 10.5ZM39.9 11.9C39.7 12 39.3 12.1 38.9 12.2C38.4 12.3 38.1 12.4 38 12.5C37.8 12.7 37.7 12.9 37.7 13.1C37.7 13.3 37.8 13.5 38 13.7C38.2 13.9 38.4 14 38.7 14C39 14 39.3 13.9 39.6 13.7C39.8 13.5 39.9 13.4 40 13.1C40 13 40.1 12.7 40.1 12.3V11.9H39.9Z" fill="white"/>
<path d="M44.9 15H43.2V8.5H44.8V9.39999C45.1 8.99999 45.3 8.7 45.5 8.5C45.7 8.4 46 8.30002 46.2 8.30002C46.6 8.30002 47 8.40001 47.3 8.60001L46.8 10.1C46.5 9.90001 46.2 9.80002 46 9.80002C45.8 9.80002 45.6 9.9 45.4 10C45.2 10.1 45.1 10.4 45 10.7C44.9 11 44.9 11.8 44.9 12.9V15Z" fill="white"/>
<path d="M51.2 8.5V9.89999H50V12.5C50 13 50 13.3 50 13.4C50 13.5 50.1 13.6 50.2 13.6C50.3 13.7 50.4 13.7 50.5 13.7C50.7 13.7 50.9 13.6 51.2 13.5L51.3 14.8C50.9 15 50.4 15.1 49.9 15.1C49.6 15.1 49.3 15 49.1 14.9C48.9 14.8 48.7 14.7 48.6 14.5C48.5 14.3 48.4 14.1 48.4 13.8C48.4 13.6 48.3 13.2 48.3 12.6V9.80002H47.5V8.39999H48.3V7.10001L50 6.10001V8.39999H51.2V8.5Z" fill="white"/>
<path d="M53.6 10.5L52 10.2C52.2 9.60001 52.5 9.10002 52.9 8.80002C53.3 8.50002 54 8.30002 54.8 8.30002C55.6 8.30002 56.1 8.40001 56.5 8.60001C56.9 8.80001 57.1 9.00002 57.3 9.30002C57.5 9.60002 57.5 10.1 57.5 10.8V12.8C57.5 13.4 57.5 13.8 57.6 14.1C57.7 14.4 57.8 14.7 57.9 15H56.2C56.2 14.9 56.1 14.7 56 14.5C56 14.4 56 14.3 55.9 14.3C55.6 14.6 55.3 14.8 55 14.9C54.7 15 54.3 15.1 53.9 15.1C53.2 15.1 52.7 14.9 52.3 14.6C51.9 14.3 51.7 13.8 51.7 13.2C51.7 12.8 51.8 12.5 52 12.2C52.2 11.9 52.4 11.7 52.7 11.5C53 11.3 53.5 11.2 54.1 11.1C54.9 10.9 55.5 10.8 55.8 10.7V10.6C55.8 10.3 55.7 9.99999 55.6 9.89999C55.5 9.79999 55.1 9.70001 54.7 9.70001C54.4 9.70001 54.2 9.79999 54 9.89999C53.9 9.99999 53.7 10.2 53.6 10.5ZM55.9 11.9C55.7 12 55.3 12.1 54.9 12.2C54.4 12.3 54.1 12.4 54 12.5C53.8 12.7 53.7 12.9 53.7 13.1C53.7 13.3 53.8 13.5 54 13.7C54.2 13.9 54.4 14 54.7 14C55 14 55.3 13.9 55.6 13.7C55.8 13.5 55.9 13.4 56 13.1C56 13 56.1 12.7 56.1 12.3V11.9H55.9Z" fill="white"/>
<path d="M59.1 15.5L61.1 15.7C61.1 15.9 61.2 16.1 61.3 16.2C61.5 16.3 61.7 16.4 62.1 16.4C62.5 16.4 62.9 16.3 63.1 16.2C63.3 16.1 63.4 16 63.4 15.8C63.5 15.7 63.5 15.4 63.5 15V14.1C63 14.8 62.3 15.2 61.6 15.2C60.7 15.2 60 14.8 59.5 14.1C59.1 13.5 58.9 12.8 58.9 11.9C58.9 10.8 59.2 9.99999 59.7 9.39999C60.2 8.79999 60.9 8.5 61.7 8.5C62.5 8.5 63.2 8.90001 63.7 9.60001V8.70001H65.3V14.5C65.3 15.3 65.2 15.8 65.1 16.2C65 16.6 64.8 16.9 64.6 17.1C64.4 17.3 64.1 17.5 63.7 17.6C63.3 17.7 62.8 17.8 62.3 17.8C61.2 17.8 60.4 17.6 60 17.2C59.6 16.8 59.3 16.3 59.3 15.8C59.1 15.6 59.1 15.5 59.1 15.5ZM60.7 11.6C60.7 12.3 60.8 12.8 61.1 13.1C61.4 13.4 61.7 13.6 62.1 13.6C62.5 13.6 62.9 13.4 63.2 13.1C63.5 12.8 63.6 12.3 63.6 11.6C63.6 10.9 63.5 10.4 63.2 10.1C62.9 9.80001 62.6 9.60001 62.1 9.60001C61.7 9.60001 61.3 9.80001 61.1 10.1C60.8 10.5 60.7 11 60.7 11.6Z" fill="white"/>
<path d="M70.7 13L72.4 13.3C72.2 13.9 71.8 14.4 71.4 14.7C71 15 70.3 15.2 69.6 15.2C68.5 15.2 67.6 14.8 67.1 14.1C66.7 13.5 66.5 12.8 66.5 11.9C66.5 10.8 66.8 9.99999 67.3 9.39999C67.9 8.79999 68.6 8.5 69.4 8.5C70.4 8.5 71.1 8.8 71.7 9.5C72.3 10.1 72.5 11.1 72.5 12.4H68.2C68.2 12.9 68.4 13.3 68.6 13.6C68.9 13.9 69.2 14 69.6 14C69.9 14 70.1 13.9 70.3 13.8C70.5 13.5 70.6 13.3 70.7 13ZM70.8 11.2C70.8 10.7 70.7 10.3 70.4 10.1C70.1 9.90001 69.9 9.70001 69.5 9.70001C69.1 9.70001 68.8 9.80001 68.6 10.1C68.4 10.4 68.2 10.7 68.2 11.2H70.8Z" fill="white"/>
<path d="M75.6 15H73.9V8.5H75.5V9.39999C75.8 8.99999 76 8.7 76.2 8.5C76.4 8.4 76.7 8.30002 76.9 8.30002C77.3 8.30002 77.7 8.40001 78 8.60001L77.5 10.1C77.2 9.90001 76.9 9.80002 76.7 9.80002C76.5 9.80002 76.3 9.9 76.1 10C75.9 10.1 75.8 10.4 75.7 10.7C75.6 11 75.6 11.8 75.6 12.9V15Z" fill="white"/>
<path d="M18.0366 11.446C17.5084 11.446 16.4521 11.446 15.9239 11.446C15.9239 11.1223 15.9239 10.0432 15.9239 9.71943C15.9239 9.61151 15.9239 9.50357 15.9239 9.28774C15.9239 9.07192 16.0295 8.96404 16.2408 8.85613C16.3464 8.85613 16.4521 8.74817 16.6633 8.74817C16.9802 8.74817 18.0366 8.74817 18.3535 8.74817C18.3535 8.74817 18.3535 8.74817 18.4591 8.74817C18.4591 8.10069 18.4591 7.34533 18.4591 6.69785C17.7197 6.69785 16.6633 6.69785 15.9239 6.69785C15.607 6.69785 15.2901 6.80574 15.0788 6.80574C14.5507 7.02156 14.1282 7.34533 13.9169 7.77699C13.8113 8.10073 13.7056 8.53236 13.7056 8.96402C13.7056 9.39567 13.7056 10.7986 13.7056 11.2302C13.7056 11.2302 13.7056 11.2302 13.7056 11.3381C13.3887 11.3381 11.3817 11.3381 11.0648 11.3381C11.0648 11.9856 11.0648 13.2806 11.0648 13.9281C11.3817 13.9281 13.3887 13.9281 13.7056 13.9281C13.7056 15.5468 13.7056 17.3813 13.7056 19H8.21265C7.05068 19 6.09998 18.0288 6.09998 16.8417V6.15828C6.09998 4.97123 7.05068 4 8.21265 4H18.9873C20.1493 4 21.1 4.97123 21.1 6.15828V16.8417C21.1 18.0288 20.1493 19 18.9873 19H16.0296C16.0296 17.3813 16.0296 15.5468 16.0296 13.9281C16.0296 13.9281 16.0295 13.9281 16.1352 13.9281C16.5577 13.9281 17.1915 13.9281 17.7197 13.9281L18.0366 11.446Z" fill="white"/>
</g>
</svg>
