<svg width="58" height="23" viewBox="0 0 58 23" fill="none" xmlns="http://www.w3.org/2000/svg">
<mask id="mask0" mask-type="alpha" maskUnits="userSpaceOnUse" x="0" y="0" width="58" height="23">
<path d="M54.1 0H3.80002C1.70002 0 0 1.70002 0 3.80002V19.2C0 21.3 1.70002 23 3.80002 23H54.1C56.2 23 57.9 21.3 57.9 19.2V3.80002C57.8 1.70002 56.1 0 54.1 0Z" fill="#50ABF1"/>
</mask>
<g mask="url(#mask0)">
<rect width="58" height="23" fill="#0274B3"/>
<rect width="58" height="23" fill="#E1E7EC"/>
<rect width="58" height="23" fill="#CB1F24"/>
<rect width="58" height="23" fill="#3A559F"/>
<path d="M29.3 8.5V9.70001C29.3 10.3 29.5 10.6 30 10.6C30.1 10.6 30.1 10.6 30.2 10.6L30.5 11.7C30.2 11.8 29.9 11.9 29.6 11.9C29.2 11.9 28.8 11.8 28.5 11.7C28.2 11.5 28 11.3 27.9 11C27.8 10.7 27.7 10.3 27.7 9.70001V7.5C28.5 7.3 29.3 7.30002 30 7.30002C31.1 7.30002 31.9 7.40001 32.3 7.70001C32.8 8.00001 33.1 8.30001 33.4 8.70001C33.6 9.10001 33.7 9.80001 33.7 10.7V16.3H32V10.6C32 9.80001 31.8 9.20002 31.5 8.90002C31.2 8.60002 30.7 8.5 30 8.5C29.8 8.4 29.6 8.4 29.3 8.5Z" fill="white"/>
<path d="M35.1 12.3C35.3 12.4 35.6 12.4 35.8 12.4C36 12.4 36.2 12.3 36.3 12.2C36.4 12.1 36.4 11.9 36.4 11.5V8.40002C36.1 8.40002 35.7 8.4 35.1 8.5L35 7.20001C36.1 7.10001 37.1 7 38.3 7C39.3 7 40 7.10002 40.6 7.30002C41.2 7.50002 41.6 7.80001 41.9 8.20001C42.2 8.60001 42.3 9.30001 42.3 10.1V13.6H40.6V10.4C40.6 9.60002 40.5 9.00002 40.2 8.80002C39.9 8.60002 39.3 8.40002 38.2 8.40002V11.6C38.2 12.2 38.2 12.5 38.1 12.8C38 13 37.8 13.2 37.6 13.4C37.4 13.6 37 13.6 36.5 13.6C36 13.6 35.5 13.5 35 13.4L35.1 12.3Z" fill="white"/>
<path d="M45.5 11.3C45.6 11.6 45.8 11.9 46.1 12.1C46.4 12.3 46.8 12.4 47.2 12.4C47.9 12.4 48.4 12.2 48.8 11.8C49.2 11.4 49.4 10.6 49.5 9.40002L49.7 7H51.4L51.2 9.5C51.1 10.6 50.9 11.3 50.7 11.8C50.5 12.3 50.1 12.7 49.5 13.1C48.9 13.5 48.2 13.7 47.3 13.7C46.2 13.7 45.2 13.3 44.6 12.6C43.9 11.9 43.6 10.7 43.6 9.20001L43.5 7H45.2V8.70001C45.2 8.90001 45.2 9.30001 45.2 9.70001C45.2 9.90001 45.2 10 45.2 10.1C45.5 10.1 45.7 10 45.9 9.90002C46.1 9.80002 46.3 9.60002 46.3 9.40002C46.4 9.20002 46.4 8.80001 46.4 8.20001L46.5 7H48.2L48.1 8.60001C48.1 9.00001 48 9.30001 48 9.60001C47.9 9.80001 47.8 10.1 47.7 10.3C47.6 10.5 47.3 10.7 46.9 10.9C46.6 11.2 46.1 11.3 45.5 11.3Z" fill="white"/>
<path d="M18.0366 11.446C17.5084 11.446 16.4521 11.446 15.9239 11.446C15.9239 11.1223 15.9239 10.0432 15.9239 9.71943C15.9239 9.61151 15.9239 9.50357 15.9239 9.28774C15.9239 9.07192 16.0295 8.96404 16.2408 8.85613C16.3464 8.85613 16.4521 8.74817 16.6633 8.74817C16.9802 8.74817 18.0366 8.74817 18.3535 8.74817C18.3535 8.74817 18.3535 8.74817 18.4591 8.74817C18.4591 8.10069 18.4591 7.34533 18.4591 6.69785C17.7197 6.69785 16.6633 6.69785 15.9239 6.69785C15.607 6.69785 15.2901 6.80574 15.0788 6.80574C14.5507 7.02156 14.1282 7.34533 13.9169 7.77699C13.8113 8.10073 13.7056 8.53236 13.7056 8.96402C13.7056 9.39567 13.7056 10.7986 13.7056 11.2302C13.7056 11.2302 13.7056 11.2302 13.7056 11.3381C13.3887 11.3381 11.3817 11.3381 11.0648 11.3381C11.0648 11.9856 11.0648 13.2806 11.0648 13.9281C11.3817 13.9281 13.3887 13.9281 13.7056 13.9281C13.7056 15.5468 13.7056 17.3813 13.7056 19H8.21265C7.05068 19 6.09998 18.0288 6.09998 16.8417V6.15828C6.09998 4.97123 7.05068 4 8.21265 4H18.9873C20.1493 4 21.1 4.97123 21.1 6.15828V16.8417C21.1 18.0288 20.1493 19 18.9873 19H16.0296C16.0296 17.3813 16.0296 15.5468 16.0296 13.9281C16.0296 13.9281 16.0295 13.9281 16.1352 13.9281C16.5577 13.9281 17.1915 13.9281 17.7197 13.9281L18.0366 11.446Z" fill="white"/>
</g>
</svg>
