<svg width="78" height="23" viewBox="0 0 78 23" fill="none" xmlns="http://www.w3.org/2000/svg">
<mask id="mask0" mask-type="alpha" maskUnits="userSpaceOnUse" x="0" y="0" width="78" height="23">
<path d="M74.1 0H3.8C1.7 0 0 1.70005 0 3.80005V19.2C0 21.3 1.7 23 3.8 23H74.1C76.2 23 77.9 21.3 77.9 19.2V3.80005C77.8 1.70005 76.1 0 74.1 0Z" fill="#50ABF1"/>
</mask>
<g mask="url(#mask0)">
<rect width="78" height="23" fill="#0274B3"/>
<rect width="78" height="23" fill="#E1E7EC"/>
<rect width="78" height="23" fill="#CB1F24"/>
<rect width="78" height="23" fill="#3A559F"/>
<path d="M28.6 14V5H31.5C32.6 5 33.3 5.00004 33.7 5.10004C34.2 5.20004 34.6 5.5 35 6C35.3 6.4 35.5 7.00001 35.5 7.70001C35.5 8.30001 35.4 8.70004 35.2 9.10004C35 9.50004 34.7 9.8 34.4 10C34.1 10.2 33.8 10.4 33.5 10.4C33.1 10.5 32.4 10.5 31.6 10.5H30.4V13.9H28.6V14ZM30.4 6.5V9H31.4C32.1 9 32.6 9.00002 32.8 8.90002C33 8.80002 33.2 8.7 33.4 8.5C33.5 8.3 33.6 8.09999 33.6 7.79999C33.6 7.49999 33.5 7.2 33.3 7C33.1 6.8 32.9 6.70004 32.6 6.60004C32.4 6.60004 31.9 6.5 31.3 6.5H30.4Z" fill="white"/>
<path d="M36.6 10.6C36.6 10 36.7 9.50002 37 8.90002C37.3 8.30002 37.7 8.00001 38.2 7.70001C38.7 7.40001 39.3 7.29999 39.9 7.29999C40.9 7.29999 41.7 7.59999 42.3 8.29999C42.9 8.99999 43.2 9.70001 43.2 10.7C43.2 11.7 42.9 12.5 42.2 13.1C41.6 13.7 40.8 14.1 39.8 14.1C39.2 14.1 38.6 14 38.1 13.7C37.6 13.4 37.1 13 36.9 12.5C36.7 12 36.6 11.4 36.6 10.6ZM38.3 10.7C38.3 11.3 38.5 11.8 38.8 12.2C39.1 12.5 39.5 12.7 39.9 12.7C40.3 12.7 40.7 12.5 41 12.2C41.3 11.9 41.5 11.4 41.5 10.7C41.5 10.1 41.3 9.60001 41 9.20001C40.7 8.90001 40.3 8.70001 39.9 8.70001C39.5 8.70001 39.1 8.90001 38.8 9.20001C38.5 9.60001 38.3 10.1 38.3 10.7Z" fill="white"/>
<path d="M50.6 14H49V13C48.7 13.4 48.4 13.6 48.1 13.8C47.8 14 47.4 14.1 47 14.1C46.3 14.1 45.6 13.8 45.1 13.2C44.6 12.6 44.3 11.8 44.3 10.7C44.3 9.60001 44.6 8.80001 45.1 8.20001C45.6 7.60001 46.3 7.29999 47.1 7.29999C47.8 7.29999 48.5 7.60001 49 8.20001V5H50.7V14H50.6ZM46 10.6C46 11.3 46.1 11.8 46.3 12.1C46.6 12.5 47 12.8 47.5 12.8C47.9 12.8 48.2 12.6 48.5 12.3C48.8 12 48.9 11.5 48.9 10.8C48.9 10.1 48.8 9.50001 48.5 9.20001C48.2 8.90001 47.9 8.70001 47.5 8.70001C47.1 8.70001 46.8 8.90001 46.5 9.20001C46.1 9.40001 46 9.90004 46 10.6Z" fill="white"/>
<path d="M52.2 6.60004V5H53.9V6.60004H52.2ZM52.2 14V7.5H53.9V14H52.2Z" fill="white"/>
<path d="M57.4 7.5V13.8C57.4 14.6 57.3 15.2 57.2 15.6C57.1 15.9 56.9 16.2 56.6 16.4C56.3 16.6 55.9 16.7 55.4 16.7C55.2 16.7 55 16.7 54.8 16.7C54.6 16.7 54.4 16.6 54.2 16.6L54.5 15.1C54.6 15.1 54.7 15.1 54.7 15.1C54.8 15.1 54.8 15.1 54.9 15.1C55.1 15.1 55.2 15.1 55.3 15C55.4 14.9 55.5 14.8 55.5 14.7C55.5 14.6 55.6 14.3 55.6 13.7V7.5H57.4ZM55.7 6.60004V5H57.4V6.60004H55.7Z" fill="white"/>
<path d="M63 11.9L64.7 12.2C64.5 12.8 64.1 13.3 63.7 13.6C63.2 13.9 62.6 14.1 61.9 14.1C60.8 14.1 59.9 13.7 59.4 13C59 12.4 58.8 11.7 58.8 10.8C58.8 9.69999 59.1 8.89999 59.6 8.29999C60.1 7.69999 60.9 7.40002 61.7 7.40002C62.7 7.40002 63.4 7.70002 64 8.40002C64.6 9.00002 64.8 9.99999 64.8 11.3H60.5C60.5 11.8 60.7 12.2 60.9 12.5C61.2 12.8 61.5 12.9 61.9 12.9C62.2 12.9 62.4 12.8 62.6 12.7C62.7 12.4 62.9 12.2 63 11.9ZM63.1 10.1C63.1 9.60004 63 9.2 62.7 9C62.5 8.7 62.2 8.60004 61.8 8.60004C61.4 8.60004 61.1 8.7 60.9 9C60.7 9.3 60.5 9.60004 60.5 10.1H63.1Z" fill="white"/>
<path d="M66.2 14V5H67.9V14H66.2Z" fill="white"/>
<path d="M69.6 6.60004V5H71.3V6.60004H69.6ZM69.6 14V7.5H71.3V14H69.6Z" fill="white"/>
<path d="M18.0366 11.446C17.5084 11.446 16.4521 11.446 15.9239 11.446C15.9239 11.1223 15.9239 10.0432 15.9239 9.71943C15.9239 9.61151 15.9239 9.50357 15.9239 9.28774C15.9239 9.07192 16.0295 8.96404 16.2408 8.85613C16.3464 8.85613 16.4521 8.74817 16.6633 8.74817C16.9802 8.74817 18.0366 8.74817 18.3535 8.74817C18.3535 8.74817 18.3535 8.74817 18.4591 8.74817C18.4591 8.10069 18.4591 7.34533 18.4591 6.69785C17.7197 6.69785 16.6633 6.69785 15.9239 6.69785C15.607 6.69785 15.2901 6.80574 15.0788 6.80574C14.5507 7.02156 14.1282 7.34533 13.9169 7.77699C13.8113 8.10073 13.7056 8.53236 13.7056 8.96402C13.7056 9.39567 13.7056 10.7986 13.7056 11.2302C13.7056 11.2302 13.7056 11.2302 13.7056 11.3381C13.3887 11.3381 11.3817 11.3381 11.0648 11.3381C11.0648 11.9856 11.0648 13.2806 11.0648 13.9281C11.3817 13.9281 13.3887 13.9281 13.7056 13.9281C13.7056 15.5468 13.7056 17.3813 13.7056 19H8.21265C7.05068 19 6.09998 18.0288 6.09998 16.8417V6.15828C6.09998 4.97123 7.05068 4 8.21265 4H18.9873C20.1493 4 21.1 4.97123 21.1 6.15828V16.8417C21.1 18.0288 20.1493 19 18.9873 19H16.0296C16.0296 17.3813 16.0296 15.5468 16.0296 13.9281C16.0296 13.9281 16.0295 13.9281 16.1352 13.9281C16.5577 13.9281 17.1915 13.9281 17.7197 13.9281L18.0366 11.446Z" fill="white"/>
</g>
</svg>
