<svg width="98" height="23" viewBox="0 0 98 23" fill="none" xmlns="http://www.w3.org/2000/svg">
<mask id="mask0" mask-type="alpha" maskUnits="userSpaceOnUse" x="0" y="0" width="98" height="23">
<path d="M94.1 0H3.8C1.7 0 0 1.69999 0 3.79999V19.2C0 21.3 1.7 23 3.8 23H94.1C96.2 23 97.9 21.3 97.9 19.2V3.79999C97.8 1.69999 96.1 0 94.1 0Z" fill="#50ABF1"/>
</mask>
<g mask="url(#mask0)">
<rect width="98" height="23" fill="#0274B3"/>
<rect width="98" height="23" fill="#E1E7EC"/>
<rect width="98" height="23" fill="#CB1F24"/>
<rect width="98" height="23" fill="#3A559F"/>
<path d="M28.6 15.1V6.09998H31.3L32.9 12.2L34.5 6.09998H37.2V15.1H35.5V8L33.7 15.1H32L30.2 8V15.1H28.6Z" fill="white"/>
<path d="M42.8 13L44.5 13.3C44.3 13.9 43.9 14.4 43.5 14.7C43.1 15 42.4 15.2 41.7 15.2C40.6 15.2 39.7 14.8 39.2 14.1C38.8 13.5 38.6 12.8 38.6 11.9C38.6 10.8 38.9 9.99996 39.4 9.39996C39.9 8.79996 40.7 8.5 41.5 8.5C42.5 8.5 43.2 8.8 43.8 9.5C44.4 10.2 44.6 11.1 44.6 12.4H40.3C40.3 12.9 40.5 13.3 40.7 13.6C40.9 13.9 41.3 14 41.7 14C42 14 42.2 13.9 42.4 13.8C42.6 13.6 42.7 13.3 42.8 13ZM42.9 11.3C42.9 10.8 42.8 10.4 42.5 10.2C42.3 9.90001 42 9.79999 41.6 9.79999C41.2 9.79999 40.9 9.90001 40.7 10.2C40.5 10.5 40.3 10.8 40.3 11.3H42.9Z" fill="white"/>
<path d="M45.8 15.5L47.8 15.7C47.8 15.9 47.9 16.1 48 16.2C48.2 16.3 48.4 16.4 48.8 16.4C49.2 16.4 49.6 16.3 49.8 16.2C50 16.1 50.1 16 50.1 15.8C50.2 15.7 50.2 15.4 50.2 15V14.1C49.7 14.8 49 15.2 48.3 15.2C47.4 15.2 46.7 14.8 46.2 14.1C45.8 13.5 45.6 12.8 45.6 11.9C45.6 10.8 45.9 9.99996 46.4 9.39996C46.9 8.79996 47.6 8.5 48.4 8.5C49.2 8.5 49.9 8.89998 50.4 9.59998V8.70001H52V14.5C52 15.3 51.9 15.8 51.8 16.2C51.7 16.6 51.5 16.9 51.3 17.1C51.1 17.3 50.8 17.5 50.4 17.6C50 17.7 49.5 17.8 49 17.8C47.9 17.8 47.1 17.6 46.7 17.2C46.3 16.8 46 16.3 46 15.8C45.8 15.7 45.8 15.6 45.8 15.5ZM47.4 11.7C47.4 12.4 47.5 12.9 47.8 13.2C48.1 13.5 48.4 13.7 48.8 13.7C49.2 13.7 49.6 13.5 49.9 13.2C50.2 12.9 50.3 12.4 50.3 11.7C50.3 11 50.2 10.5 49.9 10.2C49.6 9.90001 49.3 9.70001 48.8 9.70001C48.4 9.70001 48 9.90001 47.8 10.2C47.5 10.6 47.4 11.1 47.4 11.7Z" fill="white"/>
<path d="M53.2 11.8C53.2 11.2 53.3 10.7 53.6 10.1C53.9 9.49998 54.3 9.19996 54.8 8.89996C55.3 8.59996 55.9 8.5 56.5 8.5C57.5 8.5 58.3 8.8 58.9 9.5C59.5 10.1 59.8 10.9 59.8 11.9C59.8 12.9 59.5 13.7 58.8 14.3C58.2 14.9 57.4 15.3 56.4 15.3C55.8 15.3 55.2 15.2 54.7 14.9C54.2 14.6 53.7 14.2 53.5 13.7C53.3 13.2 53.2 12.5 53.2 11.8ZM55 11.8C55 12.4 55.2 12.9 55.5 13.3C55.8 13.6 56.2 13.8 56.6 13.8C57 13.8 57.4 13.6 57.7 13.3C58 13 58.2 12.5 58.2 11.8C58.2 11.2 58 10.7 57.7 10.3C57.4 9.99999 57 9.79999 56.6 9.79999C56.2 9.79999 55.8 9.99999 55.5 10.3C55.2 10.7 55 11.2 55 11.8Z" fill="white"/>
<path d="M60.7 13.2L62.4 12.9C62.5 13.2 62.6 13.5 62.8 13.7C63 13.9 63.3 14 63.7 14C64.1 14 64.5 13.9 64.7 13.8C64.9 13.7 64.9 13.5 64.9 13.3C64.9 13.2 64.9 13.1 64.8 13C64.7 12.9 64.5 12.8 64.2 12.8C62.8 12.5 61.9 12.2 61.6 12C61.1 11.6 60.8 11.2 60.8 10.5C60.8 9.9 61 9.49998 61.5 9.09998C62 8.69998 62.6 8.5 63.6 8.5C64.5 8.5 65.1 8.59996 65.6 8.89996C66.1 9.19996 66.3 9.60001 66.5 10.2L64.9 10.5C64.8 10.2 64.7 10.1 64.5 9.89996C64.3 9.79996 64 9.70001 63.7 9.70001C63.2 9.70001 62.9 9.79996 62.7 9.89996C62.6 9.99996 62.5 10.1 62.5 10.2C62.5 10.3 62.6 10.4 62.7 10.5C62.9 10.6 63.4 10.8 64.3 11C65.2 11.2 65.9 11.5 66.2 11.8C66.6 12.1 66.7 12.5 66.7 13.1C66.7 13.7 66.5 14.2 66 14.6C65.5 15 64.8 15.2 63.8 15.2C62.9 15.2 62.2 15 61.7 14.7C61.2 14.3 60.8 13.9 60.7 13.2Z" fill="white"/>
<path d="M67.6 15.1V13.8L70 11C70.4 10.5 70.7 10.2 70.9 10C70.7 10 70.4 10 70.1 10H67.8V8.59998H73.2V9.79999L70.7 12.7L69.8 13.6C70.3 13.6 70.6 13.6 70.7 13.6H73.4V15.1H67.6Z" fill="white"/>
<path d="M77.5 8.59998V10H76.3V12.6C76.3 13.1 76.3 13.4 76.3 13.5C76.3 13.6 76.4 13.7 76.5 13.7C76.6 13.8 76.7 13.8 76.8 13.8C77 13.8 77.2 13.7 77.5 13.6L77.6 14.9C77.2 15.1 76.7 15.2 76.2 15.2C75.9 15.2 75.6 15.1 75.4 15C75.2 14.9 75 14.8 74.9 14.6C74.8 14.4 74.7 14.2 74.7 13.9C74.7 13.7 74.6 13.3 74.6 12.7V9.89996H73.8V8.5H74.6V7.29999L76.3 6.29999V8.59998H77.5Z" fill="white"/>
<path d="M80 10.6L78.4 10.3C78.6 9.69999 78.9 9.19996 79.3 8.89996C79.7 8.59996 80.4 8.39996 81.2 8.39996C82 8.39996 82.5 8.50001 82.9 8.70001C83.3 8.90001 83.5 9.09996 83.7 9.39996C83.9 9.69996 83.9 10.2 83.9 10.9V12.9C83.9 13.5 83.9 13.9 84 14.2C84.1 14.5 84.2 14.8 84.3 15.1H82.6C82.6 15 82.5 14.8 82.4 14.6C82.4 14.5 82.4 14.4 82.3 14.4C82 14.7 81.7 14.9 81.4 15C81.1 15.1 80.7 15.2 80.3 15.2C79.6 15.2 79.1 15 78.7 14.7C78.3 14.3 78.1 13.9 78.1 13.3C78.1 12.9 78.2 12.6 78.4 12.3C78.6 12 78.8 11.8 79.1 11.6C79.4 11.4 79.9 11.3 80.5 11.2C81.3 11 81.9 10.9 82.2 10.8V10.6C82.2 10.3 82.1 9.99996 82 9.89996C81.9 9.79996 81.5 9.70001 81.1 9.70001C80.8 9.70001 80.6 9.79996 80.4 9.89996C80.2 10.1 80.1 10.3 80 10.6ZM82.3 12C82.1 12.1 81.7 12.2 81.3 12.3C80.8 12.4 80.5 12.5 80.4 12.6C80.2 12.8 80.1 13 80.1 13.2C80.1 13.4 80.2 13.6 80.4 13.8C80.6 14 80.8 14.1 81.1 14.1C81.4 14.1 81.7 14 82 13.8C82.2 13.6 82.3 13.5 82.4 13.2C82.4 13.1 82.5 12.8 82.5 12.4V12H82.3ZM80.4 7.79999L81.2 6H83.1L81.4 7.79999H80.4Z" fill="white"/>
<path d="M85 13.2L86.7 12.9C86.8 13.2 86.9 13.5 87.1 13.7C87.3 13.9 87.6 14 88 14C88.4 14 88.8 13.9 89 13.8C89.2 13.7 89.2 13.5 89.2 13.3C89.2 13.2 89.2 13.1 89.1 13C89 12.9 88.8 12.8 88.5 12.8C87.1 12.5 86.2 12.2 85.9 12C85.4 11.6 85.1 11.2 85.1 10.5C85.1 9.9 85.3 9.49998 85.8 9.09998C86.3 8.69998 86.9 8.5 87.9 8.5C88.8 8.5 89.4 8.59996 89.9 8.89996C90.4 9.19996 90.6 9.60001 90.8 10.2L89.2 10.5C89.1 10.2 89 10.1 88.8 9.89996C88.6 9.79996 88.3 9.70001 88 9.70001C87.5 9.70001 87.2 9.79996 87 9.89996C86.9 9.99996 86.8 10.1 86.8 10.2C86.8 10.3 86.9 10.4 87 10.5C87.2 10.6 87.7 10.8 88.6 11C89.5 11.2 90.2 11.5 90.5 11.8C90.9 12.1 91 12.5 91 13.1C91 13.7 90.8 14.2 90.3 14.6C89.8 15 89.1 15.2 88.1 15.2C87.2 15.2 86.5 15 86 14.7C85.5 14.3 85.2 13.9 85 13.2Z" fill="white"/>
<path d="M18.0366 11.446C17.5084 11.446 16.4521 11.446 15.9239 11.446C15.9239 11.1223 15.9239 10.0432 15.9239 9.71943C15.9239 9.61151 15.9239 9.50357 15.9239 9.28774C15.9239 9.07192 16.0295 8.96404 16.2408 8.85613C16.3464 8.85613 16.4521 8.74817 16.6633 8.74817C16.9802 8.74817 18.0366 8.74817 18.3535 8.74817C18.3535 8.74817 18.3535 8.74817 18.4591 8.74817C18.4591 8.10069 18.4591 7.34533 18.4591 6.69785C17.7197 6.69785 16.6633 6.69785 15.9239 6.69785C15.607 6.69785 15.2901 6.80574 15.0788 6.80574C14.5507 7.02156 14.1282 7.34533 13.9169 7.77699C13.8113 8.10073 13.7056 8.53236 13.7056 8.96402C13.7056 9.39567 13.7056 10.7986 13.7056 11.2302C13.7056 11.2302 13.7056 11.2302 13.7056 11.3381C13.3887 11.3381 11.3817 11.3381 11.0648 11.3381C11.0648 11.9856 11.0648 13.2806 11.0648 13.9281C11.3817 13.9281 13.3887 13.9281 13.7056 13.9281C13.7056 15.5468 13.7056 17.3813 13.7056 19H8.21265C7.05068 19 6.09998 18.0288 6.09998 16.8417V6.15828C6.09998 4.97123 7.05068 4 8.21265 4H18.9873C20.1493 4 21.1 4.97123 21.1 6.15828V16.8417C21.1 18.0288 20.1493 19 18.9873 19H16.0296C16.0296 17.3813 16.0296 15.5468 16.0296 13.9281C16.0296 13.9281 16.0295 13.9281 16.1352 13.9281C16.5577 13.9281 17.1915 13.9281 17.7197 13.9281L18.0366 11.446Z" fill="white"/>
</g>
</svg>
