<svg width="78" height="23" viewBox="0 0 78 23" fill="none" xmlns="http://www.w3.org/2000/svg">
<mask id="mask0" mask-type="alpha" maskUnits="userSpaceOnUse" x="0" y="0" width="78" height="23">
<path d="M74.1 0H3.8C1.7 0 0 1.69999 0 3.79999V19.2C0 21.3 1.7 23 3.8 23H74.1C76.2 23 77.9 21.3 77.9 19.2V3.79999C77.8 1.69999 76.1 0 74.1 0Z" fill="#50ABF1"/>
</mask>
<g mask="url(#mask0)">
<rect width="78" height="23" fill="#0274B3"/>
<rect width="78" height="23" fill="#E1E7EC"/>
<rect width="78" height="23" fill="#CB1F24"/>
<rect width="78" height="23" fill="#3A559F"/>
<path d="M33.9 9.10004V8.5H35.7V15H33.9V12.5C33.7 12.6 33.4 12.7 33.1 12.8C32.8 12.9 32.5 12.9 32.1 12.9C30.9 12.9 30 12.6 29.4 12C28.8 11.4 28.5 10.4 28.5 9V6H30.3V8.90002C30.3 9.60002 30.4 10.2 30.5 10.5C30.6 10.8 30.8 11 31 11.2C31.3 11.4 31.6 11.4 32.1 11.4C32.5 11.4 32.9 11.3 33.1 11.2C33.4 11 33.5 10.8 33.6 10.5C33.8 10.2 33.9 9.70004 33.9 9.10004Z" fill="white"/>
<path d="M43.4 15.0001H41.7V11.7001C41.7 11.1001 41.7 10.7001 41.6 10.4001C41.5 10.2001 41.4 10.0001 41.3 9.90009C41.1 9.80009 40.9 9.70007 40.7 9.70007C40.4 9.70007 40.2 9.80009 40 9.90009C39.8 10.0001 39.6 10.2001 39.5 10.5001C39.4 10.7001 39.3 11.2001 39.3 11.9001V17.5001H37.6V6.1001H39.3V9.40009C39.8 8.80009 40.5 8.40009 41.3 8.40009C41.8 8.40009 42.2 8.50007 42.5 8.70007C42.8 8.90007 43.1 9.20006 43.2 9.50006C43.3 9.80006 43.4 10.3001 43.4 11.0001V15.0001Z" fill="white"/>
<path d="M45.1 8.5H46.8V11.8C46.8 12.5 46.8 12.9 46.9 13.2C47 13.5 47.1 13.6 47.3 13.7C47.5 13.8 47.7 13.9 47.9 13.9C48.2 13.9 48.5 13.8 48.8 13.6C49.1 13.4 49.2 13.2 49.3 12.9C49.4 12.6 49.4 12.1 49.4 11.5V8.60004H51.1V15.1H49.5V14.1C48.9 14.8 48.2 15.2 47.4 15.2C46.9 15.2 46.5 15.1 46.2 14.9C45.9 14.7 45.6 14.4 45.5 14.1C45.4 13.8 45.3 13.3 45.3 12.6V8.5H45.1Z" fill="white"/>
<path d="M58.7 16.1H60.2V17.4999H57V14.2C56.5 14.8 55.8 15.2 55 15.2C54.5 15.2 54.1 15.1 53.8 14.9C53.5 14.7 53.2 14.4 53.1 14.1C53 13.8 52.9 13.3 52.9 12.6V8.59998H54.6V11.9C54.6 12.6 54.6 12.9999 54.7 13.2999C54.8 13.4999 54.9 13.6999 55.1 13.7999C55.3 13.8999 55.5 13.9999 55.7 13.9999C56 13.9999 56.2 13.8999 56.4 13.7999C56.6 13.6999 56.8 13.5 56.9 13.2C57 13 57.1 12.4999 57.1 11.7999V6.19995H58.8V16.1H58.7Z" fill="white"/>
<path d="M66.6 9.90002H62.1V11.8C62.1 12.5 62.1 12.9 62.2 13.2C62.3 13.4 62.4 13.6 62.6 13.7C62.8 13.8 63 13.9 63.2 13.9C63.5 13.9 63.8 13.8 64 13.6C64.2 13.4 64.4 13.2 64.5 12.9C64.6 12.6 64.6 12.1 64.6 11.5V11.2H66.3V15H64.7V14C64.1 14.7 63.4 15.1 62.6 15.1C62.1 15.1 61.7 15 61.4 14.8C61.1 14.6 60.8 14.3 60.7 14C60.6 13.7 60.5 13.2 60.5 12.5V6H62.2V8.5H66.7V9.90002H66.6Z" fill="white"/>
<path d="M69.8 16.1H71.3V17.5H68.1V8.5H69.8V16.1Z" fill="white"/>
<path d="M18.0366 11.446C17.5084 11.446 16.4521 11.446 15.9239 11.446C15.9239 11.1223 15.9239 10.0432 15.9239 9.71943C15.9239 9.61151 15.9239 9.50357 15.9239 9.28774C15.9239 9.07192 16.0295 8.96404 16.2408 8.85613C16.3464 8.85613 16.4521 8.74817 16.6633 8.74817C16.9802 8.74817 18.0366 8.74817 18.3535 8.74817C18.3535 8.74817 18.3535 8.74817 18.4591 8.74817C18.4591 8.10069 18.4591 7.34533 18.4591 6.69785C17.7197 6.69785 16.6633 6.69785 15.9239 6.69785C15.607 6.69785 15.2901 6.80574 15.0788 6.80574C14.5507 7.02156 14.1282 7.34533 13.9169 7.77699C13.8113 8.10073 13.7056 8.53236 13.7056 8.96402C13.7056 9.39567 13.7056 10.7986 13.7056 11.2302C13.7056 11.2302 13.7056 11.2302 13.7056 11.3381C13.3887 11.3381 11.3817 11.3381 11.0648 11.3381C11.0648 11.9856 11.0648 13.2806 11.0648 13.9281C11.3817 13.9281 13.3887 13.9281 13.7056 13.9281C13.7056 15.5468 13.7056 17.3813 13.7056 19H8.21265C7.05068 19 6.09998 18.0288 6.09998 16.8417V6.15828C6.09998 4.97123 7.05068 4 8.21265 4H18.9873C20.1493 4 21.1 4.97123 21.1 6.15828V16.8417C21.1 18.0288 20.1493 19 18.9873 19H16.0296C16.0296 17.3813 16.0296 15.5468 16.0296 13.9281C16.0296 13.9281 16.0295 13.9281 16.1352 13.9281C16.5577 13.9281 17.1915 13.9281 17.7197 13.9281L18.0366 11.446Z" fill="white"/>
</g>
</svg>
