<svg width="75" height="23" viewBox="0 0 75 23" fill="none" xmlns="http://www.w3.org/2000/svg">
<mask id="mask0" mask-type="alpha" maskUnits="userSpaceOnUse" x="0" y="0" width="75" height="23">
<path d="M71.1 0H3.80002C1.70002 0 0 1.70002 0 3.80002V19.2C0 21.3 1.70002 23 3.80002 23H71.1C73.2 23 74.9 21.3 74.9 19.2V3.80002C74.8 1.70002 73.1 0 71.1 0Z" fill="#50ABF1"/>
</mask>
<g mask="url(#mask0)">
<rect width="75" height="23" fill="#0274B3"/>
<rect width="75" height="23" fill="#E1E7EC"/>
<rect width="75" height="23" fill="#CB1F24"/>
<rect width="75" height="23" fill="#3A559F"/>
<path d="M28 15V6H29.8V10L33.5 6H35.9L32.5 9.5L36.1 15H33.8L31.3 10.8L29.8 12.3V15H28Z" fill="white"/>
<path d="M36.6 11.7C36.6 11.1 36.7 10.6 37 10C37.3 9.5 37.7 9.10002 38.2 8.80002C38.7 8.50002 39.3 8.39999 39.9 8.39999C40.9 8.39999 41.7 8.69999 42.3 9.39999C42.9 9.99999 43.2 10.8 43.2 11.8C43.2 12.8 42.9 13.6 42.2 14.2C41.6 14.8 40.8 15.2 39.8 15.2C39.2 15.2 38.6 15.1 38.1 14.8C37.6 14.5 37.1 14.1 36.9 13.6C36.8 13.1 36.6 12.4 36.6 11.7ZM38.4 11.8C38.4 12.4 38.6 12.9 38.9 13.3C39.2 13.7 39.6 13.8 40 13.8C40.4 13.8 40.8 13.6 41.1 13.3C41.4 13 41.6 12.5 41.6 11.8C41.6 11.2 41.4 10.7 41.1 10.3C40.8 10 40.4 9.80002 40 9.80002C39.6 9.80002 39.2 10 38.9 10.3C38.6 10.6 38.4 11.1 38.4 11.8Z" fill="white"/>
<path d="M50.6 15H48.9V11.7C48.9 11 48.9 10.5 48.8 10.3C48.7 10.1 48.6 9.90002 48.4 9.80002C48.2 9.70002 48 9.60001 47.8 9.60001C47.5 9.60001 47.2 9.70002 47 9.80002C46.8 9.90002 46.6 10.2 46.5 10.4C46.4 10.7 46.4 11.2 46.4 11.9V14.8H44.7V8.30002H46.3V9.30002C46.9 8.60002 47.6 8.20001 48.4 8.20001C48.8 8.20001 49.1 8.29999 49.4 8.39999C49.7 8.49999 50 8.69999 50.1 8.89999C50.3 9.09999 50.4 9.40001 50.4 9.60001C50.5 9.90001 50.5 10.3 50.5 10.8V15H50.6Z" fill="white"/>
<path d="M52.2 15.5L54.2 15.7C54.2 15.9 54.3 16.1 54.4 16.2C54.6 16.3 54.8 16.4 55.2 16.4C55.6 16.4 56 16.3 56.2 16.2C56.4 16.1 56.5 16 56.5 15.8C56.6 15.7 56.6 15.4 56.6 15V14.1C56.1 14.8 55.4 15.2 54.7 15.2C53.8 15.2 53.1 14.8 52.6 14.1C52.2 13.5 52 12.8 52 11.9C52 10.8 52.3 9.99999 52.8 9.39999C53.3 8.79999 54 8.5 54.8 8.5C55.6 8.5 56.3 8.90001 56.8 9.60001V8.70001H58.4V14.5C58.4 15.3 58.3 15.8 58.2 16.2C58.1 16.6 57.9 16.9 57.7 17.1C57.5 17.3 57.2 17.5 56.8 17.6C56.4 17.7 55.9 17.8 55.4 17.8C54.3 17.8 53.5 17.6 53.1 17.2C52.7 16.8 52.4 16.3 52.4 15.8C52.2 15.6 52.2 15.5 52.2 15.5ZM53.7 11.6C53.7 12.3 53.8 12.8 54.1 13.1C54.4 13.4 54.7 13.6 55.1 13.6C55.5 13.6 55.9 13.4 56.2 13.1C56.5 12.8 56.6 12.3 56.6 11.6C56.6 10.9 56.5 10.4 56.2 10.1C55.9 9.80001 55.6 9.60001 55.1 9.60001C54.7 9.60001 54.3 9.80001 54.1 10.1C53.8 10.5 53.7 11 53.7 11.6Z" fill="white"/>
<path d="M59.4 13.2L61.1 12.9C61.2 13.2 61.3 13.5 61.5 13.7C61.7 13.9 62 14 62.4 14C62.8 14 63.2 13.9 63.4 13.8C63.6 13.7 63.6 13.5 63.6 13.3C63.6 13.2 63.6 13.1 63.5 13C63.4 12.9 63.2 12.8 62.9 12.8C61.5 12.5 60.6 12.2 60.3 12C59.8 11.7 59.5 11.2 59.5 10.5C59.5 9.9 59.7 9.50001 60.2 9.10001C60.7 8.70001 61.3 8.5 62.3 8.5C63.2 8.5 63.8 8.59999 64.3 8.89999C64.8 9.19999 65 9.60001 65.2 10.2L63.6 10.5C63.5 10.2 63.4 10.1 63.2 9.89999C63 9.79999 62.7 9.70001 62.4 9.70001C61.9 9.70001 61.6 9.79999 61.4 9.89999C61.3 9.99999 61.2 10.1 61.2 10.2C61.2 10.3 61.3 10.4 61.4 10.5C61.6 10.6 62.1 10.8 63 11C63.9 11.2 64.6 11.5 64.9 11.8C65.3 12.1 65.4 12.5 65.4 13.1C65.4 13.7 65.2 14.2 64.7 14.6C64.2 15 63.5 15.2 62.5 15.2C61.6 15.2 60.9 15 60.4 14.7C59.9 14.3 59.5 13.8 59.4 13.2Z" fill="white"/>
<path d="M66.9 7.70001V6.10001H68.6V7.70001H66.9ZM66.9 15V8.5H68.6V15H66.9Z" fill="white"/>
<path d="M18.0366 11.446C17.5084 11.446 16.4521 11.446 15.9239 11.446C15.9239 11.1223 15.9239 10.0432 15.9239 9.71943C15.9239 9.61151 15.9239 9.50357 15.9239 9.28774C15.9239 9.07192 16.0295 8.96404 16.2408 8.85613C16.3464 8.85613 16.4521 8.74817 16.6633 8.74817C16.9802 8.74817 18.0366 8.74817 18.3535 8.74817C18.3535 8.74817 18.3535 8.74817 18.4591 8.74817C18.4591 8.10069 18.4591 7.34533 18.4591 6.69785C17.7197 6.69785 16.6633 6.69785 15.9239 6.69785C15.607 6.69785 15.2901 6.80574 15.0788 6.80574C14.5507 7.02156 14.1282 7.34533 13.9169 7.77699C13.8113 8.10073 13.7056 8.53236 13.7056 8.96402C13.7056 9.39567 13.7056 10.7986 13.7056 11.2302C13.7056 11.2302 13.7056 11.2302 13.7056 11.3381C13.3887 11.3381 11.3817 11.3381 11.0648 11.3381C11.0648 11.9856 11.0648 13.2806 11.0648 13.9281C11.3817 13.9281 13.3887 13.9281 13.7056 13.9281C13.7056 15.5468 13.7056 17.3813 13.7056 19H8.21265C7.05068 19 6.09998 18.0288 6.09998 16.8417V6.15828C6.09998 4.97123 7.05068 4 8.21265 4H18.9873C20.1493 4 21.1 4.97123 21.1 6.15828V16.8417C21.1 18.0288 20.1493 19 18.9873 19H16.0296C16.0296 17.3813 16.0296 15.5468 16.0296 13.9281C16.0296 13.9281 16.0295 13.9281 16.1352 13.9281C16.5577 13.9281 17.1915 13.9281 17.7197 13.9281L18.0366 11.446Z" fill="white"/>
</g>
</svg>
