<svg width="67" height="23" viewBox="0 0 67 23" fill="none" xmlns="http://www.w3.org/2000/svg">
<mask id="mask0" mask-type="alpha" maskUnits="userSpaceOnUse" x="0" y="0" width="67" height="23">
<path d="M63.1 0H3.80002C1.70002 0 0 1.69999 0 3.79999V19.2C0 21.3 1.70002 23 3.80002 23H63.1C65.2 23 66.9 21.3 66.9 19.2V3.79999C66.8 1.69999 65.1 0 63.1 0Z" fill="#50ABF1"/>
</mask>
<g mask="url(#mask0)">
<rect width="67" height="23" fill="#0274B3"/>
<rect width="67" height="23" fill="#E1E7EC"/>
<rect width="67" height="23" fill="#CB1F24"/>
<rect width="67" height="23" fill="#3A559F"/>
<path d="M28.6 9.09998C29.7 9.39998 31.1 9.80001 32 10.2L31.6 11C30.8 10.6 29.3 10.1 28.2 9.79999L28.6 9.09998ZM29.3 15.2C33.4 13.8 36.2 11.7 37.8 7.89996C38 8.09996 38.4 8.3 38.6 8.5C36.9 12.2 34 14.5 30.2 15.9C30.2 16 30.2 16.2 30 16.2L29.3 15.2ZM29.9 6C31 6.3 32.4 6.80001 33.3 7.20001L32.9 8C32 7.5 30.7 7.00001 29.6 6.70001L29.9 6Z" fill="white"/>
<path d="M47.2 9V9.70001H44.1V14.6H47.9V15.3H39.5V14.6H43.3V9.70001H40.2V9H47.2Z" fill="white"/>
<path d="M60.1 6.59998C60.1 6.59998 60 6.70001 59.9 6.70001C59.2 8.30001 58.1 9.70001 56.9 10.7C56.7 10.5 56.4 10.3 56.1 10.2C57.3 9.40001 58.2 8.09998 58.6 7.09998H49.6V6.29999H59L59.1 6.20001L60.1 6.59998ZM55.2 8.89996C55.2 8.99996 55.1 9.09998 54.9 9.09998C54.5 12.1 53.5 14.9 50.9 16.4C50.7 16.2 50.4 16 50.2 15.8C52.8 14.4 53.7 11.8 54 8.79999L55.2 8.89996Z" fill="white"/>
<path d="M18.0366 11.446C17.5084 11.446 16.4521 11.446 15.9239 11.446C15.9239 11.1223 15.9239 10.0432 15.9239 9.71943C15.9239 9.61151 15.9239 9.50357 15.9239 9.28774C15.9239 9.07192 16.0295 8.96404 16.2408 8.85613C16.3464 8.85613 16.4521 8.74817 16.6633 8.74817C16.9802 8.74817 18.0366 8.74817 18.3535 8.74817C18.3535 8.74817 18.3535 8.74817 18.4591 8.74817C18.4591 8.10069 18.4591 7.34533 18.4591 6.69785C17.7197 6.69785 16.6633 6.69785 15.9239 6.69785C15.607 6.69785 15.2901 6.80574 15.0788 6.80574C14.5507 7.02156 14.1282 7.34533 13.9169 7.77699C13.8113 8.10073 13.7056 8.53236 13.7056 8.96402C13.7056 9.39567 13.7056 10.7986 13.7056 11.2302C13.7056 11.2302 13.7056 11.2302 13.7056 11.3381C13.3887 11.3381 11.3817 11.3381 11.0648 11.3381C11.0648 11.9856 11.0648 13.2806 11.0648 13.9281C11.3817 13.9281 13.3887 13.9281 13.7056 13.9281C13.7056 15.5468 13.7056 17.3813 13.7056 19H8.21265C7.05068 19 6.09998 18.0288 6.09998 16.8417V6.15828C6.09998 4.97123 7.05068 4 8.21265 4H18.9873C20.1493 4 21.1 4.97123 21.1 6.15828V16.8417C21.1 18.0288 20.1493 19 18.9873 19H16.0296C16.0296 17.3813 16.0296 15.5468 16.0296 13.9281C16.0296 13.9281 16.0295 13.9281 16.1352 13.9281C16.5577 13.9281 17.1915 13.9281 17.7197 13.9281L18.0366 11.446Z" fill="white"/>
</g>
</svg>
