<svg width="88" height="23" viewBox="0 0 88 23" fill="none" xmlns="http://www.w3.org/2000/svg">
<mask id="mask0" mask-type="alpha" maskUnits="userSpaceOnUse" x="0" y="0" width="88" height="23">
<path d="M84.1 0H3.8C1.7 0 0 1.69999 0 3.79999V19.2C0 21.3 1.7 23 3.8 23H84.1C86.2 23 87.9 21.3 87.9 19.2V3.79999C87.8 1.69999 86.1 0 84.1 0Z" fill="#50ABF1"/>
</mask>
<g mask="url(#mask0)">
<rect width="88" height="23" fill="#0274B3"/>
<rect width="88" height="23" fill="#E1E7EC"/>
<rect width="88" height="23" fill="#CB1F24"/>
<rect width="88" height="23" fill="#3A559F"/>
<path d="M28.6 7H32.2C32.9 7 33.4 6.99998 33.8 7.09998C34.1 7.19998 34.5 7.3 34.7 7.5C34.9 7.7 35.2 7.89999 35.4 8.29999C35.6 8.59999 35.7 8.99999 35.7 9.29999C35.7 9.69999 35.6 10.1 35.4 10.5C35.2 10.9 34.9 11.1 34.5 11.3C35 11.5 35.5 11.7 35.8 12.1C36.1 12.5 36.2 12.9 36.2 13.5C36.2 13.9 36.1 14.3 35.9 14.7C35.7 15.1 35.5 15.4 35.1 15.6C34.8 15.8 34.4 16 33.9 16C33.6 16 32.9 16.1 31.7 16.1H28.7V7H28.6ZM30.4 8.5V10.6H31.6C32.3 10.6 32.7 10.6 32.9 10.6C33.2 10.6 33.5 10.5 33.6 10.3C33.8 10.1 33.9 9.89998 33.9 9.59998C33.9 9.29998 33.8 9.09996 33.7 8.89996C33.5 8.69996 33.3 8.59998 33 8.59998C32.8 8.59998 32.3 8.59998 31.5 8.59998H30.4V8.5ZM30.4 12.1V14.5H32.1C32.8 14.5 33.2 14.5 33.3 14.4C33.6 14.4 33.8 14.2 34 14C34.2 13.8 34.3 13.6 34.3 13.2C34.3 12.9 34.2 12.7 34.1 12.5C34 12.3 33.8 12.2 33.5 12.1C33.3 12 32.7 12 31.9 12H30.4V12.1Z" fill="white"/>
<path d="M41.4 13.8999L43.1 14.1999C42.9 14.7999 42.5 15.2999 42.1 15.5999C41.7 15.8999 41 16.0999 40.3 16.0999C39.2 16.0999 38.3 15.6999 37.8 14.9999C37.4 14.3999 37.2 13.6999 37.2 12.7999C37.2 11.6999 37.5 10.8999 38 10.2999C38.6 9.69993 39.3 9.3999 40.1 9.3999C41.1 9.3999 41.8 9.6999 42.4 10.3999C43 10.9999 43.2 11.9999 43.2 13.2999H38.9C38.9 13.7999 39.1 14.1999 39.3 14.4999C39.6 14.7999 39.9 14.8999 40.3 14.8999C40.6 14.8999 40.8 14.7999 41 14.6999C41.2 14.4999 41.3 14.1999 41.4 13.8999ZM41.5 12.1999C41.5 11.6999 41.4 11.2999 41.1 11.0999C40.9 10.7999 40.6 10.6999 40.2 10.6999C39.8 10.6999 39.5 10.7999 39.3 11.0999C39.1 11.3999 38.9 11.6999 38.9 12.1999H41.5Z" fill="white"/>
<path d="M50.5 16H48.8V12.7C48.8 12 48.8 11.5 48.7 11.3C48.6 11.1 48.5 10.9 48.3 10.8C48.1 10.7 47.9 10.6 47.7 10.6C47.4 10.6 47.1 10.7 46.9 10.8C46.7 11 46.5 11.2 46.4 11.4C46.3 11.6 46.3 12.2 46.3 12.9V15.8H44.6V9.29999H46.2V10.3C46.8 9.59999 47.5 9.19995 48.3 9.19995C48.7 9.19995 49 9.29996 49.3 9.39996C49.6 9.49996 49.9 9.69996 50 9.89996C50.2 10.1 50.3 10.4 50.3 10.6C50.3 10.8 50.4 11.3 50.4 11.8V16H50.5Z" fill="white"/>
<path d="M58.2 16H56.6V15C56.3 15.4 56 15.6 55.7 15.8C55.3 16 55 16.1 54.6 16.1C53.9 16.1 53.2 15.8 52.7 15.2C52.2 14.6 51.9 13.8 51.9 12.7C51.9 11.6 52.2 10.8 52.7 10.2C53.2 9.59995 53.9 9.29999 54.7 9.29999C55.4 9.29999 56.1 9.59995 56.6 10.2V7H58.3V16H58.2ZM53.6 12.6C53.6 13.3 53.7 13.8 53.9 14.1C54.2 14.5 54.6 14.8 55.1 14.8C55.5 14.8 55.8 14.6 56.1 14.3C56.4 14 56.5 13.5 56.5 12.8C56.5 12.1 56.4 11.5 56.1 11.2C55.8 10.9 55.5 10.7 55.1 10.7C54.7 10.7 54.3 10.9 54.1 11.2C53.9 11.5 53.6 11.9 53.6 12.6Z" fill="white"/>
<path d="M61.5 16.0001H59.8V9.50006H61.4V10.4C61.7 10 61.9 9.70006 62.1 9.50006C62.3 9.40006 62.6 9.30005 62.8 9.30005C63.2 9.30005 63.6 9.40004 63.9 9.60004L63.4 11.1C63.1 10.9 62.8 10.8 62.6 10.8C62.4 10.8 62.2 10.9001 62 11.0001C61.8 11.1001 61.7 11.4 61.6 11.7C61.5 12 61.5 12.8 61.5 13.9V16.0001Z" fill="white"/>
<path d="M64.8 8.59998V7H66.5V8.59998H64.8ZM64.8 16V9.5H66.5V16H64.8Z" fill="white"/>
<path d="M74.2 16H72.5V12.7C72.5 12 72.5 11.5 72.4 11.3C72.3 11.1 72.2 10.9 72 10.8C71.8 10.7 71.6 10.6 71.4 10.6C71.1 10.6 70.8 10.7 70.6 10.8C70.4 11 70.2 11.2 70.1 11.4C70 11.7 70 12.2 70 12.9V15.8H68.3V9.29999H69.9V10.3C70.5 9.59999 71.2 9.19995 72 9.19995C72.4 9.19995 72.7 9.29996 73 9.39996C73.3 9.49996 73.6 9.69996 73.7 9.89996C73.9 10.1 74 10.4 74 10.6C74.1 10.9 74.1 11.3 74.1 11.8V16H74.2Z" fill="white"/>
<path d="M78.9 9.5V10.9H77.7V13.5C77.7 14 77.7 14.3 77.7 14.4C77.7 14.5 77.8 14.6 77.9 14.6C78 14.7 78.1 14.7 78.2 14.7C78.4 14.7 78.6 14.6 78.9 14.5L79 15.8C78.6 16 78.1 16.1 77.6 16.1C77.3 16.1 77 16 76.8 15.9C76.6 15.8 76.4 15.7 76.3 15.5C76.2 15.3 76.1 15.1 76.1 14.8C76.1 14.6 76 14.2 76 13.6V10.8H75.2V9.39996H76V8.09998L77.7 7.09998V9.39996H78.9V9.5Z" fill="white"/>
<path d="M80.1 8.59998V7H81.8V8.59998H80.1ZM80.1 16V9.5H81.8V16H80.1Z" fill="white"/>
<path d="M18.0366 11.446C17.5084 11.446 16.4521 11.446 15.9239 11.446C15.9239 11.1223 15.9239 10.0432 15.9239 9.71943C15.9239 9.61151 15.9239 9.50357 15.9239 9.28774C15.9239 9.07192 16.0295 8.96404 16.2408 8.85613C16.3464 8.85613 16.4521 8.74817 16.6633 8.74817C16.9802 8.74817 18.0366 8.74817 18.3535 8.74817C18.3535 8.74817 18.3535 8.74817 18.4591 8.74817C18.4591 8.10069 18.4591 7.34533 18.4591 6.69785C17.7197 6.69785 16.6633 6.69785 15.9239 6.69785C15.607 6.69785 15.2901 6.80574 15.0788 6.80574C14.5507 7.02156 14.1282 7.34533 13.9169 7.77699C13.8113 8.10073 13.7056 8.53236 13.7056 8.96402C13.7056 9.39567 13.7056 10.7986 13.7056 11.2302C13.7056 11.2302 13.7056 11.2302 13.7056 11.3381C13.3887 11.3381 11.3817 11.3381 11.0648 11.3381C11.0648 11.9856 11.0648 13.2806 11.0648 13.9281C11.3817 13.9281 13.3887 13.9281 13.7056 13.9281C13.7056 15.5468 13.7056 17.3813 13.7056 19H8.21265C7.05068 19 6.09998 18.0288 6.09998 16.8417V6.15828C6.09998 4.97123 7.05068 4 8.21265 4H18.9873C20.1493 4 21.1 4.97123 21.1 6.15828V16.8417C21.1 18.0288 20.1493 19 18.9873 19H16.0296C16.0296 17.3813 16.0296 15.5468 16.0296 13.9281C16.0296 13.9281 16.0295 13.9281 16.1352 13.9281C16.5577 13.9281 17.1915 13.9281 17.7197 13.9281L18.0366 11.446Z" fill="white"/>
</g>
</svg>
