<svg width="76" height="23" viewBox="0 0 76 23" fill="none" xmlns="http://www.w3.org/2000/svg">
<mask id="mask0" mask-type="alpha" maskUnits="userSpaceOnUse" x="0" y="0" width="76" height="23">
<path d="M72.1 0H3.8C1.7 0 0 1.69999 0 3.79999V19.2C0 21.3 1.7 23 3.8 23H72.1C74.2 23 75.9 21.3 75.9 19.2V3.79999C75.8 1.69999 74.1 0 72.1 0Z" fill="#50ABF1"/>
</mask>
<g mask="url(#mask0)">
<rect width="76" height="23" fill="#0274B3"/>
<rect width="76" height="23" fill="#E1E7EC"/>
<rect width="76" height="23" fill="#CB1F24"/>
<rect width="76" height="23" fill="#3A559F"/>
<path d="M28.6 15V6H30.4V10L34.1 6H36.5L33.1 9.5L36.7 15H34.4L31.9 10.8L30.4 12.3V15H28.6Z" fill="white"/>
<path d="M37.2 11.6C37.2 11 37.3 10.5 37.6 9.89998C37.9 9.39998 38.3 8.99998 38.8 8.69998C39.3 8.39998 39.9 8.29999 40.5 8.29999C41.5 8.29999 42.3 8.59999 42.9 9.29999C43.5 9.89999 43.8 10.7 43.8 11.7C43.8 12.7 43.5 13.5 42.8 14.1C42.2 14.7 41.4 15.1 40.4 15.1C39.8 15.1 39.2 15 38.7 14.7C38.2 14.4 37.7 14 37.5 13.5C37.4 13 37.2 12.4 37.2 11.6ZM39 11.7C39 12.3 39.2 12.8 39.5 13.2C39.8 13.6 40.2 13.7 40.6 13.7C41 13.7 41.4 13.5 41.7 13.2C42 12.9 42.2 12.4 42.2 11.7C42.2 11.1 42 10.6 41.7 10.2C41.4 9.89998 41 9.69998 40.6 9.69998C40.2 9.69998 39.8 9.89998 39.5 10.2C39.2 10.5 39 11.1 39 11.7Z" fill="white"/>
<path d="M51.2 15H49.5V11.7C49.5 11 49.5 10.5 49.4 10.3C49.3 10.1 49.2 9.90002 49 9.80002C48.8 9.70002 48.6 9.60001 48.4 9.60001C48.1 9.60001 47.8 9.70002 47.6 9.80002C47.4 9.90002 47.2 10.2 47.1 10.4C47 10.7 47 11.2 47 11.9V14.8H45.3V8.30002H46.9V9.30002C47.5 8.60002 48.2 8.20001 49 8.20001C49.4 8.20001 49.7 8.30001 50 8.40001C50.3 8.50001 50.6 8.70001 50.7 8.90001C50.8 9.10001 51 9.40001 51 9.60001C51.1 9.90001 51.1 10.3 51.1 10.8V15H51.2Z" fill="white"/>
<path d="M52.8 15.4L54.8 15.6C54.8 15.8 54.9 16 55 16.1C55.2 16.2 55.4 16.3 55.8 16.3C56.2 16.3 56.6 16.2 56.8 16.1C57 16 57.1 15.9 57.1 15.7C57.2 15.6 57.2 15.3 57.2 14.9V14C56.7 14.7 56 15.1 55.3 15.1C54.4 15.1 53.7 14.7 53.2 14C52.8 13.4 52.6 12.7 52.6 11.8C52.6 10.7 52.9 9.90003 53.4 9.30003C53.9 8.70003 54.6 8.40002 55.4 8.40002C56.2 8.40002 56.9 8.80003 57.4 9.50003V8.60002H59V14.4C59 15.2 58.9 15.7 58.8 16.1C58.7 16.5 58.5 16.8 58.3 17C58.1 17.2 57.8 17.4 57.4 17.5C57 17.6 56.5 17.7 56 17.7C54.9 17.7 54.1 17.5 53.7 17.1C53.2 16.7 53 16.2 53 15.7C52.8 15.5 52.8 15.5 52.8 15.4ZM54.3 11.6C54.3 12.3 54.4 12.8 54.7 13.1C55 13.4 55.3 13.6 55.7 13.6C56.1 13.6 56.5 13.4 56.8 13.1C57.1 12.8 57.2 12.3 57.2 11.6C57.2 10.9 57.1 10.4 56.8 10.1C56.5 9.80002 56.2 9.60002 55.7 9.60002C55.3 9.60002 54.9 9.80002 54.7 10.1C54.4 10.4 54.3 10.9 54.3 11.6Z" fill="white"/>
<path d="M60 13.1L61.7 12.8C61.8 13.1 61.9 13.4 62.1 13.6C62.3 13.8 62.6 13.9 63 13.9C63.4 13.9 63.8 13.8 64 13.7C64.2 13.6 64.2 13.4 64.2 13.2C64.2 13.1 64.2 13 64.1 12.9C64 12.8 63.8 12.7 63.5 12.7C62.1 12.4 61.2 12.1 60.9 11.9C60.4 11.5 60.1 11.1 60.1 10.4C60.1 9.80002 60.3 9.40003 60.8 9.00003C61.2 8.60003 61.9 8.40002 62.9 8.40002C63.8 8.40002 64.4 8.50003 64.9 8.80003C65.3 9.10003 65.6 9.50002 65.8 10.1L64.2 10.4C64.1 10.1 64 10 63.8 9.80003C63.6 9.70003 63.3 9.60002 63 9.60002C62.5 9.60002 62.2 9.70003 62 9.80003C61.9 9.90003 61.8 10 61.8 10.1C61.8 10.2 61.9 10.3 62 10.4C62.2 10.5 62.7 10.7 63.6 10.9C64.5 11.1 65.2 11.4 65.5 11.7C65.9 12 66 12.4 66 13C66 13.6 65.8 14.1 65.3 14.5C64.8 14.9 64.1 15.1 63.1 15.1C62.2 15.1 61.5 14.9 61 14.6C60.5 14.2 60.1 13.7 60 13.1Z" fill="white"/>
<path d="M67.5 7.59999V6H69.2V7.59999H67.5ZM67.5 15V8.5H69.2V15H67.5Z" fill="white"/>
<path d="M18.0366 11.446C17.5084 11.446 16.4521 11.446 15.9239 11.446C15.9239 11.1223 15.9239 10.0432 15.9239 9.71943C15.9239 9.61151 15.9239 9.50357 15.9239 9.28774C15.9239 9.07192 16.0295 8.96404 16.2408 8.85613C16.3464 8.85613 16.4521 8.74817 16.6633 8.74817C16.9802 8.74817 18.0366 8.74817 18.3535 8.74817C18.3535 8.74817 18.3535 8.74817 18.4591 8.74817C18.4591 8.10069 18.4591 7.34533 18.4591 6.69785C17.7197 6.69785 16.6633 6.69785 15.9239 6.69785C15.607 6.69785 15.2901 6.80574 15.0788 6.80574C14.5507 7.02156 14.1282 7.34533 13.9169 7.77699C13.8113 8.10073 13.7056 8.53236 13.7056 8.96402C13.7056 9.39567 13.7056 10.7986 13.7056 11.2302C13.7056 11.2302 13.7056 11.2302 13.7056 11.3381C13.3887 11.3381 11.3817 11.3381 11.0648 11.3381C11.0648 11.9856 11.0648 13.2806 11.0648 13.9281C11.3817 13.9281 13.3887 13.9281 13.7056 13.9281C13.7056 15.5468 13.7056 17.3813 13.7056 19H8.21265C7.05068 19 6.09998 18.0288 6.09998 16.8417V6.15828C6.09998 4.97123 7.05068 4 8.21265 4H18.9873C20.1493 4 21.1 4.97123 21.1 6.15828V16.8417C21.1 18.0288 20.1493 19 18.9873 19H16.0296C16.0296 17.3813 16.0296 15.5468 16.0296 13.9281C16.0296 13.9281 16.0295 13.9281 16.1352 13.9281C16.5577 13.9281 17.1915 13.9281 17.7197 13.9281L18.0366 11.446Z" fill="white"/>
</g>
</svg>
