<svg width="81" height="23" viewBox="0 0 81 23" fill="none" xmlns="http://www.w3.org/2000/svg">
<mask id="mask0" mask-type="alpha" maskUnits="userSpaceOnUse" x="0" y="0" width="81" height="23">
<path d="M77.1 0H3.8C1.7 0 0 1.69999 0 3.79999V19.2C0 21.3 1.7 23 3.8 23H77.1C79.2 23 80.9 21.3 80.9 19.2V3.79999C80.8 1.69999 79.1 0 77.1 0Z" fill="#50ABF1"/>
</mask>
<g mask="url(#mask0)">
<rect width="81" height="23" fill="#0274B3"/>
<rect width="81" height="23" fill="#E1E7EC"/>
<rect width="81" height="23" fill="#CB1F24"/>
<rect width="81" height="23" fill="#3A559F"/>
<path d="M34.2 11.3C34.2 12.2 33.9 13 33.4 13.6C32.9 14.2 32.1 14.5 31.3 14.5C30.5 14.5 29.8 14.2 29.2 13.6C28.6 13 28.4 12.3 28.4 11.3C28.4 10.1 28.8 9.19998 29.6 8.59998L30.1 9.29999C29.6 9.79999 29.3 10.5 29.3 11.3C29.3 11.5 29.3 11.8 29.4 12.1C29.9 11.6 30.6 11.4 31.3 11.4C32 11.4 32.7 11.6 33.2 12.1C33.3 11.9 33.3 11.6 33.3 11.4C33.3 10.6 33 9.99996 32.5 9.39996L33 8.69995C33.8 9.19995 34.2 10.1 34.2 11.3ZM32.9 12.7C32.4 12.3 31.9 12 31.3 12C30.7 12 30.2 12.2 29.7 12.7C30.1 13.2 30.6 13.5 31.3 13.5C32 13.5 32.5 13.3 32.9 12.7Z" fill="white"/>
<path d="M36.2 11.3C36.2 11.5 36.1 11.6 35.9 11.6C35.7 11.6 35.6 11.5 35.6 11.3C35.6 11.1 35.7 11 35.9 11C36.1 11.1 36.2 11.2 36.2 11.3ZM36.4 10.2C36.4 10.4 36.3 10.5 36.1 10.5C35.9 10.5 35.8 10.4 35.8 10.2C35.8 9.99995 35.9 9.89996 36.1 9.89996C36.3 9.89996 36.4 9.99995 36.4 10.2ZM36.4 12.5C36.4 12.7 36.3 12.8 36.1 12.8C35.9 12.8 35.8 12.7 35.8 12.5C35.8 12.3 35.9 12.2 36.1 12.2C36.3 12.2 36.4 12.3 36.4 12.5ZM37 9.29999C37 9.49999 36.9 9.59998 36.7 9.59998C36.5 9.59998 36.4 9.49999 36.4 9.29999C36.4 9.09999 36.5 9 36.7 9C36.9 9 37 9.09999 37 9.29999ZM37 13.4C37 13.6 36.9 13.7 36.7 13.7C36.5 13.7 36.4 13.6 36.4 13.4C36.4 13.2 36.5 13.1 36.7 13.1C36.9 13.1 37 13.2 37 13.4ZM38 8.59998C38 8.79998 37.9 8.89996 37.7 8.89996C37.5 8.89996 37.4 8.79998 37.4 8.59998C37.4 8.39998 37.5 8.29999 37.7 8.29999C37.9 8.29999 38 8.39998 38 8.59998ZM38 14.1C38 14.3 37.9 14.4 37.7 14.4C37.5 14.4 37.4 14.3 37.4 14.1C37.4 13.9 37.5 13.8 37.7 13.8C37.9 13.8 38 13.9 38 14.1ZM39.1 8.39996C39.1 8.59996 39 8.69995 38.8 8.69995C38.6 8.69995 38.5 8.59996 38.5 8.39996C38.5 8.19996 38.6 8.09998 38.8 8.09998C39 8.09998 39.1 8.19996 39.1 8.39996ZM39.1 14.3C39.1 14.5 39 14.6 38.8 14.6C38.6 14.6 38.5 14.5 38.5 14.3C38.5 14.1 38.6 14 38.8 14C39 14 39.1 14.1 39.1 14.3ZM40.2 8.59998C40.2 8.79998 40.1 8.89996 39.9 8.89996C39.7 8.89996 39.6 8.79998 39.6 8.59998C39.6 8.39998 39.7 8.29999 39.9 8.29999C40.1 8.29999 40.2 8.39998 40.2 8.59998ZM40.2 14.1C40.2 14.3 40.1 14.4 39.9 14.4C39.7 14.4 39.6 14.3 39.6 14.1C39.6 13.9 39.7 13.8 39.9 13.8C40.1 13.8 40.2 13.9 40.2 14.1ZM41.2 9.29999C41.2 9.49999 41.1 9.59998 40.9 9.59998C40.7 9.59998 40.6 9.49999 40.6 9.29999C40.6 9.09999 40.7 9 40.9 9C41.1 9 41.2 9.09999 41.2 9.29999ZM41.2 13.4C41.2 13.6 41.1 13.7 40.9 13.7C40.7 13.7 40.6 13.6 40.6 13.4C40.6 13.2 40.7 13.1 40.9 13.1C41.1 13.1 41.2 13.2 41.2 13.4ZM41.8 10.2C41.8 10.4 41.7 10.5 41.5 10.5C41.3 10.5 41.2 10.4 41.2 10.2C41.2 9.99995 41.3 9.89996 41.5 9.89996C41.7 9.89996 41.8 9.99995 41.8 10.2ZM41.8 12.5C41.8 12.7 41.7 12.8 41.5 12.8C41.3 12.8 41.2 12.7 41.2 12.5C41.2 12.3 41.3 12.2 41.5 12.2C41.7 12.2 41.8 12.3 41.8 12.5ZM41.8 11.1C42 11.1 42.1 11.2 42.1 11.4C42.1 11.6 42 11.7 41.8 11.7C41.6 11.7 41.5 11.6 41.5 11.4C41.5 11.2 41.6 11.1 41.8 11.1Z" fill="white"/>
<path d="M44.3 19.8L40.1 18.7V16.7L38.7 19.1L37.1 18.1L37.5 17.4L38.4 18.0001L40.2 14.9L40.9 15.4V18.1L43.3 18.7V8.80005H44.2V19.8H44.3Z" fill="white"/>
<path d="M51.8 12.0999C51.8 12.5999 51.5 13.0999 51 13.5999C50.5 14.0999 49.8 14.2999 49 14.2999C48.2 14.2999 47.5 13.9999 46.9 13.3999C46.3 12.7999 46.1 12.0999 46.1 11.2999C46.1 10.4999 46.4 9.89993 46.9 9.29993C47.5 8.69993 48.2 8.3999 49 8.3999C49.6 8.3999 50.1 8.49993 50.6 8.79993C51.1 9.09993 51.5 9.49994 51.7 9.99994L50.9 10.3999C50.7 9.9999 50.4 9.69994 50.1 9.49994C49.8 9.29994 49.4 9.19989 49 9.19989C48.4 9.19989 47.9 9.39993 47.5 9.79993C47.1 10.1999 46.9 10.6999 46.9 11.1999C46.9 11.5999 47.1 12.0999 47.4 12.3999C48 11.5999 48.8 11.1999 49.8 11.1999C50.3 11.4999 51 11.6999 51.8 12.0999ZM50.8 12.4999C50.4 12.2999 50.1 12.2999 49.7 12.2999C48.9 12.2999 48.3 12.5999 47.9 13.2999C48.2 13.4999 48.6 13.5999 48.9 13.5999C49.3 13.5999 49.6 13.4999 50 13.2999C50.3 13.0999 50.6 12.7999 50.8 12.4999Z" fill="white"/>
<path d="M58.9 11.5C58.9 12.3 58.6 13 58.1 13.6C57.5 14.2 56.9 14.5 56.1 14.5C55.3 14.5 54.7 14.2 54.1 13.6C53.5 13 53.2 12.3 53.2 11.5C53.2 10.7 53.5 9.99996 54 9.39996C54.6 8.79996 55.2 8.5 56 8.5C56.8 8.5 57.5 8.79996 58 9.39996C58.6 9.99996 58.9 10.7 58.9 11.5ZM58 11.5C58 10.9 57.8 10.5 57.4 10.1C57 9.69998 56.5 9.5 56 9.5C55.4 9.5 55 9.69998 54.6 10.1C54.2 10.5 54 11 54 11.5C54 12.1 54.2 12.5 54.6 12.9C55 13.3 55.5 13.5 56 13.5C56.5 13.5 57 13.3 57.4 12.9C57.8 12.5 58 12 58 11.5Z" fill="white"/>
<path d="M67.3 19.8H65.5V12C65.5 11.2 65.3 10.6 64.8 10.1C64.3 9.59998 63.8 9.39996 63.2 9.39996C62.7 9.39996 62.2 9.59996 61.9 9.89996C61.6 10.2 61.3 10.7 61.2 11.1C61.3 11.1 61.3 11.1 61.5 11.1C62.1 11.1 62.6 11.2 63 11.5C63.4 11.7 63.8 12.1 64 12.5C64.2 12.9 64.5 13.4 64.6 14C64.2 14.2 63.7 14.4 63.1 14.4C62.3 14.4 61.6 14.1 61 13.5C60.4 12.9 60.1 12.2 60.1 11.4C60.1 10.6 60.4 9.89996 60.9 9.39996C61.5 8.79996 62.2 8.5 63 8.5C63.9 8.5 64.6 8.79996 65.2 9.39996C65.8 9.99996 66.1 10.8 66.1 11.9V18.9H67.1V19.8H67.3ZM63.6 13.5C63.4 12.9 63 12.5 62.5 12.2C62.2 12 61.8 12 61.4 12C61.3 12 61.2 12 61.1 12C61.2 12.4 61.5 12.8 61.8 13.1C62.2 13.4 62.6 13.5 63.1 13.5C63.3 13.5 63.5 13.5 63.6 13.5Z" fill="white"/>
<path d="M73 12.4C73 12.9 72.9 13.3 72.6 13.6C72.3 13.9 71.9 14.1 71.3 14.2V19.7H70.4V14.3H70C69.7 14.3 69.4 14.3 69.2 14.3C69 14.3 68.7 14.2 68.5 14.1C68.3 14 68.1 13.9 67.9 13.7C67.8 13.5 67.7 13.3 67.7 13C67.7 12.6 67.9 12.3 68.2 12C68.5 11.7 68.9 11.6 69.4 11.6C69.9 11.6 70.3 11.8 70.6 12.1C70.9 12.4 71.2 12.9 71.2 13.4C71.8 13.3 72.1 12.9 72.1 12.4C72.1 12.1 72 11.9 71.8 11.7C71.6 11.5 71.3 11.4 71 11.3C70.7 11.2 70.3 11.1 70 11C69.7 10.9 69.4 10.7 69.2 10.5C69 10.3 68.9 10.1 68.9 9.79999C68.9 9.39999 69.1 9.09996 69.4 8.89996C69.7 8.69996 70.1 8.59998 70.6 8.59998C71.2 8.59998 71.6 8.79998 72 9.09998L71.5 9.69995C71.3 9.49995 71 9.39996 70.6 9.39996C70.1 9.39996 69.8 9.49999 69.8 9.79999C69.8 9.89999 69.9 10.1 70.1 10.2C70.3 10.3 70.6 10.4 70.9 10.5C71.2 10.6 71.6 10.7 71.9 10.9C72.2 11.1 72.5 11.3 72.7 11.5C72.9 11.7 73 12 73 12.4ZM70.3 13.6C70.2 13.3 70.1 13 69.9 12.8C69.7 12.6 69.5 12.5 69.3 12.5C69.1 12.5 68.9 12.6 68.7 12.7C68.5 12.8 68.4 12.9 68.4 13.1C68.4 13.5 68.9 13.7 69.8 13.7H70.3V13.6Z" fill="white"/>
<path d="M73.7 3.89996L73.2 4.29999C72.9 3.79999 72.5 3.59998 72 3.59998C71.6 3.59998 71.2 3.8 70.9 4C70.6 4.2 70.4 4.69998 70.4 5.09998C70.4 5.49998 70.5 5.79998 70.7 6.09998C70.9 6.39998 71.1 6.59995 71.4 6.69995C71.6 6.79995 71.8 6.89996 72 6.89996V7.59998C71.5 7.59998 71 7.39996 70.5 6.89996C70 6.49996 69.8 5.89995 69.8 5.19995C69.8 4.49995 70 3.99998 70.5 3.59998C71 3.19998 71.5 3 72.1 3C72.4 3 72.8 3.09999 73.1 3.29999C73.3 3.39999 73.5 3.59996 73.7 3.89996Z" fill="white"/>
<path d="M18.0366 11.446C17.5084 11.446 16.4521 11.446 15.9239 11.446C15.9239 11.1223 15.9239 10.0432 15.9239 9.71943C15.9239 9.61151 15.9239 9.50357 15.9239 9.28774C15.9239 9.07192 16.0295 8.96404 16.2408 8.85613C16.3464 8.85613 16.4521 8.74817 16.6633 8.74817C16.9802 8.74817 18.0366 8.74817 18.3535 8.74817C18.3535 8.74817 18.3535 8.74817 18.4591 8.74817C18.4591 8.10069 18.4591 7.34533 18.4591 6.69785C17.7197 6.69785 16.6633 6.69785 15.9239 6.69785C15.607 6.69785 15.2901 6.80574 15.0788 6.80574C14.5507 7.02156 14.1282 7.34533 13.9169 7.77699C13.8113 8.10073 13.7056 8.53236 13.7056 8.96402C13.7056 9.39567 13.7056 10.7986 13.7056 11.2302C13.7056 11.2302 13.7056 11.2302 13.7056 11.3381C13.3887 11.3381 11.3817 11.3381 11.0648 11.3381C11.0648 11.9856 11.0648 13.2806 11.0648 13.9281C11.3817 13.9281 13.3887 13.9281 13.7056 13.9281C13.7056 15.5468 13.7056 17.3813 13.7056 19H8.21265C7.05068 19 6.09998 18.0288 6.09998 16.8417V6.15828C6.09998 4.97123 7.05068 4 8.21265 4H18.9873C20.1493 4 21.1 4.97123 21.1 6.15828V16.8417C21.1 18.0288 20.1493 19 18.9873 19H16.0296C16.0296 17.3813 16.0296 15.5468 16.0296 13.9281C16.0296 13.9281 16.0295 13.9281 16.1352 13.9281C16.5577 13.9281 17.1915 13.9281 17.7197 13.9281L18.0366 11.446Z" fill="white"/>
</g>
</svg>
