<svg width="100" height="23" viewBox="0 0 100 23" fill="none" xmlns="http://www.w3.org/2000/svg">
<mask id="mask0" mask-type="alpha" maskUnits="userSpaceOnUse" x="0" y="0" width="100" height="23">
<path d="M96.1 0H3.80002C1.70002 0 0 1.69999 0 3.79999V19.2C0 21.3 1.70002 23 3.80002 23H96.1C98.2 23 99.9 21.3 99.9 19.2V3.79999C99.8 1.69999 98.1 0 96.1 0Z" fill="#50ABF1"/>
</mask>
<g mask="url(#mask0)">
<rect width="100" height="23" fill="#0274B3"/>
<rect width="100" height="23" fill="#E1E7EC"/>
<rect width="100" height="23" fill="#CB1F24"/>
<rect width="100" height="23" fill="#3A559F"/>
<path d="M31 6.09998H32.8V11C32.8 11.8 32.8 12.3 32.9 12.5C33 12.9 33.2 13.2 33.5 13.4C33.8 13.6 34.2 13.7 34.7 13.7C35.2 13.7 35.6 13.6 35.9 13.4C36.2 13.2 36.3 12.9 36.4 12.6C36.5 12.3 36.5 11.8 36.5 11.1V6.09998H38.3V10.8C38.3 11.9 38.3 12.6 38.2 13.1C38.1 13.6 37.9 13.9 37.7 14.2C37.4 14.5 37.1 14.7 36.6 14.9C36.2 15.1 35.6 15.2 34.9 15.2C34 15.2 33.4 15.1 33 14.9C32.6 14.7 32.2 14.4 32 14.1C31.7 13.8 31.6 13.5 31.5 13.1C31.4 12.6 31.3 11.8 31.3 10.8V6.09998H31Z" fill="white"/>
<path d="M46 15H44.4V14C44.1 14.4 43.8 14.6 43.5 14.8C43.1 15 42.8 15.1 42.4 15.1C41.7 15.1 41 14.8 40.5 14.2C40 13.6 39.7 12.8 39.7 11.7C39.7 10.6 40 9.79995 40.5 9.19995C41 8.59995 41.7 8.29999 42.5 8.29999C43.2 8.29999 43.9 8.59995 44.4 9.19995V6H46.1V15H46ZM41.4 11.6C41.4 12.3 41.5 12.8 41.7 13.1C42 13.5 42.4 13.8 42.9 13.8C43.3 13.8 43.6 13.6 43.9 13.3C44.2 13 44.3 12.5 44.3 11.8C44.3 11.1 44.2 10.5 43.9 10.2C43.6 9.89995 43.3 9.69995 42.9 9.69995C42.5 9.69995 42.2 9.89995 41.9 10.2C41.6 10.5 41.4 11 41.4 11.6Z" fill="white"/>
<path d="M47.3 11.7C47.3 11.1 47.4 10.6 47.7 10C48 9.5 48.4 9.09999 48.9 8.79999C49.4 8.49999 50 8.39996 50.6 8.39996C51.6 8.39996 52.4 8.69996 53 9.39996C53.6 9.99996 53.9 10.8 53.9 11.8C53.9 12.8 53.6 13.6 52.9 14.2C52.3 14.8 51.5 15.2 50.5 15.2C49.9 15.2 49.3 15.1 48.8 14.8C48.3 14.5 47.8 14.1 47.6 13.6C47.4 13.1 47.3 12.4 47.3 11.7ZM49 11.8C49 12.4 49.2 12.9 49.5 13.3C49.8 13.6 50.2 13.8 50.6 13.8C51 13.8 51.4 13.6 51.7 13.3C52 13 52.2 12.5 52.2 11.8C52.2 11.2 52 10.7 51.7 10.3C51.4 9.99999 51 9.79999 50.6 9.79999C50.2 9.79999 49.8 9.99999 49.5 10.3C49.2 10.6 49 11.1 49 11.8Z" fill="white"/>
<path d="M59 8.59998C59 8.49998 59 8.39999 58.9 8.29999C58.9 8.19999 58.9 7.99996 58.9 7.89996C58.9 7.59996 59 7.29998 59.1 7.09998C59.2 6.89998 59.4 6.7 59.6 6.5C59.8 6.3 60.1 6.19998 60.3 6.09998C60.6 5.99998 60.9 6 61.3 6C61.6 6 62 5.99998 62.3 6.09998C62.6 6.09998 62.8 6.19999 63.1 6.29999C63.4 6.39999 63.6 6.4 63.8 6.5V8.69995H65V10.1H63.7V12.7C63.7 13 63.7 13.2 63.7 13.3C63.7 13.5 63.7 13.6 63.7 13.6C63.7 13.7 63.8 13.8 63.9 13.8C64 13.9 64.1 13.9 64.2 13.9C64.4 13.9 64.6 13.8 64.9 13.7L65 15C64.6 15.2 64.1 15.3 63.6 15.3C63.3 15.3 63 15.2 62.8 15.1C62.6 15 62.4 14.9 62.3 14.7C62.2 14.5 62.1 14.3 62.1 14C62.1 13.8 62 13.4 62 12.8V10H61.2V8.59998H62V7.09998C61.9 7.09998 61.8 7.09998 61.8 7.09998C61.7 7.09998 61.7 7.09998 61.6 7.09998C61.5 7.09998 61.4 7.09998 61.4 7.09998C61.2 7.09998 61.1 7.09998 60.9 7.09998C60.7 7.09998 60.6 7.19999 60.5 7.29999C60.4 7.39999 60.3 7.49998 60.3 7.59998C60.3 7.69998 60.2 7.89998 60.2 8.09998C60.2 8.29998 60.2 8.49995 60.2 8.69995C60.2 8.89995 60.3 9.09999 60.3 9.29999C60.3 9.49999 60.4 9.69999 60.4 9.79999C60.4 9.89999 60.5 10.1 60.5 10.2L58.9 10.5C58.8 10.2 58.7 9.99996 58.5 9.89996C58.3 9.79996 58 9.69995 57.7 9.69995C57.2 9.69995 56.9 9.79996 56.7 9.89996C56.6 9.99996 56.5 10.1 56.5 10.2C56.5 10.3 56.6 10.4 56.7 10.5C56.8 10.6 57.4 10.8 58.3 11C59.2 11.2 59.9 11.5 60.2 11.8C60.6 12.1 60.7 12.5 60.7 13.1C60.7 13.7 60.5 14.2 60 14.6C59.5 15 58.8 15.2 57.8 15.2C57.4 15.2 57 15.2 56.6 15.1C56.2 15 55.9 14.9 55.7 14.7C55.4 14.5 55.2 14.3 55.1 14.1C54.9 13.9 54.8 13.6 54.7 13.3L56.4 13C56.5 13.3 56.6 13.6 56.8 13.8C57 14 57.3 14.1 57.7 14.1C58.1 14.1 58.5 14 58.7 13.9C58.9 13.8 58.9 13.6 58.9 13.4C58.9 13.3 58.9 13.2 58.8 13.1C58.7 13 58.5 12.9 58.2 12.9C56.8 12.6 55.9 12.3 55.6 12.1C55.1 11.8 54.8 11.3 54.8 10.6C54.8 9.99998 55 9.59995 55.5 9.19995C56 8.79995 56.6 8.59998 57.6 8.59998C57.9 8.59998 58.1 8.59998 58.3 8.59998C58.6 8.49998 58.9 8.49998 59 8.59998Z" fill="white"/>
<path d="M69.9 13L71.6 13.3C71.4 13.9 71 14.4 70.6 14.7C70.2 15 69.5 15.2 68.8 15.2C67.7 15.2 66.8 14.8 66.3 14.1C65.9 13.5 65.7 12.8 65.7 11.9C65.7 10.8 66 9.99996 66.5 9.39996C67.1 8.79996 67.8 8.5 68.6 8.5C69.6 8.5 70.3 8.8 70.9 9.5C71.5 10.1 71.7 11.1 71.7 12.4H67.4C67.4 12.9 67.6 13.3 67.8 13.6C68.1 13.9 68.4 14 68.8 14C69.1 14 69.3 13.9 69.5 13.8C69.6 13.5 69.8 13.3 69.9 13ZM70 11.2C70 10.7 69.9 10.3 69.6 10.1C69.3 9.89998 69.1 9.69995 68.7 9.69995C68.3 9.69995 68 9.79998 67.8 10.1C67.6 10.4 67.4 10.7 67.4 11.2H70ZM69.8 15C69.7 15.1 69.7 15.1 69.6 15.2C69.5 15.3 69.5 15.4 69.4 15.4C69.4 15.5 69.3 15.6 69.3 15.7C69.3 15.8 69.3 15.9 69.3 16C69.3 16.1 69.3 16.2 69.4 16.3C69.5 16.4 69.6 16.4 69.8 16.4C69.9 16.4 70 16.4 70 16.4C70.1 16.4 70.2 16.3 70.3 16.3V17.3C70 17.5 69.6 17.5 69.4 17.5C69.2 17.5 69 17.5 68.8 17.4C68.6 17.3 68.5 17.3 68.4 17.1C68.3 17 68.2 16.9 68.1 16.7C68 16.6 68 16.4 68 16.3C68 16.1 68.1 15.8 68.2 15.6C68.3 15.4 68.5 15.1 68.8 14.9H69.8V15Z" fill="white"/>
<path d="M73 8.5H74.6V9.5C74.8 9.2 75.1 8.89995 75.4 8.69995C75.8 8.49995 76.1 8.39996 76.6 8.39996C77.4 8.39996 78 8.69999 78.5 9.29999C79 9.89999 79.3 10.7 79.3 11.8C79.3 12.9 79 13.7 78.5 14.3C78 14.9 77.3 15.2 76.6 15.2C76.2 15.2 75.9 15.1 75.6 15C75.3 14.9 75 14.6 74.7 14.3V17.6H73V8.5ZM74.7 11.7C74.7 12.4 74.8 13 75.1 13.3C75.4 13.6 75.7 13.8 76.2 13.8C76.6 13.8 76.9 13.6 77.2 13.3C77.5 13 77.6 12.5 77.6 11.7C77.6 11 77.5 10.5 77.2 10.2C76.9 9.89995 76.6 9.69995 76.2 9.69995C75.8 9.69995 75.4 9.89995 75.2 10.2C75 10.5 74.7 11 74.7 11.7Z" fill="white"/>
<path d="M86.6 15H84.9V11.7C84.9 11 84.9 10.5 84.8 10.3C84.7 10.1 84.6 9.89999 84.4 9.79999C84.2 9.69999 84 9.59998 83.8 9.59998C83.5 9.59998 83.2 9.69999 83 9.79999C82.8 9.89999 82.6 10.2 82.5 10.4C82.4 10.7 82.4 11.2 82.4 11.9V14.8H80.7V8.29999H82.3V9.29999C82.9 8.59999 83.6 8.19995 84.4 8.19995C84.8 8.19995 85.1 8.29996 85.4 8.39996C85.7 8.49996 86 8.69996 86.1 8.89996C86.2 9.09996 86.4 9.39998 86.4 9.59998C86.5 9.89998 86.5 10.3 86.5 10.8V15H86.6Z" fill="white"/>
<path d="M88.4 7.69995V6.09998H90.1V7.69995H88.4ZM88.4 15V8.5H90.1V15H88.4Z" fill="white"/>
<path d="M93.5 8.5V14.8C93.5 15.6 93.4 16.2 93.3 16.6C93.2 16.9 93 17.2 92.7 17.4C92.4 17.6 92 17.7 91.5 17.7C91.3 17.7 91.1 17.7 90.9 17.7C90.7 17.7 90.5 17.6 90.3 17.6L90.6 16.1C90.7 16.1 90.8 16.1 90.8 16.1C90.9 16.1 90.9 16.1 91 16.1C91.2 16.1 91.3 16.1 91.4 16C91.5 15.9 91.6 15.8 91.6 15.7C91.6 15.6 91.7 15.3 91.7 14.7V8.5H93.5ZM91.8 7.69995V6.09998H93.5V7.69995H91.8Z" fill="white"/>
<path d="M18.0366 11.446C17.5084 11.446 16.4521 11.446 15.9239 11.446C15.9239 11.1223 15.9239 10.0432 15.9239 9.71943C15.9239 9.61151 15.9239 9.50357 15.9239 9.28774C15.9239 9.07192 16.0295 8.96404 16.2408 8.85613C16.3464 8.85613 16.4521 8.74817 16.6633 8.74817C16.9802 8.74817 18.0366 8.74817 18.3535 8.74817C18.3535 8.74817 18.3535 8.74817 18.4591 8.74817C18.4591 8.10069 18.4591 7.34533 18.4591 6.69785C17.7197 6.69785 16.6633 6.69785 15.9239 6.69785C15.607 6.69785 15.2901 6.80574 15.0788 6.80574C14.5507 7.02156 14.1282 7.34533 13.9169 7.77699C13.8113 8.10073 13.7056 8.53236 13.7056 8.96402C13.7056 9.39567 13.7056 10.7986 13.7056 11.2302C13.7056 11.2302 13.7056 11.2302 13.7056 11.3381C13.3887 11.3381 11.3817 11.3381 11.0648 11.3381C11.0648 11.9856 11.0648 13.2806 11.0648 13.9281C11.3817 13.9281 13.3887 13.9281 13.7056 13.9281C13.7056 15.5468 13.7056 17.3813 13.7056 19H8.21265C7.05068 19 6.09998 18.0288 6.09998 16.8417V6.15828C6.09998 4.97123 7.05068 4 8.21265 4H18.9873C20.1493 4 21.1 4.97123 21.1 6.15828V16.8417C21.1 18.0288 20.1493 19 18.9873 19H16.0296C16.0296 17.3813 16.0296 15.5468 16.0296 13.9281C16.0296 13.9281 16.0295 13.9281 16.1352 13.9281C16.5577 13.9281 17.1915 13.9281 17.7197 13.9281L18.0366 11.446Z" fill="white"/>
</g>
</svg>
