<svg width="69" height="23" viewBox="0 0 69 23" fill="none" xmlns="http://www.w3.org/2000/svg">
<mask id="mask0" mask-type="alpha" maskUnits="userSpaceOnUse" x="0" y="0" width="69" height="23">
<path d="M65.1 0H3.8C1.7 0 0 1.69999 0 3.79999V19.2C0 21.3 1.7 23 3.8 23H65.1C67.2 23 68.9 21.3 68.9 19.2V3.79999C68.8 1.69999 67.1 0 65.1 0Z" fill="#50ABF1"/>
</mask>
<g mask="url(#mask0)">
<rect width="69" height="23" fill="#0274B3"/>
<rect width="69" height="23" fill="#E1E7EC"/>
<rect width="69" height="23" fill="#CB1F24"/>
<rect width="69" height="23" fill="#3A559F"/>
<path d="M33.3 13.7C33.3 14.3 33 14.9 32.3 15.4C31.6 15.9 30.9 16.1 30.1 16.1C29.4 16.1 28.9 15.9 28.5 15.6C28.1 15.2 27.9 14.8 27.9 14.1C27.9 13.5 28 13 28.1 12.6C28.3 12.1 28.6 11.5 29.1 10.8L29.5 11.1C29.2 11.6 29 12 28.8 12.3C28.7 12.7 28.6 13 28.6 13.3C28.6 13.7 28.7 14 29 14.2C29.3 14.4 29.7 14.5 30.2 14.5C30.9 14.5 31.5 14.4 31.9 14.1C32.3 13.8 32.6 13.5 32.6 13C32.6 12.9 32.6 12.9 32.6 12.8C32.6 12.7 32.6 12.7 32.6 12.7C32.6 12.5 32.6 12.4 32.6 12.2C32.6 12 32.5 11.6 32.4 11C32.2 10 32.1 9.09998 31.9 8.09998L31.6 7.89996C31.6 7.49996 31.8 6.89998 32.2 6.09998L32.5 6.20001C32.5 6.30001 32.5 6.29996 32.5 6.39996C32.5 6.59996 32.6 6.69999 32.8 6.79999C33 6.89999 33.3 7.10001 33.5 7.20001C33.5 7.60001 33.4 7.8 33.4 8C33.4 8.2 33.3 8.40001 33.1 8.70001L32.9 8.59998C32.9 8.69998 33 8.99998 33.1 9.59998C33.2 10.2 33.3 10.8 33.4 11.2C33.5 11.9 33.6 12.3 33.6 12.4V13.7H33.3Z" fill="white"/>
<path d="M39 13.3999C39 14.0999 38.7 14.7999 38.1 15.4999C37.5 16.1999 36.9 16.4999 36.3 16.4999C36 16.4999 35.6 16.4 35.2 16.2C34.8 16 34.2 15.5999 33.4 14.8999L33.7 14.4999C34.1 14.7999 34.5 14.9999 34.8 15.0999C35 15.1999 35.3 15.2 35.6 15.2C36 15.2 36.4 15.0999 36.8 14.8999C37.3 14.5999 37.7 14.1999 38.2 13.5999C38 13.5999 37.9 13.5999 37.8 13.5999C37.4 13.5999 37.1 13.5 36.8 13.2C36.6 12.9 36.4 12.5999 36.4 12.0999C36.4 11.4999 36.5 10.8999 36.8 10.2999C37.1 9.69993 37.5 9.3999 37.8 9.3999C38.1 9.3999 38.4 9.59991 38.6 10.0999C38.8 10.4999 38.9 11.1 38.9 11.7V13.3999H39ZM38.3 12.2C38.2 11.5 38 11.2 37.6 11.2C37.5 11.2 37.4 11.1999 37.3 11.3999C37.2 11.4999 37.2 11.6 37.2 11.7C37.2 11.8 37.3 11.9999 37.4 12.0999C37.5 12.1999 37.8 12.2 38 12.2H38.3Z" fill="white"/>
<path d="M38.6 13.8V12.1H39.6C40 12.1 40.4 12.1 40.6 12.1C41 12.1 41.2 12 41.4 11.9C41.6 11.8 41.7 11.6 41.7 11.4C41.7 11.3 41.6 11.2 41.5 11C41.4 10.8 41.2 10.7 41 10.6L40.8 10.8C40.5 10.5 40.3 10.3 40.2 10.2C40 9.90001 39.9 9.69996 39.9 9.39996C39.9 8.99996 39.9 8.7 40 8.5C40.1 8.3 40.3 8.09996 40.5 7.89996C40.7 7.69996 41 7.59996 41.4 7.39996C41.7 7.29996 42.1 7.09996 42.5 6.89996C42.9 6.79996 43.3 6.6 43.7 6.5V8L43 8.20001C42.5 8.40001 42.1 8.49998 41.8 8.59998C41.4 8.79998 41.1 8.9 41.1 9C41.1 9.1 41.1 9.09998 41.1 9.09998C41.1 9.19998 41.1 9.29996 41.2 9.39996C41.3 9.49996 41.6 9.7 41.9 10C42.2 10.2 42.5 10.5 43 11C43.4 11.4 43.7 11.7 43.9 11.8C44.2 12 44.5 12.1 44.8 12.1H45.7V13.8H44.9C44.6 13.8 44.3 13.7 43.9 13.4C43.6 13.2 43.3 12.9 43 12.5C42.8 12.3 42.6 12 42.3 11.7C42.3 12.4 42.1 12.9 41.6 13.2C41.1 13.6 40.4 13.7 39.3 13.7H38.6V13.8Z" fill="white"/>
<path d="M49.2 13.8H45.4V12.1H48.6C48.6 11.8 48.5 11.6 48.4 11.4C48.3 11.3 48.2 11.1 48 10.8L48.5 9.30005C48.8 9.60005 49 10 49.1 10.4C49.2 10.8 49.3 11.3 49.3 12.1V13.8H49.2ZM49.1 14.9L48.5 16.1L47.6 15.6L47.1 16.6L46 16.0001L46.7 14.8L47.6 15.3L48.1 14.3L49.1 14.9Z" fill="white"/>
<path d="M54.6 14.0001C54.6 14.2001 54.5 14.6001 54.2 15.0001C53.9 15.4001 53.6 15.8 53.2 16.1C52.8 16.4 52.4 16.6 52.1 16.6C51.7 16.6 51.4 16.5 50.9 16.3C50.5 16.1 50 15.8001 49.2 15.2001L49.5 14.8C49.9 15 50.2 15.2 50.4 15.3C50.6 15.4 50.9 15.4 51.1 15.4C51.4 15.4 51.7 15.3001 51.9 15.2001C52.2 15.0001 52.6 14.7 53 14.3C53.7 13.7 54 13.2 54 12.9C54 12.7 53.9 12.5 53.8 12.3C53.7 12 53.5 11.7001 53.3 11.5001L53.6 9.80005C53.9 10.1 54.1 10.4 54.2 10.8C54.4 11.2 54.4 11.6 54.4 12.1V14.0001H54.6Z" fill="white"/>
<path d="M62.2 13.8C61.7 13.8 61.4 13.8 61.1 13.7C60.8 13.6 60.5 13.5 60.2 13.4C60 13.6 59.8 13.7 59.6 13.7C59.4 13.8 59.1 13.8 58.8 13.8H57.8C57.5 13.8 57.3 13.7 57.2 13.6C57 13.5 56.9 13.2 56.8 12.9C56.6 13.2 56.3 13.5 56 13.6C55.8 13.7 55.5 13.8 55.2 13.8H54.3V12.1H55.2C55.6 12.1 56 12 56.3 11.7C56.7 11.4 56.9 10.9 56.9 10.3L57.3 10.4C57.3 10.5 57.3 10.7 57.3 10.8C57.3 11 57.3 11.2 57.3 11.4C57.3 11.6 57.4 11.8 57.5 11.9C57.6 12 57.8 12.1 58 12.1H58.8C59.3 12.1 59.7 12 59.9 11.9C60.2 11.7 60.3 11.4 60.3 11C60.3 10.9 60.3 10.8 60.4 10.7C60.4 10.7 60.5 10.6 60.6 10.5L60.8 10.3C60.8 10.4 60.8 10.5 60.8 10.6C60.8 10.7 60.8 10.8 60.8 10.9C60.8 11.1 60.8 11.4 60.7 11.8C60.9 11.9 61 11.9 61.2 12C61.4 12.1 61.6 12.1 61.8 12.1C61.8 12 61.7 11.8 61.6 11.6C61.5 11.4 61.4 11.2 61.4 11.2C61.4 11.1 61.4 11 61.4 11C61.4 11 61.5 10.9 61.5 10.8L62 10.1C62.1 10.4 62.2 10.6 62.2 10.8C62.2 11 62.3 11.3 62.3 11.6V13.8H62.2ZM61.5 8L60.8 9.20001L59.9 8.70001L59.4 9.70001L58.3 9.09998L58.9 7.89996L59.8 8.39996L60.3 7.39996L61.5 8ZM60.3 6.5L59.7 7.79999L58.6 7.20001L59.2 6L60.3 6.5Z" fill="white"/>
<path d="M18.0366 11.446C17.5084 11.446 16.4521 11.446 15.9239 11.446C15.9239 11.1223 15.9239 10.0432 15.9239 9.71943C15.9239 9.61151 15.9239 9.50357 15.9239 9.28774C15.9239 9.07192 16.0295 8.96404 16.2408 8.85613C16.3464 8.85613 16.4521 8.74817 16.6633 8.74817C16.9802 8.74817 18.0366 8.74817 18.3535 8.74817C18.3535 8.74817 18.3535 8.74817 18.4591 8.74817C18.4591 8.10069 18.4591 7.34533 18.4591 6.69785C17.7197 6.69785 16.6633 6.69785 15.9239 6.69785C15.607 6.69785 15.2901 6.80574 15.0788 6.80574C14.5507 7.02156 14.1282 7.34533 13.9169 7.77699C13.8113 8.10073 13.7056 8.53236 13.7056 8.96402C13.7056 9.39567 13.7056 10.7986 13.7056 11.2302C13.7056 11.2302 13.7056 11.2302 13.7056 11.3381C13.3887 11.3381 11.3817 11.3381 11.0648 11.3381C11.0648 11.9856 11.0648 13.2806 11.0648 13.9281C11.3817 13.9281 13.3887 13.9281 13.7056 13.9281C13.7056 15.5468 13.7056 17.3813 13.7056 19H8.21265C7.05068 19 6.09998 18.0288 6.09998 16.8417V6.15828C6.09998 4.97123 7.05068 4 8.21265 4H18.9873C20.1493 4 21.1 4.97123 21.1 6.15828V16.8417C21.1 18.0288 20.1493 19 18.9873 19H16.0296C16.0296 17.3813 16.0296 15.5468 16.0296 13.9281C16.0296 13.9281 16.0295 13.9281 16.1352 13.9281C16.5577 13.9281 17.1915 13.9281 17.7197 13.9281L18.0366 11.446Z" fill="white"/>
</g>
</svg>
