<svg width="115" height="23" viewBox="0 0 115 23" fill="none" xmlns="http://www.w3.org/2000/svg">
<mask id="mask0" mask-type="alpha" maskUnits="userSpaceOnUse" x="0" y="0" width="115" height="23">
<path d="M111.1 0H3.80002C1.70002 0 0 1.69999 0 3.79999V19.2C0 21.3 1.70002 23 3.80002 23H111.1C113.2 23 114.9 21.3 114.9 19.2V3.79999C114.8 1.69999 113.1 0 111.1 0Z" fill="#50ABF1"/>
</mask>
<g mask="url(#mask0)">
<rect width="115" height="23" fill="#0274B3"/>
<rect width="115" height="23" fill="#E1E7EC"/>
<rect width="115" height="23" fill="#CB1F24"/>
<rect width="115" height="23" fill="#3A559F"/>
<path d="M36.7 11.7L38.5 12.3C38.2 13.3 37.8 14 37.2 14.5C36.6 15 35.8 15.2 34.8 15.2C33.6 15.2 32.6 14.8 31.9 14C31.1 13.2 30.8 12.1 30.8 10.7C30.8 9.19995 31.2 7.99995 32 7.19995C32.8 6.39995 33.8 6 35 6C36.1 6 37 6.3 37.7 7C38.1 7.4 38.4 7.89995 38.6 8.69995L36.8 9.09998C36.7 8.59998 36.5 8.3 36.1 8C35.8 7.7 35.4 7.59998 34.9 7.59998C34.2 7.59998 33.7 7.79999 33.3 8.29999C32.9 8.79999 32.7 9.49998 32.7 10.6C32.7 11.7 32.9 12.5 33.3 13C33.7 13.5 34.2 13.7 34.9 13.7C35.4 13.7 35.8 13.5 36.1 13.2C36.3 12.9 36.6 12.4 36.7 11.7Z" fill="white"/>
<path d="M39.6 11.7C39.6 11.1 39.7 10.6 40 10C40.3 9.5 40.7 9.09999 41.2 8.79999C41.7 8.49999 42.3 8.39996 42.9 8.39996C43.9 8.39996 44.7 8.69996 45.3 9.39996C45.9 9.99996 46.2 10.8 46.2 11.8C46.2 12.8 45.9 13.6 45.2 14.2C44.6 14.8 43.8 15.2 42.8 15.2C42.2 15.2 41.6 15.1 41.1 14.8C40.6 14.5 40.1 14.1 39.9 13.6C39.8 13.1 39.6 12.4 39.6 11.7ZM41.4 11.8C41.4 12.4 41.6 12.9 41.9 13.3C42.2 13.6 42.6 13.8 43 13.8C43.4 13.8 43.8 13.6 44.1 13.3C44.4 13 44.6 12.5 44.6 11.8C44.6 11.2 44.4 10.7 44.1 10.3C43.8 9.99999 43.4 9.79999 43 9.79999C42.6 9.79999 42.2 9.99999 41.9 10.3C41.6 10.6 41.4 11.1 41.4 11.8Z" fill="white"/>
<path d="M47.6 8.5H49.2V9.39996C49.8 8.69996 50.4 8.39996 51.2 8.39996C51.6 8.39996 52 8.49995 52.3 8.69995C52.6 8.89995 52.9 9.1 53.1 9.5C53.4 9.2 53.7 8.89995 54 8.69995C54.3 8.49995 54.7 8.39996 55.1 8.39996C55.6 8.39996 56 8.49995 56.3 8.69995C56.6 8.89995 56.9 9.19998 57 9.59998C57.1 9.89998 57.2 10.3 57.2 10.9V15.1H55.5V11.4C55.5 10.8 55.4 10.3 55.3 10.2C55.1 9.99995 54.9 9.79999 54.6 9.79999C54.4 9.79999 54.1 9.9 53.9 10C53.7 10.1 53.5 10.4 53.4 10.6C53.3 10.8 53.3 11.3 53.3 11.9V15H51.6V11.4C51.6 10.8 51.6 10.4 51.5 10.2C51.4 9.99995 51.3 9.89999 51.2 9.79999C51.1 9.69999 50.9 9.69995 50.7 9.69995C50.4 9.69995 50.2 9.79996 50 9.89996C49.8 9.99996 49.6 10.2 49.5 10.5C49.4 10.8 49.4 11.2 49.4 11.8V15H47.7V8.5H47.6Z" fill="white"/>
<path d="M58.8 8.5H60.4V9.5C60.6 9.2 60.9 8.89995 61.2 8.69995C61.6 8.49995 61.9 8.39996 62.4 8.39996C63.2 8.39996 63.8 8.69999 64.3 9.29999C64.8 9.89999 65.1 10.7 65.1 11.8C65.1 12.9 64.8 13.7 64.3 14.3C63.8 14.9 63.1 15.2 62.4 15.2C62 15.2 61.7 15.1 61.4 15C61.1 14.9 60.8 14.6 60.5 14.3V17.6H58.8V8.5ZM60.5 11.7C60.5 12.4 60.6 13 60.9 13.3C61.2 13.6 61.5 13.8 62 13.8C62.4 13.8 62.7 13.6 63 13.3C63.3 13 63.4 12.5 63.4 11.7C63.4 11 63.3 10.5 63 10.2C62.7 9.89995 62.4 9.69995 62 9.69995C61.6 9.69995 61.2 9.89995 61 10.2C60.8 10.5 60.5 11 60.5 11.7Z" fill="white"/>
<path d="M67.7 10.5L66.1 10.2C66.3 9.59995 66.6 9.09999 67 8.79999C67.4 8.49999 68.1 8.29999 68.9 8.29999C69.7 8.29999 70.2 8.39998 70.6 8.59998C71 8.79998 71.2 8.99999 71.4 9.29999C71.6 9.59999 71.6 10.1 71.6 10.8V12.8C71.6 13.4 71.6 13.8 71.7 14.1C71.8 14.4 71.9 14.7 72 15H70.3C70.3 14.9 70.2 14.7 70.1 14.5C70.1 14.4 70.1 14.3 70 14.3C69.7 14.6 69.4 14.8 69.1 14.9C68.8 15 68.4 15.1 68 15.1C67.3 15.1 66.8 14.9 66.4 14.6C66 14.2 65.8 13.8 65.8 13.2C65.8 12.8 65.9 12.5 66.1 12.2C66.3 11.9 66.5 11.7 66.8 11.5C67.1 11.3 67.6 11.2 68.2 11.1C69 10.9 69.6 10.8 69.9 10.7V10.6C69.9 10.3 69.8 9.99996 69.7 9.89996C69.5 9.79996 69.2 9.69995 68.8 9.69995C68.5 9.69995 68.3 9.79996 68.1 9.89996C67.9 9.99996 67.8 10.2 67.7 10.5ZM70 11.9C69.8 12 69.4 12.1 69 12.2C68.5 12.3 68.2 12.4 68.1 12.5C67.9 12.7 67.8 12.9 67.8 13.1C67.8 13.3 67.9 13.5 68.1 13.7C68.3 13.9 68.5 14 68.8 14C69.1 14 69.4 13.9 69.7 13.7C69.9 13.5 70 13.4 70.1 13.1C70.1 13 70.2 12.7 70.2 12.3V11.9H70Z" fill="white"/>
<path d="M75.1 15H73.4V8.5H75V9.39996C75.3 8.99996 75.5 8.7 75.7 8.5C75.9 8.4 76.2 8.29999 76.4 8.29999C76.8 8.29999 77.2 8.39998 77.5 8.59998L77 10.1C76.7 9.89998 76.4 9.79999 76.2 9.79999C76 9.79999 75.8 9.9 75.6 10C75.4 10.1 75.3 10.4 75.2 10.7C75.1 11 75.1 11.8 75.1 12.9V15Z" fill="white"/>
<path d="M81.3 8.5V9.89996H80.1V12.5C80.1 13 80.1 13.3 80.1 13.4C80.1 13.5 80.2 13.6 80.3 13.6C80.4 13.7 80.5 13.7 80.6 13.7C80.8 13.7 81 13.6 81.3 13.5L81.4 14.8C81 15 80.5 15.1 80 15.1C79.7 15.1 79.4 15 79.2 14.9C79 14.8 78.8 14.7 78.7 14.5C78.6 14.3 78.5 14.1 78.5 13.8C78.5 13.6 78.4 13.2 78.4 12.6V9.79999H77.6V8.39996H78.4V7.09998L80.1 6.09998V8.39996H81.3V8.5Z" fill="white"/>
<path d="M82.5 7.69995V6.09998H84.2V7.69995H82.5ZM82.5 15V8.5H84.2V15H82.5Z" fill="white"/>
<path d="M85.9 15V6H87.6V15H85.9Z" fill="white"/>
<path d="M91.1 6.09998V9.39996C91.7 8.79996 92.3 8.39996 93.1 8.39996C93.5 8.39996 93.9 8.49998 94.2 8.59998C94.5 8.69998 94.8 8.89995 94.9 9.19995C95 9.49995 95.2 9.7 95.2 10C95.2 10.3 95.3 10.7 95.3 11.3V15.1H93.6V11.6C93.6 10.9 93.6 10.5 93.5 10.3C93.4 10.1 93.3 9.99996 93.2 9.89996C93 9.79996 92.8 9.69995 92.6 9.69995C92.3 9.69995 92.1 9.79996 91.8 9.89996C91.6 9.99996 91.4 10.2 91.3 10.5C91.2 10.8 91.1 11.2 91.1 11.7V15H89.4V6H91.1V6.09998Z" fill="white"/>
<path d="M98.4 10.5L96.8 10.2C97 9.59995 97.3 9.09999 97.7 8.79999C98.1 8.49999 98.8 8.29999 99.6 8.29999C100.4 8.29999 100.9 8.39998 101.3 8.59998C101.7 8.79998 101.9 8.99999 102.1 9.29999C102.3 9.59999 102.3 10.1 102.3 10.8V12.8C102.3 13.4 102.3 13.8 102.4 14.1C102.5 14.4 102.6 14.7 102.7 15H101C101 14.9 100.9 14.7 100.8 14.5C100.8 14.4 100.8 14.3 100.7 14.3C100.4 14.6 100.1 14.8 99.8 14.9C99.5 15 99.1 15.1 98.7 15.1C98 15.1 97.5 14.9 97.1 14.6C96.7 14.2 96.5 13.8 96.5 13.2C96.5 12.8 96.6 12.5 96.8 12.2C97 11.9 97.2 11.7 97.5 11.5C97.8 11.3 98.3 11.2 98.9 11.1C99.7 10.9 100.3 10.8 100.6 10.7V10.6C100.6 10.3 100.5 9.99996 100.4 9.89996C100.2 9.79996 99.9 9.69995 99.5 9.69995C99.2 9.69995 99 9.79996 98.8 9.89996C98.6 9.99996 98.5 10.2 98.4 10.5ZM100.7 11.9C100.5 12 100.1 12.1 99.7 12.2C99.2 12.3 98.9 12.4 98.8 12.5C98.6 12.7 98.5 12.9 98.5 13.1C98.5 13.3 98.6 13.5 98.8 13.7C99 13.9 99.2 14 99.5 14C99.8 14 100.1 13.9 100.4 13.7C100.6 13.5 100.7 13.4 100.8 13.1C100.8 13 100.9 12.7 100.9 12.3V11.9H100.7Z" fill="white"/>
<path d="M105.7 15H104V8.5H105.6V9.39996C105.9 8.99996 106.1 8.7 106.3 8.5C106.5 8.4 106.8 8.29999 107 8.29999C107.4 8.29999 107.8 8.39998 108.1 8.59998L107.6 10.1C107.3 9.89998 107 9.79999 106.8 9.79999C106.6 9.79999 106.4 9.9 106.2 10C106 10.1 105.9 10.4 105.8 10.7C105.7 11 105.7 11.8 105.7 12.9V15Z" fill="white"/>
<path d="M18.0366 11.446C17.5084 11.446 16.4521 11.446 15.9239 11.446C15.9239 11.1223 15.9239 10.0432 15.9239 9.71943C15.9239 9.61151 15.9239 9.50357 15.9239 9.28774C15.9239 9.07192 16.0295 8.96404 16.2408 8.85613C16.3464 8.85613 16.4521 8.74817 16.6633 8.74817C16.9802 8.74817 18.0366 8.74817 18.3535 8.74817C18.3535 8.74817 18.3535 8.74817 18.4591 8.74817C18.4591 8.10069 18.4591 7.34533 18.4591 6.69785C17.7197 6.69785 16.6633 6.69785 15.9239 6.69785C15.607 6.69785 15.2901 6.80574 15.0788 6.80574C14.5507 7.02156 14.1282 7.34533 13.9169 7.77699C13.8113 8.10073 13.7056 8.53236 13.7056 8.96402C13.7056 9.39567 13.7056 10.7986 13.7056 11.2302C13.7056 11.2302 13.7056 11.2302 13.7056 11.3381C13.3887 11.3381 11.3817 11.3381 11.0648 11.3381C11.0648 11.9856 11.0648 13.2806 11.0648 13.9281C11.3817 13.9281 13.3887 13.9281 13.7056 13.9281C13.7056 15.5468 13.7056 17.3813 13.7056 19H8.21265C7.05068 19 6.09998 18.0288 6.09998 16.8417V6.15828C6.09998 4.97123 7.05068 4 8.21265 4H18.9873C20.1493 4 21.1 4.97123 21.1 6.15828V16.8417C21.1 18.0288 20.1493 19 18.9873 19H16.0296C16.0296 17.3813 16.0296 15.5468 16.0296 13.9281C16.0296 13.9281 16.0295 13.9281 16.1352 13.9281C16.5577 13.9281 17.1915 13.9281 17.7197 13.9281L18.0366 11.446Z" fill="white"/>
</g>
</svg>
