<svg width="91" height="23" viewBox="0 0 91 23" fill="none" xmlns="http://www.w3.org/2000/svg">
<mask id="mask0" mask-type="alpha" maskUnits="userSpaceOnUse" x="0" y="0" width="91" height="23">
<path d="M87.1 0H3.8C1.7 0 0 1.69999 0 3.79999V19.2C0 21.3 1.7 23 3.8 23H87.1C89.2 23 90.9 21.3 90.9 19.2V3.79999C90.8 1.69999 89.1 0 87.1 0Z" fill="#50ABF1"/>
</mask>
<g mask="url(#mask0)">
<rect width="91" height="23" fill="#0274B3"/>
<rect width="91" height="23" fill="#E1E7EC"/>
<rect width="91" height="23" fill="#CB1F24"/>
<rect width="91" height="23" fill="#3A559F"/>
<path d="M28.6 7.19995H31.9C32.6 7.19995 33.2 7.29996 33.6 7.39996C34.1 7.59996 34.6 7.79995 35 8.19995C35.4 8.59995 35.7 9.09995 35.9 9.69995C36.1 10.3 36.2 10.9999 36.2 11.7999C36.2 12.4999 36.1 13.2 35.9 13.7C35.7 14.4 35.4 14.8999 34.9 15.2999C34.6 15.5999 34.2 15.7999 33.6 15.9999C33.2 16.0999 32.7 16.2 32 16.2H28.6V7.19995ZM30.4 8.69995V14.6H31.8C32.3 14.6 32.7 14.5999 32.9 14.4999C33.2 14.3999 33.4 14.3 33.6 14.1C33.8 13.9 34 13.6 34.1 13.2C34.2 12.8 34.3 12.3 34.3 11.6C34.3 10.9 34.2 10.3999 34.1 9.99994C34 9.59994 33.8 9.29998 33.6 9.09998C33.4 8.89998 33.1 8.79995 32.8 8.69995C32.5 8.59995 32.1 8.59998 31.3 8.59998H30.4V8.69995Z" fill="white"/>
<path d="M37.6 8.70007V7.1001H39.3V8.70007H37.6ZM37.6 16.1001V9.6001H39.3V16.1001H37.6Z" fill="white"/>
<path d="M44.8 9.60004C44.8 9.50004 44.8 9.39999 44.7 9.29999C44.6 9.19999 44.7 9.00002 44.7 8.90002C44.7 8.60002 44.8 8.30004 44.9 8.10004C45 7.90004 45.2 7.7 45.4 7.5C45.6 7.3 45.9 7.20004 46.2 7.10004C46.5 7.00004 46.8 7 47.2 7C47.5 7 47.9 7.00004 48.2 7.10004C48.5 7.20004 48.7 7.19999 49 7.29999C49.3 7.39999 49.5 7.4 49.7 7.5V9.70001H50.9V11.1H49.7V13.7C49.7 14 49.7 14.2 49.7 14.3C49.7 14.5 49.7 14.6 49.7 14.6C49.7 14.7 49.8 14.8 49.9 14.8C50 14.9 50.1 14.9 50.2 14.9C50.4 14.9 50.6 14.8 50.9 14.7L51 16C50.6 16.2 50.1 16.3 49.6 16.3C49.3 16.3 49 16.2 48.8 16.1C48.6 16 48.4 15.9 48.3 15.7C48.2 15.5 48.1 15.3 48.1 15C48.1 14.8 48 14.4 48 13.8V11H47.2V9.60004H48V8.10004C47.9 8.10004 47.8 8.10004 47.8 8.10004C47.7 8.10004 47.7 8.10004 47.6 8.10004C47.5 8.10004 47.4 8.10004 47.4 8.10004C47.2 8.10004 47.1 8.10004 46.9 8.10004C46.8 8.10004 46.6 8.19999 46.5 8.29999C46.4 8.39999 46.3 8.50004 46.3 8.60004C46.3 8.70004 46.2 8.90004 46.2 9.10004C46.2 9.30004 46.2 9.50001 46.2 9.70001C46.2 9.90001 46.3 10.1 46.3 10.3C46.3 10.5 46.4 10.7 46.4 10.8C46.4 11 46.5 11.1 46.5 11.2L44.9 11.5C44.8 11.2 44.7 11 44.5 10.9C44.3 10.8 44 10.7 43.7 10.7C43.2 10.7 42.9 10.8 42.7 10.9C42.6 11 42.5 11.1 42.5 11.2C42.5 11.3 42.6 11.4 42.7 11.5C42.8 11.6 43.4 11.8 44.3 12C45.2 12.2 45.9 12.5 46.2 12.8C46.6 13.1 46.7 13.5 46.7 14.1C46.7 14.7 46.5 15.2 46 15.6C45.5 16 44.8 16.2 43.8 16.2C43.4 16.2 43 16.2 42.6 16.1C42.2 16 41.9 15.9 41.7 15.7C41.4 15.5 41.2 15.3 41.1 15.1C40.9 14.9 40.8 14.6 40.7 14.3L42.4 14C42.5 14.3 42.6 14.6 42.8 14.8C43 15 43.3 15.1 43.7 15.1C44.1 15.1 44.5 15 44.7 14.9C44.9 14.8 44.9 14.6 44.9 14.4C44.9 14.3 44.9 14.2 44.8 14.1C44.7 14 44.5 13.9 44.2 13.9C42.8 13.6 41.9 13.3 41.6 13.1C41.1 12.8 40.8 12.3 40.8 11.6C40.8 11 41 10.6 41.5 10.2C41.9 9.80001 42.6 9.60004 43.6 9.60004C43.9 9.60004 44.1 9.60004 44.3 9.60004C44.4 9.50004 44.6 9.60004 44.8 9.60004Z" fill="white"/>
<path d="M53.5 16.1H51.8V9.60004H53.4V10.5C53.7 10.1 53.9 9.80004 54.1 9.60004C54.3 9.50004 54.6 9.40002 54.8 9.40002C55.2 9.40002 55.6 9.50001 55.9 9.70001L55.4 11.2C55.1 11 54.8 10.9 54.6 10.9C54.4 10.9 54.2 11 54 11.1C53.8 11.2 53.7 11.5 53.6 11.8C53.5 12.1 53.5 12.9 53.5 14V16.1Z" fill="white"/>
<path d="M56.8 8.70007V7.1001H58.5V8.70007H56.8ZM56.8 16.1001V9.6001H58.5V16.1001H56.8Z" fill="white"/>
<path d="M60.2 16.1001V7.1001H61.9V10.3C62.4 9.70005 63.1 9.40009 63.8 9.40009C64.6 9.40009 65.2 9.70005 65.8 10.3C66.4 10.9 66.6 11.7 66.6 12.8C66.6 13.9 66.3 14.8001 65.8 15.4001C65.3 16.0001 64.6 16.3 63.9 16.3C63.5 16.3 63.2 16.2001 62.8 16.0001C62.4 15.8001 62.1 15.5001 61.9 15.2001V16.2001H60.2V16.1001ZM61.9 12.7001C61.9 13.4001 62 13.9001 62.2 14.2001C62.5 14.7001 62.9 14.9001 63.4 14.9001C63.8 14.9001 64.1 14.7001 64.4 14.4001C64.7 14.1001 64.8 13.6001 64.8 12.9001C64.8 12.2001 64.7 11.6 64.4 11.3C64.1 11 63.8 10.8 63.4 10.8C63 10.8 62.6 11 62.4 11.3C62.2 11.6 61.9 12.1001 61.9 12.7001Z" fill="white"/>
<path d="M72.2 16.1001V15.1001C72 15.4001 71.7 15.7001 71.3 15.9001C70.9 16.1001 70.5 16.2001 70.1 16.2001C69.7 16.2001 69.3 16.1001 68.9 15.9001C68.6 15.7001 68.3 15.4001 68.1 15.1001C67.9 14.8001 67.9 14.3001 67.9 13.7001V9.6001H69.6V12.6001C69.6 13.5001 69.6 14.1 69.7 14.3C69.8 14.5 69.9 14.7 70 14.8C70.2 14.9 70.4 15.0001 70.6 15.0001C70.9 15.0001 71.2 14.9 71.4 14.8C71.6 14.7 71.8 14.4001 71.9 14.2001C72 14.0001 72 13.4001 72 12.4001V9.70007H73.7V16.2001H72.2V16.1001Z" fill="white"/>
<path d="M75.5 8.70007V7.1001H77.2V8.70007H75.5ZM75.5 16.1001V9.6001H77.2V16.1001H75.5Z" fill="white"/>
<path d="M82.8 14L84.5 14.3C84.3 14.9 83.9 15.4 83.5 15.7C83 16 82.4 16.2 81.7 16.2C80.6 16.2 79.7 15.8 79.2 15.1C78.8 14.5 78.6 13.8 78.6 12.9C78.6 11.8 78.9 11 79.4 10.4C79.9 9.80002 80.7 9.5 81.5 9.5C82.5 9.5 83.2 9.8 83.8 10.5C84.4 11.1 84.6 12.1 84.6 13.4H80.3C80.3 13.9 80.5 14.3 80.7 14.6C81 14.9 81.3 15 81.7 15C82 15 82.2 14.9 82.4 14.8C82.5 14.6 82.7 14.4 82.8 14ZM82.9 12.3C82.9 11.8 82.8 11.4 82.5 11.2C82.3 10.9 82 10.8 81.6 10.8C81.2 10.8 80.9 10.9 80.7 11.2C80.5 11.5 80.3 11.8 80.3 12.3H82.9Z" fill="white"/>
<path d="M18.0366 11.446C17.5084 11.446 16.4521 11.446 15.9239 11.446C15.9239 11.1223 15.9239 10.0432 15.9239 9.71943C15.9239 9.61151 15.9239 9.50357 15.9239 9.28774C15.9239 9.07192 16.0295 8.96404 16.2408 8.85613C16.3464 8.85613 16.4521 8.74817 16.6633 8.74817C16.9802 8.74817 18.0366 8.74817 18.3535 8.74817C18.3535 8.74817 18.3535 8.74817 18.4591 8.74817C18.4591 8.10069 18.4591 7.34533 18.4591 6.69785C17.7197 6.69785 16.6633 6.69785 15.9239 6.69785C15.607 6.69785 15.2901 6.80574 15.0788 6.80574C14.5507 7.02156 14.1282 7.34533 13.9169 7.77699C13.8113 8.10073 13.7056 8.53236 13.7056 8.96402C13.7056 9.39567 13.7056 10.7986 13.7056 11.2302C13.7056 11.2302 13.7056 11.2302 13.7056 11.3381C13.3887 11.3381 11.3817 11.3381 11.0648 11.3381C11.0648 11.9856 11.0648 13.2806 11.0648 13.9281C11.3817 13.9281 13.3887 13.9281 13.7056 13.9281C13.7056 15.5468 13.7056 17.3813 13.7056 19H8.21265C7.05068 19 6.09998 18.0288 6.09998 16.8417V6.15828C6.09998 4.97123 7.05068 4 8.21265 4H18.9873C20.1493 4 21.1 4.97123 21.1 6.15828V16.8417C21.1 18.0288 20.1493 19 18.9873 19H16.0296C16.0296 17.3813 16.0296 15.5468 16.0296 13.9281C16.0296 13.9281 16.0295 13.9281 16.1352 13.9281C16.5577 13.9281 17.1915 13.9281 17.7197 13.9281L18.0366 11.446Z" fill="white"/>
</g>
</svg>
