<svg width="111" height="23" viewBox="0 0 111 23" fill="none" xmlns="http://www.w3.org/2000/svg">
<mask id="mask0" mask-type="alpha" maskUnits="userSpaceOnUse" x="0" y="0" width="111" height="23">
<path d="M107.1 0H3.80002C1.70002 0 0 1.69999 0 3.79999V19.2C0 21.3 1.70002 23 3.80002 23H107.1C109.2 23 110.9 21.3 110.9 19.2V3.79999C110.8 1.69999 109.1 0 107.1 0Z" fill="#50ABF1"/>
</mask>
<g mask="url(#mask0)">
<rect width="111" height="23" fill="#0274B3"/>
<rect width="111" height="23" fill="#E1E7EC"/>
<rect width="111" height="23" fill="#CB1F24"/>
<rect width="111" height="23" fill="#3A559F"/>
<path d="M31 6H38.1V15H36.3V7.5H32.8V15H31V6Z" fill="white"/>
<path d="M39.6 11.6C39.6 11 39.7 10.5 40 9.90002C40.3 9.40002 40.7 9.00001 41.2 8.70001C41.7 8.40001 42.3 8.29999 42.9 8.29999C43.9 8.29999 44.7 8.59999 45.3 9.29999C45.9 9.89999 46.2 10.7 46.2 11.7C46.2 12.7 45.9 13.5 45.2 14.1C44.6 14.7 43.8 15.1 42.8 15.1C42.2 15.1 41.6 15 41.1 14.7C40.6 14.4 40.1 14 39.9 13.5C39.7 13 39.6 12.3 39.6 11.6ZM41.4 11.7C41.4 12.3 41.6 12.8 41.9 13.2C42.2 13.5 42.6 13.7 43 13.7C43.4 13.7 43.8 13.5 44.1 13.2C44.4 12.9 44.6 12.4 44.6 11.7C44.6 11.1 44.4 10.6 44.1 10.2C43.8 9.90001 43.4 9.70001 43 9.70001C42.6 9.70001 42.2 9.90001 41.9 10.2C41.6 10.5 41.4 11 41.4 11.7Z" fill="white"/>
<path d="M52.8 14.9H47.9V16.6H46.5V13.5H47.2C47.5 13.2 47.7 12.7 47.9 12C48.1 11.3 48.2 10.1 48.2 8.40002H53.4V13.5H54.1V16.6H52.7V14.9H52.8ZM51.8 13.5V9.79999H49.7C49.6 11.6 49.3 12.8 48.8 13.5H51.8Z" fill="white"/>
<path d="M59.2 12.9L60.9 13.2C60.7 13.8 60.3 14.3 59.9 14.6C59.5 14.9 58.8 15.1 58.1 15.1C57 15.1 56.1 14.7 55.6 14C55.2 13.4 55 12.7 55 11.8C55 10.7 55.3 9.89999 55.8 9.29999C56.4 8.69999 57.1 8.40002 57.9 8.40002C58.9 8.40002 59.6 8.70002 60.2 9.40002C60.8 10 61 11 61 12.3H56.7C56.7 12.8 56.9 13.2 57.1 13.5C57.4 13.8 57.7 13.9 58.1 13.9C58.4 13.9 58.6 13.8 58.8 13.7C58.9 13.4 59.1 13.2 59.2 12.9ZM59.3 11.1C59.3 10.6 59.2 10.2 58.9 10C58.6 9.8 58.4 9.59998 58 9.59998C57.6 9.59998 57.3 9.7 57.1 10C56.9 10.3 56.7 10.6 56.7 11.1H59.3Z" fill="white"/>
<path d="M62.8 8.40002H68.6V14.9H66.9V9.79999H64.6V12.7C64.6 13.4 64.5 14 64.3 14.3C64.1 14.6 63.9 14.8 63.7 14.9C63.5 15 63.2 15 62.7 15C62.4 15 62.1 15 61.6 14.9V13.6C61.6 13.6 61.7 13.6 61.9 13.6C62.1 13.6 62.2 13.6 62.3 13.6C62.5 13.6 62.7 13.5 62.7 13.4C62.8 13.2 62.8 12.8 62.8 12.1V8.40002Z" fill="white"/>
<path d="M70.3 8.40002H72V12.5L74.6 8.40002H76.3V14.9H74.6V10.7L71.9 14.9H70.2V8.40002H70.3Z" fill="white"/>
<path d="M77.3 8.40002H83.2V9.79999H81.1V14.9H79.4V9.79999H77.3V8.40002Z" fill="white"/>
<path d="M84.2 8.40002H85.9V11.1H87.6C88.3 11.1 88.8 11.1 89.2 11.2C89.6 11.3 89.9 11.5 90.1 11.8C90.3 12.1 90.5 12.5 90.5 12.9C90.5 13.5 90.3 14 89.9 14.3C89.5 14.6 88.8 14.8 88 14.8H84.3V8.40002H84.2ZM85.9 13.8H87.5C88 13.8 88.3 13.7 88.5 13.6C88.7 13.5 88.7 13.2 88.7 13C88.7 12.7 88.6 12.5 88.3 12.4C88.1 12.3 87.6 12.2 87 12.2H85.9V13.8Z" fill="white"/>
<path d="M97.5 10.4L95.8 10.7C95.7 10.4 95.6 10.1 95.4 9.90002C95.2 9.70002 94.9 9.59998 94.6 9.59998C94.2 9.59998 93.8 9.7 93.6 10C93.4 10.3 93.2 10.8 93.2 11.5C93.2 12.3 93.3 12.8 93.6 13.1C93.9 13.4 94.2 13.6 94.6 13.6C94.9 13.6 95.2 13.5 95.4 13.3C95.6 13.1 95.8 12.8 95.8 12.3L97.5 12.6C97.3 13.4 97 14 96.5 14.4C96 14.8 95.3 15 94.5 15C93.6 15 92.8 14.7 92.2 14.1C91.6 13.5 91.4 12.7 91.4 11.6C91.4 10.5 91.7 9.69998 92.2 9.09998C92.8 8.49998 93.5 8.20001 94.5 8.20001C95.3 8.20001 95.9 8.40001 96.4 8.70001C97 9.10001 97.3 9.70002 97.5 10.4Z" fill="white"/>
<path d="M104.4 8.40002V14.9H102.7V12.2H102.5C102.1 12.2 101.9 12.2 101.7 12.3C101.5 12.4 101.3 12.6 101.1 12.9L101 13L99.9 14.8H97.9L99.1 12.9C99.5 12.4 99.8 12.1 100.1 12C99.6 12 99.2 11.8 98.9 11.5C98.6 11.2 98.5 10.7 98.5 10.2C98.5 9.80001 98.6 9.39998 98.8 9.09998C99 8.79998 99.3 8.6 99.6 8.5C99.9 8.4 100.4 8.29999 101.1 8.29999H104.4V8.40002ZM102.7 9.5H101.5C101 9.5 100.7 9.60001 100.5 9.70001C100.3 9.80001 100.2 9.99999 100.2 10.3C100.2 10.6 100.3 10.8 100.5 10.9C100.7 11 101 11.1 101.5 11.1H102.6V9.5H102.7Z" fill="white"/>
<path d="M18.0366 11.446C17.5084 11.446 16.4521 11.446 15.9239 11.446C15.9239 11.1223 15.9239 10.0432 15.9239 9.71943C15.9239 9.61151 15.9239 9.50357 15.9239 9.28774C15.9239 9.07192 16.0295 8.96404 16.2408 8.85613C16.3464 8.85613 16.4521 8.74817 16.6633 8.74817C16.9802 8.74817 18.0366 8.74817 18.3535 8.74817C18.3535 8.74817 18.3535 8.74817 18.4591 8.74817C18.4591 8.10069 18.4591 7.34533 18.4591 6.69785C17.7197 6.69785 16.6633 6.69785 15.9239 6.69785C15.607 6.69785 15.2901 6.80574 15.0788 6.80574C14.5507 7.02156 14.1282 7.34533 13.9169 7.77699C13.8113 8.10073 13.7056 8.53236 13.7056 8.96402C13.7056 9.39567 13.7056 10.7986 13.7056 11.2302C13.7056 11.2302 13.7056 11.2302 13.7056 11.3381C13.3887 11.3381 11.3817 11.3381 11.0648 11.3381C11.0648 11.9856 11.0648 13.2806 11.0648 13.9281C11.3817 13.9281 13.3887 13.9281 13.7056 13.9281C13.7056 15.5468 13.7056 17.3813 13.7056 19H8.21265C7.05068 19 6.09998 18.0288 6.09998 16.8417V6.15828C6.09998 4.97123 7.05068 4 8.21265 4H18.9873C20.1493 4 21.1 4.97123 21.1 6.15828V16.8417C21.1 18.0288 20.1493 19 18.9873 19H16.0296C16.0296 17.3813 16.0296 15.5468 16.0296 13.9281C16.0296 13.9281 16.0295 13.9281 16.1352 13.9281C16.5577 13.9281 17.1915 13.9281 17.7197 13.9281L18.0366 11.446Z" fill="white"/>
</g>
</svg>
