<svg width="67" height="23" viewBox="0 0 67 23" fill="none" xmlns="http://www.w3.org/2000/svg">
<mask id="mask0" mask-type="alpha" maskUnits="userSpaceOnUse" x="0" y="0" width="67" height="23">
<path d="M63.1 0H3.8C1.7 0 0 1.70005 0 3.80005V19.2001C0 21.3001 1.7 23 3.8 23H63.1C65.2 23 66.9 21.3001 66.9 19.2001V3.80005C66.8 1.70005 65.1 0 63.1 0Z" fill="#50ABF1"/>
</mask>
<g mask="url(#mask0)">
<rect width="118" height="23" fill="#0274B3"/>
<rect width="118" height="23" fill="#E1E7EC"/>
<rect width="118" height="23" fill="#CB1F24"/>
<rect width="118" height="23" fill="#3A559F"/>
<path d="M28.6 15V6H30.4L34.1 12V6H35.7V15H33.9L30.3 9.19995V15H28.6Z" fill="white"/>
<path d="M43.6 15H42V14C41.7 14.4 41.4 14.5999 41.1 14.7999C40.8 14.9999 40.4 15.1 40 15.1C39.3 15.1 38.6 14.8 38.1 14.2C37.6 13.6 37.3 12.8 37.3 11.7C37.3 10.6 37.6 9.79995 38.1 9.19995C38.6 8.59995 39.3 8.29993 40.1 8.29993C40.8 8.29993 41.5 8.59995 42 9.19995V6H43.7V15H43.6ZM39 11.6C39 12.3 39.1 12.8 39.3 13.1C39.6 13.5 40 13.7999 40.5 13.7999C40.9 13.7999 41.2 13.5999 41.5 13.2999C41.8 12.9999 41.9 12.4999 41.9 11.7999C41.9 11.0999 41.8 10.5 41.5 10.2C41.2 9.89995 40.9 9.69995 40.5 9.69995C40.1 9.69995 39.8 9.89995 39.5 10.2C39.1 10.4 39 10.9 39 11.6Z" fill="white"/>
<path d="M46.6 10.3999L45 10.1C45.2 9.49998 45.5 8.99995 45.9 8.69995C46.3 8.39995 47 8.19995 47.8 8.19995C48.6 8.19995 49.1 8.3 49.5 8.5C49.9 8.7 50.1 8.89995 50.3 9.19995C50.5 9.49995 50.5 9.99995 50.5 10.7V12.7C50.5 13.3 50.5 13.7 50.6 14C50.7 14.3 50.8 14.5999 50.9 14.8999H49.2C49.2 14.7999 49.1 14.5999 49 14.3999C49 14.2999 49 14.2 48.9 14.2C48.6 14.5 48.3 14.6999 48 14.7999C47.7 14.8999 47.3 15 46.9 15C46.2 15 45.7 14.8 45.3 14.5C44.9 14.1 44.7 13.7 44.7 13.1C44.7 12.7 44.8 12.4 45 12.1C45.2 11.8 45.4 11.5999 45.7 11.3999C46 11.1999 46.5 11.1 47.1 11C47.9 10.8 48.5 10.7 48.8 10.6V10.3999C48.8 10.0999 48.7 9.79995 48.6 9.69995C48.5 9.59995 48.1 9.5 47.7 9.5C47.4 9.5 47.2 9.59995 47 9.69995C46.8 9.89995 46.7 10.0999 46.6 10.3999ZM48.9 11.7999C48.7 11.8999 48.3 12 47.9 12.1C47.4 12.2 47.1 12.2999 47 12.3999C46.8 12.5999 46.7 12.8 46.7 13C46.7 13.2 46.8 13.4 47 13.6C47.2 13.8 47.4 13.8999 47.7 13.8999C48 13.8999 48.3 13.8 48.6 13.6C48.8 13.4 48.9 13.3 49 13C49 12.9 49.1 12.6 49.1 12.2V11.7999H48.9Z" fill="white"/>
<path d="M53.9 8.5V14.7999C53.9 15.5999 53.8 16.2 53.7 16.6C53.6 16.9 53.4 17.1999 53.1 17.3999C52.8 17.5999 52.4 17.7 51.9 17.7C51.7 17.7 51.5 17.7 51.3 17.7C51.1 17.7 50.9 17.6 50.7 17.6L51 16.1C51.1 16.1 51.2 16.1 51.2 16.1C51.3 16.1 51.3 16.1 51.4 16.1C51.6 16.1 51.7 16.1 51.8 16C51.9 15.9 52 15.8 52 15.7C52 15.6 52.1 15.3 52.1 14.7V8.5H53.9ZM52.2 7.59998V6H53.9V7.59998H52.2Z" fill="white"/>
<path d="M59.5 12.8999L61.2 13.2C61 13.8 60.6 14.3 60.2 14.6C59.7 14.9 59.1 15.1 58.4 15.1C57.3 15.1 56.4 14.7 55.9 14C55.5 13.4 55.3 12.6999 55.3 11.7999C55.3 10.6999 55.6 9.89993 56.1 9.29993C56.6 8.69993 57.4 8.3999 58.2 8.3999C59.2 8.3999 59.9 8.6999 60.5 9.3999C61.1 9.9999 61.3 10.9999 61.3 12.2999H57C57 12.7999 57.2 13.2 57.4 13.5C57.7 13.8 58 13.8999 58.4 13.8999C58.7 13.8999 58.9 13.8 59.1 13.7C59.3 13.4 59.4 13.1999 59.5 12.8999ZM59.6 11.1C59.6 10.6 59.5 10.2 59.2 10C59 9.7 58.7 9.59998 58.3 9.59998C57.9 9.59998 57.6 9.7 57.4 10C57.2 10.3 57 10.6 57 11.1H59.6Z" fill="white"/>
<path d="M18.0366 11.446C17.5084 11.446 16.4521 11.446 15.9239 11.446C15.9239 11.1223 15.9239 10.0432 15.9239 9.71943C15.9239 9.61151 15.9239 9.50357 15.9239 9.28774C15.9239 9.07192 16.0295 8.96404 16.2408 8.85613C16.3464 8.85613 16.4521 8.74817 16.6633 8.74817C16.9802 8.74817 18.0366 8.74817 18.3535 8.74817C18.3535 8.74817 18.3535 8.74817 18.4591 8.74817C18.4591 8.10069 18.4591 7.34533 18.4591 6.69785C17.7197 6.69785 16.6633 6.69785 15.9239 6.69785C15.607 6.69785 15.2901 6.80574 15.0788 6.80574C14.5507 7.02156 14.1282 7.34533 13.9169 7.77699C13.8113 8.10073 13.7056 8.53236 13.7056 8.96402C13.7056 9.39567 13.7056 10.7986 13.7056 11.2302C13.7056 11.2302 13.7056 11.2302 13.7056 11.3381C13.3887 11.3381 11.3817 11.3381 11.0648 11.3381C11.0648 11.9856 11.0648 13.2806 11.0648 13.9281C11.3817 13.9281 13.3887 13.9281 13.7056 13.9281C13.7056 15.5468 13.7056 17.3813 13.7056 19H8.21265C7.05068 19 6.09998 18.0288 6.09998 16.8417V6.15828C6.09998 4.97123 7.05068 4 8.21265 4H18.9873C20.1493 4 21.1 4.97123 21.1 6.15828V16.8417C21.1 18.0288 20.1493 19 18.9873 19H16.0296C16.0296 17.3813 16.0296 15.5468 16.0296 13.9281C16.0296 13.9281 16.0295 13.9281 16.1352 13.9281C16.5577 13.9281 17.1915 13.9281 17.7197 13.9281L18.0366 11.446Z" fill="white"/>
</g>
</svg>
