<svg width="78" height="23" viewBox="0 0 78 23" fill="none" xmlns="http://www.w3.org/2000/svg">
<mask id="mask0" mask-type="alpha" maskUnits="userSpaceOnUse" x="0" y="0" width="78" height="23">
<path d="M74.1 0H3.8C1.7 0 0 1.69999 0 3.79999V19.2C0 21.3 1.7 23 3.8 23H74.1C76.2 23 77.9 21.3 77.9 19.2V3.79999C77.8 1.69999 76.1 0 74.1 0Z" fill="#50ABF1"/>
</mask>
<g mask="url(#mask0)">
<rect width="78" height="23" fill="#0274B3"/>
<rect width="78" height="23" fill="#E1E7EC"/>
<rect width="78" height="23" fill="#CB1F24"/>
<rect width="78" height="23" fill="#3A559F"/>
<path d="M27.8 16V14.4L32.5 8.59998H28.3V7.09998H34.9V8.5L30 14.5H35.1V16H27.8Z" fill="white"/>
<path d="M42.2 16H40.6V15C40.3 15.4 40 15.6 39.7 15.8C39.3 16 39 16.1 38.6 16.1C37.9 16.1 37.2 15.8 36.7 15.2C36.2 14.6 35.9 13.8 35.9 12.7C35.9 11.6 36.2 10.8 36.7 10.2C37.2 9.59995 37.9 9.29999 38.7 9.29999C39.4 9.29999 40.1 9.59995 40.6 10.2V7H42.3V16H42.2ZM37.6 12.6C37.6 13.3 37.7 13.8 37.9 14.1C38.2 14.5 38.6 14.8 39.1 14.8C39.5 14.8 39.8 14.6 40.1 14.3C40.4 14 40.5 13.5 40.5 12.8C40.5 12.1 40.4 11.5 40.1 11.2C39.8 10.9 39.5 10.7 39.1 10.7C38.7 10.7 38.4 10.9 38.1 11.2C37.8 11.5 37.6 11.9 37.6 12.6Z" fill="white"/>
<path d="M43.9 8.59998V7H45.6V8.59998H43.9ZM43.9 16V9.5H45.6V16H43.9Z" fill="white"/>
<path d="M51.1 13.8999L52.8 14.1999C52.6 14.7999 52.2 15.2999 51.8 15.5999C51.4 15.8999 50.7 16.0999 50 16.0999C48.9 16.0999 48 15.6999 47.5 14.9999C47.1 14.3999 46.9 13.6999 46.9 12.7999C46.9 11.6999 47.2 10.8999 47.7 10.2999C48.3 9.69993 49 9.3999 49.8 9.3999C50.8 9.3999 51.5 9.6999 52.1 10.3999C52.7 10.9999 52.9 11.9999 52.9 13.2999H48.6C48.6 13.7999 48.8 14.1999 49 14.4999C49.3 14.7999 49.6 14.8999 50 14.8999C50.3 14.8999 50.5 14.7999 50.7 14.6999C50.9 14.4999 51 14.1999 51.1 13.8999ZM51.2 12.1999C51.2 11.6999 51.1 11.2999 50.8 11.0999C50.6 10.7999 50.3 10.6999 49.9 10.6999C49.5 10.6999 49.2 10.7999 49 11.0999C48.8 11.3999 48.6 11.6999 48.6 12.1999H51.2Z" fill="white"/>
<path d="M54.3 16V7H56V16H54.3ZM56.7 7H58.2V8.09998C58.2 8.59998 58.2 8.89995 58.1 9.19995C58 9.49995 57.9 9.69996 57.6 9.89996C57.3 10.1 57.1 10.3 56.8 10.4L56.5 9.79999C56.8 9.69999 57 9.59996 57.2 9.39996C57.4 9.19996 57.4 8.99995 57.4 8.69995H56.7V7Z" fill="white"/>
<path d="M60.4 11.5001L58.8 11.2C59 10.6 59.3 10.1 59.7 9.80005C60.1 9.50005 60.8 9.30005 61.6 9.30005C62.4 9.30005 62.9 9.40004 63.3 9.60004C63.7 9.80004 63.9 10 64.1 10.3C64.3 10.6 64.3 11.1 64.3 11.8V13.8C64.3 14.4 64.3 14.8 64.4 15.1C64.5 15.4 64.6 15.7001 64.7 16.0001H63C63 15.9001 62.9 15.7001 62.8 15.5001C62.8 15.4001 62.8 15.3 62.7 15.3C62.4 15.6 62.1 15.8 61.8 15.9C61.5 16 61.1 16.1 60.7 16.1C60 16.1 59.5 15.9 59.1 15.6C58.7 15.2 58.5 14.8 58.5 14.2C58.5 13.8 58.6 13.5 58.8 13.2C59 12.9 59.2 12.7001 59.5 12.5001C59.8 12.3001 60.3 12.2 60.9 12.1C61.7 11.9 62.3 11.8 62.6 11.7V11.6C62.6 11.3 62.5 11 62.4 10.9C62.3 10.8 61.9 10.7 61.5 10.7C61.2 10.7 61 10.8 60.8 10.9C60.7 11 60.5 11.2001 60.4 11.5001ZM62.7 12.9C62.5 13 62.1 13.1 61.7 13.2C61.2 13.3 60.9 13.4001 60.8 13.5001C60.6 13.7001 60.5 13.9 60.5 14.1C60.5 14.3 60.6 14.5 60.8 14.7C61 14.9 61.2 15.0001 61.5 15.0001C61.8 15.0001 62.1 14.9 62.4 14.7C62.6 14.5 62.7 14.4 62.8 14.1C62.8 14 62.9 13.7 62.9 13.3V12.9H62.7Z" fill="white"/>
<path d="M69.1 9.5V10.9H67.9V13.5C67.9 14 67.9 14.3 67.9 14.4C67.9 14.5 68 14.6 68.1 14.6C68.2 14.7 68.3 14.7 68.4 14.7C68.6 14.7 68.8 14.6 69.1 14.5L69.2 15.8C68.8 16 68.3 16.1 67.8 16.1C67.5 16.1 67.2 16 67 15.9C66.8 15.8 66.6 15.7 66.5 15.5C66.4 15.3 66.3 15.1 66.3 14.8C66.3 14.6 66.2 14.2 66.2 13.6V10.8H65.4V9.39996H66.2V8.09998L67.9 7.09998V9.39996H69.1V9.5ZM69.7 7H71.2V8.09998C71.2 8.59998 71.2 8.89995 71.1 9.19995C71 9.49995 70.9 9.69996 70.6 9.89996C70.3 10.1 70.1 10.3 69.8 10.4L69.5 9.79999C69.8 9.69999 70 9.59996 70.2 9.39996C70.4 9.19996 70.4 8.99995 70.4 8.69995H69.7V7Z" fill="white"/>
<path d="M18.0366 11.446C17.5084 11.446 16.4521 11.446 15.9239 11.446C15.9239 11.1223 15.9239 10.0432 15.9239 9.71943C15.9239 9.61151 15.9239 9.50357 15.9239 9.28774C15.9239 9.07192 16.0295 8.96404 16.2408 8.85613C16.3464 8.85613 16.4521 8.74817 16.6633 8.74817C16.9802 8.74817 18.0366 8.74817 18.3535 8.74817C18.3535 8.74817 18.3535 8.74817 18.4591 8.74817C18.4591 8.10069 18.4591 7.34533 18.4591 6.69785C17.7197 6.69785 16.6633 6.69785 15.9239 6.69785C15.607 6.69785 15.2901 6.80574 15.0788 6.80574C14.5507 7.02156 14.1282 7.34533 13.9169 7.77699C13.8113 8.10073 13.7056 8.53236 13.7056 8.96402C13.7056 9.39567 13.7056 10.7986 13.7056 11.2302C13.7056 11.2302 13.7056 11.2302 13.7056 11.3381C13.3887 11.3381 11.3817 11.3381 11.0648 11.3381C11.0648 11.9856 11.0648 13.2806 11.0648 13.9281C11.3817 13.9281 13.3887 13.9281 13.7056 13.9281C13.7056 15.5468 13.7056 17.3813 13.7056 19H8.21265C7.05068 19 6.09998 18.0288 6.09998 16.8417V6.15828C6.09998 4.97123 7.05068 4 8.21265 4H18.9873C20.1493 4 21.1 4.97123 21.1 6.15828V16.8417C21.1 18.0288 20.1493 19 18.9873 19H16.0296C16.0296 17.3813 16.0296 15.5468 16.0296 13.9281C16.0296 13.9281 16.0295 13.9281 16.1352 13.9281C16.5577 13.9281 17.1915 13.9281 17.7197 13.9281L18.0366 11.446Z" fill="white"/>
</g>
</svg>
