<svg width="116" height="23" viewBox="0 0 116 23" fill="none" xmlns="http://www.w3.org/2000/svg">
<mask id="mask0" mask-type="alpha" maskUnits="userSpaceOnUse" x="0" y="0" width="116" height="23">
<path d="M112.1 0H3.8C1.7 0 0 1.70005 0 3.80005V19.2001C0 21.3001 1.7 23 3.8 23H112.1C114.2 23 115.9 21.3001 115.9 19.2001V3.80005C115.8 1.70005 114.1 0 112.1 0Z" fill="#50ABF1"/>
</mask>
<g mask="url(#mask0)">
<rect width="116" height="23" fill="#0274B3"/>
<rect width="116" height="23" fill="#E1E7EC"/>
<rect width="116" height="23" fill="#CB1F24"/>
<rect width="116" height="23" fill="#3A559F"/>
<path d="M28.6 6H31.9C32.6 6 33.2 6.10001 33.6 6.20001C34.1 6.40001 34.6 6.6 35 7C35.4 7.4 35.7 7.9 35.9 8.5C36.1 9.1 36.2 9.80004 36.2 10.6C36.2 11.3 36.1 12 35.9 12.5C35.7 13.2 35.4 13.7 34.9 14.1C34.6 14.4 34.2 14.6 33.6 14.8C33.2 14.9 32.7 15 32 15H28.6V6ZM30.4 7.5V13.4H31.8C32.3 13.4 32.7 13.4 32.9 13.3C33.2 13.2 33.4 13.1 33.6 12.9C33.8 12.7 34 12.4 34.1 12C34.2 11.6 34.3 11.1 34.3 10.4C34.3 9.70002 34.2 9.19999 34.1 8.79999C34 8.39999 33.8 8.10002 33.6 7.90002C33.4 7.70002 33.1 7.6 32.8 7.5C32.5 7.4 32.1 7.40002 31.3 7.40002H30.4V7.5Z" fill="white"/>
<path d="M41.4 12.9L43.1 13.2C42.9 13.8 42.5 14.3 42.1 14.6C41.7 14.9 41 15.1 40.3 15.1C39.2 15.1 38.3 14.7 37.8 14C37.4 13.4 37.2 12.7 37.2 11.8C37.2 10.7 37.5 9.89999 38 9.29999C38.6 8.69999 39.3 8.40002 40.1 8.40002C41.1 8.40002 41.8 8.70002 42.4 9.40002C43 10 43.2 11 43.2 12.3H38.9C38.9 12.8 39.1 13.2 39.3 13.5C39.6 13.8 39.9 13.9 40.3 13.9C40.6 13.9 40.8 13.8 41 13.7C41.2 13.4 41.3 13.2 41.4 12.9ZM41.5 11.1C41.5 10.6 41.4 10.2 41.1 10C40.9 9.7 40.6 9.60004 40.2 9.60004C39.8 9.60004 39.5 9.7 39.3 10C39.1 10.3 38.9 10.6 38.9 11.1H41.5Z" fill="white"/>
<path d="M44.6 15V6H46.3V15H44.6Z" fill="white"/>
<path d="M48.1 7.60004V6H49.8V7.60004H48.1ZM48.1 15V8.5H49.8V15H48.1Z" fill="white"/>
<path d="M54.3 15V13.7L56.7 10.9C57.1 10.4 57.4 10.1 57.6 9.90002C57.4 9.90002 57.1 9.90002 56.8 9.90002H54.5V8.5H59.9V9.70001L57.4 12.6L56.5 13.5C57 13.5 57.3 13.5 57.4 13.5H60.1V15H54.3Z" fill="white"/>
<path d="M70.7 15H69.1V14C68.8 14.4 68.5 14.6 68.2 14.8C67.8 15 67.5 15.1 67.1 15.1C66.4 15.1 65.7 14.8 65.2 14.2C64.7 13.6 64.4 12.8 64.4 11.7C64.4 10.6 64.7 9.80001 65.2 9.20001C65.7 8.60001 66.4 8.29999 67.2 8.29999C67.9 8.29999 68.6 8.60001 69.1 9.20001V6H70.8V15H70.7ZM66.1 11.6C66.1 12.3 66.2 12.8 66.4 13.1C66.7 13.5 67.1 13.8 67.6 13.8C68 13.8 68.3 13.6 68.6 13.3C68.9 13 69 12.5 69 11.8C69 11.1 68.9 10.5 68.6 10.2C68.3 9.90001 68 9.70001 67.6 9.70001C67.2 9.70001 66.9 9.90001 66.6 10.2C66.3 10.5 66.1 10.9 66.1 11.6Z" fill="white"/>
<path d="M74.1 15.0001H72.4V8.50006H74V9.40009C74.3 9.00009 74.5 8.70006 74.7 8.50006C74.9 8.40006 75.2 8.30005 75.4 8.30005C75.8 8.30005 76.2 8.4001 76.5 8.6001L76 10.1001C75.7 9.9001 75.4 9.80005 75.2 9.80005C75 9.80005 74.8 9.90006 74.6 10.0001C74.4 10.1001 74.3 10.4001 74.2 10.7001C74.1 11.0001 74.1 11.8001 74.1 12.9001V15.0001Z" fill="white"/>
<path d="M81.6 15V14C81.4 14.3 81.1 14.6 80.7 14.8C80.3 15 79.9 15.1 79.5 15.1C79.1 15.1 78.7 15 78.3 14.8C78 14.6 77.7 14.3 77.5 14C77.3 13.7 77.3 13.2 77.3 12.6V8.5H79V11.5C79 12.4 79 13 79.1 13.2C79.2 13.4 79.3 13.6 79.4 13.7C79.6 13.8 79.8 13.9 80 13.9C80.3 13.9 80.6 13.8 80.8 13.7C81 13.6 81.2 13.3 81.3 13.1C81.4 12.9 81.4 12.3 81.4 11.3V8.60004H83.1V15.1H81.6V15Z" fill="white"/>
<path d="M84.8 15.4L86.8 15.6C86.8 15.8 86.9 16 87 16.1C87.2 16.2 87.4 16.3 87.8 16.3C88.2 16.3 88.6 16.2 88.8 16.1C89 16 89.1 15.9 89.1 15.7C89.2 15.6 89.2 15.3 89.2 14.9V14C88.7 14.7 88 15.1 87.3 15.1C86.4 15.1 85.7 14.7 85.2 14C84.8 13.4 84.6 12.7 84.6 11.8C84.6 10.7 84.9 9.89999 85.4 9.29999C85.9 8.69999 86.6 8.40002 87.4 8.40002C88.2 8.40002 88.9 8.8 89.4 9.5V8.60004H91V14.4C91 15.2 90.9 15.7 90.8 16.1C90.7 16.5 90.5 16.8 90.3 17C90.1 17.2 89.8 17.4 89.4 17.5C89 17.6 88.5 17.7 88 17.7C86.9 17.7 86.1 17.5 85.7 17.1C85.2 16.7 85 16.2 85 15.7C84.8 15.5 84.8 15.5 84.8 15.4ZM86.3 11.6C86.3 12.3 86.4 12.8 86.7 13.1C87 13.4 87.3 13.6 87.7 13.6C88.1 13.6 88.5 13.4 88.8 13.1C89.1 12.8 89.2 12.3 89.2 11.6C89.2 10.9 89.1 10.4 88.8 10.1C88.5 9.80004 88.2 9.60004 87.7 9.60004C87.3 9.60004 86.9 9.80004 86.7 10.1C86.5 10.4 86.3 10.9 86.3 11.6Z" fill="white"/>
<path d="M92.6 7.60004V6H94.3V7.60004H92.6ZM92.6 15V8.5H94.3V15H92.6Z" fill="white"/>
<path d="M95.9 8.5H97.5V9.40002C98.1 8.70002 98.7 8.40002 99.5 8.40002C99.9 8.40002 100.3 8.50001 100.6 8.70001C100.9 8.90001 101.2 9.1 101.4 9.5C101.7 9.2 102 8.90001 102.3 8.70001C102.6 8.50001 103 8.40002 103.4 8.40002C103.9 8.40002 104.3 8.50001 104.6 8.70001C104.9 8.90001 105.2 9.20004 105.3 9.60004C105.4 9.90004 105.5 10.3 105.5 10.9V15.1H103.8V11.4C103.8 10.8 103.7 10.3 103.6 10.2C103.4 10 103.2 9.79999 102.9 9.79999C102.7 9.79999 102.4 9.9 102.2 10C102 10.1 101.8 10.4 101.7 10.6C101.6 10.8 101.6 11.3 101.6 11.9V15H99.9V11.4C99.9 10.8 99.9 10.4 99.8 10.2C99.7 10 99.6 9.89999 99.5 9.79999C99.4 9.69999 99.2 9.70001 99 9.70001C98.7 9.70001 98.5 9.80002 98.3 9.90002C98.1 10 97.9 10.2 97.8 10.5C97.7 10.8 97.7 11.2 97.7 11.8V15H96V8.5H95.9Z" fill="white"/>
<path d="M107.2 7.60004V6H108.9V7.60004H107.2ZM107.2 15V8.5H108.9V15H107.2Z" fill="white"/>
<path d="M18.0366 11.446C17.5084 11.446 16.4521 11.446 15.9239 11.446C15.9239 11.1223 15.9239 10.0432 15.9239 9.71943C15.9239 9.61151 15.9239 9.50357 15.9239 9.28774C15.9239 9.07192 16.0295 8.96404 16.2408 8.85613C16.3464 8.85613 16.4521 8.74817 16.6633 8.74817C16.9802 8.74817 18.0366 8.74817 18.3535 8.74817C18.3535 8.74817 18.3535 8.74817 18.4591 8.74817C18.4591 8.10069 18.4591 7.34533 18.4591 6.69785C17.7197 6.69785 16.6633 6.69785 15.9239 6.69785C15.607 6.69785 15.2901 6.80574 15.0788 6.80574C14.5507 7.02156 14.1282 7.34533 13.9169 7.77699C13.8113 8.10073 13.7056 8.53236 13.7056 8.96402C13.7056 9.39567 13.7056 10.7986 13.7056 11.2302C13.7056 11.2302 13.7056 11.2302 13.7056 11.3381C13.3887 11.3381 11.3817 11.3381 11.0648 11.3381C11.0648 11.9856 11.0648 13.2806 11.0648 13.9281C11.3817 13.9281 13.3887 13.9281 13.7056 13.9281C13.7056 15.5468 13.7056 17.3813 13.7056 19H8.21265C7.05068 19 6.09998 18.0288 6.09998 16.8417V6.15828C6.09998 4.97123 7.05068 4 8.21265 4H18.9873C20.1493 4 21.1 4.97123 21.1 6.15828V16.8417C21.1 18.0288 20.1493 19 18.9873 19H16.0296C16.0296 17.3813 16.0296 15.5468 16.0296 13.9281C16.0296 13.9281 16.0295 13.9281 16.1352 13.9281C16.5577 13.9281 17.1915 13.9281 17.7197 13.9281L18.0366 11.446Z" fill="white"/>
</g>
</svg>
