<svg width="81" height="23" viewBox="0 0 81 23" fill="none" xmlns="http://www.w3.org/2000/svg">
<mask id="mask0" mask-type="alpha" maskUnits="userSpaceOnUse" x="0" y="0" width="81" height="23">
<path d="M77.1 0H3.8C1.7 0 0 1.70005 0 3.80005V19.2001C0 21.3001 1.7 23 3.8 23H77.1C79.2 23 80.9 21.3001 80.9 19.2001V3.80005C80.8 1.70005 79.1 0 77.1 0Z" fill="#50ABF1"/>
</mask>
<g mask="url(#mask0)">
<rect width="118" height="23" fill="#0274B3"/>
<rect width="118" height="23" fill="#E1E7EC"/>
<rect width="118" height="23" fill="#CB1F24"/>
<rect width="118" height="23" fill="#3A559F"/>
<path d="M29 6H36.1V15H34.3V7.5H30.8V15H29V6Z" fill="white"/>
<path d="M37.6 11.6C37.6 11 37.7 10.4999 38 9.8999C38.3 9.2999 38.7 8.99995 39.2 8.69995C39.7 8.39995 40.3 8.29993 40.9 8.29993C41.9 8.29993 42.7 8.59993 43.3 9.29993C43.9 9.89993 44.2 10.7 44.2 11.7C44.2 12.7 43.9 13.5 43.2 14.1C42.6 14.7 41.8 15.1 40.8 15.1C40.2 15.1 39.6 15 39.1 14.7C38.6 14.4 38.1 14 37.9 13.5C37.7 13 37.6 12.4 37.6 11.6ZM39.3 11.7C39.3 12.3 39.5 12.8 39.8 13.2C40.1 13.5 40.5 13.7 40.9 13.7C41.3 13.7 41.7 13.5 42 13.2C42.3 12.9 42.5 12.4 42.5 11.7C42.5 11.1 42.3 10.6 42 10.2C41.7 9.89995 41.3 9.69995 40.9 9.69995C40.5 9.69995 40.1 9.89995 39.8 10.2C39.5 10.6 39.3 11.1 39.3 11.7Z" fill="white"/>
<path d="M50.8 15H45.9V16.7H44.5V13.6H45.2C45.5 13.3 45.7 12.8 45.9 12.1C46.1 11.4 46.2 10.2 46.2 8.5H51.4V13.6H52.1V16.7H50.8V15ZM49.8 13.5V9.79993H47.8C47.7 11.5999 47.4 12.8 46.9 13.5H49.8Z" fill="white"/>
<path d="M57.2 12.8999L58.9 13.2C58.7 13.8 58.3 14.3 57.9 14.6C57.4 14.9 56.8 15.1 56.1 15.1C55 15.1 54.1 14.7 53.6 14C53.2 13.4 53 12.6999 53 11.7999C53 10.6999 53.3 9.89993 53.8 9.29993C54.3 8.69993 55.1 8.3999 55.9 8.3999C56.9 8.3999 57.6 8.6999 58.2 9.3999C58.8 9.9999 59 10.9999 59 12.2999H54.7C54.7 12.7999 54.9 13.2 55.1 13.5C55.4 13.8 55.7 13.8999 56.1 13.8999C56.4 13.8999 56.6 13.8 56.8 13.7C56.9 13.4 57.1 13.1999 57.2 12.8999ZM57.3 11.1C57.3 10.6 57.2 10.2 56.9 10C56.7 9.7 56.4 9.59998 56 9.59998C55.6 9.59998 55.3 9.7 55.1 10C54.9 10.3 54.7 10.6 54.7 11.1H57.3Z" fill="white"/>
<path d="M60.8 8.5H66.6V15H64.9V9.8999H62.6V12.7999C62.6 13.4999 62.5 14.0999 62.3 14.3999C62.1 14.6999 61.9 14.9 61.7 15C61.5 15.1 61.2 15.1 60.7 15.1C60.4 15.1 60.1 15.1 59.6 15V13.7C59.6 13.7 59.7 13.7 59.9 13.7C60.1 13.7 60.2 13.7 60.3 13.7C60.5 13.7 60.7 13.6 60.7 13.5C60.8 13.3 60.8 12.9 60.8 12.2V8.5Z" fill="white"/>
<path d="M68.3 8.5H70V12.6L72.6 8.5H74.3V15H72.6V10.7999L69.9 15H68.2V8.5H68.3Z" fill="white"/>
<path d="M18.0366 11.446C17.5084 11.446 16.4521 11.446 15.9239 11.446C15.9239 11.1223 15.9239 10.0432 15.9239 9.71943C15.9239 9.61151 15.9239 9.50357 15.9239 9.28774C15.9239 9.07192 16.0295 8.96404 16.2408 8.85613C16.3464 8.85613 16.4521 8.74817 16.6633 8.74817C16.9802 8.74817 18.0366 8.74817 18.3535 8.74817C18.3535 8.74817 18.3535 8.74817 18.4591 8.74817C18.4591 8.10069 18.4591 7.34533 18.4591 6.69785C17.7197 6.69785 16.6633 6.69785 15.9239 6.69785C15.607 6.69785 15.2901 6.80574 15.0788 6.80574C14.5507 7.02156 14.1282 7.34533 13.9169 7.77699C13.8113 8.10073 13.7056 8.53236 13.7056 8.96402C13.7056 9.39567 13.7056 10.7986 13.7056 11.2302C13.7056 11.2302 13.7056 11.2302 13.7056 11.3381C13.3887 11.3381 11.3817 11.3381 11.0648 11.3381C11.0648 11.9856 11.0648 13.2806 11.0648 13.9281C11.3817 13.9281 13.3887 13.9281 13.7056 13.9281C13.7056 15.5468 13.7056 17.3813 13.7056 19H8.21265C7.05068 19 6.09998 18.0288 6.09998 16.8417V6.15828C6.09998 4.97123 7.05068 4 8.21265 4H18.9873C20.1493 4 21.1 4.97123 21.1 6.15828V16.8417C21.1 18.0288 20.1493 19 18.9873 19H16.0296C16.0296 17.3813 16.0296 15.5468 16.0296 13.9281C16.0296 13.9281 16.0295 13.9281 16.1352 13.9281C16.5577 13.9281 17.1915 13.9281 17.7197 13.9281L18.0366 11.446Z" fill="white"/>
</g>
</svg>
