<svg width="63" height="23" viewBox="0 0 63 23" fill="none" xmlns="http://www.w3.org/2000/svg">
<mask id="mask0" mask-type="alpha" maskUnits="userSpaceOnUse" x="0" y="0" width="63" height="23">
<path d="M59.1 0H3.80002C1.70002 0 0 1.69999 0 3.79999V19.2C0 21.3 1.70002 23 3.80002 23H59.1C61.2 23 62.9 21.3 62.9 19.2V3.79999C62.8 1.69999 61.1 0 59.1 0Z" fill="#50ABF1"/>
</mask>
<g mask="url(#mask0)">
<rect width="63" height="23" fill="#0274B3"/>
<rect width="63" height="23" fill="#E1E7EC"/>
<rect width="63" height="23" fill="#CB1F24"/>
<rect width="63" height="23" fill="#3A559F"/>
<path d="M31 7.09998H34.3C35 7.09998 35.6 7.19999 36 7.29999C36.5 7.49999 37 7.69998 37.4 8.09998C37.8 8.49998 38.1 8.99998 38.3 9.59998C38.5 10.2 38.6 10.9 38.6 11.7C38.6 12.4 38.5 13.1 38.3 13.6C38.1 14.3 37.8 14.8 37.3 15.2C37 15.5 36.6 15.7 36 15.9C35.6 16 35.1 16.1 34.4 16.1H31V7.09998ZM32.8 8.59998V14.5H34.2C34.7 14.5 35.1 14.5 35.3 14.4C35.6 14.3 35.8 14.2 36 14C36.2 13.8 36.4 13.5 36.5 13.1C36.6 12.7 36.7 12.2 36.7 11.5C36.7 10.8 36.6 10.3 36.5 9.89996C36.4 9.49996 36.2 9.2 36 9C35.8 8.8 35.5 8.69998 35.2 8.59998C34.9 8.49998 34.5 8.5 33.7 8.5H32.8V8.59998Z" fill="white"/>
<path d="M43.8 14L45.5 14.3C45.3 14.9 44.9 15.4 44.5 15.7C44.1 16 43.4 16.2 42.7 16.2C41.6 16.2 40.7 15.8 40.2 15.1C39.8 14.5 39.6 13.8 39.6 12.9C39.6 11.8 39.9 11 40.4 10.4C41 9.79996 41.7 9.5 42.5 9.5C43.5 9.5 44.2 9.8 44.8 10.5C45.4 11.1 45.6 12.1 45.6 13.4H41.3C41.3 13.9 41.5 14.3 41.7 14.6C42 14.9 42.3 15 42.7 15C43 15 43.2 14.9 43.4 14.8C43.6 14.5 43.7 14.3 43.8 14ZM43.9 12.2C43.9 11.7 43.8 11.3 43.5 11.1C43.2 10.9 43 10.7 42.6 10.7C42.2 10.7 41.9 10.8 41.7 11.1C41.5 11.4 41.3 11.7 41.3 12.2H43.9Z" fill="white"/>
<path d="M47 16V7H48.7V16H47Z" fill="white"/>
<path d="M51.8 11.5L50.2 11.2C50.4 10.6 50.7 10.1 51.1 9.79999C51.5 9.49999 52.2 9.29999 53 9.29999C53.8 9.29999 54.3 9.39998 54.7 9.59998C55.1 9.79998 55.3 9.99999 55.5 10.3C55.7 10.6 55.7 11.1 55.7 11.8V13.8C55.7 14.4 55.7 14.8 55.8 15.1C55.9 15.4 56 15.7 56.1 16H54.4C54.4 15.9 54.3 15.7 54.2 15.5C54.2 15.4 54.2 15.3 54.1 15.3C53.8 15.6 53.5 15.8 53.2 15.9C52.9 16 52.5 16.1 52.1 16.1C51.4 16.1 50.9 15.9 50.5 15.6C50.1 15.2 49.9 14.8 49.9 14.2C49.9 13.8 50 13.5 50.2 13.2C50.4 12.9 50.6 12.7 50.9 12.5C51.2 12.3 51.7 12.2 52.3 12.1C53.1 11.9 53.7 11.8 54 11.7V11.6C54 11.3 53.9 11 53.8 10.9C53.6 10.8 53.3 10.7 52.9 10.7C52.6 10.7 52.4 10.8 52.2 10.9C52 11 51.9 11.2 51.8 11.5ZM54.1 12.9C53.9 13 53.5 13.1 53.1 13.2C52.6 13.3 52.3 13.4 52.2 13.5C52 13.7 51.9 13.9 51.9 14.1C51.9 14.3 52 14.5 52.2 14.7C52.4 14.9 52.6 15 52.9 15C53.2 15 53.5 14.9 53.8 14.7C54 14.5 54.1 14.4 54.2 14.1C54.2 14 54.3 13.7 54.3 13.3V12.9H54.1Z" fill="white"/>
<path d="M18.0366 11.446C17.5084 11.446 16.4521 11.446 15.9239 11.446C15.9239 11.1223 15.9239 10.0432 15.9239 9.71943C15.9239 9.61151 15.9239 9.50357 15.9239 9.28774C15.9239 9.07192 16.0295 8.96404 16.2408 8.85613C16.3464 8.85613 16.4521 8.74817 16.6633 8.74817C16.9802 8.74817 18.0366 8.74817 18.3535 8.74817C18.3535 8.74817 18.3535 8.74817 18.4591 8.74817C18.4591 8.10069 18.4591 7.34533 18.4591 6.69785C17.7197 6.69785 16.6633 6.69785 15.9239 6.69785C15.607 6.69785 15.2901 6.80574 15.0788 6.80574C14.5507 7.02156 14.1282 7.34533 13.9169 7.77699C13.8113 8.10073 13.7056 8.53236 13.7056 8.96402C13.7056 9.39567 13.7056 10.7986 13.7056 11.2302C13.7056 11.2302 13.7056 11.2302 13.7056 11.3381C13.3887 11.3381 11.3817 11.3381 11.0648 11.3381C11.0648 11.9856 11.0648 13.2806 11.0648 13.9281C11.3817 13.9281 13.3887 13.9281 13.7056 13.9281C13.7056 15.5468 13.7056 17.3813 13.7056 19H8.21265C7.05068 19 6.09998 18.0288 6.09998 16.8417V6.15828C6.09998 4.97123 7.05068 4 8.21265 4H18.9873C20.1493 4 21.1 4.97123 21.1 6.15828V16.8417C21.1 18.0288 20.1493 19 18.9873 19H16.0296C16.0296 17.3813 16.0296 15.5468 16.0296 13.9281C16.0296 13.9281 16.0295 13.9281 16.1352 13.9281C16.5577 13.9281 17.1915 13.9281 17.7197 13.9281L18.0366 11.446Z" fill="white"/>
</g>
</svg>
