<svg width="66" height="23" viewBox="0 0 66 23" fill="none" xmlns="http://www.w3.org/2000/svg">
<mask id="mask0" mask-type="alpha" maskUnits="userSpaceOnUse" x="0" y="0" width="66" height="23">
<path d="M62.1 0H3.8C1.7 0 0 1.69993 0 3.79993V19.2C0 21.3 1.7 23 3.8 23H62.1C64.2 23 65.9 21.3 65.9 19.2V3.79993C65.8 1.69993 64.1 0 62.1 0Z" fill="#50ABF1"/>
</mask>
<g mask="url(#mask0)">
<rect width="66" height="23" fill="#0274B3"/>
<rect width="66" height="23" fill="#E1E7EC"/>
<rect width="66" height="23" fill="#CB1F24"/>
<rect width="66" height="23" fill="#3A559F"/>
<path d="M28.9 14.3999C28.7 14.1999 28.6 13.9 28.6 13.5V12.2999C28.6 11.4999 28.9 10.9 29.6 10.7L28.2 10.3999V9C28.6 8.7 29 8.39995 29.6 8.19995C30.2 7.99995 30.8 7.8999 31.4 7.8999C32.4 7.8999 33.2 8.1 33.7 8.5C34.2 8.9 34.5 9.59998 34.5 10.6V14.7999H33.1V10.6C33.1 9.99998 33 9.5999 32.7 9.3999C32.4 9.1999 32 9.09998 31.3 9.09998C30.9 9.09998 30.5 9.19993 30.1 9.29993C29.7 9.39993 29.5 9.59993 29.2 9.79993V10L30.6 10.3999V11.2999C30.3 11.3999 30 11.5 29.9 11.7C29.8 11.9 29.7 12.2 29.7 12.5V13.2999C29.7 13.4999 29.7 13.6 29.8 13.7C29.9 13.8 30 13.7999 30.2 13.7999H30.9V14.8999H29.5C29.4 14.6999 29.1 14.5999 28.9 14.3999Z" fill="white"/>
<path d="M32 17.7C31.7 17.5 31.6 17.1999 31.6 16.8999V16.2999H30.9L31 15.3999H32.6V16.7C32.6 16.8 32.6 16.9 32.7 17C32.8 17.1 32.9 17.1 33.1 17.1C33.3 17.1 33.4 17.1 33.5 17C33.6 16.9 33.6 16.8 33.6 16.7V15.3999H34.6V16.7999C34.6 17.0999 34.5 17.4 34.2 17.7C33.9 17.9 33.6 18 33.1 18C32.6 18 32.2 17.9 32 17.7Z" fill="white"/>
<path d="M36.3 12.2999C36.3 11.4999 36.6 10.9 37.3 10.7L35.9 10.3999V9C36.3 8.7 36.7 8.39995 37.3 8.19995C37.9 7.99995 38.5 7.8999 39.1 7.8999C40.1 7.8999 40.9 8.1 41.4 8.5C41.9 8.9 42.2 9.59998 42.2 10.6V14.7999H40.8V10.6C40.8 9.99998 40.7 9.5999 40.4 9.3999C40.1 9.1999 39.7 9.09998 39 9.09998C38.6 9.09998 38.2 9.19993 37.8 9.29993C37.4 9.39993 37.2 9.59993 36.9 9.79993V10L38.3 10.3999V11.2999C38 11.3999 37.7 11.5 37.6 11.7C37.5 11.9 37.4 12.2 37.4 12.5V14.8999H36V12.2999H36.3Z" fill="white"/>
<path d="M43.7 13.3999V10.5C43.7 10.1 43.8 9.6999 44 9.3999C44.2 9.0999 44.4 8.8 44.7 8.5C44.9 8.3 45 8.2 45.1 8C45.2 7.9 45.2 7.79998 45.2 7.59998C45.2 7.39998 45.1 7.19998 45 7.09998C44.9 6.99998 44.7 7 44.4 7C43.9 7 43.5 7.0999 43 7.3999V6.3999C43.2 6.2999 43.5 6.09998 43.9 6.09998C44.2 5.99998 44.6 6 44.9 6C45.5 6 45.9 6.0999 46.2 6.3999C46.5 6.6999 46.6 7 46.6 7.5C46.6 7.8 46.5 7.99995 46.4 8.19995C46.3 8.39995 46.1 8.5999 45.9 8.8999C45.6 9.1999 45.4 9.49995 45.3 9.69995C45.2 9.89995 45.1 10.2 45.1 10.6V13.1C45.1 13.3 45.1 13.5 45.2 13.5C45.3 13.6 45.4 13.6 45.6 13.6H46.2V14.7H45C44.1 14.7 43.7 14.2999 43.7 13.3999Z" fill="white"/>
<path d="M49.6 14.7999C49.4 14.7999 49.2 14.7 49.1 14.7L48.1 12H47.2L47.3 11H49L50 13.7999C50.6 13.7999 51.1 13.6 51.4 13.2C51.8 12.8 51.9 12.1999 51.9 11.2999C51.9 10.6999 51.8 10.1999 51.7 9.8999C51.5 9.5999 51.3 9.29995 50.9 9.19995C50.5 9.09995 50.1 9 49.4 9C48.6 9 47.9 9.09993 47.3 9.29993V8.19995C48.1 7.89995 48.9 7.79993 49.8 7.79993C51 7.79993 51.8 8.09995 52.4 8.69995C52.9 9.29995 53.2 10.0999 53.2 11.2999C53.2 12.0999 53.1 12.7 52.8 13.2C52.5 13.7 52.1 14.0999 51.7 14.3999C51.3 14.6999 50.7 14.7999 50.1 14.7999C50 14.8999 49.8 14.7999 49.6 14.7999Z" fill="white"/>
<path d="M18.0366 11.446C17.5084 11.446 16.4521 11.446 15.9239 11.446C15.9239 11.1223 15.9239 10.0432 15.9239 9.71943C15.9239 9.61151 15.9239 9.50357 15.9239 9.28774C15.9239 9.07192 16.0295 8.96404 16.2408 8.85613C16.3464 8.85613 16.4521 8.74817 16.6633 8.74817C16.9802 8.74817 18.0366 8.74817 18.3535 8.74817C18.3535 8.74817 18.3535 8.74817 18.4591 8.74817C18.4591 8.10069 18.4591 7.34533 18.4591 6.69785C17.7197 6.69785 16.6633 6.69785 15.9239 6.69785C15.607 6.69785 15.2901 6.80574 15.0788 6.80574C14.5507 7.02156 14.1282 7.34533 13.9169 7.77699C13.8113 8.10073 13.7056 8.53236 13.7056 8.96402C13.7056 9.39567 13.7056 10.7986 13.7056 11.2302C13.7056 11.2302 13.7056 11.2302 13.7056 11.3381C13.3887 11.3381 11.3817 11.3381 11.0648 11.3381C11.0648 11.9856 11.0648 13.2806 11.0648 13.9281C11.3817 13.9281 13.3887 13.9281 13.7056 13.9281C13.7056 15.5468 13.7056 17.3813 13.7056 19H8.21265C7.05068 19 6.09998 18.0288 6.09998 16.8417V6.15828C6.09998 4.97123 7.05068 4 8.21265 4H18.9873C20.1493 4 21.1 4.97123 21.1 6.15828V16.8417C21.1 18.0288 20.1493 19 18.9873 19H16.0296C16.0296 17.3813 16.0296 15.5468 16.0296 13.9281C16.0296 13.9281 16.0295 13.9281 16.1352 13.9281C16.5577 13.9281 17.1915 13.9281 17.7197 13.9281L18.0366 11.446Z" fill="white"/>
</g>
</svg>
