<svg width="75" height="23" viewBox="0 0 75 23" fill="none" xmlns="http://www.w3.org/2000/svg">
<mask id="mask0" mask-type="alpha" maskUnits="userSpaceOnUse" x="0" y="0" width="75" height="23">
<path d="M71.1 0H3.8C1.7 0 0 1.70005 0 3.80005V19.2C0 21.3 1.7 23 3.8 23H71.1C73.2 23 74.9 21.3 74.9 19.2V3.80005C74.8 1.70005 73.1 0 71.1 0Z" fill="#50ABF1"/>
</mask>
<g mask="url(#mask0)">
<rect width="75" height="23" fill="#0274B3"/>
<rect width="75" height="23" fill="#E1E7EC"/>
<rect width="75" height="23" fill="#CB1F24"/>
<rect width="75" height="23" fill="#3A559F"/>
<path d="M28.6 15V6H30.4V15H28.6Z" fill="white"/>
<path d="M31.9 12.6V10.9H35.3V12.6H31.9Z" fill="white"/>
<path d="M35.6 13.1L37.3 12.7999C37.4 13.0999 37.5 13.4 37.7 13.6C37.9 13.8 38.2 13.9 38.6 13.9C39 13.9 39.4 13.8 39.6 13.7C39.8 13.6 39.8 13.4 39.8 13.2C39.8 13.1 39.8 13 39.7 12.9C39.6 12.8 39.4 12.7 39.1 12.7C37.7 12.4 36.8 12.1 36.5 11.9C36 11.5 35.7 11.1 35.7 10.4C35.7 9.80002 35.9 9.4 36.4 9C36.8 8.6 37.5 8.40002 38.5 8.40002C39.4 8.40002 40 8.49993 40.5 8.79993C40.9 9.09993 41.2 9.49998 41.4 10.1L39.8 10.4C39.7 10.1 39.6 9.99993 39.4 9.79993C39.2 9.69993 38.9 9.59998 38.6 9.59998C38.1 9.59998 37.8 9.69993 37.6 9.79993C37.5 9.89993 37.4 9.99998 37.4 10.1C37.4 10.2 37.5 10.3 37.6 10.4C37.8 10.5 38.3 10.7 39.2 10.9C40.1 11.1 40.8 11.4 41.1 11.7C41.5 12 41.6 12.4 41.6 13C41.6 13.6 41.4 14.1 40.9 14.5C40.4 14.9 39.7 15.1 38.7 15.1C37.8 15.1 37.1 14.9 36.6 14.6C36.1 14.3 35.8 13.7 35.6 13.1Z" fill="white"/>
<path d="M44.9 6V9.29993C45.5 8.69993 46.1 8.29993 46.9 8.29993C47.3 8.29993 47.7 8.4 48 8.5C48.3 8.6 48.6 8.79998 48.7 9.09998C48.8 9.39998 49 9.60002 49 9.90002C49 10.2 49.1 10.6 49.1 11.2V15H47.4V11.6C47.4 10.9 47.4 10.4999 47.3 10.2999C47.2 10.0999 47.1 10 47 9.90002C46.9 9.80002 46.6 9.69995 46.4 9.69995C46.1 9.69995 45.9 9.80002 45.6 9.90002C45.4 10 45.2 10.2 45.1 10.5C45 10.8 44.9 11.2 44.9 11.7V15H43.2V6H44.9Z" fill="white"/>
<path d="M52.1 10.5L50.5 10.2C50.7 9.59995 51 9.09993 51.4 8.79993C51.8 8.49993 52.5 8.29993 53.3 8.29993C54.1 8.29993 54.6 8.39998 55 8.59998C55.4 8.79998 55.6 8.99993 55.8 9.29993C56 9.59993 56 10.0999 56 10.7999V12.7999C56 13.3999 56 13.8 56.1 14.1C56.2 14.4 56.3 14.7 56.4 15H54.7C54.7 14.9 54.6 14.7 54.5 14.5C54.5 14.4 54.5 14.2999 54.4 14.2999C54.1 14.5999 53.8 14.8 53.5 14.9C53.2 15 52.8 15.1 52.4 15.1C51.7 15.1 51.2 14.9 50.8 14.6C50.4 14.3 50.2 13.8 50.2 13.2C50.2 12.8 50.3 12.5 50.5 12.2C50.7 11.9 50.9 11.7 51.2 11.5C51.5 11.3 52 11.2 52.6 11.1C53.4 10.9 54 10.8 54.3 10.7V10.5C54.3 10.2 54.2 9.89993 54.1 9.79993C53.9 9.69993 53.6 9.59998 53.2 9.59998C52.9 9.59998 52.7 9.69993 52.5 9.79993C52.4 9.89993 52.2 10.2 52.1 10.5ZM54.4 11.9C54.2 12 53.8 12.1 53.4 12.2C52.9 12.3 52.6 12.4 52.5 12.5C52.3 12.7 52.2 12.9 52.2 13.1C52.2 13.3 52.3 13.5 52.5 13.7C52.7 13.9 52.9 14 53.2 14C53.5 14 53.8 13.9 54.1 13.7C54.3 13.5 54.4 13.4 54.5 13.1C54.5 13 54.6 12.6999 54.6 12.2999V11.9H54.4Z" fill="white"/>
<path d="M59.5 15H57.7V8.5H59.3V9.40002C59.6 9.00002 59.8 8.7 60 8.5C60.2 8.4 60.5 8.29993 60.7 8.29993C61.1 8.29993 61.5 8.39998 61.8 8.59998L61.3 10.1C61 9.89998 60.7 9.79993 60.5 9.79993C60.3 9.79993 60.1 9.9 59.9 10C59.7 10.1 59.6 10.4 59.5 10.7C59.4 11 59.4 11.8 59.4 12.9V15H59.5Z" fill="white"/>
<path d="M66.5 12.9L68.2 13.2C68 13.8 67.6 14.3 67.2 14.6C66.7 14.9 66.1 15.1 65.4 15.1C64.3 15.1 63.4 14.7 62.9 14C62.5 13.4 62.3 12.6999 62.3 11.7999C62.3 10.6999 62.6 9.89993 63.1 9.29993C63.6 8.69993 64.4 8.40002 65.2 8.40002C66.2 8.40002 66.9 8.70002 67.5 9.40002C68.1 10 68.3 10.9999 68.3 12.2999H64C64 12.7999 64.2 13.2 64.4 13.5C64.7 13.8 65 13.9 65.4 13.9C65.7 13.9 65.9 13.8 66.1 13.7C66.2 13.5 66.4 13.2 66.5 12.9ZM66.5 11.2C66.5 10.7 66.4 10.3 66.1 10.1C65.9 9.79998 65.6 9.69995 65.2 9.69995C64.8 9.69995 64.5 9.79998 64.3 10.1C64.1 10.4 63.9 10.7 63.9 11.2H66.5Z" fill="white"/>
<path d="M18.0366 11.446C17.5084 11.446 16.4521 11.446 15.9239 11.446C15.9239 11.1223 15.9239 10.0432 15.9239 9.71943C15.9239 9.61151 15.9239 9.50357 15.9239 9.28774C15.9239 9.07192 16.0295 8.96404 16.2408 8.85613C16.3464 8.85613 16.4521 8.74817 16.6633 8.74817C16.9802 8.74817 18.0366 8.74817 18.3535 8.74817C18.3535 8.74817 18.3535 8.74817 18.4591 8.74817C18.4591 8.10069 18.4591 7.34533 18.4591 6.69785C17.7197 6.69785 16.6633 6.69785 15.9239 6.69785C15.607 6.69785 15.2901 6.80574 15.0788 6.80574C14.5507 7.02156 14.1282 7.34533 13.9169 7.77699C13.8113 8.10073 13.7056 8.53236 13.7056 8.96402C13.7056 9.39567 13.7056 10.7986 13.7056 11.2302C13.7056 11.2302 13.7056 11.2302 13.7056 11.3381C13.3887 11.3381 11.3817 11.3381 11.0648 11.3381C11.0648 11.9856 11.0648 13.2806 11.0648 13.9281C11.3817 13.9281 13.3887 13.9281 13.7056 13.9281C13.7056 15.5468 13.7056 17.3813 13.7056 19H8.21265C7.05068 19 6.09998 18.0288 6.09998 16.8417V6.15828C6.09998 4.97123 7.05068 4 8.21265 4H18.9873C20.1493 4 21.1 4.97123 21.1 6.15828V16.8417C21.1 18.0288 20.1493 19 18.9873 19H16.0296C16.0296 17.3813 16.0296 15.5468 16.0296 13.9281C16.0296 13.9281 16.0295 13.9281 16.1352 13.9281C16.5577 13.9281 17.1915 13.9281 17.7197 13.9281L18.0366 11.446Z" fill="white"/>
</g>
</svg>
