<svg width="86" height="23" viewBox="0 0 86 23" fill="none" xmlns="http://www.w3.org/2000/svg">
<mask id="mask0" mask-type="alpha" maskUnits="userSpaceOnUse" x="0" y="0" width="86" height="23">
<path d="M82.1 0H3.80002C1.70002 0 0 1.69999 0 3.79999V19.2C0 21.3 1.70002 23 3.80002 23H82.1C84.2 23 85.9 21.3 85.9 19.2V3.79999C85.8 1.69999 84.1 0 82.1 0Z" fill="#50ABF1"/>
</mask>
<g mask="url(#mask0)">
<rect width="86" height="23" fill="#0274B3"/>
<rect width="86" height="23" fill="#E1E7EC"/>
<rect width="86" height="23" fill="#CB1F24"/>
<rect width="86" height="23" fill="#3A559F"/>
<path d="M31 15V6H33.9C35 6 35.7 5.99998 36.1 6.09998C36.6 6.19998 37 6.5 37.4 7C37.7 7.5 37.9 7.99995 37.9 8.69995C37.9 9.29995 37.8 9.69998 37.6 10.1C37.4 10.5 37.1 10.8 36.8 11C36.5 11.2 36.2 11.4 35.9 11.4C35.5 11.5 34.8 11.5 34 11.5H32.8V14.9H31V15ZM32.8 7.59998V10.1H33.8C34.5 10.1 35 10.1 35.2 10C35.4 9.9 35.6 9.79998 35.8 9.59998C35.9 9.39998 36 9.19996 36 8.89996C36 8.59996 35.9 8.29998 35.7 8.09998C35.5 7.89998 35.3 7.79995 35 7.69995C34.8 7.69995 34.3 7.59998 33.7 7.59998H32.8Z" fill="white"/>
<path d="M40.6 10.5L39 10.2C39.2 9.59995 39.5 9.09999 39.9 8.79999C40.3 8.49999 41 8.29999 41.8 8.29999C42.6 8.29999 43.1 8.39998 43.5 8.59998C43.9 8.79998 44.1 8.99999 44.3 9.29999C44.5 9.59999 44.5 10.1 44.5 10.8V12.8C44.5 13.4 44.5 13.8 44.6 14.1C44.7 14.4 44.8 14.7 44.9 15H43.2C43.2 14.9 43.1 14.7 43 14.5C43 14.4 43 14.3 42.9 14.3C42.6 14.6 42.3 14.8 42 14.9C41.7 15 41.3 15.1 40.9 15.1C40.2 15.1 39.7 14.9 39.3 14.6C38.9 14.2 38.7 13.8 38.7 13.2C38.7 12.8 38.8 12.5 39 12.2C39.2 11.9 39.4 11.7 39.7 11.5C40 11.3 40.5 11.2 41.1 11.1C41.9 10.9 42.5 10.8 42.8 10.7V10.6C42.8 10.3 42.7 9.99996 42.6 9.89996C42.4 9.79996 42.1 9.69995 41.7 9.69995C41.4 9.69995 41.2 9.79996 41 9.89996C40.8 9.99996 40.7 10.2 40.6 10.5ZM42.9 11.9C42.7 12 42.3 12.1 41.9 12.2C41.4 12.3 41.1 12.4 41 12.5C40.8 12.7 40.7 12.9 40.7 13.1C40.7 13.3 40.8 13.5 41 13.7C41.2 13.9 41.4 14 41.7 14C42 14 42.3 13.9 42.6 13.7C42.8 13.5 42.9 13.4 43 13.1C43 13 43.1 12.7 43.1 12.3V11.9H42.9Z" fill="white"/>
<path d="M45.5 8.5H47.3L48.9 13.1L50.4 8.5H52.2L49.9 14.7L49.5 15.8C49.3 16.2 49.2 16.5 49.1 16.7C49 16.9 48.8 17.1 48.6 17.2C48.4 17.3 48.2 17.4 47.9 17.5C47.6 17.6 47.3 17.6 47 17.6C46.7 17.6 46.3 17.6 46 17.5L45.8 16.2C46.1 16.3 46.3 16.3 46.5 16.3C46.9 16.3 47.2 16.2 47.4 15.9C47.6 15.7 47.7 15.4 47.8 15L45.5 8.5Z" fill="white"/>
<path d="M53.3 15V6H55V15H53.3Z" fill="white"/>
<path d="M58 10.5L56.4 10.2C56.6 9.59995 56.9 9.09999 57.3 8.79999C57.7 8.49999 58.4 8.29999 59.2 8.29999C60 8.29999 60.5 8.39998 60.9 8.59998C61.3 8.79998 61.5 8.99999 61.7 9.29999C61.9 9.59999 61.9 10.1 61.9 10.8V12.8C61.9 13.4 61.9 13.8 62 14.1C62.1 14.4 62.2 14.7 62.3 15H60.7C60.7 14.9 60.6 14.7 60.5 14.5C60.5 14.4 60.5 14.3 60.4 14.3C60.1 14.6 59.8 14.8 59.5 14.9C59.2 15 58.8 15.1 58.4 15.1C57.7 15.1 57.2 14.9 56.8 14.6C56.4 14.2 56.2 13.8 56.2 13.2C56.2 12.8 56.3 12.5 56.5 12.2C56.7 11.9 56.9 11.7 57.2 11.5C57.5 11.3 58 11.2 58.6 11.1C59.4 10.9 60 10.8 60.3 10.7V10.6C60.3 10.3 60.2 9.99996 60.1 9.89996C59.9 9.79996 59.6 9.69995 59.2 9.69995C58.9 9.69995 58.7 9.79996 58.5 9.89996C58.3 9.99996 58.1 10.2 58 10.5ZM60.3 11.9C60.1 12 59.7 12.1 59.3 12.2C58.8 12.3 58.5 12.4 58.4 12.5C58.2 12.7 58.1 12.9 58.1 13.1C58.1 13.3 58.2 13.5 58.4 13.7C58.6 13.9 58.8 14 59.1 14C59.4 14 59.7 13.9 60 13.7C60.2 13.5 60.3 13.4 60.4 13.1C60.4 13 60.5 12.7 60.5 12.3V11.9H60.3Z" fill="white"/>
<path d="M63.1 13.2L64.8 12.9C64.9 13.2 65 13.5 65.2 13.7C65.4 13.9 65.7 14 66.1 14C66.5 14 66.9 13.9 67.1 13.8C67.3 13.7 67.3 13.5 67.3 13.3C67.3 13.2 67.3 13.1 67.2 13C67.1 12.9 66.9 12.8 66.6 12.8C65.2 12.5 64.3 12.2 64 12C63.5 11.6 63.2 11.2 63.2 10.5C63.2 9.9 63.4 9.49998 63.9 9.09998C64.4 8.69998 65 8.5 66 8.5C66.9 8.5 67.5 8.59996 68 8.89996C68.5 9.19996 68.7 9.59995 68.9 10.2L67.3 10.5C67.2 10.2 67.1 10.1 66.9 9.89996C66.7 9.79996 66.4 9.69995 66.1 9.69995C65.6 9.69995 65.3 9.79996 65.1 9.89996C65 9.99996 64.9 10.1 64.9 10.2C64.9 10.3 65 10.4 65.1 10.5C65.3 10.6 65.8 10.8 66.7 11C67.6 11.2 68.3 11.5 68.6 11.8C69 12.1 69.1 12.5 69.1 13.1C69.1 13.7 68.9 14.2 68.4 14.6C67.9 15 67.2 15.2 66.2 15.2C65.3 15.2 64.6 15 64.1 14.7C63.6 14.3 63.3 13.8 63.1 13.2ZM64.7 17.5V16.8C65.1 16.8 65.5 16.9 65.9 16.9C66.3 16.9 66.5 16.8 66.7 16.7C66.8 16.6 66.9 16.5 66.9 16.3C66.9 16.2 66.8 16 66.7 15.9C66.6 15.8 66.4 15.7 66.1 15.7C65.8 15.7 65.6 15.7 65.3 15.8L65.5 15.2C65.8 15.1 66.2 15 66.5 15C67 15 67.4 15.1 67.7 15.3C68 15.5 68.1 15.8 68.1 16.1C68.1 16.5 68 16.8 67.7 17C67.3 17.3 66.7 17.5 66 17.5C65.4 17.6 65 17.6 64.7 17.5Z" fill="white"/>
<path d="M70.7 15V8.5H72.4V15H70.7Z" fill="white"/>
<path d="M80.1 15H78.4V11.7C78.4 11 78.4 10.5 78.3 10.3C78.2 10.1 78.1 9.89999 77.9 9.79999C77.7 9.69999 77.5 9.59998 77.3 9.59998C77 9.59998 76.7 9.69999 76.5 9.79999C76.3 9.89999 76.1 10.2 76 10.4C75.9 10.7 75.9 11.2 75.9 11.9V14.8H74.2V8.29999H75.8V9.29999C76.4 8.59999 77.1 8.19995 77.9 8.19995C78.3 8.19995 78.6 8.29996 78.9 8.39996C79.2 8.49996 79.5 8.69996 79.6 8.89996C79.7 9.09996 79.9 9.39998 79.9 9.59998C80 9.89998 80 10.3 80 10.8V15H80.1Z" fill="white"/>
<path d="M18.0366 11.446C17.5084 11.446 16.4521 11.446 15.9239 11.446C15.9239 11.1223 15.9239 10.0432 15.9239 9.71943C15.9239 9.61151 15.9239 9.50357 15.9239 9.28774C15.9239 9.07192 16.0295 8.96404 16.2408 8.85613C16.3464 8.85613 16.4521 8.74817 16.6633 8.74817C16.9802 8.74817 18.0366 8.74817 18.3535 8.74817C18.3535 8.74817 18.3535 8.74817 18.4591 8.74817C18.4591 8.10069 18.4591 7.34533 18.4591 6.69785C17.7197 6.69785 16.6633 6.69785 15.9239 6.69785C15.607 6.69785 15.2901 6.80574 15.0788 6.80574C14.5507 7.02156 14.1282 7.34533 13.9169 7.77699C13.8113 8.10073 13.7056 8.53236 13.7056 8.96402C13.7056 9.39567 13.7056 10.7986 13.7056 11.2302C13.7056 11.2302 13.7056 11.2302 13.7056 11.3381C13.3887 11.3381 11.3817 11.3381 11.0648 11.3381C11.0648 11.9856 11.0648 13.2806 11.0648 13.9281C11.3817 13.9281 13.3887 13.9281 13.7056 13.9281C13.7056 15.5468 13.7056 17.3813 13.7056 19H8.21265C7.05068 19 6.09998 18.0288 6.09998 16.8417V6.15828C6.09998 4.97123 7.05068 4 8.21265 4H18.9873C20.1493 4 21.1 4.97123 21.1 6.15828V16.8417C21.1 18.0288 20.1493 19 18.9873 19H16.0296C16.0296 17.3813 16.0296 15.5468 16.0296 13.9281C16.0296 13.9281 16.0295 13.9281 16.1352 13.9281C16.5577 13.9281 17.1915 13.9281 17.7197 13.9281L18.0366 11.446Z" fill="white"/>
</g>
</svg>
