<svg width="92" height="23" viewBox="0 0 92 23" fill="none" xmlns="http://www.w3.org/2000/svg">
<mask id="mask0" mask-type="alpha" maskUnits="userSpaceOnUse" x="0" y="0" width="92" height="23">
<path d="M88.1 0H3.8C1.7 0 0 1.70005 0 3.80005V19.2C0 21.3 1.7 23 3.8 23H88.1C90.2 23 91.9 21.3 91.9 19.2V3.80005C91.8 1.70005 90.1 0 88.1 0Z" fill="#50ABF1"/>
</mask>
<g mask="url(#mask0)">
<rect width="92" height="23" fill="#0274B3"/>
<rect width="92" height="23" fill="#E1E7EC"/>
<rect width="92" height="23" fill="#CB1F24"/>
<rect width="92" height="23" fill="#3A559F"/>
<path d="M28.5 15.1001V6.1001H30.2V9.30005C30.7 8.70005 31.4 8.40002 32.1 8.40002C32.9 8.40002 33.5 8.70005 34.1 9.30005C34.7 9.90005 34.9 10.7 34.9 11.8C34.9 12.9 34.6 13.8 34.1 14.4C33.6 15 32.9 15.3 32.2 15.3C31.8 15.3 31.5 15.2 31.1 15C30.7 14.8 30.4 14.5001 30.2 14.2001V15.2001H28.5V15.1001ZM30.2 11.7001C30.2 12.4001 30.3 12.9001 30.5 13.2001C30.8 13.7001 31.2 13.9 31.7 13.9C32.1 13.9 32.4 13.7 32.7 13.4C33 13.1 33.1 12.6 33.1 11.9C33.1 11.2 33 10.6 32.7 10.3C32.4 10 32.1 9.80005 31.7 9.80005C31.3 9.80005 30.9 10 30.7 10.3C30.5 10.6 30.2 11.1001 30.2 11.7001Z" fill="white"/>
<path d="M35.8 11.8C35.8 11.2 35.9 10.7001 36.2 10.1001C36.5 9.6001 36.9 9.20002 37.4 8.90002C37.9 8.60002 38.5 8.5 39.1 8.5C40.1 8.5 40.9 8.8 41.5 9.5C42.1 10.1 42.4 10.9 42.4 11.9C42.4 12.9 42.1 13.7 41.4 14.3C40.8 14.9 40 15.3 39 15.3C38.4 15.3 37.8 15.2 37.3 14.9C36.8 14.6 36.3 14.2001 36.1 13.7001C36 13.1001 35.8 12.5 35.8 11.8ZM37.1 7.5V6H38.6V7.5H37.1ZM37.6 11.9C37.6 12.5 37.8 13 38.1 13.4C38.4 13.7 38.8 13.9 39.2 13.9C39.6 13.9 40 13.7 40.3 13.4C40.6 13.1 40.8 12.6 40.8 11.9C40.8 11.3 40.6 10.8 40.3 10.4C40 10.1 39.6 9.90002 39.2 9.90002C38.8 9.90002 38.4 10.1 38.1 10.4C37.8 10.7 37.6 11.2 37.6 11.9ZM39.7 7.5V6H41.2V7.5H39.7Z" fill="white"/>
<path d="M43.9 15.1001V6.1001H45.6V15.1001H43.9Z" fill="white"/>
<path d="M51.6 15.1001V14.1001C51.4 14.4001 51.1 14.7 50.7 14.9C50.3 15.1 49.9 15.2001 49.5 15.2001C49.1 15.2001 48.7 15.1 48.3 14.9C47.9 14.7 47.7 14.4001 47.5 14.1001C47.3 13.8001 47.3 13.3001 47.3 12.7001V8.6001H49V11.6001C49 12.5001 49 13.1 49.1 13.3C49.2 13.5 49.3 13.7 49.4 13.8C49.6 13.9 49.8 14 50 14C50.3 14 50.6 13.9 50.8 13.8C51 13.7 51.2 13.4001 51.3 13.2001C51.4 13.0001 51.4 12.4 51.4 11.4V8.70007H53.1V15.2001H51.6V15.1001ZM48.2 7.5V6H49.7V7.5H48.2ZM50.9 7.5V6H52.4V7.5H50.9Z" fill="white"/>
<path d="M54.4 13.3L56.1 13C56.2 13.3 56.3 13.6 56.5 13.8C56.7 14 57 14.1001 57.4 14.1001C57.8 14.1001 58.2 14 58.4 13.9C58.6 13.8 58.6 13.6 58.6 13.4C58.6 13.3 58.6 13.2001 58.5 13.1001C58.4 13.0001 58.2 12.9 57.9 12.9C56.5 12.6 55.6 12.3001 55.3 12.1001C54.8 11.7001 54.5 11.3001 54.5 10.6001C54.5 10.0001 54.7 9.60007 55.2 9.20007C55.6 8.80007 56.3 8.6001 57.3 8.6001C58.2 8.6001 58.8 8.7 59.3 9C59.8 9.3 60 9.70005 60.2 10.3L58.6 10.6001C58.5 10.3001 58.4 10.2 58.2 10C58 9.9 57.7 9.80005 57.4 9.80005C56.9 9.80005 56.6 9.9 56.4 10C56.3 10.1 56.2 10.2 56.2 10.3C56.2 10.4 56.3 10.5001 56.4 10.6001C56.6 10.7001 57.1 10.9001 58 11.1001C58.9 11.3001 59.6 11.6 59.9 11.9C60.3 12.2 60.4 12.6001 60.4 13.2001C60.4 13.8001 60.2 14.3001 59.7 14.7001C59.2 15.1001 58.5 15.3 57.5 15.3C56.6 15.3 55.9 15.1 55.4 14.8C54.9 14.5 54.6 13.9 54.4 13.3ZM56.1 17.6001V16.9C56.5 16.9 56.9 17 57.3 17C57.7 17 57.9 16.9 58.1 16.8C58.2 16.7 58.3 16.6 58.3 16.4C58.3 16.3 58.2 16.1 58.1 16C58 15.9 57.8 15.8 57.5 15.8C57.2 15.8 57 15.8 56.7 15.9L56.9 15.3C57.2 15.2 57.6 15.1001 57.9 15.1001C58.4 15.1001 58.8 15.2 59.1 15.4C59.4 15.6 59.5 15.9001 59.5 16.2001C59.5 16.6001 59.4 16.9001 59.1 17.1001C58.7 17.4001 58.1 17.6001 57.4 17.6001C56.7 17.7001 56.3 17.6001 56.1 17.6001Z" fill="white"/>
<path d="M61.9 8.6001H63.5V9.5C64.1 8.8 64.7 8.5 65.5 8.5C65.9 8.5 66.3 8.60005 66.6 8.80005C66.9 9.00005 67.2 9.2001 67.4 9.6001C67.7 9.3001 68 9.00005 68.3 8.80005C68.6 8.60005 69 8.5 69.4 8.5C69.9 8.5 70.3 8.60005 70.6 8.80005C70.9 9.00005 71.2 9.30007 71.3 9.70007C71.4 10.0001 71.5 10.4 71.5 11V15.2001H69.7V11.5C69.7 10.9 69.6 10.4 69.5 10.3C69.3 10.1 69.1 9.90002 68.8 9.90002C68.6 9.90002 68.3 10.0001 68.1 10.1001C67.9 10.2001 67.7 10.5001 67.6 10.7001C67.5 10.9001 67.5 11.4 67.5 12V15.1001H65.8V11.5C65.8 10.9 65.8 10.5 65.7 10.3C65.6 10.1 65.5 10 65.4 9.90002C65.3 9.80002 65.1 9.80005 64.9 9.80005C64.6 9.80005 64.4 9.9 64.2 10C64 10.1 63.8 10.3001 63.7 10.6001C63.6 10.9001 63.6 11.3 63.6 11.9V15.1001H61.9V8.6001Z" fill="white"/>
<path d="M78.8 11.8C78.8 12.8 78.6 13.6001 78.1 14.2001C77.6 14.9001 76.8 15.2001 75.9 15.2001C74.8 15.2001 74 14.8 73.5 14C73 13.3 72.8 12.4 72.9 11.3H77.2C77.2 10.8 77.1 10.5001 76.8 10.2001C76.5 9.90007 76.2 9.70007 75.8 9.70007C75.3 9.70007 74.9 10.0001 74.7 10.6001L73 10.3C73.4 9.00005 74.4 8.40002 75.8 8.40002C76.9 8.40002 77.8 8.8 78.3 9.5C78.6 10.2 78.8 10.9 78.8 11.8ZM77 12.4H74.4C74.4 12.8 74.5 13.2 74.7 13.5C74.9 13.8 75.3 14 75.7 14C76.1 14 76.4 13.8 76.7 13.5C76.9 13.2 77 12.8 77 12.4Z" fill="white"/>
<path d="M80 15.1001V6.1001H81.7V10.9L83.7 8.6001H85.8L83.6 11L86 15.1001H84.1L82.5 12.2001L81.7 13V15.1001H80Z" fill="white"/>
<path d="M18.0366 11.446C17.5084 11.446 16.4521 11.446 15.9239 11.446C15.9239 11.1223 15.9239 10.0432 15.9239 9.71943C15.9239 9.61151 15.9239 9.50357 15.9239 9.28774C15.9239 9.07192 16.0295 8.96404 16.2408 8.85613C16.3464 8.85613 16.4521 8.74817 16.6633 8.74817C16.9802 8.74817 18.0366 8.74817 18.3535 8.74817C18.3535 8.74817 18.3535 8.74817 18.4591 8.74817C18.4591 8.10069 18.4591 7.34533 18.4591 6.69785C17.7197 6.69785 16.6633 6.69785 15.9239 6.69785C15.607 6.69785 15.2901 6.80574 15.0788 6.80574C14.5507 7.02156 14.1282 7.34533 13.9169 7.77699C13.8113 8.10073 13.7056 8.53236 13.7056 8.96402C13.7056 9.39567 13.7056 10.7986 13.7056 11.2302C13.7056 11.2302 13.7056 11.2302 13.7056 11.3381C13.3887 11.3381 11.3817 11.3381 11.0648 11.3381C11.0648 11.9856 11.0648 13.2806 11.0648 13.9281C11.3817 13.9281 13.3887 13.9281 13.7056 13.9281C13.7056 15.5468 13.7056 17.3813 13.7056 19H8.21265C7.05068 19 6.09998 18.0288 6.09998 16.8417V6.15828C6.09998 4.97123 7.05068 4 8.21265 4H18.9873C20.1493 4 21.1 4.97123 21.1 6.15828V16.8417C21.1 18.0288 20.1493 19 18.9873 19H16.0296C16.0296 17.3813 16.0296 15.5468 16.0296 13.9281C16.0296 13.9281 16.0295 13.9281 16.1352 13.9281C16.5577 13.9281 17.1915 13.9281 17.7197 13.9281L18.0366 11.446Z" fill="white"/>
</g>
</svg>
