<svg width="100" height="23" viewBox="0 0 100 23" fill="none" xmlns="http://www.w3.org/2000/svg">
<mask id="mask0" mask-type="alpha" maskUnits="userSpaceOnUse" x="0" y="0" width="100" height="23">
<path d="M96.1 0H3.80002C1.70002 0 0 1.69999 0 3.79999V19.2C0 21.3 1.70002 23 3.80002 23H96.1C98.2 23 99.9 21.3 99.9 19.2V3.79999C99.8 1.69999 98.1 0 96.1 0Z" fill="#50ABF1"/>
</mask>
<g mask="url(#mask0)">
<rect width="100" height="23" fill="#0274B3"/>
<rect width="100" height="23" fill="#E1E7EC"/>
<rect width="100" height="23" fill="#CB1F24"/>
<rect width="100" height="23" fill="#3A559F"/>
<path d="M31 6H38.1V15H36.3V7.5H32.8V15H31V6Z" fill="white"/>
<path d="M39.6 11.6C39.6 11 39.7 10.5 40 9.90002C40.3 9.40002 40.7 9.00001 41.2 8.70001C41.7 8.40001 42.3 8.29999 42.9 8.29999C43.9 8.29999 44.7 8.59999 45.3 9.29999C45.9 9.89999 46.2 10.7 46.2 11.7C46.2 12.7 45.9 13.5 45.2 14.1C44.6 14.7 43.8 15.1 42.8 15.1C42.2 15.1 41.6 15 41.1 14.7C40.6 14.4 40.1 14 39.9 13.5C39.7 13 39.6 12.3 39.6 11.6ZM41.4 11.7C41.4 12.3 41.6 12.8 41.9 13.2C42.2 13.5 42.6 13.7 43 13.7C43.4 13.7 43.8 13.5 44.1 13.2C44.4 12.9 44.6 12.4 44.6 11.7C44.6 11.1 44.4 10.6 44.1 10.2C43.8 9.90001 43.4 9.70001 43 9.70001C42.6 9.70001 42.2 9.90001 41.9 10.2C41.6 10.5 41.4 11 41.4 11.7Z" fill="white"/>
<path d="M47.6 8.40002H49.2V13.5H51.2V8.40002H52.8V13.5H54.8V8.40002H56.4V14.9H47.7V8.40002H47.6Z" fill="white"/>
<path d="M58 8.40002H59.7V12.5L62.3 8.40002H64V14.9H62.3V10.7L59.6 14.9H57.9V8.40002H58Z" fill="white"/>
<path d="M65.7 8.40002H67.3V9.40002C67.5 9.10002 67.8 8.79998 68.1 8.59998C68.5 8.39998 68.8 8.29999 69.3 8.29999C70.1 8.29999 70.7 8.60001 71.2 9.20001C71.7 9.80001 72 10.6 72 11.7C72 12.8 71.7 13.6 71.2 14.2C70.7 14.8 70 15.1 69.3 15.1C68.9 15.1 68.6 15 68.3 14.9C68 14.8 67.7 14.5 67.4 14.2V17.5H65.7V8.40002ZM67.4 11.6C67.4 12.3 67.5 12.9 67.8 13.2C68.1 13.5 68.4 13.7 68.9 13.7C69.3 13.7 69.6 13.5 69.9 13.2C70.2 12.9 70.3 12.4 70.3 11.6C70.3 10.9 70.2 10.4 69.9 10.1C69.6 9.79998 69.3 9.59998 68.9 9.59998C68.5 9.59998 68.1 9.79998 67.9 10.1C67.7 10.4 67.4 10.9 67.4 11.6Z" fill="white"/>
<path d="M73.4 8.40002H75.1V12.5L77.7 8.40002H79.4V14.9H77.7V10.7L75 14.9H73.3V8.40002H73.4Z" fill="white"/>
<path d="M80.3 8.40002H86.2V9.79999H84.1V14.9H82.4V9.79999H80.3V8.40002Z" fill="white"/>
<path d="M87.2 8.40002H88.9V12.5L91.5 8.40002H93.2V14.9H91.5V10.7L88.8 14.9H87.1V8.40002H87.2Z" fill="white"/>
<path d="M18.0366 11.446C17.5084 11.446 16.4521 11.446 15.9239 11.446C15.9239 11.1223 15.9239 10.0432 15.9239 9.71943C15.9239 9.61151 15.9239 9.50357 15.9239 9.28774C15.9239 9.07192 16.0295 8.96404 16.2408 8.85613C16.3464 8.85613 16.4521 8.74817 16.6633 8.74817C16.9802 8.74817 18.0366 8.74817 18.3535 8.74817C18.3535 8.74817 18.3535 8.74817 18.4591 8.74817C18.4591 8.10069 18.4591 7.34533 18.4591 6.69785C17.7197 6.69785 16.6633 6.69785 15.9239 6.69785C15.607 6.69785 15.2901 6.80574 15.0788 6.80574C14.5507 7.02156 14.1282 7.34533 13.9169 7.77699C13.8113 8.10073 13.7056 8.53236 13.7056 8.96402C13.7056 9.39567 13.7056 10.7986 13.7056 11.2302C13.7056 11.2302 13.7056 11.2302 13.7056 11.3381C13.3887 11.3381 11.3817 11.3381 11.0648 11.3381C11.0648 11.9856 11.0648 13.2806 11.0648 13.9281C11.3817 13.9281 13.3887 13.9281 13.7056 13.9281C13.7056 15.5468 13.7056 17.3813 13.7056 19H8.21265C7.05068 19 6.09998 18.0288 6.09998 16.8417V6.15828C6.09998 4.97123 7.05068 4 8.21265 4H18.9873C20.1493 4 21.1 4.97123 21.1 6.15828V16.8417C21.1 18.0288 20.1493 19 18.9873 19H16.0296C16.0296 17.3813 16.0296 15.5468 16.0296 13.9281C16.0296 13.9281 16.0295 13.9281 16.1352 13.9281C16.5577 13.9281 17.1915 13.9281 17.7197 13.9281L18.0366 11.446Z" fill="white"/>
</g>
</svg>
