<svg width="89" height="23" viewBox="0 0 89 23" fill="none" xmlns="http://www.w3.org/2000/svg">
<mask id="mask0" mask-type="alpha" maskUnits="userSpaceOnUse" x="0" y="0" width="89" height="23">
<path d="M85.1 0H3.8C1.7 0 0 1.70005 0 3.80005V19.2C0 21.3 1.7 23 3.8 23H85.1C87.2 23 88.9 21.3 88.9 19.2V3.80005C88.8 1.70005 87.1 0 85.1 0Z" fill="#50ABF1"/>
</mask>
<g mask="url(#mask0)">
<rect width="89" height="23" fill="#0274B3"/>
<rect width="89" height="23" fill="#E1E7EC"/>
<rect width="89" height="23" fill="#CB1F24"/>
<rect width="89" height="23" fill="#3A559F"/>
<path d="M34.5 13.5C34.5 14.1 34.4 14.5 34.3 14.9C34.2 15.3 34 15.5001 33.8 15.7001C33.6 15.9001 33.2 16.1001 32.7 16.2001C32.2 16.3001 31.7 16.4 31.2 16.4C30.2 16.4 29.4 16.2 28.9 15.9C28.4 15.5 28.1 15 28.1 14.4C28.1 13.8 28.2 13.3 28.4 12.8C28.6 12.3 29 11.6 29.5 10.8L29.9 11.1001C29.5 11.8001 29.2 12.3001 29.1 12.6001C29 12.9001 28.9 13.2001 28.9 13.6001C28.9 14.0001 29.1 14.4001 29.6 14.6001C30.1 14.9001 30.7 15 31.4 15C32.1 15 32.8 14.9001 33.3 14.6001C33.8 14.3001 34.1 14.0001 34.1 13.6001C34.1 13.3001 34.1 13.1 34 12.8C33.9 12.5 33.7 12.2001 33.4 11.6001L33.9 9.90002C34.2 10.4 34.4 10.8 34.4 11C34.5 11.4 34.6 11.8 34.6 12.4V13.5H34.5Z" fill="white"/>
<path d="M37.9 13.8H34.1V12.1001H37.3C37.3 11.8001 37.2 11.6 37.1 11.4C37 11.3 36.9 11.1 36.7 10.8L37.2 9.30005C37.5 9.60005 37.7 10 37.8 10.4C37.9 10.8 38 11.3001 38 12.1001V13.8H37.9ZM37.8 14.9L37.2 16.1001L36.3 15.6001L35.8 16.6001L34.7 16L35.4 14.8L36.3 15.3L36.8 14.3L37.8 14.9Z" fill="white"/>
<path d="M43.3 14C43.3 14.2 43.2 14.6 42.9 15C42.6 15.4 42.3 15.8001 41.9 16.1001C41.5 16.4001 41.1 16.6001 40.8 16.6001C40.4 16.6001 40.1 16.5 39.6 16.3C39.2 16.1 38.7 15.8001 37.9 15.2001L38.2 14.8C38.6 15 38.9 15.2 39.1 15.3C39.3 15.4 39.6 15.4 39.8 15.4C40.1 15.4 40.4 15.3001 40.6 15.2001C40.9 15.0001 41.3 14.7 41.8 14.3C42.5 13.7 42.8 13.2 42.8 12.9C42.8 12.7 42.7 12.5 42.6 12.3C42.5 12 42.3 11.7 42.1 11.5L42.4 9.80005C42.7 10.1 42.9 10.4 43 10.8C43.2 11.2 43.2 11.6001 43.2 12.1001V14H43.3Z" fill="white"/>
<path d="M47.8 13.8H42.9V12.1001H46.9C46.7 11.9001 46.6 11.7001 46.4 11.6001C46.3 11.5001 46.1 11.3001 45.9 11.2001C45.7 11.0001 45.4 10.8001 45.2 10.7001L45 10.9C44.6 10.5 44.4 10.3001 44.4 10.2001C44.2 10.0001 44.1 9.70002 44.1 9.40002C44.1 9.00002 44.1 8.7 44.2 8.5C44.3 8.3 44.5 8.10002 44.7 7.90002C44.9 7.70002 45.2 7.6 45.5 7.5C45.7 7.4 46 7.3001 46.3 7.1001C46.5 7.0001 46.8 6.90007 47.3 6.70007V8.20007C47.3 8.20007 47.1 8.30002 46.8 8.40002C46.4 8.50002 46.1 8.60007 45.8 8.70007C45.5 8.80007 45.3 8.9 45.3 9C45.3 9 45.4 9.2 45.7 9.5C46.1 9.9 46.4 10.2001 46.7 10.6001C47.1 11.1001 47.5 11.7001 47.8 12.2001V13.8Z" fill="white"/>
<path d="M54 13.8C53.1 13.8 52.5 13.6 52.1 13.3C51.8 13 51.6 12.6 51.6 12C51.6 11.6 51.7 11.2 51.8 10.9C51.9 10.5 52.1 10.1001 52.4 9.6001L52.8 9.90002C52.6 10.2 52.5 10.4001 52.5 10.6001C52.5 10.8001 52.4 10.9001 52.4 11.1001C52.4 11.5001 52.5 11.8 52.8 11.9C53.1 12 53.6 12.1001 54.5 12.1001H59.9C59.7 11.9001 59.6 11.7001 59.4 11.6001C59.3 11.5001 59.1 11.3001 58.9 11.2001C58.7 11.0001 58.4 10.8001 58.2 10.7001L58 10.9C57.6 10.5 57.4 10.3001 57.4 10.2001C57.2 10.0001 57.1 9.70002 57.1 9.40002C57.1 9.00002 57.1 8.7 57.2 8.5C57.3 8.3 57.5 8.10002 57.7 7.90002C57.9 7.70002 58.2 7.6 58.5 7.5C58.7 7.4 59 7.3001 59.3 7.1001C59.5 7.0001 59.8 6.90007 60.3 6.70007V8.20007C60.3 8.20007 60.1 8.30002 59.8 8.40002C59.4 8.50002 59.1 8.60007 58.8 8.70007C58.5 8.80007 58.3 8.9 58.3 9C58.3 9 58.4 9.2 58.7 9.5C59.1 9.9 59.4 10.2001 59.7 10.6001C60.1 11.1001 60.5 11.7001 60.8 12.2001V13.9H54V13.8Z" fill="white"/>
<path d="M63 12.1001C63 12.5001 63 12.8001 62.9 13.1001C62.8 13.4001 62.6 13.8 62.4 14.3L62 14.2001C62.1 13.7001 62.1 13.3 62.1 12.9C62.1 12.7 62.1 12.3 62 11.8C62 11.3 61.9 10.8 61.8 10.4C61.7 9.90002 61.6 9.40007 61.5 8.70007C61.5 8.50007 61.4 8.30007 61.4 8.20007C61.4 8.10007 61.5 7.9001 61.6 7.6001C61.7 7.3001 61.9 6.9 62.1 6.5L62.5 8.70007C62.6 9.50007 62.7 10.2 62.8 10.8C63 11.2 63 11.6001 63 12.1001Z" fill="white"/>
<path d="M68.9 14C68.9 14.2 68.8 14.6 68.5 15C68.2 15.4 67.9 15.8001 67.5 16.1001C67.1 16.4001 66.7 16.6001 66.4 16.6001C66 16.6001 65.7 16.5 65.2 16.3C64.8 16.1 64.3 15.8001 63.5 15.2001L63.8 14.8C64.2 15 64.5 15.2 64.7 15.3C64.9 15.4 65.2 15.4 65.4 15.4C65.7 15.4 66 15.3001 66.2 15.2001C66.5 15.0001 66.9 14.7 67.3 14.3C68 13.7 68.3 13.2 68.3 12.9C68.3 12.7 68.2 12.5 68.1 12.3C68 12 67.8 11.7 67.6 11.5L67.9 9.80005C68.2 10.1 68.4 10.4 68.5 10.8C68.7 11.2 68.7 11.6001 68.7 12.1001V14H68.9Z" fill="white"/>
<path d="M72.3 13.8H68.5V12.1001H71.7C71.7 11.8001 71.6 11.6 71.5 11.4C71.4 11.3 71.3 11.1 71.1 10.8L71.6 9.30005C71.9 9.60005 72.1 10 72.2 10.4C72.3 10.8 72.4 11.3001 72.4 12.1001V13.8H72.3ZM72.2 7.30005L71.6 8.5L70.7 8L70.2 9L69.1 8.40002L69.8 7.20007L70.7 7.70007L71.2 6.70007L72.2 7.30005Z" fill="white"/>
<path d="M79.9 13.8C79.4 13.8 79.1 13.8001 78.8 13.7001C78.5 13.6001 78.2 13.5 77.9 13.4C77.7 13.6 77.5 13.7001 77.3 13.7001C77.1 13.8001 76.8 13.8 76.5 13.8H75.5C75.2 13.8 75 13.7001 74.9 13.6001C74.7 13.5001 74.6 13.2 74.5 12.9C74.3 13.2 74 13.5001 73.7 13.6001C73.5 13.7001 73.2 13.8 72.9 13.8H72V12.1001H72.9C73.3 12.1001 73.7 12.0001 74 11.7001C74.4 11.4001 74.6 10.9 74.6 10.3L75 10.4C75 10.5 75 10.7 75 10.8C75 11 75 11.2 75 11.4C75 11.6 75.1 11.8 75.2 11.9C75.3 12 75.5 12.1001 75.7 12.1001H76.5C77 12.1001 77.4 12 77.6 11.9C77.9 11.7 78 11.4 78 11C78 10.9 78 10.8001 78.1 10.7001C78.1 10.7001 78.2 10.6 78.3 10.5L78.5 10.3C78.5 10.4 78.5 10.5001 78.5 10.6001C78.5 10.7001 78.5 10.8 78.5 10.9C78.5 11.1 78.5 11.4 78.4 11.8C78.6 11.9 78.7 11.9 78.9 12C79.1 12.1 79.3 12.1001 79.5 12.1001C79.5 12.0001 79.4 11.8001 79.3 11.6001C79.2 11.4001 79.1 11.2001 79.1 11.2001C79.1 11.1001 79.1 11 79.1 11C79.1 11 79.2 10.9 79.2 10.8L79.7 10.1001C79.8 10.4001 79.9 10.6 79.9 10.8C79.9 11 80 11.3001 80 11.6001V13.8H79.9ZM79.2 8L78.5 9.20007L77.6 8.70007L77.1 9.70007L76 9.1001L76.6 7.90002L77.5 8.40002L78 7.40002L79.2 8ZM78 6.5L77.4 7.80005L76.3 7.20007L76.9 6L78 6.5Z" fill="white"/>
<path d="M82.2 12.1001C82.2 12.5001 82.2 12.8001 82.1 13.1001C82 13.4001 81.8 13.8 81.6 14.3L81.2 14.2001C81.3 13.7001 81.3 13.3 81.3 12.9C81.3 12.7 81.3 12.3 81.2 11.8C81.2 11.3 81.1 10.8 81 10.4C80.9 9.90002 80.8 9.40007 80.7 8.70007C80.7 8.50007 80.6 8.30007 80.6 8.20007C80.6 8.10007 80.7 7.9001 80.8 7.6001C80.9 7.3001 81.1 6.9 81.3 6.5L81.7 8.70007C81.8 9.50007 81.9 10.2 82 10.8C82.1 11.2 82.2 11.6001 82.2 12.1001Z" fill="white"/>
<path d="M18.0366 11.446C17.5084 11.446 16.4521 11.446 15.9239 11.446C15.9239 11.1223 15.9239 10.0432 15.9239 9.71943C15.9239 9.61151 15.9239 9.50357 15.9239 9.28774C15.9239 9.07192 16.0295 8.96404 16.2408 8.85613C16.3464 8.85613 16.4521 8.74817 16.6633 8.74817C16.9802 8.74817 18.0366 8.74817 18.3535 8.74817C18.3535 8.74817 18.3535 8.74817 18.4591 8.74817C18.4591 8.10069 18.4591 7.34533 18.4591 6.69785C17.7197 6.69785 16.6633 6.69785 15.9239 6.69785C15.607 6.69785 15.2901 6.80574 15.0788 6.80574C14.5507 7.02156 14.1282 7.34533 13.9169 7.77699C13.8113 8.10073 13.7056 8.53236 13.7056 8.96402C13.7056 9.39567 13.7056 10.7986 13.7056 11.2302C13.7056 11.2302 13.7056 11.2302 13.7056 11.3381C13.3887 11.3381 11.3817 11.3381 11.0648 11.3381C11.0648 11.9856 11.0648 13.2806 11.0648 13.9281C11.3817 13.9281 13.3887 13.9281 13.7056 13.9281C13.7056 15.5468 13.7056 17.3813 13.7056 19H8.21265C7.05068 19 6.09998 18.0288 6.09998 16.8417V6.15828C6.09998 4.97123 7.05068 4 8.21265 4H18.9873C20.1493 4 21.1 4.97123 21.1 6.15828V16.8417C21.1 18.0288 20.1493 19 18.9873 19H16.0296C16.0296 17.3813 16.0296 15.5468 16.0296 13.9281C16.0296 13.9281 16.0295 13.9281 16.1352 13.9281C16.5577 13.9281 17.1915 13.9281 17.7197 13.9281L18.0366 11.446Z" fill="white"/>
</g>
</svg>
