<svg width="60" height="57" viewBox="0 0 60 57" fill="none" xmlns="http://www.w3.org/2000/svg">
<path fill-rule="evenodd" clip-rule="evenodd" d="M7.39621 13.5241C11.4788 13.5241 14.7885 10.5001 14.7885 6.76571C14.7885 3.02798 11.4788 0 7.39621 0C3.30968 0 0 3.02798 0 6.76571C0 10.5001 3.30968 13.5241 7.39621 13.5241Z" fill="white"/>
<path fill-rule="evenodd" clip-rule="evenodd" d="M1.69434 56.3269H14.9581V18H1.69434V56.3269Z" fill="white"/>
<path fill-rule="evenodd" clip-rule="evenodd" d="M33.242 35.7078C33.242 31.3125 35.3176 27.0144 40.2804 27.0144C45.2433 27.0144 46.4636 31.3125 46.4636 35.6027V56.5349H59.6681V34.7469C59.6681 19.6097 50.7373 17 45.2433 17C39.754 17 36.7263 18.8603 33.242 23.3679V18.208H20V56.5349H33.242V35.7078Z" fill="white"/>
</svg>
