<svg width="37" height="60" viewBox="0 0 37 60" fill="none" xmlns="http://www.w3.org/2000/svg">
<path d="M18.2433 22.5414C22.3818 22.5414 25.6397 19.1954 25.6397 15.145C25.6397 11.0065 22.3818 7.74861 18.2433 7.74861C14.1049 7.74861 10.7589 11.0946 10.8469 15.2331C10.7589 19.3715 14.1049 22.6294 18.2433 22.5414ZM18.2433 0C26.6083 0 33.3883 6.86808 33.3003 15.3211C33.3003 23.598 26.4322 30.29 18.0672 30.29C9.79032 30.29 3.01029 23.4219 3.01029 15.0569C3.09834 6.78003 9.87837 0 18.2433 0ZM35.2374 36.2776C33.3883 38.2147 31.187 39.5355 28.6335 40.5041C26.2561 41.3846 23.7026 41.8249 21.1491 42.1771C21.5013 42.6173 21.6774 42.7934 21.9415 43.0576C25.3756 46.4916 28.8977 50.0137 32.3317 53.4478C33.4764 54.5924 33.7406 56.0893 33.1242 57.4982C32.4198 58.9951 30.8348 59.9636 29.2499 59.8756C28.2813 59.7875 27.4888 59.3473 26.7844 58.6429C24.1428 56.0013 21.5013 53.4478 18.9478 50.8062C18.2433 50.0137 17.8911 50.1898 17.1867 50.8942C14.5451 53.6239 11.9036 56.2654 9.262 58.907C8.02927 60.0517 6.62043 60.3158 5.2116 59.6114C3.71471 58.907 2.74613 57.4101 2.83418 55.8252C2.92224 54.7686 3.3625 53.9761 4.06692 53.2717C7.50096 49.8376 10.8469 46.4036 14.281 43.0576C14.5451 42.7934 14.7212 42.6173 15.0735 42.2651C10.4067 41.7368 6.26822 40.6802 2.65808 37.8625C2.21782 37.5103 1.77756 37.1581 1.33729 36.8059C-0.247647 35.309 -0.423752 33.5479 0.808981 31.7869C1.86561 30.29 3.62666 29.8497 5.47575 30.7303C5.82796 30.9064 6.18017 31.0825 6.53238 31.3466C13.2244 35.9254 22.3818 36.1015 29.0738 31.5227C29.7782 30.9944 30.4826 30.6422 31.2751 30.3781C32.86 29.9378 34.3569 30.5542 35.2374 31.963C36.4702 33.4599 36.3821 35.0448 35.2374 36.2776Z" fill="white"/>
</svg>
