<svg width="60" height="60" viewBox="0 0 60 60" fill="none" xmlns="http://www.w3.org/2000/svg">
<path fill-rule="evenodd" clip-rule="evenodd" d="M30 0C13.4327 0 0 13.4327 0 30C0 42.3487 7.46333 52.954 18.122 57.5593C18.0453 55.468 18.12 52.974 18.6493 50.7127C19.2313 48.272 22.5273 34.3067 22.5273 34.3067C22.5273 34.3067 21.5647 32.382 21.5647 29.5407C21.5647 25.0833 24.1533 21.7473 27.3707 21.7473C30.11 21.7473 31.434 23.8087 31.434 26.272C31.434 29.024 29.678 33.14 28.7713 36.9527C28.0207 40.146 30.3793 42.7533 33.5287 42.7533C39.2287 42.7533 43.068 35.4273 43.068 26.7427C43.068 20.1473 38.63 15.2053 30.544 15.2053C21.414 15.2053 15.718 22.0167 15.718 29.6267C15.718 32.2487 16.494 34.1013 17.708 35.5313C18.2647 36.1893 18.34 36.4547 18.1367 37.2127C17.99 37.7633 17.666 39.0967 17.5267 39.6293C17.3273 40.3913 16.7067 40.6587 16.018 40.3787C11.814 38.6647 9.85133 34.0573 9.85133 28.8793C9.85133 20.3247 17.0653 10.0687 31.37 10.0687C42.8687 10.0687 50.4327 18.3893 50.4327 27.314C50.4327 39.1313 43.8647 47.9513 34.1873 47.9513C30.936 47.9513 27.876 46.1933 26.834 44.2013C26.834 44.2013 25.08 51.132 24.714 52.476C24.082 54.7633 22.8647 57.0487 21.7367 58.848C24.3587 59.5973 27.1307 60 30 60C46.5673 60 60 46.5673 60 30C60 13.4327 46.5673 0 30 0Z" fill="white"/>
</svg>
