<svg width="50" height="60" viewBox="0 0 50 60" fill="none" xmlns="http://www.w3.org/2000/svg">
<path d="M22.3226 -4.62855e-07C22.7437 -4.62855e-07 23.1348 -4.62855e-07 23.556 -4.62855e-07C24.6691 0.33367 25.7522 0.33367 26.8653 -4.62855e-07C27.0157 -4.62855e-07 27.136 -4.62855e-07 27.2865 -4.62855e-07C27.3466 0.0606669 27.4068 0.182001 27.467 0.182001C33.8448 0.879676 38.177 4.39838 40.9447 10.0708C43.2612 14.8635 43.893 19.9596 43.5921 25.2073C31.1974 28.6957 18.8027 28.6653 6.43808 25.2073C6.16732 20.8392 6.5885 16.5622 8.09271 12.4368C10.2287 6.49141 13.9892 2.15369 20.3069 0.515673C20.9688 0.364005 21.7209 0.424671 22.3226 -4.62855e-07ZM25.0602 18.5035C21.6908 18.4732 18.3214 18.7462 15.1023 19.8382C14.5307 20.0202 13.7485 20.2022 13.7185 20.8999C13.7185 21.4762 14.4405 21.6582 14.9218 21.9009C21.3899 25.359 27.8881 25.5106 34.4766 22.2346C35.1685 21.8706 36.3719 21.6582 36.2516 20.8089C36.1312 19.9596 34.9579 19.8079 34.1457 19.5956C31.1673 18.7462 28.1288 18.5035 25.0602 18.5035ZM33.1228 12.2851C33.1529 11.1325 32.9423 10.0101 32.3105 9.0091C31.1072 7.09808 29.1216 6.97674 27.7377 8.76643C26.2937 10.6168 26.2636 13.8928 27.6776 15.7735C28.8208 17.2902 30.5356 17.4115 31.7991 15.9858C32.7618 14.9848 33.1228 13.6805 33.1228 12.2851ZM16.8773 12.1638C16.8773 13.6198 17.2383 14.9848 18.2311 16.0768C19.3743 17.2902 20.9086 17.3205 22.0518 16.1375C23.917 14.1962 23.7666 10.0708 21.781 8.25076C20.6378 7.18908 19.284 7.21941 18.201 8.34176C17.1782 9.40344 16.8773 10.7381 16.8773 12.1638Z" fill="white"/>
<path d="M50 44.5905C50 45.9252 50 47.2296 50 48.5643C49.4886 49.4439 48.917 49.4136 48.2852 48.7159C48.0746 48.4733 47.864 48.2609 47.6534 48.0486C46.3899 46.6532 45.3971 45.0455 44.284 43.4682C44.0734 44.5602 43.923 45.5916 43.6522 46.5926C42.7798 49.9899 40.8243 52.6896 38.3574 55.0557C36.2214 56.6634 33.9651 57.9677 31.4079 58.726C29.7533 59.2114 28.0385 59.3327 26.3538 59.6361C25.4513 59.6361 24.5187 59.6361 23.6161 59.6361C22.503 59.4844 21.3899 59.3327 20.2768 59.1204C17.0578 58.5137 14.1998 57.0577 11.6125 55.0557C9.17569 52.629 7.22022 49.9293 6.31769 46.5319C6.04693 45.5309 5.89651 44.4995 5.68592 43.4075C4.42238 45.2882 3.30927 47.1082 1.77497 48.6249C0.902528 49.5046 0.661853 49.4743 0 48.5643C0 47.1689 0 45.7736 0 44.4085C0.421179 43.5289 0.391095 42.5582 0.601685 41.6482C1.41396 38.3115 2.37665 35.0354 3.79061 31.8807C3.94103 31.9414 4.09146 32.0627 4.24188 32.0931C6.46811 32.6694 8.69435 33.2154 10.9206 33.7918C10.3189 37.3105 10.2587 40.8595 10.7702 44.3782C11.7028 51.173 15.8243 56.3903 22.9844 57.2397C29.5728 57.998 35.7401 55.2377 38.2371 48.2913C39.9519 43.5592 39.7413 38.7058 39.0794 33.8221C41.4561 33.2154 43.8628 32.5784 46.2395 31.9717C47.2924 34.3378 48.0445 36.7948 48.7665 39.2518C49.3081 40.9808 49.5187 42.8009 50 44.5905Z" fill="white"/>
<path d="M9.71719 60C9.1155 59.6057 8.42357 59.7574 7.7918 59.5754C7.25028 59.4237 6.55834 59.454 6.40792 58.726C6.2575 57.998 6.67868 57.4824 7.25028 57.088C8.57399 56.087 10.1685 55.632 11.6727 54.995C14.2599 56.997 17.0878 58.453 20.3369 59.0597C21.45 59.272 22.5632 59.3934 23.6763 59.5754C22.5632 59.8787 21.3899 59.5754 20.2768 60C16.7268 60 13.207 60 9.71719 60Z" fill="white"/>
<path d="M38.3574 54.995C39.5006 55.4803 40.7039 55.814 41.7569 56.451C42.2382 56.724 42.7196 57.0274 43.1107 57.3914C44.0132 58.271 43.7424 59.181 42.5391 59.5147C41.7268 59.727 40.8544 59.6057 40.0722 60C36.5523 60 33.0325 60 29.5427 60C28.5198 59.545 27.4067 59.8484 26.3538 59.5754C28.0385 59.272 29.7533 59.1507 31.4079 58.6654C33.9651 57.907 36.2515 56.6027 38.3574 54.995Z" fill="white"/>
<path d="M26.8652 -4.62855e-07C25.7521 0.33367 24.669 0.33367 23.5559 -4.62855e-07C24.669 -4.62855e-07 25.7521 -4.62855e-07 26.8652 -4.62855e-07Z" fill="white"/>
<path d="M3.79053 31.8504C4.54263 29.5753 5.47525 27.3913 6.40786 25.2073C18.8026 28.6653 31.1973 28.6956 43.5619 25.2073C44.4343 27.452 45.3369 29.6663 46.2093 31.911C43.8326 32.5177 41.4259 33.1547 39.0493 33.7614C38.9891 33.7614 38.8988 33.731 38.8387 33.7614C33.2731 34.8534 27.6774 35.3994 22.0216 35.1264C21.4199 35.0961 21.45 35.3994 21.45 35.7937C21.45 37.9778 21.4199 40.1618 21.4801 42.3458C21.4801 42.9828 21.2996 43.1951 20.6979 43.2255C18.4115 43.4075 16.1551 43.3165 13.8988 43.0131C13.3573 42.9221 13.1768 42.6795 13.2069 42.1335C13.237 40.1921 13.2069 38.2508 13.2069 36.3094C13.2069 34.004 13.2069 34.004 10.8904 33.731C8.66417 33.185 6.43794 32.6087 4.21171 32.0324C4.09137 32.0324 3.97103 31.9414 3.79053 31.8504Z" fill="white"/>
<path d="M25.0602 18.5036C28.1288 18.4732 31.1673 18.7159 34.1456 19.5653C34.9579 19.8079 36.1612 19.9293 36.2515 20.7786C36.3718 21.6279 35.1685 21.8706 34.4765 22.2043C27.9182 25.4803 21.3899 25.3286 14.9218 21.8706C14.4404 21.6279 13.6883 21.4459 13.7184 20.8696C13.7485 20.1719 14.5307 19.9899 15.1023 19.8079C18.3213 18.7766 21.6606 18.5036 25.0602 18.5036Z" fill="white"/>
<path d="M33.1227 12.2851C33.1227 13.6804 32.7617 14.9545 31.799 16.0161C30.5354 17.4418 28.7905 17.3205 27.6774 15.8038C26.2635 13.8928 26.2936 10.6471 27.7376 8.79672C29.1215 7.00703 31.107 7.09803 32.3104 9.03939C32.9422 10.0101 33.1528 11.1324 33.1227 12.2851ZM31.8892 12.2244C31.8591 12.1334 31.799 12.0121 31.7087 11.9211C30.8664 11.0111 27.9783 11.5571 27.4969 12.7098C27.4067 12.9221 27.3766 13.1041 27.527 13.2861C27.6774 13.4681 27.888 13.4681 28.0685 13.2861C28.9711 12.4064 29.9338 12.2851 31.077 12.8311C31.5583 13.1041 31.8291 12.7704 31.8892 12.2244Z" fill="white"/>
<path d="M16.8772 12.1639C16.8772 10.7382 17.178 9.4035 18.2009 8.34183C19.2839 7.21948 20.6377 7.18915 21.7809 8.25083C23.7665 10.0708 23.8868 14.1962 22.0517 16.1376C20.9386 17.3206 19.3742 17.2903 18.231 16.0769C17.2382 14.9849 16.8772 13.6502 16.8772 12.1639ZM19.6449 12.6189C19.6449 13.6199 20.367 14.5906 21.1191 14.5602C21.8712 14.5299 22.503 13.6199 22.503 12.6492C22.503 11.6179 21.8712 10.7989 21.089 10.7989C20.3068 10.7685 19.6449 11.5875 19.6449 12.6189Z" fill="white"/>
<path d="M10.9207 33.7614C13.2372 34.0344 13.2372 34.0344 13.2372 36.3397C13.2372 38.2811 13.2673 40.2224 13.2372 42.1638C13.2372 42.7098 13.3876 42.9525 13.9291 43.0435C16.1854 43.3771 18.4418 43.4378 20.7282 43.2558C21.3298 43.1951 21.5103 42.9828 21.5103 42.3761C21.4803 40.1921 21.5103 38.0081 21.4803 35.824C21.4803 35.3994 21.4803 35.1264 22.0519 35.1567C27.7077 35.4297 33.3034 34.8534 38.8689 33.7917C38.9291 33.7917 39.0194 33.7917 39.0795 33.7917C39.7414 38.6754 39.952 43.5288 38.2372 48.2608C35.7101 55.2073 29.5729 57.9676 22.9845 57.2093C15.7943 56.3599 11.7029 51.1425 10.7703 44.3478C10.2889 40.8291 10.319 37.2801 10.9207 33.7614Z" fill="white"/>
<path d="M31.8894 12.2244C31.8292 12.8008 31.5585 13.1041 31.0771 12.8614C29.9339 12.2851 28.9712 12.4368 28.0687 13.3164C27.8882 13.4681 27.7077 13.4984 27.5272 13.3164C27.3767 13.1344 27.4068 12.9221 27.4971 12.7401C28.0085 11.5571 30.8966 11.0111 31.7089 11.9514C31.7991 12.0121 31.8593 12.1334 31.8894 12.2244Z" fill="white"/>
<path d="M19.645 12.6188C19.645 11.5875 20.3069 10.7988 21.0891 10.7988C21.8713 10.7988 22.503 11.6178 22.503 12.6492C22.503 13.6199 21.8713 14.5299 21.1191 14.5602C20.367 14.5602 19.645 13.6199 19.645 12.6188Z" fill="white"/>
</svg>
