<svg width="60" height="52" viewBox="0 0 60 52" fill="none" xmlns="http://www.w3.org/2000/svg">
<path d="M1.06014 24.9315L14.8813 30.0672L20.2418 47.1862C20.5818 48.281 21.9419 48.6792 22.822 47.9626L30.5226 41.7121C31.3227 41.0552 32.4828 41.0154 33.3229 41.6325L47.224 51.6849C48.1841 52.3816 49.5442 51.8641 49.7843 50.7096L59.9651 1.96023C60.2251 0.706161 58.985 -0.348847 57.7849 0.108986L1.04014 21.9058C-0.359977 22.4433 -0.339975 24.414 1.06014 24.9315ZM19.3817 27.3401L46.404 10.7785C46.884 10.4799 47.3841 11.1368 46.964 11.515L24.6621 32.1573C23.8821 32.8739 23.382 33.8493 23.222 34.9043L22.462 40.4979C22.3619 41.2543 21.3019 41.314 21.1018 40.5974L18.1816 30.3857C17.8616 29.2312 18.3416 27.9771 19.3817 27.3401Z" fill="white"/>
</svg>
