<svg width="40" height="35" viewBox="0 0 60 35" fill="none" xmlns="http://www.w3.org/2000/svg">
<path d="M29.3553 34.4342H32.9442C32.9442 34.4342 34.0309 34.3143 34.5788 33.7147C35.0902 33.1612 35.0719 32.1281 35.0719 32.1281C35.0719 32.1281 34.9989 27.2669 37.2362 26.5474C39.437 25.8463 42.268 31.2426 45.2633 33.318C47.528 34.8862 49.254 34.5449 49.254 34.5449L57.2628 34.4342C57.2628 34.4342 61.4544 34.1759 59.4636 30.8459C59.2992 30.5784 58.3038 28.383 53.5095 23.8815C48.4869 19.1679 49.1627 19.9335 55.2081 11.7884C58.8974 6.82568 60.3677 3.80009 59.9111 2.49945C59.4727 1.26339 56.7605 1.58624 56.7605 1.58624L47.7381 1.64159C47.7381 1.64159 47.0714 1.54934 46.5692 1.85375C46.0852 2.14893 45.7747 2.83153 45.7747 2.83153C45.7747 2.83153 44.3501 6.66886 42.4415 9.93429C38.4234 16.8249 36.8161 17.1846 36.1586 16.7603C34.6336 15.7641 35.0171 12.7569 35.0171 10.6169C35.0171 3.93845 36.0217 1.1527 33.0629 0.433195C32.0857 0.193362 31.3643 0.036548 28.853 0.0088749C25.6294 -0.0280225 22.908 0.0180992 21.3647 0.783721C20.3419 1.30029 19.5475 2.42566 20.0315 2.49023C20.625 2.57325 21.9766 2.8592 22.698 3.84621C23.6203 5.11917 23.5929 7.9695 23.5929 7.9695C23.5929 7.9695 24.1226 15.8287 22.351 16.8064C21.1364 17.4798 19.4653 16.1054 15.8855 9.86049C14.05 6.65964 12.6619 3.11748 12.6619 3.11748C12.6619 3.11748 12.3971 2.45333 11.9222 2.1028C11.3469 1.66926 10.5341 1.54012 10.5341 1.54012L1.95915 1.59547C1.95915 1.59547 0.67153 1.63236 0.196664 2.19505C-0.22341 2.70239 0.160136 3.73552 0.160136 3.73552C0.160136 3.73552 6.88132 19.5922 14.4792 27.5897C21.4469 34.9231 29.3553 34.4342 29.3553 34.4342Z" fill="white"/>
</svg>
