<svg width="60" height="49" viewBox="0 0 60 49" fill="none" xmlns="http://www.w3.org/2000/svg">
<path d="M25.2107 45.0571C15.2778 46.037 6.68127 41.5383 6.05769 35.0351C5.38956 28.4875 12.9617 22.3853 22.8945 21.4053C32.8273 20.4254 41.4239 24.9241 42.0475 31.4273C42.6711 37.9749 35.1435 44.0771 25.2107 45.0571ZM45.0763 23.3652C44.23 23.0979 43.651 22.9198 44.0964 21.8508C45.0763 19.4455 45.1654 17.352 44.0964 15.8822C42.1366 13.1206 36.8361 13.2542 30.6893 15.7931C30.6893 15.7931 28.774 16.6394 29.264 15.1249C30.1994 12.0961 30.0657 9.55722 28.5959 8.13188C25.2998 4.83578 16.4805 8.26551 8.90837 15.7931C3.2961 21.4499 0 27.463 0 32.6299C0 42.5627 12.739 48.5759 25.1661 48.5759C41.4684 48.5759 52.3367 39.0885 52.3367 31.5609C52.3367 27.0176 48.5061 24.4342 45.0763 23.3652Z" fill="white"/>
<path d="M55.9 5.23673C51.9804 0.871626 46.1454 -0.776422 40.8004 0.337124C39.5532 0.604375 38.7514 1.807 39.0187 3.05418C39.2859 4.30135 40.4886 5.1031 41.7357 4.83585C45.5663 4.0341 49.6642 5.19218 52.4703 8.31011C55.2765 11.428 56.0337 15.6595 54.831 19.3565C54.4302 20.5591 55.0983 21.8508 56.3009 22.2517C57.5035 22.6526 58.7953 21.9845 59.1961 20.7818C60.9333 15.5259 59.8643 9.60183 55.9 5.23673Z" fill="white"/>
<path d="M49.8868 10.6708C47.9715 8.5328 45.1209 7.73105 42.5374 8.3101C41.4239 8.5328 40.7558 9.60181 40.9785 10.6708C41.2012 11.7398 42.2702 12.4079 43.3392 12.1852C44.6309 11.918 46.0117 12.3189 46.9471 13.3433C47.8824 14.3678 48.1497 15.7931 47.7488 17.0403C47.3925 18.0648 47.9715 19.1783 49.0405 19.5346C50.065 19.8464 51.1785 19.3119 51.5349 18.2429C52.2921 15.704 51.8021 12.8088 49.8868 10.6708Z" fill="white"/>
<path d="M25.745 33.209C25.3887 33.7881 24.6315 34.0998 24.0079 33.8326C23.4288 33.6099 23.2507 32.9418 23.5625 32.3627C23.9188 31.7837 24.6315 31.5164 25.2551 31.7391C25.8786 31.9618 26.1014 32.63 25.745 33.209ZM22.5825 37.3069C21.6026 38.8213 19.5537 39.4894 17.9947 38.8213C16.4803 38.1086 16.0349 36.3269 16.9703 34.8571C17.9057 33.3872 19.91 32.7191 21.469 33.3426C23.028 33.9662 23.5179 35.7479 22.5825 37.3069ZM26.1904 26.4387C21.469 25.1915 16.124 27.5522 14.0751 31.7391C11.9816 35.9706 13.986 40.692 18.7965 42.251C23.7406 43.8545 29.5756 41.4047 31.6245 36.8169C33.5844 32.3182 31.09 27.6858 26.1904 26.4387Z" fill="white"/>
</svg>
