<svg width="60" height="60" viewBox="0 0 60 60" fill="none" xmlns="http://www.w3.org/2000/svg">
<path fill-rule="evenodd" clip-rule="evenodd" d="M30.1252 0C38.1169 0.00317383 45.6179 3.09961 51.2583 8.71936C56.8987 14.3391 60.0032 21.809 60 29.7532C59.9934 46.1462 46.5903 59.4845 30.1255 59.4845H30.1133C25.1133 59.4824 20.2004 58.2341 15.8369 55.8656L0 60L4.23828 44.5931C1.62402 40.0846 0.248291 34.9696 0.250488 29.7295C0.25708 13.3367 13.6587 0 30.1252 0ZM30.1255 59.4845C30.1245 59.4845 30.1265 59.4845 30.1255 59.4845V59.4845ZM30.1155 54.4631H30.1257C43.8118 54.4631 54.9507 43.3776 54.9561 29.7513C54.9585 23.1484 52.3782 16.9396 47.6899 12.2687C43.002 7.5979 36.7673 5.02405 30.1353 5.02148C16.439 5.02148 5.2998 16.1064 5.29443 29.7316C5.29248 34.4006 6.60522 38.9482 9.09082 42.8828L9.6814 43.8177L7.17285 52.9366L16.5708 50.4832L17.4775 51.0187C21.2898 53.2703 25.6599 54.4614 30.1155 54.4631Z" fill="white"/>
<path fill-rule="evenodd" clip-rule="evenodd" d="M38.645 33.5385C37.9608 33.2905 37.4632 33.1666 36.9654 33.9104C36.468 34.654 35.0374 36.3274 34.6018 36.8232C34.1664 37.319 33.731 37.381 32.9846 37.0091C32.2381 36.6373 29.8329 35.8528 26.9817 33.3219C24.7628 31.3523 23.2645 28.9193 22.8291 28.1755C22.3937 27.4318 22.7828 27.0298 23.1565 26.6593C23.4922 26.3266 23.9029 25.7917 24.2762 25.3579C24.6493 24.9242 24.7738 24.6142 25.0226 24.1184C25.2715 23.6226 25.147 23.1887 24.9604 22.8169C24.7738 22.4451 23.2809 18.7885 22.6588 17.3011C22.053 15.8525 21.4374 16.0485 20.9793 16.0257C20.5443 16.0042 20.0462 15.9996 19.5486 15.9996C19.0511 15.9996 18.2423 16.1855 17.5581 16.9292C16.8739 17.673 14.9456 19.4703 14.9456 23.1268C14.9456 26.7833 17.6203 30.3158 17.9935 30.8116C18.3668 31.3074 23.2571 38.8112 30.7452 42.029C32.5262 42.7944 33.9166 43.2515 35.0007 43.5939C36.7889 44.1592 38.4162 44.0795 39.7025 43.8882C41.1366 43.675 44.1187 42.0911 44.7409 40.3558C45.363 38.6204 45.363 37.1331 45.1764 36.8232C44.9897 36.5134 44.4922 36.3274 43.7457 35.9555C42.9991 35.5837 39.3293 33.7864 38.645 33.5385Z" fill="white"/>
</svg>
