<svg width="60" height="71" viewBox="0 0 60 71" fill="none" xmlns="http://www.w3.org/2000/svg">
<path d="M48.1781 0H58.442C59.061 0 59.5014 0.207422 59.7627 0.650097C60.0791 1.1064 60.0791 1.63198 59.7627 2.22671L37.268 42.1978V42.2393L51.5766 68.5732C51.893 69.154 51.9067 69.6796 51.6179 70.1637C51.329 70.5925 50.8749 70.7999 50.2559 70.7999H40.0746C38.8913 70.7999 37.9559 70.1637 37.268 68.8775L22.8355 42.2531C23.3447 41.3403 30.8842 27.8967 45.4541 1.92246C46.1558 0.636181 47.0778 0 48.1781 0Z" fill="white"/>
<path d="M14.4841 47.661C13.7136 48.9749 12.792 49.6249 11.7188 49.6249H1.53757C0.946068 49.6249 0.505737 49.376 0.21687 48.8919C-0.07229 48.4078 -0.07229 47.8961 0.21687 47.3567L10.9896 28.1595C11.0171 28.1595 11.0171 28.1456 10.9896 28.1179L4.13796 16.1682C3.79401 15.5458 3.78024 15.0202 4.09665 14.5914C4.35798 14.1627 4.79831 13.9553 5.45866 13.9553H15.6399C16.7681 13.9553 17.7036 14.5914 18.4465 15.8777L25.4356 28.1318C25.1467 28.6574 21.5007 35.1578 14.4841 47.661Z" fill="white"/>
</svg>
