<svg id="Layer_1" data-name="Layer 1" xmlns="http://www.w3.org/2000/svg" viewBox="0 0 57.09 23"><defs><style>.cls-1{fill:#ff9800;}.cls-2{fill:#fff;}</style></defs><title>Odnoklassniki - Like</title><rect class="cls-1" width="57.09" height="23" rx="3.78" ry="3.78"/><path class="cls-2" d="M27.47,15.9V7h1.8v7.36h4.49V15.9Z"/><path class="cls-2" d="M35,8.54V7h1.71V8.54Zm0,7.35V9.42h1.71V15.9Z"/><path class="cls-2" d="M38.45,15.9V7h1.71V11.7l2-2.28h2.11l-2.21,2.37,2.37,4.11H42.58L41,13l-.8.84V15.9Z"/><path class="cls-2" d="M49.2,13.83l1.71.29a2.8,2.8,0,0,1-1,1.43,3.06,3.06,0,0,1-1.78.49,2.9,2.9,0,0,1-2.5-1.1,3.71,3.71,0,0,1-.64-2.23,3.58,3.58,0,0,1,.84-2.52,2.77,2.77,0,0,1,2.13-.91,2.87,2.87,0,0,1,2.28,1,4.22,4.22,0,0,1,.8,2.92H46.71a1.73,1.73,0,0,0,.42,1.19,1.3,1.3,0,0,0,1,.42,1,1,0,0,0,.68-.22A1.36,1.36,0,0,0,49.2,13.83Zm.1-1.73A1.65,1.65,0,0,0,48.91,11a1.24,1.24,0,0,0-1.82,0,1.58,1.58,0,0,0-.36,1.11Z"/><path class="cls-2" d="M13.11,12.07A3.78,3.78,0,1,0,9.33,8.3,3.78,3.78,0,0,0,13.11,12.07Zm0-5.81a2,2,0,1,1-2,2A2,2,0,0,1,13.11,6.26Z"/><path class="cls-2" d="M16.81,13.87a1.46,1.46,0,0,0,.66-1.22,1.05,1.05,0,0,0-.59-1,1.1,1.1,0,0,0-1.16.11,4.42,4.42,0,0,1-5.21,0,1.11,1.11,0,0,0-1.16-.11,1.06,1.06,0,0,0-.59,1,1.47,1.47,0,0,0,.66,1.22,6.71,6.71,0,0,0,1.7.81l.32.09L9.67,16.49a1.16,1.16,0,1,0,1.62,1.67l0,0,1.79-1.85,1.79,1.86a1.16,1.16,0,0,0,1.67-1.62l0,0-1.75-1.72.32-.09A6.69,6.69,0,0,0,16.81,13.87Z"/></svg>