<svg id="Layer_1" data-name="Layer 1" xmlns="http://www.w3.org/2000/svg" viewBox="0 0 66.89 23"><defs><style>.cls-1{fill:#4d76a1;}.cls-2{fill:#fff;}</style></defs><title>VK - Share</title><rect class="cls-1" y="-0.01" width="66.89" height="23" rx="3.78" ry="3.78"/><path class="cls-2" d="M13,15.53h.85a.72.72,0,0,0,.39-.17.62.62,0,0,0,.12-.37s0-1.14.51-1.31,1.2,1.11,1.91,1.59a1.35,1.35,0,0,0,.95.29l1.9,0s1-.06.52-.84A6.36,6.36,0,0,0,18.7,13c-1.19-1.11-1-.93.4-2.85C20,9,20.33,8.32,20.22,8s-.75-.21-.75-.21H17.32a.49.49,0,0,0-.28,0,.6.6,0,0,0-.19.23,12.42,12.42,0,0,1-.79,1.67c-1,1.62-1.34,1.71-1.49,1.61-.36-.23-.27-.94-.27-1.45,0-1.57.24-2.23-.46-2.4a3.66,3.66,0,0,0-1-.1,4.62,4.62,0,0,0-1.78.18c-.24.12-.43.39-.32.4a1,1,0,0,1,.63.32,2.07,2.07,0,0,1,.21,1s.13,1.85-.29,2.08-.69-.16-1.54-1.64A13.67,13.67,0,0,1,9,8.16a.64.64,0,0,0-.18-.24.89.89,0,0,0-.33-.13h-2s-.31,0-.42.14S6,8.3,6,8.3a23.19,23.19,0,0,0,3.4,5.61A4.89,4.89,0,0,0,13,15.53Z"/><path class="cls-2" d="M27,13l1.76-.17a2.14,2.14,0,0,0,.64,1.3,2,2,0,0,0,1.31.42A2,2,0,0,0,32,14.22a1.1,1.1,0,0,0,.44-.86.82.82,0,0,0-.19-.54,1.49,1.49,0,0,0-.65-.39q-.32-.11-1.44-.39a4.9,4.9,0,0,1-2-.88,2.35,2.35,0,0,1-.44-3.08,2.43,2.43,0,0,1,1.12-.91,4.47,4.47,0,0,1,1.76-.31,3.77,3.77,0,0,1,2.53.74,2.61,2.61,0,0,1,.89,2l-1.8.08a1.53,1.53,0,0,0-.5-1,1.82,1.82,0,0,0-1.14-.3,2.07,2.07,0,0,0-1.23.32.65.65,0,0,0-.29.55.69.69,0,0,0,.27.54,4.75,4.75,0,0,0,1.66.6,8.76,8.76,0,0,1,1.95.64,2.52,2.52,0,0,1,1,.91,2.81,2.81,0,0,1-.07,2.86,2.55,2.55,0,0,1-1.21,1,5.06,5.06,0,0,1-1.94.33,3.87,3.87,0,0,1-2.6-.78A3.41,3.41,0,0,1,27,13Z"/><path class="cls-2" d="M37.43,7v3.29a2.57,2.57,0,0,1,3-.75,1.74,1.74,0,0,1,.72.56,2,2,0,0,1,.33.76,6.69,6.69,0,0,1,.09,1.29V16H39.9V12.54a5.08,5.08,0,0,0-.1-1.29.85.85,0,0,0-.34-.44,1.11,1.11,0,0,0-.62-.16,1.42,1.42,0,0,0-.76.21,1.2,1.2,0,0,0-.49.63,3.74,3.74,0,0,0-.16,1.23V16H35.72V7Z"/><path class="cls-2" d="M44.63,11.46l-1.55-.28A2.42,2.42,0,0,1,44,9.79a3.3,3.3,0,0,1,1.9-.45,4.1,4.1,0,0,1,1.71.27,1.7,1.7,0,0,1,.79.69,3.54,3.54,0,0,1,.23,1.53l0,2a6.85,6.85,0,0,0,.08,1.26A3.66,3.66,0,0,0,49,16H47.28q-.07-.17-.17-.51l-.06-.2a3.09,3.09,0,0,1-.94.64,2.68,2.68,0,0,1-1.07.21,2.2,2.2,0,0,1-1.58-.54,1.8,1.8,0,0,1-.58-1.37,1.84,1.84,0,0,1,.26-1,1.71,1.71,0,0,1,.73-.66,5.72,5.72,0,0,1,1.36-.4,9.33,9.33,0,0,0,1.66-.42v-.17a.89.89,0,0,0-.24-.7,1.47,1.47,0,0,0-.92-.21,1.23,1.23,0,0,0-.71.18A1.25,1.25,0,0,0,44.63,11.46Zm2.29,1.39q-.33.11-1,.26a3.13,3.13,0,0,0-.93.3.71.71,0,0,0-.34.6.84.84,0,0,0,.27.62.94.94,0,0,0,.68.26,1.48,1.48,0,0,0,.88-.3,1.07,1.07,0,0,0,.41-.57,3.43,3.43,0,0,0,.07-.83Z"/><path class="cls-2" d="M51.93,16H50.22V9.48h1.59v.92a2.76,2.76,0,0,1,.73-.86,1.35,1.35,0,0,1,.74-.21,2.17,2.17,0,0,1,1.13.32l-.53,1.49a1.51,1.51,0,0,0-.8-.28,1,1,0,0,0-.61.2,1.35,1.35,0,0,0-.39.72A10.16,10.16,0,0,0,51.93,14Z"/><path class="cls-2" d="M58.9,13.9l1.71.29a2.8,2.8,0,0,1-1,1.43,3.06,3.06,0,0,1-1.78.49,2.9,2.9,0,0,1-2.5-1.1,3.71,3.71,0,0,1-.64-2.23,3.58,3.58,0,0,1,.84-2.52,2.77,2.77,0,0,1,2.13-.91,2.87,2.87,0,0,1,2.28,1,4.22,4.22,0,0,1,.8,2.92H56.41a1.73,1.73,0,0,0,.42,1.19,1.3,1.3,0,0,0,1,.42,1,1,0,0,0,.68-.22A1.36,1.36,0,0,0,58.9,13.9Zm.1-1.73A1.65,1.65,0,0,0,58.62,11a1.24,1.24,0,0,0-1.82,0,1.58,1.58,0,0,0-.36,1.11Z"/></svg>