<svg id="Layer_1" data-name="Layer 1" xmlns="http://www.w3.org/2000/svg" viewBox="0 0 66.84 23"><defs><style>.cls-1{fill:#20c300;}.cls-2{fill:#fff;}</style></defs><title>Wechat - Share</title><rect class="cls-1" width="66.84" height="23" rx="3.78" ry="3.78"/><path class="cls-2" d="M27.13,13.06l1.76-.17a2.15,2.15,0,0,0,.65,1.3,2,2,0,0,0,1.31.42,2,2,0,0,0,1.32-.37,1.1,1.1,0,0,0,.44-.87.82.82,0,0,0-.19-.54,1.5,1.5,0,0,0-.65-.39q-.32-.11-1.45-.39a4.91,4.91,0,0,1-2-.89,2.33,2.33,0,0,1-.83-1.8,2.31,2.31,0,0,1,.39-1.28A2.43,2.43,0,0,1,29,7.17a4.49,4.49,0,0,1,1.76-.31,3.78,3.78,0,0,1,2.54.74,2.61,2.61,0,0,1,.9,2l-1.81.08a1.54,1.54,0,0,0-.5-1,1.82,1.82,0,0,0-1.15-.3,2.06,2.06,0,0,0-1.23.32.65.65,0,0,0-.29.56.69.69,0,0,0,.27.54,4.74,4.74,0,0,0,1.66.6,8.79,8.79,0,0,1,2,.65,2.52,2.52,0,0,1,1,.91A2.82,2.82,0,0,1,34,14.81a2.57,2.57,0,0,1-1.21,1,5.08,5.08,0,0,1-2,.33,3.88,3.88,0,0,1-2.61-.79A3.42,3.42,0,0,1,27.13,13.06Z"/><path class="cls-2" d="M37.64,7v3.29a2.57,2.57,0,0,1,3.06-.75,1.75,1.75,0,0,1,.72.56,2,2,0,0,1,.33.76,6.78,6.78,0,0,1,.09,1.29V16H40.12V12.55a5.06,5.06,0,0,0-.1-1.3.85.85,0,0,0-.35-.44,1.11,1.11,0,0,0-.62-.16,1.42,1.42,0,0,0-.76.21,1.2,1.2,0,0,0-.49.63,3.74,3.74,0,0,0-.16,1.24V16H35.92V7Z"/><path class="cls-2" d="M44.86,11.47l-1.56-.28a2.43,2.43,0,0,1,.9-1.39,3.31,3.31,0,0,1,1.91-.45,4.12,4.12,0,0,1,1.71.27,1.71,1.71,0,0,1,.79.69,3.54,3.54,0,0,1,.23,1.54l0,2a7,7,0,0,0,.08,1.26,3.71,3.71,0,0,0,.31.87h-1.7q-.07-.17-.17-.51l-.06-.2a3.1,3.1,0,0,1-.94.64,2.7,2.7,0,0,1-1.07.21,2.21,2.21,0,0,1-1.58-.54,1.81,1.81,0,0,1-.58-1.38,1.84,1.84,0,0,1,.26-1,1.72,1.72,0,0,1,.74-.66,5.74,5.74,0,0,1,1.37-.4,9.37,9.37,0,0,0,1.67-.42v-.17a.89.89,0,0,0-.24-.71,1.46,1.46,0,0,0-.92-.21,1.23,1.23,0,0,0-.72.18A1.26,1.26,0,0,0,44.86,11.47Zm2.3,1.39a10.68,10.68,0,0,1-1,.26,3.14,3.14,0,0,0-.94.3.72.72,0,0,0-.34.6.84.84,0,0,0,.27.62.94.94,0,0,0,.68.26,1.49,1.49,0,0,0,.89-.31,1.08,1.08,0,0,0,.41-.57,3.38,3.38,0,0,0,.07-.84Z"/><path class="cls-2" d="M52.19,16H50.47V9.49h1.6v.92a2.77,2.77,0,0,1,.74-.86,1.35,1.35,0,0,1,.74-.21,2.18,2.18,0,0,1,1.13.32l-.53,1.5a1.51,1.51,0,0,0-.81-.28,1,1,0,0,0-.61.2,1.36,1.36,0,0,0-.39.72A10.17,10.17,0,0,0,52.19,14Z"/><path class="cls-2" d="M59.17,13.91l1.71.29a2.81,2.81,0,0,1-1,1.43,3.06,3.06,0,0,1-1.78.49A2.91,2.91,0,0,1,55.55,15a3.72,3.72,0,0,1-.64-2.24,3.59,3.59,0,0,1,.84-2.53,2.78,2.78,0,0,1,2.13-.91,2.88,2.88,0,0,1,2.29,1,4.23,4.23,0,0,1,.8,2.93h-4.3a1.74,1.74,0,0,0,.42,1.19,1.3,1.3,0,0,0,1,.42,1.05,1.05,0,0,0,.68-.22A1.36,1.36,0,0,0,59.17,13.91Zm.1-1.74A1.65,1.65,0,0,0,58.89,11a1.24,1.24,0,0,0-1.82,0,1.59,1.59,0,0,0-.36,1.11Z"/><path class="cls-2" d="M19.68,16.39a3.69,3.69,0,0,0,1.62-3c0-2.16-2.1-3.92-4.7-3.92s-4.7,1.75-4.7,3.92,2.1,3.92,4.7,3.92a5.55,5.55,0,0,0,1.53-.21l.14,0a.5.5,0,0,1,.25.07l1,.59.09,0a.16.16,0,0,0,.16-.16l0-.11-.21-.79,0-.1A.31.31,0,0,1,19.68,16.39ZM11.34,5.19c-3.11,0-5.64,2.1-5.64,4.7a4.42,4.42,0,0,0,1.95,3.55.37.37,0,0,1,.16.31l0,.12-.25.95,0,.14a.19.19,0,0,0,.19.19l.11,0L9,14.4a.59.59,0,0,1,.3-.09l.17,0a6.67,6.67,0,0,0,1.84.26h.31a3.63,3.63,0,0,1-.19-1.15c0-2.37,2.3-4.29,5.14-4.29h.31C16.49,6.91,14.16,5.19,11.34,5.19ZM15,12.81a.63.63,0,1,1,.63-.63A.63.63,0,0,1,15,12.81Zm3.13,0a.63.63,0,1,1,.63-.63A.63.63,0,0,1,18.17,12.81ZM9.46,9.14a.75.75,0,1,1,.75-.75A.75.75,0,0,1,9.46,9.14Zm3.76,0A.75.75,0,1,1,14,8.39.75.75,0,0,1,13.22,9.14Z"/></svg>