<svg id="Layer_1" data-name="Layer 1" xmlns="http://www.w3.org/2000/svg" viewBox="0 0 66.89 23"><defs><style>.cls-1{fill:#ff5a5a;}.cls-2{fill:#fff;}</style></defs><title>Sina Weibo - Share</title><rect class="cls-1" y="-0.02" width="66.82" height="23" rx="3.78" ry="3.78"/><path class="cls-2" d="M16.57,11.53c-.2-.06-.34-.1-.24-.37a1.55,1.55,0,0,0,0-1.46c-.47-.68-1.74-.64-3.21,0,0,0-.46.2-.34-.17a1.7,1.7,0,0,0-.16-1.71c-.79-.81-2.91,0-4.72,1.87a6.37,6.37,0,0,0-2.14,4.11c0,2.42,3,4,6,4,3.91,0,6.51-2.46,6.51-4.3A2.21,2.21,0,0,0,16.57,11.53Zm-4.76,5.21c-2.38.24-4.43-.85-4.59-2.42s1.65-3,4-3.27,4.44.85,4.59,2.42S14.19,16.5,11.81,16.74Zm8.64-7.18A4.43,4.43,0,0,0,16,5.13a.52.52,0,1,0,0,1,3.39,3.39,0,0,1,3.39,3.39.52.52,0,0,0,1,0ZM18.4,9.48a3,3,0,0,0-2.3-2.3.52.52,0,0,0-.21,1,1.92,1.92,0,0,1,1.49,1.49.52.52,0,0,0,1-.21Zm-7.81,3.11a1.64,1.64,0,0,0-1.45,1.8,1.64,1.64,0,0,0,2,1.1,1.64,1.64,0,0,0,1.45-1.8A1.64,1.64,0,0,0,10.59,12.59Z"/><path class="cls-2" d="M27,13l1.76-.17a2.14,2.14,0,0,0,.64,1.3,2,2,0,0,0,1.31.42A2,2,0,0,0,32,14.21a1.1,1.1,0,0,0,.44-.86.82.82,0,0,0-.19-.54,1.49,1.49,0,0,0-.65-.39q-.32-.11-1.44-.39a4.9,4.9,0,0,1-2-.88,2.35,2.35,0,0,1-.44-3.08,2.43,2.43,0,0,1,1.12-.91,4.47,4.47,0,0,1,1.76-.31,3.77,3.77,0,0,1,2.53.74,2.61,2.61,0,0,1,.89,2l-1.8.08a1.53,1.53,0,0,0-.5-1,1.82,1.82,0,0,0-1.14-.3,2.07,2.07,0,0,0-1.23.32.65.65,0,0,0-.29.55.69.69,0,0,0,.27.54,4.75,4.75,0,0,0,1.66.6,8.76,8.76,0,0,1,1.95.64,2.52,2.52,0,0,1,1,.91,2.81,2.81,0,0,1-.07,2.86,2.55,2.55,0,0,1-1.21,1,5.06,5.06,0,0,1-1.94.33,3.87,3.87,0,0,1-2.6-.78A3.41,3.41,0,0,1,27,13Z"/><path class="cls-2" d="M37.43,7v3.29a2.57,2.57,0,0,1,3-.75,1.74,1.74,0,0,1,.72.56,2,2,0,0,1,.33.76,6.69,6.69,0,0,1,.09,1.29v3.8H39.9V12.52a5.08,5.08,0,0,0-.1-1.29.85.85,0,0,0-.34-.44,1.11,1.11,0,0,0-.62-.16,1.42,1.42,0,0,0-.76.21,1.2,1.2,0,0,0-.49.63,3.74,3.74,0,0,0-.16,1.23v3.24H35.72V7Z"/><path class="cls-2" d="M44.63,11.45l-1.55-.28A2.42,2.42,0,0,1,44,9.78a3.3,3.3,0,0,1,1.9-.45,4.1,4.1,0,0,1,1.71.27,1.7,1.7,0,0,1,.79.69,3.54,3.54,0,0,1,.23,1.53l0,2a6.85,6.85,0,0,0,.08,1.26,3.66,3.66,0,0,0,.31.87H47.28q-.07-.17-.17-.51l-.06-.2a3.09,3.09,0,0,1-.94.64,2.68,2.68,0,0,1-1.07.21,2.2,2.2,0,0,1-1.58-.54,1.8,1.8,0,0,1-.58-1.37,1.84,1.84,0,0,1,.26-1,1.71,1.71,0,0,1,.73-.66,5.72,5.72,0,0,1,1.36-.4,9.33,9.33,0,0,0,1.66-.42v-.17a.89.89,0,0,0-.24-.7,1.47,1.47,0,0,0-.92-.21,1.23,1.23,0,0,0-.71.18A1.25,1.25,0,0,0,44.63,11.45Zm2.29,1.39q-.33.11-1,.26a3.13,3.13,0,0,0-.93.3.71.71,0,0,0-.34.6.84.84,0,0,0,.27.62.94.94,0,0,0,.68.26,1.48,1.48,0,0,0,.88-.3,1.07,1.07,0,0,0,.41-.57,3.43,3.43,0,0,0,.07-.83Z"/><path class="cls-2" d="M51.93,15.94H50.22V9.47h1.59v.92a2.76,2.76,0,0,1,.73-.86,1.35,1.35,0,0,1,.74-.21,2.17,2.17,0,0,1,1.13.32l-.53,1.49a1.51,1.51,0,0,0-.8-.28,1,1,0,0,0-.61.2,1.35,1.35,0,0,0-.39.72,10.16,10.16,0,0,0-.14,2.17Z"/><path class="cls-2" d="M58.9,13.88l1.71.29a2.8,2.8,0,0,1-1,1.43,3.06,3.06,0,0,1-1.78.49,2.9,2.9,0,0,1-2.5-1.1,3.71,3.71,0,0,1-.64-2.23,3.58,3.58,0,0,1,.84-2.52,2.77,2.77,0,0,1,2.13-.91,2.87,2.87,0,0,1,2.28,1,4.22,4.22,0,0,1,.8,2.92H56.41a1.73,1.73,0,0,0,.42,1.19,1.3,1.3,0,0,0,1,.42,1,1,0,0,0,.68-.22A1.36,1.36,0,0,0,58.9,13.88Zm.1-1.73A1.65,1.65,0,0,0,58.62,11a1.24,1.24,0,0,0-1.82,0,1.58,1.58,0,0,0-.36,1.11Z"/></svg>