<svg width="62" height="23" viewBox="0 0 62 23" fill="none" xmlns="http://www.w3.org/2000/svg">
<mask id="mask0" mask-type="alpha" maskUnits="userSpaceOnUse" x="0" y="0" width="62" height="23">
<path d="M58.1 0H3.80002C1.70002 0 0 1.70002 0 3.80002V19.2C0 21.3 1.70002 23 3.80002 23H58.1C60.2 23 61.9 21.3 61.9 19.2V3.80002C61.8 1.70002 60.1 0 58.1 0Z" fill="#50ABF1"/>
</mask>
<g mask="url(#mask0)">
<rect width="63" height="23" fill="#0274B3"/>
<rect width="63" height="23" fill="#E1E7EC"/>
<rect width="63" height="23" fill="#CB1F24"/>
<rect width="63" height="23" fill="#E36021"/>
<path d="M27.5 13.3L29.3 13.1C29.4 13.7 29.6 14.1 29.9 14.4C30.2 14.7 30.7 14.8 31.2 14.8C31.8 14.8 32.2 14.7 32.5 14.4C32.8 14.2 32.9 13.9 32.9 13.5C32.9 13.3 32.8 13.1 32.7 13C32.6 12.9 32.4 12.7 32 12.6C31.8 12.5 31.3 12.4 30.6 12.2C29.6 12 28.9 11.7 28.6 11.3C28 10.8 27.8 10.2 27.8 9.5C27.8 9 27.9 8.59998 28.2 8.19998C28.5 7.79998 28.8 7.49999 29.3 7.29999C29.8 7.09999 30.4 7 31.1 7C32.2 7 33.1 7.19998 33.6 7.69998C34.2 8.19998 34.5 8.89998 34.5 9.69998L32.7 9.79999C32.6 9.29999 32.5 8.99999 32.2 8.79999C31.9 8.59999 31.6 8.5 31.1 8.5C30.6 8.5 30.2 8.59999 29.9 8.79999C29.7 8.89999 29.6 9.09999 29.6 9.39999C29.6 9.59999 29.7 9.79999 29.9 9.89999C30.1 10.1 30.7 10.3 31.6 10.5C32.5 10.7 33.1 10.9 33.6 11.1C34 11.3 34.4 11.6 34.6 12C34.8 12.4 35 12.9 35 13.4C35 13.9 34.9 14.4 34.6 14.8C34.3 15.2 33.9 15.6 33.4 15.8C32.9 16 32.2 16.1 31.5 16.1C30.4 16.1 29.5 15.8 28.9 15.3C28 15 27.6 14.3 27.5 13.3Z" fill="white"/>
<path d="M37.6 11.7L36 11.4C36.2 10.8 36.5 10.3 36.9 10C37.3 9.7 38 9.5 38.8 9.5C39.6 9.5 40.1 9.59999 40.5 9.79999C40.9 9.99999 41.1 10.2 41.3 10.5C41.5 10.8 41.5 11.3 41.5 12V14C41.5 14.6 41.5 15 41.6 15.3C41.7 15.6 41.8 15.9 41.9 16.2H40.2C40.2 16.1 40.1 15.9 40 15.7C40 15.6 40 15.5 39.9 15.5C39.6 15.8 39.3 16 39 16.1C38.7 16.2 38.3 16.3 37.9 16.3C37.2 16.3 36.7 16.1 36.3 15.8C35.9 15.4 35.7 15 35.7 14.4C35.7 14 35.8 13.7 36 13.4C36.2 13.1 36.4 12.9 36.7 12.7C37 12.5 37.5 12.4 38.1 12.3C38.9 12.1 39.5 12 39.8 11.9V11.7C39.8 11.4 39.7 11.1 39.6 11C39.5 10.9 39.1 10.8 38.7 10.8C38.4 10.8 38.2 10.9 38 11C37.8 11.2 37.7 11.4 37.6 11.7ZM39.9 13.1C39.7 13.2 39.3 13.3 38.9 13.4C38.5 13.5 38.1 13.6 38 13.7C37.8 13.9 37.7 14.1 37.7 14.3C37.7 14.5 37.8 14.7 38 14.9C38.2 15.1 38.4 15.2 38.7 15.2C39 15.2 39.3 15.1 39.6 14.9C39.8 14.7 39.9 14.6 40 14.3C40 14.2 40.1 13.9 40.1 13.5V13.1H39.9Z" fill="white"/>
<path d="M45 16.2L42.4 9.69998H44.2L45.4 13L45.8 14.1C45.9 13.8 46 13.6 46 13.5C46.1 13.3 46.1 13.1 46.2 12.9L47.4 9.59998H49.2L46.6 16.1H45V16.2Z" fill="white"/>
<path d="M54 14.1L55.7 14.4C55.5 15 55.1 15.5 54.7 15.8C54.2 16.1 53.6 16.3 52.9 16.3C51.8 16.3 50.9 15.9 50.4 15.2C50 14.6 49.8 13.9 49.8 13C49.8 11.9 50.1 11.1 50.6 10.5C51.2 9.9 51.9 9.59998 52.7 9.59998C53.7 9.59998 54.4 9.89998 55 10.6C55.6 11.2 55.8 12.2 55.8 13.5H51.5C51.5 14 51.7 14.4 51.9 14.7C52.1 15 52.5 15.1 52.9 15.1C53.2 15.1 53.4 15 53.6 14.9C53.7 14.7 53.9 14.4 54 14.1ZM54.1 12.4C54.1 11.9 54 11.5 53.7 11.3C53.5 11 53.2 10.9 52.8 10.9C52.4 10.9 52.1 11 51.9 11.3C51.7 11.6 51.5 11.9 51.5 12.4H54.1Z" fill="white"/>
<path d="M10.2044 12.5655C9.94231 12.6732 9.69293 12.794 9.43338 12.8754C8.96771 13.0199 8.48933 13.0961 8.00839 12.9647C7.57581 12.8465 7.2959 12.4525 7.28063 11.9876C7.26791 11.6514 7.36715 11.3414 7.44603 11.0236C7.64705 10.2251 7.85317 9.4292 8.05419 8.63068C8.0771 8.53612 8.09236 8.43105 8.08219 8.33386C8.06183 8.18151 7.96004 8.11847 7.815 8.15262C7.58344 8.20778 7.38496 8.32861 7.21447 8.50197C7.10251 8.61492 7.04907 8.61492 6.93711 8.50722C6.77934 8.35487 6.65465 8.18151 6.59358 7.96612C6.54269 7.79276 6.56559 7.63778 6.703 7.5117C7.02362 7.21488 7.40786 7.03627 7.82772 6.94696C8.06183 6.89705 8.29593 6.88392 8.53258 6.93908C9.00334 7.04677 9.27561 7.39087 9.30615 7.89257C9.3316 8.32598 9.21709 8.73312 9.1153 9.14289C8.96008 9.75491 8.80486 10.3669 8.65218 10.9816C8.62419 11.0945 8.61401 11.2154 8.61147 11.3309C8.60638 11.5647 8.70053 11.6672 8.93209 11.6724C9.32651 11.6829 9.6853 11.5411 10.0492 11.4045C10.3469 11.2915 10.4767 11.1077 10.5276 10.7741C10.6777 9.77067 10.8711 8.77252 11.039 7.76912C11.0645 7.61414 11.039 7.44866 11.0263 7.28843C11.0187 7.18599 11.0136 7.09406 11.1205 7.04677C11.38 6.9312 11.6497 6.88917 11.9246 6.97323C12.1409 7.03889 12.2503 7.17811 12.2299 7.40926C12.1994 7.76124 12.1485 8.11059 12.0925 8.45732C11.9398 9.39505 11.777 10.3328 11.6192 11.2705C11.5149 11.8852 11.408 12.4998 11.3037 13.1145C11.2935 13.1696 11.2884 13.2248 11.2782 13.2983C11.4436 13.3167 11.6039 13.3299 11.7617 13.3535C12.5353 13.4717 13.3088 13.5899 14.0824 13.7107C15.001 13.8552 15.9196 14.0207 16.8408 14.1415C17.3395 14.2072 17.8459 14.2256 18.3497 14.2151C19.2734 14.1967 20.1666 14.0207 20.9809 13.5321C21.0776 13.4743 21.1514 13.4875 21.2303 13.5663C21.4186 13.7554 21.5407 13.9813 21.5661 14.2545C21.584 14.4725 21.5102 14.6563 21.327 14.7877C20.8689 15.1134 20.3574 15.2999 19.8129 15.3945C19.0928 15.5232 18.3726 15.5021 17.65 15.4286C16.3446 15.2973 15.0774 14.9716 13.7949 14.7063C13.0544 14.5539 12.3063 14.4305 11.5607 14.2965C11.5022 14.286 11.4411 14.2939 11.3826 14.286C11.0772 14.244 11.1306 14.2361 11.067 14.5329C10.9271 15.1896 10.7006 15.8042 10.2553 16.3138C9.74382 16.8996 8.81504 17.136 8.16361 16.8418C7.63688 16.6027 7.34679 16.0538 7.42567 15.4838C7.56308 14.4961 8.13817 13.8972 9.01097 13.5715C9.32651 13.4533 9.66494 13.3955 9.99065 13.3036C10.0339 13.2905 10.0899 13.2458 10.0975 13.2064C10.1382 12.991 10.1688 12.7756 10.2044 12.5655ZM9.8965 14.3779C9.86342 14.3727 9.84561 14.3648 9.83289 14.37C9.54534 14.4357 9.27052 14.5355 9.04151 14.7299C8.86084 14.8849 8.7387 15.0792 8.70562 15.3262C8.66745 15.6177 8.8583 15.7858 9.13311 15.7044C9.3036 15.6519 9.42829 15.5389 9.52244 15.3866C9.70566 15.0792 9.80998 14.7404 9.8965 14.3779Z" fill="#E36021"/>
<path d="M10.2044 12.5655C9.94231 12.6732 9.69293 12.794 9.43338 12.8754C8.96771 13.0199 8.48933 13.0961 8.00839 12.9647C7.57581 12.8465 7.2959 12.4525 7.28063 11.9876C7.26791 11.6514 7.36715 11.3414 7.44603 11.0236C7.64705 10.2251 7.85317 9.4292 8.05419 8.63068C8.0771 8.53612 8.09236 8.43105 8.08219 8.33386C8.06183 8.18151 7.96004 8.11847 7.815 8.15262C7.58344 8.20778 7.38496 8.32861 7.21447 8.50197C7.10251 8.61492 7.04907 8.61492 6.93711 8.50722C6.77934 8.35487 6.65465 8.18151 6.59358 7.96612C6.54269 7.79276 6.56559 7.63778 6.703 7.5117C7.02362 7.21488 7.40786 7.03627 7.82772 6.94696C8.06183 6.89705 8.29593 6.88392 8.53258 6.93908C9.00334 7.04677 9.27561 7.39087 9.30615 7.89257C9.3316 8.32598 9.21709 8.73312 9.1153 9.14289C8.96008 9.75491 8.80486 10.3669 8.65218 10.9816C8.62419 11.0945 8.61401 11.2154 8.61147 11.3309C8.60638 11.5647 8.70053 11.6672 8.93209 11.6724C9.32651 11.6829 9.6853 11.5411 10.0492 11.4045C10.3469 11.2915 10.4767 11.1077 10.5276 10.7741C10.6777 9.77067 10.8711 8.77252 11.039 7.76912C11.0645 7.61414 11.039 7.44866 11.0263 7.28843C11.0187 7.18599 11.0136 7.09406 11.1205 7.04677C11.38 6.9312 11.6497 6.88917 11.9246 6.97323C12.1409 7.03889 12.2503 7.17811 12.2299 7.40926C12.1994 7.76124 12.1485 8.11059 12.0925 8.45732C11.9398 9.39505 11.777 10.3328 11.6192 11.2705C11.5149 11.8852 11.408 12.4998 11.3037 13.1145C11.2935 13.1696 11.2884 13.2248 11.2782 13.2983C11.4436 13.3167 11.6039 13.3299 11.7617 13.3535C12.5353 13.4717 13.3088 13.5899 14.0824 13.7107C15.001 13.8552 15.9196 14.0207 16.8408 14.1415C17.3395 14.2072 17.8459 14.2256 18.3497 14.2151C19.2734 14.1967 20.1666 14.0207 20.9809 13.5321C21.0776 13.4743 21.1514 13.4875 21.2303 13.5663C21.4186 13.7554 21.5407 13.9813 21.5661 14.2545C21.584 14.4725 21.5102 14.6563 21.327 14.7877C20.8689 15.1134 20.3574 15.2999 19.8129 15.3945C19.0928 15.5232 18.3726 15.5021 17.65 15.4286C16.3446 15.2973 15.0774 14.9716 13.7949 14.7063C13.0544 14.5539 12.3063 14.4305 11.5607 14.2965C11.5022 14.286 11.4411 14.2939 11.3826 14.286C11.0772 14.244 11.1306 14.2361 11.067 14.5329C10.9271 15.1896 10.7006 15.8042 10.2553 16.3138C9.74382 16.8996 8.81504 17.136 8.16361 16.8418C7.63688 16.6027 7.34679 16.0538 7.42567 15.4838C7.56308 14.4961 8.13817 13.8972 9.01097 13.5715C9.32651 13.4533 9.66494 13.3955 9.99065 13.3036C10.0339 13.2905 10.0899 13.2458 10.0975 13.2064C10.1382 12.991 10.1688 12.7756 10.2044 12.5655ZM9.8965 14.3779C9.86342 14.3727 9.84561 14.3648 9.83289 14.37C9.54534 14.4357 9.27052 14.5355 9.04151 14.7299C8.86084 14.8849 8.7387 15.0792 8.70562 15.3262C8.66745 15.6177 8.8583 15.7858 9.13311 15.7044C9.3036 15.6519 9.42829 15.5389 9.52244 15.3866C9.70566 15.0792 9.80998 14.7404 9.8965 14.3779Z" fill="white"/>
<path d="M17.5329 9.04044C17.8357 8.938 18.1156 8.82505 18.4057 8.74888C18.6347 8.68846 18.8739 8.71473 19.0851 8.83556C19.2022 8.90385 19.2963 9.01417 19.4185 9.12187C19.5457 9.05883 19.6984 8.96427 19.8663 8.9091C20.0928 8.83293 20.3295 8.74888 20.5636 8.73837C21.1361 8.70947 21.4516 9.02731 21.4364 9.62094C21.4287 9.95979 21.3626 10.296 21.3091 10.6322C21.2175 11.1996 21.1107 11.767 21.0241 12.3343C21.0012 12.4814 21.0191 12.639 21.0369 12.7888C21.0521 12.9175 21.0241 12.9989 20.9045 13.0462C20.6653 13.1407 20.4185 13.167 20.1691 13.1066C19.9452 13.054 19.8154 12.8991 19.8333 12.6653C19.8536 12.3737 19.8994 12.0848 19.9452 11.7985C20.0241 11.2863 20.1183 10.7767 20.187 10.2619C20.2277 9.95716 20.0648 9.83896 19.7824 9.9414C19.734 9.95979 19.6882 9.9808 19.6399 9.99919C19.505 10.057 19.4236 10.1358 19.3956 10.3091C19.2862 11.0367 19.1538 11.7617 19.0368 12.4893C19.0215 12.5786 19.047 12.6784 19.0673 12.773C19.1004 12.9306 19.075 12.9936 18.9325 13.0514C18.6882 13.1486 18.4363 13.1696 18.1843 13.104C17.9833 13.0514 17.8535 12.8964 17.8714 12.6837C17.8993 12.3317 17.9553 11.9824 18.0088 11.6356C18.0749 11.2127 18.1487 10.7925 18.22 10.3722C18.2276 10.3328 18.22 10.2934 18.2251 10.254C18.2607 9.9414 18.0469 9.84684 17.8052 9.94665C17.7161 9.98343 17.6245 10.0255 17.5431 10.078C17.5024 10.1043 17.4642 10.1594 17.454 10.2093C17.3243 10.9474 17.197 11.6882 17.0774 12.4289C17.0596 12.5445 17.0851 12.6705 17.1029 12.7914C17.1258 12.9358 17.1029 12.991 16.9756 13.0488C16.7594 13.1434 16.5303 13.1617 16.3013 13.1276C16.0087 13.0829 15.856 12.8702 15.8993 12.5655C15.9578 12.1505 16.0265 11.7381 16.0927 11.3257C16.1944 10.7058 16.3064 10.0885 16.4031 9.46859C16.4184 9.36615 16.3904 9.2532 16.3726 9.14551C16.3471 9.00104 16.3675 8.93275 16.5023 8.89072C16.6601 8.84344 16.823 8.79878 16.9833 8.7909C17.2072 8.77777 17.4159 8.83293 17.5329 9.04044Z" fill="#E36021"/>
<path d="M17.5329 9.04044C17.8357 8.938 18.1156 8.82505 18.4057 8.74888C18.6347 8.68846 18.8739 8.71473 19.0851 8.83556C19.2022 8.90385 19.2963 9.01417 19.4185 9.12187C19.5457 9.05883 19.6984 8.96427 19.8663 8.9091C20.0928 8.83293 20.3295 8.74888 20.5636 8.73837C21.1361 8.70947 21.4516 9.02731 21.4364 9.62094C21.4287 9.95979 21.3626 10.296 21.3091 10.6322C21.2175 11.1996 21.1107 11.767 21.0241 12.3343C21.0012 12.4814 21.0191 12.639 21.0369 12.7888C21.0521 12.9175 21.0241 12.9989 20.9045 13.0462C20.6653 13.1407 20.4185 13.167 20.1691 13.1066C19.9452 13.054 19.8154 12.8991 19.8333 12.6653C19.8536 12.3737 19.8994 12.0848 19.9452 11.7985C20.0241 11.2863 20.1183 10.7767 20.187 10.2619C20.2277 9.95716 20.0648 9.83896 19.7824 9.9414C19.734 9.95979 19.6882 9.9808 19.6399 9.99919C19.505 10.057 19.4236 10.1358 19.3956 10.3091C19.2862 11.0367 19.1538 11.7617 19.0368 12.4893C19.0215 12.5786 19.047 12.6784 19.0673 12.773C19.1004 12.9306 19.075 12.9936 18.9325 13.0514C18.6882 13.1486 18.4363 13.1696 18.1843 13.104C17.9833 13.0514 17.8535 12.8964 17.8714 12.6837C17.8993 12.3317 17.9553 11.9824 18.0088 11.6356C18.0749 11.2127 18.1487 10.7925 18.22 10.3722C18.2276 10.3328 18.22 10.2934 18.2251 10.254C18.2607 9.9414 18.0469 9.84684 17.8052 9.94665C17.7161 9.98343 17.6245 10.0255 17.5431 10.078C17.5024 10.1043 17.4642 10.1594 17.454 10.2093C17.3243 10.9474 17.197 11.6882 17.0774 12.4289C17.0596 12.5445 17.0851 12.6705 17.1029 12.7914C17.1258 12.9358 17.1029 12.991 16.9756 13.0488C16.7594 13.1434 16.5303 13.1617 16.3013 13.1276C16.0087 13.0829 15.856 12.8702 15.8993 12.5655C15.9578 12.1505 16.0265 11.7381 16.0927 11.3257C16.1944 10.7058 16.3064 10.0885 16.4031 9.46859C16.4184 9.36615 16.3904 9.2532 16.3726 9.14551C16.3471 9.00104 16.3675 8.93275 16.5023 8.89072C16.6601 8.84344 16.823 8.79878 16.9833 8.7909C17.2072 8.77777 17.4159 8.83293 17.5329 9.04044Z" fill="white"/>
<path d="M14.1079 12.7809C13.9145 12.8518 13.7312 12.9385 13.5404 12.9831C13.3317 13.033 13.1154 13.0803 12.9042 13.0672C12.4564 13.0383 12.1638 12.6784 12.1409 12.2056C12.118 11.746 12.2401 11.3047 12.3088 10.8555C12.3801 10.3906 12.4615 9.92565 12.5302 9.46072C12.5455 9.35565 12.5226 9.24533 12.5073 9.13764C12.4844 8.99317 12.5073 8.93801 12.6396 8.88284C12.8635 8.78828 13.0951 8.75414 13.3368 8.80404C13.5709 8.85132 13.7262 9.01681 13.7083 9.26109C13.6804 9.60256 13.6244 9.94403 13.5735 10.2855C13.5099 10.6953 13.4361 11.1024 13.3699 11.5122C13.3292 11.7775 13.4819 11.9456 13.7389 11.9009C13.8865 11.8747 14.029 11.809 14.1689 11.7486C14.2096 11.7302 14.2453 11.6672 14.2529 11.6172C14.375 10.9343 14.4972 10.2514 14.6066 9.56842C14.6295 9.42132 14.6041 9.26372 14.5837 9.114C14.5684 9.01418 14.5913 8.94851 14.6753 8.90911C14.9476 8.78303 15.2275 8.73838 15.515 8.83819C15.7186 8.90911 15.8127 9.08247 15.7975 9.28998C15.772 9.60256 15.7186 9.91251 15.6652 10.2225C15.5456 10.9264 15.4158 11.6304 15.3038 12.337C15.2784 12.4919 15.3064 12.6574 15.3293 12.8177C15.3445 12.9227 15.3216 12.9884 15.23 13.0304C14.9908 13.1407 14.7389 13.1644 14.4845 13.1224C14.2911 13.0882 14.1638 12.9753 14.1079 12.7809Z" fill="#E36021"/>
<path d="M14.1079 12.7809C13.9145 12.8518 13.7312 12.9385 13.5404 12.9831C13.3317 13.033 13.1154 13.0803 12.9042 13.0672C12.4564 13.0383 12.1638 12.6784 12.1409 12.2056C12.118 11.746 12.2401 11.3047 12.3088 10.8555C12.3801 10.3906 12.4615 9.92565 12.5302 9.46072C12.5455 9.35565 12.5226 9.24533 12.5073 9.13764C12.4844 8.99317 12.5073 8.93801 12.6396 8.88284C12.8635 8.78828 13.0951 8.75414 13.3368 8.80404C13.5709 8.85132 13.7262 9.01681 13.7083 9.26109C13.6804 9.60256 13.6244 9.94403 13.5735 10.2855C13.5099 10.6953 13.4361 11.1024 13.3699 11.5122C13.3292 11.7775 13.4819 11.9456 13.7389 11.9009C13.8865 11.8747 14.029 11.809 14.1689 11.7486C14.2096 11.7302 14.2453 11.6672 14.2529 11.6172C14.375 10.9343 14.4972 10.2514 14.6066 9.56842C14.6295 9.42132 14.6041 9.26372 14.5837 9.114C14.5684 9.01418 14.5913 8.94851 14.6753 8.90911C14.9476 8.78303 15.2275 8.73838 15.515 8.83819C15.7186 8.90911 15.8127 9.08247 15.7975 9.28998C15.772 9.60256 15.7186 9.91251 15.6652 10.2225C15.5456 10.9264 15.4158 11.6304 15.3038 12.337C15.2784 12.4919 15.3064 12.6574 15.3293 12.8177C15.3445 12.9227 15.3216 12.9884 15.23 13.0304C14.9908 13.1407 14.7389 13.1644 14.4845 13.1224C14.2911 13.0882 14.1638 12.9753 14.1079 12.7809Z" fill="white"/>
</g>
</svg>
