<svg width="85" height="23" viewBox="0 0 85 23" fill="none" xmlns="http://www.w3.org/2000/svg">
<mask id="mask0" mask-type="alpha" maskUnits="userSpaceOnUse" x="0" y="0" width="85" height="23">
<path d="M80.3 0H3.79999C1.69999 0 0 1.69999 0 3.79999V19.2C0 21.3 1.69999 23 3.79999 23H80.3C82.4 23 84.1 21.3 84.1 19.2V3.79999C84.1 1.69999 82.4 0 80.3 0Z" fill="#4367AF"/>
</mask>
<g mask="url(#mask0)">
<rect width="84" height="23" fill="#0274B3"/>
<rect width="84" height="23" fill="#E36021"/>
<rect width="84" height="23" fill="#ED2326"/>
<path d="M27.4 10.8C27.4 9.69999 27.3 9.30001 26.3 9.10001C25.9 9.00001 25.6 8.89999 25.5 8.89999L25.7 7.79999C25.9 7.89999 26.1 7.9 26.6 8C28 8.3 28.4 8.80001 28.4 10.6V14.7H27.4V10.8Z" fill="white"/>
<path d="M29.6 13.6C29.9 13.6 30.3 13.6 31.1 13.6H32V10.8C32 9.69999 31.9 9.40001 30.8 9.20001C30.4 9.10001 29.9 8.99999 29.7 8.89999L29.9 7.79999C30.1 7.89999 30.4 7.9 31 8C32.4 8.3 33 8.7 33 10.5V13.5L32.8 14.6H31.1C30.6 14.6 29.7 14.6 29.5 14.6L29.6 13.6Z" fill="white"/>
<path d="M34.3 13.7C34.5 13.7 34.7 13.6 35.3 13.6H35.5C35.5 12.4 35.4 9.90001 35.3 9.10001C35.1 9.10001 34.6 9.1 34.4 9L34.6 7.89999C35 7.99999 35.8 7.89999 36.5 7.89999H38.5C40.3 7.89999 40.7 8.3 40.7 10.5V14.7H39.7V10.9C39.7 9.69999 39.6 9.10001 38.4 9.10001H36.2C36.3 9.90001 36.4 12.7 36.4 13.6L36.2 14.7H35.2C34.7 14.7 34.3 14.7 34 14.7L34.3 13.7Z" fill="white"/>
<path d="M43.5 10.8C43.5 9.69999 43.4 9.30001 42.4 9.10001C42 9.00001 41.7 8.89999 41.6 8.89999L41.8 7.79999C42 7.89999 42.2 7.9 42.7 8C44.1 8.3 44.5 8.80001 44.5 10.6V14.7H43.5V10.8Z" fill="white"/>
<path d="M46.2 13.1C46.2 11.9 46.5 10.8 47.4 9.79999C46.9 9.19999 46.2 8.50001 45.7 8.10001V8L47 7.89999C47.6 8.49999 48.6 9.60001 49.9 11.2C50.4 10.9 50.7 10.4 50.7 9.60001C50.7 9.10001 50.6 8.6 50.3 8L51.5 7.89999C51.7 8.39999 51.7 8.79999 51.7 9.39999C51.7 10.4 51.2 11.3 50.3 11.8C51 12.6 52 14.1 52.4 14.7H51.1C50.7 14 49.6 12.5 47.8 10.4C47.3 11.1 47.1 12 47.2 12.7C47.2 13.4 47.4 14.1 47.5 14.6H46.3C46.2 14.2 46.2 13.6 46.2 13.1Z" fill="white"/>
<path d="M57 10.8C57 9.69999 56.9 9.30001 55.9 9.10001C55.5 9.00001 55.2 8.89999 55.1 8.89999L55.3 7.79999C55.5 7.89999 55.7 7.9 56.2 8C57.6 8.3 58 8.80001 58 10.6V14.7H57V10.8Z" fill="white"/>
<path d="M62.7 10.9C62.7 9.69999 62.6 9.10001 61.4 9.10001H60.2C59.5 9.10001 59 9.1 58.8 9L59 7.89999C59.2 7.89999 59.9 7.89999 60.7 7.89999H61.5C63.3 7.89999 63.7 8.3 63.7 10.5V14.7H62.7V10.9Z" fill="white"/>
<path d="M67.3 13.5C68.8 13.1 70 12.1 70 10.2C70 9.40001 69.7 9.10001 68.8 9.10001H67.1C66.3 9.10001 65.5 9.1 65.3 9L65.5 7.89999C65.8 7.99999 66.5 7.89999 67.3 7.89999H69C70.6 7.89999 71 8.39999 71 9.79999C71 12.5 69.2 14.2 67.1 14.7L67.3 13.5ZM65.5 11H66.5V17.1H65.5V11Z" fill="white"/>
<path d="M71.9 13.7C72.3 13.6 73.2 13.6 73.9 13.6H75.8C75.8 12.8 75.8 11.6 75.8 10.9C75.8 9.59999 75.6 9.10001 74.4 9.10001H73.3C72.6 9.10001 72.1 9.1 71.9 9L72.1 7.89999C72.3 7.89999 72.9 7.89999 73.7 7.89999H74.7C76.5 7.89999 76.7 8.69999 76.7 10.4V12.4C76.7 12.7 76.7 13.2 76.7 13.5H77.6L77.4 14.6H73.4C72.9 14.6 72.1 14.6 71.8 14.6L71.9 13.7Z" fill="white"/>
<path d="M13.5986 16.5713C12.1202 16.5936 10.6419 16.5803 9.16791 16.4822C8.74426 16.4554 8.3206 16.4197 7.90136 16.3261C7.0364 16.1388 6.52449 15.5904 6.36562 14.7254C6.10525 13.3031 6.06994 11.8629 6.11849 10.4227C6.14938 9.57559 6.20233 8.73288 6.34797 7.8991C6.51566 6.94493 7.11143 6.25828 8.31619 6.14681C10.536 5.94171 12.7646 5.9105 14.9932 5.95063C15.9861 5.96846 16.979 5.99522 17.9676 6.05764C18.4662 6.08885 18.9693 6.11114 19.4503 6.24937C20.3285 6.50351 20.7522 7.15003 20.8802 8.03286C21.1229 9.74502 21.1538 11.4661 21.0258 13.1872C20.9817 13.7579 20.9375 14.3241 20.7963 14.8815C20.5933 15.6974 19.9887 16.2325 19.1679 16.3573C18.2059 16.5 17.235 16.5357 16.2685 16.5669C15.3771 16.5936 14.4857 16.5713 13.5986 16.5713ZM12.0673 13.526C13.3824 12.768 14.671 12.0279 15.9861 11.2744C14.6622 10.5119 13.3736 9.77623 12.0673 9.0227C12.0673 10.5342 12.0673 12.0101 12.0673 13.526Z" fill="#ED2326"/>
<path d="M13.5986 16.5713C12.1202 16.5936 10.6419 16.5803 9.16791 16.4822C8.74426 16.4554 8.3206 16.4197 7.90136 16.3261C7.0364 16.1388 6.52449 15.5904 6.36562 14.7254C6.10525 13.3031 6.06994 11.8629 6.11849 10.4227C6.14938 9.57559 6.20233 8.73288 6.34797 7.8991C6.51566 6.94493 7.11143 6.25828 8.31619 6.14681C10.536 5.94171 12.7646 5.9105 14.9932 5.95063C15.9861 5.96846 16.979 5.99522 17.9676 6.05764C18.4662 6.08885 18.9693 6.11114 19.4503 6.24937C20.3285 6.50351 20.7522 7.15003 20.8802 8.03286C21.1229 9.74502 21.1538 11.4661 21.0258 13.1872C20.9817 13.7579 20.9375 14.3241 20.7963 14.8815C20.5933 15.6974 19.9887 16.2325 19.1679 16.3573C18.2059 16.5 17.235 16.5357 16.2685 16.5669C15.3771 16.5936 14.4857 16.5713 13.5986 16.5713ZM12.0673 13.526C13.3824 12.768 14.671 12.0279 15.9861 11.2744C14.6622 10.5119 13.3736 9.77623 12.0673 9.0227C12.0673 10.5342 12.0673 12.0101 12.0673 13.526Z" fill="white"/>
</g>
</svg>
