<svg width="82" height="23" viewBox="0 0 82 23" fill="none" xmlns="http://www.w3.org/2000/svg">
<mask id="mask0" mask-type="alpha" maskUnits="userSpaceOnUse" x="0" y="0" width="82" height="23">
<path d="M77.3 0H3.8C1.7 0 0 1.7 0 3.8V19.2C0 21.3 1.7 23 3.8 23H77.3C79.4 23 81.1 21.3 81.1 19.2V3.8C81.1 1.7 79.4 0 77.3 0Z" fill="#4367AF"/>
</mask>
<g mask="url(#mask0)">
<rect x="-1" width="82" height="23" fill="#0274B3"/>
<rect x="-1" width="82" height="23" fill="#E36021"/>
<rect x="-1" width="82" height="23" fill="#ED2326"/>
<path d="M27.6 8.10001V11.7H25.8V8.10001H27.6Z" fill="white"/>
<path d="M29 13.3C29.2 13.4 29.5 13.4 29.7 13.4C29.9 13.4 30.1 13.3 30.2 13.2C30.3 13.1 30.3 12.9 30.3 12.5V9.40001C30 9.40001 29.6 9.4 29 9.5L28.9 8.20001C30 8.10001 31 8 32.2 8C33.2 8 33.9 8.1 34.5 8.3C35.1 8.5 35.5 8.80001 35.8 9.20001C36.1 9.60001 36.2 10.3 36.2 11.1V14.6H34.5V11.4C34.5 10.6 34.4 10 34.1 9.8C33.8 9.5 33.2 9.40001 32.1 9.40001V12.6C32.1 13.2 32.1 13.5 32 13.8C31.9 14 31.7 14.2 31.5 14.4C31.2 14.6 30.9 14.6 30.4 14.6C29.9 14.6 29.4 14.5 28.9 14.4L29 13.3Z" fill="white"/>
<path d="M39.5 8.10001V14.6H37.7V8.10001H39.5Z" fill="white"/>
<path d="M45.5 11.8L47.5 14.6H45.5L43.2 11.4C42.9 11.7 42.7 12.3 42.7 13.3L42.6 14.6H40.9L41 13.2C41.1 12.3 41.2 11.6 41.5 11.2C41.7 10.8 42 10.5 42.4 10.3L40.9 8.10001H42.9L44.8 10.8C45.1 10.6 45.3 10 45.4 9.20001L45.5 8.10001H47.1L47 8.90001C46.9 9.80001 46.8 10.5 46.5 10.9C46.2 11.3 45.9 11.6 45.5 11.8Z" fill="white"/>
<path d="M53.7 8.10001V14.6H51.9V8.10001H53.7Z" fill="white"/>
<path d="M60.3 14.6H58.6V11.4C58.6 10.7 58.4 10.2 58.1 9.90001C57.8 9.60001 57.2 9.5 56.5 9.5C56.1 9.5 55.6 9.50001 55 9.60001L54.9 8.20001C55.5 8.10001 56.2 8 56.9 8C58.1 8 58.9 8.20001 59.5 8.70001C60.1 9.20001 60.4 10 60.4 11V14.6H60.3Z" fill="white"/>
<path d="M61.9 9.60001V8.10001H67.6V9.8C67.6 10.4 67.6 10.9 67.5 11.1C67.4 11.4 67.3 11.7 67.2 11.9L66.9 12.3C66.7 12.6 66.6 12.8 66.5 13C66.5 13.2 66.4 13.3 66.4 13.5V14.6H64.7V13.4C64.7 13.1 64.7 12.8 64.8 12.5C64.9 12.2 65.1 12 65.3 11.6L65.5 11.4C65.7 11.1 65.8 10.8 65.8 10.3V9.5H61.9V9.60001ZM61.9 17.1V11.2H63.6V17.1H61.9Z" fill="white"/>
<path d="M74 13.1H75.2V14.6H68.7V13.1H72.3V11.4C72.3 10.7 72.1 10.2 71.8 9.90001C71.5 9.60001 71 9.5 70.2 9.5C69.8 9.5 69.3 9.50001 68.7 9.60001L68.6 8.20001C69.2 8.10001 69.9 8 70.5 8C71.7 8 72.6 8.20001 73.1 8.70001C73.7 9.20001 73.9 10 73.9 11V13.1H74Z" fill="white"/>
<path d="M13.5986 16.5714C12.1202 16.5936 10.6419 16.5803 9.16791 16.4822C8.74426 16.4554 8.3206 16.4198 7.90136 16.3261C7.0364 16.1389 6.52449 15.5904 6.36562 14.7254C6.10525 13.3031 6.06994 11.8629 6.11849 10.4227C6.14938 9.57559 6.20233 8.73289 6.34797 7.8991C6.51566 6.94493 7.11143 6.25829 8.31619 6.14682C10.536 5.94172 12.7646 5.9105 14.9932 5.95063C15.9861 5.96847 16.979 5.99522 17.9676 6.05764C18.4662 6.08885 18.9693 6.11115 19.4503 6.24937C20.3285 6.50352 20.7522 7.15003 20.8802 8.03287C21.1229 9.74502 21.1538 11.4661 21.0258 13.1872C20.9817 13.7579 20.9375 14.3241 20.7963 14.8815C20.5933 15.6974 19.9887 16.2325 19.1679 16.3573C18.2059 16.5 17.235 16.5357 16.2685 16.5669C15.3771 16.5936 14.4857 16.5714 13.5986 16.5714ZM12.0673 13.526C13.3824 12.768 14.671 12.0279 15.9861 11.2744C14.6622 10.5119 13.3736 9.77623 12.0673 9.0227C12.0673 10.5342 12.0673 12.0101 12.0673 13.526Z" fill="#ED2326"/>
<path d="M13.5986 16.5714C12.1202 16.5936 10.6419 16.5803 9.16791 16.4822C8.74426 16.4554 8.3206 16.4198 7.90136 16.3261C7.0364 16.1389 6.52449 15.5904 6.36562 14.7254C6.10525 13.3031 6.06994 11.8629 6.11849 10.4227C6.14938 9.57559 6.20233 8.73289 6.34797 7.8991C6.51566 6.94493 7.11143 6.25829 8.31619 6.14682C10.536 5.94172 12.7646 5.9105 14.9932 5.95063C15.9861 5.96847 16.979 5.99522 17.9676 6.05764C18.4662 6.08885 18.9693 6.11115 19.4503 6.24937C20.3285 6.50352 20.7522 7.15003 20.8802 8.03287C21.1229 9.74502 21.1538 11.4661 21.0258 13.1872C20.9817 13.7579 20.9375 14.3241 20.7963 14.8815C20.5933 15.6974 19.9887 16.2325 19.1679 16.3573C18.2059 16.5 17.235 16.5357 16.2685 16.5669C15.3771 16.5936 14.4857 16.5714 13.5986 16.5714ZM12.0673 13.526C13.3824 12.768 14.671 12.0279 15.9861 11.2744C14.6622 10.5119 13.3736 9.77623 12.0673 9.0227C12.0673 10.5342 12.0673 12.0101 12.0673 13.526Z" fill="white"/>
</g>
</svg>
