<svg width="72" height="23" viewBox="0 0 72 23" fill="none" xmlns="http://www.w3.org/2000/svg">
<mask id="mask0" mask-type="alpha" maskUnits="userSpaceOnUse" x="0" y="0" width="72" height="23">
<path d="M67.3 0H3.8C1.7 0 0 1.7 0 3.8V19.2C0 21.3 1.7 23 3.8 23H67.3C69.4 23 71.1 21.3 71.1 19.2V3.8C71.1 1.7 69.4 0 67.3 0Z" fill="#4367AF"/>
</mask>
<g mask="url(#mask0)">
<rect x="-1" width="72" height="23" fill="#0274B3"/>
<rect x="-1" width="72" height="23" fill="#E36021"/>
<rect x="-1" width="72" height="23" fill="#ED2326"/>
<path d="M25.9 9L32.1 8.89999L32.4 9.5V9.60001H31.3V15.2L31.2 15.3L30.5 15.1V12.7H28.2V13C28.2 13.3 28.2 13.5 28.1 13.6C28 13.7 27.9 13.8 27.7 13.8C27.4 13.8 26.6 13.1 26.6 12.6C26.6 12.5 26.7 12.3 26.8 12.2C26.9 12.1 27.1 12 27.5 12V9.7H26.1L25.9 9ZM30.6 9.60001H28.3V12H30.6V9.60001Z" fill="white"/>
<path d="M28.2 15.7C29 16.7 29.7 17.4 30.5 17.4C30.9 17.4 31.5 17.1 31.5 16.7C31.5 16.4 31.3 16.3 31.1 16.3C30.8 16.3 30.5 16.5 30.3 16.7L29.9 16C30.2 15.8 30.5 15.6 30.9 15.6C31.3 15.6 31.6 15.8 31.9 16.2C32.1 16.5 32.1 16.7 32.1 17C32.1 17.8 31.4 18.1 30.9 18.1C30 18.1 29.1 17.5 28.1 16.1L28.2 15.7Z" fill="white"/>
<path d="M31.8 9L39.4 8.89999L39.7 9.5V9.60001H38.6V15.2L38.5 15.3L37.8 15.1V13C37.7 13 37.6 13 37.4 13C37.1 13 36.8 12.9 36.4 12.7C36.6 12.9 36.6 13.2 36.6 13.4C36.6 14.1 35.9 14.6 34.8 14.9C35.1 15.4 35.8 15.7 36.8 15.8L36.5 16.6C35.7 16.5 35 16.2 34.5 14.9C34.4 14.9 34.2 14.9 34.1 14.9C33.7 14.9 33.5 14.8 33.3 14.6C33.2 14.4 33.1 14.2 33.1 14C33.1 13.8 33.3 13.6 33.6 13.6C34.1 13.6 34.4 13.8 34.7 14.1C35.5 13.9 36.2 13.4 36.2 12.9C36.2 12.7 36.1 12.6 35.8 12.6C35.3 12.6 34.7 12.9 34.2 12.9C33.8 12.9 33.4 12.7 33 12.2C32.8 11.9 32.6 11.6 32.6 11.3C32.6 10.9 32.8 10.6 33.2 10.5C33.5 10.4 33.9 10.4 34.5 10.4H35.4C35.5 10.4 35.6 10.4 35.6 10.2V9.5H32.1L31.8 9ZM37.8 9.60001H36.2V11.1L36.1 11.2C35.8 11.2 35.2 11.2 34.8 11.2C33.5 11.2 33.2 11.5 33.2 11.9C33.2 12.1 33.4 12.3 33.7 12.3C34.2 12.3 34.8 12 35.3 12C35.5 12 35.8 12.1 36 12.3C36.3 12.4 36.5 12.4 36.7 12.4C37.1 12.4 37.4 12.3 37.7 12.1V9.60001H37.8Z" fill="white"/>
<path d="M39.1 9L45.6 8.89999L45.9 9.5V9.60001H44.8V15.2L44.7 15.3L44 15.1V12.7C43.7 12.8 43.5 12.8 43.2 12.8C42.7 12.8 42.1 12.7 41.4 12.3C41.2 12.7 41 12.9 40.7 13.1C41.3 13.7 42 14.2 42.9 14.7L42.5 15.5H42.4C41.3 14.6 40.5 13.8 40 13.1C39.8 12.7 39.6 12.3 39.6 12.1C39.6 12 39.7 11.6 40.1 11.6C40.3 11.6 40.5 11.6 40.7 11.7C40.8 11.4 40.8 11.2 40.8 10.8C40.8 10.4 40.8 10 40.7 9.7H39.2L39.1 9ZM41.6 9.60001C41.7 10.1 41.7 10.6 41.7 11.1C41.7 11.4 41.7 11.6 41.6 11.9C42 12 42.4 12.1 42.7 12.1C43.1 12.1 43.5 12 44 11.9V9.60001H41.6Z" fill="white"/>
<path d="M44.2 9C44 8.6 43.8 8.2 43.6 7.8C43.3 7.1 43 6.8 42.3 6.8C41.9 6.8 41.6 6.9 41.2 7L40.9 6.2C41.2 6.1 41.6 6 42.1 6C43.3 6 43.5 6.8 44.7 9V9.10001H44.2V9Z" fill="white"/>
<path d="M48.8 9L50.1 8.89999C49.8 8.59999 49.7 8.2 49.7 7.8C49.7 6.9 50.5 6 51.9 6C53.5 6 55 6.8 56.3 8.3L56.1 8.60001C55 7.50001 53.8 6.7 52.4 6.7C51.3 6.7 50.4 7.2 50.4 8.2C50.4 8.5 50.5 8.69999 50.6 8.89999H51.6L51.9 9.5V9.60001H50.8V15.2L50.7 15.3L50 15.1C50 13.3 50 11.4 50 9.60001H49.1L48.8 9Z" fill="white"/>
<path d="M51.2 9L57.4 8.89999L57.7 9.5V9.60001H56.6V15.2L56.5 15.3L55.8 15.1V12.7H53.5V13C53.5 13.3 53.5 13.5 53.4 13.6C53.3 13.7 53.2 13.8 53 13.8C52.7 13.8 51.9 13.1 51.9 12.6C51.9 12.5 52 12.3 52.1 12.2C52.2 12.1 52.4 12 52.8 12V9.7H51.4L51.2 9ZM55.9 9.60001H53.6V12H55.9V9.60001Z" fill="white"/>
<path d="M57.2 9L64.1 8.89999L64.4 9.5V9.60001H63.3V15.2L63.2 15.3L62.5 15.1V11.4C61.4 11.6 61 11.9 60.7 13.1L60.1 12.7C60.2 12.3 60.4 11.9 60.6 11.6C60.4 11.5 60.2 11.4 59.9 11.4C59.2 11.4 58.7 12 58.7 12.5C58.7 13.5 59.4 14 60.6 14.5L60.1 15.2C58.8 14.3 58 13.3 58 12.1C58 11.2 58.6 10.5 59.5 10.5C60.1 10.5 60.5 10.7 60.9 11.1C61.3 10.8 61.9 10.6 62.6 10.5V9.5H57.5L57.2 9Z" fill="white"/>
<path d="M62.7 9C62.5 8.6 62.3 8.2 62.1 7.8C61.8 7.1 61.5 6.8 60.8 6.8C60.4 6.8 60.1 6.9 59.7 7L59.4 6.2C59.7 6.1 60.1 6 60.6 6C61.8 6 62 6.8 63.2 9V9.10001H62.7V9Z" fill="white"/>
<path d="M13.5986 16.5714C12.1202 16.5936 10.6419 16.5803 9.16791 16.4822C8.74426 16.4554 8.3206 16.4198 7.90136 16.3261C7.0364 16.1389 6.52449 15.5904 6.36562 14.7254C6.10525 13.3031 6.06994 11.8629 6.11849 10.4227C6.14938 9.57559 6.20233 8.73289 6.34797 7.8991C6.51566 6.94493 7.11143 6.25829 8.31619 6.14682C10.536 5.94172 12.7646 5.9105 14.9932 5.95063C15.9861 5.96847 16.979 5.99522 17.9676 6.05764C18.4662 6.08885 18.9693 6.11115 19.4503 6.24937C20.3285 6.50352 20.7522 7.15003 20.8802 8.03287C21.1229 9.74502 21.1538 11.4661 21.0258 13.1872C20.9817 13.7579 20.9375 14.3241 20.7963 14.8815C20.5933 15.6974 19.9887 16.2325 19.1679 16.3573C18.2059 16.5 17.235 16.5357 16.2685 16.5669C15.3771 16.5936 14.4857 16.5714 13.5986 16.5714ZM12.0673 13.526C13.3824 12.768 14.671 12.0279 15.9861 11.2744C14.6622 10.5119 13.3736 9.77623 12.0673 9.0227C12.0673 10.5342 12.0673 12.0101 12.0673 13.526Z" fill="#ED2326"/>
<path d="M13.5986 16.5714C12.1202 16.5936 10.6419 16.5803 9.16791 16.4822C8.74426 16.4554 8.3206 16.4198 7.90136 16.3261C7.0364 16.1389 6.52449 15.5904 6.36562 14.7254C6.10525 13.3031 6.06994 11.8629 6.11849 10.4227C6.14938 9.57559 6.20233 8.73289 6.34797 7.8991C6.51566 6.94493 7.11143 6.25829 8.31619 6.14682C10.536 5.94172 12.7646 5.9105 14.9932 5.95063C15.9861 5.96847 16.979 5.99522 17.9676 6.05764C18.4662 6.08885 18.9693 6.11115 19.4503 6.24937C20.3285 6.50352 20.7522 7.15003 20.8802 8.03287C21.1229 9.74502 21.1538 11.4661 21.0258 13.1872C20.9817 13.7579 20.9375 14.3241 20.7963 14.8815C20.5933 15.6974 19.9887 16.2325 19.1679 16.3573C18.2059 16.5 17.235 16.5357 16.2685 16.5669C15.3771 16.5936 14.4857 16.5714 13.5986 16.5714ZM12.0673 13.526C13.3824 12.768 14.671 12.0279 15.9861 11.2744C14.6622 10.5119 13.3736 9.77623 12.0673 9.0227C12.0673 10.5342 12.0673 12.0101 12.0673 13.526Z" fill="white"/>
</g>
</svg>
