<svg width="76" height="23" viewBox="0 0 76 23" fill="none" xmlns="http://www.w3.org/2000/svg">
<mask id="mask0" mask-type="alpha" maskUnits="userSpaceOnUse" x="0" y="0" width="76" height="23">
<path d="M71.3 0H3.79999C1.69999 0 0 1.69999 0 3.79999V19.2C0 21.3 1.69999 23 3.79999 23H71.3C73.4 23 75.1 21.3 75.1 19.2V3.79999C75.1 1.69999 73.4 0 71.3 0Z" fill="#4367AF"/>
</mask>
<g mask="url(#mask0)">
<rect width="75" height="23" fill="#0274B3"/>
<rect width="75" height="23" fill="#E36021"/>
<rect width="75" height="23" fill="#ED2326"/>
<path d="M28.6 15.9L25.4 7H27.3L29.5 13.6L31.7 7H33.6L30.4 15.9H28.6Z" fill="white"/>
<path d="M34.3 8.59998V7H36V8.59998H34.3ZM34.3 15.9V9.5H36V15.9H34.3Z" fill="white"/>
<path d="M37.2 14.1L38.9 13.8C39 14.1 39.1 14.4 39.3 14.6C39.5 14.8 39.8 14.9 40.2 14.9C40.6 14.9 41 14.8 41.2 14.7C41.3 14.6 41.4 14.4 41.4 14.2C41.4 14.1 41.4 14 41.3 13.9C41.2 13.8 41 13.7 40.7 13.7C39.3 13.4 38.5 13.1 38.1 12.9C37.6 12.6 37.3 12.1 37.3 11.5C37.3 10.9 37.5 10.5 38 10.1C38.4 9.69998 39.1 9.5 40 9.5C40.9 9.5 41.5 9.59996 42 9.89996C42.4 10.2 42.7 10.6 42.9 11.2L41.3 11.5C41.2 11.2 41.1 11.1 40.9 10.9C40.7 10.8 40.4 10.7 40.1 10.7C39.7 10.7 39.3 10.8 39.1 10.9C39 11 38.9 11.1 38.9 11.2C38.9 11.3 39 11.4 39.1 11.5C39.3 11.6 39.8 11.8 40.7 12C41.6 12.2 42.2 12.5 42.6 12.8C43 13.1 43.1 13.5 43.1 14.1C43.1 14.7 42.9 15.2 42.4 15.6C41.9 16 41.2 16.2 40.2 16.2C39.3 16.2 38.6 16 38.1 15.7C37.7 15.2 37.3 14.7 37.2 14.1Z" fill="white"/>
<path d="M44.7 8.59998V7H46.4V8.59998H44.7ZM44.7 15.9V9.5H46.4V15.9H44.7Z" fill="white"/>
<path d="M51.1 9.5V10.9H49.9V13.5C49.9 14 49.9 14.3 49.9 14.4C49.9 14.5 50 14.6 50.1 14.6C50.2 14.7 50.3 14.7 50.4 14.7C50.6 14.7 50.8 14.6 51.1 14.5L51.2 15.8C50.8 16 50.4 16.1 49.9 16.1C49.6 16.1 49.3 16 49.1 15.9C48.9 15.8 48.7 15.7 48.6 15.5C48.5 15.3 48.4 15.1 48.4 14.8C48.4 14.6 48.3 14.2 48.3 13.6V10.8H47.5V9.39996H48.3V8.09998L50 7.09998V9.39996H51.1V9.5Z" fill="white"/>
<path d="M59.9 15.9V14.9C59.7 15.2 59.4 15.5 59 15.7C58.6 15.9 58.2 16 57.8 16C57.4 16 57 15.9 56.6 15.7C56.3 15.5 56 15.2 55.9 14.9C55.7 14.6 55.7 14.1 55.7 13.5V9.39996H57.4V12.4C57.4 13.3 57.4 13.9 57.5 14.1C57.6 14.3 57.7 14.5 57.8 14.6C58 14.7 58.2 14.8 58.4 14.8C58.7 14.8 59 14.7 59.2 14.6C59.4 14.4 59.6 14.2 59.7 14C59.8 13.8 59.8 13.2 59.8 12.3V9.59998H61.5V16H59.9V15.9Z" fill="white"/>
<path d="M62.7 14.1L64.4 13.8C64.5 14.1 64.6 14.4 64.8 14.6C65 14.8 65.3 14.9 65.7 14.9C66.1 14.9 66.5 14.8 66.7 14.7C66.9 14.6 66.9 14.4 66.9 14.2C66.9 14.1 66.9 14 66.8 13.9C66.7 13.8 66.5 13.7 66.2 13.7C64.8 13.4 64 13.1 63.6 12.9C63.1 12.6 62.8 12.1 62.8 11.5C62.8 10.9 63 10.5 63.5 10.1C63.9 9.69998 64.6 9.5 65.5 9.5C66.4 9.5 67 9.59996 67.5 9.89996C67.9 10.2 68.2 10.6 68.4 11.2L66.8 11.5C66.7 11.2 66.6 11.1 66.4 10.9C66.2 10.8 65.9 10.7 65.6 10.7C65.2 10.7 64.8 10.8 64.6 10.9C64.5 11 64.4 11.1 64.4 11.2C64.4 11.3 64.5 11.4 64.6 11.5C64.8 11.6 65.3 11.8 66.2 12C67.1 12.2 67.7 12.5 68.1 12.8C68.5 13.1 68.6 13.5 68.6 14.1C68.6 14.7 68.4 15.2 67.9 15.6C67.4 16 66.7 16.2 65.7 16.2C64.8 16.2 64.1 16 63.6 15.7C63.2 15.2 62.8 14.7 62.7 14.1Z" fill="white"/>
<path d="M13.5986 16.5714C12.1202 16.5936 10.6419 16.5803 9.16791 16.4822C8.74426 16.4554 8.3206 16.4198 7.90136 16.3261C7.0364 16.1389 6.52449 15.5904 6.36562 14.7254C6.10525 13.3031 6.06994 11.8629 6.11849 10.4227C6.14938 9.57559 6.20233 8.73289 6.34797 7.8991C6.51566 6.94493 7.11143 6.25829 8.31619 6.14682C10.536 5.94172 12.7646 5.9105 14.9932 5.95063C15.9861 5.96847 16.979 5.99522 17.9676 6.05764C18.4662 6.08885 18.9693 6.11115 19.4503 6.24937C20.3285 6.50352 20.7522 7.15003 20.8802 8.03287C21.1229 9.74502 21.1538 11.4661 21.0258 13.1872C20.9817 13.7579 20.9375 14.3241 20.7963 14.8815C20.5933 15.6974 19.9887 16.2325 19.1679 16.3573C18.2059 16.5 17.235 16.5357 16.2685 16.5669C15.3771 16.5936 14.4857 16.5714 13.5986 16.5714ZM12.0673 13.526C13.3824 12.768 14.671 12.0279 15.9861 11.2744C14.6622 10.5119 13.3736 9.77623 12.0673 9.0227C12.0673 10.5342 12.0673 12.0101 12.0673 13.526Z" fill="#ED2326"/>
<path d="M13.5986 16.5714C12.1202 16.5936 10.6419 16.5803 9.16791 16.4822C8.74426 16.4554 8.3206 16.4198 7.90136 16.3261C7.0364 16.1389 6.52449 15.5904 6.36562 14.7254C6.10525 13.3031 6.06994 11.8629 6.11849 10.4227C6.14938 9.57559 6.20233 8.73289 6.34797 7.8991C6.51566 6.94493 7.11143 6.25829 8.31619 6.14682C10.536 5.94172 12.7646 5.9105 14.9932 5.95063C15.9861 5.96847 16.979 5.99522 17.9676 6.05764C18.4662 6.08885 18.9693 6.11115 19.4503 6.24937C20.3285 6.50352 20.7522 7.15003 20.8802 8.03287C21.1229 9.74502 21.1538 11.4661 21.0258 13.1872C20.9817 13.7579 20.9375 14.3241 20.7963 14.8815C20.5933 15.6974 19.9887 16.2325 19.1679 16.3573C18.2059 16.5 17.235 16.5357 16.2685 16.5669C15.3771 16.5936 14.4857 16.5714 13.5986 16.5714ZM12.0673 13.526C13.3824 12.768 14.671 12.0279 15.9861 11.2744C14.6622 10.5119 13.3736 9.77623 12.0673 9.0227C12.0673 10.5342 12.0673 12.0101 12.0673 13.526Z" fill="white"/>
</g>
</svg>
