<svg width="87" height="23" viewBox="0 0 87 23" fill="none" xmlns="http://www.w3.org/2000/svg">
<mask id="mask0" mask-type="alpha" maskUnits="userSpaceOnUse" x="0" y="0" width="87" height="23">
<path d="M82.3 0H3.79999C1.69999 0 0 1.7 0 3.8V19.2C0 21.3 1.69999 23 3.79999 23H82.3C84.4 23 86.1 21.3 86.1 19.2V3.8C86.1 1.7 84.4 0 82.3 0Z" fill="#4367AF"/>
</mask>
<g mask="url(#mask0)">
<rect width="86" height="23" fill="#0274B3"/>
<rect width="86" height="23" fill="#E36021"/>
<rect width="86" height="23" fill="#ED2326"/>
<path d="M28.6 16L25.4 7.10001H27.3L29.5 13.7L31.7 7.10001H33.6L30.4 16H28.6Z" fill="white"/>
<path d="M34.3 8.70001V7.10001H36V8.70001H34.3ZM34.3 16V9.60001H36V16H34.3Z" fill="white"/>
<path d="M37.2 14.2L38.9 13.9C39 14.2 39.1 14.5 39.3 14.7C39.5 14.9 39.8 15 40.2 15C40.6 15 41 14.9 41.2 14.8C41.3 14.7 41.4 14.5 41.4 14.3C41.4 14.2 41.4 14.1 41.3 14C41.2 13.9 41 13.8 40.7 13.8C39.3 13.5 38.5 13.2 38.1 13C37.6 12.7 37.3 12.2 37.3 11.6C37.3 11 37.5 10.6 38 10.2C38.4 9.80001 39.1 9.60001 40 9.60001C40.9 9.60001 41.5 9.7 42 10C42.4 10.3 42.7 10.7 42.9 11.3L41.3 11.6C41.2 11.3 41.1 11.2 40.9 11C40.7 10.9 40.4 10.8 40.1 10.8C39.7 10.8 39.3 10.9 39.1 11C39 11.1 38.9 11.2 38.9 11.3C38.9 11.4 39 11.5 39.1 11.6C39.3 11.7 39.8 11.9 40.7 12.1C41.6 12.3 42.2 12.6 42.6 12.9C43 13.2 43.1 13.6 43.1 14.2C43.1 14.8 42.9 15.3 42.4 15.7C41.9 16.1 41.2 16.3 40.2 16.3C39.3 16.3 38.6 16.1 38.1 15.8C37.7 15.2 37.3 14.8 37.2 14.2Z" fill="white"/>
<path d="M44.6 8.8L45.4 7H47.3L45.6 8.8H44.6ZM44.7 16V9.60001H46.4V16H44.7Z" fill="white"/>
<path d="M51.1 9.60001V11H49.9V13.6C49.9 14.1 49.9 14.4 49.9 14.5C49.9 14.6 50 14.7 50.1 14.7C50.2 14.8 50.3 14.8 50.4 14.8C50.6 14.8 50.8 14.7 51.1 14.6L51.2 15.9C50.8 16.1 50.4 16.2 49.9 16.2C49.6 16.2 49.3 16.1 49.1 16C48.9 15.9 48.7 15.8 48.6 15.6C48.5 15.4 48.4 15.2 48.4 14.9C48.4 14.7 48.3 14.3 48.3 13.7V10.9H47.5V9.60001H48.3V8.3L50 7.3V9.60001H51.1Z" fill="white"/>
<path d="M53.5 11.5L52 11.2C52.2 10.6 52.5 10.1 52.9 9.8C53.3 9.5 54 9.40001 54.8 9.40001C55.6 9.40001 56.1 9.50001 56.5 9.70001C56.9 9.90001 57.1 10.1 57.3 10.4C57.5 10.7 57.5 11.2 57.5 11.9V13.9C57.5 14.5 57.5 14.9 57.6 15.2C57.7 15.5 57.8 15.8 57.9 16.1H56.2C56.2 16 56.1 15.8 56 15.6C56 15.5 56 15.4 55.9 15.4C55.6 15.7 55.3 15.9 55 16C54.7 16.1 54.3 16.2 53.9 16.2C53.2 16.2 52.7 16 52.3 15.7C51.9 15.3 51.7 14.9 51.7 14.3C51.7 13.9 51.8 13.6 52 13.3C52.2 13 52.4 12.8 52.7 12.6C53 12.4 53.5 12.3 54.1 12.2C54.9 12.1 55.4 11.9 55.8 11.8V11.6C55.8 11.3 55.7 11 55.6 10.9C55.5 10.8 55.1 10.7 54.7 10.7C54.4 10.7 54.2 10.8 54 10.9C53.8 11 53.6 11.2 53.5 11.5ZM55.8 12.9C55.6 13 55.2 13.1 54.8 13.2C54.3 13.3 54 13.4 53.9 13.5C53.7 13.7 53.6 13.9 53.6 14.1C53.6 14.3 53.7 14.5 53.9 14.7C54.1 14.9 54.3 15 54.6 15C54.9 15 55.2 14.9 55.5 14.7C55.7 14.5 55.8 14.4 55.9 14.1C55.9 14 56 13.7 56 13.3V12.9H55.8Z" fill="white"/>
<path d="M65 16H63.3V12.7C63.3 12 63.3 11.6 63.2 11.4C63.1 11.2 63 11 62.8 10.9C62.6 10.8 62.4 10.7 62.2 10.7C61.9 10.7 61.6 10.8 61.4 10.9C61.2 11.1 61 11.3 60.9 11.5C60.8 11.8 60.8 12.3 60.8 13V15.9H59.1V9.60001H60.7V10.5C61.3 9.8 62 9.40001 62.8 9.40001C63.2 9.40001 63.5 9.50001 63.8 9.60001C64.1 9.70001 64.3 9.90001 64.5 10.1C64.7 10.3 64.8 10.5 64.8 10.8C64.9 11.1 64.9 11.4 64.9 11.9V16H65Z" fill="white"/>
<path d="M66.3 12.7C66.3 12.1 66.4 11.6 66.7 11.1C67 10.6 67.4 10.2 67.9 9.90001C68.4 9.60001 69 9.5 69.6 9.5C70.6 9.5 71.4 9.80001 72 10.4C72.6 11 72.9 11.8 72.9 12.8C72.9 13.8 72.6 14.6 72 15.2C71.4 15.8 70.6 16.2 69.6 16.2C69 16.2 68.4 16.1 67.9 15.8C67.4 15.5 67 15.1 66.7 14.6C66.5 14 66.3 13.4 66.3 12.7ZM68.1 12.8C68.1 13.4 68.3 13.9 68.6 14.3C68.9 14.6 69.3 14.8 69.7 14.8C70.1 14.8 70.5 14.6 70.8 14.3C71.1 14 71.3 13.5 71.3 12.8C71.3 12.2 71.1 11.7 70.8 11.3C70.5 11 70.1 10.8 69.7 10.8C69.3 10.8 68.9 11 68.6 11.3C68.2 11.6 68.1 12.1 68.1 12.8Z" fill="white"/>
<path d="M73.7 14.2L75.4 13.9C75.5 14.2 75.6 14.5 75.8 14.7C76 14.9 76.3 15 76.7 15C77.1 15 77.5 14.9 77.7 14.8C77.9 14.7 77.9 14.5 77.9 14.3C77.9 14.2 77.9 14.1 77.8 14C77.7 13.9 77.5 13.8 77.2 13.8C75.8 13.5 75 13.2 74.6 13C74.1 12.7 73.8 12.2 73.8 11.6C73.8 11 74 10.6 74.5 10.2C74.9 9.80001 75.6 9.60001 76.5 9.60001C77.4 9.60001 78 9.7 78.5 10C78.9 10.3 79.2 10.7 79.4 11.3L77.8 11.6C77.7 11.3 77.6 11.2 77.4 11C77.2 10.9 76.9 10.8 76.6 10.8C76.2 10.8 75.8 10.9 75.6 11C75.5 11.1 75.4 11.2 75.4 11.3C75.4 11.4 75.5 11.5 75.6 11.6C75.8 11.7 76.3 11.9 77.2 12.1C78.1 12.3 78.7 12.6 79.1 12.9C79.5 13.2 79.6 13.6 79.6 14.2C79.6 14.8 79.4 15.3 78.9 15.7C78.4 16.1 77.7 16.3 76.7 16.3C75.8 16.3 75.1 16.1 74.6 15.8C74.2 15.2 73.9 14.8 73.7 14.2Z" fill="white"/>
<path d="M13.5986 16.5714C12.1202 16.5936 10.6419 16.5803 9.16791 16.4822C8.74426 16.4554 8.3206 16.4198 7.90136 16.3261C7.0364 16.1389 6.52449 15.5904 6.36562 14.7254C6.10525 13.3031 6.06994 11.8629 6.11849 10.4227C6.14938 9.57559 6.20233 8.73289 6.34797 7.8991C6.51566 6.94493 7.11143 6.25829 8.31619 6.14682C10.536 5.94172 12.7646 5.9105 14.9932 5.95063C15.9861 5.96847 16.979 5.99522 17.9676 6.05764C18.4662 6.08885 18.9693 6.11115 19.4503 6.24937C20.3285 6.50352 20.7522 7.15003 20.8802 8.03287C21.1229 9.74502 21.1538 11.4661 21.0258 13.1872C20.9817 13.7579 20.9375 14.3241 20.7963 14.8815C20.5933 15.6974 19.9887 16.2325 19.1679 16.3573C18.2059 16.5 17.235 16.5357 16.2685 16.5669C15.3771 16.5936 14.4857 16.5714 13.5986 16.5714ZM12.0673 13.526C13.3824 12.768 14.671 12.0279 15.9861 11.2744C14.6622 10.5119 13.3736 9.77623 12.0673 9.0227C12.0673 10.5342 12.0673 12.0101 12.0673 13.526Z" fill="#ED2326"/>
<path d="M13.5986 16.5714C12.1202 16.5936 10.6419 16.5803 9.16791 16.4822C8.74426 16.4554 8.3206 16.4198 7.90136 16.3261C7.0364 16.1389 6.52449 15.5904 6.36562 14.7254C6.10525 13.3031 6.06994 11.8629 6.11849 10.4227C6.14938 9.57559 6.20233 8.73289 6.34797 7.8991C6.51566 6.94493 7.11143 6.25829 8.31619 6.14682C10.536 5.94172 12.7646 5.9105 14.9932 5.95063C15.9861 5.96847 16.979 5.99522 17.9676 6.05764C18.4662 6.08885 18.9693 6.11115 19.4503 6.24937C20.3285 6.50352 20.7522 7.15003 20.8802 8.03287C21.1229 9.74502 21.1538 11.4661 21.0258 13.1872C20.9817 13.7579 20.9375 14.3241 20.7963 14.8815C20.5933 15.6974 19.9887 16.2325 19.1679 16.3573C18.2059 16.5 17.235 16.5357 16.2685 16.5669C15.3771 16.5936 14.4857 16.5714 13.5986 16.5714ZM12.0673 13.526C13.3824 12.768 14.671 12.0279 15.9861 11.2744C14.6622 10.5119 13.3736 9.77623 12.0673 9.0227C12.0673 10.5342 12.0673 12.0101 12.0673 13.526Z" fill="white"/>
</g>
</svg>
