<svg width="91" height="23" viewBox="0 0 91 23" fill="none" xmlns="http://www.w3.org/2000/svg">
<mask id="mask0" mask-type="alpha" maskUnits="userSpaceOnUse" x="0" y="0" width="91" height="23">
<path d="M86.3 0H3.79999C1.69999 0 0 1.69999 0 3.79999V19.2C0 21.3 1.69999 23 3.79999 23H86.3C88.4 23 90.1 21.3 90.1 19.2V3.79999C90.1 1.69999 88.4 0 86.3 0Z" fill="#4367AF"/>
</mask>
<g mask="url(#mask0)">
<rect width="91" height="23" fill="#0274B3"/>
<rect width="91" height="23" fill="#E36021"/>
<rect width="91" height="23" fill="#ED2326"/>
<path d="M28.6 15.9L25.4 7H27.3L29.5 13.6L31.7 7H33.6L30.4 15.9H28.6Z" fill="white"/>
<path d="M34.3 8.59998V7H36V8.59998H34.3ZM34.3 15.9V9.5H36V15.9H34.3Z" fill="white"/>
<path d="M37.2 14L38.9 13.7C39 14 39.1 14.3 39.3 14.5C39.5 14.7 39.8 14.8 40.2 14.8C40.6 14.8 41 14.7 41.2 14.6C41.3 14.5 41.4 14.3 41.4 14.1C41.4 14 41.4 13.9 41.3 13.8C41.2 13.7 41 13.6 40.7 13.6C39.3 13.3 38.5 13 38.1 12.8C37.6 12.5 37.3 12 37.3 11.4C37.3 10.8 37.5 10.4 38 10C38.4 9.6 39.1 9.39999 40 9.39999C40.9 9.39999 41.5 9.49999 42 9.79999C42.4 10.1 42.7 10.5 42.9 11.1L41.3 11.4C41.2 11.1 41.1 11 40.9 10.8C40.7 10.7 40.4 10.6 40.1 10.6C39.7 10.6 39.3 10.7 39.1 10.8C39 10.9 38.9 11 38.9 11.1C38.9 11.2 39 11.3 39.1 11.4C39.3 11.5 39.8 11.7 40.7 11.9C41.6 12.1 42.2 12.4 42.6 12.7C43 13 43.1 13.4 43.1 14C43.1 14.6 42.9 15.1 42.4 15.5C41.9 15.9 41.2 16.1 40.2 16.1C39.3 16.1 38.6 15.9 38.1 15.6C37.7 15.1 37.3 14.6 37.2 14Z" fill="white"/>
<path d="M44.7 8.59998V7H46.4V8.59998H44.7ZM44.7 15.9V9.5H46.4V15.9H44.7Z" fill="white"/>
<path d="M51.1 9.39999V10.8H49.9V13.4C49.9 13.9 49.9 14.2 49.9 14.3C49.9 14.4 50 14.5 50.1 14.5C50.2 14.6 50.3 14.6 50.4 14.6C50.6 14.6 50.8 14.5 51.1 14.4L51.2 15.7C50.8 15.9 50.4 16 49.9 16C49.6 16 49.3 15.9 49.1 15.8C48.9 15.7 48.7 15.6 48.6 15.4C48.5 15.2 48.4 15 48.4 14.7C48.4 14.5 48.3 14.1 48.3 13.5V10.8H47.5V9.39999H48.3V8.09998L50 7.09998V9.39999H51.1Z" fill="white"/>
<path d="M56 13.8L57.7 14.1C57.5 14.7 57.1 15.2 56.7 15.5C56.2 15.8 55.6 16 54.9 16C53.8 16 53 15.6 52.4 14.9C52 14.3 51.8 13.6 51.8 12.7C51.8 11.6 52.1 10.8 52.6 10.2C53.2 9.59998 53.9 9.29999 54.7 9.29999C55.7 9.29999 56.4 9.59998 57 10.2C57.6 10.8 57.8 11.8 57.8 13.1H53.5C53.5 13.6 53.6 14 53.9 14.3C54.2 14.6 54.5 14.7 54.9 14.7C55.2 14.7 55.4 14.6 55.6 14.5C55.8 14.4 55.9 14.1 56 13.8ZM56.1 12.1C56.1 11.6 56 11.2 55.7 11C55.5 10.7 55.2 10.6 54.8 10.6C54.4 10.6 54.1 10.7 53.9 11C53.7 11.3 53.5 11.6 53.5 12.1H56.1Z" fill="white"/>
<path d="M59 13.5V11.8H62.3V13.5H59Z" fill="white"/>
<path d="M69.1 15.9H67.4V12.6C67.4 11.9 67.4 11.5 67.3 11.3C67.2 11.1 67.1 10.9 66.9 10.8C66.7 10.7 66.5 10.6 66.3 10.6C66 10.6 65.7 10.7 65.5 10.8C65.3 11 65.1 11.2 65 11.4C64.9 11.7 64.9 12.2 64.9 12.9V15.8H63.2V9.39999H64.8V10.3C65.4 9.59999 66.1 9.19998 66.9 9.19998C67.3 9.19998 67.6 9.29999 67.9 9.39999C68.2 9.49999 68.4 9.69999 68.6 9.89999C68.8 10.1 68.9 10.3 68.9 10.6C69 10.9 69 11.2 69 11.7V15.9H69.1Z" fill="white"/>
<path d="M70.5 12.6C70.5 12 70.6 11.5 70.9 11C71.2 10.5 71.6 10.1 72.1 9.79999C72.6 9.49999 73.2 9.39999 73.8 9.39999C74.8 9.39999 75.6 9.69999 76.2 10.3C76.8 10.9 77.1 11.7 77.1 12.7C77.1 13.7 76.8 14.5 76.2 15.1C75.6 15.7 74.8 16.1 73.8 16.1C73.2 16.1 72.6 16 72.1 15.7C71.6 15.4 71.2 15 70.9 14.5C70.6 13.9 70.5 13.3 70.5 12.6ZM72.2 12.7C72.2 13.3 72.4 13.8 72.7 14.2C73 14.5 73.4 14.7 73.8 14.7C74.2 14.7 74.6 14.5 74.9 14.2C75.2 13.9 75.4 13.4 75.4 12.7C75.4 12.1 75.2 11.6 74.9 11.2C74.6 10.9 74.2 10.7 73.8 10.7C73.4 10.7 73 10.9 72.7 11.2C72.4 11.5 72.2 12 72.2 12.7Z" fill="white"/>
<path d="M77.8 14L79.5 13.7C79.6 14 79.7 14.3 79.9 14.5C80.1 14.7 80.4 14.8 80.8 14.8C81.2 14.8 81.6 14.7 81.8 14.6C81.9 14.5 82 14.3 82 14.1C82 14 82 13.9 81.9 13.8C81.8 13.7 81.6 13.6 81.3 13.6C79.9 13.3 79.1 13 78.7 12.8C78.2 12.5 77.9 12 77.9 11.4C77.9 10.8 78.1 10.4 78.6 10C79 9.6 79.7 9.39999 80.6 9.39999C81.5 9.39999 82.1 9.49999 82.6 9.79999C83 10.1 83.3 10.5 83.5 11.1L81.9 11.4C81.8 11.1 81.7 11 81.5 10.8C81.3 10.7 81 10.6 80.7 10.6C80.3 10.6 79.9 10.7 79.7 10.8C79.6 10.9 79.5 11 79.5 11.1C79.5 11.2 79.6 11.3 79.7 11.4C79.9 11.5 80.4 11.7 81.3 11.9C82.2 12.1 82.8 12.4 83.2 12.7C83.6 13 83.7 13.4 83.7 14C83.7 14.6 83.5 15.1 83 15.5C82.5 15.9 81.8 16.1 80.8 16.1C79.9 16.1 79.2 15.9 78.7 15.6C78.3 15.1 78 14.6 77.8 14Z" fill="white"/>
<path d="M13.5986 16.5714C12.1202 16.5936 10.6419 16.5803 9.16791 16.4822C8.74426 16.4554 8.3206 16.4198 7.90136 16.3261C7.0364 16.1389 6.52449 15.5904 6.36562 14.7254C6.10525 13.3031 6.06994 11.8629 6.11849 10.4227C6.14938 9.57559 6.20233 8.73289 6.34797 7.8991C6.51566 6.94493 7.11143 6.25829 8.31619 6.14682C10.536 5.94172 12.7646 5.9105 14.9932 5.95063C15.9861 5.96847 16.979 5.99522 17.9676 6.05764C18.4662 6.08885 18.9693 6.11115 19.4503 6.24937C20.3285 6.50352 20.7522 7.15003 20.8802 8.03287C21.1229 9.74502 21.1538 11.4661 21.0258 13.1872C20.9817 13.7579 20.9375 14.3241 20.7963 14.8815C20.5933 15.6974 19.9887 16.2325 19.1679 16.3573C18.2059 16.5 17.235 16.5357 16.2685 16.5669C15.3771 16.5936 14.4857 16.5714 13.5986 16.5714ZM12.0673 13.526C13.3824 12.768 14.671 12.0279 15.9861 11.2744C14.6622 10.5119 13.3736 9.77623 12.0673 9.0227C12.0673 10.5342 12.0673 12.0101 12.0673 13.526Z" fill="#ED2326"/>
<path d="M13.5986 16.5714C12.1202 16.5936 10.6419 16.5803 9.16791 16.4822C8.74426 16.4554 8.3206 16.4198 7.90136 16.3261C7.0364 16.1389 6.52449 15.5904 6.36562 14.7254C6.10525 13.3031 6.06994 11.8629 6.11849 10.4227C6.14938 9.57559 6.20233 8.73289 6.34797 7.8991C6.51566 6.94493 7.11143 6.25829 8.31619 6.14682C10.536 5.94172 12.7646 5.9105 14.9932 5.95063C15.9861 5.96847 16.979 5.99522 17.9676 6.05764C18.4662 6.08885 18.9693 6.11115 19.4503 6.24937C20.3285 6.50352 20.7522 7.15003 20.8802 8.03287C21.1229 9.74502 21.1538 11.4661 21.0258 13.1872C20.9817 13.7579 20.9375 14.3241 20.7963 14.8815C20.5933 15.6974 19.9887 16.2325 19.1679 16.3573C18.2059 16.5 17.235 16.5357 16.2685 16.5669C15.3771 16.5936 14.4857 16.5714 13.5986 16.5714ZM12.0673 13.526C13.3824 12.768 14.671 12.0279 15.9861 11.2744C14.6622 10.5119 13.3736 9.77623 12.0673 9.0227C12.0673 10.5342 12.0673 12.0101 12.0673 13.526Z" fill="white"/>
</g>
</svg>
