<svg width="84" height="23" viewBox="0 0 84 23" fill="none" xmlns="http://www.w3.org/2000/svg">
<mask id="mask0" mask-type="alpha" maskUnits="userSpaceOnUse" x="0" y="0" width="84" height="23">
<path d="M79.3 0H3.8C1.7 0 0 1.69999 0 3.79999V19.2C0 21.3 1.7 23 3.8 23H79.3C81.4 23 83.1 21.3 83.1 19.2V3.79999C83.1 1.69999 81.4 0 79.3 0Z" fill="#4367AF"/>
</mask>
<g mask="url(#mask0)">
<rect x="-1" width="84" height="23" fill="#0274B3"/>
<rect x="-1" width="84" height="23" fill="#E36021"/>
<rect x="-1" width="84" height="23" fill="#ED2326"/>
<path d="M29.1 16.1L25.9 7.10001H27.9L30.2 13.7L32.4 7.10001H34.3L31.1 16.1H29.1Z" fill="white"/>
<path d="M34.9 8.70001V7.10001H36.6V8.70001H34.9ZM34.9 16.1V9.60001H36.6V16.1H34.9Z" fill="white"/>
<path d="M37.8 14.2L39.5 13.9C39.6 14.2 39.7 14.5 39.9 14.7C40.1 14.9 40.4 15 40.8 15C41.2 15 41.6 14.9 41.8 14.8C42 14.7 42 14.5 42 14.3C42 14.2 42 14.1 41.9 14C41.8 13.9 41.6 13.8 41.3 13.8C39.9 13.5 39 13.2 38.7 13C38.2 12.6 37.9 12.2 37.9 11.5C37.9 10.9 38.1 10.5 38.6 10.1C39 9.70001 39.7 9.5 40.7 9.5C41.6 9.5 42.2 9.59999 42.7 9.89999C43.1 10.2 43.4 10.6 43.6 11.2L42 11.5C41.9 11.2 41.8 11.1 41.6 10.9C41.4 10.8 41.1 10.7 40.8 10.7C40.3 10.7 40 10.8 39.8 10.9C39.7 11 39.6 11.1 39.6 11.2C39.6 11.3 39.7 11.4 39.8 11.5C40 11.6 40.5 11.8 41.4 12C42.3 12.2 43 12.5 43.3 12.8C43.7 13.1 43.8 13.5 43.8 14.1C43.8 14.7 43.6 15.2 43.1 15.6C42.6 16 41.9 16.2 40.9 16.2C40 16.2 39.3 16 38.8 15.7C38.3 15.4 38 14.8 37.8 14.2Z" fill="white"/>
<path d="M45.2 8.79999L46 7H47.9L46.2 8.79999H45.2ZM45.4 16.1V9.60001H47.1V16.1H45.4Z" fill="white"/>
<path d="M51.8 9.60001V11H50.6V13.6C50.6 14.1 50.6 14.4 50.6 14.5C50.6 14.6 50.7 14.7 50.8 14.7C50.9 14.8 51 14.8 51.1 14.8C51.3 14.8 51.5 14.7 51.8 14.6L51.9 15.9C51.5 16.1 51 16.2 50.5 16.2C50.2 16.2 49.9 16.1 49.7 16C49.5 15.9 49.3 15.8 49.2 15.6C49.1 15.4 49 15.2 49 14.9C49 14.7 48.9 14.3 48.9 13.7V10.9H48.1V9.5H48.9V8.20001L50.6 7.20001V9.5H51.8V9.60001Z" fill="white"/>
<path d="M54.3 11.6L52.7 11.3C52.9 10.7 53.2 10.2 53.6 9.89999C54 9.59999 54.7 9.39999 55.5 9.39999C56.3 9.39999 56.8 9.50001 57.2 9.70001C57.6 9.90001 57.8 10.1 58 10.4C58.2 10.7 58.2 11.2 58.2 11.9V13.9C58.2 14.5 58.2 14.9 58.3 15.2C58.4 15.5 58.5 15.8 58.6 16.1H56.9C56.9 16 56.8 15.8 56.7 15.6C56.7 15.5 56.7 15.4 56.6 15.4C56.3 15.7 56 15.9 55.7 16C55.4 16.1 55 16.2 54.6 16.2C53.9 16.2 53.4 16 53 15.7C52.6 15.4 52.4 14.9 52.4 14.3C52.4 13.9 52.5 13.6 52.7 13.3C52.9 13 53.1 12.8 53.4 12.6C53.7 12.4 54.2 12.3 54.8 12.2C55.6 12 56.2 11.9 56.5 11.8V11.6C56.5 11.3 56.4 11 56.3 10.9C56.1 10.8 55.8 10.7 55.4 10.7C55.1 10.7 54.9 10.8 54.7 10.9C54.6 11 54.4 11.3 54.3 11.6ZM56.6 13C56.4 13.1 56 13.2 55.6 13.3C55.1 13.4 54.8 13.5 54.7 13.6C54.5 13.8 54.4 14 54.4 14.2C54.4 14.4 54.5 14.6 54.7 14.8C54.9 15 55.1 15.1 55.4 15.1C55.7 15.1 56 15 56.3 14.8C56.5 14.6 56.6 14.5 56.7 14.2C56.7 14.1 56.8 13.8 56.8 13.4V13H56.6Z" fill="white"/>
<path d="M59.9 9.60001H61.5V10.5C62.1 9.8 62.7 9.5 63.5 9.5C63.9 9.5 64.3 9.59999 64.6 9.79999C64.9 9.99999 65.2 10.2 65.4 10.6C65.7 10.3 66 9.99999 66.3 9.79999C66.6 9.59999 67 9.5 67.4 9.5C67.9 9.5 68.3 9.59999 68.6 9.79999C68.9 9.99999 69.2 10.3 69.3 10.7C69.4 11 69.5 11.4 69.5 12V16.2H67.8V12.5C67.8 11.9 67.7 11.4 67.6 11.3C67.4 11.1 67.2 10.9 66.9 10.9C66.7 10.9 66.4 11 66.2 11.1C66 11.2 65.8 11.5 65.7 11.7C65.6 12 65.6 12.4 65.6 13V16.1H63.9V12.5C63.9 11.9 63.9 11.5 63.8 11.3C63.7 11.1 63.6 11 63.5 10.9C63.4 10.8 63.2 10.8 63 10.8C62.7 10.8 62.5 10.9 62.3 11C62.1 11.1 61.9 11.3 61.8 11.6C61.7 11.9 61.7 12.3 61.7 12.9V16.1H60V9.60001H59.9Z" fill="white"/>
<path d="M74.9 14L76.6 14.3C76.4 14.9 76 15.4 75.6 15.7C75.2 16 74.5 16.2 73.8 16.2C72.7 16.2 71.8 15.8 71.3 15.1C70.9 14.5 70.7 13.8 70.7 12.9C70.7 11.8 71 11 71.5 10.4C72.1 9.79999 72.8 9.5 73.6 9.5C74.6 9.5 75.3 9.8 75.9 10.5C76.5 11.1 76.7 12.1 76.7 13.4H72.4C72.4 13.9 72.6 14.3 72.8 14.6C73.1 14.9 73.4 15 73.8 15C74.1 15 74.3 14.9 74.5 14.8C74.7 14.6 74.8 14.3 74.9 14ZM75 12.3C75 11.8 74.9 11.4 74.6 11.2C74.4 10.9 74.1 10.8 73.7 10.8C73.3 10.8 73 10.9 72.8 11.2C72.6 11.5 72.4 11.8 72.4 12.3H75Z" fill="white"/>
<path d="M13.5986 16.5714C12.1202 16.5936 10.6419 16.5803 9.16791 16.4822C8.74426 16.4554 8.3206 16.4198 7.90136 16.3261C7.0364 16.1389 6.52449 15.5904 6.36562 14.7254C6.10525 13.3031 6.06994 11.8629 6.11849 10.4227C6.14938 9.57559 6.20233 8.73289 6.34797 7.8991C6.51566 6.94493 7.11143 6.25829 8.31619 6.14682C10.536 5.94172 12.7646 5.9105 14.9932 5.95063C15.9861 5.96847 16.979 5.99522 17.9676 6.05764C18.4662 6.08885 18.9693 6.11115 19.4503 6.24937C20.3285 6.50352 20.7522 7.15003 20.8802 8.03287C21.1229 9.74502 21.1538 11.4661 21.0258 13.1872C20.9817 13.7579 20.9375 14.3241 20.7963 14.8815C20.5933 15.6974 19.9887 16.2325 19.1679 16.3573C18.2059 16.5 17.235 16.5357 16.2685 16.5669C15.3771 16.5936 14.4857 16.5714 13.5986 16.5714ZM12.0673 13.526C13.3824 12.768 14.671 12.0279 15.9861 11.2744C14.6622 10.5119 13.3736 9.77623 12.0673 9.0227C12.0673 10.5342 12.0673 12.0101 12.0673 13.526Z" fill="#ED2326"/>
<path d="M13.5986 16.5714C12.1202 16.5936 10.6419 16.5803 9.16791 16.4822C8.74426 16.4554 8.3206 16.4198 7.90136 16.3261C7.0364 16.1389 6.52449 15.5904 6.36562 14.7254C6.10525 13.3031 6.06994 11.8629 6.11849 10.4227C6.14938 9.57559 6.20233 8.73289 6.34797 7.8991C6.51566 6.94493 7.11143 6.25829 8.31619 6.14682C10.536 5.94172 12.7646 5.9105 14.9932 5.95063C15.9861 5.96847 16.979 5.99522 17.9676 6.05764C18.4662 6.08885 18.9693 6.11115 19.4503 6.24937C20.3285 6.50352 20.7522 7.15003 20.8802 8.03287C21.1229 9.74502 21.1538 11.4661 21.0258 13.1872C20.9817 13.7579 20.9375 14.3241 20.7963 14.8815C20.5933 15.6974 19.9887 16.2325 19.1679 16.3573C18.2059 16.5 17.235 16.5357 16.2685 16.5669C15.3771 16.5936 14.4857 16.5714 13.5986 16.5714ZM12.0673 13.526C13.3824 12.768 14.671 12.0279 15.9861 11.2744C14.6622 10.5119 13.3736 9.77623 12.0673 9.0227C12.0673 10.5342 12.0673 12.0101 12.0673 13.526Z" fill="white"/>
</g>
</svg>
