<svg width="108" height="23" viewBox="0 0 108 23" fill="none" xmlns="http://www.w3.org/2000/svg">
<mask id="mask0" mask-type="alpha" maskUnits="userSpaceOnUse" x="0" y="0" width="108" height="23">
<path d="M103.3 0H3.8C1.7 0 0 1.69999 0 3.79999V19.2C0 21.3 1.7 23 3.8 23H103.3C105.4 23 107.1 21.3 107.1 19.2V3.79999C107.1 1.69999 105.4 0 103.3 0Z" fill="#4367AF"/>
</mask>
<g mask="url(#mask0)">
<rect x="-1" width="108" height="23" fill="#0274B3"/>
<rect x="-1" width="108" height="23" fill="#E36021"/>
<rect x="-1" width="108" height="23" fill="#ED2326"/>
<path d="M30.5 12.8V11.3H34.4V14.9C34 15.3 33.5 15.6 32.8 15.9C32.1 16.2 31.3 16.3 30.6 16.3C29.7 16.3 28.8 16.1 28.1 15.7C27.4 15.3 26.9 14.7 26.5 14C26.1 13.3 26 12.5 26 11.6C26 10.7 26.2 9.80001 26.6 9.10001C27 8.40001 27.6 7.79999 28.3 7.39999C28.9 7.09999 29.6 7 30.4 7C31.5 7 32.4 7.20001 33 7.70001C33.6 8.20001 34 8.80001 34.2 9.60001L32.4 9.89999C32.3 9.49999 32 9.09999 31.7 8.89999C31.4 8.69999 30.9 8.5 30.4 8.5C29.6 8.5 29 8.80002 28.5 9.30002C28 9.80002 27.8 10.5 27.8 11.5C27.8 12.6 28 13.4 28.5 13.9C29 14.4 29.6 14.7 30.4 14.7C30.8 14.7 31.2 14.6 31.5 14.5C31.9 14.4 32.2 14.2 32.5 14V12.9H30.5V12.8Z" fill="white"/>
<path d="M37.7 7.10001V10.4C38.3 9.79999 38.9 9.39999 39.7 9.39999C40.1 9.39999 40.5 9.50001 40.8 9.60001C41.1 9.70001 41.4 9.90001 41.5 10.2C41.6 10.5 41.8 10.7 41.8 11C41.9 11.3 41.9 11.7 41.9 12.3V16.1H40.2V12.7C40.2 12 40.2 11.6 40.1 11.4C40 11.2 39.9 11.1 39.8 11C39.6 10.9 39.4 10.8 39.2 10.8C38.9 10.8 38.7 10.9 38.4 11C38.2 11.1 38 11.3 37.9 11.6C37.8 11.9 37.7 12.3 37.7 12.8V16.1H36V7.10001H37.7Z" fill="white"/>
<path d="M47.5 14L49.2 14.3C49 14.9 48.6 15.4 48.2 15.7C47.8 16 47.1 16.2 46.4 16.2C45.3 16.2 44.4 15.8 43.9 15.1C43.5 14.5 43.3 13.8 43.3 12.9C43.3 11.8 43.6 11 44.1 10.4C44.7 9.79999 45.4 9.5 46.2 9.5C47.2 9.5 47.9 9.8 48.5 10.5C49.1 11.1 49.3 12.1 49.3 13.4H45C45 13.9 45.2 14.3 45.4 14.6C45.7 14.9 46 15 46.4 15C46.7 15 46.9 14.9 47.1 14.8C47.2 14.6 47.4 14.3 47.5 14ZM47.5 12.3C47.5 11.8 47.4 11.4 47.1 11.2C46.9 10.9 46.6 10.8 46.2 10.8C45.8 10.8 45.5 10.9 45.3 11.2C45.1 11.5 44.9 11.8 44.9 12.3H47.5ZM45.4 8.80002L46.2 7H48.1L46.4 8.80002H45.4Z" fill="white"/>
<path d="M57.1 9.60001V11H55.9V13.6C55.9 14.1 55.9 14.4 55.9 14.5C55.9 14.6 56 14.7 56.1 14.7C56.2 14.8 56.3 14.8 56.4 14.8C56.6 14.8 56.8 14.7 57.1 14.6L57.2 15.9C56.8 16.1 56.3 16.2 55.8 16.2C55.5 16.2 55.2 16.1 55 16C54.8 15.9 54.6 15.8 54.5 15.6C54.4 15.4 54.3 15.2 54.3 14.9C54.3 14.7 54.2 14.3 54.2 13.7V10.9H53.4V9.60001H54.2V8.30002L55.9 7.30002V9.60001H57.1Z" fill="white"/>
<path d="M60 7.10001V10.4C60.6 9.79999 61.2 9.39999 62 9.39999C62.4 9.39999 62.8 9.50001 63.1 9.60001C63.4 9.70001 63.7 9.90001 63.8 10.2C63.9 10.5 64.1 10.7 64.1 11C64.2 11.3 64.2 11.7 64.2 12.3V16.1H62.5V12.7C62.5 12 62.5 11.6 62.4 11.4C62.3 11.2 62.2 11.1 62.1 11C61.9 10.9 61.7 10.8 61.5 10.8C61.2 10.8 61 10.9 60.7 11C60.5 11.1 60.3 11.3 60.2 11.6C60.1 11.9 60 12.3 60 12.8V16.1H58.3V7.10001H60Z" fill="white"/>
<path d="M67.3 11.6L65.7 11.3C65.9 10.7 66.2 10.2 66.6 9.89999C67 9.59999 67.7 9.39999 68.5 9.39999C69.3 9.39999 69.8 9.50001 70.2 9.70001C70.6 9.90001 70.8 10.1 71 10.4C71.2 10.7 71.2 11.2 71.2 11.9V13.9C71.2 14.5 71.2 14.9 71.3 15.2C71.4 15.5 71.5 15.8 71.6 16.1H69.9C69.9 16 69.8 15.8 69.7 15.6C69.7 15.5 69.7 15.4 69.6 15.4C69.3 15.7 69 15.9 68.7 16C68.4 16.1 68 16.2 67.6 16.2C66.9 16.2 66.4 16 66 15.7C65.6 15.4 65.4 14.9 65.4 14.3C65.4 13.9 65.5 13.6 65.7 13.3C65.9 13 66.1 12.8 66.4 12.6C66.7 12.4 67.2 12.3 67.8 12.2C68.6 12 69.2 11.9 69.5 11.8V11.6C69.5 11.3 69.4 11 69.3 10.9C69.1 10.8 68.8 10.7 68.4 10.7C68.1 10.7 67.9 10.8 67.7 10.9C67.5 11.1 67.4 11.3 67.3 11.6ZM69.6 7H70.4C70.4 7.6 70.2 8.00002 69.8 8.30002C69.5 8.60002 69 8.80002 68.5 8.80002C68 8.80002 67.5 8.60002 67.2 8.30002C66.9 8.00002 66.7 7.5 66.6 7H67.4C67.4 7.3 67.5 7.50001 67.7 7.70001C67.9 7.80001 68.1 7.89999 68.5 7.89999C68.8 7.89999 69.1 7.80001 69.3 7.70001C69.5 7.50001 69.6 7.3 69.6 7ZM69.6 13C69.4 13.1 69 13.2 68.6 13.3C68.1 13.4 67.8 13.5 67.7 13.6C67.5 13.8 67.4 14 67.4 14.2C67.4 14.4 67.5 14.6 67.7 14.8C67.9 15 68.1 15.1 68.4 15.1C68.7 15.1 69 15 69.3 14.8C69.5 14.6 69.6 14.5 69.7 14.2C69.7 14.1 69.8 13.8 69.8 13.4V13H69.6Z" fill="white"/>
<path d="M72.8 9.60001H74.4V10.5C75 9.8 75.6 9.5 76.4 9.5C76.8 9.5 77.2 9.60002 77.5 9.80002C77.8 10 78.1 10.2 78.3 10.6C78.6 10.3 78.9 10 79.2 9.80002C79.5 9.60002 79.9 9.5 80.3 9.5C80.8 9.5 81.2 9.60002 81.5 9.80002C81.8 10 82.1 10.3 82.2 10.7C82.3 11 82.4 11.4 82.4 12V16.2H80.7V12.5C80.7 11.9 80.6 11.4 80.5 11.3C80.3 11.1 80.1 10.9 79.8 10.9C79.6 10.9 79.3 11 79.1 11.1C78.9 11.2 78.7 11.5 78.6 11.7C78.5 12 78.5 12.4 78.5 13V16.1H76.8V12.5C76.8 11.9 76.8 11.5 76.7 11.3C76.6 11.1 76.5 11 76.4 10.9C76.3 10.8 76.1 10.8 75.9 10.8C75.6 10.8 75.4 10.9 75.2 11C75 11.1 74.8 11.3 74.7 11.6C74.6 11.9 74.6 12.3 74.6 12.9V16.1H72.9V9.60001H72.8Z" fill="white"/>
<path d="M90.5 9.60001V11H89.3V13.6C89.3 14.1 89.3 14.4 89.3 14.5C89.3 14.6 89.4 14.7 89.5 14.7C89.6 14.8 89.7 14.8 89.8 14.8C90 14.8 90.2 14.7 90.5 14.6L90.6 15.9C90.2 16.1 89.7 16.2 89.2 16.2C88.9 16.2 88.6 16.1 88.4 16C88.2 15.9 88 15.8 87.9 15.6C87.8 15.4 87.7 15.2 87.7 14.9C87.7 14.7 87.6 14.3 87.6 13.7V10.9H86.8V9.60001H87.6V8.30002L89.3 7.30002V9.60001H90.5Z" fill="white"/>
<path d="M91.3 12.7C91.3 12.1 91.4 11.6 91.7 11C92 10.5 92.4 10.1 92.9 9.80002C93.4 9.50002 94 9.39999 94.6 9.39999C95.6 9.39999 96.4 9.69999 97 10.4C97.6 11 97.9 11.8 97.9 12.8C97.9 13.8 97.6 14.6 96.9 15.2C96.3 15.8 95.5 16.2 94.5 16.2C93.9 16.2 93.3 16.1 92.8 15.8C92.3 15.5 91.8 15.1 91.6 14.6C91.5 14.1 91.3 13.5 91.3 12.7ZM92.6 8.80002L93.9 7H95.5L96.8 8.80002H95.4L94.7 7.89999L94 8.80002H92.6ZM93.1 12.8C93.1 13.4 93.3 13.9 93.6 14.3C93.9 14.7 94.3 14.8 94.7 14.8C95.1 14.8 95.5 14.6 95.8 14.3C96.1 14 96.3 13.5 96.3 12.8C96.3 12.2 96.1 11.7 95.8 11.3C95.5 11 95.1 10.8 94.7 10.8C94.3 10.8 93.9 11 93.6 11.3C93.3 11.6 93.1 12.2 93.1 12.8Z" fill="white"/>
<path d="M99.4 8.70001V7.10001H101.1V8.70001H99.4ZM99.4 16.1V9.60001H101.1V16.1H99.4Z" fill="white"/>
<path d="M13.5986 16.5714C12.1202 16.5936 10.6419 16.5803 9.16791 16.4822C8.74426 16.4554 8.3206 16.4198 7.90136 16.3261C7.0364 16.1389 6.52449 15.5904 6.36562 14.7254C6.10525 13.3031 6.06994 11.8629 6.11849 10.4227C6.14938 9.57559 6.20233 8.73289 6.34797 7.8991C6.51566 6.94493 7.11143 6.25829 8.31619 6.14682C10.536 5.94172 12.7646 5.9105 14.9932 5.95063C15.9861 5.96847 16.979 5.99522 17.9676 6.05764C18.4662 6.08885 18.9693 6.11115 19.4503 6.24937C20.3285 6.50352 20.7522 7.15003 20.8802 8.03287C21.1229 9.74502 21.1538 11.4661 21.0258 13.1872C20.9817 13.7579 20.9375 14.3241 20.7963 14.8815C20.5933 15.6974 19.9887 16.2325 19.1679 16.3573C18.2059 16.5 17.235 16.5357 16.2685 16.5669C15.3771 16.5936 14.4857 16.5714 13.5986 16.5714ZM12.0673 13.526C13.3824 12.768 14.671 12.0279 15.9861 11.2744C14.6622 10.5119 13.3736 9.77623 12.0673 9.0227C12.0673 10.5342 12.0673 12.0101 12.0673 13.526Z" fill="#ED2326"/>
<path d="M13.5986 16.5714C12.1202 16.5936 10.6419 16.5803 9.16791 16.4822C8.74426 16.4554 8.3206 16.4198 7.90136 16.3261C7.0364 16.1389 6.52449 15.5904 6.36562 14.7254C6.10525 13.3031 6.06994 11.8629 6.11849 10.4227C6.14938 9.57559 6.20233 8.73289 6.34797 7.8991C6.51566 6.94493 7.11143 6.25829 8.31619 6.14682C10.536 5.94172 12.7646 5.9105 14.9932 5.95063C15.9861 5.96847 16.979 5.99522 17.9676 6.05764C18.4662 6.08885 18.9693 6.11115 19.4503 6.24937C20.3285 6.50352 20.7522 7.15003 20.8802 8.03287C21.1229 9.74502 21.1538 11.4661 21.0258 13.1872C20.9817 13.7579 20.9375 14.3241 20.7963 14.8815C20.5933 15.6974 19.9887 16.2325 19.1679 16.3573C18.2059 16.5 17.235 16.5357 16.2685 16.5669C15.3771 16.5936 14.4857 16.5714 13.5986 16.5714ZM12.0673 13.526C13.3824 12.768 14.671 12.0279 15.9861 11.2744C14.6622 10.5119 13.3736 9.77623 12.0673 9.0227C12.0673 10.5342 12.0673 12.0101 12.0673 13.526Z" fill="white"/>
</g>
</svg>
