<svg width="148" height="23" viewBox="0 0 148 23" fill="none" xmlns="http://www.w3.org/2000/svg">
<mask id="mask0" mask-type="alpha" maskUnits="userSpaceOnUse" x="0" y="0" width="148" height="23">
<path d="M143.3 0H3.79999C1.69999 0 0 1.69999 0 3.79999V19.2C0 21.3 1.69999 23 3.79999 23H143.3C145.4 23 147.1 21.3 147.1 19.2V3.79999C147.1 1.69999 145.4 0 143.3 0Z" fill="#4367AF"/>
</mask>
<g mask="url(#mask0)">
<rect width="147" height="23" fill="#0274B3"/>
<rect width="147" height="23" fill="#E36021"/>
<rect width="147" height="23" fill="#ED2326"/>
<path d="M30.4 12.9V11.4H34.3V14.9C33.9 15.3 33.4 15.6 32.7 15.9C32 16.2 31.3 16.3 30.5 16.3C29.6 16.3 28.8 16.1 28.1 15.7C27.4 15.3 26.9 14.8 26.5 14C26.2 13.3 26 12.5 26 11.6C26 10.7 26.2 9.90001 26.6 9.10001C27 8.40001 27.6 7.80001 28.3 7.40001C28.9 7.10001 29.6 7 30.4 7C31.5 7 32.4 7.2 33 7.7C33.6 8.2 34 8.80001 34.2 9.60001L32.4 9.90001C32.3 9.50001 32 9.10001 31.7 8.90001C31.4 8.60001 30.9 8.5 30.4 8.5C29.6 8.5 29 8.7 28.5 9.2C28 9.7 27.8 10.4 27.8 11.4C27.8 12.5 28 13.2 28.5 13.8C29 14.3 29.6 14.6 30.3 14.6C30.7 14.6 31.1 14.5 31.4 14.4C31.8 14.3 32.1 14.1 32.4 13.9V12.8H30.4V12.9Z" fill="white"/>
<path d="M37.6 7.29999V10.6C38.1 9.99999 38.8 9.59999 39.6 9.59999C40 9.59999 40.3 9.69999 40.7 9.79999C41 9.89999 41.3 10.1 41.4 10.4C41.6 10.6 41.7 10.9 41.7 11.2C41.8 11.5 41.8 11.9 41.8 12.5V16.3H40.1V12.9C40.1 12.2 40.1 11.8 40 11.6C39.9 11.4 39.8 11.3 39.7 11.2C39.5 11.1 39.3 11 39.1 11C38.8 11 38.6 11.1 38.3 11.2C38.1 11.3 37.9 11.5 37.8 11.8C37.7 12.1 37.6 12.5 37.6 13V16.2H35.9V7.29999H37.6Z" fill="white"/>
<path d="M47.2 14.1L48.9 14.4C48.7 15 48.3 15.5 47.9 15.8C47.4 16.1 46.8 16.3 46.1 16.3C45 16.3 44.2 15.9 43.6 15.2C43.2 14.6 43 13.9 43 13C43 11.9 43.3 11.1 43.8 10.5C44.4 9.9 45.1 9.60001 45.9 9.60001C46.9 9.60001 47.6 9.9 48.2 10.5C48.8 11.1 49 12.1 49 13.4H44.7C44.7 13.9 44.8 14.3 45.1 14.6C45.4 14.9 45.7 15 46.1 15C46.4 15 46.6 14.9 46.8 14.8C47 14.6 47.1 14.4 47.2 14.1ZM47.3 12.4C47.3 11.9 47.2 11.5 46.9 11.3C46.7 11 46.4 10.9 46 10.9C45.6 10.9 45.3 11 45.1 11.3C44.9 11.6 44.7 11.9 44.7 12.4H47.3ZM45.2 8.90001L46 7.10001H47.9L46.2 8.90001H45.2Z" fill="white"/>
<path d="M56.8 9.69998V11.1H55.6V13.7C55.6 14.2 55.6 14.5 55.6 14.6C55.6 14.7 55.7 14.8 55.8 14.8C55.9 14.9 56 14.9 56.1 14.9C56.3 14.9 56.5 14.8 56.8 14.7L56.9 16C56.5 16.2 56.1 16.3 55.6 16.3C55.3 16.3 55 16.2 54.8 16.1C54.6 16 54.4 15.9 54.3 15.7C54.2 15.5 54.1 15.3 54.1 15C54.1 14.8 54 14.4 54 13.8V11H53.2V9.59999H54V8.29999L55.7 7.29999V9.59999H56.8V9.69998Z" fill="white"/>
<path d="M59.7 7.29999V10.6C60.2 9.99999 60.9 9.59999 61.7 9.59999C62.1 9.59999 62.4 9.69999 62.8 9.79999C63.1 9.89999 63.4 10.1 63.5 10.4C63.7 10.6 63.8 10.9 63.8 11.2C63.9 11.5 63.9 11.9 63.9 12.5V16.3H62.1V12.9C62.1 12.2 62.1 11.8 62 11.6C61.9 11.4 61.8 11.3 61.7 11.2C61.5 11.1 61.3 11 61.1 11C60.8 11 60.6 11.1 60.3 11.2C60.1 11.3 59.9 11.5 59.8 11.8C59.7 12.1 59.6 12.5 59.6 13V16.2H57.9V7.29999H59.7Z" fill="white"/>
<path d="M66.8 11.7L65.3 11.4C65.5 10.8 65.8 10.3 66.2 10C66.6 9.7 67.3 9.60001 68.1 9.60001C68.9 9.60001 69.4 9.70001 69.8 9.90001C70.2 10.1 70.4 10.3 70.6 10.6C70.8 10.9 70.8 11.4 70.8 12.1V14.1C70.8 14.7 70.8 15.1 70.9 15.4C71 15.7 71.1 16 71.2 16.3H69.5C69.5 16.2 69.4 16 69.3 15.8C69.3 15.7 69.3 15.6 69.2 15.6C68.9 15.9 68.6 16.1 68.3 16.2C68 16.3 67.6 16.4 67.2 16.4C66.5 16.4 66 16.2 65.6 15.9C65.2 15.5 65 15.1 65 14.5C65 14.1 65.1 13.8 65.3 13.5C65.5 13.2 65.7 13 66 12.8C66.3 12.6 66.8 12.5 67.4 12.4C68.2 12.3 68.7 12.1 69.1 12V11.8C69.1 11.5 69 11.2 68.9 11.1C68.7 11 68.4 10.9 68 10.9C67.7 10.9 67.5 11 67.3 11.1C67.1 11.2 66.9 11.4 66.8 11.7ZM69.2 7.10001H70C70 7.60001 69.8 8.10001 69.4 8.40001C69.1 8.70001 68.6 8.90001 68.1 8.90001C67.6 8.90001 67.1 8.70001 66.8 8.40001C66.5 8.10001 66.3 7.70001 66.2 7.10001H67C67 7.40001 67.1 7.6 67.3 7.8C67.5 7.9 67.7 8 68.1 8C68.4 8 68.7 7.9 68.9 7.8C69 7.6 69.1 7.40001 69.2 7.10001ZM69.1 13C68.9 13.1 68.5 13.2 68.1 13.3C67.6 13.4 67.3 13.5 67.2 13.6C67 13.8 66.9 14 66.9 14.2C66.9 14.4 67 14.6 67.2 14.8C67.4 15 67.6 15.1 67.9 15.1C68.2 15.1 68.5 15 68.8 14.8C69 14.6 69.1 14.5 69.2 14.2C69.2 14.1 69.3 13.8 69.3 13.4V13H69.1Z" fill="white"/>
<path d="M72.3 9.7H73.9V10.6C74.5 9.90001 75.1 9.60001 75.9 9.60001C76.3 9.60001 76.7 9.70001 77 9.90001C77.3 10.1 77.6 10.3 77.7 10.7C78 10.4 78.3 10.1 78.6 9.90001C78.9 9.70001 79.3 9.60001 79.6 9.60001C80.1 9.60001 80.5 9.70001 80.8 9.90001C81.1 10.1 81.4 10.4 81.5 10.7C81.6 11 81.7 11.4 81.7 12V16.1H80.1V12.4C80.1 11.8 80 11.3 79.9 11.2C79.7 11 79.5 10.8 79.2 10.8C79 10.8 78.7 10.9 78.5 11C78.3 11.1 78.1 11.4 78 11.6C77.9 11.9 77.9 12.3 77.9 12.9V16H76.2V12.5C76.2 11.9 76.2 11.5 76.1 11.3C76 11.1 75.9 11 75.8 10.9C75.7 10.8 75.5 10.8 75.3 10.8C75 10.8 74.8 10.9 74.6 11C74.4 11.1 74.2 11.3 74.1 11.6C74 11.9 74 12.3 74 12.9V16H72.3V9.7Z" fill="white"/>
<path d="M92.5 11.6L90.8 11.9C90.7 11.6 90.6 11.3 90.4 11.1C90.2 10.9 89.9 10.8 89.6 10.8C89.2 10.8 88.8 10.9 88.6 11.2C88.3 11.5 88.2 12 88.2 12.7C88.2 13.5 88.3 14 88.6 14.3C88.9 14.6 89.2 14.8 89.6 14.8C89.9 14.8 90.2 14.7 90.4 14.5C90.6 14.3 90.8 14 90.8 13.6L92.5 13.9C92.3 14.7 92 15.2 91.5 15.6C91 16 90.3 16.2 89.5 16.2C88.6 16.2 87.8 15.9 87.2 15.3C86.6 14.7 86.4 13.9 86.4 12.8C86.4 11.7 86.7 10.9 87.2 10.3C87.8 9.70002 88.5 9.40002 89.5 9.40002C90.3 9.40002 90.9 9.60002 91.4 9.90002C92 10.4 92.3 10.9 92.5 11.6Z" fill="white"/>
<path d="M95.5 7.29999V10.6C96 9.99999 96.7 9.59999 97.5 9.59999C97.9 9.59999 98.2 9.69999 98.6 9.79999C98.9 9.89999 99.2 10.1 99.3 10.4C99.5 10.6 99.6 10.9 99.6 11.2C99.7 11.5 99.7 11.9 99.7 12.5V16.3H98V12.9C98 12.2 98 11.8 97.9 11.6C97.8 11.4 97.7 11.3 97.6 11.2C97.4 11.1 97.2 11 97 11C96.7 11 96.5 11.1 96.2 11.2C96 11.3 95.8 11.5 95.7 11.8C95.6 12.1 95.5 12.5 95.5 13V16.2H93.8V7.29999H95.5Z" fill="white"/>
<path d="M105.7 16.1V15.1C105.5 15.4 105.2 15.7 104.8 15.9C104.4 16.1 104 16.2 103.6 16.2C103.2 16.2 102.8 16.1 102.4 15.9C102.1 15.7 101.8 15.4 101.7 15.1C101.5 14.8 101.5 14.3 101.5 13.7V9.60001H103.2V12.6C103.2 13.5 103.2 14.1 103.3 14.3C103.4 14.5 103.5 14.7 103.6 14.8C103.8 14.9 104 15 104.2 15C104.5 15 104.8 14.9 105 14.8C105.2 14.6 105.4 14.4 105.5 14.2C105.6 14 105.6 13.4 105.6 12.5V9.8H107.3V16.2H105.7V16.1ZM103.4 8.90001L104.2 7.10001H106.1L104.4 8.90001H103.4Z" fill="white"/>
<path d="M114.8 16.1H113.1V12.8C113.1 12.1 113.1 11.7 113 11.5C112.9 11.3 112.8 11.1 112.6 11C112.4 10.9 112.2 10.8 112 10.8C111.7 10.8 111.4 10.9 111.2 11C111 11.2 110.8 11.4 110.7 11.6C110.6 11.9 110.6 12.4 110.6 13.1V16H108.9V9.60002H110.5V10.5C111.1 9.80002 111.8 9.40002 112.6 9.40002C113 9.40002 113.3 9.50002 113.6 9.60002C113.9 9.70002 114.1 9.90002 114.3 10.1C114.5 10.3 114.6 10.5 114.6 10.8C114.7 11.1 114.7 11.4 114.7 11.9V16.1H114.8Z" fill="white"/>
<path d="M116.4 16.6L118.3 16.8C118.3 17 118.4 17.2 118.5 17.3C118.7 17.4 118.9 17.5 119.3 17.5C119.7 17.5 120.1 17.4 120.3 17.3C120.4 17.2 120.6 17.1 120.6 16.9C120.7 16.8 120.7 16.5 120.7 16.1V15.2C120.2 15.9 119.5 16.2 118.8 16.2C117.9 16.2 117.3 15.8 116.7 15.1C116.3 14.5 116.1 13.8 116.1 12.9C116.1 11.8 116.4 11 116.9 10.4C117.4 9.80001 118.1 9.5 118.8 9.5C119.6 9.5 120.3 9.8 120.8 10.5V9.60001H122.4V15.4C122.4 16.2 122.3 16.7 122.2 17.1C122.1 17.5 121.9 17.8 121.7 18C121.5 18.2 121.2 18.4 120.8 18.5C120.4 18.6 119.9 18.7 119.4 18.7C118.3 18.7 117.5 18.5 117.1 18.1C116.6 17.7 116.4 17.3 116.4 16.7V16.6ZM117.9 12.8C117.9 13.5 118 14 118.3 14.3C118.6 14.6 118.9 14.8 119.3 14.8C119.7 14.8 120.1 14.6 120.4 14.3C120.7 14 120.8 13.5 120.8 12.9C120.8 12.2 120.7 11.7 120.4 11.4C120.1 11.1 119.8 10.9 119.4 10.9C119 10.9 118.7 11.1 118.4 11.4C118.1 11.6 117.9 12.1 117.9 12.8Z" fill="white"/>
<path d="M130.5 9.69998V11.1H129.3V13.7C129.3 14.2 129.3 14.5 129.3 14.6C129.3 14.7 129.4 14.8 129.5 14.8C129.6 14.9 129.7 14.9 129.8 14.9C130 14.9 130.2 14.8 130.5 14.7L130.6 16C130.2 16.2 129.8 16.3 129.3 16.3C129 16.3 128.7 16.2 128.5 16.1C128.3 16 128.1 15.9 128 15.7C127.9 15.5 127.8 15.3 127.8 15C127.8 14.8 127.7 14.4 127.7 13.8V11H126.9V9.59999H127.7V8.29999L129.4 7.29999V9.59999H130.5V9.69998Z" fill="white"/>
<path d="M131.3 12.8C131.3 12.2 131.4 11.7 131.7 11.2C132 10.7 132.4 10.3 132.9 10C133.4 9.7 134 9.60001 134.6 9.60001C135.6 9.60001 136.4 9.9 137 10.5C137.6 11.1 137.9 11.9 137.9 12.9C137.9 13.9 137.6 14.7 137 15.3C136.4 15.9 135.6 16.3 134.6 16.3C134 16.3 133.4 16.2 132.9 15.9C132.4 15.6 132 15.2 131.7 14.7C131.5 14.2 131.3 13.6 131.3 12.8ZM132.6 8.90001L133.9 7.10001H135.5L136.8 8.90001H135.4L134.7 8L134 8.90001H132.6ZM133.1 12.9C133.1 13.5 133.3 14 133.6 14.4C133.9 14.7 134.3 14.9 134.7 14.9C135.1 14.9 135.5 14.7 135.8 14.4C136.1 14.1 136.3 13.6 136.3 12.9C136.3 12.3 136.1 11.8 135.8 11.4C135.5 11.1 135.1 10.9 134.7 10.9C134.3 10.9 133.9 11.1 133.6 11.4C133.2 11.8 133.1 12.3 133.1 12.9Z" fill="white"/>
<path d="M139.3 8.79999V7.29999H141V8.89999H139.3V8.79999ZM139.3 16.1V9.69998H141V16.1H139.3Z" fill="white"/>
<path d="M13.5986 16.5714C12.1202 16.5936 10.6419 16.5803 9.16791 16.4822C8.74426 16.4554 8.3206 16.4198 7.90136 16.3261C7.0364 16.1389 6.52449 15.5904 6.36562 14.7254C6.10525 13.3031 6.06994 11.8629 6.11849 10.4227C6.14938 9.57559 6.20233 8.73289 6.34797 7.8991C6.51566 6.94493 7.11143 6.25829 8.31619 6.14682C10.536 5.94172 12.7646 5.9105 14.9932 5.95063C15.9861 5.96847 16.979 5.99522 17.9676 6.05764C18.4662 6.08885 18.9693 6.11115 19.4503 6.24937C20.3285 6.50352 20.7522 7.15003 20.8802 8.03287C21.1229 9.74502 21.1538 11.4661 21.0258 13.1872C20.9817 13.7579 20.9375 14.3241 20.7963 14.8815C20.5933 15.6974 19.9887 16.2325 19.1679 16.3573C18.2059 16.5 17.235 16.5357 16.2685 16.5669C15.3771 16.5936 14.4857 16.5714 13.5986 16.5714ZM12.0673 13.526C13.3824 12.768 14.671 12.0279 15.9861 11.2744C14.6622 10.5119 13.3736 9.77623 12.0673 9.0227C12.0673 10.5342 12.0673 12.0101 12.0673 13.526Z" fill="#ED2326"/>
<path d="M13.5986 16.5714C12.1202 16.5936 10.6419 16.5803 9.16791 16.4822C8.74426 16.4554 8.3206 16.4198 7.90136 16.3261C7.0364 16.1389 6.52449 15.5904 6.36562 14.7254C6.10525 13.3031 6.06994 11.8629 6.11849 10.4227C6.14938 9.57559 6.20233 8.73289 6.34797 7.8991C6.51566 6.94493 7.11143 6.25829 8.31619 6.14682C10.536 5.94172 12.7646 5.9105 14.9932 5.95063C15.9861 5.96847 16.979 5.99522 17.9676 6.05764C18.4662 6.08885 18.9693 6.11115 19.4503 6.24937C20.3285 6.50352 20.7522 7.15003 20.8802 8.03287C21.1229 9.74502 21.1538 11.4661 21.0258 13.1872C20.9817 13.7579 20.9375 14.3241 20.7963 14.8815C20.5933 15.6974 19.9887 16.2325 19.1679 16.3573C18.2059 16.5 17.235 16.5357 16.2685 16.5669C15.3771 16.5936 14.4857 16.5714 13.5986 16.5714ZM12.0673 13.526C13.3824 12.768 14.671 12.0279 15.9861 11.2744C14.6622 10.5119 13.3736 9.77623 12.0673 9.0227C12.0673 10.5342 12.0673 12.0101 12.0673 13.526Z" fill="white"/>
</g>
</svg>
