<svg width="125" height="23" viewBox="0 0 125 23" fill="none" xmlns="http://www.w3.org/2000/svg">
<mask id="mask0" mask-type="alpha" maskUnits="userSpaceOnUse" x="0" y="0" width="125" height="23">
<path d="M120.3 0H3.79999C1.69999 0 0 1.7 0 3.8V19.2C0 21.3 1.69999 23 3.79999 23H120.3C122.4 23 124.1 21.3 124.1 19.2V3.8C124.1 1.7 122.4 0 120.3 0Z" fill="#4367AF"/>
</mask>
<g mask="url(#mask0)">
<rect width="124" height="23" fill="#0274B3"/>
<rect width="124" height="23" fill="#E36021"/>
<rect width="124" height="23" fill="#ED2326"/>
<path d="M26.3 6.7H29.8C30.5 6.7 31 6.7 31.4 6.8C31.7 6.9 32.1 7 32.3 7.2C32.6 7.4 32.8 7.59999 33 7.89999C33.2 8.19999 33.3 8.59999 33.3 8.89999C33.3 9.29999 33.2 9.7 33 10C32.8 10.3 32.5 10.6 32.1 10.8C32.6 11 33.1 11.2 33.3 11.6C33.6 12 33.7 12.4 33.7 12.9C33.7 13.3 33.6 13.7 33.4 14.1C33.2 14.5 33 14.8 32.6 15C32.3 15.2 31.9 15.4 31.4 15.4C31.1 15.4 30.4 15.5 29.2 15.5H26.2V6.7H26.3ZM28.1 8.2V10.3H29.3C30 10.3 30.4 10.3 30.6 10.3C30.9 10.3 31.1 10.2 31.3 10C31.5 9.8 31.6 9.6 31.6 9.3C31.6 9 31.5 8.80001 31.4 8.60001C31.2 8.40001 31 8.3 30.7 8.3C30.5 8.3 30 8.3 29.2 8.3H28.1V8.2ZM28.1 11.8V14.2H29.8C30.4 14.2 30.9 14.2 31 14.1C31.3 14.1 31.5 13.9 31.7 13.7C31.9 13.5 32 13.3 32 12.9C32 12.6 31.9 12.4 31.8 12.2C31.7 12 31.5 11.9 31.2 11.8C31 11.7 30.4 11.7 29.6 11.7H28.1V11.8Z" fill="white"/>
<path d="M35.2 8.3V6.7H36.9V8.3H35.2ZM35.2 15.6V9.2H36.9V15.6H35.2Z" fill="white"/>
<path d="M38 15.6V14.3L40.4 11.5C40.8 11 41.1 10.7 41.3 10.5C41.1 10.5 40.8 10.5 40.5 10.5H38.2V9.10001H43.5V10.3L41 13.1L40.1 14C40.6 14 40.9 14 41 14H43.6V15.5H38V15.6Z" fill="white"/>
<path d="M44.9 8.3V6.7H46.6V8.3H44.9ZM44.9 15.6V9.2H46.6V15.6H44.9Z" fill="white"/>
<path d="M51.1 15.6V14.3L53.5 11.5C53.9 11 54.2 10.7 54.4 10.5C54.2 10.5 53.9 10.5 53.6 10.5H51.3V9.10001H56.6V10.3L54.1 13.1L53.2 14C53.7 14 54 14 54.1 14H56.7V15.5H51.1V15.6Z" fill="white"/>
<path d="M58 8.3V6.7H59.7V8.3H58ZM58 15.6V9.2H59.7V15.6H58Z" fill="white"/>
<path d="M60.6 9.2H62.4L63.9 13.8L65.4 9.2H67.2L64.9 15.4L64.5 16.5C64.4 16.9 64.2 17.2 64.1 17.4C64 17.6 63.8 17.8 63.6 17.9C63.4 18 63.2 18.1 63 18.2C62.7 18.3 62.5 18.3 62.1 18.3C61.8 18.3 61.5 18.3 61.1 18.2L60.9 16.9C61.2 17 61.4 17 61.6 17C62 17 62.3 16.9 62.5 16.7C62.7 16.5 62.8 16.2 62.9 15.8L60.6 9.2Z" fill="white"/>
<path d="M69.6 11.2L68.1 10.9C68.3 10.3 68.6 9.8 69 9.5C69.4 9.2 70.1 9.10001 70.9 9.10001C71.7 9.10001 72.2 9.19999 72.6 9.39999C73 9.59999 73.2 9.80001 73.4 10.1C73.6 10.4 73.6 10.9 73.6 11.6V13.6C73.6 14.2 73.6 14.6 73.7 14.9C73.8 15.2 73.9 15.5 74 15.8H72.3C72.3 15.7 72.2 15.5 72.1 15.3C72.1 15.2 72.1 15.1 72 15.1C71.7 15.4 71.4 15.6 71.1 15.7C70.8 15.8 70.4 15.9 70 15.9C69.3 15.9 68.8 15.7 68.4 15.4C68 15 67.8 14.6 67.8 14C67.8 13.6 67.9 13.3 68.1 13C68.3 12.7 68.5 12.5 68.8 12.3C69.1 12.1 69.6 12 70.2 11.9C71 11.8 71.5 11.6 71.9 11.5V11.3C71.9 11 71.8 10.7 71.7 10.6C71.5 10.5 71.2 10.4 70.8 10.4C70.5 10.4 70.3 10.5 70.1 10.6C69.8 10.6 69.7 10.9 69.6 11.2ZM71.9 12.5C71.7 12.6 71.3 12.7 70.9 12.8C70.4 12.9 70.1 13 70 13.1C69.8 13.3 69.7 13.5 69.7 13.7C69.7 13.9 69.8 14.1 70 14.3C70.2 14.5 70.4 14.6 70.7 14.6C71 14.6 71.3 14.5 71.6 14.3C71.8 14.1 71.9 14 72 13.7C72 13.6 72.1 13.3 72.1 12.9V12.5H71.9Z" fill="white"/>
<path d="M76.9 15.6H75.2V9.2H76.8V10.1C77.1 9.70001 77.3 9.4 77.5 9.2C77.7 9.1 78 9 78.2 9C78.6 9 79 9.1 79.3 9.3L78.8 10.8C78.5 10.6 78.2 10.5 78 10.5C77.8 10.5 77.6 10.6 77.4 10.7C77.2 10.8 77.1 11.1 77 11.4C76.9 11.7 76.9 12.5 76.9 13.6V15.6Z" fill="white"/>
<path d="M83.8 13.6L85.5 13.9C85.3 14.5 84.9 15 84.5 15.3C84 15.6 83.4 15.8 82.7 15.8C81.6 15.8 80.8 15.4 80.2 14.7C79.8 14.1 79.6 13.4 79.6 12.5C79.6 11.4 79.9 10.6 80.4 10C81 9.4 81.7 9.10001 82.5 9.10001C83.5 9.10001 84.2 9.4 84.8 10C85.4 10.6 85.6 11.6 85.6 12.9H81.3C81.3 13.4 81.4 13.8 81.7 14.1C82 14.4 82.3 14.5 82.7 14.5C83 14.5 83.2 14.4 83.4 14.3C83.6 14.1 83.7 13.9 83.8 13.6ZM83.9 11.9C83.9 11.4 83.8 11 83.5 10.8C83.3 10.5 83 10.4 82.6 10.4C82.2 10.4 81.9 10.5 81.7 10.8C81.5 11.1 81.3 11.4 81.3 11.9H83.9Z" fill="white"/>
<path d="M89.9 9.2V10.6H88.7V13.2C88.7 13.7 88.7 14 88.7 14.1C88.7 14.2 88.8 14.3 88.9 14.3C89 14.4 89.1 14.4 89.2 14.4C89.4 14.4 89.6 14.3 89.9 14.2L90 15.5C89.6 15.7 89.2 15.8 88.7 15.8C88.4 15.8 88.1 15.7 87.9 15.6C87.7 15.5 87.5 15.4 87.4 15.2C87.3 15 87.2 14.8 87.2 14.5C87.2 14.3 87.1 13.9 87.1 13.3V10.5H86.3V9.10001H87.1V7.8L88.8 6.8V9.10001H89.9V9.2Z" fill="white"/>
<path d="M98.3 13.6L100 13.9C99.8 14.5 99.4 15 99 15.3C98.5 15.6 97.9 15.8 97.2 15.8C96.1 15.8 95.3 15.4 94.7 14.7C94.3 14.1 94.1 13.4 94.1 12.5C94.1 11.4 94.4 10.6 94.9 10C95.5 9.4 96.2 9.10001 97 9.10001C98 9.10001 98.7 9.4 99.3 10C99.9 10.6 100.1 11.6 100.1 12.9H95.8C95.8 13.4 95.9 13.8 96.2 14.1C96.5 14.4 96.8 14.5 97.2 14.5C97.5 14.5 97.7 14.4 97.9 14.3C98 14.1 98.2 13.9 98.3 13.6ZM98.4 11.9C98.4 11.4 98.3 11 98 10.8C97.8 10.5 97.5 10.4 97.1 10.4C96.7 10.4 96.4 10.5 96.2 10.8C96 11.1 95.8 11.4 95.8 11.9H98.4Z" fill="white"/>
<path d="M107.3 15.6H105.7V14.7C105.4 15.1 105.1 15.3 104.8 15.5C104.4 15.7 104.1 15.8 103.7 15.8C103 15.8 102.3 15.5 101.8 14.9C101.3 14.3 101 13.5 101 12.4C101 11.3 101.3 10.5 101.8 9.89999C102.3 9.29999 103 9 103.7 9C104.4 9 105 9.29999 105.6 9.89999V6.7H107.3V15.6ZM102.8 12.3C102.8 13 102.9 13.5 103.1 13.8C103.4 14.2 103.8 14.5 104.3 14.5C104.7 14.5 105 14.3 105.3 14C105.6 13.7 105.7 13.2 105.7 12.5C105.7 11.8 105.6 11.2 105.3 10.9C105 10.6 104.7 10.4 104.3 10.4C103.9 10.4 103.6 10.6 103.3 10.9C102.9 11.2 102.8 11.6 102.8 12.3Z" fill="white"/>
<path d="M109 8.3V6.7H110.7V8.3H109ZM109 15.6V9.2H110.7V15.6H109Z" fill="white"/>
<path d="M118.3 15.6H116.6V12.3C116.6 11.6 116.6 11.2 116.5 11C116.4 10.8 116.3 10.6 116.1 10.5C115.9 10.4 115.7 10.3 115.5 10.3C115.2 10.3 114.9 10.4 114.7 10.5C114.5 10.7 114.3 10.9 114.2 11.1C114.1 11.4 114.1 11.9 114.1 12.6V15.5H112.4V9.10001H114V10C114.6 9.3 115.3 8.89999 116.1 8.89999C116.5 8.89999 116.8 9.00001 117.1 9.10001C117.4 9.20001 117.6 9.40001 117.8 9.60001C118 9.80001 118.1 10 118.1 10.3C118.2 10.6 118.2 10.9 118.2 11.4V15.6H118.3Z" fill="white"/>
<path d="M13.5986 16.5714C12.1202 16.5936 10.6419 16.5803 9.16791 16.4822C8.74426 16.4554 8.3206 16.4198 7.90136 16.3261C7.0364 16.1389 6.52449 15.5904 6.36562 14.7254C6.10525 13.3031 6.06994 11.8629 6.11849 10.4227C6.14938 9.57559 6.20233 8.73289 6.34797 7.8991C6.51566 6.94493 7.11143 6.25829 8.31619 6.14682C10.536 5.94172 12.7646 5.9105 14.9932 5.95063C15.9861 5.96847 16.979 5.99522 17.9676 6.05764C18.4662 6.08885 18.9693 6.11115 19.4503 6.24937C20.3285 6.50352 20.7522 7.15003 20.8802 8.03287C21.1229 9.74502 21.1538 11.4661 21.0258 13.1872C20.9817 13.7579 20.9375 14.3241 20.7963 14.8815C20.5933 15.6974 19.9887 16.2325 19.1679 16.3573C18.2059 16.5 17.235 16.5357 16.2685 16.5669C15.3771 16.5936 14.4857 16.5714 13.5986 16.5714ZM12.0673 13.526C13.3824 12.768 14.671 12.0279 15.9861 11.2744C14.6622 10.5119 13.3736 9.77623 12.0673 9.0227C12.0673 10.5342 12.0673 12.0101 12.0673 13.526Z" fill="#ED2326"/>
<path d="M13.5986 16.5714C12.1202 16.5936 10.6419 16.5803 9.16791 16.4822C8.74426 16.4554 8.3206 16.4198 7.90136 16.3261C7.0364 16.1389 6.52449 15.5904 6.36562 14.7254C6.10525 13.3031 6.06994 11.8629 6.11849 10.4227C6.14938 9.57559 6.20233 8.73289 6.34797 7.8991C6.51566 6.94493 7.11143 6.25829 8.31619 6.14682C10.536 5.94172 12.7646 5.9105 14.9932 5.95063C15.9861 5.96847 16.979 5.99522 17.9676 6.05764C18.4662 6.08885 18.9693 6.11115 19.4503 6.24937C20.3285 6.50352 20.7522 7.15003 20.8802 8.03287C21.1229 9.74502 21.1538 11.4661 21.0258 13.1872C20.9817 13.7579 20.9375 14.3241 20.7963 14.8815C20.5933 15.6974 19.9887 16.2325 19.1679 16.3573C18.2059 16.5 17.235 16.5357 16.2685 16.5669C15.3771 16.5936 14.4857 16.5714 13.5986 16.5714ZM12.0673 13.526C13.3824 12.768 14.671 12.0279 15.9861 11.2744C14.6622 10.5119 13.3736 9.77623 12.0673 9.0227C12.0673 10.5342 12.0673 12.0101 12.0673 13.526Z" fill="white"/>
</g>
</svg>
