<svg width="105" height="23" viewBox="0 0 105 23" fill="none" xmlns="http://www.w3.org/2000/svg">
<mask id="mask0" mask-type="alpha" maskUnits="userSpaceOnUse" x="0" y="0" width="105" height="23">
<path d="M100.3 0H3.8C1.7 0 0 1.69999 0 3.79999V19.2C0 21.3 1.7 23 3.8 23H100.3C102.4 23 104.1 21.3 104.1 19.2V3.79999C104.1 1.69999 102.4 0 100.3 0Z" fill="#4367AF"/>
</mask>
<g mask="url(#mask0)">
<rect x="-1" width="105" height="23" fill="#0274B3"/>
<rect x="-1" width="105" height="23" fill="#E36021"/>
<rect x="-1" width="105" height="23" fill="#ED2326"/>
<path d="M25.9 11.8C26.9 10.8 28.8 8.59999 29.5 7.79999C29.8 7.49999 30.2 7.29999 30.5 7.29999C30.8 7.29999 31.2 7.49999 31.5 7.79999C33.1 9.29999 35.7 12.2 37.6 14.6L36.8 15.3C35 12.8 32.4 9.90001 31 8.60001C30.8 8.40001 30.6 8.29999 30.5 8.29999C30.3 8.29999 30.2 8.40001 30 8.60001C29.4 9.20001 27.6 11.3 26.7 12.2V12.3C26.7 12.4 26.7 12.5 26.6 12.6L25.9 11.8ZM35.4 5.5C36.2 5.5 36.8 6.09999 36.8 6.89999C36.8 7.69999 36.2 8.29999 35.4 8.29999C34.6 8.29999 34 7.69999 34 6.89999C34 6.09999 34.6 5.5 35.4 5.5ZM36.4 6.89999C36.4 6.29999 36 5.89999 35.4 5.89999C34.8 5.89999 34.4 6.39999 34.4 6.89999C34.4 7.39999 34.9 7.89999 35.4 7.89999C35.9 7.89999 36.4 7.39999 36.4 6.89999Z" fill="white"/>
<path d="M38.9 10.4H49.4V11.3H39.4C39.3 11.4 39.2 11.5 39 11.5L38.9 10.4Z" fill="white"/>
<path d="M51.3 9.29999C52.4 9.59999 53.8 9.99999 54.7 10.4L54.3 11.2C53.5 10.8 52 10.3 50.9 10L51.3 9.29999ZM52 15.4C56 14 58.9 11.8 60.5 8.10001C60.7 8.30001 61.1 8.50001 61.3 8.70001C59.6 12.4 56.7 14.8 52.9 16.1C52.9 16.2 52.9 16.4 52.8 16.4L52 15.4ZM52.6 6.20001C53.7 6.50001 55.1 6.99999 56 7.39999L55.6 8.20001C54.7 7.70001 53.4 7.19999 52.3 6.89999L52.6 6.20001ZM58.5 5.79999C59 6.19999 59.7 7.00001 60.1 7.60001L59.6 8C59.2 7.5 58.5 6.60001 58 6.20001L58.5 5.79999ZM60.2 5C60.7 5.4 61.4 6.19999 61.8 6.79999L61.3 7.20001C60.9 6.60001 60.2 5.79999 59.7 5.39999L60.2 5Z" fill="white"/>
<path d="M73.4 10.6C73.4 10.7 73.4 10.7 73.4 10.6C73.2 10.6 73.2 10.6 73.1 10.5C72.1 10.8 70.8 11.3 69.7 11.8C69.7 12.1 69.7 12.4 69.7 12.8C69.7 13.2 69.7 13.7 69.7 14.1H68.8C68.8 13.6 68.9 13.1 68.9 12.6C68.9 12.4 68.9 12.2 68.9 12.1C67.5 12.8 66.3 13.6 66.3 14.4C66.3 15.1 67.2 15.5 68.9 15.5C70.1 15.5 71.2 15.5 72 15.4V16.2C71.3 16.3 70.1 16.3 68.8 16.3C66.4 16.3 65.3 15.7 65.3 14.4C65.3 13.3 66.8 12.2 68.6 11.3C68.5 10.5 68.2 10.1 67.7 10.1C66.8 10.1 65.8 10.6 64.7 11.9C64.3 12.3 63.9 12.8 63.3 13.3L62.7 12.7C64 11.6 65.1 10.5 65.9 8.10001H65.2H63.1V7.29999C63.9 7.29999 64.8 7.29999 65.3 7.29999H66.2C66.3 6.69999 66.5 6.2 66.5 5.5L67.7 5.60001C67.7 5.70001 67.6 5.79999 67.4 5.79999C67.3 6.29999 67.2 6.70001 67.1 7.20001C68 7.20001 69.8 7 71.4 6.5L71.5 7.29999C69.9 7.79999 68 8 66.8 8C66.5 8.9 66.2 9.70001 65.9 10.1C66.5 9.60001 67.3 9.29999 67.9 9.29999C68.8 9.29999 69.3 9.89999 69.5 10.9C70.6 10.4 71.9 9.9 72.9 9.5L73.4 10.6Z" fill="white"/>
<path d="M79.3 7.39999V8.10001H74.6V7.39999H79.3ZM79 16.2H76V16.8H75.2V12.5H79V16.2ZM79 9.10001V9.79999H75.2V9.10001H79ZM75.3 11.5V10.8H79.1V11.5H75.3ZM79 5.70001V6.39999H75.3V5.70001H79ZM78.3 13.2H76V15.5H78.3V13.2ZM86.4 8.5H82.4C82.4 9.2 82.3 9.90001 82.3 10.6H85.1H85.3L85.8 10.7C85.8 10.8 85.8 10.9 85.8 11C85.6 14.9 85.5 16.2 85.1 16.6C84.8 16.9 84.6 17 83.7 17C83.4 17 83 17 82.6 17C82.6 16.8 82.5 16.4 82.3 16.2C83 16.3 83.7 16.3 83.9 16.3C84.1 16.3 84.3 16.3 84.4 16.2C84.7 15.9 84.8 14.7 85 11.5H82.3C82 13.7 81.4 15.8 79.8 17.2C79.6 17 79.4 16.7 79.2 16.6C81.4 14.9 81.6 11.6 81.7 8.70001H79.7V7.89999H82.8V5.5L83.9 5.60001C83.9 5.70001 83.8 5.79999 83.6 5.79999V7.89999H86.6V8.5H86.4Z" fill="white"/>
<path d="M92.4 10.3H88.7V17H87.9V5.89999H92.4V10.3ZM91.6 6.5H88.7V7.70001H91.6V6.5ZM88.7 9.60001H91.6V8.29999H88.7V9.60001ZM95.4 15.1H91.5V15.9H90.7V11.5H95.4V15.1ZM94.6 12.2H91.5V14.4H94.6V12.2ZM98.3 5.79999V15.7C98.3 16.3 98.1 16.6 97.8 16.7C97.4 16.9 96.7 16.9 95.6 16.9C95.6 16.7 95.4 16.3 95.3 16C95.7 16 96.2 16 96.5 16C97.5 16 97.6 16 97.6 15.7V10.2H93.8V5.79999H98.3ZM97.4 6.5H94.4V7.70001H97.4V6.5ZM94.4 9.60001H97.4V8.29999H94.4V9.60001Z" fill="white"/>
<path d="M13.5986 16.5713C12.1202 16.5936 10.6419 16.5803 9.16791 16.4822C8.74426 16.4554 8.3206 16.4197 7.90136 16.3261C7.0364 16.1388 6.52449 15.5904 6.36562 14.7254C6.10525 13.3031 6.06994 11.8629 6.11849 10.4227C6.14938 9.57559 6.20233 8.73288 6.34797 7.8991C6.51566 6.94493 7.11143 6.25828 8.31619 6.14681C10.536 5.94171 12.7646 5.9105 14.9932 5.95063C15.9861 5.96846 16.979 5.99522 17.9676 6.05764C18.4662 6.08885 18.9693 6.11114 19.4503 6.24937C20.3285 6.50351 20.7522 7.15003 20.8802 8.03286C21.1229 9.74502 21.1538 11.4661 21.0258 13.1872C20.9817 13.7579 20.9375 14.3241 20.7963 14.8815C20.5933 15.6974 19.9887 16.2325 19.1679 16.3573C18.2059 16.5 17.235 16.5357 16.2685 16.5669C15.3771 16.5936 14.4857 16.5713 13.5986 16.5713ZM12.0673 13.526C13.3824 12.768 14.671 12.0279 15.9861 11.2744C14.6622 10.5119 13.3736 9.77623 12.0673 9.0227C12.0673 10.5342 12.0673 12.0101 12.0673 13.526Z" fill="#ED2326"/>
<path d="M13.5986 16.5713C12.1202 16.5936 10.6419 16.5803 9.16791 16.4822C8.74426 16.4554 8.3206 16.4197 7.90136 16.3261C7.0364 16.1388 6.52449 15.5904 6.36562 14.7254C6.10525 13.3031 6.06994 11.8629 6.11849 10.4227C6.14938 9.57559 6.20233 8.73288 6.34797 7.8991C6.51566 6.94493 7.11143 6.25828 8.31619 6.14681C10.536 5.94171 12.7646 5.9105 14.9932 5.95063C15.9861 5.96846 16.979 5.99522 17.9676 6.05764C18.4662 6.08885 18.9693 6.11114 19.4503 6.24937C20.3285 6.50351 20.7522 7.15003 20.8802 8.03286C21.1229 9.74502 21.1538 11.4661 21.0258 13.1872C20.9817 13.7579 20.9375 14.3241 20.7963 14.8815C20.5933 15.6974 19.9887 16.2325 19.1679 16.3573C18.2059 16.5 17.235 16.5357 16.2685 16.5669C15.3771 16.5936 14.4857 16.5713 13.5986 16.5713ZM12.0673 13.526C13.3824 12.768 14.671 12.0279 15.9861 11.2744C14.6622 10.5119 13.3736 9.77623 12.0673 9.0227C12.0673 10.5342 12.0673 12.0101 12.0673 13.526Z" fill="white"/>
</g>
</svg>
