<svg width="105" height="23" viewBox="0 0 105 23" fill="none" xmlns="http://www.w3.org/2000/svg">
<mask id="mask0" mask-type="alpha" maskUnits="userSpaceOnUse" x="0" y="0" width="105" height="23">
<path d="M100.3 0H3.79999C1.69999 0 0 1.69999 0 3.79999V19.2C0 21.3 1.69999 23 3.79999 23H100.3C102.4 23 104.1 21.3 104.1 19.2V3.79999C104.1 1.69999 102.4 0 100.3 0Z" fill="#4367AF"/>
</mask>
<g mask="url(#mask0)">
<rect width="104" height="23" fill="#0274B3"/>
<rect width="104" height="23" fill="#E36021"/>
<rect width="104" height="23" fill="#ED2326"/>
<path d="M25.8 12.7C26.7 11.7 28.7 9.49999 29.4 8.79999C29.7 8.49999 30 8.29999 30.4 8.29999C30.7 8.29999 31.1 8.49999 31.4 8.79999C33 10.3 35.6 13.1 37.5 15.6L36.8 16.3C35 13.9 32.4 10.9 31.1 9.59998C30.9 9.39998 30.7 9.29999 30.6 9.29999C30.4 9.29999 30.3 9.39998 30.1 9.59998C29.5 10.2 27.7 12.3 26.9 13.2V13.3C26.9 13.4 26.9 13.5 26.8 13.6L25.8 12.7ZM35.2 6.39999C36 6.39999 36.6 6.99999 36.6 7.79999C36.6 8.59999 36 9.19998 35.2 9.19998C34.4 9.19998 33.8 8.59999 33.8 7.79999C33.8 6.99999 34.4 6.39999 35.2 6.39999ZM36.2 7.79999C36.2 7.29999 35.8 6.79999 35.2 6.79999C34.7 6.79999 34.2 7.19999 34.2 7.79999C34.2 8.29999 34.6 8.79999 35.2 8.79999C35.7 8.79999 36.2 8.29999 36.2 7.79999Z" fill="white"/>
<path d="M38.6 11.3H49V12.2H39.1C39 12.3 38.9 12.4 38.7 12.4L38.6 11.3Z" fill="white"/>
<path d="M50.9 10.2C52 10.4 53.4 10.9 54.2 11.3L53.8 12.1C53 11.7 51.6 11.2 50.5 11L50.9 10.2ZM51.7 16.3C55.7 15 58.5 12.8 60.1 9.09998C60.3 9.29998 60.7 9.49998 60.9 9.69998C59.2 13.4 56.3 15.7 52.6 17C52.6 17.1 52.6 17.3 52.5 17.3L51.7 16.3ZM52.3 7.09998C53.4 7.39998 54.8 7.89999 55.6 8.29999L55.2 9.09998C54.3 8.69998 53 8.19999 51.9 7.79999L52.3 7.09998ZM58.1 6.69998C58.6 7.09998 59.3 7.9 59.7 8.5L59.2 8.89999C58.9 8.39999 58.1 7.49998 57.6 7.09998L58.1 6.69998ZM59.8 6C60.3 6.4 61 7.19999 61.4 7.79999L60.9 8.19998C60.5 7.69998 59.8 6.89999 59.3 6.39999L59.8 6Z" fill="white"/>
<path d="M72.9 11.5C72.8 11.6 72.8 11.6 72.9 11.5C72.8 11.5 72.7 11.5 72.6 11.5C71.7 11.8 70.3 12.3 69.3 12.8C69.3 13.1 69.3 13.4 69.3 13.8C69.3 14.2 69.3 14.6 69.3 15.1H68.4C68.4 14.7 68.5 14.1 68.5 13.6C68.5 13.4 68.5 13.2 68.5 13.1C67.1 13.8 66 14.6 66 15.4C66 16.1 66.9 16.5 68.6 16.5C69.8 16.5 70.9 16.5 71.7 16.4V17.2C71 17.3 69.9 17.3 68.6 17.3C66.2 17.3 65.2 16.7 65.2 15.5C65.2 14.4 66.6 13.4 68.5 12.4C68.4 11.6 68.1 11.2 67.6 11.2C66.7 11.2 65.8 11.7 64.6 12.9C64.3 13.3 63.8 13.8 63.2 14.3L62.6 13.7C63.8 12.6 65 11.6 65.7 9.09998H65H62.9V8.29999C63.7 8.29999 64.5 8.29999 65 8.29999H65.8C65.9 7.69999 66 7.2 66.1 6.5L67.3 6.59998C67.3 6.69998 67.2 6.79999 67 6.79999C66.9 7.29999 66.8 7.69998 66.7 8.19998C67.5 8.19998 69.4 8 71 7.5L71.1 8.29999C69.5 8.79999 67.7 9 66.4 9C66.1 9.9 65.8 10.7 65.5 11.1C66 10.6 66.9 10.3 67.5 10.3C68.3 10.3 68.9 10.9 69 11.9C70 11.4 71.4 10.9 72.3 10.5L72.9 11.5Z" fill="white"/>
<path d="M78.7 8.29999V9H74.1V8.29999H78.7ZM78.4 17H75.4V17.6H74.7V13.4H78.4V17ZM78.4 10V10.7H74.7V10H78.4ZM74.7 12.4V11.7H78.4V12.4H74.7ZM78.3 6.69998V7.39999H74.7V6.69998H78.3ZM77.6 14.1H75.4V16.3H77.6V14.1ZM85.7 9.39999H81.8C81.8 10.1 81.7 10.7 81.7 11.4H84.5H84.7H85.2C85.2 11.5 85.2 11.6 85.2 11.7C85.1 15.5 84.9 16.9 84.5 17.3C84.2 17.6 84 17.7 83.1 17.7C82.8 17.7 82.4 17.7 82 17.7C82 17.5 81.9 17.1 81.7 16.9C82.4 16.9 83 17 83.3 17C83.5 17 83.7 17 83.8 16.9C84.1 16.6 84.2 15.4 84.4 12.3H81.7C81.4 14.4 80.8 16.6 79.2 17.9C79.1 17.7 78.8 17.4 78.6 17.3C80.7 15.6 81 12.3 81.1 9.5H79.1V8.69998H82.1V6.29999L83.2 6.39999C83.2 6.49999 83.1 6.49998 83 6.59998V8.69998H85.9V9.39999H85.7Z" fill="white"/>
<path d="M91.6 11.2H87.9V17.8H87.1V6.79999H91.6V11.2ZM90.9 7.5H88V8.59998H90.9V7.5ZM88 10.5H90.9V9.29999H88V10.5ZM94.6 16H90.7V16.8H89.9V12.3H94.6V16ZM93.8 13.1H90.7V15.3H93.8V13.1ZM97.4 6.79999V16.6C97.4 17.2 97.3 17.5 96.9 17.6C96.5 17.7 95.8 17.8 94.7 17.8C94.7 17.6 94.5 17.2 94.4 16.9C94.8 16.9 95.2 16.9 95.6 16.9C96.6 16.9 96.6 16.9 96.6 16.6V11.2H92.8V6.79999H97.4ZM96.6 7.5H93.6V8.59998H96.6V7.5ZM93.6 10.5H96.6V9.29999H93.6V10.5Z" fill="white"/>
<path d="M13.5986 16.5713C12.1202 16.5936 10.6419 16.5803 9.16791 16.4822C8.74426 16.4554 8.3206 16.4197 7.90136 16.3261C7.0364 16.1388 6.52449 15.5904 6.36562 14.7254C6.10525 13.3031 6.06994 11.8629 6.11849 10.4227C6.14938 9.57559 6.20233 8.73288 6.34797 7.8991C6.51566 6.94493 7.11143 6.25828 8.31619 6.14681C10.536 5.94171 12.7646 5.9105 14.9932 5.95063C15.9861 5.96846 16.979 5.99522 17.9676 6.05764C18.4662 6.08885 18.9693 6.11114 19.4503 6.24937C20.3285 6.50351 20.7522 7.15003 20.8802 8.03286C21.1229 9.74502 21.1538 11.4661 21.0258 13.1872C20.9817 13.7579 20.9375 14.3241 20.7963 14.8815C20.5933 15.6974 19.9887 16.2325 19.1679 16.3573C18.2059 16.5 17.235 16.5357 16.2685 16.5669C15.3771 16.5936 14.4857 16.5713 13.5986 16.5713ZM12.0673 13.526C13.3824 12.768 14.671 12.0279 15.9861 11.2744C14.6622 10.5119 13.3736 9.77623 12.0673 9.0227C12.0673 10.5342 12.0673 12.0101 12.0673 13.526Z" fill="#ED2326"/>
<path d="M13.5986 16.5713C12.1202 16.5936 10.6419 16.5803 9.16791 16.4822C8.74426 16.4554 8.3206 16.4197 7.90136 16.3261C7.0364 16.1388 6.52449 15.5904 6.36562 14.7254C6.10525 13.3031 6.06994 11.8629 6.11849 10.4227C6.14938 9.57559 6.20233 8.73288 6.34797 7.8991C6.51566 6.94493 7.11143 6.25828 8.31619 6.14681C10.536 5.94171 12.7646 5.9105 14.9932 5.95063C15.9861 5.96846 16.979 5.99522 17.9676 6.05764C18.4662 6.08885 18.9693 6.11114 19.4503 6.24937C20.3285 6.50351 20.7522 7.15003 20.8802 8.03286C21.1229 9.74502 21.1538 11.4661 21.0258 13.1872C20.9817 13.7579 20.9375 14.3241 20.7963 14.8815C20.5933 15.6974 19.9887 16.2325 19.1679 16.3573C18.2059 16.5 17.235 16.5357 16.2685 16.5669C15.3771 16.5936 14.4857 16.5713 13.5986 16.5713ZM12.0673 13.526C13.3824 12.768 14.671 12.0279 15.9861 11.2744C14.6622 10.5119 13.3736 9.77623 12.0673 9.0227C12.0673 10.5342 12.0673 12.0101 12.0673 13.526Z" fill="white"/>
</g>
</svg>
