<svg width="138" height="23" viewBox="0 0 138 23" fill="none" xmlns="http://www.w3.org/2000/svg">
<mask id="mask0" mask-type="alpha" maskUnits="userSpaceOnUse" x="0" y="0" width="138" height="23">
<path d="M133.3 0H3.79999C1.69999 0 0 1.69999 0 3.79999V19.2C0 21.3 1.69999 23 3.79999 23H133.3C135.4 23 137.1 21.3 137.1 19.2V3.79999C137.1 1.69999 135.4 0 133.3 0Z" fill="#4367AF"/>
</mask>
<g mask="url(#mask0)">
<rect width="137" height="23" fill="#0274B3"/>
<rect width="137" height="23" fill="#E36021"/>
<rect width="137" height="23" fill="#ED2326"/>
<path d="M28.6 15.6L25.4 6.69998H27.3L29.5 13.3L31.7 6.69998H33.6L30.4 15.6H28.6Z" fill="white"/>
<path d="M34.3 8.29999V6.69998H36V8.29999H34.3ZM34.3 15.6V9.19998H36V15.6H34.3Z" fill="white"/>
<path d="M37.2 13.8L38.9 13.5C39 13.8 39.1 14.1 39.3 14.3C39.5 14.5 39.8 14.6 40.2 14.6C40.6 14.6 41 14.5 41.2 14.4C41.3 14.3 41.4 14.1 41.4 13.9C41.4 13.8 41.4 13.7 41.3 13.6C41.2 13.5 41 13.4 40.7 13.4C39.3 13.1 38.5 12.8 38.1 12.6C37.6 12.3 37.3 11.8 37.3 11.2C37.3 10.6 37.5 10.2 38 9.79999C38.4 9.39999 39.1 9.19998 40 9.19998C40.9 9.19998 41.5 9.30001 42 9.60001C42.4 9.90001 42.7 10.3 42.9 10.9L41.3 11.2C41.2 10.9 41.1 10.8 40.9 10.6C40.7 10.5 40.4 10.4 40.1 10.4C39.7 10.4 39.3 10.5 39.1 10.6C39 10.7 38.9 10.8 38.9 10.9C38.9 11 39 11.1 39.1 11.2C39.3 11.3 39.8 11.5 40.7 11.7C41.6 11.9 42.2 12.2 42.6 12.5C43 12.8 43.1 13.2 43.1 13.8C43.1 14.4 42.9 14.9 42.4 15.3C41.9 15.7 41.2 15.9 40.2 15.9C39.3 15.9 38.6 15.7 38.1 15.4C37.7 14.9 37.3 14.4 37.2 13.8Z" fill="white"/>
<path d="M44.7 8.29999V6.69998H46.4V8.29999H44.7ZM44.7 15.6V9.19998H46.4V15.6H44.7Z" fill="white"/>
<path d="M51.1 9.19998V10.6H49.9V13.2C49.9 13.7 49.9 14 49.9 14.1C49.9 14.2 50 14.3 50.1 14.3C50.2 14.4 50.3 14.4 50.4 14.4C50.6 14.4 50.8 14.3 51.1 14.2L51.2 15.5C50.8 15.7 50.4 15.8 49.9 15.8C49.6 15.8 49.3 15.7 49.1 15.6C48.9 15.5 48.7 15.4 48.6 15.2C48.5 15 48.4 14.8 48.4 14.5C48.4 14.3 48.3 13.9 48.3 13.3V10.5H47.5V9.10001H48.3V7.89999L50 6.89999V9.19998H51.1Z" fill="white"/>
<path d="M56 13.6L57.7 13.9C57.5 14.5 57.1 15 56.7 15.3C56.2 15.6 55.6 15.8 54.9 15.8C53.8 15.8 53 15.4 52.4 14.7C52 14.1 51.8 13.4 51.8 12.5C51.8 11.4 52.1 10.6 52.6 10C53.2 9.4 53.9 9.10001 54.7 9.10001C55.7 9.10001 56.4 9.4 57 10C57.6 10.6 57.8 11.6 57.8 12.9H53.5C53.5 13.4 53.6 13.8 53.9 14.1C54.2 14.4 54.5 14.5 54.9 14.5C55.2 14.5 55.4 14.4 55.6 14.3C55.8 14.1 55.9 13.9 56 13.6ZM56.1 11.9C56.1 11.4 56 11 55.7 10.8C55.5 10.5 55.2 10.4 54.8 10.4C54.4 10.4 54.1 10.5 53.9 10.8C53.7 11.1 53.5 11.4 53.5 11.9H56.1Z" fill="white"/>
<path d="M58.5 15.6V14.3L60.9 11.5C61.3 11 61.6 10.7 61.8 10.5C61.6 10.5 61.3 10.5 61 10.5H58.7V9.10001H64V10.3L61.5 13.1L60.6 14C61.1 14 61.4 14 61.5 14H64.1V15.5H58.5V15.6Z" fill="white"/>
<path d="M74.7 15.6H73V12.3C73 11.6 73 11.2 72.9 11C72.8 10.8 72.7 10.6 72.5 10.5C72.3 10.4 72.1 10.3 71.9 10.3C71.6 10.3 71.3 10.4 71.1 10.5C70.9 10.7 70.7 10.9 70.6 11.1C70.5 11.4 70.5 11.9 70.5 12.6V15.5H68.8V9.10001H70.4V10C71 9.3 71.7 8.89999 72.5 8.89999C72.9 8.89999 73.2 9.00001 73.5 9.10001C73.8 9.20001 74 9.40001 74.2 9.60001C74.4 9.80001 74.5 9.99999 74.5 10.3C74.6 10.6 74.6 10.9 74.6 11.4V15.6H74.7Z" fill="white"/>
<path d="M76 12.3C76 11.7 76.1 11.2 76.4 10.7C76.7 10.2 77.1 9.8 77.6 9.5C78.1 9.2 78.7 9.10001 79.3 9.10001C80.3 9.10001 81.1 9.4 81.7 10C82.3 10.6 82.6 11.4 82.6 12.4C82.6 13.4 82.3 14.2 81.7 14.8C81.1 15.4 80.3 15.8 79.3 15.8C78.7 15.8 78.1 15.7 77.6 15.4C77.1 15.1 76.7 14.7 76.4 14.2C76.1 13.7 76 13.1 76 12.3ZM77.7 12.4C77.7 13 77.9 13.5 78.2 13.9C78.5 14.2 78.9 14.4 79.3 14.4C79.7 14.4 80.1 14.2 80.4 13.9C80.7 13.6 80.9 13.1 80.9 12.4C80.9 11.8 80.8 11.3 80.4 10.9C80.1 10.6 79.7 10.4 79.3 10.4C78.9 10.4 78.5 10.6 78.2 10.9C77.9 11.3 77.7 11.8 77.7 12.4Z" fill="white"/>
<path d="M86.9 9.19998V10.6H85.7V13.2C85.7 13.7 85.7 14 85.7 14.1C85.7 14.2 85.8 14.3 85.9 14.3C86 14.4 86.1 14.4 86.2 14.4C86.4 14.4 86.6 14.3 86.9 14.2L87 15.5C86.6 15.7 86.2 15.8 85.7 15.8C85.4 15.8 85.1 15.7 84.9 15.6C84.7 15.5 84.5 15.4 84.4 15.2C84.3 15 84.2 14.8 84.2 14.5C84.2 14.3 84.1 13.9 84.1 13.3V10.5H83.3V9.10001H84.1V7.89999L85.8 6.89999V9.19998H86.9Z" fill="white"/>
<path d="M89.7 15.6H88V9.19998H89.6V10.1C89.9 9.70001 90.1 9.39998 90.3 9.19998C90.5 9.09998 90.8 9 91 9C91.4 9 91.8 9.09999 92.1 9.29999L91.6 10.8C91.3 10.6 91 10.5 90.8 10.5C90.6 10.5 90.4 10.6 90.2 10.7C90 10.8 89.9 11.1 89.8 11.4C89.7 11.7 89.7 12.5 89.7 13.6V15.6Z" fill="white"/>
<path d="M96.6 13.6L98.3 13.9C98.1 14.5 97.7 15 97.3 15.3C96.8 15.6 96.2 15.8 95.5 15.8C94.4 15.8 93.6 15.4 93 14.7C92.6 14.1 92.4 13.4 92.4 12.5C92.4 11.4 92.7 10.6 93.2 10C93.8 9.4 94.5 9.10001 95.3 9.10001C96.3 9.10001 97 9.4 97.6 10C98.2 10.6 98.4 11.6 98.4 12.9H94.1C94.1 13.4 94.2 13.8 94.5 14.1C94.8 14.4 95.1 14.5 95.5 14.5C95.8 14.5 96 14.4 96.2 14.3C96.4 14.1 96.6 13.9 96.6 13.6ZM96.7 11.9C96.7 11.4 96.6 11 96.3 10.8C96 10.6 95.8 10.4 95.4 10.4C95 10.4 94.7 10.5 94.5 10.8C94.3 11.1 94.1 11.4 94.1 11.9H96.7Z" fill="white"/>
<path d="M103.2 9.19998H104.8V10.1C105 9.80001 105.3 9.49999 105.6 9.29999C106 9.09999 106.3 9 106.8 9C107.5 9 108.2 9.29999 108.7 9.89999C109.2 10.5 109.5 11.3 109.5 12.3C109.5 13.4 109.2 14.2 108.7 14.8C108.2 15.4 107.5 15.7 106.8 15.7C106.4 15.7 106.1 15.6 105.8 15.5C105.5 15.4 105.2 15.1 104.9 14.8V18H103.2V9.19998ZM104.9 12.3C104.9 13 105 13.6 105.3 13.9C105.6 14.2 105.9 14.4 106.3 14.4C106.7 14.4 107 14.2 107.3 13.9C107.6 13.6 107.7 13.1 107.7 12.3C107.7 11.6 107.6 11.1 107.3 10.8C107 10.5 106.7 10.3 106.3 10.3C105.9 10.3 105.5 10.5 105.3 10.8C105 11.2 104.9 11.7 104.9 12.3Z" fill="white"/>
<path d="M112.1 11.2L110.6 10.9C110.8 10.3 111.1 9.8 111.5 9.5C111.9 9.2 112.6 9.10001 113.4 9.10001C114.2 9.10001 114.7 9.19999 115.1 9.39999C115.5 9.59999 115.7 9.80001 115.9 10.1C116.1 10.4 116.1 10.9 116.1 11.6V13.6C116.1 14.2 116.1 14.6 116.2 14.9C116.3 15.2 116.4 15.5 116.5 15.8H114.8C114.8 15.7 114.7 15.5 114.6 15.3C114.6 15.2 114.6 15.1 114.5 15.1C114.2 15.4 113.9 15.6 113.6 15.7C113.3 15.8 112.9 15.9 112.5 15.9C111.8 15.9 111.3 15.7 110.9 15.4C110.5 15 110.3 14.6 110.3 14C110.3 13.6 110.4 13.3 110.6 13C110.8 12.7 111 12.5 111.3 12.3C111.6 12.1 112.1 12 112.7 11.9C113.5 11.7 114 11.6 114.4 11.5V11.3C114.4 11 114.3 10.7 114.2 10.6C114 10.5 113.7 10.4 113.3 10.4C113 10.4 112.8 10.5 112.6 10.6C112.4 10.7 112.2 10.9 112.1 11.2ZM114.4 12.5C114.2 12.6 113.8 12.7 113.4 12.8C112.9 12.9 112.6 13 112.5 13.1C112.3 13.3 112.2 13.5 112.2 13.7C112.2 13.9 112.3 14.1 112.5 14.3C112.7 14.5 112.9 14.6 113.2 14.6C113.5 14.6 113.8 14.5 114.1 14.3C114.3 14.1 114.4 14 114.5 13.7C114.5 13.6 114.6 13.3 114.6 12.9V12.5H114.4Z" fill="white"/>
<path d="M117.6 16.1L119.5 16.3C119.5 16.5 119.6 16.7 119.7 16.8C119.9 16.9 120.1 17 120.5 17C120.9 17 121.3 16.9 121.5 16.8C121.6 16.7 121.8 16.6 121.8 16.4C121.9 16.3 121.9 16 121.9 15.6V14.7C121.4 15.4 120.7 15.7 120 15.7C119.1 15.7 118.5 15.3 117.9 14.6C117.5 14 117.3 13.3 117.3 12.4C117.3 11.3 117.6 10.5 118.1 9.89999C118.6 9.29999 119.3 9 120 9C120.8 9 121.5 9.3 122 10V9.10001H123.6V14.9C123.6 15.7 123.5 16.2 123.4 16.6C123.3 17 123.1 17.3 122.9 17.5C122.7 17.7 122.4 17.9 122 18C121.6 18.1 121.1 18.2 120.6 18.2C119.5 18.2 118.7 18 118.3 17.6C117.8 17.2 117.6 16.8 117.6 16.2V16.1ZM119.1 12.3C119.1 13 119.2 13.5 119.5 13.8C119.8 14.1 120.1 14.3 120.5 14.3C120.9 14.3 121.3 14.1 121.6 13.8C121.9 13.5 122 13 122 12.4C122 11.7 121.9 11.2 121.6 10.9C121.3 10.6 121 10.4 120.6 10.4C120.2 10.4 119.9 10.6 119.6 10.9C119.2 11.2 119.1 11.6 119.1 12.3Z" fill="white"/>
<path d="M129 13.6L130.7 13.9C130.5 14.5 130.1 15 129.7 15.3C129.2 15.6 128.6 15.8 127.9 15.8C126.8 15.8 126 15.4 125.4 14.7C125 14.1 124.8 13.4 124.8 12.5C124.8 11.4 125.1 10.6 125.6 10C126.2 9.4 126.9 9.10001 127.7 9.10001C128.7 9.10001 129.4 9.4 130 10C130.6 10.6 130.8 11.6 130.8 12.9H126.5C126.5 13.4 126.6 13.8 126.9 14.1C127.2 14.4 127.5 14.5 127.9 14.5C128.2 14.5 128.4 14.4 128.6 14.3C128.8 14.1 129 13.9 129 13.6ZM129.1 11.9C129.1 11.4 129 11 128.7 10.8C128.4 10.6 128.2 10.4 127.8 10.4C127.4 10.4 127.1 10.5 126.9 10.8C126.7 11.1 126.5 11.4 126.5 11.9H129.1Z" fill="white"/>
<path d="M13.5986 16.5714C12.1202 16.5936 10.6419 16.5803 9.16791 16.4822C8.74426 16.4554 8.3206 16.4198 7.90136 16.3261C7.0364 16.1389 6.52449 15.5904 6.36562 14.7254C6.10525 13.3031 6.06994 11.8629 6.11849 10.4227C6.14938 9.57559 6.20233 8.73289 6.34797 7.8991C6.51566 6.94493 7.11143 6.25829 8.31619 6.14682C10.536 5.94172 12.7646 5.9105 14.9932 5.95063C15.9861 5.96847 16.979 5.99522 17.9676 6.05764C18.4662 6.08885 18.9693 6.11115 19.4503 6.24937C20.3285 6.50352 20.7522 7.15003 20.8802 8.03287C21.1229 9.74502 21.1538 11.4661 21.0258 13.1872C20.9817 13.7579 20.9375 14.3241 20.7963 14.8815C20.5933 15.6974 19.9887 16.2325 19.1679 16.3573C18.2059 16.5 17.235 16.5357 16.2685 16.5669C15.3771 16.5936 14.4857 16.5714 13.5986 16.5714ZM12.0673 13.526C13.3824 12.768 14.671 12.0279 15.9861 11.2744C14.6622 10.5119 13.3736 9.77623 12.0673 9.0227C12.0673 10.5342 12.0673 12.0101 12.0673 13.526Z" fill="#ED2326"/>
<path d="M13.5986 16.5714C12.1202 16.5936 10.6419 16.5803 9.16791 16.4822C8.74426 16.4554 8.3206 16.4198 7.90136 16.3261C7.0364 16.1389 6.52449 15.5904 6.36562 14.7254C6.10525 13.3031 6.06994 11.8629 6.11849 10.4227C6.14938 9.57559 6.20233 8.73289 6.34797 7.8991C6.51566 6.94493 7.11143 6.25829 8.31619 6.14682C10.536 5.94172 12.7646 5.9105 14.9932 5.95063C15.9861 5.96847 16.979 5.99522 17.9676 6.05764C18.4662 6.08885 18.9693 6.11115 19.4503 6.24937C20.3285 6.50352 20.7522 7.15003 20.8802 8.03287C21.1229 9.74502 21.1538 11.4661 21.0258 13.1872C20.9817 13.7579 20.9375 14.3241 20.7963 14.8815C20.5933 15.6974 19.9887 16.2325 19.1679 16.3573C18.2059 16.5 17.235 16.5357 16.2685 16.5669C15.3771 16.5936 14.4857 16.5714 13.5986 16.5714ZM12.0673 13.526C13.3824 12.768 14.671 12.0279 15.9861 11.2744C14.6622 10.5119 13.3736 9.77623 12.0673 9.0227C12.0673 10.5342 12.0673 12.0101 12.0673 13.526Z" fill="white"/>
</g>
</svg>
