<svg width="123" height="23" viewBox="0 0 123 23" fill="none" xmlns="http://www.w3.org/2000/svg">
<mask id="mask0" mask-type="alpha" maskUnits="userSpaceOnUse" x="0" y="0" width="123" height="23">
<path d="M118.3 0H3.8C1.7 0 0 1.70002 0 3.80002V19.2C0 21.3 1.7 23 3.8 23H118.3C120.4 23 122.1 21.3 122.1 19.2V3.80002C122.1 1.70002 120.4 0 118.3 0Z" fill="#4367AF"/>
</mask>
<g mask="url(#mask0)">
<rect x="-1" width="123" height="23" fill="#0274B3"/>
<rect x="-1" width="123" height="23" fill="#E36021"/>
<rect x="-1" width="123" height="23" fill="#ED2326"/>
<path d="M25.9 7H33V16H31.2V8.5H27.7V16H25.9V7Z" fill="white"/>
<path d="M34.5 12.6C34.5 12 34.6 11.5 34.9 10.9C35.2 10.4 35.6 10 36.1 9.70001C36.6 9.40001 37.2 9.30002 37.8 9.30002C38.8 9.30002 39.6 9.60002 40.2 10.3C40.8 10.9 41.1 11.7 41.1 12.7C41.1 13.7 40.8 14.5 40.1 15.1C39.5 15.7 38.7 16.1 37.7 16.1C37.1 16.1 36.5 16 36 15.7C35.5 15.4 35 15 34.8 14.5C34.6 14 34.5 13.3 34.5 12.6ZM36.2 12.7C36.2 13.3 36.4 13.8 36.7 14.2C37 14.5 37.4 14.7 37.8 14.7C38.2 14.7 38.6 14.5 38.9 14.2C39.2 13.9 39.4 13.4 39.4 12.7C39.4 12.1 39.2 11.6 38.9 11.2C38.6 10.9 38.2 10.7 37.8 10.7C37.4 10.7 37 10.9 36.7 11.2C36.4 11.5 36.2 12 36.2 12.7Z" fill="white"/>
<path d="M48 11.3L46.3 11.6C46.2 11.3 46.1 11 45.9 10.8C45.7 10.6 45.4 10.5 45.1 10.5C44.7 10.5 44.3 10.6 44.1 10.9C43.8 11.2 43.7 11.7 43.7 12.4C43.7 13.2 43.8 13.7 44.1 14C44.4 14.3 44.7 14.5 45.1 14.5C45.4 14.5 45.7 14.4 45.9 14.2C46.1 14 46.3 13.7 46.3 13.2L48 13.5C47.8 14.3 47.5 14.9 47 15.3C46.5 15.7 45.8 15.9 45 15.9C44 15.9 43.3 15.6 42.7 15C42.1 14.4 41.9 13.6 41.9 12.5C41.9 11.4 42.2 10.6 42.8 10C43.4 9.4 44.1 9.10001 45.1 9.10001C45.9 9.10001 46.5 9.30001 47 9.60001C47.5 10.1 47.8 10.7 48 11.3Z" fill="white"/>
<path d="M53.1 13.9L54.8 14.2C54.6 14.8 54.2 15.3 53.8 15.6C53.4 15.9 52.7 16.1 52 16.1C50.9 16.1 50 15.7 49.5 15C49.1 14.4 48.9 13.7 48.9 12.8C48.9 11.7 49.2 10.9 49.7 10.3C50.3 9.70002 51 9.40002 51.8 9.40002C52.8 9.40002 53.5 9.70002 54.1 10.4C54.7 11 54.9 12 54.9 13.3H50.6C50.6 13.8 50.8 14.2 51 14.5C51.3 14.8 51.6 14.9 52 14.9C52.3 14.9 52.5 14.8 52.7 14.7C52.8 14.4 53 14.2 53.1 13.9ZM53.2 12.1C53.2 11.6 53.1 11.2 52.8 11C52.6 10.7 52.3 10.6 51.9 10.6C51.5 10.6 51.2 10.7 51 11C50.8 11.3 50.6 11.6 50.6 12.1H53.2Z" fill="white"/>
<path d="M55.4 9.40002H61.3V10.8H59.2V15.9H57.5V10.8H55.4V9.40002Z" fill="white"/>
<path d="M62.2 9.40002H63.9V13.5L66.5 9.40002H68.2V15.9H66.5V11.7L63.8 15.9H62.1V9.40002H62.2Z" fill="white"/>
<path d="M69.2 9.40002H75.1V10.8H73V15.9H71.3V10.8H69.2V9.40002Z" fill="white"/>
<path d="M79.9 13.9L81.6 14.2C81.4 14.8 81 15.3 80.6 15.6C80.2 15.9 79.5 16.1 78.8 16.1C77.7 16.1 76.8 15.7 76.3 15C75.9 14.4 75.7 13.7 75.7 12.8C75.7 11.7 76 10.9 76.5 10.3C77.1 9.70002 77.8 9.40002 78.6 9.40002C79.6 9.40002 80.3 9.70002 80.9 10.4C81.5 11 81.7 12 81.7 13.3H77.4C77.4 13.8 77.6 14.2 77.8 14.5C78.1 14.8 78.4 14.9 78.8 14.9C79.1 14.9 79.3 14.8 79.5 14.7C79.6 14.4 79.8 14.2 79.9 13.9ZM80 12.1C80 11.6 79.9 11.2 79.6 11C79.4 10.7 79.1 10.6 78.7 10.6C78.3 10.6 78 10.7 77.8 11C77.6 11.3 77.4 11.6 77.4 12.1H80Z" fill="white"/>
<path d="M86.6 9.40002H88.7L90.3 13.9L91.9 9.40002H94V15.9H92.5V11.6L90.9 15.9H89.4L87.9 11.6V15.9H86.4V9.40002H86.6Z" fill="white"/>
<path d="M99.6 13.9L101.3 14.2C101.1 14.8 100.7 15.3 100.3 15.6C99.9 15.9 99.2 16.1 98.5 16.1C97.4 16.1 96.5 15.7 96 15C95.6 14.4 95.4 13.7 95.4 12.8C95.4 11.7 95.7 10.9 96.2 10.3C96.8 9.70002 97.5 9.40002 98.3 9.40002C99.3 9.40002 100 9.70002 100.6 10.4C101.2 11 101.4 12 101.4 13.3H97.1C97.1 13.8 97.3 14.2 97.5 14.5C97.8 14.8 98.1 14.9 98.5 14.9C98.8 14.9 99 14.8 99.2 14.7C99.4 14.4 99.5 14.2 99.6 13.9ZM99.7 12.1C99.7 11.6 99.6 11.2 99.3 11C99.1 10.7 98.8 10.6 98.4 10.6C98 10.6 97.7 10.7 97.5 11C97.3 11.3 97.1 11.6 97.1 12.1H99.7Z" fill="white"/>
<path d="M102.7 9.40002H104.4V11.8H106.9V9.40002H108.6V15.9H106.9V13.2H104.4V15.9H102.7V9.40002Z" fill="white"/>
<path d="M115.9 9.40002V15.9H114.2V13.2H114.1C113.7 13.2 113.5 13.2 113.3 13.3C113.1 13.4 112.9 13.6 112.7 13.9L112.6 14L111.5 15.8H109.5L110.7 13.9C111.1 13.4 111.4 13.1 111.7 13C111.2 13 110.8 12.8 110.5 12.5C110.2 12.2 110 11.7 110 11.2C110 10.8 110.1 10.4 110.3 10.1C110.5 9.80001 110.8 9.6 111.1 9.5C111.4 9.4 111.9 9.30002 112.6 9.30002H115.9V9.40002ZM114.2 10.5H113C112.5 10.5 112.2 10.6 112 10.7C111.8 10.8 111.7 11 111.7 11.3C111.7 11.6 111.8 11.8 112 11.9C112.2 12 112.5 12.1 113 12.1H114.1V10.5H114.2Z" fill="white"/>
<path d="M13.5986 16.5714C12.1202 16.5936 10.6419 16.5803 9.16791 16.4822C8.74426 16.4554 8.3206 16.4198 7.90136 16.3261C7.0364 16.1389 6.52449 15.5904 6.36562 14.7254C6.10525 13.3031 6.06994 11.8629 6.11849 10.4227C6.14938 9.57559 6.20233 8.73289 6.34797 7.8991C6.51566 6.94493 7.11143 6.25829 8.31619 6.14682C10.536 5.94172 12.7646 5.9105 14.9932 5.95063C15.9861 5.96847 16.979 5.99522 17.9676 6.05764C18.4662 6.08885 18.9693 6.11115 19.4503 6.24937C20.3285 6.50352 20.7522 7.15003 20.8802 8.03287C21.1229 9.74502 21.1538 11.4661 21.0258 13.1872C20.9817 13.7579 20.9375 14.3241 20.7963 14.8815C20.5933 15.6974 19.9887 16.2325 19.1679 16.3573C18.2059 16.5 17.235 16.5357 16.2685 16.5669C15.3771 16.5936 14.4857 16.5714 13.5986 16.5714ZM12.0673 13.526C13.3824 12.768 14.671 12.0279 15.9861 11.2744C14.6622 10.5119 13.3736 9.77623 12.0673 9.0227C12.0673 10.5342 12.0673 12.0101 12.0673 13.526Z" fill="#ED2326"/>
<path d="M13.5986 16.5714C12.1202 16.5936 10.6419 16.5803 9.16791 16.4822C8.74426 16.4554 8.3206 16.4198 7.90136 16.3261C7.0364 16.1389 6.52449 15.5904 6.36562 14.7254C6.10525 13.3031 6.06994 11.8629 6.11849 10.4227C6.14938 9.57559 6.20233 8.73289 6.34797 7.8991C6.51566 6.94493 7.11143 6.25829 8.31619 6.14682C10.536 5.94172 12.7646 5.9105 14.9932 5.95063C15.9861 5.96847 16.979 5.99522 17.9676 6.05764C18.4662 6.08885 18.9693 6.11115 19.4503 6.24937C20.3285 6.50352 20.7522 7.15003 20.8802 8.03287C21.1229 9.74502 21.1538 11.4661 21.0258 13.1872C20.9817 13.7579 20.9375 14.3241 20.7963 14.8815C20.5933 15.6974 19.9887 16.2325 19.1679 16.3573C18.2059 16.5 17.235 16.5357 16.2685 16.5669C15.3771 16.5936 14.4857 16.5714 13.5986 16.5714ZM12.0673 13.526C13.3824 12.768 14.671 12.0279 15.9861 11.2744C14.6622 10.5119 13.3736 9.77623 12.0673 9.0227C12.0673 10.5342 12.0673 12.0101 12.0673 13.526Z" fill="white"/>
</g>
</svg>
