<svg width="131" height="23" viewBox="0 0 131 23" fill="none" xmlns="http://www.w3.org/2000/svg">
<mask id="mask0" mask-type="alpha" maskUnits="userSpaceOnUse" x="0" y="0" width="131" height="23">
<path d="M126.3 0H3.8C1.7 0 0 1.69999 0 3.79999V19.2C0 21.3 1.7 23 3.8 23H126.3C128.4 23 130.1 21.3 130.1 19.2V3.79999C130.1 1.69999 128.4 0 126.3 0Z" fill="#4367AF"/>
</mask>
<g mask="url(#mask0)">
<rect x="-1" width="131" height="23" fill="#0274B3"/>
<rect x="-1" width="131" height="23" fill="#E36021"/>
<rect x="-1" width="131" height="23" fill="#ED2326"/>
<path d="M25.9 7.10001H29.5C30.2 7.10001 30.7 7.09998 31.1 7.19998C31.4 7.29998 31.8 7.40001 32 7.60001C32.2 7.80001 32.5 7.99999 32.7 8.39999C32.9 8.79999 33 9.09999 33 9.39999C33 9.79999 32.9 10.2 32.7 10.6C32.5 11 32.2 11.2 31.8 11.4C32.3 11.6 32.8 11.8 33.1 12.2C33.4 12.6 33.5 13 33.5 13.6C33.5 14 33.4 14.4 33.2 14.8C33 15.2 32.8 15.5 32.4 15.7C32.1 15.9 31.7 16.1 31.2 16.1C30.9 16.1 30.2 16.2 29 16.2H25.9V7.10001ZM27.7 8.60001V10.7H28.9C29.6 10.7 30 10.7 30.2 10.7C30.5 10.7 30.8 10.6 30.9 10.4C31.1 10.2 31.2 9.99998 31.2 9.69998C31.2 9.39998 31.1 9.2 31 9C30.8 8.8 30.6 8.69998 30.3 8.69998C30.1 8.69998 29.6 8.69998 28.8 8.69998H27.7V8.60001ZM27.7 12.1V14.5H29.4C30.1 14.5 30.5 14.5 30.6 14.4C30.9 14.4 31.1 14.2 31.3 14C31.5 13.8 31.6 13.6 31.6 13.2C31.6 12.9 31.5 12.7 31.4 12.5C31.3 12.3 31.1 12.2 30.8 12.1C30.5 12 30 12 29.2 12H27.7V12.1Z" fill="white"/>
<path d="M38.7 14L40.4 14.3C40.2 14.9 39.8 15.4 39.4 15.7C39 16 38.3 16.2 37.6 16.2C36.5 16.2 35.6 15.8 35.1 15.1C34.7 14.5 34.5 13.8 34.5 12.9C34.5 11.8 34.8 11 35.3 10.4C35.9 9.79999 36.6 9.5 37.4 9.5C38.4 9.5 39.1 9.8 39.7 10.5C40.3 11.1 40.5 12.1 40.5 13.4H36.2C36.2 13.9 36.4 14.3 36.6 14.6C36.9 14.9 37.2 15 37.6 15C37.9 15 38.1 14.9 38.3 14.8C38.4 14.5 38.6 14.3 38.7 14ZM38.8 12.2C38.8 11.7 38.7 11.3 38.4 11.1C38.2 10.8 37.9 10.7 37.5 10.7C37.1 10.7 36.8 10.8 36.6 11.1C36.4 11.4 36.2 11.7 36.2 12.2H38.8Z" fill="white"/>
<path d="M47.8 16H46.1V12.7C46.1 12 46.1 11.5 46 11.3C45.9 11.1 45.8 10.9 45.6 10.8C45.4 10.7 45.2 10.6 45 10.6C44.7 10.6 44.4 10.7 44.2 10.8C44 11 43.8 11.2 43.7 11.4C43.6 11.7 43.6 12.2 43.6 12.9V15.8H41.9V9.29999H43.5V10.3C44.1 9.59999 44.8 9.19998 45.6 9.19998C46 9.19998 46.3 9.29999 46.6 9.39999C46.9 9.49999 47.2 9.69999 47.3 9.89999C47.5 10.1 47.6 10.4 47.6 10.6C47.6 10.8 47.7 11.3 47.7 11.8V16H47.8Z" fill="white"/>
<path d="M49.5 8.69998V7.10001H51.2V8.69998H49.5ZM49.5 16V9.5H51.2V16H49.5Z" fill="white"/>
<path d="M55.8 16V14.7L58.2 11.9C58.6 11.4 58.9 11.1 59.1 10.9C58.9 10.9 58.6 10.9 58.3 10.9H56V9.5H61.4V10.7L58.9 13.6L58 14.5C58.5 14.5 58.8 14.5 58.9 14.5H61.6V16H55.8Z" fill="white"/>
<path d="M62.8 8.69998V7.10001H64.5V8.69998H62.8ZM62.8 16V9.5H64.5V16H62.8Z" fill="white"/>
<path d="M65.4 9.5H67.2L68.8 14.1L70.3 9.5H72.1L69.8 15.8L69.4 16.9C69.2 17.3 69.1 17.6 69 17.8C68.9 18 68.7 18.2 68.5 18.3C68.3 18.4 68.1 18.5 67.8 18.6C67.5 18.7 67.2 18.7 66.9 18.7C66.6 18.7 66.2 18.7 65.9 18.6L65.7 17.3C66 17.4 66.2 17.4 66.4 17.4C66.8 17.4 67.1 17.3 67.3 17C67.5 16.8 67.6 16.5 67.7 16.1L65.4 9.5Z" fill="white"/>
<path d="M74.5 11.5L72.9 11.2C73.1 10.6 73.4 10.1 73.8 9.79999C74.2 9.49999 74.9 9.29999 75.7 9.29999C76.5 9.29999 77 9.40001 77.4 9.60001C77.8 9.80001 78 9.99999 78.2 10.3C78.4 10.6 78.4 11.1 78.4 11.8V13.8C78.4 14.4 78.4 14.8 78.5 15.1C78.6 15.4 78.7 15.7 78.8 16H77.1C77.1 15.9 77 15.7 76.9 15.5C76.9 15.4 76.9 15.3 76.8 15.3C76.5 15.6 76.2 15.8 75.9 15.9C75.6 16 75.2 16.1 74.8 16.1C74.1 16.1 73.6 15.9 73.2 15.6C72.8 15.3 72.6 14.8 72.6 14.2C72.6 13.8 72.7 13.5 72.9 13.2C73.1 12.9 73.3 12.7 73.6 12.5C73.9 12.3 74.4 12.2 75 12.1C75.8 11.9 76.4 11.8 76.7 11.7V11.5C76.7 11.2 76.6 10.9 76.5 10.8C76.3 10.7 76 10.6 75.6 10.6C75.3 10.6 75.1 10.7 74.9 10.8C74.8 11 74.6 11.2 74.5 11.5ZM76.8 12.9C76.6 13 76.2 13.1 75.8 13.2C75.3 13.3 75 13.4 74.9 13.5C74.7 13.7 74.6 13.9 74.6 14.1C74.6 14.3 74.7 14.5 74.9 14.7C75.1 14.9 75.3 15 75.6 15C75.9 15 76.2 14.9 76.5 14.7C76.7 14.5 76.8 14.4 76.9 14.1C76.9 14 77 13.7 77 13.3V12.9H76.8Z" fill="white"/>
<path d="M81.8 16H80.1V9.5H81.7V10.4C82 9.99999 82.2 9.7 82.4 9.5C82.6 9.3 82.9 9.29999 83.1 9.29999C83.5 9.29999 83.9 9.40001 84.2 9.60001L83.7 11.1C83.4 10.9 83.1 10.8 82.9 10.8C82.7 10.8 82.5 10.9 82.3 11C82.1 11.1 82 11.4 81.9 11.7C81.8 12 81.8 12.8 81.8 13.9V16Z" fill="white"/>
<path d="M88.8 14L90.5 14.3C90.3 14.9 89.9 15.4 89.5 15.7C89.1 16 88.4 16.2 87.7 16.2C86.6 16.2 85.7 15.8 85.2 15.1C84.8 14.5 84.6 13.8 84.6 12.9C84.6 11.8 84.9 11 85.4 10.4C86 9.79999 86.7 9.5 87.5 9.5C88.5 9.5 89.2 9.8 89.8 10.5C90.4 11.1 90.6 12.1 90.6 13.4H86.3C86.3 13.9 86.5 14.3 86.7 14.6C87 14.9 87.3 15 87.7 15C88 15 88.2 14.9 88.4 14.8C88.6 14.5 88.7 14.3 88.8 14ZM88.9 12.2C88.9 11.7 88.8 11.3 88.5 11.1C88.3 10.8 88 10.7 87.6 10.7C87.2 10.7 86.9 10.8 86.7 11.1C86.5 11.4 86.3 11.7 86.3 12.2H88.9Z" fill="white"/>
<path d="M95 9.5V10.9H93.8V13.5C93.8 14 93.8 14.3 93.8 14.4C93.8 14.5 93.9 14.6 94 14.6C94.1 14.7 94.2 14.7 94.3 14.7C94.5 14.7 94.7 14.6 95 14.5L95.1 15.8C94.7 16 94.2 16.1 93.7 16.1C93.4 16.1 93.1 16 92.9 15.9C92.7 15.8 92.5 15.7 92.4 15.5C92.3 15.3 92.2 15.1 92.2 14.8C92.2 14.6 92.1 14.2 92.1 13.6V10.8H91.3V9.39999H92.1V8.10001L93.8 7.10001V9.39999H95V9.5Z" fill="white"/>
<path d="M103.5 14L105.2 14.3C105 14.9 104.6 15.4 104.2 15.7C103.7 16 103.1 16.2 102.4 16.2C101.3 16.2 100.4 15.8 99.9 15.1C99.5 14.5 99.3 13.8 99.3 12.9C99.3 11.8 99.6 11 100.1 10.4C100.7 9.79999 101.4 9.5 102.2 9.5C103.2 9.5 103.9 9.8 104.5 10.5C105.1 11.1 105.3 12.1 105.3 13.4H101C101 13.9 101.2 14.3 101.4 14.6C101.7 14.9 102 15 102.4 15C102.7 15 102.9 14.9 103.1 14.8C103.2 14.5 103.4 14.3 103.5 14ZM103.6 12.2C103.6 11.7 103.5 11.3 103.2 11.1C103 10.8 102.7 10.7 102.3 10.7C101.9 10.7 101.6 10.8 101.4 11.1C101.2 11.4 101 11.7 101 12.2H103.6Z" fill="white"/>
<path d="M112.6 16H111V15C110.7 15.4 110.4 15.6 110.1 15.8C109.7 16 109.4 16.1 109 16.1C108.3 16.1 107.6 15.8 107.1 15.2C106.6 14.6 106.3 13.8 106.3 12.7C106.3 11.6 106.6 10.8 107.1 10.2C107.6 9.59998 108.3 9.29999 109.1 9.29999C109.8 9.29999 110.5 9.59998 111 10.2V7H112.7V16H112.6ZM108 12.7C108 13.4 108.1 13.9 108.3 14.2C108.6 14.6 109 14.9 109.5 14.9C109.9 14.9 110.2 14.7 110.5 14.4C110.8 14.1 110.9 13.6 110.9 12.9C110.9 12.2 110.8 11.6 110.5 11.3C110.2 11 109.9 10.8 109.5 10.8C109.1 10.8 108.7 11 108.5 11.3C108.2 11.5 108 12 108 12.7Z" fill="white"/>
<path d="M114.3 8.69998V7.10001H116V8.69998H114.3ZM114.3 16V9.5H116V16H114.3Z" fill="white"/>
<path d="M123.7 16H122V12.7C122 12 122 11.5 121.9 11.3C121.8 11.1 121.7 10.9 121.5 10.8C121.3 10.7 121.1 10.6 120.9 10.6C120.6 10.6 120.3 10.7 120.1 10.8C119.9 11 119.7 11.2 119.6 11.4C119.5 11.7 119.5 12.2 119.5 12.9V15.8H117.8V9.29999H119.4V10.3C120 9.59999 120.7 9.19998 121.5 9.19998C121.9 9.19998 122.2 9.29999 122.5 9.39999C122.8 9.49999 123.1 9.69999 123.2 9.89999C123.4 10.1 123.5 10.4 123.5 10.6C123.5 10.8 123.6 11.3 123.6 11.8V16H123.7Z" fill="white"/>
<path d="M13.5986 16.5714C12.1202 16.5936 10.6419 16.5803 9.16791 16.4822C8.74426 16.4554 8.3206 16.4198 7.90136 16.3261C7.0364 16.1389 6.52449 15.5904 6.36562 14.7254C6.10525 13.3031 6.06994 11.8629 6.11849 10.4227C6.14938 9.57559 6.20233 8.73289 6.34797 7.8991C6.51566 6.94493 7.11143 6.25829 8.31619 6.14682C10.536 5.94172 12.7646 5.9105 14.9932 5.95063C15.9861 5.96847 16.979 5.99522 17.9676 6.05764C18.4662 6.08885 18.9693 6.11115 19.4503 6.24937C20.3285 6.50352 20.7522 7.15003 20.8802 8.03287C21.1229 9.74502 21.1538 11.4661 21.0258 13.1872C20.9817 13.7579 20.9375 14.3241 20.7963 14.8815C20.5933 15.6974 19.9887 16.2325 19.1679 16.3573C18.2059 16.5 17.235 16.5357 16.2685 16.5669C15.3771 16.5936 14.4857 16.5714 13.5986 16.5714ZM12.0673 13.526C13.3824 12.768 14.671 12.0279 15.9861 11.2744C14.6622 10.5119 13.3736 9.77623 12.0673 9.0227C12.0673 10.5342 12.0673 12.0101 12.0673 13.526Z" fill="#ED2326"/>
<path d="M13.5986 16.5714C12.1202 16.5936 10.6419 16.5803 9.16791 16.4822C8.74426 16.4554 8.3206 16.4198 7.90136 16.3261C7.0364 16.1389 6.52449 15.5904 6.36562 14.7254C6.10525 13.3031 6.06994 11.8629 6.11849 10.4227C6.14938 9.57559 6.20233 8.73289 6.34797 7.8991C6.51566 6.94493 7.11143 6.25829 8.31619 6.14682C10.536 5.94172 12.7646 5.9105 14.9932 5.95063C15.9861 5.96847 16.979 5.99522 17.9676 6.05764C18.4662 6.08885 18.9693 6.11115 19.4503 6.24937C20.3285 6.50352 20.7522 7.15003 20.8802 8.03287C21.1229 9.74502 21.1538 11.4661 21.0258 13.1872C20.9817 13.7579 20.9375 14.3241 20.7963 14.8815C20.5933 15.6974 19.9887 16.2325 19.1679 16.3573C18.2059 16.5 17.235 16.5357 16.2685 16.5669C15.3771 16.5936 14.4857 16.5714 13.5986 16.5714ZM12.0673 13.526C13.3824 12.768 14.671 12.0279 15.9861 11.2744C14.6622 10.5119 13.3736 9.77623 12.0673 9.0227C12.0673 10.5342 12.0673 12.0101 12.0673 13.526Z" fill="white"/>
</g>
</svg>
