<svg width="108" height="23" viewBox="0 0 108 23" fill="none" xmlns="http://www.w3.org/2000/svg">
<mask id="mask0" mask-type="alpha" maskUnits="userSpaceOnUse" x="0" y="0" width="108" height="23">
<path d="M103.3 0H3.79999C1.69999 0 0 1.69999 0 3.79999V19.2C0 21.3 1.69999 23 3.79999 23H103.3C105.4 23 107.1 21.3 107.1 19.2V3.79999C107.1 1.69999 105.4 0 103.3 0Z" fill="#4367AF"/>
</mask>
<g mask="url(#mask0)">
<rect width="107" height="23" fill="#0274B3"/>
<rect width="107" height="23" fill="#E36021"/>
<rect width="107" height="23" fill="#ED2326"/>
<path d="M25.9 11.5C25.9 10.6 26 9.79998 26.3 9.19998C26.5 8.69998 26.8 8.3 27.1 8C27.4 7.6 27.8 7.39998 28.2 7.19998C28.8 6.99998 29.4 6.79999 30.1 6.79999C31.4 6.79999 32.5 7.2 33.2 8C34 8.8 34.4 9.89999 34.4 11.4C34.4 12.8 34 14 33.2 14.8C32.4 15.6 31.4 16 30.1 16C28.8 16 27.7 15.6 27 14.8C26.3 14.1 25.9 13 25.9 11.5ZM27.8 11.5C27.8 12.5 28 13.3 28.5 13.8C29 14.3 29.6 14.6 30.3 14.6C31 14.6 31.6 14.3 32.1 13.8C32.6 13.3 32.8 12.5 32.8 11.5C32.8 10.5 32.6 9.69998 32.1 9.19998C31.7 8.69998 31.1 8.39999 30.3 8.39999C29.6 8.39999 29 8.69998 28.5 9.19998C28 9.69998 27.8 10.5 27.8 11.5Z" fill="white"/>
<path d="M41.8 15.9H40.2V15C39.9 15.4 39.6 15.6 39.3 15.8C38.9 16 38.6 16.1 38.2 16.1C37.5 16.1 36.8 15.8 36.3 15.2C35.8 14.6 35.5 13.8 35.5 12.7C35.5 11.6 35.8 10.8 36.3 10.2C36.8 9.59998 37.5 9.29999 38.2 9.29999C38.9 9.29999 39.5 9.59998 40.1 10.2V7H41.8V15.9ZM37.3 12.6C37.3 13.3 37.4 13.8 37.6 14.1C37.9 14.5 38.3 14.8 38.8 14.8C39.2 14.8 39.5 14.6 39.8 14.3C40.1 14 40.2 13.5 40.2 12.8C40.2 12.1 40.1 11.5 39.8 11.2C39.5 10.9 39.2 10.7 38.8 10.7C38.4 10.7 38.1 10.9 37.8 11.2C37.4 11.5 37.3 11.9 37.3 12.6Z" fill="white"/>
<path d="M44.7 15.9L42.7 9.5H44.4L45.6 13.7L46.7 9.5H48.3L49.4 13.7L50.6 9.5H52.3L50.2 15.9H48.6L47.5 11.8L46.4 15.9H44.7Z" fill="white"/>
<path d="M53.2 8.59998V7H54.9V8.59998H53.2ZM53.2 15.9V9.5H54.9V15.9H53.2Z" fill="white"/>
<path d="M60.3 13.9L62 14.2C61.8 14.8 61.4 15.3 61 15.6C60.5 15.9 59.9 16.1 59.2 16.1C58.1 16.1 57.3 15.7 56.7 15C56.3 14.4 56.1 13.7 56.1 12.8C56.1 11.7 56.4 10.9 56.9 10.3C57.5 9.69999 58.2 9.39999 59 9.39999C60 9.39999 60.7 9.69999 61.3 10.3C61.9 10.9 62.1 11.9 62.1 13.2H57.8C57.8 13.7 57.9 14.1 58.2 14.4C58.5 14.7 58.8 14.8 59.2 14.8C59.5 14.8 59.7 14.7 59.9 14.6C60.1 14.4 60.2 14.2 60.3 13.9ZM60.4 12.2C60.4 11.7 60.3 11.3 60 11.1C59.8 10.8 59.5 10.7 59.1 10.7C58.7 10.7 58.4 10.8 58.2 11.1C58 11.4 57.8 11.7 57.8 12.2H60.4Z" fill="white"/>
<path d="M69.4 15.9H67.8V15C67.5 15.4 67.2 15.6 66.9 15.8C66.5 16 66.2 16.1 65.8 16.1C65.1 16.1 64.4 15.8 63.9 15.2C63.4 14.6 63.1 13.8 63.1 12.7C63.1 11.6 63.4 10.8 63.9 10.2C64.4 9.59998 65.1 9.29999 65.8 9.29999C66.5 9.29999 67.1 9.59998 67.7 10.2V7H69.4V15.9ZM64.9 12.6C64.9 13.3 65 13.8 65.2 14.1C65.5 14.5 65.9 14.8 66.4 14.8C66.8 14.8 67.1 14.6 67.4 14.3C67.7 14 67.8 13.5 67.8 12.8C67.8 12.1 67.7 11.5 67.4 11.2C67.1 10.9 66.8 10.7 66.4 10.7C66 10.7 65.7 10.9 65.4 11.2C65 11.5 64.9 11.9 64.9 12.6Z" fill="white"/>
<path d="M70.4 15.9V14.6L72.8 11.8C73.2 11.3 73.5 11 73.7 10.8C73.5 10.8 73.2 10.8 72.9 10.8H70.6V9.39999H75.9V10.6L73.4 13.4L72.5 14.3C73 14.3 73.3 14.3 73.4 14.3H76V15.8H70.4V15.9ZM72.1 8.69998L72.9 6.89999H74.8L73.1 8.69998H72.1Z" fill="white"/>
<path d="M86.6 15.9H84.9V12.6C84.9 11.9 84.9 11.5 84.8 11.3C84.7 11.1 84.6 10.9 84.4 10.8C84.2 10.7 84 10.6 83.8 10.6C83.5 10.6 83.2 10.7 83 10.8C82.8 11 82.6 11.2 82.5 11.4C82.4 11.7 82.4 12.2 82.4 12.9V15.8H80.7V9.39999H82.3V10.3C82.9 9.59999 83.6 9.19998 84.4 9.19998C84.8 9.19998 85.1 9.29999 85.4 9.39999C85.7 9.49999 85.9 9.69999 86.1 9.89999C86.3 10.1 86.4 10.3 86.4 10.6C86.5 10.9 86.5 11.2 86.5 11.7V15.9H86.6Z" fill="white"/>
<path d="M89.6 11.5L88.1 11.2C88.3 10.6 88.6 10.1 89 9.79999C89.4 9.49999 90.1 9.39999 90.9 9.39999C91.7 9.39999 92.2 9.49998 92.6 9.69998C93 9.89998 93.2 10.1 93.4 10.4C93.6 10.7 93.6 11.2 93.6 11.9V13.9C93.6 14.5 93.6 14.9 93.7 15.2C93.8 15.5 93.9 15.8 94 16.1H92.3C92.3 16 92.2 15.8 92.1 15.6C92.1 15.5 92.1 15.4 92 15.4C91.7 15.7 91.4 15.9 91.1 16C90.8 16.1 90.4 16.2 90 16.2C89.3 16.2 88.8 16 88.4 15.7C88 15.3 87.8 14.9 87.8 14.3C87.8 13.9 87.9 13.6 88.1 13.3C88.3 13 88.5 12.8 88.8 12.6C89.1 12.4 89.6 12.3 90.2 12.2C91 12.1 91.5 11.9 91.9 11.8V11.6C91.9 11.3 91.8 11 91.7 10.9C91.5 10.8 91.2 10.7 90.8 10.7C90.5 10.7 90.3 10.8 90.1 10.9C89.8 10.9 89.7 11.2 89.6 11.5ZM91.9 12.8C91.7 12.9 91.3 13 90.9 13.1C90.5 13.2 90.1 13.3 90 13.4C89.8 13.6 89.7 13.8 89.7 14C89.7 14.2 89.8 14.4 90 14.6C90.2 14.8 90.4 14.9 90.7 14.9C91 14.9 91.3 14.8 91.6 14.6C91.8 14.4 91.9 14.3 92 14C92 13.9 92.1 13.6 92.1 13.2V12.8H91.9Z" fill="white"/>
<path d="M94.6 14.1L96.3 13.8C96.4 14.1 96.5 14.4 96.7 14.6C96.9 14.8 97.2 14.9 97.6 14.9C98 14.9 98.4 14.8 98.6 14.7C98.8 14.6 98.8 14.4 98.8 14.2C98.8 14.1 98.8 14 98.7 13.9C98.6 13.8 98.4 13.7 98.1 13.7C96.7 13.4 95.9 13.1 95.5 12.9C95 12.6 94.7 12.1 94.7 11.5C94.7 10.9 94.9 10.5 95.4 10.1C95.9 9.69998 96.5 9.5 97.4 9.5C98.3 9.5 98.9 9.59999 99.4 9.89999C99.8 10.2 100.1 10.6 100.3 11.2L98.7 11.5C98.6 11.2 98.5 11.1 98.3 10.9C98.1 10.8 97.8 10.7 97.5 10.7C97.1 10.7 96.7 10.8 96.5 10.9C96.4 11 96.3 11.1 96.3 11.2C96.3 11.3 96.4 11.4 96.5 11.5C96.7 11.6 97.2 11.8 98.1 12C99 12.2 99.6 12.5 100 12.8C100.4 13.1 100.5 13.5 100.5 14.1C100.5 14.7 100.3 15.2 99.8 15.6C99.3 16 98.6 16.2 97.6 16.2C96.7 16.2 96 16 95.5 15.7C95.1 15.2 94.8 14.7 94.6 14.1Z" fill="white"/>
<path d="M13.5986 16.5714C12.1202 16.5936 10.6419 16.5803 9.16791 16.4822C8.74426 16.4554 8.3206 16.4198 7.90136 16.3261C7.0364 16.1389 6.52449 15.5904 6.36562 14.7254C6.10525 13.3031 6.06994 11.8629 6.11849 10.4227C6.14938 9.57559 6.20233 8.73289 6.34797 7.8991C6.51566 6.94493 7.11143 6.25829 8.31619 6.14682C10.536 5.94172 12.7646 5.9105 14.9932 5.95063C15.9861 5.96847 16.979 5.99522 17.9676 6.05764C18.4662 6.08885 18.9693 6.11115 19.4503 6.24937C20.3285 6.50352 20.7522 7.15003 20.8802 8.03287C21.1229 9.74502 21.1538 11.4661 21.0258 13.1872C20.9817 13.7579 20.9375 14.3241 20.7963 14.8815C20.5933 15.6974 19.9887 16.2325 19.1679 16.3573C18.2059 16.5 17.235 16.5357 16.2685 16.5669C15.3771 16.5936 14.4857 16.5714 13.5986 16.5714ZM12.0673 13.526C13.3824 12.768 14.671 12.0279 15.9861 11.2744C14.6622 10.5119 13.3736 9.77623 12.0673 9.0227C12.0673 10.5342 12.0673 12.0101 12.0673 13.526Z" fill="#ED2326"/>
<path d="M13.5986 16.5714C12.1202 16.5936 10.6419 16.5803 9.16791 16.4822C8.74426 16.4554 8.3206 16.4198 7.90136 16.3261C7.0364 16.1389 6.52449 15.5904 6.36562 14.7254C6.10525 13.3031 6.06994 11.8629 6.11849 10.4227C6.14938 9.57559 6.20233 8.73289 6.34797 7.8991C6.51566 6.94493 7.11143 6.25829 8.31619 6.14682C10.536 5.94172 12.7646 5.9105 14.9932 5.95063C15.9861 5.96847 16.979 5.99522 17.9676 6.05764C18.4662 6.08885 18.9693 6.11115 19.4503 6.24937C20.3285 6.50352 20.7522 7.15003 20.8802 8.03287C21.1229 9.74502 21.1538 11.4661 21.0258 13.1872C20.9817 13.7579 20.9375 14.3241 20.7963 14.8815C20.5933 15.6974 19.9887 16.2325 19.1679 16.3573C18.2059 16.5 17.235 16.5357 16.2685 16.5669C15.3771 16.5936 14.4857 16.5714 13.5986 16.5714ZM12.0673 13.526C13.3824 12.768 14.671 12.0279 15.9861 11.2744C14.6622 10.5119 13.3736 9.77623 12.0673 9.0227C12.0673 10.5342 12.0673 12.0101 12.0673 13.526Z" fill="white"/>
</g>
</svg>
