<svg width="88" height="23" viewBox="0 0 88 23" fill="none" xmlns="http://www.w3.org/2000/svg">
<mask id="mask0" mask-type="alpha" maskUnits="userSpaceOnUse" x="0" y="0" width="88" height="23">
<path d="M83.3 0H3.8C1.7 0 0 1.70002 0 3.80002V19.2C0 21.3 1.7 23 3.8 23H83.3C85.4 23 87.1 21.3 87.1 19.2V3.70001C87.1 1.70001 85.4 0 83.3 0Z" fill="#4367AF"/>
</mask>
<g mask="url(#mask0)">
<rect x="-1" width="88" height="23" fill="#0274B3"/>
<rect x="-1" width="88" height="23" fill="#E36021"/>
<rect x="-1" width="88" height="23" fill="#ED2326"/>
<path d="M29.1 16L25.9 7H27.9L30.2 13.6L32.4 7H34.3L31.1 16H29.1Z" fill="white"/>
<path d="M34.9 8.59998V7H36.6V8.59998H34.9ZM34.9 16V9.5H36.6V16H34.9Z" fill="white"/>
<path d="M37.8 14.1L39.5 13.8C39.6 14.1 39.7 14.4 39.9 14.6C40.1 14.8 40.4 14.9 40.8 14.9C41.2 14.9 41.6 14.8 41.8 14.7C42 14.6 42 14.4 42 14.2C42 14.1 42 14 41.9 13.9C41.8 13.8 41.6 13.7 41.3 13.7C39.9 13.4 39 13.1 38.7 12.9C38.2 12.5 37.9 12.1 37.9 11.4C37.9 10.8 38.1 10.4 38.6 10C39 9.6 39.7 9.39999 40.7 9.39999C41.6 9.39999 42.2 9.49999 42.7 9.79999C43.1 10.1 43.4 10.5 43.6 11.1L42 11.4C41.9 11.1 41.8 11 41.6 10.8C41.4 10.7 41.1 10.6 40.8 10.6C40.3 10.6 40 10.7 39.8 10.8C39.7 10.9 39.6 11 39.6 11.1C39.6 11.2 39.7 11.3 39.8 11.4C40 11.5 40.5 11.7 41.4 11.9C42.3 12.1 43 12.4 43.3 12.7C43.7 13 43.8 13.4 43.8 14C43.8 14.6 43.6 15.1 43.1 15.5C42.6 15.9 41.9 16.1 40.9 16.1C40 16.1 39.3 15.9 38.8 15.6C38.3 15.3 38 14.7 37.8 14.1Z" fill="white"/>
<path d="M45.4 8.59998V7H47.1V8.59998H45.4ZM45.4 16V9.5H47.1V16H45.4Z" fill="white"/>
<path d="M51.8 9.5V10.9H50.6V13.5C50.6 14 50.6 14.3 50.6 14.4C50.6 14.5 50.7 14.6 50.8 14.6C50.9 14.7 51 14.7 51.1 14.7C51.3 14.7 51.5 14.6 51.8 14.5L51.9 15.8C51.5 16 51 16.1 50.5 16.1C50.2 16.1 49.9 16 49.7 15.9C49.5 15.8 49.3 15.7 49.2 15.5C49.1 15.3 49 15.1 49 14.8C49 14.6 48.9 14.2 48.9 13.6V10.8H48.1V9.39999H48.9V8.09998L50.6 7.09998V9.39999H51.8V9.5Z" fill="white"/>
<path d="M56.8 13.9L58.5 14.2C58.3 14.8 57.9 15.3 57.5 15.6C57.1 15.9 56.4 16.1 55.7 16.1C54.6 16.1 53.7 15.7 53.2 15C52.8 14.4 52.6 13.7 52.6 12.8C52.6 11.7 52.9 10.9 53.4 10.3C54 9.69999 54.7 9.39999 55.5 9.39999C56.5 9.39999 57.2 9.69999 57.8 10.4C58.4 11 58.6 12 58.6 13.3H54.3C54.3 13.8 54.5 14.2 54.7 14.5C55 14.8 55.3 14.9 55.7 14.9C56 14.9 56.2 14.8 56.4 14.7C56.6 14.5 56.7 14.2 56.8 13.9ZM56.9 12.2C56.9 11.7 56.8 11.3 56.5 11.1C56.3 10.8 56 10.7 55.6 10.7C55.2 10.7 54.9 10.8 54.7 11.1C54.5 11.4 54.3 11.7 54.3 12.2H56.9Z" fill="white"/>
<path d="M59.8 13.6V11.9H63.2V13.6H59.8Z" fill="white"/>
<path d="M64 9.5H65.6V10.4C66.2 9.69999 66.8 9.39999 67.6 9.39999C68 9.39999 68.4 9.49998 68.7 9.69998C69 9.89998 69.3 10.1 69.5 10.5C69.8 10.2 70.1 9.89998 70.4 9.69998C70.7 9.49998 71.1 9.39999 71.5 9.39999C72 9.39999 72.4 9.49998 72.7 9.69998C73 9.89998 73.3 10.2 73.4 10.6C73.5 10.9 73.6 11.3 73.6 11.9V16.1H71.9V12.4C71.9 11.8 71.8 11.3 71.7 11.2C71.5 11 71.3 10.8 71 10.8C70.8 10.8 70.5 10.9 70.3 11C70.1 11.1 69.9 11.4 69.8 11.6C69.7 11.9 69.7 12.3 69.7 12.9V16H68V12.4C68 11.8 68 11.4 67.9 11.2C67.8 11 67.7 10.9 67.6 10.8C67.5 10.7 67.3 10.7 67.1 10.7C66.8 10.7 66.6 10.8 66.4 10.9C66.2 11 66 11.2 65.9 11.5C65.8 11.8 65.8 12.2 65.8 12.8V16H64.1V9.5H64Z" fill="white"/>
<path d="M79.1 13.9L80.8 14.2C80.6 14.8 80.2 15.3 79.8 15.6C79.4 15.9 78.7 16.1 78 16.1C76.9 16.1 76 15.7 75.5 15C75.1 14.4 74.9 13.7 74.9 12.8C74.9 11.7 75.2 10.9 75.7 10.3C76.3 9.69999 77 9.39999 77.8 9.39999C78.8 9.39999 79.5 9.69999 80.1 10.4C80.7 11 80.9 12 80.9 13.3H76.6C76.6 13.8 76.8 14.2 77 14.5C77.3 14.8 77.6 14.9 78 14.9C78.3 14.9 78.5 14.8 78.7 14.7C78.9 14.5 79 14.2 79.1 13.9ZM79.2 12.2C79.2 11.7 79.1 11.3 78.8 11.1C78.6 10.8 78.3 10.7 77.9 10.7C77.5 10.7 77.2 10.8 77 11.1C76.8 11.4 76.6 11.7 76.6 12.2H79.2Z" fill="white"/>
<path d="M13.5986 16.5713C12.1202 16.5936 10.6419 16.5803 9.16791 16.4822C8.74426 16.4554 8.3206 16.4197 7.90136 16.3261C7.0364 16.1388 6.52449 15.5904 6.36562 14.7254C6.10525 13.3031 6.06994 11.8629 6.11849 10.4227C6.14938 9.57559 6.20233 8.73288 6.34797 7.8991C6.51566 6.94493 7.11143 6.25828 8.31619 6.14681C10.536 5.94171 12.7646 5.9105 14.9932 5.95063C15.9861 5.96846 16.979 5.99522 17.9676 6.05764C18.4662 6.08885 18.9693 6.11114 19.4503 6.24937C20.3285 6.50351 20.7522 7.15003 20.8802 8.03286C21.1229 9.74502 21.1538 11.4661 21.0258 13.1872C20.9817 13.7579 20.9375 14.3241 20.7963 14.8815C20.5933 15.6974 19.9887 16.2325 19.1679 16.3573C18.2059 16.5 17.235 16.5357 16.2685 16.5669C15.3771 16.5936 14.4857 16.5713 13.5986 16.5713ZM12.0673 13.526C13.3824 12.768 14.671 12.0279 15.9861 11.2744C14.6622 10.5119 13.3736 9.77623 12.0673 9.0227C12.0673 10.5342 12.0673 12.0101 12.0673 13.526Z" fill="#ED2326"/>
<path d="M13.5986 16.5713C12.1202 16.5936 10.6419 16.5803 9.16791 16.4822C8.74426 16.4554 8.3206 16.4197 7.90136 16.3261C7.0364 16.1388 6.52449 15.5904 6.36562 14.7254C6.10525 13.3031 6.06994 11.8629 6.11849 10.4227C6.14938 9.57559 6.20233 8.73288 6.34797 7.8991C6.51566 6.94493 7.11143 6.25828 8.31619 6.14681C10.536 5.94171 12.7646 5.9105 14.9932 5.95063C15.9861 5.96846 16.979 5.99522 17.9676 6.05764C18.4662 6.08885 18.9693 6.11114 19.4503 6.24937C20.3285 6.50351 20.7522 7.15003 20.8802 8.03286C21.1229 9.74502 21.1538 11.4661 21.0258 13.1872C20.9817 13.7579 20.9375 14.3241 20.7963 14.8815C20.5933 15.6974 19.9887 16.2325 19.1679 16.3573C18.2059 16.5 17.235 16.5357 16.2685 16.5669C15.3771 16.5936 14.4857 16.5713 13.5986 16.5713ZM12.0673 13.526C13.3824 12.768 14.671 12.0279 15.9861 11.2744C14.6622 10.5119 13.3736 9.77623 12.0673 9.0227C12.0673 10.5342 12.0673 12.0101 12.0673 13.526Z" fill="white"/>
</g>
</svg>
