<svg width="75" height="23" viewBox="0 0 75 23" fill="none" xmlns="http://www.w3.org/2000/svg">
<mask id="mask0" mask-type="alpha" maskUnits="userSpaceOnUse" x="0" y="0" width="75" height="23">
<path d="M70.3 0H3.79999C1.69999 0 0 1.69999 0 3.79999V19.2C0 21.3 1.69999 23 3.79999 23H70.3C72.4 23 74.1 21.3 74.1 19.2V3.79999C74.1 1.69999 72.4 0 70.3 0Z" fill="#4367AF"/>
</mask>
<g mask="url(#mask0)">
<rect width="74" height="23" fill="#0274B3"/>
<rect width="74" height="23" fill="#E36021"/>
<rect width="74" height="23" fill="#ED2326"/>
<path d="M28.6 15.9L25.4 7H27.3L29.5 13.6L31.7 7H33.6L30.4 15.9H28.6Z" fill="white"/>
<path d="M34.3 8.59998V7H36V8.59998H34.3ZM34.3 15.9V9.5H36V15.9H34.3Z" fill="white"/>
<path d="M37.2 14L38.9 13.7C39 14 39.1 14.3 39.3 14.5C39.5 14.7 39.8 14.8 40.2 14.8C40.6 14.8 41 14.7 41.2 14.6C41.3 14.5 41.4 14.3 41.4 14.1C41.4 14 41.4 13.9 41.3 13.8C41.2 13.7 41 13.6 40.7 13.6C39.3 13.3 38.5 13 38.1 12.8C37.6 12.5 37.3 12 37.3 11.4C37.3 10.8 37.5 10.4 38 10C38.4 9.6 39.1 9.39999 40 9.39999C40.9 9.39999 41.5 9.49999 42 9.79999C42.4 10.1 42.7 10.5 42.9 11.1L41.3 11.4C41.2 11.1 41.1 11 40.9 10.8C40.7 10.7 40.4 10.6 40.1 10.6C39.7 10.6 39.3 10.7 39.1 10.8C39 10.9 38.9 11 38.9 11.1C38.9 11.2 39 11.3 39.1 11.4C39.3 11.5 39.8 11.7 40.7 11.9C41.6 12.1 42.2 12.4 42.6 12.7C43 13 43.1 13.4 43.1 14C43.1 14.6 42.9 15.1 42.4 15.5C41.9 15.9 41.2 16.1 40.2 16.1C39.3 16.1 38.6 15.9 38.1 15.6C37.7 15.1 37.3 14.6 37.2 14Z" fill="white"/>
<path d="M44.7 8.59998V7H46.4V8.59998H44.7ZM44.7 15.9V9.5H46.4V15.9H44.7Z" fill="white"/>
<path d="M51.1 9.39999V10.8H49.9V13.4C49.9 13.9 49.9 14.2 49.9 14.3C49.9 14.4 50 14.5 50.1 14.5C50.2 14.6 50.3 14.6 50.4 14.6C50.6 14.6 50.8 14.5 51.1 14.4L51.2 15.7C50.8 15.9 50.4 16 49.9 16C49.6 16 49.3 15.9 49.1 15.8C48.9 15.7 48.7 15.6 48.6 15.4C48.5 15.2 48.4 15 48.4 14.7C48.4 14.5 48.3 14.1 48.3 13.5V10.7H47.5V9.29999H48.3V8L50 7V9.29999H51.1V9.39999Z" fill="white"/>
<path d="M53.5 11.4L52 11.1C52.2 10.5 52.5 9.99998 52.9 9.69998C53.3 9.39998 54 9.29999 54.8 9.29999C55.6 9.29999 56.1 9.39998 56.5 9.59998C56.9 9.79998 57.1 9.99999 57.3 10.3C57.5 10.6 57.5 11.1 57.5 11.8V13.8C57.5 14.4 57.5 14.8 57.6 15.1C57.7 15.4 57.8 15.7 57.9 16H56.2C56.2 15.9 56.1 15.7 56 15.5C56 15.4 56 15.3 55.9 15.3C55.6 15.6 55.3 15.8 55 15.9C54.7 16 54.3 16.1 53.9 16.1C53.2 16.1 52.7 15.9 52.3 15.6C51.9 15.2 51.7 14.8 51.7 14.2C51.7 13.8 51.8 13.5 52 13.2C52.2 12.9 52.4 12.7 52.7 12.5C53 12.3 53.5 12.2 54.1 12.1C54.9 12 55.4 11.8 55.8 11.7V11.5C55.8 11.2 55.7 10.9 55.6 10.8C55.4 10.7 55.1 10.6 54.7 10.6C54.4 10.6 54.2 10.7 54 10.8C53.8 10.9 53.6 11.1 53.5 11.4ZM55.8 12.8C55.6 12.9 55.2 13 54.8 13.1C54.3 13.2 54 13.3 53.9 13.4C53.7 13.6 53.6 13.8 53.6 14C53.6 14.2 53.7 14.4 53.9 14.6C54.1 14.8 54.3 14.9 54.6 14.9C54.9 14.9 55.2 14.8 55.5 14.6C55.7 14.4 55.8 14.3 55.9 14C55.9 13.9 56 13.6 56 13.2V12.8H55.8Z" fill="white"/>
<path d="M64.8 11.3L63.1 11.6C63 11.3 62.9 11 62.7 10.8C62.5 10.6 62.2 10.5 61.9 10.5C61.5 10.5 61.1 10.6 60.9 10.9C60.6 11.2 60.5 11.7 60.5 12.4C60.5 13.2 60.6 13.7 60.9 14C61.2 14.3 61.5 14.5 61.9 14.5C62.2 14.5 62.5 14.4 62.7 14.2C62.9 14 63.1 13.7 63.1 13.3L64.8 13.6C64.6 14.4 64.3 14.9 63.8 15.3C63.3 15.7 62.6 15.9 61.8 15.9C60.9 15.9 60.1 15.6 59.5 15C58.9 14.4 58.7 13.6 58.7 12.5C58.7 11.4 59 10.6 59.5 10C60.1 9.4 60.8 9.09998 61.8 9.09998C62.6 9.09998 63.2 9.29998 63.7 9.59998C64.2 10.1 64.6 10.6 64.8 11.3Z" fill="white"/>
<path d="M66.1 8.59998V7H67.8V8.59998H66.1ZM66.1 15.9V9.5H67.8V15.9H66.1Z" fill="white"/>
<path d="M13.5986 16.5713C12.1202 16.5936 10.6419 16.5803 9.16791 16.4822C8.74426 16.4554 8.3206 16.4198 7.90136 16.3261C7.0364 16.1389 6.52449 15.5904 6.36562 14.7254C6.10525 13.3031 6.06994 11.8629 6.11849 10.4227C6.14938 9.57559 6.20233 8.73289 6.34797 7.8991C6.51566 6.94493 7.11143 6.25828 8.31619 6.14682C10.536 5.94171 12.7646 5.9105 14.9932 5.95063C15.9861 5.96847 16.979 5.99522 17.9676 6.05764C18.4662 6.08885 18.9693 6.11115 19.4503 6.24937C20.3285 6.50352 20.7522 7.15003 20.8802 8.03286C21.1229 9.74502 21.1538 11.4661 21.0258 13.1872C20.9817 13.7579 20.9375 14.3241 20.7963 14.8815C20.5933 15.6974 19.9887 16.2325 19.1679 16.3573C18.2059 16.5 17.235 16.5357 16.2685 16.5669C15.3771 16.5936 14.4857 16.5713 13.5986 16.5713ZM12.0673 13.526C13.3824 12.768 14.671 12.0279 15.9861 11.2744C14.6622 10.5119 13.3736 9.77623 12.0673 9.0227C12.0673 10.5342 12.0673 12.0101 12.0673 13.526Z" fill="#ED2326"/>
<path d="M13.5986 16.5713C12.1202 16.5936 10.6419 16.5803 9.16791 16.4822C8.74426 16.4554 8.3206 16.4198 7.90136 16.3261C7.0364 16.1389 6.52449 15.5904 6.36562 14.7254C6.10525 13.3031 6.06994 11.8629 6.11849 10.4227C6.14938 9.57559 6.20233 8.73289 6.34797 7.8991C6.51566 6.94493 7.11143 6.25828 8.31619 6.14682C10.536 5.94171 12.7646 5.9105 14.9932 5.95063C15.9861 5.96847 16.979 5.99522 17.9676 6.05764C18.4662 6.08885 18.9693 6.11115 19.4503 6.24937C20.3285 6.50352 20.7522 7.15003 20.8802 8.03286C21.1229 9.74502 21.1538 11.4661 21.0258 13.1872C20.9817 13.7579 20.9375 14.3241 20.7963 14.8815C20.5933 15.6974 19.9887 16.2325 19.1679 16.3573C18.2059 16.5 17.235 16.5357 16.2685 16.5669C15.3771 16.5936 14.4857 16.5713 13.5986 16.5713ZM12.0673 13.526C13.3824 12.768 14.671 12.0279 15.9861 11.2744C14.6622 10.5119 13.3736 9.77623 12.0673 9.0227C12.0673 10.5342 12.0673 12.0101 12.0673 13.526Z" fill="white"/>
</g>
</svg>
