<svg width="69" height="23" viewBox="0 0 69 23" fill="none" xmlns="http://www.w3.org/2000/svg">
<mask id="mask0" mask-type="alpha" maskUnits="userSpaceOnUse" x="0" y="0" width="69" height="23">
<path d="M64.3 0H3.8C1.7 0 0 1.7 0 3.8V19.2C0 21.3 1.7 23 3.8 23H64.3C66.4 23 68.1 21.3 68.1 19.2V3.8C68.1 1.7 66.4 0 64.3 0Z" fill="#4367AF"/>
</mask>
<g mask="url(#mask0)">
<rect x="-1" width="69" height="23" fill="#0274B3"/>
<rect x="-1" width="69" height="23" fill="#E36021"/>
<rect x="-1" width="69" height="23" fill="#ED2326"/>
<path d="M29.7 14.7C28.9 15.4 28.2 16 27.5 16.4L27 15.4C27.1 15.3 27.2 15.2 27.2 15V10.6H25.9V9.5H28.3V14.6C28.6 14.4 28.9 14.1 29.3 13.7L29.7 14.7ZM28.9 8.3L27.9 8.8C27.5 8.1 27 7.4 26.3 6.6L27.3 6C28 6.9 28.5 7.6 28.9 8.3ZM36.8 9.2H32.1V10.8H36.1C36.1 11.7 36 12.7 35.9 14C35.8 15.3 35.8 16 35.7 16.2C35.6 16.4 35.5 16.6 35.4 16.7C35.2 16.9 35.1 17 34.8 17C34.5 17 34.2 17.1 33.7 17.1C33.3 17.1 33 17.1 32.7 17.1L32.3 16C33 16 33.6 16 34.2 16C34.5 16 34.6 15.8 34.7 15.5C34.8 15.2 34.8 13.9 34.9 11.8H32C31.9 13.9 31.1 15.7 29.4 17.1L28.6 16.3C29.2 15.8 29.7 15.2 30.2 14.6C30.6 13.9 30.9 13.1 30.9 12.1C30.9 11.1 31 10.1 31 9.2H29.2V8.1H36.8V9.2ZM33.9 7.5L32.9 8C32.5 7.4 32.1 6.9 31.7 6.6L32.7 6.1C33.1 6.4 33.5 6.9 33.9 7.5Z" fill="white"/>
<path d="M41.4 7.8L40.5 8.5C40 7.9 39.3 7.3 38.6 6.7L39.5 6C40.2 6.5 40.8 7.1 41.4 7.8ZM39.9 17.1H38.8V8.8H39.9V17.1ZM46.5 14.5H41.3V9.2H46.5V14.5ZM48.9 15.9C48.9 16.3 48.8 16.6 48.6 16.8C48.4 17 48 17.1 47.4 17.1H46.5L46.1 16C47.1 16 47.6 16 47.7 16C47.8 16 47.8 15.9 47.8 15.8V7.5H41.8V6.4H48.9V15.9ZM45.4 13.5V10.1H42.4V13.5H45.4Z" fill="white"/>
<path d="M62 14.7C61.8 15.5 61.6 16.1 61.4 16.5C61.2 16.9 60.8 17.2 60.4 17.2C59.7 17.2 59 16.6 58.3 15.3C57.6 15.8 56.8 16.3 56 16.7L55.4 15.8C56.4 15.3 57.2 14.8 57.9 14.3C57.7 13.5 57.6 12.2 57.5 10.5H54.9V12.2C55.5 12.1 56.2 11.9 57 11.7V12.8C56.2 13 55.5 13.2 54.9 13.3V16.1C54.9 16.4 54.8 16.7 54.7 16.8C54.6 17 54.4 17.1 54.2 17.1C54 17.1 53.6 17.2 53.1 17.2C52.7 17.2 52.3 17.2 52 17.2L51.6 16C52.2 16 52.6 16 53 16C53.4 16 53.6 16 53.7 15.9C53.8 15.9 53.8 15.8 53.8 15.7V13.5C52.9 13.7 52.1 13.8 51.3 13.9L51.1 12.9C51.9 12.8 52.8 12.7 53.8 12.5V10.5H51.2V9.40002H53.8V8.00002C53.2 8.10002 52.5 8.20001 51.7 8.20001L51.2 7.20001C53.3 7.10001 55.1 6.70001 56.5 6.20001L57.1 7.10001C56.3 7.40001 55.6 7.60001 54.9 7.70001V9.40002H57.5C57.5 8.90002 57.5 7.80001 57.5 6.20001H58.6C58.6 7.30001 58.6 8.30002 58.6 9.40002H62V10.5H58.6C58.6 11.5 58.7 12.5 58.8 13.4C59.4 12.7 59.9 11.9 60.4 11L61.4 11.5C60.7 12.9 60 13.9 59.2 14.6C59.4 15.1 59.7 15.4 59.9 15.7C60.1 15.9 60.3 16 60.4 16C60.7 16 60.9 15.4 61.2 14.1L62 14.7ZM61.5 8.30002L60.6 9.00002C60.2 8.30002 59.6 7.70001 59 7.20001L59.9 6.50002C60.5 7.00002 61.1 7.60002 61.5 8.30002Z" fill="white"/>
<path d="M13.5986 16.5714C12.1202 16.5936 10.6419 16.5803 9.16791 16.4822C8.74426 16.4554 8.3206 16.4198 7.90136 16.3261C7.0364 16.1389 6.52449 15.5904 6.36562 14.7254C6.10525 13.3031 6.06994 11.8629 6.11849 10.4227C6.14938 9.57559 6.20233 8.73289 6.34797 7.8991C6.51566 6.94493 7.11143 6.25829 8.31619 6.14682C10.536 5.94172 12.7646 5.9105 14.9932 5.95063C15.9861 5.96847 16.979 5.99522 17.9676 6.05764C18.4662 6.08885 18.9693 6.11115 19.4503 6.24937C20.3285 6.50352 20.7522 7.15003 20.8802 8.03287C21.1229 9.74502 21.1538 11.4661 21.0258 13.1872C20.9817 13.7579 20.9375 14.3241 20.7963 14.8815C20.5933 15.6974 19.9887 16.2325 19.1679 16.3573C18.2059 16.5 17.235 16.5357 16.2685 16.5669C15.3771 16.5936 14.4857 16.5714 13.5986 16.5714ZM12.0673 13.526C13.3824 12.768 14.671 12.0279 15.9861 11.2744C14.6622 10.5119 13.3736 9.77623 12.0673 9.0227C12.0673 10.5342 12.0673 12.0101 12.0673 13.526Z" fill="#ED2326"/>
<path d="M13.5986 16.5714C12.1202 16.5936 10.6419 16.5803 9.16791 16.4822C8.74426 16.4554 8.3206 16.4198 7.90136 16.3261C7.0364 16.1389 6.52449 15.5904 6.36562 14.7254C6.10525 13.3031 6.06994 11.8629 6.11849 10.4227C6.14938 9.57559 6.20233 8.73289 6.34797 7.8991C6.51566 6.94493 7.11143 6.25829 8.31619 6.14682C10.536 5.94172 12.7646 5.9105 14.9932 5.95063C15.9861 5.96847 16.979 5.99522 17.9676 6.05764C18.4662 6.08885 18.9693 6.11115 19.4503 6.24937C20.3285 6.50352 20.7522 7.15003 20.8802 8.03287C21.1229 9.74502 21.1538 11.4661 21.0258 13.1872C20.9817 13.7579 20.9375 14.3241 20.7963 14.8815C20.5933 15.6974 19.9887 16.2325 19.1679 16.3573C18.2059 16.5 17.235 16.5357 16.2685 16.5669C15.3771 16.5936 14.4857 16.5714 13.5986 16.5714ZM12.0673 13.526C13.3824 12.768 14.671 12.0279 15.9861 11.2744C14.6622 10.5119 13.3736 9.77623 12.0673 9.0227C12.0673 10.5342 12.0673 12.0101 12.0673 13.526Z" fill="white"/>
</g>
</svg>
