<svg width="62" height="23" viewBox="0 0 62 23" fill="none" xmlns="http://www.w3.org/2000/svg">
<mask id="mask0" mask-type="alpha" maskUnits="userSpaceOnUse" x="0" y="0" width="62" height="23">
<path d="M57.3 0H3.79999C1.69999 0 0 1.69999 0 3.79999V19.2C0 21.3 1.69999 23 3.79999 23H57.3C59.4 23 61.1 21.3 61.1 19.2V3.79999C61.1 1.69999 59.4 0 57.3 0Z" fill="#4367AF"/>
</mask>
<g mask="url(#mask0)">
<rect width="61" height="23" fill="#0274B3"/>
<rect width="61" height="23" fill="#E36021"/>
<rect width="61" height="23" fill="#ED2326"/>
<path d="M25.1 9.10001L30.5 9L30.8 9.60001V9.70001H29.7V11.2L29.6 11.3C29.3 11.3 28.9 11.3 28.5 11.3C27.7 11.3 27.1 11.4 26.9 11.6C26.7 11.8 26.6 12 26.6 12.2C26.6 12.5 26.7 12.7 26.9 12.9C27.4 12.5 28 12.2 28.7 12.2C29.2 12.2 29.6 12.4 29.8 12.7C30.1 13 30.3 13.4 30.3 13.8C30.3 14.4 29.8 14.8 29.1 15.1C28.9 14.9 28.7 14.7 28.5 14.5C29.2 14.2 29.7 13.9 29.7 13.5C29.7 13.3 29.5 13.1 29 13.1C28.4 13.1 27.1 13.6 27.1 14.6C27.1 15.7 28.5 16.2 30.4 16.4L30 17.1C27.8 16.5 26.4 15.7 26.4 14.2C26.4 13.9 26.5 13.6 26.7 13.3C26.2 12.9 25.9 12.4 25.9 11.9C25.9 11.5 26.1 11.2 26.4 10.9C26.7 10.7 27.3 10.6 28.1 10.6H28.8C28.9 10.6 29 10.5 29 10.4V9.60001H25.4L25.1 9.10001Z" fill="white"/>
<path d="M30.2 9.10001L36.4 9L36.7 9.60001V9.70001H35.6V15.2L35.5 15.3L34.8 15.1V12.7H32.5V13C32.5 13.3 32.5 13.5 32.4 13.6C32.3 13.7 32.2 13.8 32 13.8C31.7 13.8 30.9 13.1 30.9 12.6C30.9 12.5 31 12.3 31.1 12.2C31.2 12.1 31.4 12 31.8 12V9.70001H30.4L30.2 9.10001ZM34.9 9.70001H32.6V12H34.9V9.70001Z" fill="white"/>
<path d="M35 9.10001C34.8 8.70001 34.6 8.29999 34.4 7.89999C34.1 7.19999 33.8 6.89999 33.1 6.89999C32.7 6.89999 32.4 7.00001 32 7.10001L31.7 6.29999C32 6.19999 32.4 6.10001 32.9 6.10001C34 6.10001 34.3 6.80001 35.5 9.10001V9.20001H35V9.10001ZM35.9 6.70001L36.5 7.29999L35.9 7.89999L35.3 7.29999L35.9 6.70001Z" fill="white"/>
<path d="M39.6 9.10001L40.9 9C40.7 8.7 40.5 8.29999 40.5 7.89999C40.5 6.99999 41.3 6.20001 42.7 6.20001C44.3 6.20001 45.7 7 47.1 8.5L46.9 8.79999C45.8 7.69999 44.6 6.89999 43.2 6.89999C42.1 6.89999 41.2 7.39999 41.2 8.29999C41.2 8.59999 41.3 8.8 41.4 9H42.4L42.7 9.60001V9.70001H41.6V15.2L41.5 15.3L40.8 15.1C40.8 13.3 40.8 11.5 40.8 9.70001H39.9L39.6 9.10001Z" fill="white"/>
<path d="M42 9.10001L48.2 9L48.5 9.60001V9.70001H47.4V15.2L47.3 15.3L46.6 15.1V12.7H44.3V13C44.3 13.3 44.3 13.5 44.2 13.6C44.1 13.7 44 13.8 43.8 13.8C43.5 13.8 42.7 13.1 42.7 12.6C42.7 12.5 42.8 12.3 42.9 12.2C43 12.1 43.2 12 43.6 12V9.70001H42.2L42 9.10001ZM46.6 9.70001H44.3V12H46.6V9.70001Z" fill="white"/>
<path d="M47.9 9.10001L54.8 9L55.1 9.60001V9.70001H54V15.2L53.9 15.3L53.2 15.1V11.4C52.1 11.6 51.8 11.9 51.4 13L50.8 12.6C50.9 12.2 51.1 11.8 51.3 11.5C51.1 11.4 50.9 11.3 50.6 11.3C49.9 11.3 49.5 11.9 49.5 12.4C49.5 13.4 50.2 13.9 51.4 14.4L50.9 15.1C49.6 14.2 48.8 13.2 48.8 12C48.8 11.1 49.4 10.5 50.3 10.5C50.9 10.5 51.3 10.7 51.7 11.1C52.1 10.8 52.6 10.6 53.3 10.5V9.5H48.3L47.9 9.10001Z" fill="white"/>
<path d="M53.3 9.10001C53.1 8.70001 52.9 8.29999 52.7 7.89999C52.4 7.19999 52.1 6.89999 51.4 6.89999C51 6.89999 50.7 7.00001 50.3 7.10001L50 6.29999C50.3 6.19999 50.7 6.10001 51.2 6.10001C52.3 6.10001 52.6 6.80001 53.8 9.10001V9.20001H53.3V9.10001Z" fill="white"/>
<path d="M13.5986 16.5713C12.1202 16.5936 10.6419 16.5803 9.16791 16.4822C8.74426 16.4554 8.3206 16.4198 7.90136 16.3261C7.0364 16.1389 6.52449 15.5904 6.36562 14.7254C6.10525 13.3031 6.06994 11.8629 6.11849 10.4227C6.14938 9.57559 6.20233 8.73289 6.34797 7.8991C6.51566 6.94493 7.11143 6.25828 8.31619 6.14682C10.536 5.94171 12.7646 5.9105 14.9932 5.95063C15.9861 5.96847 16.979 5.99522 17.9676 6.05764C18.4662 6.08885 18.9693 6.11115 19.4503 6.24937C20.3285 6.50352 20.7522 7.15003 20.8802 8.03286C21.1229 9.74502 21.1538 11.4661 21.0258 13.1872C20.9817 13.7579 20.9375 14.3241 20.7963 14.8815C20.5933 15.6974 19.9887 16.2325 19.1679 16.3573C18.2059 16.5 17.235 16.5357 16.2685 16.5669C15.3771 16.5936 14.4857 16.5713 13.5986 16.5713ZM12.0673 13.526C13.3824 12.768 14.671 12.0279 15.9861 11.2744C14.6622 10.5119 13.3736 9.77623 12.0673 9.0227C12.0673 10.5342 12.0673 12.0101 12.0673 13.526Z" fill="#ED2326"/>
<path d="M13.5986 16.5713C12.1202 16.5936 10.6419 16.5803 9.16791 16.4822C8.74426 16.4554 8.3206 16.4198 7.90136 16.3261C7.0364 16.1389 6.52449 15.5904 6.36562 14.7254C6.10525 13.3031 6.06994 11.8629 6.11849 10.4227C6.14938 9.57559 6.20233 8.73289 6.34797 7.8991C6.51566 6.94493 7.11143 6.25828 8.31619 6.14682C10.536 5.94171 12.7646 5.9105 14.9932 5.95063C15.9861 5.96847 16.979 5.99522 17.9676 6.05764C18.4662 6.08885 18.9693 6.11115 19.4503 6.24937C20.3285 6.50352 20.7522 7.15003 20.8802 8.03286C21.1229 9.74502 21.1538 11.4661 21.0258 13.1872C20.9817 13.7579 20.9375 14.3241 20.7963 14.8815C20.5933 15.6974 19.9887 16.2325 19.1679 16.3573C18.2059 16.5 17.235 16.5357 16.2685 16.5669C15.3771 16.5936 14.4857 16.5713 13.5986 16.5713ZM12.0673 13.526C13.3824 12.768 14.671 12.0279 15.9861 11.2744C14.6622 10.5119 13.3736 9.77623 12.0673 9.0227C12.0673 10.5342 12.0673 12.0101 12.0673 13.526Z" fill="white"/>
</g>
</svg>
