<svg width="97" height="23" viewBox="0 0 97 23" fill="none" xmlns="http://www.w3.org/2000/svg">
<mask id="mask0" mask-type="alpha" maskUnits="userSpaceOnUse" x="0" y="0" width="97" height="23">
<path d="M93.2 0H3.8C1.7 0 0 1.69999 0 3.79999V19.2C0 21.3 1.7 23 3.8 23H93.2C95.3 23 97 21.3 97 19.2V3.79999C97 1.69999 95.3 0 93.2 0Z" fill="#4367AF"/>
</mask>
<g mask="url(#mask0)">
<rect x="-1" width="108" height="23" fill="#FF0000"/>
<path d="M26.0024 7.15947H29.7221C30.4601 7.15947 31.0089 7.18914 31.3687 7.25218C31.7321 7.31523 32.0548 7.44132 32.3403 7.63787C32.6259 7.83443 32.8632 8.09032 33.0561 8.41667C33.2452 8.73932 33.3416 9.10276 33.3416 9.50699C33.3416 9.9446 33.2229 10.3414 32.9893 10.7086C32.7557 11.072 32.4367 11.3464 32.0325 11.5282C32.5999 11.695 33.0375 11.9732 33.3416 12.3737C33.6457 12.7705 33.7978 13.2378 33.7978 13.7755C33.7978 14.1983 33.6976 14.61 33.5011 15.0105C33.3045 15.411 33.0338 15.73 32.6963 15.971C32.3551 16.2121 31.9361 16.3567 31.4354 16.4123C31.1239 16.4457 30.3674 16.468 29.1695 16.4754H26.0024V7.15947ZM27.8826 8.70965V10.8606H29.1139C29.8445 10.8606 30.3006 10.8495 30.4786 10.8272C30.8013 10.7902 31.0534 10.6789 31.2389 10.4935C31.4243 10.308 31.5133 10.067 31.5133 9.76659C31.5133 9.47732 31.4354 9.24368 31.276 9.06567C31.1165 8.88395 30.8828 8.7764 30.5676 8.73932C30.3822 8.71706 29.8445 8.70594 28.9618 8.70594H27.8826V8.70965ZM27.8826 12.4108V14.8992H29.6219C30.3006 14.8992 30.7308 14.8807 30.9125 14.8436C31.1907 14.7917 31.4206 14.6693 31.5949 14.4728C31.7692 14.2762 31.8582 14.0129 31.8582 13.6828C31.8582 13.4047 31.7914 13.1673 31.6542 12.9708C31.517 12.7779 31.3242 12.6333 31.0683 12.5443C30.8124 12.4553 30.2561 12.4108 29.4031 12.4108H27.8826Z" fill="white"/>
<path d="M39.279 14.3207L41.0554 14.6174C40.8255 15.2701 40.4658 15.767 39.9725 16.1082C39.4793 16.4494 38.8637 16.62 38.122 16.62C36.9501 16.62 36.0822 16.238 35.5185 15.4704C35.0735 14.8547 34.851 14.0834 34.851 13.1451C34.851 12.0288 35.144 11.1536 35.7262 10.5194C36.3122 9.88526 37.0502 9.57004 37.9439 9.57004C38.949 9.57004 39.7389 9.9001 40.3174 10.5639C40.896 11.2278 41.1741 12.2402 41.1481 13.6087H36.6793C36.6905 14.139 36.8351 14.5506 37.1095 14.8436C37.384 15.1366 37.7289 15.2849 38.1368 15.2849C38.4149 15.2849 38.6523 15.2071 38.8414 15.055C39.0306 14.9029 39.1826 14.6619 39.279 14.3207ZM39.3829 12.5183C39.3717 12.0029 39.2382 11.6097 38.9823 11.339C38.7302 11.072 38.4186 10.9348 38.0552 10.9348C37.6658 10.9348 37.3432 11.0757 37.091 11.3613C36.8388 11.6431 36.7127 12.0288 36.7164 12.5183H39.3829V12.5183Z" fill="white"/>
<path d="M41.9789 14.5432L43.7701 14.2688C43.848 14.6174 44 14.8807 44.2337 15.0587C44.4673 15.2404 44.7937 15.3295 45.2127 15.3295C45.6726 15.3295 46.0212 15.2442 46.2548 15.0773C46.4106 14.9586 46.4885 14.7991 46.4885 14.6026C46.4885 14.4654 46.4477 14.3541 46.3624 14.2651C46.2734 14.1798 46.0731 14.1019 45.7653 14.0315C44.3264 13.7125 43.4141 13.4233 43.0284 13.1599C42.4943 12.7965 42.2273 12.2884 42.2273 11.6431C42.2273 11.0572 42.4573 10.5677 42.9208 10.1708C43.3807 9.77402 44.0964 9.57376 45.0681 9.57376C45.9915 9.57376 46.6776 9.72581 47.1263 10.0262C47.5751 10.3266 47.8829 10.7716 48.0535 11.3613L46.3698 11.6728C46.2993 11.4095 46.1621 11.2092 45.9619 11.0683C45.7616 10.9274 45.4723 10.8569 45.1015 10.8569C44.6305 10.8569 44.2967 10.9237 44.0927 11.0535C43.9555 11.1462 43.8888 11.2686 43.8888 11.4169C43.8888 11.543 43.9481 11.6506 44.0668 11.7396C44.2262 11.8582 44.7825 12.0251 45.7319 12.2402C46.6813 12.4553 47.3451 12.7223 47.7234 13.0339C48.0943 13.3528 48.2834 13.7941 48.2834 14.3615C48.2834 14.9808 48.0238 15.5112 47.5083 15.9562C46.9928 16.4012 46.2289 16.6237 45.2164 16.6237C44.2967 16.6237 43.5698 16.4383 43.0358 16.0637C42.4943 15.6892 42.1457 15.1848 41.9789 14.5432Z" fill="white"/>
<path d="M49.4294 13.0005C49.4294 12.4071 49.574 11.836 49.867 11.2797C50.1599 10.7234 50.5716 10.3006 51.1093 10.0114C51.6434 9.71838 52.2442 9.57374 52.9043 9.57374C53.9241 9.57374 54.7623 9.9038 55.4113 10.5676C56.064 11.2315 56.3903 12.0659 56.3903 13.0783C56.3903 14.0982 56.0603 14.9437 55.4038 15.615C54.7437 16.2862 53.9167 16.62 52.9191 16.62C52.2998 16.62 51.7101 16.4791 51.1501 16.2009C50.5901 15.9228 50.1637 15.5111 49.8707 14.9734C49.574 14.432 49.4294 13.7755 49.4294 13.0005ZM50.7051 8.53163V7H52.2367V8.53163H50.7051ZM51.2577 13.0969C51.2577 13.7644 51.4171 14.2762 51.7324 14.6322C52.0513 14.9882 52.4407 15.1663 52.908 15.1663C53.3753 15.1663 53.7647 14.9882 54.0799 14.6322C54.3951 14.2762 54.5546 13.7607 54.5546 13.082C54.5546 12.4219 54.3951 11.9138 54.0799 11.5578C53.7647 11.2018 53.3753 11.0238 52.908 11.0238C52.4407 11.0238 52.0513 11.2018 51.7324 11.5578C51.4171 11.9175 51.2577 12.4293 51.2577 13.0969ZM53.4346 8.53163V7H54.9699V8.53163H53.4346Z" fill="white"/>
<path d="M57.7217 16.468V7.15947H59.5055V12.0993L61.5934 9.72579H63.7889L61.4822 12.1883L63.9521 16.468H62.0273L60.3325 13.4381L59.5018 14.3096V16.468H57.7217Z" fill="white"/>
<path d="M68.2169 13.0005C68.2169 12.4071 68.3616 11.836 68.6545 11.2797C68.9475 10.7234 69.3592 10.3006 69.8969 10.0114C70.4309 9.7184 71.0317 9.57376 71.6918 9.57376C72.7117 9.57376 73.5498 9.90382 74.1988 10.5677C74.8515 11.2315 75.1779 12.0659 75.1779 13.0784C75.1779 14.0982 74.8478 14.9438 74.1914 15.615C73.5313 16.2863 72.7043 16.62 71.7067 16.62C71.0873 16.62 70.4977 16.4791 69.9377 16.201C69.3777 15.9228 68.9512 15.5112 68.6582 14.9734C68.3653 14.432 68.2169 13.7756 68.2169 13.0005ZM70.049 13.0969C70.049 13.7644 70.2084 14.2762 70.5237 14.6322C70.8426 14.9883 71.232 15.1663 71.6993 15.1663C72.1665 15.1663 72.5559 14.9883 72.8712 14.6322C73.1864 14.2762 73.3459 13.7607 73.3459 13.0821C73.3459 12.4219 73.1864 11.9139 72.8712 11.5578C72.5559 11.2018 72.1665 11.0238 71.6993 11.0238C71.232 11.0238 70.8426 11.2018 70.5237 11.5578C70.2047 11.9176 70.049 12.4294 70.049 13.0969Z" fill="white"/>
<path d="M75.9456 14.5432L77.7368 14.2688C77.8147 14.6174 77.9667 14.8807 78.2004 15.0587C78.434 15.2404 78.7604 15.3295 79.1794 15.3295C79.6393 15.3295 79.9879 15.2442 80.2215 15.0773C80.3773 14.9586 80.4552 14.7991 80.4552 14.6026C80.4552 14.4654 80.4144 14.3541 80.3291 14.2651C80.2401 14.1798 80.0398 14.1019 79.732 14.0315C78.2931 13.7125 77.3808 13.4233 76.9951 13.1599C76.4611 12.7965 76.194 12.2884 76.194 11.6431C76.194 11.0572 76.424 10.5677 76.8875 10.1708C77.3474 9.77402 78.0632 9.57376 79.0348 9.57376C79.9582 9.57376 80.6443 9.72581 81.0931 10.0262C81.5418 10.3266 81.8496 10.7716 82.0202 11.3613L80.3365 11.6728C80.266 11.4095 80.1288 11.2092 79.9286 11.0683C79.7283 10.9274 79.439 10.8569 79.0682 10.8569C78.5972 10.8569 78.2634 10.9237 78.0595 11.0535C77.9222 11.1462 77.8555 11.2686 77.8555 11.4169C77.8555 11.543 77.9148 11.6506 78.0335 11.7396C78.193 11.8582 78.7492 12.0251 79.6986 12.2402C80.648 12.4553 81.3119 12.7223 81.6901 13.0339C82.061 13.3528 82.2501 13.7941 82.2501 14.3615C82.2501 14.9808 81.9905 15.5112 81.475 15.9562C80.9595 16.4012 80.1956 16.6237 79.1831 16.6237C78.2634 16.6237 77.5365 16.4383 77.0025 16.0637C76.4611 15.6892 76.1125 15.1848 75.9456 14.5432Z" fill="white"/>
<path d="M83.181 14.5432L84.9722 14.2688C85.0501 14.6174 85.2021 14.8807 85.4358 15.0587C85.6694 15.2404 85.9958 15.3295 86.4148 15.3295C86.8747 15.3295 87.2233 15.2442 87.4569 15.0773C87.6127 14.9586 87.6906 14.7991 87.6906 14.6026C87.6906 14.4654 87.6498 14.3541 87.5645 14.2651C87.4755 14.1798 87.2752 14.1019 86.9674 14.0315C85.5285 13.7125 84.6162 13.4233 84.2305 13.1599C83.6965 12.7965 83.4294 12.2884 83.4294 11.6431C83.4294 11.0572 83.6594 10.5677 84.1229 10.1708C84.5828 9.77402 85.2986 9.57376 86.2702 9.57376C87.1936 9.57376 87.8797 9.72581 88.3284 10.0262C88.7772 10.3266 89.085 10.7716 89.2556 11.3613L87.5719 11.6728C87.5014 11.4095 87.3642 11.2092 87.164 11.0683C86.9637 10.9274 86.6744 10.8569 86.3036 10.8569C85.8326 10.8569 85.4988 10.9237 85.2948 11.0535C85.1576 11.1462 85.0909 11.2686 85.0909 11.4169C85.0909 11.543 85.1502 11.6506 85.2689 11.7396C85.4284 11.8582 85.9846 12.0251 86.934 12.2402C87.8834 12.4553 88.5473 12.7223 88.9255 13.0339C89.2964 13.3528 89.4855 13.7941 89.4855 14.3615C89.4855 14.9808 89.2259 15.5112 88.7104 15.9562C88.1949 16.4012 87.431 16.6237 86.4185 16.6237C85.4988 16.6237 84.7719 16.4383 84.2379 16.0637C83.6965 15.6892 83.3441 15.1848 83.181 14.5432Z" fill="white"/>
<path fill-rule="evenodd" clip-rule="evenodd" d="M6.43051 9.42761C6.52097 7.97764 7.60938 6.80631 9.00824 6.65168C10.4592 6.50078 12.0014 6.41936 13.6 6.41936C15.1986 6.41936 16.7407 6.50078 18.1917 6.65243C19.5906 6.80631 20.679 7.97764 20.7694 9.42761C20.8136 10.1418 20.8367 10.8716 20.8367 11.6126C20.8367 12.3537 20.8136 13.0835 20.7694 13.7977C20.679 15.2477 19.5906 16.419 18.1917 16.5736C16.7407 16.7245 15.1986 16.8059 13.6 16.8059C12.0014 16.8059 10.4592 16.7245 9.00824 16.5729C7.60938 16.419 6.52097 15.2477 6.43051 13.7977C6.38636 13.0835 6.3632 12.3537 6.3632 11.6126C6.3632 10.8716 6.38636 10.1418 6.43051 9.42761V9.42761Z" fill="white"/>
<path fill-rule="evenodd" clip-rule="evenodd" d="M15.8108 11.613L12.2583 13.8504V9.3757L15.8108 11.613Z" fill="#FF0000"/>
</g>
</svg>
