<svg width="74" height="23" viewBox="0 0 74 23" fill="none" xmlns="http://www.w3.org/2000/svg">
<mask id="mask0" mask-type="alpha" maskUnits="userSpaceOnUse" x="0" y="0" width="74" height="23">
<path d="M69.3 0H3.79999C1.69999 0 0 1.69999 0 3.79999V19.2C0 21.3 1.69999 23 3.79999 23H69.3C71.4 23 73.1 21.3 73.1 19.2V3.79999C73.1 1.69999 71.4 0 69.3 0Z" fill="#4367AF"/>
</mask>
<g mask="url(#mask0)">
<rect width="74" height="23" fill="#0274B3"/>
<rect width="74" height="23" fill="#E36021"/>
<rect width="74" height="23" fill="#ED2326"/>
<path d="M28.3 14.7H27.5C27 14.7 26.7 14.5 26.5 14.1C26.3 13.7 26.1 13 26.1 11.9V10.2C26.1 9.80001 26 9.49999 25.9 9.29999C25.8 9.19999 25.7 8.99999 25.5 8.79999L26.2 7.29999C26.4 7.59999 26.6 7.89999 26.7 8.29999C26.8 8.69999 26.9 9.10001 26.9 9.70001V10.9C26.9 11.7 27 12.3 27.1 12.7C27.2 13 27.3 13.1 27.5 13.1H28.3V14.7Z" fill="white"/>
<path d="M31.7 14.7H27.9V13.1H31.1C31.1 12.8 31 12.6 30.9 12.4C30.8 12.3 30.7 12.1 30.5 11.9L31 10.5C31.3 10.8 31.5 11.2 31.6 11.6C31.7 12 31.8 12.5 31.8 13.3V14.7H31.7ZM31.7 8.10004L31 9.5L29.6 8.79999L30.3 7.40002L31.7 8.10004Z" fill="white"/>
<path d="M35 14.7H31.2V13.1H34.4C34.4 12.8 34.3 12.6 34.2 12.4C34.1 12.3 34 12.1 33.8 11.9L34.3 10.5C34.6 10.8 34.8 11.2 34.9 11.6C35 12 35.1 12.5 35.1 13.3V14.7H35ZM34.9 8.20001L34.3 9.40002L33.4 9L32.9 10L31.8 9.40002L32.5 8.20001L33.4 8.70001L33.9 7.70001L34.9 8.20001Z" fill="white"/>
<path d="M40.4 14.8C40.4 15 40.3 15.4 40 15.8C39.7 16.2 39.4 16.6 39 16.9C38.6 17.2 38.2 17.4 37.9 17.4C37.5 17.4 37.2 17.3 36.8 17.1C36.4 16.9 35.9 16.6 35.1 16.1L35.4 15.7C35.8 15.9 36.1 16.1 36.3 16.2C36.5 16.3 36.8 16.3 37 16.3C37.3 16.3 37.6 16.2 37.8 16.1C38.1 15.9 38.5 15.6 38.9 15.2C39.6 14.6 39.9 14.1 39.9 13.8C39.9 13.6 39.8 13.4 39.7 13.2C39.6 12.9 39.4 12.7 39.2 12.5L39.5 10.9C39.8 11.2 40 11.5 40.1 11.9C40.2 12.3 40.3 12.7 40.3 13.2V14.8H40.4Z" fill="white"/>
<path d="M43.3 14.7H42.5C42 14.7 41.7 14.5 41.5 14.1C41.3 13.7 41.1 13 41.1 11.9V10.2C41.1 9.80001 41 9.49999 40.9 9.29999C40.8 9.19999 40.7 8.99999 40.5 8.79999L41.2 7.29999C41.4 7.59999 41.6 7.89999 41.7 8.29999C41.8 8.69999 41.9 9.10001 41.9 9.70001V10.9C41.9 11.7 42 12.3 42.1 12.7C42.2 13 42.3 13.1 42.5 13.1H43.3V14.7Z" fill="white"/>
<path d="M46.7 14.7H42.9V13.1H46.1C46.1 12.8 46 12.6 45.9 12.4C45.8 12.3 45.7 12.1 45.5 11.9L46 10.5C46.3 10.8 46.5 11.2 46.6 11.6C46.7 12 46.8 12.5 46.8 13.3V14.7H46.7ZM46.6 15.8L46 17L45.1 16.6L44.6 17.6L43.5 17L44.2 15.8L45.1 16.3L45.6 15.3L46.6 15.8Z" fill="white"/>
<path d="M52 14.8C52 15 51.9 15.4 51.6 15.8C51.3 16.2 51 16.6 50.6 16.9C50.2 17.2 49.8 17.4 49.5 17.4C49.1 17.4 48.8 17.3 48.4 17.1C48 16.9 47.5 16.6 46.7 16.1L47 15.7C47.4 15.9 47.7 16.1 47.9 16.2C48.1 16.3 48.4 16.3 48.6 16.3C48.9 16.3 49.2 16.2 49.4 16.1C49.7 15.9 50.1 15.6 50.5 15.2C51.2 14.6 51.5 14.1 51.5 13.8C51.5 13.6 51.4 13.4 51.3 13.2C51.2 12.9 51 12.7 50.8 12.5L51.1 10.9C51.4 11.2 51.6 11.5 51.7 11.9C51.9 12.3 51.9 12.7 51.9 13.2V14.8H52ZM51.7 8.60004L51 10L49.6 9.29999L50.3 7.90002L51.7 8.60004Z" fill="white"/>
<path d="M55.4 14.7H51.6V13.1H54.8C54.8 12.8 54.7 12.6 54.6 12.4C54.5 12.3 54.4 12.1 54.2 11.9L54.7 10.5C55 10.8 55.2 11.2 55.3 11.6C55.4 12 55.5 12.5 55.5 13.3V14.7H55.4ZM54.8 15.9L54.1 17.3L52.7 16.6L53.4 15.2L54.8 15.9Z" fill="white"/>
<path d="M63.3 14.7H62.5C61.8 14.7 61.1 14.8 60.5 14.9C59.9 15 59.6 15.2 59.6 15.3C59.8 15.8 59.9 16.2 60 16.7C60.1 17.1 60.2 17.5 60.2 17.9C60.2 18.2 60.2 18.4 60.1 18.6C60 18.8 59.9 19 59.8 19.2C59.8 18.7 59.7 18.1 59.5 17.5C59.4 17.3 59.3 16.9 59.1 16.2C59 15.8 58.9 15.5 58.9 15.4C58.9 15.2 59 15 59.1 14.7C59.2 14.5 59.3 14.3 59.4 14.1C59.5 13.9 59.8 13.7 60.1 13.6C60.4 13.5 60.9 13.4 61.6 13.3C61.3 12.8 61 12.6 60.8 12.6C60.7 12.6 60.6 12.6 60.5 12.7C60.4 12.8 60.3 13 60 13.2L59.7 13.1C59.9 12.5 60.1 12 60.4 11.7C60.7 11.4 60.9 11.2 61.3 11.2C61.6 11.2 61.9 11.4 62.2 11.7C62.5 12 62.9 12.5 63.4 13.2V14.7H63.3Z" fill="white"/>
<path d="M67.1 14.7H62.9V13.1H66.5C66.5 12.7 66.5 12.5 66.5 12.3C66.5 12.1 66.4 11.9 66.3 11.7C66.2 12 66 12.1 65.8 12.3C65.6 12.4 65.3 12.5 65.1 12.5C64.8 12.5 64.5 12.4 64.3 12.2C64.1 12 64 11.7 64 11.4C64 10.9 64.1 10.4 64.4 9.70001C64.7 9.00001 65 8.60004 65.4 8.60004C65.8 8.60004 66.2 9.00001 66.6 9.70001C67 10.4 67.2 11.2 67.2 12V14.7H67.1ZM66.5 6.60004L65.9 7.79999L65 7.40002L64.5 8.40002L63.4 7.79999L64.1 6.60004L65 7.10004L65.5 6.10004L66.5 6.60004ZM65.8 10.6C65.7 10.4 65.6 10.3 65.5 10.2C65.4 10.1 65.3 10.1 65.2 10.1C65.1 10.1 65 10.2 64.9 10.3C64.8 10.4 64.8 10.5 64.8 10.7C64.8 10.8 64.8 10.9 64.9 10.9C65 11 65.1 11 65.2 11C65.3 11 65.4 11 65.5 10.9C65.5 10.8 65.7 10.7 65.8 10.6Z" fill="white"/>
<path d="M13.5986 16.5714C12.1202 16.5936 10.6419 16.5803 9.16791 16.4822C8.74426 16.4554 8.3206 16.4198 7.90136 16.3261C7.0364 16.1389 6.52449 15.5904 6.36562 14.7254C6.10525 13.3031 6.06994 11.8629 6.11849 10.4227C6.14938 9.57559 6.20233 8.73289 6.34797 7.8991C6.51566 6.94493 7.11143 6.25829 8.31619 6.14682C10.536 5.94172 12.7646 5.9105 14.9932 5.95063C15.9861 5.96847 16.979 5.99522 17.9676 6.05764C18.4662 6.08885 18.9693 6.11115 19.4503 6.24937C20.3285 6.50352 20.7522 7.15003 20.8802 8.03287C21.1229 9.74502 21.1538 11.4661 21.0258 13.1872C20.9817 13.7579 20.9375 14.3241 20.7963 14.8815C20.5933 15.6974 19.9887 16.2325 19.1679 16.3573C18.2059 16.5 17.235 16.5357 16.2685 16.5669C15.3771 16.5936 14.4857 16.5714 13.5986 16.5714ZM12.0673 13.526C13.3824 12.768 14.671 12.0279 15.9861 11.2744C14.6622 10.5119 13.3736 9.77623 12.0673 9.0227C12.0673 10.5342 12.0673 12.0101 12.0673 13.526Z" fill="#ED2326"/>
<path d="M13.5986 16.5714C12.1202 16.5936 10.6419 16.5803 9.16791 16.4822C8.74426 16.4554 8.3206 16.4198 7.90136 16.3261C7.0364 16.1389 6.52449 15.5904 6.36562 14.7254C6.10525 13.3031 6.06994 11.8629 6.11849 10.4227C6.14938 9.57559 6.20233 8.73289 6.34797 7.8991C6.51566 6.94493 7.11143 6.25829 8.31619 6.14682C10.536 5.94172 12.7646 5.9105 14.9932 5.95063C15.9861 5.96847 16.979 5.99522 17.9676 6.05764C18.4662 6.08885 18.9693 6.11115 19.4503 6.24937C20.3285 6.50352 20.7522 7.15003 20.8802 8.03287C21.1229 9.74502 21.1538 11.4661 21.0258 13.1872C20.9817 13.7579 20.9375 14.3241 20.7963 14.8815C20.5933 15.6974 19.9887 16.2325 19.1679 16.3573C18.2059 16.5 17.235 16.5357 16.2685 16.5669C15.3771 16.5936 14.4857 16.5714 13.5986 16.5714ZM12.0673 13.526C13.3824 12.768 14.671 12.0279 15.9861 11.2744C14.6622 10.5119 13.3736 9.77623 12.0673 9.0227C12.0673 10.5342 12.0673 12.0101 12.0673 13.526Z" fill="white"/>
</g>
</svg>
