<svg width="97" height="23" viewBox="0 0 97 23" fill="none" xmlns="http://www.w3.org/2000/svg">
<mask id="mask0" mask-type="alpha" maskUnits="userSpaceOnUse" x="0" y="0" width="97" height="23">
<path d="M92.3 0H3.8C1.7 0 0 1.69999 0 3.79999V19.2C0 21.3 1.7 23 3.8 23H92.3C94.4 23 96.1 21.3 96.1 19.2V3.79999C96.1 1.69999 94.4 0 92.3 0Z" fill="#4367AF"/>
</mask>
<g mask="url(#mask0)">
<rect x="-1" width="131" height="23" fill="#FF0000"/>
<path d="M26 7.15576H29.6332C30.354 7.15576 30.8901 7.18474 31.2415 7.24632C31.5965 7.3079 31.9116 7.43106 32.1905 7.62304C32.4695 7.81502 32.7013 8.06496 32.8897 8.38373C33.0744 8.69887 33.1686 9.05386 33.1686 9.44869C33.1686 9.87612 33.0527 10.2637 32.8244 10.6223C32.5962 10.9773 32.2847 11.2454 31.8899 11.4229C32.4441 11.5859 32.8715 11.8575 33.1686 12.2487C33.4656 12.6363 33.6141 13.0927 33.6141 13.618C33.6141 14.0309 33.5163 14.433 33.3243 14.8242C33.1323 15.2154 32.8679 15.5269 32.5383 15.7624C32.205 15.9978 31.7957 16.1391 31.3067 16.1934C31.0024 16.226 30.2635 16.2478 29.0935 16.255H26V7.15576ZM27.8365 8.66989V10.7708H29.0391C29.7527 10.7708 30.1983 10.76 30.3721 10.7382C30.6873 10.702 30.9336 10.5933 31.1147 10.4122C31.2958 10.2311 31.3828 9.99566 31.3828 9.70225C31.3828 9.41971 31.3067 9.1915 31.1509 9.01763C30.9952 8.84014 30.767 8.73509 30.4591 8.69887C30.278 8.67714 29.7527 8.66627 28.8906 8.66627H27.8365V8.66989ZM27.8365 12.285V14.7155H29.5354C30.1983 14.7155 30.6185 14.6974 30.7959 14.6612C31.0676 14.6105 31.2922 14.491 31.4625 14.299C31.6327 14.107 31.7196 13.8498 31.7196 13.5274C31.7196 13.2557 31.6544 13.0239 31.5204 12.8319C31.3864 12.6436 31.198 12.5023 30.9481 12.4154C30.6981 12.3284 30.1548 12.285 29.3217 12.285H27.8365Z" fill="white"/>
<path d="M38.9679 14.1541L40.703 14.4439C40.4784 15.0814 40.127 15.5668 39.6453 15.9C39.1635 16.2333 38.5622 16.3999 37.8377 16.3999C36.6931 16.3999 35.8455 16.0268 35.2949 15.277C34.8602 14.6757 34.6428 13.9222 34.6428 13.0058C34.6428 11.9155 34.929 11.0606 35.4977 10.4412C36.07 9.82178 36.7909 9.51389 37.6639 9.51389C38.6455 9.51389 39.4171 9.83627 39.9821 10.4847C40.5472 11.1331 40.8189 12.122 40.7935 13.4586H36.4286C36.4395 13.9766 36.5808 14.3787 36.8488 14.6648C37.1169 14.951 37.4538 15.0959 37.8522 15.0959C38.1239 15.0959 38.3557 15.0198 38.5405 14.8713C38.7252 14.7228 38.8737 14.4837 38.9679 14.1541ZM39.0693 12.39C39.0585 11.8865 38.928 11.5025 38.6781 11.2381C38.4318 10.9773 38.1275 10.8433 37.7725 10.8433C37.3922 10.8433 37.077 10.9809 36.8307 11.2598C36.5844 11.5351 36.4613 11.9119 36.4649 12.39H39.0693Z" fill="white"/>
<path d="M41.6049 14.3714L43.3545 14.1033C43.4306 14.4438 43.5791 14.701 43.8073 14.8749C44.0355 15.0524 44.3543 15.1393 44.7636 15.1393C45.2128 15.1393 45.5533 15.056 45.7815 14.893C45.9336 14.7771 46.0097 14.6213 46.0097 14.4293C46.0097 14.2953 45.9698 14.1867 45.8865 14.0997C45.7996 14.0164 45.604 13.9403 45.3033 13.8715C43.8979 13.56 43.0068 13.2775 42.6301 13.0203C42.1084 12.6653 41.8476 12.169 41.8476 11.5387C41.8476 10.9664 42.0722 10.4883 42.525 10.1007C42.9742 9.71309 43.6733 9.51749 44.6223 9.51749C45.5243 9.51749 46.1944 9.666 46.6327 9.95941C47.071 10.2528 47.3717 10.6875 47.5383 11.2634L45.8938 11.5677C45.8249 11.3105 45.6909 11.1149 45.4953 10.9773C45.2997 10.8396 45.0172 10.7708 44.6549 10.7708C44.1949 10.7708 43.8689 10.836 43.6697 10.9628C43.5356 11.0533 43.4704 11.1729 43.4704 11.3178C43.4704 11.4409 43.5284 11.546 43.6443 11.6329C43.8001 11.7488 44.3434 11.9118 45.2707 12.1219C46.198 12.332 46.8464 12.5928 47.2159 12.8971C47.5781 13.2086 47.7629 13.6397 47.7629 14.1939C47.7629 14.7988 47.5093 15.3168 47.0058 15.7515C46.5023 16.1862 45.7561 16.4035 44.7672 16.4035C43.8689 16.4035 43.1589 16.2224 42.6373 15.8565C42.1084 15.4871 41.7679 14.9944 41.6049 14.3714Z" fill="white"/>
<path d="M48.8822 12.8609C48.8822 12.2813 49.0235 11.7235 49.3096 11.1802C49.5958 10.6368 49.9979 10.2239 50.5231 9.94132C51.0447 9.65516 51.6315 9.51389 52.2763 9.51389C53.2724 9.51389 54.0911 9.83627 54.725 10.4847C55.3625 11.1331 55.6813 11.9481 55.6813 12.937C55.6813 13.9331 55.3589 14.759 54.7177 15.4146C54.073 16.0703 53.2652 16.3963 52.2908 16.3963C51.6858 16.3963 51.1099 16.2586 50.5629 15.987C50.016 15.7153 49.5994 15.3132 49.3132 14.788C49.0234 14.2627 48.8822 13.618 48.8822 12.8609ZM50.1283 8.49602V7H51.6243V8.49602H50.1283ZM50.668 12.9551C50.668 13.6071 50.8237 14.107 51.1316 14.4547C51.4432 14.8025 51.8235 14.9763 52.2799 14.9763C52.7363 14.9763 53.1167 14.8025 53.4246 14.4547C53.7325 14.107 53.8882 13.6035 53.8882 12.9406C53.8882 12.2958 53.7325 11.7996 53.4246 11.4518C53.1167 11.1041 52.7363 10.9302 52.2799 10.9302C51.8235 10.9302 51.4432 11.1041 51.1316 11.4518C50.8237 11.8032 50.668 12.3031 50.668 12.9551ZM52.7943 8.49602V7H54.2939V8.49602H52.7943Z" fill="white"/>
<path d="M56.9817 16.2478V7.15576H58.724V11.9807L60.7634 9.66241H62.9078L60.6547 12.0676L63.0672 16.2478H61.1872L59.5318 13.2883L58.7204 14.1396V16.2478H56.9817Z" fill="white"/>
<path d="M67.5081 9.6624H69.1128V10.5607C69.6888 9.86163 70.3734 9.51389 71.1667 9.51389C71.5869 9.51389 71.9527 9.60082 72.2642 9.77469C72.5758 9.94856 72.8293 10.2094 73.0285 10.5607C73.3183 10.2094 73.6299 9.94494 73.9667 9.77469C74.3 9.60082 74.6586 9.51389 75.0389 9.51389C75.5243 9.51389 75.9336 9.61169 76.2669 9.80729C76.6002 10.0029 76.8537 10.2927 77.0167 10.673C77.1363 10.9556 77.1978 11.4084 77.1978 12.0386V16.2514H75.4555V12.4842C75.4555 11.8322 75.3939 11.4084 75.2744 11.22C75.1114 10.9737 74.8651 10.8469 74.5318 10.8469C74.2891 10.8469 74.0573 10.923 73.8436 11.0715C73.6298 11.22 73.4741 11.4373 73.3799 11.7271C73.2857 12.0133 73.2386 12.4697 73.2386 13.0891V16.2514H71.4963V12.6399C71.4963 11.9988 71.4637 11.5859 71.4021 11.4011C71.3405 11.2164 71.2427 11.0751 71.1123 10.9845C70.9819 10.894 70.8044 10.8469 70.5835 10.8469C70.3154 10.8469 70.0727 10.9193 69.859 11.0642C69.6453 11.2091 69.4895 11.4192 69.3954 11.6909C69.3012 11.9626 69.2541 12.4154 69.2541 13.0493V16.2514H67.5118V9.6624H67.5081Z" fill="white"/>
<path d="M78.9329 8.76769V7.15576H80.6753V8.76769H78.9329ZM78.9329 16.2478V9.66241H80.6753V16.2478H78.9329Z" fill="white"/>
<path d="M82.3017 16.6824L84.2939 16.9251C84.3265 17.157 84.4026 17.3163 84.5222 17.4033C84.6888 17.5264 84.9496 17.588 85.3046 17.588C85.761 17.588 86.1015 17.5192 86.3297 17.3815C86.4818 17.291 86.5977 17.1425 86.6774 16.9396C86.7318 16.7947 86.7571 16.5267 86.7571 16.1391V15.1792C86.2355 15.8892 85.5799 16.2478 84.783 16.2478C83.8991 16.2478 83.1964 15.8747 82.682 15.1248C82.2763 14.5344 82.0735 13.7991 82.0735 12.9152C82.0735 11.8104 82.3379 10.9664 82.8704 10.3832C83.4029 9.80004 84.0621 9.51025 84.8518 9.51025C85.6668 9.51025 86.3369 9.86886 86.8694 10.5825V9.66239H88.4995V15.574C88.4995 16.3528 88.4343 16.9324 88.3075 17.3163C88.1807 17.7003 87.9996 18.001 87.7678 18.2219C87.5359 18.4393 87.228 18.6131 86.8404 18.7363C86.4529 18.8595 85.9638 18.921 85.3734 18.921C84.2577 18.921 83.4644 18.7291 82.9972 18.3487C82.5299 17.9647 82.2981 17.483 82.2981 16.8925C82.2944 16.8346 82.2981 16.7658 82.3017 16.6824ZM83.8557 12.8174C83.8557 13.5165 83.9897 14.0273 84.2614 14.3533C84.533 14.6793 84.8663 14.8387 85.2647 14.8387C85.6922 14.8387 86.0508 14.6721 86.3442 14.3388C86.6376 14.0056 86.7861 13.5129 86.7861 12.8609C86.7861 12.1799 86.6448 11.6728 86.3659 11.3395C86.0834 11.0099 85.7284 10.8433 85.2973 10.8433C84.8808 10.8433 84.5367 11.0063 84.265 11.3287C83.9933 11.6583 83.8557 12.1545 83.8557 12.8174Z" fill="white"/>
<path fill-rule="evenodd" clip-rule="evenodd" d="M6.43051 9.42761C6.52097 7.97764 7.60938 6.80631 9.00824 6.65168C10.4592 6.50078 12.0014 6.41936 13.6 6.41936C15.1986 6.41936 16.7407 6.50078 18.1917 6.65243C19.5906 6.80631 20.679 7.97764 20.7694 9.42761C20.8136 10.1418 20.8367 10.8716 20.8367 11.6126C20.8367 12.3537 20.8136 13.0835 20.7694 13.7977C20.679 15.2477 19.5906 16.419 18.1917 16.5736C16.7407 16.7245 15.1986 16.8059 13.6 16.8059C12.0014 16.8059 10.4592 16.7245 9.00824 16.5729C7.60938 16.419 6.52097 15.2477 6.43051 13.7977C6.38636 13.0835 6.3632 12.3537 6.3632 11.6126C6.3632 10.8716 6.38636 10.1418 6.43051 9.42761V9.42761Z" fill="white"/>
<path fill-rule="evenodd" clip-rule="evenodd" d="M15.8108 11.613L12.2583 13.8504V9.3757L15.8108 11.613Z" fill="#FF0000"/>
</g>
</svg>
