<svg width="79" height="23" viewBox="0 0 79 23" fill="none" xmlns="http://www.w3.org/2000/svg">
<mask id="mask0" mask-type="alpha" maskUnits="userSpaceOnUse" x="0" y="0" width="79" height="23">
<path d="M74.3 0H3.79999C1.69999 0 0 1.69999 0 3.79999V19.2C0 21.3 1.69999 23 3.79999 23H74.3C76.4 23 78.1 21.3 78.1 19.2V3.79999C78.1 1.69999 76.4 0 74.3 0Z" fill="#4367AF"/>
</mask>
<g mask="url(#mask0)">
<rect width="78" height="23" fill="#0274B3"/>
<rect width="78" height="23" fill="#E36021"/>
<rect width="78" height="23" fill="#ED2326"/>
<path d="M30.1 15L28.2 16.1L27.7 15.3C27.8 15.1 27.9 14.9 27.9 14.8V10.2H26.3V9.29999H28.9V14.7L30.2 13.9V15H30.1ZM29.1 7.90002L28.3 8.5C28 7.9 27.5 7.30001 26.8 6.70001L27.4 6.20001C28.2 6.60001 28.7 7.20002 29.1 7.90002ZM36.5 9.20001H32.3C32.3 9.80001 32.3 10.4 32.3 10.9H35.7C35.6 12.3 35.5 13.5 35.3 14.5C35.1 15.5 34.9 16.1 34.7 16.3C34.5 16.5 34.2 16.7 33.9 16.7C33.6 16.7 33.1 16.6 32.5 16.5L32.2 15.5C33 15.7 33.5 15.8 33.7 15.8C33.8 15.8 33.8 15.8 33.9 15.7C34 15.6 34.1 15.2 34.3 14.4C34.5 13.6 34.5 12.7 34.6 11.8H32.1C31.9 14 31.1 15.7 29.6 17L28.9 16.3C29.5 15.8 30 15.3 30.3 14.6C30.7 13.9 30.9 13.1 31 12.3C31.1 11.5 31.2 10.5 31.2 9.29999H29.1V8.40002H36.2V9.20001H36.5ZM34.1 7.70001L33.3 8.29999C32.8 7.49999 32.2 7.00001 31.6 6.70001L32.2 6.09998C33.1 6.49998 33.7 7.00001 34.1 7.70001Z" fill="white"/>
<path d="M39.6 16.9H38.7V8.29999H39.6V16.9ZM42.1 8L41.4 8.70001C41 8.10001 40.3 7.59998 39.5 7.09998L40.1 6.5C40.9 6.9 41.5 7.4 42.1 8ZM45.3 14.2H44.4V13.7H41.9V14.4H41V9.59998H45.3V14.2ZM44.4 12.8V10.5H41.9V12.8H44.4ZM47.7 15.8C47.7 16.1 47.6 16.3 47.5 16.5C47.3 16.7 47.1 16.8 46.9 16.8H45.7L45.4 15.9H46.7C46.9 15.9 46.9 15.8 46.9 15.7V7.70001H42.7V6.79999H47.8V15.8H47.7Z" fill="white"/>
<path d="M60.5 14.4C60.4 16 60 16.8 59.5 16.8C59.2 16.8 58.8 16.6 58.4 16.2C58 15.8 57.6 15.3 57.2 14.7C56.6 15.2 55.8 15.7 54.9 16.2L54.1 15.5C55.3 14.9 56.2 14.4 56.8 13.8C56.5 13 56.3 12 56.1 10.8H53.8V12.5L55.7 12V12.9L53.8 13.4V15.9C53.8 16.2 53.7 16.4 53.5 16.6C53.3 16.8 52.9 16.8 52.5 16.8C52 16.8 51.7 16.8 51.5 16.8L51.2 15.9H52.7C52.9 15.9 53 15.8 53 15.6V13.6L50.9 14.2L50.2 13.3C51.1 13.1 52.1 12.9 53 12.7V10.7H50.5V9.79999H53V8.09998C52.4 8.29998 51.8 8.40002 51 8.40002L50.4 7.5C52 7.5 53.6 7.10001 55.1 6.20001L55.7 6.90002C54.8 7.40002 54.2 7.80002 53.9 7.90002V9.90002H56.1C56 9.10002 56 8.19999 56 7.29999C56 6.99999 56 6.60001 56 6.20001H56.9C56.9 7.70001 56.9 8.90002 57 9.90002H60.2V10.8H57.1C57.2 11.5 57.3 12.3 57.6 13.1C58.1 12.5 58.6 11.8 58.9 11.1L59.7 11.4C59.2 12.4 58.6 13.2 57.9 13.9C58 14.1 58.2 14.4 58.5 14.9C58.8 15.4 59.1 15.6 59.2 15.6C59.4 15.6 59.5 15.1 59.6 14L60.5 14.4ZM60 8.70001L59.2 9.40002C58.8 8.60002 58.1 7.90002 57.1 7.40002L57.9 6.70001C58.9 7.20001 59.6 7.90001 60 8.70001Z" fill="white"/>
<path d="M65.1 6.40002C65 6.80002 65 7.1 64.9 7.5C64.8 7.9 64.8 8.2 64.7 8.5L64.4 9.40002V16.8H63.5V11.2C63.2 11.7 62.9 12.3 62.4 12.8L61.7 12.2C63.1 10.7 63.9 8.69998 64.3 6.09998L65.1 6.40002ZM67.6 8.29999L66.8 8.79999C66.4 7.99999 66 7.40002 65.4 6.90002L66.1 6.40002C66.9 6.90002 67.3 7.49999 67.6 8.29999ZM66.5 16.8H65.6V8.90002H66.5V16.8ZM72 15.9C72 16.1 71.9 16.3 71.7 16.5C71.5 16.7 71.1 16.7 70.5 16.7C70.3 16.7 70.1 16.7 69.8 16.7L69.5 15.8L70.9 15.9C71 15.9 71 15.8 71 15.6V7.79999H67.6V6.90002H71.9V15.9H72Z" fill="white"/>
<path d="M13.5986 16.5714C12.1202 16.5936 10.6419 16.5803 9.16791 16.4822C8.74426 16.4554 8.3206 16.4198 7.90136 16.3261C7.0364 16.1389 6.52449 15.5904 6.36562 14.7254C6.10525 13.3031 6.06994 11.8629 6.11849 10.4227C6.14938 9.57559 6.20233 8.73289 6.34797 7.8991C6.51566 6.94493 7.11143 6.25829 8.31619 6.14682C10.536 5.94172 12.7646 5.9105 14.9932 5.95063C15.9861 5.96847 16.979 5.99522 17.9676 6.05764C18.4662 6.08885 18.9693 6.11115 19.4503 6.24937C20.3285 6.50352 20.7522 7.15003 20.8802 8.03287C21.1229 9.74502 21.1538 11.4661 21.0258 13.1872C20.9817 13.7579 20.9375 14.3241 20.7963 14.8815C20.5933 15.6974 19.9887 16.2325 19.1679 16.3573C18.2059 16.5 17.235 16.5357 16.2685 16.5669C15.3771 16.5936 14.4857 16.5714 13.5986 16.5714ZM12.0673 13.526C13.3824 12.768 14.671 12.0279 15.9861 11.2744C14.6622 10.5119 13.3736 9.77623 12.0673 9.0227C12.0673 10.5342 12.0673 12.0101 12.0673 13.526Z" fill="#ED2326"/>
<path d="M13.5986 16.5714C12.1202 16.5936 10.6419 16.5803 9.16791 16.4822C8.74426 16.4554 8.3206 16.4198 7.90136 16.3261C7.0364 16.1389 6.52449 15.5904 6.36562 14.7254C6.10525 13.3031 6.06994 11.8629 6.11849 10.4227C6.14938 9.57559 6.20233 8.73289 6.34797 7.8991C6.51566 6.94493 7.11143 6.25829 8.31619 6.14682C10.536 5.94172 12.7646 5.9105 14.9932 5.95063C15.9861 5.96847 16.979 5.99522 17.9676 6.05764C18.4662 6.08885 18.9693 6.11115 19.4503 6.24937C20.3285 6.50352 20.7522 7.15003 20.8802 8.03287C21.1229 9.74502 21.1538 11.4661 21.0258 13.1872C20.9817 13.7579 20.9375 14.3241 20.7963 14.8815C20.5933 15.6974 19.9887 16.2325 19.1679 16.3573C18.2059 16.5 17.235 16.5357 16.2685 16.5669C15.3771 16.5936 14.4857 16.5714 13.5986 16.5714ZM12.0673 13.526C13.3824 12.768 14.671 12.0279 15.9861 11.2744C14.6622 10.5119 13.3736 9.77623 12.0673 9.0227C12.0673 10.5342 12.0673 12.0101 12.0673 13.526Z" fill="white"/>
</g>
</svg>
