<svg width="76" height="23" viewBox="0 0 76 23" fill="none" xmlns="http://www.w3.org/2000/svg">
<mask id="mask0" mask-type="alpha" maskUnits="userSpaceOnUse" x="0" y="0" width="76" height="23">
<path d="M71.3 0H3.8C1.7 0 0 1.7 0 3.8V19.2C0 21.3 1.7 23 3.8 23H71.3C73.4 23 75.1 21.3 75.1 19.2V3.8C75.1 1.7 73.4 0 71.3 0Z" fill="#4367AF"/>
</mask>
<g mask="url(#mask0)">
<rect x="-1" width="76" height="23" fill="#0274B3"/>
<rect x="-1" width="76" height="23" fill="#E36021"/>
<rect x="-1" width="76" height="23" fill="#ED2326"/>
<path d="M33 13.8H32.4C32.2 13.8 32.1 13.8 32 13.8C31.9 13.8 31.9 13.8 31.9 13.9C32 14 32.1 14 32.2 14C32.3 14 32.4 14.1 32.4 14.1C32.4 14.1 32.4 14.2 32.4 14.3C32.4 14.6 32.3 14.9 32.2 15.3C32.1 15.7 31.9 16 31.7 16C31.5 16.1 31.1 16.3 30.4 16.4C29.7 16.6 29 16.6 28.5 16.6C27.7 16.6 27.1 16.4 26.6 16.1C26.1 15.8 25.9 15.4 25.9 14.9C25.9 14.4 26 13.9 26.2 13.5C26.5 13 26.9 12.3 27.6 11.4L28 11.7C27.6 12.2 27.3 12.6 27.1 13C26.9 13.3 26.9 13.6 26.9 14C26.9 14.4 27.1 14.8 27.4 15C27.8 15.2 28.3 15.3 29.1 15.3C29.5 15.3 30 15.2 30.7 15.1C31.4 15 31.7 14.8 31.7 14.7C31.7 14.7 31.6 14.6 31.3 14.6C31 14.6 30.7 14.5 30.4 14.5C29.9 14.5 29.7 14.4 29.7 14.2C29.7 14.1 29.8 13.9 29.9 13.7C30 13.5 30.1 13.4 30.1 13.2C30.3 12.9 30.5 12.6 31 12.4C31.4 12.2 31.9 12.1 32.3 12.1H33V13.8ZM30.5 17.4L29.9 18.1L29.3 17.7L28.8 18.2L28 17.8L28.6 17.1L29.3 17.5L29.8 16.9L30.5 17.4Z" fill="white"/>
<path d="M36.4 13.8H32.6V12.1H35.8C35.8 11.8 35.7 11.6 35.6 11.4C35.5 11.3 35.4 11.1 35.2 10.8L35.7 9.30001C36 9.60001 36.2 10 36.3 10.4C36.4 10.8 36.5 11.3 36.5 12.1V13.8H36.4ZM36.3 7.30001L35.7 8.50002L34.8 8.00002L34.3 9.00002L33.2 8.40001L33.9 7.20001L34.8 7.70001L35.3 6.70001L36.3 7.30001Z" fill="white"/>
<path d="M41.8 13.9C41.8 14.1 41.7 14.5 41.4 14.9C41.1 15.3 40.8 15.7 40.4 16C40 16.3 39.6 16.5 39.3 16.5C38.9 16.5 38.6 16.4 38.1 16.2C37.7 16 37.2 15.7 36.4 15.1L36.7 14.7C37.1 14.9 37.4 15.1 37.6 15.2C37.8 15.3 38.1 15.3 38.3 15.3C38.6 15.3 38.9 15.2 39.1 15.1C39.4 14.9 39.8 14.6 40.3 14.2C41 13.6 41.3 13.1 41.3 12.8C41.3 12.6 41.2 12.4 41.1 12.2C41 11.9 40.8 11.6 40.6 11.4L40.9 9.70001C41.2 10 41.4 10.3 41.5 10.7C41.7 11.1 41.7 11.5 41.7 12V13.9H41.8Z" fill="white"/>
<path d="M44.8 13.8H43.9C43.4 13.8 43.1 13.6 42.9 13.2C42.7 12.8 42.5 12 42.5 11V9.3C42.5 8.9 42.4 8.59999 42.3 8.39999C42.2 8.29999 42.1 8.09999 41.9 7.89999L42.6 6.39999C42.8 6.69999 43 6.99999 43.1 7.39999C43.2 7.79999 43.3 8.2 43.3 8.8V10C43.3 10.9 43.4 11.4 43.5 11.8C43.6 12.1 43.7 12.2 43.9 12.2H44.8V13.8Z" fill="white"/>
<path d="M48.2 13.8H44.4V12.1H47.6C47.6 11.8 47.5 11.6 47.4 11.4C47.3 11.3 47.2 11.1 47 10.8L47.5 9.29999C47.8 9.59999 48 9.99999 48.1 10.4C48.2 10.8 48.3 11.3 48.3 12.1V13.8H48.2ZM48.1 14.9L47.5 16.1L46.6 15.6L46.1 16.6L45 16L45.7 14.8L46.6 15.3L47.1 14.3L48.1 14.9Z" fill="white"/>
<path d="M53.6 13.9C53.6 14.1 53.5 14.5 53.2 14.9C52.9 15.3 52.6 15.7 52.2 16C51.8 16.3 51.4 16.5 51.1 16.5C50.7 16.5 50.4 16.4 49.9 16.2C49.5 16 49 15.7 48.2 15.1L48.5 14.7C48.9 14.9 49.2 15.1 49.4 15.2C49.6 15.3 49.9 15.3 50.1 15.3C50.4 15.3 50.7 15.2 50.9 15.1C51.2 14.9 51.6 14.6 52.1 14.2C52.8 13.6 53.1 13.1 53.1 12.8C53.1 12.6 53 12.4 52.9 12.2C52.8 11.9 52.6 11.6 52.4 11.4L52.7 9.7C53 10 53.2 10.3 53.3 10.7C53.5 11.1 53.5 11.5 53.5 12V13.9H53.6ZM53.3 7.7L52.6 9.1L51.2 8.39999L51.9 7L53.3 7.7Z" fill="white"/>
<path d="M57 13.8H53.2V12.1H56.4C56.4 11.8 56.3 11.6 56.2 11.4C56.1 11.3 56 11.1 55.8 10.8L56.3 9.29999C56.6 9.59999 56.8 9.99999 56.9 10.4C57 10.8 57.1 11.3 57.1 12.1V13.8H57ZM56.4 15.1L55.7 16.5L54.3 15.8L55 14.4L56.4 15.1Z" fill="white"/>
<path d="M65 13.8H64.2C63.5 13.8 62.8 13.9 62.2 14C61.6 14.1 61.3 14.3 61.3 14.4C61.5 14.9 61.6 15.3 61.7 15.8C61.8 16.2 61.9 16.6 61.9 17C61.9 17.3 61.9 17.5 61.8 17.7C61.7 17.9 61.6 18.1 61.5 18.3C61.5 17.8 61.4 17.2 61.2 16.6C61.1 16.4 61 16 60.8 15.3C60.7 14.9 60.6 14.6 60.6 14.5C60.6 14.3 60.7 14.1 60.8 13.8C60.9 13.6 61 13.4 61.1 13.2C61.2 13 61.5 12.8 61.8 12.7C62.1 12.6 62.6 12.5 63.3 12.4C63 11.9 62.7 11.7 62.4 11.7C62.3 11.7 62.2 11.7 62.1 11.8C62 11.9 61.9 12.1 61.6 12.3L61.3 12.2C61.5 11.6 61.7 11.1 62 10.8C62.3 10.5 62.6 10.3 62.9 10.3C63.2 10.3 63.5 10.5 63.8 10.8C64.1 11.1 64.5 11.6 65 12.3V13.8Z" fill="white"/>
<path d="M68.8 13.8H64.6V12.1H68.3C68.3 11.7 68.3 11.5 68.3 11.3C68.3 11.1 68.2 10.9 68.1 10.7C68 11 67.8 11.1 67.6 11.3C67.4 11.4 67.1 11.5 66.9 11.5C66.6 11.5 66.3 11.4 66.1 11.2C65.9 11 65.8 10.7 65.8 10.4C65.8 9.89999 65.9 9.3 66.2 8.7C66.5 8 66.8 7.6 67.2 7.6C67.6 7.6 68 8 68.4 8.7C68.8 9.4 69 10.2 69 11.1V13.8H68.8ZM68.2 5.6L67.6 6.8L66.7 6.3L66.2 7.3L65.1 6.7L65.8 5.5L66.7 6L67.2 5L68.2 5.6ZM67.5 9.7C67.4 9.5 67.3 9.4 67.2 9.3C67.1 9.2 67 9.2 66.9 9.2C66.8 9.2 66.7 9.29999 66.6 9.39999C66.5 9.49999 66.5 9.6 66.5 9.8C66.5 9.9 66.5 10 66.6 10C66.7 10.1 66.8 10.1 66.9 10.1C67 10.1 67.1 10.1 67.2 10C67.2 9.9 67.4 9.8 67.5 9.7Z" fill="white"/>
<path d="M13.5986 16.5714C12.1202 16.5936 10.6419 16.5803 9.16791 16.4822C8.74426 16.4554 8.3206 16.4198 7.90136 16.3261C7.0364 16.1389 6.52449 15.5904 6.36562 14.7254C6.10525 13.3031 6.06994 11.8629 6.11849 10.4227C6.14938 9.57559 6.20233 8.73289 6.34797 7.8991C6.51566 6.94493 7.11143 6.25829 8.31619 6.14682C10.536 5.94172 12.7646 5.9105 14.9932 5.95063C15.9861 5.96847 16.979 5.99522 17.9676 6.05764C18.4662 6.08885 18.9693 6.11115 19.4503 6.24937C20.3285 6.50352 20.7522 7.15003 20.8802 8.03287C21.1229 9.74502 21.1538 11.4661 21.0258 13.1872C20.9817 13.7579 20.9375 14.3241 20.7963 14.8815C20.5933 15.6974 19.9887 16.2325 19.1679 16.3573C18.2059 16.5 17.235 16.5357 16.2685 16.5669C15.3771 16.5936 14.4857 16.5714 13.5986 16.5714ZM12.0673 13.526C13.3824 12.768 14.671 12.0279 15.9861 11.2744C14.6622 10.5119 13.3736 9.77623 12.0673 9.0227C12.0673 10.5342 12.0673 12.0101 12.0673 13.526Z" fill="#ED2326"/>
<path d="M13.5986 16.5714C12.1202 16.5936 10.6419 16.5803 9.16791 16.4822C8.74426 16.4554 8.3206 16.4198 7.90136 16.3261C7.0364 16.1389 6.52449 15.5904 6.36562 14.7254C6.10525 13.3031 6.06994 11.8629 6.11849 10.4227C6.14938 9.57559 6.20233 8.73289 6.34797 7.8991C6.51566 6.94493 7.11143 6.25829 8.31619 6.14682C10.536 5.94172 12.7646 5.9105 14.9932 5.95063C15.9861 5.96847 16.979 5.99522 17.9676 6.05764C18.4662 6.08885 18.9693 6.11115 19.4503 6.24937C20.3285 6.50352 20.7522 7.15003 20.8802 8.03287C21.1229 9.74502 21.1538 11.4661 21.0258 13.1872C20.9817 13.7579 20.9375 14.3241 20.7963 14.8815C20.5933 15.6974 19.9887 16.2325 19.1679 16.3573C18.2059 16.5 17.235 16.5357 16.2685 16.5669C15.3771 16.5936 14.4857 16.5714 13.5986 16.5714ZM12.0673 13.526C13.3824 12.768 14.671 12.0279 15.9861 11.2744C14.6622 10.5119 13.3736 9.77623 12.0673 9.0227C12.0673 10.5342 12.0673 12.0101 12.0673 13.526Z" fill="white"/>
</g>
</svg>
