<svg width="113" height="23" viewBox="0 0 113 23" fill="none" xmlns="http://www.w3.org/2000/svg">
<mask id="mask0" mask-type="alpha" maskUnits="userSpaceOnUse" x="0" y="0" width="113" height="23">
<path d="M108.3 0H3.79999C1.69999 0 0 1.7 0 3.8V19.2C0 21.3 1.69999 23 3.79999 23H108.3C110.4 23 112.1 21.3 112.1 19.2V3.8C112.1 1.6 110.4 0 108.3 0Z" fill="#4367AF"/>
</mask>
<g mask="url(#mask0)">
<rect width="112" height="23" fill="#0274B3"/>
<rect width="112" height="23" fill="#E36021"/>
<rect width="112" height="23" fill="#ED2326"/>
<path d="M26.3 6.90001H33.4V15.8H31.6V8.40001H28.1V15.8H26.3V6.90001Z" fill="white"/>
<path d="M34.8 12.5C34.8 11.9 34.9 11.4 35.2 10.9C35.5 10.4 35.9 10 36.4 9.7C36.9 9.4 37.5 9.3 38.1 9.3C39.1 9.3 39.9 9.6 40.5 10.2C41.1 10.8 41.4 11.6 41.4 12.6C41.4 13.6 41.1 14.4 40.5 15C39.9 15.6 39.1 16 38.1 16C37.5 16 36.9 15.9 36.4 15.6C35.9 15.3 35.5 14.9 35.2 14.4C34.9 13.9 34.8 13.3 34.8 12.5ZM36.5 12.6C36.5 13.2 36.7 13.7 37 14.1C37.3 14.4 37.7 14.6 38.1 14.6C38.5 14.6 38.9 14.4 39.2 14.1C39.5 13.8 39.7 13.3 39.7 12.6C39.7 12 39.5 11.5 39.2 11.1C38.9 10.8 38.5 10.6 38.1 10.6C37.7 10.6 37.3 10.8 37 11.1C36.7 11.5 36.5 12 36.5 12.6Z" fill="white"/>
<path d="M48.2 11.3L46.5 11.6C46.4 11.3 46.3 11 46.1 10.8C45.9 10.6 45.6 10.5 45.3 10.5C44.9 10.5 44.5 10.6 44.3 10.9C44 11.2 43.9 11.7 43.9 12.4C43.9 13.2 44 13.7 44.3 14C44.6 14.3 44.9 14.5 45.3 14.5C45.6 14.5 45.9 14.4 46.1 14.2C46.3 14 46.5 13.7 46.5 13.3L48.2 13.6C48 14.4 47.7 14.9 47.2 15.3C46.7 15.7 46 15.9 45.2 15.9C44.3 15.9 43.5 15.6 42.9 15C42.3 14.4 42.1 13.6 42.1 12.5C42.1 11.4 42.4 10.6 42.9 10C43.5 9.4 44.2 9.10001 45.2 9.10001C46 9.10001 46.6 9.30001 47.1 9.60001C47.7 10.1 48 10.6 48.2 11.3Z" fill="white"/>
<path d="M53.2 13.8L54.9 14.1C54.7 14.7 54.3 15.2 53.9 15.5C53.4 15.8 52.8 16 52.1 16C51 16 50.2 15.6 49.6 14.9C49.2 14.3 49 13.6 49 12.7C49 11.6 49.3 10.8 49.8 10.2C50.4 9.6 51.1 9.3 51.9 9.3C52.9 9.3 53.6 9.6 54.2 10.2C54.8 10.8 55 11.8 55 13.1H50.7C50.7 13.6 50.8 14 51.1 14.3C51.4 14.6 51.7 14.7 52.1 14.7C52.4 14.7 52.6 14.6 52.8 14.5C53 14.3 53.1 14.1 53.2 13.8ZM53.3 12.1C53.3 11.6 53.2 11.2 52.9 11C52.7 10.7 52.4 10.6 52 10.6C51.6 10.6 51.3 10.7 51.1 11C50.9 11.3 50.7 11.6 50.7 12.1H53.3Z" fill="white"/>
<path d="M55.5 9.40001H61.3V10.8H59.2V15.9H57.5V10.8H55.4V9.40001H55.5Z" fill="white"/>
<path d="M62.3 9.40001H63.9V13.4L66.5 9.40001H68.2V15.8H66.6V11.7L63.9 15.8H62.3V9.40001Z" fill="white"/>
<path d="M69.2 9.40001H75V10.8H72.9V15.9H71.2V10.8H69.1V9.40001H69.2Z" fill="white"/>
<path d="M79.7 13.8L81.4 14.1C81.2 14.7 80.8 15.2 80.4 15.5C79.9 15.8 79.3 16 78.6 16C77.5 16 76.7 15.6 76.1 14.9C75.7 14.3 75.5 13.6 75.5 12.7C75.5 11.6 75.8 10.8 76.3 10.2C76.9 9.6 77.6 9.3 78.4 9.3C79.4 9.3 80.1 9.6 80.7 10.2C81.3 10.8 81.5 11.8 81.5 13.1H77.2C77.2 13.6 77.3 14 77.6 14.3C77.9 14.6 78.2 14.7 78.6 14.7C78.9 14.7 79.1 14.6 79.3 14.5C79.5 14.3 79.7 14.1 79.7 13.8ZM79.8 12.1C79.8 11.6 79.7 11.2 79.4 11C79.2 10.7 78.9 10.6 78.5 10.6C78.1 10.6 77.8 10.7 77.6 11C77.4 11.3 77.2 11.6 77.2 12.1H79.8Z" fill="white"/>
<path d="M86.3 9.40001H88V11.8H90.4V9.40001H92.1V15.8H90.4V13.1H88V15.8H86.3V9.40001Z" fill="white"/>
<path d="M95.1 11.4L93.6 11.1C93.8 10.5 94.1 10 94.5 9.7C94.9 9.4 95.6 9.3 96.4 9.3C97.2 9.3 97.7 9.40001 98.1 9.60001C98.5 9.80001 98.7 10 98.9 10.3C99.1 10.6 99.1 11.1 99.1 11.8V13.8C99.1 14.4 99.1 14.8 99.2 15.1C99.3 15.4 99.4 15.7 99.5 16H97.8C97.8 15.9 97.7 15.7 97.6 15.5C97.6 15.4 97.6 15.3 97.5 15.3C97.2 15.6 96.9 15.8 96.6 15.9C96.3 16 95.9 16.1 95.5 16.1C94.8 16.1 94.3 15.9 93.9 15.6C93.5 15.2 93.3 14.8 93.3 14.2C93.3 13.8 93.4 13.5 93.6 13.2C93.8 12.9 94 12.7 94.3 12.5C94.6 12.3 95.1 12.2 95.7 12.1C96.5 12 97 11.8 97.4 11.7V11.5C97.4 11.2 97.3 10.9 97.2 10.8C97 10.7 96.7 10.6 96.3 10.6C96 10.6 95.8 10.7 95.6 10.8C95.4 10.8 95.2 11.1 95.1 11.4ZM97.4 12.7C97.2 12.8 96.8 12.9 96.4 13C95.9 13.1 95.6 13.2 95.5 13.3C95.3 13.5 95.2 13.7 95.2 13.9C95.2 14.1 95.3 14.3 95.5 14.5C95.7 14.7 95.9 14.8 96.2 14.8C96.5 14.8 96.8 14.7 97.1 14.5C97.3 14.3 97.4 14.2 97.5 13.9C97.5 13.8 97.6 13.5 97.6 13.1V12.7H97.4Z" fill="white"/>
<path d="M106.4 11.3L104.7 11.6C104.6 11.3 104.5 11 104.3 10.8C104.1 10.6 103.8 10.5 103.5 10.5C103.1 10.5 102.7 10.6 102.5 10.9C102.2 11.2 102.1 11.7 102.1 12.4C102.1 13.2 102.2 13.7 102.5 14C102.8 14.3 103.1 14.5 103.5 14.5C103.8 14.5 104.1 14.4 104.3 14.2C104.5 14 104.7 13.7 104.7 13.3L106.4 13.6C106.2 14.4 105.9 14.9 105.4 15.3C104.9 15.7 104.2 15.9 103.4 15.9C102.5 15.9 101.7 15.6 101.1 15C100.5 14.4 100.3 13.6 100.3 12.5C100.3 11.4 100.6 10.6 101.1 10C101.7 9.4 102.4 9.10001 103.4 9.10001C104.2 9.10001 104.8 9.30001 105.3 9.60001C105.8 10.1 106.2 10.6 106.4 11.3Z" fill="white"/>
<path d="M13.5986 16.5714C12.1202 16.5936 10.6419 16.5803 9.16791 16.4822C8.74426 16.4554 8.3206 16.4198 7.90136 16.3261C7.0364 16.1389 6.52449 15.5904 6.36562 14.7254C6.10525 13.3031 6.06994 11.8629 6.11849 10.4227C6.14938 9.57559 6.20233 8.73289 6.34797 7.8991C6.51566 6.94493 7.11143 6.25829 8.31619 6.14682C10.536 5.94172 12.7646 5.9105 14.9932 5.95063C15.9861 5.96847 16.979 5.99522 17.9676 6.05764C18.4662 6.08885 18.9693 6.11115 19.4503 6.24937C20.3285 6.50352 20.7522 7.15003 20.8802 8.03287C21.1229 9.74502 21.1538 11.4661 21.0258 13.1872C20.9817 13.7579 20.9375 14.3241 20.7963 14.8815C20.5933 15.6974 19.9887 16.2325 19.1679 16.3573C18.2059 16.5 17.235 16.5357 16.2685 16.5669C15.3771 16.5936 14.4857 16.5714 13.5986 16.5714ZM12.0673 13.526C13.3824 12.768 14.671 12.0279 15.9861 11.2744C14.6622 10.5119 13.3736 9.77623 12.0673 9.0227C12.0673 10.5342 12.0673 12.0101 12.0673 13.526Z" fill="#ED2326"/>
<path d="M13.5986 16.5714C12.1202 16.5936 10.6419 16.5803 9.16791 16.4822C8.74426 16.4554 8.3206 16.4198 7.90136 16.3261C7.0364 16.1389 6.52449 15.5904 6.36562 14.7254C6.10525 13.3031 6.06994 11.8629 6.11849 10.4227C6.14938 9.57559 6.20233 8.73289 6.34797 7.8991C6.51566 6.94493 7.11143 6.25829 8.31619 6.14682C10.536 5.94172 12.7646 5.9105 14.9932 5.95063C15.9861 5.96847 16.979 5.99522 17.9676 6.05764C18.4662 6.08885 18.9693 6.11115 19.4503 6.24937C20.3285 6.50352 20.7522 7.15003 20.8802 8.03287C21.1229 9.74502 21.1538 11.4661 21.0258 13.1872C20.9817 13.7579 20.9375 14.3241 20.7963 14.8815C20.5933 15.6974 19.9887 16.2325 19.1679 16.3573C18.2059 16.5 17.235 16.5357 16.2685 16.5669C15.3771 16.5936 14.4857 16.5714 13.5986 16.5714ZM12.0673 13.526C13.3824 12.768 14.671 12.0279 15.9861 11.2744C14.6622 10.5119 13.3736 9.77623 12.0673 9.0227C12.0673 10.5342 12.0673 12.0101 12.0673 13.526Z" fill="white"/>
</g>
</svg>
