<svg width="126" height="24" viewBox="0 0 126 24" fill="none" xmlns="http://www.w3.org/2000/svg">
<mask id="mask0" mask-type="alpha" maskUnits="userSpaceOnUse" x="0" y="0" width="126" height="24">
<path d="M121.3 0H3.8C1.7 0 0 1.7 0 3.8V19.3C0 21.4 1.7 23.1 3.8 23.1H121.3C123.4 23.1 125.1 21.4 125.1 19.3V3.90001C125.1 1.70001 123.4 0 121.3 0Z" fill="#4367AF"/>
</mask>
<g mask="url(#mask0)">
<rect x="-1" width="126" height="26" fill="#0274B3"/>
<rect x="-1" width="126" height="26" fill="#E36021"/>
<rect x="-1" width="126" height="26" fill="#ED2326"/>
<path d="M29.1 16L25.9 7H27.9L30.2 13.6L32.4 7H34.3L31.1 16H29.1Z" fill="white"/>
<path d="M34.9 8.60001V7H36.6V8.60001H34.9ZM34.9 16V9.5H36.6V16H34.9Z" fill="white"/>
<path d="M37.8 14.2L39.5 13.9C39.6 14.2 39.7 14.5 39.9 14.7C40.1 14.9 40.4 15 40.8 15C41.2 15 41.6 14.9 41.8 14.8C42 14.7 42 14.5 42 14.3C42 14.2 42 14.1 41.9 14C41.8 13.9 41.6 13.8 41.3 13.8C39.9 13.5 39 13.2 38.7 13C38.2 12.6 37.9 12.2 37.9 11.5C37.9 10.9 38.1 10.5 38.6 10.1C39 9.70001 39.7 9.5 40.7 9.5C41.6 9.5 42.2 9.60001 42.7 9.90001C43.1 10.2 43.4 10.6 43.6 11.2L42 11.5C41.9 11.2 41.8 11.1 41.6 10.9C41.4 10.8 41.1 10.7 40.8 10.7C40.3 10.7 40 10.8 39.8 10.9C39.7 11 39.6 11.1 39.6 11.2C39.6 11.3 39.7 11.4 39.8 11.5C40 11.6 40.5 11.8 41.4 12C42.3 12.2 43 12.5 43.3 12.8C43.7 13.1 43.8 13.5 43.8 14.1C43.8 14.7 43.6 15.2 43.1 15.6C42.6 16 41.9 16.2 40.9 16.2C40 16.2 39.3 16 38.8 15.7C38.3 15.4 38 14.8 37.8 14.2Z" fill="white"/>
<path d="M45.4 8.60001V7H47.1V8.60001H45.4ZM45.4 16V9.5H47.1V16H45.4Z" fill="white"/>
<path d="M51.8 9.5V10.9H50.6V13.5C50.6 14 50.6 14.3 50.6 14.4C50.6 14.5 50.7 14.6 50.8 14.6C50.9 14.7 51 14.7 51.1 14.7C51.3 14.7 51.5 14.6 51.8 14.5L51.9 15.8C51.5 16 51 16.1 50.5 16.1C50.2 16.1 49.9 16 49.7 15.9C49.5 15.8 49.3 15.7 49.2 15.5C49.1 15.3 49 15.1 49 14.8C49 14.6 48.9 14.2 48.9 13.6V10.8H48.1V9.40001H48.9V8.10001L50.6 7.10001V9.40001H51.8V9.5Z" fill="white"/>
<path d="M56.8 13.9L58.5 14.2C58.3 14.8 57.9 15.3 57.5 15.6C57.1 15.9 56.4 16.1 55.7 16.1C54.6 16.1 53.7 15.7 53.2 15C52.8 14.4 52.6 13.7 52.6 12.8C52.6 11.7 52.9 10.9 53.4 10.3C54 9.69999 54.7 9.39999 55.5 9.39999C56.5 9.39999 57.2 9.69999 57.8 10.4C58.4 11 58.6 12 58.6 13.3H54.3C54.3 13.8 54.5 14.2 54.7 14.5C55 14.8 55.3 14.9 55.7 14.9C56 14.9 56.2 14.8 56.4 14.7C56.6 14.5 56.7 14.3 56.8 13.9ZM56.9 12.2C56.9 11.7 56.8 11.3 56.5 11.1C56.3 10.8 56 10.7 55.6 10.7C55.2 10.7 54.9 10.8 54.7 11.1C54.5 11.4 54.3 11.7 54.3 12.2H56.9Z" fill="white"/>
<path d="M59.3 16V14.7L61.7 11.9C62.1 11.4 62.4 11.1 62.6 10.9C62.4 10.9 62.1 10.9 61.8 10.9H59.5V9.5H64.9V10.7L62.4 13.6L61.5 14.5C62 14.5 62.3 14.5 62.4 14.5H65.1V16H59.3Z" fill="white"/>
<path d="M69.6 9.49998H71.2V10.4C71.8 9.69999 72.4 9.39999 73.2 9.39999C73.6 9.39999 74 9.5 74.3 9.7C74.6 9.9 74.9 10.1 75.1 10.5C75.4 10.2 75.7 9.9 76 9.7C76.3 9.5 76.7 9.39999 77.1 9.39999C77.6 9.39999 78 9.5 78.3 9.7C78.6 9.9 78.9 10.2 79 10.6C79.1 10.9 79.2 11.3 79.2 11.9V16.1H77.5V12.4C77.5 11.8 77.4 11.3 77.3 11.2C77.1 11 76.9 10.8 76.6 10.8C76.4 10.8 76.1 10.9 75.9 11C75.7 11.1 75.5 11.4 75.4 11.6C75.3 11.9 75.3 12.3 75.3 12.9V16H73.6V12.4C73.6 11.8 73.6 11.4 73.5 11.2C73.4 11 73.3 10.9 73.2 10.8C73.1 10.7 72.9 10.7 72.7 10.7C72.4 10.7 72.2 10.8 72 10.9C71.8 11 71.6 11.2 71.5 11.5C71.4 11.8 71.4 12.2 71.4 12.8V16H69.7V9.49998H69.6Z" fill="white"/>
<path d="M82.2 11.5L80.6 11.2C80.8 10.6 81.1 10.1 81.5 9.80002C81.9 9.50002 82.6 9.30002 83.4 9.30002C84.2 9.30002 84.7 9.40002 85.1 9.60002C85.5 9.80002 85.7 10 85.9 10.3C86.1 10.6 86.1 11.1 86.1 11.8V13.8C86.1 14.4 86.1 14.8 86.2 15.1C86.3 15.4 86.4 15.7 86.5 16H84.8C84.8 15.9 84.7 15.7 84.6 15.5C84.6 15.4 84.6 15.3 84.5 15.3C84.2 15.6 83.9 15.8 83.6 15.9C83.3 16 82.9 16.1 82.5 16.1C81.8 16.1 81.3 15.9 80.9 15.6C80.5 15.2 80.3 14.8 80.3 14.2C80.3 13.8 80.4 13.5 80.6 13.2C80.8 12.9 81 12.7 81.3 12.5C81.6 12.3 82.1 12.2 82.7 12.1C83.5 11.9 84.1 11.8 84.4 11.7V11.6C84.4 11.3 84.3 11 84.2 10.9C84.1 10.8 83.7 10.7 83.3 10.7C83 10.7 82.8 10.8 82.6 10.9C82.4 11 82.3 11.2 82.2 11.5ZM84.5 12.9C84.3 13 83.9 13.1 83.5 13.2C83 13.3 82.7 13.4 82.6 13.5C82.4 13.7 82.3 13.9 82.3 14.1C82.3 14.3 82.4 14.5 82.6 14.7C82.8 14.9 83 15 83.3 15C83.6 15 83.9 14.9 84.2 14.7C84.4 14.5 84.5 14.4 84.6 14.1C84.6 14 84.7 13.7 84.7 13.3V12.9H84.5Z" fill="white"/>
<path d="M91.3 9.49998H92.9V10.5C93.1 10.2 93.4 9.9 93.7 9.7C94.1 9.5 94.4 9.39999 94.9 9.39999C95.7 9.39999 96.3 9.69999 96.8 10.3C97.3 10.9 97.6 11.7 97.6 12.8C97.6 13.9 97.3 14.7 96.8 15.3C96.3 15.9 95.6 16.2 94.9 16.2C94.5 16.2 94.2 16.1 93.9 16C93.6 15.9 93.3 15.6 93 15.3V18.6H91.3V9.49998ZM93 12.7C93 13.4 93.1 14 93.4 14.3C93.7 14.6 94 14.8 94.5 14.8C94.9 14.8 95.2 14.6 95.5 14.3C95.8 14 95.9 13.5 95.9 12.7C95.9 12 95.8 11.5 95.5 11.2C95.2 10.9 94.9 10.7 94.5 10.7C94.1 10.7 93.7 10.9 93.5 11.2C93.1 11.5 93 12 93 12.7Z" fill="white"/>
<path d="M100.3 11.5L98.7 11.2C98.9 10.6 99.2 10.1 99.6 9.80002C100 9.50002 100.7 9.30002 101.5 9.30002C102.3 9.30002 102.8 9.40002 103.2 9.60002C103.6 9.80002 103.8 10 104 10.3C104.2 10.6 104.2 11.1 104.2 11.8V13.8C104.2 14.4 104.2 14.8 104.3 15.1C104.4 15.4 104.5 15.7 104.6 16H102.9C102.9 15.9 102.8 15.7 102.7 15.5C102.7 15.4 102.7 15.3 102.6 15.3C102.3 15.6 102 15.8 101.7 15.9C101.4 16 101 16.1 100.6 16.1C99.9 16.1 99.4 15.9 99 15.6C98.6 15.2 98.4 14.8 98.4 14.2C98.4 13.8 98.5 13.5 98.7 13.2C98.9 12.9 99.1 12.7 99.4 12.5C99.7 12.3 100.2 12.2 100.8 12.1C101.6 11.9 102.2 11.8 102.5 11.7V11.6C102.5 11.3 102.4 11 102.3 10.9C102.2 10.8 101.8 10.7 101.4 10.7C101.1 10.7 100.9 10.8 100.7 10.9C100.5 11 100.4 11.2 100.3 11.5ZM102.6 12.9C102.4 13 102 13.1 101.6 13.2C101.1 13.3 100.8 13.4 100.7 13.5C100.5 13.7 100.4 13.9 100.4 14.1C100.4 14.3 100.5 14.5 100.7 14.7C100.9 14.9 101.1 15 101.4 15C101.7 15 102 14.9 102.3 14.7C102.5 14.5 102.6 14.4 102.7 14.1C102.7 14 102.8 13.7 102.8 13.3V12.9H102.6Z" fill="white"/>
<path d="M105.8 16.4L107.8 16.6C107.8 16.8 107.9 17 108 17.1C108.2 17.2 108.4 17.3 108.8 17.3C109.2 17.3 109.6 17.2 109.8 17.1C110 17 110.1 16.9 110.1 16.7C110.2 16.6 110.2 16.3 110.2 15.9V15C109.7 15.7 109 16.1 108.3 16.1C107.4 16.1 106.7 15.7 106.2 15C105.8 14.4 105.6 13.7 105.6 12.8C105.6 11.7 105.9 10.9 106.4 10.3C106.9 9.69999 107.6 9.39999 108.4 9.39999C109.2 9.39999 109.9 9.79998 110.4 10.5V9.59999H112V15.4C112 16.2 111.9 16.7 111.8 17.1C111.7 17.5 111.5 17.8 111.3 18C111.1 18.2 110.8 18.4 110.4 18.5C110 18.6 109.5 18.7 109 18.7C107.9 18.7 107.1 18.5 106.7 18.1C106.3 17.7 106 17.2 106 16.7C105.8 16.6 105.8 16.5 105.8 16.4ZM107.4 12.6C107.4 13.3 107.5 13.8 107.8 14.1C108.1 14.4 108.4 14.6 108.8 14.6C109.2 14.6 109.6 14.4 109.9 14.1C110.2 13.8 110.3 13.3 110.3 12.6C110.3 11.9 110.2 11.4 109.9 11.1C109.6 10.8 109.3 10.6 108.8 10.6C108.4 10.6 108 10.8 107.8 11.1C107.5 11.5 107.4 12 107.4 12.6Z" fill="white"/>
<path d="M117.4 13.9L119.1 14.2C118.9 14.8 118.5 15.3 118.1 15.6C117.7 15.9 117 16.1 116.3 16.1C115.2 16.1 114.3 15.7 113.8 15C113.4 14.4 113.2 13.7 113.2 12.8C113.2 11.7 113.5 10.9 114 10.3C114.6 9.69999 115.3 9.39999 116.1 9.39999C117.1 9.39999 117.8 9.69999 118.4 10.4C119 11 119.2 12 119.2 13.3H114.9C114.9 13.8 115.1 14.2 115.3 14.5C115.6 14.8 115.9 14.9 116.3 14.9C116.6 14.9 116.8 14.8 117 14.7C117.2 14.5 117.3 14.3 117.4 13.9ZM117.5 12.2C117.5 11.7 117.4 11.3 117.1 11.1C116.9 10.8 116.6 10.7 116.2 10.7C115.8 10.7 115.5 10.8 115.3 11.1C115.1 11.4 114.9 11.7 114.9 12.2H117.5Z" fill="white"/>
<path d="M13.5986 16.5714C12.1202 16.5936 10.6419 16.5803 9.16791 16.4822C8.74426 16.4554 8.3206 16.4198 7.90136 16.3261C7.0364 16.1389 6.52449 15.5904 6.36562 14.7254C6.10525 13.3031 6.06994 11.8629 6.11849 10.4227C6.14938 9.57559 6.20233 8.73289 6.34797 7.8991C6.51566 6.94493 7.11143 6.25829 8.31619 6.14682C10.536 5.94172 12.7646 5.9105 14.9932 5.95063C15.9861 5.96847 16.979 5.99522 17.9676 6.05764C18.4662 6.08885 18.9693 6.11115 19.4503 6.24937C20.3285 6.50352 20.7522 7.15003 20.8802 8.03287C21.1229 9.74502 21.1538 11.4661 21.0258 13.1872C20.9817 13.7579 20.9375 14.3241 20.7963 14.8815C20.5933 15.6974 19.9887 16.2325 19.1679 16.3573C18.2059 16.5 17.235 16.5357 16.2685 16.5669C15.3771 16.5936 14.4857 16.5714 13.5986 16.5714ZM12.0673 13.526C13.3824 12.768 14.671 12.0279 15.9861 11.2744C14.6622 10.5119 13.3736 9.77623 12.0673 9.0227C12.0673 10.5342 12.0673 12.0101 12.0673 13.526Z" fill="#ED2326"/>
<path d="M13.5986 16.5714C12.1202 16.5936 10.6419 16.5803 9.16791 16.4822C8.74426 16.4554 8.3206 16.4198 7.90136 16.3261C7.0364 16.1389 6.52449 15.5904 6.36562 14.7254C6.10525 13.3031 6.06994 11.8629 6.11849 10.4227C6.14938 9.57559 6.20233 8.73289 6.34797 7.8991C6.51566 6.94493 7.11143 6.25829 8.31619 6.14682C10.536 5.94172 12.7646 5.9105 14.9932 5.95063C15.9861 5.96847 16.979 5.99522 17.9676 6.05764C18.4662 6.08885 18.9693 6.11115 19.4503 6.24937C20.3285 6.50352 20.7522 7.15003 20.8802 8.03287C21.1229 9.74502 21.1538 11.4661 21.0258 13.1872C20.9817 13.7579 20.9375 14.3241 20.7963 14.8815C20.5933 15.6974 19.9887 16.2325 19.1679 16.3573C18.2059 16.5 17.235 16.5357 16.2685 16.5669C15.3771 16.5936 14.4857 16.5714 13.5986 16.5714ZM12.0673 13.526C13.3824 12.768 14.671 12.0279 15.9861 11.2744C14.6622 10.5119 13.3736 9.77623 12.0673 9.0227C12.0673 10.5342 12.0673 12.0101 12.0673 13.526Z" fill="white"/>
</g>
</svg>
