<svg width="80" height="23" viewBox="0 0 80 23" fill="none" xmlns="http://www.w3.org/2000/svg">
<mask id="mask0" mask-type="alpha" maskUnits="userSpaceOnUse" x="0" y="0" width="80" height="23">
<path d="M75.3 0H3.8C1.7 0 0 1.7 0 3.8V19.2C0 21.3 1.7 23 3.8 23H75.3C77.4 23 79.1 21.3 79.1 19.2V3.8C79.1 1.7 77.4 0 75.3 0Z" fill="#4367AF"/>
</mask>
<g mask="url(#mask0)">
<rect x="-1" width="81" height="23" fill="#0274B3"/>
<rect x="-1" width="81" height="23" fill="#E36021"/>
<rect x="-1" width="81" height="23" fill="#ED2326"/>
<path d="M29.1 16L25.9 7H27.9L30.2 13.6L32.4 7H34.3L31.1 16H29.1Z" fill="white"/>
<path d="M34.9 8.70001V7.10001H36.6V8.70001H34.9ZM34.9 16V9.50001H36.6V16H34.9Z" fill="white"/>
<path d="M37.8 14.2L39.5 13.9C39.6 14.2 39.7 14.5 39.9 14.7C40.1 14.9 40.4 15 40.8 15C41.2 15 41.6 14.9 41.8 14.8C42 14.7 42 14.5 42 14.3C42 14.2 42 14.1 41.9 14C41.8 13.9 41.6 13.8 41.3 13.8C39.9 13.5 39 13.2 38.7 13C38.2 12.6 37.9 12.2 37.9 11.5C37.9 10.9 38.1 10.5 38.6 10.1C39 9.7 39.7 9.5 40.7 9.5C41.6 9.5 42.2 9.6 42.7 9.9C43.1 10.2 43.4 10.6 43.6 11.2L42 11.5C41.9 11.2 41.8 11.1 41.6 10.9C41.4 10.8 41.1 10.7 40.8 10.7C40.3 10.7 40 10.8 39.8 10.9C39.7 11 39.6 11.1 39.6 11.2C39.6 11.3 39.7 11.4 39.8 11.5C40 11.6 40.5 11.8 41.4 12C42.3 12.2 43 12.5 43.3 12.8C43.7 13.1 43.8 13.5 43.8 14.1C43.8 14.7 43.6 15.2 43.1 15.6C42.6 16 41.9 16.2 40.9 16.2C40 16.2 39.3 16 38.8 15.7C38.3 15.4 38 14.8 37.8 14.2Z" fill="white"/>
<path d="M45.4 8.70001V7.10001H47.1V8.70001H45.4ZM45.4 16V9.50001H47.1V16H45.4Z" fill="white"/>
<path d="M51.8 9.50001V10.9H50.6V13.5C50.6 14 50.6 14.3 50.6 14.4C50.6 14.5 50.7 14.6 50.8 14.6C50.9 14.7 51 14.7 51.1 14.7C51.3 14.7 51.5 14.6 51.8 14.5L51.9 15.8C51.5 16 51 16.1 50.5 16.1C50.2 16.1 49.9 16 49.7 15.9C49.5 15.8 49.3 15.7 49.2 15.5C49.1 15.3 49 15.1 49 14.8C49 14.6 48.9 14.2 48.9 13.6V10.8H48.1V9.40001H48.9V8.10001L50.6 7.10001V9.40001H51.8V9.50001Z" fill="white"/>
<path d="M56.4 9.5H58V10.4C58.6 9.69999 59.2 9.39999 60 9.39999C60.4 9.39999 60.8 9.5 61.1 9.7C61.4 9.9 61.7 10.1 61.9 10.5C62.2 10.2 62.5 9.9 62.8 9.7C63.1 9.5 63.5 9.39999 63.9 9.39999C64.4 9.39999 64.8 9.5 65.1 9.7C65.4 9.9 65.7 10.2 65.8 10.6C65.9 10.9 66 11.3 66 11.9V16.1H64.3V12.3C64.3 11.7 64.2 11.2 64.1 11.1C63.9 10.9 63.7 10.7 63.4 10.7C63.2 10.7 62.9 10.8 62.7 10.9C62.5 11 62.3 11.3 62.2 11.5C62.1 11.8 62.1 12.2 62.1 12.8V15.9H60.4V12.3C60.4 11.7 60.4 11.3 60.3 11.1C60.2 10.9 60.1 10.8 60 10.7C59.9 10.6 59.7 10.6 59.5 10.6C59.2 10.6 59 10.7 58.8 10.8C58.6 10.9 58.4 11.1 58.3 11.4C58.2 11.7 58.2 12.1 58.2 12.7V15.9H56.5V9.5H56.4Z" fill="white"/>
<path d="M71.4 14L73.1 14.3C72.9 14.9 72.5 15.4 72.1 15.7C71.7 16 71 16.2 70.3 16.2C69.2 16.2 68.3 15.8 67.8 15.1C67.4 14.5 67.2 13.8 67.2 12.9C67.2 11.8 67.5 11 68 10.4C68.6 9.8 69.3 9.5 70.1 9.5C71.1 9.5 71.8 9.8 72.4 10.5C73 11.1 73.2 12.1 73.2 13.4H68.9C68.9 13.9 69.1 14.3 69.3 14.6C69.6 14.9 69.9 15 70.3 15C70.6 15 70.8 14.9 71 14.8C71.2 14.5 71.3 14.3 71.4 14ZM71.5 12.2C71.5 11.7 71.4 11.3 71.1 11.1C70.9 10.8 70.6 10.7 70.2 10.7C69.8 10.7 69.5 10.8 69.3 11.1C69.1 11.4 68.9 11.7 68.9 12.2H71.5Z" fill="white"/>
<path d="M13.5986 16.5714C12.1202 16.5936 10.6419 16.5803 9.16791 16.4822C8.74426 16.4554 8.3206 16.4198 7.90136 16.3261C7.0364 16.1389 6.52449 15.5904 6.36562 14.7254C6.10525 13.3031 6.06994 11.8629 6.11849 10.4227C6.14938 9.57559 6.20233 8.73289 6.34797 7.8991C6.51566 6.94493 7.11143 6.25829 8.31619 6.14682C10.536 5.94172 12.7646 5.9105 14.9932 5.95063C15.9861 5.96847 16.979 5.99522 17.9676 6.05764C18.4662 6.08885 18.9693 6.11115 19.4503 6.24937C20.3285 6.50352 20.7522 7.15003 20.8802 8.03287C21.1229 9.74502 21.1538 11.4661 21.0258 13.1872C20.9817 13.7579 20.9375 14.3241 20.7963 14.8815C20.5933 15.6974 19.9887 16.2325 19.1679 16.3573C18.2059 16.5 17.235 16.5357 16.2685 16.5669C15.3771 16.5936 14.4857 16.5714 13.5986 16.5714ZM12.0673 13.526C13.3824 12.768 14.671 12.0279 15.9861 11.2744C14.6622 10.5119 13.3736 9.77623 12.0673 9.0227C12.0673 10.5342 12.0673 12.0101 12.0673 13.526Z" fill="#ED2326"/>
<path d="M13.5986 16.5714C12.1202 16.5936 10.6419 16.5803 9.16791 16.4822C8.74426 16.4554 8.3206 16.4198 7.90136 16.3261C7.0364 16.1389 6.52449 15.5904 6.36562 14.7254C6.10525 13.3031 6.06994 11.8629 6.11849 10.4227C6.14938 9.57559 6.20233 8.73289 6.34797 7.8991C6.51566 6.94493 7.11143 6.25829 8.31619 6.14682C10.536 5.94172 12.7646 5.9105 14.9932 5.95063C15.9861 5.96847 16.979 5.99522 17.9676 6.05764C18.4662 6.08885 18.9693 6.11115 19.4503 6.24937C20.3285 6.50352 20.7522 7.15003 20.8802 8.03287C21.1229 9.74502 21.1538 11.4661 21.0258 13.1872C20.9817 13.7579 20.9375 14.3241 20.7963 14.8815C20.5933 15.6974 19.9887 16.2325 19.1679 16.3573C18.2059 16.5 17.235 16.5357 16.2685 16.5669C15.3771 16.5936 14.4857 16.5714 13.5986 16.5714ZM12.0673 13.526C13.3824 12.768 14.671 12.0279 15.9861 11.2744C14.6622 10.5119 13.3736 9.77623 12.0673 9.0227C12.0673 10.5342 12.0673 12.0101 12.0673 13.526Z" fill="white"/>
</g>
</svg>
